<svg width="846" height="133" viewBox="0 0 846 133" fill="none" xmlns="http://www.w3.org/2000/svg">
<g clip-path="url(#clip0_2351_13041)">
<path d="M33.8696 2.64062H812.12C829.36 2.64062 843.35 16.6306 843.35 33.8706V99.1206C843.35 116.361 829.36 130.351 812.12 130.351H33.8696C16.6296 130.351 2.63965 116.361 2.63965 99.1206V33.8706C2.63965 16.6406 16.6396 2.64062 33.8696 2.64062Z" fill="white"/>
<path d="M812.13 5.28C827.89 5.28 840.72 18.11 840.72 33.87V99.12C840.72 114.88 827.89 127.71 812.13 127.71H33.87C18.11 127.71 5.28 114.88 5.28 99.12V33.87C5.28 18.11 18.11 5.28 33.87 5.28H812.12M812.13 0H33.87C15.17 0 0 15.17 0 33.87V99.12C0 117.83 15.17 132.99 33.87 132.99H812.12C830.83 132.99 845.99 117.82 845.99 99.12V33.87C845.99 15.16 830.82 0 812.12 0H812.13Z" fill="#C6B3AC"/>
<path d="M53.6796 49.5878C60.7434 49.5878 66.4697 43.8615 66.4697 36.7978C66.4697 29.7341 60.7434 24.0078 53.6796 24.0078C46.6159 24.0078 40.8896 29.7341 40.8896 36.7978C40.8896 43.8615 46.6159 49.5878 53.6796 49.5878Z" fill="#F7D575"/>
<path d="M68.3602 43.5981H70.8302V45.8981H57.9402L57.9102 43.5981H60.5102C60.3702 43.0481 60.2102 42.4181 59.9902 41.8981L61.2002 41.6781H58.4602V39.4881H63.4502C63.2802 39.0181 63.1502 38.5581 62.9602 38.1681L65.5902 37.8381C65.8602 38.3081 66.1402 38.9381 66.3302 39.4881H70.5002V41.6781H67.8102L69.0402 41.9481L68.3502 43.5981H68.3602ZM69.7102 55.8481C69.7102 57.0781 69.4902 57.6581 68.6402 58.0381C67.8402 58.3981 66.6702 58.4181 65.1302 58.3981C65.0202 57.6881 64.6602 56.8081 64.3302 56.1781C65.1802 56.2081 66.1102 56.2081 66.3602 56.2081C66.6902 56.1781 66.7702 56.0981 66.7702 55.8281V54.1581C65.2302 54.8181 63.7502 55.4181 62.4102 55.9981L61.7802 54.4381C61.5602 55.9481 61.1202 57.4581 60.3002 58.6581C59.8302 58.1881 58.7102 57.3981 58.1302 57.1481C59.3602 55.3681 59.4702 53.0381 59.4702 51.1981V46.8981H69.7002V55.8681L69.7102 55.8481ZM61.2902 38.9081H58.3602V34.5481H68.7002C68.5302 34.0581 68.3202 33.5081 68.1002 33.0981L71.5802 32.5781C71.9102 33.1581 72.2702 33.9181 72.4802 34.5481H82.1602V38.9081H79.0902V37.1781H61.3002V38.9081H61.2902ZM62.0002 51.2481C62.0002 52.0181 61.9702 52.8381 61.8902 53.6881C63.2102 53.3881 64.9602 52.8681 66.7702 52.3681V48.7981H62.0002V51.2381V51.2481ZM63.0702 49.2681C64.1902 49.6281 65.7302 50.1981 66.5502 50.6081L65.5902 52.3081C64.7702 51.8981 63.2302 51.2081 62.0802 50.7681L63.0702 49.2581V49.2681ZM62.6602 41.6781C62.9102 42.3081 63.1502 43.0181 63.2602 43.5981H65.5902C65.8102 42.9981 66.0302 42.2781 66.1902 41.6781H62.6502H62.6602ZM81.4702 54.4481C82.0202 54.6981 82.6502 54.8881 83.1402 54.9981C82.8402 57.5181 82.0202 58.2581 79.6602 58.2581H75.3602C72.3202 58.2581 71.3802 57.5181 71.3802 54.8081V45.4281H78.6202V44.3581H71.3802V38.0281H74.3702V39.5081H81.8802V41.5381H74.3702V42.4381H81.6402V47.3481H74.3702V48.1681H80.9502V49.8081H74.3702V50.6281H80.8702V52.2681H74.3702V53.0881H81.4702V54.4281V54.4481ZM79.3902 55.8481C80.1002 55.8481 80.3802 55.6581 80.5102 54.7281H74.3702V54.7781C74.3702 55.7081 74.5602 55.8481 75.7402 55.8481H79.3902Z" fill="#543816"/>
<path d="M101.07 47.7569C100.08 48.0269 99.1197 48.3569 98.1097 48.6669V58.4269H95.1197V49.5669C93.6397 50.0069 92.2697 50.4469 91.0097 50.7769L90.2097 47.6769C91.5797 47.3769 93.2497 46.9369 95.1197 46.4169V41.1769H93.2797C92.9797 42.5169 92.6497 43.6969 92.2697 44.6869C91.7797 44.2769 90.5697 43.5369 89.9697 43.1769C90.8197 41.0069 91.2897 37.5869 91.5297 34.3469L94.2397 34.8169C94.1297 35.9169 93.9897 36.9869 93.8297 38.0769H95.1197V32.8169H98.1097V38.0769H100.39V41.1769H98.1097V45.5869L100.63 44.8769L101.07 47.7569ZM115.82 37.0369C115.82 37.0369 115.79 38.1369 115.77 38.5169C115.25 50.7469 114.76 55.2169 113.71 56.5869C113.08 57.5169 112.48 57.8169 111.57 58.0169C110.8 58.1569 109.65 58.1569 108.47 58.0969C108.39 57.1669 108.06 55.8169 107.57 54.9169C108.58 55.0269 109.49 55.0269 110.01 55.0269C110.42 55.0269 110.7 54.9169 111.02 54.5069C111.71 53.6269 112.2 49.8969 112.64 40.0569H112.5C111.16 46.9669 108.33 54.0969 103.92 57.7469C103.29 57.1169 102.17 56.3169 101.26 55.8569C105.65 52.7069 108.39 46.4769 109.76 40.0669H108.47C107.26 44.5369 104.96 49.4469 102.19 52.0769C101.59 51.4469 100.55 50.7069 99.6897 50.2369C102.4 48.0969 104.54 44.0369 105.75 40.0669H104.35C103.55 41.9569 102.6 43.6569 101.53 44.9769C101.01 44.4569 99.7197 43.5469 99.0597 43.1369C101.23 40.7469 102.73 36.8269 103.56 32.7969L106.52 33.3469C106.25 34.6069 105.89 35.8469 105.51 37.0469H115.82V37.0369Z" fill="#543816"/>
<path d="M133.07 54.0428C133.01 54.8628 133.01 56.0428 133.04 56.7028C127.83 57.4728 126.87 57.7128 126.27 58.0428C126.11 57.3528 125.56 56.1228 125.12 55.6028C125.64 55.3028 126.19 54.7228 126.19 53.6028V45.1828H129.26V46.5528H133.48V48.8828H129.26V50.3128H133.51V52.6128H129.26V54.5028L133.07 54.0328V54.0428ZM146.39 44.5028H125.99V34.3328C128.57 34.0028 131.58 33.4528 133.56 32.8828L135.12 35.3228C133.37 35.7628 131.23 36.1128 129.2 36.3628V37.9828H135.62V40.4228H129.2V41.9828H143.16V40.4228H136.77V37.9828H143.16V36.4728H137.18V33.9528H146.39V44.5128V44.5028ZM141.79 54.2128C141.71 54.9828 141.71 56.1028 141.76 56.7328C135.95 57.6128 134.96 57.8328 134.33 58.1628C134.17 57.4728 133.59 56.3028 133.15 55.7728C133.67 55.4728 134.27 54.8728 134.27 53.6928V45.2228H137.2V46.7328H141.26V49.0328H137.2V50.5428H141.42V52.8428H137.2V54.7928L141.78 54.2128H141.79ZM145.02 45.1628C144.85 51.8028 145.4 55.2028 146.2 55.2028C146.53 55.2028 146.69 54.6028 146.75 52.8428C147.35 53.3928 148.18 53.9128 148.86 54.1328C148.61 57.4228 147.76 58.3028 145.95 58.3028C142.69 58.3028 141.92 53.3928 141.84 45.1728H145.02V45.1628Z" fill="#543816"/>
<path d="M157.22 46.0594H167.64V58.2594H164.38V57.0294H160.29V58.3994H157.22V46.0594ZM160.29 49.1894V53.9094H164.38V49.1894H160.29ZM177.04 43.7894H160.97V33.8594H177.04V43.7894ZM173.73 36.9894H164.13V40.6894H173.73V36.9894ZM180.75 46.0594V58.2894H177.46V57.0294H173.1V58.3994H169.97V46.0594H180.75ZM177.45 53.9094V49.1894H173.09V53.9094H177.45Z" fill="#543816"/>
<path d="M214.71 55.3591V57.9391H198.12V55.3591H205.11V54.1291H199.65V51.6591H205.11V50.3991H199.85V47.9891L198.04 50.4591C197.71 49.7491 197.05 48.6791 196.4 47.6891V58.3791H193.25V48.5391C192.37 50.6491 191.33 52.5991 190.26 53.9691C189.96 53.0391 189.27 51.6891 188.75 50.8691C190.29 49.0891 191.79 46.1791 192.81 43.5191H189.33V40.4791H193.25V37.2991C192.1 37.5191 190.97 37.7091 189.9 37.8491C189.74 37.1091 189.35 36.0091 188.99 35.3491C192.01 34.8291 195.38 34.0291 197.49 33.0691L199.66 35.5691C198.67 35.9491 197.58 36.3091 196.4 36.6091V40.4791H199.33V43.5191H196.4V44.3191C197.11 44.9191 199.25 47.1391 199.85 47.8591V41.2191H205.11V40.0991H198.94V37.5791H205.11V36.4291C203.33 36.5091 201.57 36.5691 199.93 36.5991C199.88 35.8891 199.52 34.8191 199.22 34.1591C203.72 34.0191 209.01 33.6691 212.22 33.0391L214.08 35.4791C212.38 35.8091 210.35 36.0591 208.24 36.2191V37.5891H214.14V40.1091H208.24V41.2291H213.7V50.4191H208.24V51.6791H213.7V54.1491H208.24V55.3791H214.71V55.3591ZM202.68 44.8291H205.12V43.4891H202.68V44.8291ZM205.12 48.1491V46.7491H202.68V48.1491H205.12ZM208.24 43.4891V44.8291H210.76V43.4891H208.24ZM210.77 46.7491H208.25V48.1491H210.77V46.7491Z" fill="#543816"/>
<path d="M237.25 43.5125C239.06 48.8625 242.38 53.1625 247.5 55.2525C246.68 55.9425 245.61 57.3925 245.09 58.3225C240.13 55.9925 236.95 51.9925 234.81 46.6925C233.33 51.2725 230.37 55.5525 224.56 58.3425C224.04 57.4325 223.08 56.2625 222.12 55.5725C228.4 52.7725 231 48.2225 232.07 43.5025H222.64V40.1325H232.62C232.89 37.5525 232.87 35.0625 232.89 32.8125H236.45C236.42 35.0625 236.4 37.5825 236.12 40.1325H246.9V43.5025H237.25V43.5125Z" fill="#543816"/>
<path d="M258.33 40.9928C257.84 41.4328 257.34 41.8428 256.85 42.2528C256.33 41.5628 255.29 40.5228 254.55 40.1128C257.59 37.9428 259.81 35.1228 261.05 32.7628L264.37 33.3928C263.96 34.0828 263.52 34.7628 263.05 35.4528H267.27C267.02 34.7628 266.72 34.0828 266.42 33.4828L269.49 32.6328C269.98 33.4828 270.48 34.5528 270.81 35.4528H278.6V37.9528H270.24V39.1028H277.37V41.2128H270.24V42.3128H277.4V44.4228H270.24V45.6328H279.26V48.1028H261.57V48.8428H258.33V41.0028V40.9928ZM265.05 53.9928C263.1 55.5528 259.76 57.0128 256.88 57.6628C256.41 56.9228 255.51 55.7728 254.85 55.1628C257.65 54.7828 260.91 53.8728 262.61 52.8628L265.05 53.9828V53.9928ZM269.19 52.3428V58.3428H265.95V52.3428H255.31V49.7328H265.95V48.3328H269.19V49.7328H279.94V52.3428H269.19ZM267.11 37.9528H261.57V39.1028H267.11V37.9528ZM267.11 41.2128H261.57V42.3128H267.11V41.2128ZM267.11 44.4228H261.57V45.6328H267.11V44.4228ZM272.07 52.6228C274.48 53.4228 278.1 54.7028 279.99 55.5828L277.99 57.7228C276.24 56.8728 272.7 55.4428 270.17 54.5128L272.06 52.6228H272.07Z" fill="#543816"/>
<path d="M303.68 34.1584C303.38 34.5684 303.08 34.9784 302.77 35.3684C306.28 38.6284 309.93 40.4984 313.63 41.8384C312.78 42.6084 311.82 43.8084 311.38 44.8284C310.06 44.1984 308.72 43.5384 307.43 42.7984V44.5784H293.72V43.2384C292.51 43.9784 291.28 44.6684 290.05 45.2384C289.53 44.3084 288.57 43.0684 287.66 42.2484C292.71 40.2484 297.89 36.9284 300.77 32.6484L303.68 34.1584ZM291.94 46.9384H309.63V58.2584H306.15V57.1584H295.29V58.3684H291.95V46.9384H291.94ZM295.29 49.8184V54.1484H306.15V49.8184H295.29ZM305.54 41.5884C303.98 40.5184 302.39 39.2584 300.77 37.6684C299.37 39.1184 297.86 40.4084 296.25 41.5884H305.54Z" fill="#543816"/>
<path d="M63.2103 80.3075C63.0803 80.6175 62.9503 80.9175 62.8403 81.1875H64.1203V82.0175H58.5303V81.1875H59.7803C59.7203 80.9075 59.6103 80.5675 59.5003 80.2875L60.0003 80.1875H58.7803V79.4075H61.0203C60.9403 79.1775 60.8303 78.9475 60.7103 78.7475L61.6103 78.6075C61.7803 78.8475 61.9303 79.1475 62.0403 79.4075H63.9503V80.1875H62.6703L63.2103 80.3075ZM63.5203 86.5775C63.5203 87.0475 63.4203 87.2575 63.1103 87.4075C62.7903 87.5375 62.3203 87.5375 61.6503 87.5375C61.6103 87.2875 61.4903 86.9575 61.3703 86.7375C61.7903 86.7575 62.2103 86.7575 62.3303 86.7475C62.4603 86.7375 62.5103 86.6975 62.5103 86.5775V85.5775C61.7303 85.8775 60.9703 86.1675 60.3003 86.4275L60.0203 85.7475C59.9203 86.4275 59.7403 87.1175 59.3703 87.6575C59.2003 87.4875 58.8303 87.2175 58.6303 87.1175C59.1603 86.3175 59.2203 85.2575 59.2203 84.4275V82.5075H63.5103V86.5775H63.5203ZM59.7503 79.1275H58.7403V77.3275H63.3803C63.2803 77.0875 63.1503 76.8375 63.0203 76.6175L64.1803 76.4375C64.3803 76.6975 64.5603 77.0375 64.6703 77.3275H68.9803V79.1275H67.9403V78.2375H59.7503V79.1275ZM60.1103 84.4575C60.1103 84.8175 60.1003 85.2275 60.0503 85.6375C60.7103 85.4775 61.6103 85.2175 62.5203 84.9375V83.2275H60.1103V84.4675V84.4575ZM60.5803 83.5675C61.1603 83.7275 61.9003 83.9775 62.3103 84.1575L61.9903 84.7675C61.5803 84.5775 60.8303 84.2975 60.2503 84.1075L60.5903 83.5675H60.5803ZM60.4203 80.1875C60.5603 80.4975 60.7003 80.9075 60.7403 81.1875H61.8803C62.0003 80.8775 62.1403 80.4775 62.2103 80.1875H60.4103H60.4203ZM68.7603 85.9475C68.9603 86.0275 69.1903 86.1175 69.3803 86.1475C69.2603 87.1775 68.9703 87.4875 68.0503 87.4875H66.0103C64.8203 87.4875 64.4703 87.2275 64.4703 86.2075V82.0375H67.7003V81.3975H64.4703V78.7275H65.4903V79.4375H68.8503V80.1775H65.4903V80.7075H68.7403V82.7375H65.4903V83.2175H68.4603V83.8275H65.4903V84.2975H68.4103V84.9075H65.4903V85.3875H68.7503V85.9475H68.7603ZM67.9603 86.6275C68.3203 86.6275 68.4203 86.5175 68.4803 85.9875H65.5103V86.1875C65.5103 86.5575 65.6103 86.6175 66.1503 86.6175H67.9703L67.9603 86.6275Z" fill="#826950"/>
<path d="M76.3504 82.7913C75.8804 82.9513 75.4104 83.0913 74.9504 83.2313V87.5212H73.9204V83.5513L72.0404 84.1312L71.7504 83.0612C72.3504 82.9012 73.1004 82.7013 73.9204 82.4713V79.9512H72.9604C72.8204 80.5912 72.6504 81.1613 72.4704 81.6213C72.2904 81.4813 71.8804 81.2413 71.6504 81.1213C72.0704 80.1513 72.2904 78.6413 72.4104 77.2113L73.3604 77.3713C73.3004 77.8913 73.2404 78.4013 73.1704 78.9113H73.9304V76.5312H74.9604V78.9113H76.0804V79.9613H74.9604V82.1712L76.2204 81.8112L76.3604 82.7913H76.3504ZM82.7104 78.4613C82.7104 78.4613 82.7104 78.8412 82.7004 78.9912C82.4404 84.3712 82.2104 86.2713 81.7404 86.8613C81.4904 87.2213 81.2504 87.3313 80.8604 87.3913C80.5404 87.4513 80.0304 87.4413 79.5104 87.4113C79.5004 87.0913 79.3804 86.6313 79.2004 86.3213C79.7004 86.3713 80.1504 86.3713 80.3804 86.3713C80.5704 86.3713 80.6904 86.3213 80.8104 86.1513C81.1604 85.7513 81.4104 84.0512 81.6304 79.4912H81.2904C80.6804 82.5812 79.4004 85.7413 77.4504 87.3013C77.2304 87.1013 76.8404 86.8113 76.5304 86.6413C78.4604 85.2613 79.7204 82.3912 80.3204 79.4912H79.5204C78.9904 81.5012 77.9504 83.7013 76.6804 84.8313C76.4804 84.6313 76.1204 84.3513 75.8204 84.1913C77.0604 83.2313 78.0404 81.3412 78.5904 79.4912H77.7404C77.3704 80.3512 76.9404 81.1112 76.4404 81.7012C76.2604 81.5412 75.8204 81.2112 75.5804 81.0612C76.5504 80.0112 77.2404 78.3012 77.6304 76.5312L78.6404 76.7213C78.5104 77.3213 78.3304 77.9113 78.1504 78.4613H82.7304H82.7104Z" fill="#826950"/>
<path d="M89.5298 85.7838C89.5098 86.0438 89.5198 86.4638 89.5298 86.6838C87.1298 87.1538 86.7498 87.2438 86.5098 87.3938C86.4498 87.1438 86.2498 86.7238 86.0898 86.5338C86.2798 86.4238 86.5198 86.1938 86.5198 85.7138V81.8138H87.5798V82.5538H89.6798V83.3738H87.5798V84.2038H89.6798V85.0338H87.5798V86.1038L89.5298 85.7938V85.7838ZM95.0998 81.4638H86.4298V77.2338C87.5498 77.0938 88.8498 76.8537 89.6898 76.5938L90.2398 77.4338C89.4598 77.6538 88.4698 77.8138 87.5298 77.9238V78.8238H90.4898V79.6838H87.5298V80.5838H94.0098V79.6838H91.0698V78.8238H94.0098V77.9738H91.2299V77.0938H95.0998V81.4638ZM93.3198 85.7838C93.2798 86.0438 93.2998 86.4438 93.3198 86.6638C90.6898 87.1938 90.2898 87.2838 90.0298 87.4338C89.9698 87.1938 89.7498 86.7838 89.6098 86.5838C89.7998 86.4838 90.0499 86.2338 90.0499 85.7438V81.8438H91.0698V82.6138H93.1098V83.4438H91.0698V84.2738H93.1398V85.1038H91.0698V86.1938L93.3098 85.7938L93.3198 85.7838ZM94.4998 81.7838C94.4398 84.9538 94.7398 86.4338 95.1998 86.4338C95.3798 86.4338 95.4498 86.1938 95.4898 85.3938C95.6898 85.5838 95.9898 85.7638 96.2498 85.8538C96.1398 87.1638 95.8198 87.4938 95.1298 87.4938C93.7998 87.4938 93.4498 85.4438 93.4198 81.7838H94.5098H94.4998Z" fill="#826950"/>
<path d="M99.1699 82.2913H103.51V87.4613H102.41V86.9212H100.23V87.5413H99.1699V82.2913ZM100.22 83.3512V85.8512H102.4V83.3512H100.22ZM107.56 81.1213H100.86V77.0312H107.56V81.1213ZM106.42 78.1012H101.92V80.0612H106.42V78.1012ZM109.24 82.2913V87.4813H108.12V86.9212H105.75V87.5413H104.68V82.2913H109.24ZM108.12 85.8512V83.3512H105.75V85.8512H108.12Z" fill="#826950"/>
<path d="M116.07 83.9662C115.89 83.6362 115.49 83.0662 115.13 82.5762V87.5162H114.05V82.6662C113.61 83.7562 113.05 84.7862 112.51 85.4562C112.4 85.1462 112.14 84.6862 111.97 84.4262C112.68 83.6062 113.44 82.1862 113.9 80.9162H112.2V79.8562H114.05V78.2262C113.5 78.3462 112.95 78.4262 112.43 78.5062C112.38 78.2562 112.24 77.8862 112.11 77.6462C113.44 77.4262 114.95 77.0862 115.85 76.6862L116.62 77.5362C116.19 77.7062 115.67 77.8562 115.13 78.0062V79.8662H116.53V80.9262H115.13V81.4762C115.48 81.7762 116.5 82.8162 116.71 83.0962L116.06 83.9762L116.07 83.9662ZM123.16 86.4062V87.3062H116V86.4062H119.17V85.6262H116.68V84.7662H119.17V84.0462H116.78V80.1562H119.17V79.4862H116.34V78.5962H119.17V77.9262C118.34 77.9762 117.53 78.0062 116.76 78.0262C116.74 77.7962 116.62 77.4162 116.51 77.1962C118.49 77.1262 120.88 76.9363 122.24 76.6562L122.9 77.4762C122.16 77.6462 121.23 77.7662 120.25 77.8462V78.6062H122.92V79.4962H120.25V80.1662H122.71V84.0562H120.25V84.7762H122.74V85.6362H120.25V86.4162H123.16V86.4062ZM117.76 81.7562H119.16V80.9562H117.76V81.7562ZM119.17 83.2562V82.4562H117.77V83.2562H119.17ZM120.25 80.9562V81.7562H121.69V80.9562H120.25ZM121.68 82.4562H120.24V83.2562H121.68V82.4562Z" fill="#826950"/>
<path d="M128.92 82.6309C128.82 83.0609 128.72 83.5209 128.54 84.0009C129.15 84.4409 129.86 85.0309 130.21 85.4409L129.6 86.2309C129.3 85.8309 128.72 85.2909 128.17 84.8509C127.73 85.6709 127.09 86.4109 126.11 86.9609C125.98 86.7109 125.67 86.3009 125.43 86.1209C127.1 85.2909 127.6 83.7109 127.85 82.6309H128.93H128.92ZM134.87 82.3809C134.8 82.8609 134.69 83.3509 134.53 83.8609C134.94 84.5809 135.72 85.5209 136.56 86.0309C136.32 86.2109 135.98 86.5809 135.82 86.8509C135.17 86.3809 134.55 85.5909 134.1 84.9109C133.69 85.7009 133.1 86.4309 132.23 86.9609C132.1 86.7109 131.83 86.3709 131.6 86.1709V87.6609H130.5V82.0909C129.17 82.1709 127.86 82.2309 126.71 82.2609C126.57 82.0009 126.28 81.4609 126.06 81.2209C129.11 81.2709 133.03 81.0509 135.25 80.7009L136.07 81.5009C134.85 81.7309 133.25 81.9009 131.61 82.0209V86.0509C133.13 85.1709 133.59 83.5609 133.79 82.3909H134.88L134.87 82.3809ZM135.8 80.2109H126.3V76.9609H135.8V80.2109ZM129.07 77.9509H127.37V79.2509H129.07V77.9509ZM131.86 77.9509H130.1V79.2509H131.86V77.9509ZM134.68 77.9509H132.88V79.2509H134.68V77.9509Z" fill="#826950"/>
<path d="M148.03 77.86C146.51 80.67 143.05 82.27 139.79 82.97C139.69 82.68 139.47 82.24 139.27 82.01C140.73 81.76 142.23 81.28 143.55 80.61C143.07 80.2 142.33 79.73 141.67 79.39C141.19 79.64 140.67 79.88 140.11 80.11C139.95 79.85 139.61 79.46 139.37 79.28C141.48 78.57 143.02 77.49 143.82 76.5L145.06 76.78C144.84 77.02 144.62 77.26 144.38 77.49H147.14L147.32 77.44L148.04 77.87L148.03 77.86ZM149.7 82.05C148.22 85.54 144.64 86.99 140.67 87.55C140.6 87.25 140.38 86.78 140.19 86.53C142 86.33 143.73 85.92 145.18 85.2C144.66 84.73 143.84 84.15 143.12 83.75C142.54 84.03 141.92 84.29 141.25 84.53C141.13 84.28 140.81 83.86 140.58 83.67C143.06 82.9 144.83 81.72 145.75 80.58L146.99 80.87C146.74 81.16 146.47 81.43 146.17 81.71H148.77L148.96 81.66L149.7 82.06V82.05ZM143.23 78.41C143.04 78.55 142.82 78.7 142.61 78.83C143.32 79.19 144.09 79.67 144.53 80.04C145.26 79.57 145.91 79.02 146.4 78.41H143.23ZM144.98 82.66C144.7 82.85 144.43 83.03 144.13 83.21C144.86 83.62 145.7 84.17 146.19 84.63C146.98 84.1 147.65 83.45 148.13 82.66H144.98Z" fill="#826950"/>
<path d="M153.62 83.7019C154.54 83.3519 155.08 82.8019 155.14 82.0819C155.09 82.0919 155.03 82.0919 154.97 82.0919C154.43 82.0919 153.96 81.7519 153.96 81.1319C153.96 80.5119 154.43 80.1719 154.98 80.1719C155.74 80.1719 156.13 80.7619 156.13 81.6719C156.13 83.0019 155.29 84.0319 153.92 84.4819L153.61 83.7019H153.62Z" fill="#826950"/>
<path d="M168.5 86.2487C169.52 86.2487 169.68 86.0087 169.81 84.8187C170.1 84.9987 170.56 85.1587 170.89 85.2188C170.69 86.8387 170.27 87.2887 168.56 87.2887H164.31C162.31 87.2887 161.72 86.9288 161.72 85.4388V80.4088C161.4 80.7588 161.05 81.0888 160.71 81.3688C160.52 81.1688 160.06 80.7187 159.79 80.5387C161.1 79.5887 162.27 78.0688 162.96 76.4688L164.09 76.7887C163.9 77.2287 163.68 77.6787 163.43 78.0987H169.89C169.89 78.0987 169.88 78.4487 169.88 78.5887C169.75 82.4487 169.64 83.8487 169.3 84.2887C169.07 84.5988 168.84 84.6987 168.5 84.7487C168.19 84.7987 167.67 84.7987 167.12 84.7687C167.11 84.4587 166.99 83.9887 166.83 83.7087C167.3 83.7587 167.73 83.7688 167.93 83.7588C168.09 83.7688 168.21 83.7387 168.31 83.5887C168.5 83.3287 168.62 82.1888 168.73 79.1488H162.72C162.46 79.5188 162.17 79.8888 161.88 80.2188H166.65V83.8787H162.81V85.4287C162.81 86.0887 163.01 86.2288 164.27 86.2288H168.48L168.5 86.2487ZM162.82 81.2188V82.8988H165.57V81.2188H162.82Z" fill="#826950"/>
<path d="M177.31 82.6791L175.87 83.0991V86.2691C175.87 86.8591 175.74 87.1491 175.41 87.3091C175.07 87.4891 174.56 87.5291 173.77 87.5291C173.72 87.2391 173.58 86.7691 173.44 86.4891C173.94 86.5091 174.46 86.5091 174.59 86.4991C174.76 86.4891 174.82 86.4391 174.82 86.2591V83.4091L173.54 83.7791L173.25 82.7091C173.69 82.5991 174.23 82.4591 174.82 82.2991V79.9091H173.38V78.8791H174.82V76.5391H175.88V78.8791H177.19V79.9091H175.88V82.0191C176.31 81.8991 176.76 81.7691 177.19 81.6491L177.32 82.6791H177.31ZM181.3 81.1591V83.0391H183.73V87.4791H182.61V87.0791H178.88V87.5191H177.8V83.0291H180.2V81.1491H177.43V80.0891H180.2V78.2091C179.42 78.3191 178.63 78.3991 177.9 78.4691C177.85 78.1891 177.72 77.7991 177.59 77.5491C179.53 77.3591 181.76 77.0091 183.08 76.5791L183.81 77.4791C183.09 77.7091 182.22 77.8991 181.29 78.0391V80.0891H184.31V81.1491H181.29L181.3 81.1591ZM182.62 84.0591H178.89V86.0591H182.62V84.0591Z" fill="#826950"/>
<path d="M188.99 82.0503C188.5 81.7203 187.5 81.1403 186.78 80.7703L187.39 79.9403C188.07 80.2803 189.09 80.8003 189.6 81.1303L188.99 82.0503ZM187.02 86.6403C187.66 85.7403 188.58 84.2103 189.27 82.8503L190.07 83.5903C189.46 84.8303 188.65 86.2603 187.95 87.3803L187.01 86.6403H187.02ZM189.55 78.8103C189.06 78.4603 188.06 77.8903 187.36 77.4903L187.98 76.7003C188.68 77.0403 189.69 77.5803 190.21 77.9103L189.55 78.8103ZM194.54 81.0803V82.8503H197.01V87.4703H195.96V87.0303H191.99V87.5303H190.97V82.8503H193.49V81.0803H190.16V80.0103H193.49V78.3103C192.65 78.4403 191.79 78.5403 190.99 78.6003C190.94 78.3403 190.8 77.9203 190.67 77.6603C192.72 77.4403 195.05 77.0603 196.37 76.5703L197.25 77.4303C196.48 77.7203 195.55 77.9503 194.55 78.1303V80.0103H197.73V81.0803H194.55H194.54ZM195.95 83.8603H191.98V86.0203H195.95V83.8603Z" fill="#826950"/>
<path d="M201.87 81.8838C201.52 81.5238 200.78 80.9838 200.2 80.6338L200.78 79.9838C201.34 80.2938 202.11 80.8038 202.47 81.1638L201.87 81.8838ZM200.36 86.8238C200.8 85.9238 201.43 84.4338 201.88 83.1138L202.64 83.6538C202.23 84.8738 201.69 86.2838 201.21 87.3638L200.36 86.8238ZM202.11 78.7738C201.79 78.3338 201.1 77.7038 200.53 77.2838L201.14 76.6838C201.72 77.0638 202.43 77.6538 202.77 78.0738L202.11 78.7738ZM211.17 78.7738C210.76 79.1038 210.29 79.4338 209.9 79.6838C210.32 80.0438 210.81 80.3338 211.38 80.5138C211.16 80.7138 210.86 81.1038 210.73 81.3638C210.42 81.2438 210.13 81.0838 209.85 80.9338V82.0838C209.85 82.3238 209.86 82.4038 209.98 82.4038H210.23C210.35 82.4038 210.57 82.3938 210.69 82.3438C210.71 82.5738 210.74 82.8738 210.74 83.0738C210.62 83.1238 210.44 83.1338 210.25 83.1338H209.85C209.1 83.1338 208.96 82.8238 208.96 82.0638V81.1838H208.04V81.4438C208.04 82.1438 207.88 82.9638 207.09 83.5038C206.98 83.3438 206.65 83.0238 206.44 82.9038V83.0738H204.51C204.46 83.4138 204.41 83.7438 204.35 84.0538H206.45C206.45 84.0538 206.44 84.3138 206.41 84.4538C206.27 86.1138 206.15 86.8338 205.87 87.1038C205.67 87.3238 205.44 87.3938 205.11 87.4138C204.86 87.4338 204.39 87.4338 203.92 87.4138C203.9 87.1338 203.79 86.7738 203.63 86.5238C204.09 86.5738 204.52 86.5738 204.71 86.5738C204.87 86.5738 204.96 86.5638 205.06 86.4738C205.2 86.3138 205.32 85.8838 205.41 84.8638H203.3C203.44 84.1538 203.62 83.0738 203.71 82.2138H205.5V81.2038H203.99V81.1038C203.79 81.2238 203.57 81.3438 203.35 81.4238C203.23 81.1938 202.98 80.8238 202.77 80.6438C203.36 80.4038 203.93 80.0438 204.42 79.5638C204.14 79.3138 203.77 79.0038 203.46 78.7838L204.05 78.1838C204.36 78.3838 204.73 78.6638 205.02 78.9038C205.26 78.5838 205.49 78.2038 205.66 77.8238H203.66V76.9438H206.11L206.28 76.9038L206.92 77.1238C206.55 78.4838 205.86 79.5538 204.99 80.3538H206.44V82.8438C207.06 82.4037 207.15 81.8938 207.15 81.4038V80.3538H209.13C208.15 79.4738 207.52 78.2638 207.14 76.7638L208.08 76.5938C208.2 77.0337 208.34 77.4438 208.54 77.8138C208.84 77.5338 209.19 77.1938 209.42 76.9338L210.09 77.5138C209.72 77.8738 209.26 78.2338 208.9 78.4938C209.04 78.7238 209.2 78.9138 209.37 79.1138C209.74 78.8338 210.22 78.4338 210.5 78.1538L211.18 78.7138L211.17 78.7738ZM210.7 83.7338C210.46 84.6338 210.06 85.3538 209.56 85.9238C210.02 86.2938 210.42 86.6438 210.72 86.9238L210.05 87.5438C209.76 87.2538 209.37 86.9038 208.93 86.5238C208.34 86.9938 207.67 87.3238 206.92 87.5638C206.81 87.3238 206.6 86.9637 206.4 86.7738C207.07 86.5938 207.68 86.3138 208.21 85.9238C207.73 85.5438 207.25 85.1538 206.81 84.8238L207.35 84.3938H206.85V83.5938H209.94L210.11 83.5738L210.7 83.7438V83.7338ZM207.55 84.3938C207.95 84.6838 208.4 85.0338 208.85 85.3638C209.11 85.0838 209.33 84.7538 209.51 84.3938H207.55Z" fill="#826950"/>
<path d="M224.29 78.39C224.29 78.39 224.29 78.77 224.28 78.92C224.11 84.33 223.97 86.19 223.49 86.79C223.19 87.19 222.9 87.29 222.45 87.35C222.03 87.4 221.32 87.39 220.64 87.35C220.62 87.05 220.48 86.58 220.28 86.27C221.05 86.33 221.74 86.34 222.04 86.34C222.28 86.34 222.41 86.3 222.54 86.14C222.92 85.74 223.08 83.93 223.24 79.41H220.41C220.08 80.18 219.7 80.87 219.32 81.42C219.14 81.25 218.72 80.95 218.44 80.8V86.3H215.19V87.21H214.17V78.44H215.51C215.68 77.86 215.86 77.07 215.93 76.5L217.14 76.7C216.94 77.3 216.71 77.94 216.52 78.44H218.44V80.71C219.23 79.68 219.87 78.08 220.23 76.5L221.31 76.75C221.17 77.3 221.01 77.85 220.82 78.38H224.3L224.29 78.39ZM215.18 79.42V81.7H217.41V79.42H215.18ZM217.41 85.32V82.67H215.18V85.32H217.41ZM221.41 84.39C221.07 83.66 220.29 82.48 219.66 81.62L220.54 81.13C221.17 81.96 221.99 83.1 222.35 83.8L221.41 84.39Z" fill="#826950"/>
<path d="M234.56 85.5534C235.84 85.9334 237.22 86.4534 238.09 86.8234L237.09 87.5434C236.31 87.1434 234.94 86.6034 233.62 86.1734L234.3 85.5534H230.65L231.51 86.1334C230.54 86.6934 229.03 87.2634 227.83 87.5734C227.65 87.3534 227.29 87.0234 227.05 86.8134C228.24 86.5234 229.66 86.0134 230.47 85.5534H228.56V81.6534H236.67V85.5534H234.55H234.56ZM237.94 81.1634H227.23V80.2134H237.94V81.1634ZM229.96 78.2234H227.83V77.3634H229.96V76.5234H231.05V77.3634H234.12V76.5234H235.25V77.3634H237.4V78.2234H235.25V79.7134H229.96V78.2234ZM229.65 83.2334H231.98V82.4334H229.65V83.2334ZM229.65 84.7734H231.98V83.9734H229.65V84.7734ZM231.06 78.2234V78.9334H234.13V78.2234H231.06ZM235.55 82.4334H233.08V83.2334H235.55V82.4334ZM235.55 83.9734H233.08V84.7734H235.55V83.9734Z" fill="#826950"/>
<path d="M246.57 81.0797V82.5297H250.59V83.5397H246.57V86.2097H251.16V87.2297H240.87V86.2097H245.38V83.5397H241.42V82.5297H245.38V81.0797H242.87V80.4597C242.31 80.7497 241.73 81.0097 241.13 81.2297C240.97 80.9097 240.66 80.4697 240.39 80.1997C242.62 79.5197 244.79 78.1997 245.93 76.4297L246.97 76.8997C246.86 77.0597 246.77 77.2097 246.66 77.3597C247.84 78.5397 249.85 79.6697 251.65 80.1997C251.4 80.4397 251.05 80.8797 250.88 81.1697C250.29 80.9697 249.69 80.6797 249.09 80.3497V81.0797H246.56H246.57ZM243.25 83.6497C243.71 84.2897 244.19 85.1597 244.38 85.7297L243.41 86.1497C243.24 85.5897 242.77 84.6897 242.34 84.0197L243.25 83.6597V83.6497ZM248.56 80.0397C247.62 79.4797 246.74 78.8197 246.02 78.0997C245.32 78.8597 244.51 79.4997 243.61 80.0397H248.56ZM247.48 85.7997C247.89 85.2197 248.39 84.3097 248.64 83.6497L249.72 84.0497C249.26 84.8097 248.74 85.6197 248.33 86.1597L247.48 85.7997Z" fill="#826950"/>
<path d="M258.25 85.7838C258.23 86.0438 258.24 86.4638 258.25 86.6838C255.85 87.1538 255.47 87.2438 255.23 87.3938C255.17 87.1438 254.97 86.7238 254.81 86.5338C255 86.4238 255.24 86.1938 255.24 85.7138V81.8138H256.3V82.5538H258.4V83.3738H256.3V84.2038H258.4V85.0338H256.3V86.1038L258.26 85.7938L258.25 85.7838ZM263.82 81.4638H255.15V77.2338C256.27 77.0938 257.57 76.8537 258.41 76.5938L258.96 77.4338C258.18 77.6538 257.19 77.8138 256.25 77.9238V78.8238H259.21V79.6838H256.25V80.5838H262.73V79.6838H259.79V78.8238H262.73V77.9738H259.95V77.0938H263.82V81.4638ZM262.04 85.7838C262 86.0438 262.02 86.4438 262.04 86.6638C259.41 87.1938 259.01 87.2838 258.75 87.4338C258.69 87.1938 258.47 86.7838 258.33 86.5838C258.52 86.4838 258.77 86.2338 258.77 85.7438V81.8438H259.79V82.6138H261.83V83.4438H259.79V84.2738H261.86V85.1038H259.79V86.1938L262.03 85.7938L262.04 85.7838ZM263.22 81.7838C263.16 84.9538 263.46 86.4338 263.92 86.4338C264.1 86.4338 264.17 86.1938 264.21 85.3938C264.41 85.5838 264.71 85.7638 264.97 85.8538C264.86 87.1638 264.54 87.4938 263.85 87.4938C262.52 87.4938 262.17 85.4438 262.14 81.7838H263.23H263.22Z" fill="#826950"/>
<path d="M268.08 81.2328L269.06 80.3828C269.92 81.0828 271.04 82.2028 271.72 83.0228L270.7 83.9028C269.94 82.9828 268.91 81.9428 268.07 81.2428L268.08 81.2328Z" fill="#826950"/>
<path d="M278.23 83.4003V87.4403H277.22V83.4003H274.97V82.4503H277.22V81.4403H274.83V80.4903H278.09C278.27 79.9503 278.49 79.2203 278.59 78.7203L279.6 78.9203C279.4 79.4503 279.22 80.0203 279.02 80.4903H280.23V81.4403H278.21V82.4503H280.09V83.4003H278.21H278.23ZM276.84 84.0303C276.55 84.9403 276.08 85.9603 275.66 86.6003C275.48 86.4603 275.1 86.1803 274.87 86.0603C275.29 85.4603 275.69 84.6003 275.91 83.7803L276.83 84.0303H276.84ZM280.03 78.6403H275.06V77.7003H277.09C276.97 77.4003 276.84 77.1003 276.71 76.8503L277.75 76.5703C277.94 76.8903 278.16 77.3403 278.31 77.7003H280.03V78.6403ZM276.15 80.4203C276.1 80.0203 275.92 79.4103 275.74 78.9603L276.62 78.7803C276.82 79.2203 277 79.8003 277.06 80.1803L276.15 80.4203ZM279.49 85.8803C279.32 85.4003 278.91 84.6603 278.59 84.1103L279.32 83.7403C279.66 84.2803 280.06 84.9903 280.24 85.4403L279.48 85.8803H279.49ZM284.79 86.4103C285.01 86.4103 285.05 86.2403 285.08 84.8903C285.27 85.0703 285.72 85.2403 285.98 85.3103C285.9 86.9703 285.64 87.3703 284.92 87.3703H284.12C283.26 87.3703 283.07 87.0603 283.07 86.0903V83.8403H282.33C282.16 85.6303 281.69 86.8603 279.87 87.5703C279.76 87.3203 279.47 86.9303 279.25 86.7403C280.81 86.1903 281.17 85.2503 281.29 83.8403H280.59V77.0403H285.26V83.8403H284.1V86.0903C284.1 86.3703 284.12 86.4103 284.32 86.4103H284.81H284.79ZM281.59 79.0103H284.2V78.0003H281.59V79.0103ZM281.59 80.9303H284.2V79.9003H281.59V80.9303ZM281.59 82.8503H284.2V81.8203H281.59V82.8503Z" fill="#826950"/>
<path d="M294.34 76.5703C294.33 77.0303 294.32 77.6503 294.26 78.3603C294.43 79.8603 295.16 84.6403 299.34 86.5003C299.02 86.7503 298.68 87.1503 298.52 87.4503C295.7 86.1203 294.4 83.4803 293.76 81.3303C293.16 83.5803 291.89 86.0103 289.18 87.5103C288.99 87.2203 288.63 86.8603 288.26 86.6203C293.17 84.0803 293.03 78.4903 293.07 76.5703H294.34Z" fill="#826950"/>
<path d="M312.37 78.39C312.37 78.39 312.37 78.77 312.36 78.92C312.19 84.33 312.05 86.19 311.57 86.79C311.27 87.19 310.98 87.29 310.53 87.35C310.11 87.4 309.4 87.39 308.72 87.35C308.7 87.05 308.56 86.58 308.36 86.27C309.13 86.33 309.82 86.34 310.12 86.34C310.36 86.34 310.49 86.3 310.62 86.14C311 85.74 311.16 83.93 311.32 79.41H308.49C308.16 80.18 307.78 80.87 307.4 81.42C307.22 81.25 306.8 80.95 306.52 80.8V86.3H303.27V87.21H302.25V78.44H303.59C303.76 77.86 303.94 77.07 304.01 76.5L305.22 76.7C305.02 77.3 304.79 77.94 304.6 78.44H306.52V80.71C307.31 79.68 307.95 78.08 308.31 76.5L309.39 76.75C309.25 77.3 309.09 77.85 308.9 78.38H312.38L312.37 78.39ZM303.26 79.42V81.7H305.49V79.42H303.26ZM305.49 85.32V82.67H303.26V85.32H305.49ZM309.49 84.39C309.15 83.66 308.37 82.48 307.74 81.62L308.62 81.13C309.25 81.96 310.07 83.1 310.43 83.8L309.49 84.39Z" fill="#826950"/>
<path d="M319.27 80.1291C318.99 80.6791 318.67 81.2191 318.32 81.7291V87.5491H317.22V83.1591C316.82 83.6191 316.39 84.0191 315.98 84.3691C315.76 84.1491 315.32 83.7691 315.06 83.5791C316.3 82.6891 317.47 81.2691 318.15 79.7991L319.27 80.1291ZM319.26 77.6691H320.44V78.7291H319.26V79.7991H318.17V78.7291H315.39V77.6691H318.17V76.5391H319.26V77.6691ZM322.07 78.7091H320.85V77.6691H322.07V76.5391H323.19V77.6691H325.89V78.7091H323.19V79.8391H322.07V78.7091ZM324.45 86.3491C324.98 86.3491 325.06 86.0391 325.13 84.5391C325.38 84.7291 325.84 84.9091 326.14 84.9991C326.01 86.8291 325.71 87.3891 324.55 87.3891H322.5C321.22 87.3891 320.87 87.0391 320.87 85.7591V79.9691H321.97V81.8391H325.88V82.8991H321.97V85.7691C321.97 86.2691 322.07 86.3691 322.63 86.3691H324.45V86.3491Z" fill="#826950"/>
<path d="M332.23 83.3434C332.06 82.9134 331.68 82.1934 331.33 81.5534V87.5334H330.24V82.3734C329.88 83.5034 329.42 84.5434 328.95 85.2234C328.84 84.9034 328.59 84.4034 328.4 84.1034C329.16 83.1534 329.86 81.3534 330.21 79.8134H328.71V78.7834H330.25V76.5334H331.34V78.7834H332.72V79.8134H331.34V80.1734C331.68 80.6134 332.72 82.1334 332.93 82.5034L332.23 83.3334V83.3434ZM339.04 81.2434C338.6 82.8734 337.82 84.1534 336.81 85.1634C337.63 85.7934 338.61 86.2834 339.75 86.5634C339.5 86.8034 339.19 87.2234 339.03 87.5334C337.84 87.1634 336.82 86.6134 335.97 85.8934C335.01 86.6334 333.89 87.1734 332.71 87.5634C332.59 87.2634 332.33 86.8034 332.12 86.5634C333.24 86.2734 334.29 85.8134 335.19 85.1334C334.43 84.2934 333.85 83.2734 333.39 82.1134L333.75 82.0034H333.15V80.9834H335.44V79.3434H332.98V78.3234H335.44V76.5234H336.54V78.3234H339.26V79.3434H336.54V80.9834H338.15L338.34 80.9434L339.04 81.2334V81.2434ZM334.46 82.0134C334.82 82.9234 335.34 83.7534 336.01 84.4634C336.71 83.7834 337.28 82.9634 337.66 82.0134H334.46Z" fill="#826950"/>
<path d="M346.33 85.7838C346.31 86.0438 346.32 86.4638 346.33 86.6838C343.93 87.1538 343.55 87.2438 343.31 87.3938C343.25 87.1438 343.05 86.7238 342.89 86.5338C343.08 86.4238 343.32 86.1938 343.32 85.7138V81.8138H344.38V82.5538H346.48V83.3738H344.38V84.2038H346.48V85.0338H344.38V86.1038L346.34 85.7938L346.33 85.7838ZM351.9 81.4638H343.23V77.2338C344.35 77.0938 345.65 76.8537 346.49 76.5938L347.04 77.4338C346.26 77.6538 345.27 77.8138 344.33 77.9238V78.8238H347.29V79.6838H344.33V80.5838H350.81V79.6838H347.87V78.8238H350.81V77.9738H348.03V77.0938H351.9V81.4638ZM350.12 85.7838C350.08 86.0438 350.1 86.4438 350.12 86.6638C347.49 87.1938 347.09 87.2838 346.83 87.4338C346.77 87.1938 346.55 86.7838 346.41 86.5838C346.6 86.4838 346.85 86.2338 346.85 85.7438V81.8438H347.87V82.6138H349.91V83.4438H347.87V84.2738H349.94V85.1038H347.87V86.1938L350.11 85.7938L350.12 85.7838ZM351.3 81.7838C351.24 84.9538 351.54 86.4338 352 86.4338C352.18 86.4338 352.25 86.1938 352.29 85.3938C352.49 85.5838 352.79 85.7638 353.05 85.8538C352.94 87.1638 352.62 87.4938 351.93 87.4938C350.6 87.4938 350.25 85.4438 350.22 81.7838H351.31H351.3Z" fill="#826950"/>
<path d="M356.16 81.2328L357.14 80.3828C358 81.0828 359.12 82.2028 359.8 83.0228L358.78 83.9028C358.02 82.9828 356.99 81.9428 356.15 81.2428L356.16 81.2328Z" fill="#826950"/>
<path d="M59.5902 100.131V101.281H58.7402V93.3512H61.3702V100.131H59.6002H59.5902ZM59.5902 94.3812V99.1213H60.4902V94.3812H59.5902ZM65.3602 92.8213C65.3602 92.8213 65.3602 93.2212 65.3502 93.3512C65.3302 100.011 65.3302 102.151 65.0302 102.681C64.8302 103.041 64.6302 103.151 64.3202 103.201C64.0202 103.261 63.6402 103.261 63.2302 103.241C63.2102 102.961 63.1102 102.531 62.9702 102.261C63.3502 102.301 63.6802 102.301 63.8702 102.301C64.0102 102.301 64.1002 102.261 64.1902 102.061C64.3002 101.841 64.3702 101.111 64.4102 99.4013H63.3702C63.1302 100.801 62.6502 102.231 61.6902 103.311C61.5602 103.121 61.2102 102.751 61.0202 102.631C61.8202 101.691 62.2602 100.551 62.4702 99.4013H61.7602V98.4512H62.6002C62.6702 97.7912 62.7002 97.1513 62.7002 96.5713H61.7802V95.6213H62.7002V93.7913H61.7802V92.8412H65.3802L65.3602 92.8213ZM64.4102 98.4313C64.4202 97.8813 64.4202 97.2513 64.4302 96.5513H63.5802C63.5802 97.1313 63.5602 97.7613 63.4802 98.4313H64.4002H64.4102ZM63.5802 95.6012H64.4302V93.7712H63.5802V95.6012ZM69.2602 93.1813C68.9602 94.3313 68.5602 95.8513 68.2302 96.9113C68.9502 98.0013 69.1102 98.9412 69.1102 99.7812C69.1102 100.521 68.9802 101.081 68.6502 101.331C68.4902 101.461 68.3002 101.531 68.0502 101.571C67.8702 101.591 67.6402 101.591 67.3902 101.581C67.3902 101.331 67.3302 100.921 67.1902 100.641C67.3702 100.651 67.5502 100.651 67.6802 100.651C67.8002 100.641 67.9102 100.611 67.9902 100.531C68.1502 100.391 68.1802 100.041 68.1802 99.6213C68.1802 98.9113 68.0502 98.0413 67.3402 97.0013C67.6302 96.0313 67.9302 94.6613 68.1302 93.7313H66.9402V103.281H66.0002V92.8213H68.4202L68.5602 92.7812L69.2402 93.1813H69.2602Z" fill="#826950"/>
<path d="M75.7504 99.6906C75.5704 99.3606 75.1704 98.7906 74.8104 98.3006V103.241H73.7304V98.3906C73.2904 99.4806 72.7304 100.511 72.1904 101.181C72.0804 100.871 71.8204 100.411 71.6504 100.151C72.3604 99.3306 73.1204 97.9106 73.5804 96.6406H71.8804V95.5806H73.7304V93.9506C73.1804 94.0706 72.6304 94.1506 72.1104 94.2306C72.0604 93.9806 71.9204 93.6106 71.7904 93.3706C73.1204 93.1506 74.6304 92.8106 75.5304 92.4106L76.3004 93.2606C75.8704 93.4306 75.3504 93.5806 74.8104 93.7306V95.5906H76.2104V96.6506H74.8104V97.2006C75.1604 97.5006 76.1804 98.5406 76.3904 98.8206L75.7404 99.7006L75.7504 99.6906ZM82.8404 102.141V103.041H75.6804V102.141H78.8504V101.361H76.3604V100.501H78.8504V99.7806H76.4604V95.8906H78.8504V95.2206H76.0204V94.3306H78.8504V93.6606C78.0204 93.7106 77.2104 93.7406 76.4404 93.7606C76.4204 93.5306 76.3004 93.1506 76.1904 92.9306C78.1704 92.8606 80.5604 92.6706 81.9204 92.3906L82.5804 93.2106C81.8404 93.3806 80.9104 93.5006 79.9304 93.5806V94.3406H82.6004V95.2306H79.9304V95.9006H82.3904V99.7906H79.9304V100.511H82.4304V101.371H79.9304V102.151H82.8504L82.8404 102.141ZM77.4404 97.4806H78.8404V96.6806H77.4404V97.4806ZM78.8504 98.9806V98.1806H77.4504V98.9806H78.8504ZM79.9304 96.6806V97.4806H81.3704V96.6806H79.9304ZM81.3704 98.1806H79.9304V98.9806H81.3704V98.1806Z" fill="#826950"/>
<path d="M95.6303 98.5362C95.2803 99.6862 94.6903 100.626 93.9503 101.376C94.6003 101.836 95.3503 102.176 96.2003 102.386C95.9703 102.576 95.6803 102.986 95.5403 103.246C94.6403 102.986 93.8503 102.576 93.1903 102.046C92.5203 102.546 91.7603 102.946 90.9703 103.216C90.8403 102.976 90.5903 102.576 90.3903 102.376V103.236H89.3103V102.106C87.8903 102.286 86.4703 102.426 85.4003 102.536L85.2803 101.586C85.6203 101.566 85.9903 101.536 86.4003 101.506V97.6662H85.4303V96.7562H95.9703V97.6662H90.3903V102.336C91.1103 102.116 91.8103 101.776 92.4303 101.326C91.9103 100.746 91.4903 100.086 91.1803 99.3362L91.8303 99.1562H90.6803V98.2962H94.7503L94.9403 98.2562L95.6203 98.5162L95.6303 98.5362ZM87.7603 96.3862H86.6903V92.6562H94.7903V96.3862H93.6603V93.4762H87.7603V96.3862ZM87.4403 97.6862V98.3362H89.3203V97.6862H87.4403ZM87.4403 99.7962H89.3203V99.1262H87.4403V99.7962ZM87.4403 101.426C88.0403 101.366 88.6803 101.306 89.3203 101.246V100.596H87.4403V101.426ZM93.2103 94.7862H88.2303V94.0762H93.2103V94.7862ZM88.2303 95.4062H93.1703V96.1162H88.2303V95.4062ZM92.1303 99.1662C92.3803 99.7262 92.7303 100.256 93.1703 100.706C93.6103 100.266 94.0003 99.7462 94.2703 99.1662H92.1203H92.1303Z" fill="#826950"/>
<path d="M101.98 98.1206C101.81 99.1306 101.57 100.001 101.24 100.761C102.01 101.941 103.4 102.121 105.45 102.121C106.71 102.121 108.53 102.061 109.8 101.941C109.63 102.181 109.49 102.681 109.44 102.981C108.28 103.051 106.78 103.091 105.43 103.091C103.16 103.091 101.72 102.851 100.8 101.611C100.37 102.341 99.8398 102.881 99.2398 103.291C99.0998 103.071 98.7398 102.691 98.5098 102.531C99.6398 101.831 100.45 100.591 100.85 98.8106H99.6698C99.3698 98.8106 99.0498 98.8906 98.9498 98.9906C98.8898 98.7406 98.6898 98.2506 98.5798 98.0406C98.7498 97.9906 98.9498 97.9106 99.1698 97.6806C99.4098 97.4306 100.03 96.6006 100.51 95.9106H98.7598V95.0106H101.22L101.36 94.9506L102.07 95.2706C101.6 95.9406 100.76 97.1206 100.1 97.9306H101.24L101.42 97.9106L101.97 98.1106L101.98 98.1206ZM100.68 94.6806C100.37 94.1906 99.6998 93.3706 99.1598 92.7806L99.9898 92.2606C100.54 92.8406 101.2 93.5806 101.55 94.0606L100.69 94.6706L100.68 94.6806ZM103.88 94.0506H102.06V93.1706H105.13C105 92.9306 104.84 92.6906 104.7 92.4906L105.58 92.1406C105.84 92.4406 106.08 92.8406 106.26 93.1706H109.51V94.0506H107.88L108.02 94.0906C107.84 94.4506 107.66 94.8106 107.49 95.1106H109.17V100.301C109.17 100.781 109.09 101.051 108.75 101.211C108.4 101.371 107.91 101.381 107.21 101.381C107.16 101.121 107.03 100.711 106.9 100.461C107.37 100.481 107.81 100.481 107.97 100.471C108.1 100.471 108.15 100.421 108.15 100.281V95.9906H106.28V96.7206H107.92V97.4406H106.28V98.1906H107.48V100.301H105.06V100.721H104.27V98.1906H105.44V97.4406H103.83V96.7206H105.44V95.9906H103.58V101.411H102.57V95.1106H103.93C103.86 94.8106 103.71 94.4306 103.53 94.1406L103.88 94.0606V94.0506ZM106.45 95.1106C106.61 94.8106 106.79 94.3906 106.92 94.0506H104.54C104.72 94.3706 104.9 94.7806 104.95 95.0606L104.76 95.1106H106.45ZM106.67 98.8506H105.05V99.6406H106.67V98.8506Z" fill="#826950"/>
<path d="M118.75 92.7209C118.63 92.9009 118.51 93.0809 118.37 93.2609C119.83 94.7009 121.46 95.6109 123.24 96.3209C122.94 96.5809 122.62 96.9909 122.46 97.3409C121.82 97.0409 121.21 96.7209 120.61 96.3609V97.1509H114.64V96.5509C114.08 96.8909 113.5 97.2109 112.91 97.4709C112.72 97.1609 112.41 96.7409 112.09 96.4609C114.32 95.5809 116.53 94.0609 117.76 92.2109L118.74 92.7109L118.75 92.7209ZM113.95 98.4009H121.45V103.201H120.27V102.651H115.08V103.251H113.95V98.4009ZM115.08 99.3909V101.611H120.27V99.3909H115.08ZM120.23 96.1209C119.35 95.5609 118.53 94.9009 117.68 94.0609C116.98 94.8309 116.17 95.5209 115.31 96.1209H120.24H120.23Z" fill="#826950"/>
<path d="M135.32 93.8522V103.232H134.14V102.632H128.07V103.282H126.95V93.8522H129.97C130.14 93.3322 130.28 92.7122 130.37 92.2422L131.7 92.4022C131.51 92.9022 131.32 93.4222 131.11 93.8522H135.31H135.32ZM128.07 94.9222V96.4622H134.14V94.9222H128.07ZM128.07 97.4822V99.0222H134.14V97.4822H128.07ZM134.14 101.602V100.052H128.07V101.602H134.14Z" fill="#826950"/>
<path d="M147.26 101.908C148.5 101.908 148.68 101.597 148.81 99.8075C149.12 99.9875 149.63 100.177 149.95 100.247C149.72 102.427 149.29 103.017 147.26 103.017H143.04C141 103.017 140.34 102.658 140.34 101.158V96.7875H147.3V94.0775H140.19V92.9375H148.48V98.5975H147.3V97.8775H141.5V101.137C141.5 101.777 141.74 101.887 143.02 101.887H147.27L147.26 101.908Z" fill="#826950"/>
<path d="M154.25 94.5262C153.77 94.9562 153.25 95.3563 152.75 95.6562C152.68 95.4262 152.43 94.8662 152.27 94.6162C153.31 94.0562 154.42 93.1463 155.02 92.1562L155.96 92.5062C155.89 92.6262 155.82 92.7362 155.73 92.8562C156.33 93.1662 157.02 93.5662 157.41 93.8262L156.91 94.7162C156.53 94.4162 155.78 93.9762 155.16 93.6262C154.88 93.9362 154.58 94.2362 154.27 94.5262H156.31V95.2662H154.26V94.5362L154.25 94.5262ZM156.43 100.156C156.85 100.896 157.37 101.896 157.61 102.486L156.73 102.916C156.63 102.636 156.47 102.296 156.3 101.916C153.78 102.886 153.4 103.056 153.15 103.246C153.09 102.986 152.92 102.506 152.75 102.246C152.95 102.166 153.22 101.986 153.22 101.526V95.8362H157V99.9462H154.25V101.736L155.93 101.136C155.82 100.906 155.71 100.706 155.62 100.496L156.44 100.136L156.43 100.156ZM154.25 96.6762V97.4362H155.99V96.6762H154.25ZM155.98 99.1362V98.2362H154.24V99.1362H155.98ZM163.06 101.906C163.06 102.516 162.92 102.876 162.5 103.056C162.09 103.246 161.49 103.276 160.46 103.276C160.4 102.976 160.22 102.456 160.05 102.156C160.81 102.206 161.5 102.196 161.72 102.176C161.91 102.176 162.01 102.096 162.01 101.876V93.7962H157.48V92.7862H163.07V101.896L163.06 101.906ZM161.29 95.5962H157.56V94.6962H161.29V95.5962ZM158.72 100.356V101.306H157.81V96.4962H161.01V100.356H158.72ZM158.72 97.4162V99.4262H160.14V97.4162H158.72Z" fill="#826950"/>
<path d="M174.03 96.6888C174.76 97.4588 175.84 98.1188 176.97 98.4688C176.72 98.6887 176.41 99.0787 176.25 99.3487C175.65 99.1287 175.06 98.7988 174.54 98.4088V101.039H171.53C172.14 101.209 172.85 101.409 173.56 101.639C174.26 101.319 175.03 100.859 175.54 100.519L176.26 101.109C175.73 101.399 175.12 101.699 174.53 101.939C175.19 102.169 175.79 102.379 176.23 102.549L175.76 103.329C174.72 102.899 172.64 102.169 171.09 101.709C171.1 101.949 171.13 102.259 171.16 102.429C168.58 103.039 168.2 103.149 167.96 103.309C167.89 103.049 167.67 102.589 167.49 102.399C167.71 102.279 167.97 102.039 167.97 101.519V98.6488C167.5 98.9888 167.02 99.2688 166.52 99.5088C166.36 99.2888 165.98 98.8888 165.75 98.6888C166.88 98.2288 167.94 97.5288 168.68 96.6888H166.13V95.9088H170.78V95.3688H167.39V94.6687H170.78V94.1687H166.79V93.3988H168.88C168.71 93.1188 168.51 92.8187 168.34 92.5687L169.34 92.2487C169.62 92.5987 169.94 93.0888 170.11 93.3988H172.72C172.95 93.0488 173.2 92.5588 173.34 92.2188L174.55 92.4987C174.33 92.8087 174.11 93.1188 173.89 93.3988H175.96V94.1687H171.92V94.6687H175.35V95.3688H171.92V95.9088H176.62V96.6888H174.03ZM174.26 98.1987C173.71 97.7587 173.22 97.2388 172.84 96.6888H169.97C169.57 97.2388 169.09 97.7587 168.55 98.1987H174.25H174.26ZM169.18 99.3187H173.4V98.8487H169.18V99.3187ZM173.41 100.389V99.8887H169.19V100.389H173.41ZM171.46 101.029H169.18V101.979L171.08 101.569L171.46 101.029ZM169.65 97.1387H173.09V97.7288H169.65V97.1387Z" fill="#826950"/>
<path d="M180.68 100.341V101.261H179.67V93.3213H180.68L182.98 93.3313V100.331H180.68V100.341ZM180.68 94.4113V99.2513H182.01V94.4113H180.68ZM184.95 96.2613V96.8613C184.95 98.8013 184.75 101.471 183.31 103.141C183.13 102.961 182.69 102.681 182.42 102.561C183.8 100.951 183.92 98.6412 183.92 96.8512V92.7812H189.9V96.2513H184.95V96.2613ZM184.95 93.8112V95.2412H188.86V93.8112H184.95ZM188.88 101.981C189.3 101.981 189.37 101.751 189.42 100.471C189.66 100.651 190.1 100.831 190.38 100.901C190.26 102.521 189.97 102.961 188.98 102.961H187.18C186.02 102.961 185.72 102.641 185.72 101.491V96.7812H186.76V98.3313H190.14V99.2213H186.76V101.501C186.76 101.921 186.84 101.991 187.31 101.991H188.88V101.981Z" fill="#826950"/>
<path d="M198.26 95.6175C198.26 94.8375 197.67 94.3275 196.57 94.3275C195.79 94.3275 195.11 94.6675 194.46 95.3475L193.67 94.6175C194.44 93.7575 195.43 93.1875 196.73 93.1875C198.43 93.1875 199.61 94.0275 199.61 95.4975C199.61 97.2875 196.85 97.5875 197.1 99.3375H195.88C195.56 97.3775 198.27 96.8875 198.27 95.6175H198.26ZM195.61 101.487C195.61 100.947 195.99 100.577 196.5 100.577C197.01 100.577 197.4 100.947 197.4 101.487C197.4 102.027 197 102.397 196.5 102.397C196 102.397 195.61 102.027 195.61 101.487Z" fill="#826950"/>
<path d="M58.1504 67.8125H348.5" stroke="#C6B3AC" stroke-width="0.67" stroke-miterlimit="10"/>
<path d="M421.29 42.0516C412.98 42.8216 412.36 43.4416 411.59 51.7516C410.82 43.4416 410.2 42.8216 401.89 42.0516C410.2 41.2816 410.82 40.6616 411.59 32.3516C412.36 40.6616 412.98 41.2816 421.29 42.0516Z" fill="#F9C215"/>
<path d="M536.41 104.051C530.98 104.551 530.57 104.961 530.07 110.391C529.57 104.961 529.16 104.551 523.73 104.051C529.16 103.551 529.57 103.141 530.07 97.7109C530.57 103.141 530.98 103.551 536.41 104.051Z" fill="#F9C215"/>
<path d="M663.41 40.0509C657.98 40.5509 657.57 40.9609 657.07 46.3909C656.57 40.9609 656.16 40.5509 650.73 40.0509C656.16 39.5509 656.57 39.1409 657.07 33.7109C657.57 39.1409 657.98 39.5509 663.41 40.0509Z" fill="#F9C215"/>
<path d="M396.3 43.8913C392.14 44.2713 391.83 44.5813 391.44 48.7513C391.06 44.5913 390.75 44.2813 386.58 43.8913C390.74 43.5113 391.05 43.2013 391.44 39.0312C391.82 43.1912 392.13 43.5013 396.3 43.8913Z" fill="#F9C215"/>
<path d="M710.66 2.60156H812.67C828.94 2.60156 842.15 15.8116 842.15 32.0816V101.062C842.15 117.332 828.94 130.542 812.67 130.542H710.66C694.92 130.542 682.14 117.762 682.14 102.022V31.1216C682.14 15.3816 694.92 2.60156 710.66 2.60156Z" fill="#C6B3AC"/>
<path d="M722.98 57.5472V62.7172C722.98 63.5872 722.81 64.0672 722.3 64.3372C721.78 64.6272 721.04 64.6872 719.88 64.6872C719.84 64.2372 719.63 63.4872 719.4 63.0072C720.12 63.0472 720.79 63.0472 721.01 63.0272C721.24 63.0272 721.32 62.9672 721.32 62.7172V58.1872L719.58 58.8272L719.12 57.1072C719.76 56.9172 720.51 56.6472 721.33 56.3572V52.5272H719.34V50.8672H721.33V47.1172H722.99V50.8672H724.46V52.5272H722.99V55.7772L724.38 55.2772L724.67 56.9172L722.99 57.5572L722.98 57.5472ZM732.34 58.2072C733.46 59.8672 735.18 61.3772 736.87 62.2072C736.48 62.5372 735.92 63.1772 735.67 63.6172C734.05 62.6672 732.44 61.0872 731.28 59.3072V64.8372H729.5V59.4572C728.36 61.2572 726.79 62.8072 725.07 63.7172C724.82 63.3072 724.3 62.6772 723.91 62.3672C725.73 61.5372 727.41 59.9872 728.5 58.2072H725V56.5772H729.51V54.5672H731.29V56.5772H736.46V58.2072H732.36H732.34ZM729.9 50.1572C729.71 52.8672 728.99 54.3772 725.55 55.1672C725.41 54.7572 724.99 54.1072 724.64 53.7972C727.58 53.2372 728.12 52.2272 728.26 50.1572H729.9ZM726.73 51.7272H725.07V48.0872H736.16V51.6272H734.42V49.6172H726.74V51.7272H726.73ZM735.17 53.1372C735.52 53.1372 736.04 53.1172 736.33 53.0372C736.37 53.4572 736.43 54.1572 736.46 54.5272C736.17 54.6272 735.71 54.6472 735.2 54.6472H733.26C731.64 54.6472 731.25 54.1272 731.25 52.4772V50.1172H732.84V52.4972C732.84 52.9972 732.92 53.1372 733.25 53.1372H735.17Z" fill="#543816"/>
<path d="M748.16 61.3138C746.92 62.5138 745.06 63.7738 743.58 64.5438C743.25 64.2338 742.59 63.6138 742.19 63.3438C743.74 62.6637 745.48 61.6438 746.54 60.6338L748.16 61.3138ZM751.94 59.7837V62.9137C751.94 63.7838 751.75 64.2437 751.05 64.5037C750.35 64.7738 749.37 64.7737 747.95 64.7737C747.85 64.2937 747.56 63.5938 747.31 63.1338C748.41 63.1738 749.5 63.1938 749.81 63.1538C750.12 63.1538 750.2 63.0738 750.2 62.8638V59.9038C744.86 60.2538 744.09 60.3538 743.53 60.5438C743.47 60.2338 743.24 59.4437 743.09 59.0137C743.75 58.9337 744.56 58.6638 745.68 58.2238C746.22 58.0338 747.36 57.5637 748.7 56.9437C745.76 57.1137 745.28 57.2138 744.91 57.3338C744.85 57.0038 744.62 56.2537 744.46 55.8237C744.85 55.7637 745.31 55.5737 745.87 55.3037C746.37 55.0537 747.88 54.2638 749.18 53.3138H744.03V55.5537H742.33V51.8037H749.82V50.2738H742.62V48.7038H749.82V47.0938H751.7V48.7038H758.88V50.2738H751.7V51.8037H759.23V55.5537H757.45V53.3138H750.64L751.14 53.7238C750.02 54.5138 748.76 55.2337 747.48 55.8537L751.27 55.6637C752.24 55.1838 753.19 54.6237 754.04 54.0537L755.28 55.1138C752.9 56.5438 750.35 57.7637 747.81 58.7337L755.16 58.3037C754.72 57.8737 754.23 57.4537 753.83 57.1037L755.09 56.3138C756.42 57.3938 758.13 59.0038 758.96 60.0638L757.61 60.9938C757.3 60.5638 756.87 60.0638 756.35 59.5238L751.96 59.7938L751.94 59.7837ZM754.55 60.5137C756.08 61.3237 758.17 62.5838 759.25 63.4738L757.8 64.4838C756.81 63.6138 754.76 62.2938 753.19 61.4038L754.54 60.5137H754.55Z" fill="#543816"/>
<path d="M728.74 81.9134C728.51 83.0134 728.02 84.0434 727.13 84.9534C729.61 85.9234 732.86 86.1334 736.96 86.1734C736.63 86.5934 736.3 87.3534 736.21 87.9534C731.88 87.8034 728.35 87.4734 725.65 86.1334C724.39 86.9234 722.63 87.5834 720.27 88.0834C720.06 87.6734 719.57 86.9034 719.17 86.4934C721.28 86.1234 722.81 85.6434 723.97 85.0834C723.1 84.4234 722.36 83.5934 721.72 82.5834L723.29 81.9634C723.89 82.8334 724.61 83.5334 725.46 84.0934C726.2 83.4334 726.6 82.7034 726.83 81.9034H721.26V74.2834H727.12V72.8934H719.55V71.2734H736.29V72.8934H729V74.2834H735.08V81.9034H728.75L728.74 81.9134ZM722.96 77.4034H727.12V75.7634H722.96V77.4034ZM727.08 80.4434C727.12 80.1334 727.12 79.8234 727.12 79.4934V78.7934H722.96V80.4334H727.08V80.4434ZM733.29 78.7934H729V79.5134C729 79.8434 729 80.1334 728.96 80.4434H733.29V78.8034V78.7934ZM729 75.7534V77.3934H733.29V75.7534H729Z" fill="#543816"/>
<path d="M756.45 72.45C753.99 76.98 748.42 79.57 743.16 80.69C743 80.23 742.64 79.51 742.33 79.14C744.69 78.73 747.11 77.96 749.24 76.88C748.47 76.22 747.27 75.47 746.2 74.91C745.43 75.32 744.59 75.7 743.69 76.07C743.44 75.65 742.88 75.03 742.49 74.74C745.9 73.6 748.37 71.86 749.67 70.25L751.66 70.7C751.31 71.09 750.94 71.47 750.56 71.84H755.01L755.3 71.76L756.46 72.46L756.45 72.45ZM759.15 79.2C756.77 84.83 750.98 87.17 744.58 88.08C744.46 87.6 744.12 86.84 743.81 86.44C746.73 86.11 749.52 85.45 751.86 84.29C751.03 83.54 749.69 82.59 748.53 81.95C747.6 82.4 746.59 82.82 745.51 83.21C745.32 82.8 744.79 82.13 744.43 81.82C748.44 80.58 751.28 78.67 752.77 76.83L754.76 77.29C754.35 77.75 753.93 78.2 753.44 78.64H757.64L757.95 78.56L759.15 79.2ZM748.71 73.34C748.4 73.57 748.05 73.8 747.7 74.02C748.84 74.6 750.08 75.37 750.8 75.97C751.98 75.22 753.02 74.33 753.82 73.34H748.71ZM751.53 80.19C751.08 80.5 750.64 80.79 750.16 81.08C751.34 81.74 752.69 82.63 753.49 83.36C754.77 82.51 755.85 81.46 756.62 80.19H751.53Z" fill="#543816"/>
<path d="M795.81 94.1712C809.794 94.1712 821.13 82.8351 821.13 68.8512C821.13 54.8674 809.794 43.5312 795.81 43.5312C781.826 43.5312 770.49 54.8674 770.49 68.8512C770.49 82.8351 781.826 94.1712 795.81 94.1712Z" fill="white"/>
<path d="M783.88 69.8213H808.22L799.46 62.0312" stroke="#543816" stroke-width="1.95" stroke-linecap="round" stroke-linejoin="round"/>
<path d="M400.03 69.0161C402.78 66.3761 413.49 58.9861 423.82 62.7361C434.15 66.4961 441.34 74.8961 443.36 84.3861C445.38 93.8761 441.25 105.486 427.16 105.006C427.16 105.006 408.67 99.9461 403.7 88.6261C398.73 77.3061 400.03 69.0161 400.03 69.0161Z" fill="#9B8E8C"/>
<path d="M395.91 97.8178C395.91 97.8178 395.66 103.178 398.55 106.278C400.85 108.508 402.24 107.308 403.93 106.278C405.62 105.248 405.63 104.828 405.07 103.568C404.51 102.308 402.11 98.5278 399.15 96.5978C397.19 95.2578 395.77 95.3678 395.91 97.8178Z" fill="black"/>
<path d="M397.29 95.7608C399.84 99.6008 403.69 106.421 403.69 106.421C403.49 106.541 403.3 106.671 403.11 106.781C403.11 106.781 398.34 98.8808 396.45 95.9208C396.67 95.7608 396.96 95.7108 397.29 95.7608Z" fill="#514F4F"/>
<path d="M395.94 96.9638C395.99 96.5838 396.11 96.2938 396.27 96.0938C397.16 102.004 402.17 107.284 402.17 107.284C401.92 107.384 401.68 107.464 401.42 107.504C401.4 107.484 397.1 103.484 395.94 96.9638Z" fill="#514F4F"/>
<path d="M394.35 97.3396C394.35 97.3396 393.71 98.5097 394.47 101.37C395.22 104.23 396.7 105.54 397.83 105.35C398.96 105.16 399.41 104.14 399.3 103.99C399.19 103.83 398.26 104.26 397.7 104.32C398.37 104.09 399.31 103.12 399.16 102.93C399 102.74 398.61 102.93 397.2 103.32C398.12 103.1 398.98 102.11 398.8 101.87C398.61 101.64 398.03 101.99 397.2 102.27C398.12 101.89 398.61 101.21 398.41 100.91C398.21 100.6 396.92 101.5 396.24 101.33C396.24 101.33 395.86 99.7996 395.95 97.8096C395.36 97.1096 394.35 97.3296 394.35 97.3296V97.3396Z" fill="#8E7C7B"/>
<path d="M394.35 97.3375C394.35 97.3375 395.36 97.1175 395.95 97.8175C395.86 99.8075 396.24 101.337 396.24 101.337C395.59 101.387 395.48 100.977 395.26 100.007C395.04 99.0475 394.84 98.8475 394.11 98.6075C394.14 97.7275 394.36 97.3375 394.36 97.3375H394.35Z" fill="#8E7C7B"/>
<path d="M398.86 96.8282L397.82 99.6882L397.19 99.4582L397.38 97.6082C397.38 97.6082 398.08 95.9382 398.93 95.8382C399.78 95.7482 399.69 98.3882 399.69 98.3882L398.71 100.008L398 99.7582L398.86 96.8382V96.8282Z" fill="white"/>
<path d="M400.03 101.339C400.1 100.869 403.11 99.9988 403.11 99.9988L419.91 82.9088C425.39 78.4788 432.69 83.2088 433.63 90.5788C434.57 97.9488 431.42 103.119 426.45 105.349C421.47 107.579 416.42 106.619 413.07 105.349C409.71 104.079 406.73 103.049 404.97 103.589C403.21 104.129 402.13 104.009 401.95 103.749C401.77 103.489 403.86 102.979 403.86 102.979C403.86 102.979 400.83 103.709 400.77 103.359C400.7 103.009 403.3 102.259 403.3 102.259C403.3 102.259 400.55 102.989 400.34 102.539C400.13 102.089 402.85 101.339 402.85 101.339C402.85 101.339 399.96 101.809 400.03 101.339Z" fill="#8E7C7B"/>
<path d="M390.85 79.6819L421.64 86.4619C422.95 88.8119 424.52 92.6019 421.36 96.6019C418.2 100.612 412.96 99.6719 410.92 99.0719C408.87 98.4819 408.78 98.5119 407.12 99.1619C405.46 99.8219 400.53 101.512 398.86 96.8319C396.88 98.3519 394.06 98.2219 393 95.6919C391.94 93.1619 391.27 93.8819 389.18 92.3119C386.02 89.9419 385.24 82.8019 390.86 79.6719L390.85 79.6819Z" fill="#BFADAC"/>
<path d="M419.14 80.4477C421.43 79.0377 423.37 76.9377 422.08 74.2177C420.8 71.4977 417.48 72.0577 415.63 73.4077C413.44 70.2477 407.05 66.6777 400.51 70.0577C399.32 66.9577 397.1 66.1177 395.38 67.5577C393.66 68.9977 394.25 72.5677 395.04 74.0677C395.04 74.0677 392.58 76.1777 390.63 80.1477C388.68 84.1177 390.61 87.1477 392.58 89.3177C394.55 91.4877 397.93 93.9077 397.65 95.1577L400.77 96.1177C400.77 96.1177 401.54 95.1977 404.76 94.8677C407.98 94.5477 413.84 95.2077 416.64 94.0777C419.74 92.8277 422.06 90.8177 421.65 86.4677C420.02 84.0877 419.15 80.4577 419.15 80.4577L419.14 80.4477Z" fill="#8E7C7B"/>
<path d="M399.1 87.1937C399.1 87.1937 399.59 85.7737 399.35 83.2837C399.12 80.7937 400.59 77.0637 401.74 74.6637C402.89 72.2737 402.59 71.4037 400.21 72.8837C397.84 74.3637 394.72 78.0937 395.04 80.7037C395.39 83.6837 398.69 84.2437 399.09 87.1937H399.1Z" fill="#BFADAC"/>
<path d="M405.69 88.5214C405.69 88.5214 405.55 86.7114 408.08 83.6414C410.62 80.5614 411.01 79.3014 412.07 76.6014C413.13 73.9014 414.37 75.1014 414.56 77.0714C414.75 79.0414 415.57 82.1414 413.34 84.5414C411.11 86.9314 407.49 86.3214 405.69 88.5314V88.5214Z" fill="#BFADAC"/>
<path d="M418.39 79.197C418.39 79.197 420.53 78.307 420.43 76.617C420.34 74.927 418.08 75.537 417 77.387C417.94 78.237 418.39 79.197 418.39 79.197Z" fill="black"/>
<path d="M398.27 71.6921C398.27 71.6921 397.18 69.1821 396.2 69.6021C395.22 70.0221 395.31 71.8321 395.95 73.3121C397.1 72.3521 398.27 71.6921 398.27 71.6921Z" fill="black"/>
<path d="M400.76 96.2238C400.9 95.3138 398.13 94.3738 397.64 95.1438C397.25 95.7538 398 96.5538 398.86 96.8338C399.62 97.0838 400.64 97.0338 400.76 96.2238Z" fill="black"/>
<path d="M396.04 90.3938C397.133 90.3938 398.02 88.9834 398.02 87.2438C398.02 85.5041 397.133 84.0938 396.04 84.0938C394.946 84.0938 394.06 85.5041 394.06 87.2438C394.06 88.9834 394.946 90.3938 396.04 90.3938Z" fill="#563C3C"/>
<path d="M409.655 91.6209C410.523 90.1132 410.458 88.4487 409.511 87.9031C408.563 87.3575 407.091 88.1374 406.223 89.6451C405.355 91.1528 405.42 92.8173 406.367 93.3629C407.315 93.9085 408.787 93.1286 409.655 91.6209Z" fill="#563C3C"/>
<path d="M476.75 88.2904C482.31 88.5204 483.86 87.8604 486.81 87.8604C489.76 87.8604 491.31 88.5204 496.88 88.2904C496.88 88.2904 507.76 86.8004 510.29 79.2404C512.81 71.6804 511.74 62.9004 506.11 56.8404C500.48 50.7904 466.15 53.2904 464.18 60.0104C462.21 66.7304 461.01 75.3404 464.94 80.5404C469.63 88.1304 476.76 88.2804 476.76 88.2804L476.75 88.2904Z" fill="#F7F1EB"/>
<path d="M489.79 71.0426C489.62 69.9426 491.22 68.6126 490.95 65.3626C490.68 62.1126 490.56 60.5126 487.53 60.1126C484.5 59.7126 483.24 60.6226 482.42 61.5126C481.61 62.4026 481.1 63.3826 480.63 64.6526C480.63 64.6526 479.5 67.9326 480.02 70.1626C480.54 72.3926 480.63 72.8026 480.63 72.8026C480.63 72.8026 477.21 74.0026 475.61 74.9726C474.01 75.9426 471.86 76.7026 474.25 81.9926C475.8 85.1926 477.88 85.8726 479.84 85.7426C481.8 85.6126 484.66 85.1426 487.64 86.0026C490.62 86.8526 494.55 86.8526 496.76 84.9326C497.46 84.3326 496.84 83.4826 496.85 82.2726C496.85 81.3326 497.59 80.0926 497.36 79.1126C496.95 77.3326 496.28 75.7126 495.83 75.0926C495.64 74.8326 493.43 75.3226 492.12 74.4726C490.52 73.4326 489.78 71.0526 489.78 71.0526L489.79 71.0426Z" fill="#FFFAF4"/>
<path d="M510.65 61.5119C509.92 59.4619 508.93 57.4719 507.91 55.6219C506.53 55.2119 502.93 56.9719 501.64 59.4219C503.19 59.3519 504.57 60.1719 504.91 62.1319C505.25 64.0919 505 66.7719 502.61 70.3519C500.22 73.9319 495.75 74.0919 492.18 73.7519L492.4 75.4419C494.4 76.6019 501.75 76.7219 505.52 70.4519C508.32 65.7919 508.01 62.3419 507.1 59.7319C509.25 62.9719 511.77 68.0019 510.66 73.7619C509.55 79.5119 505.98 85.8119 499.01 86.3519C497.43 87.0519 496.8 87.5619 496.86 88.2819C497.29 88.2619 497.74 88.2419 498.21 88.2119C504.9 87.8019 508.38 84.2319 511.18 78.8119C513.98 73.3919 512.72 67.3319 510.64 61.5019L510.65 61.5119Z" fill="#E2AF9C"/>
<path d="M473.66 86.4692C469.71 85.3792 465.83 82.0792 464.12 76.7492C462.41 71.4192 463.27 66.6892 464.78 63.4792C464.15 66.5792 465.42 69.8692 467.52 72.0592C470.07 74.7292 475.61 74.9692 475.61 74.9692L477.3 73.0292C477.3 73.0292 473.82 72.6992 471.09 70.9492C468.36 69.1992 467.27 66.1792 467.85 63.3092C468.43 60.4492 471.36 59.9392 471.36 59.9392C471.36 59.9392 469.54 57.1392 463.84 59.3292C463.52 60.0392 463.23 60.7692 462.97 61.5092C460.89 67.3392 459.63 73.3992 462.43 78.8192C465.23 84.2392 468.71 87.8092 475.4 88.2192C475.92 88.2492 476.41 88.2792 476.87 88.2892C476.75 87.3792 476.13 87.2992 473.67 86.4692H473.66Z" fill="#E2AF9C"/>
<path d="M484.62 60.8873C483.69 61.6773 482.13 63.0373 479.23 62.9273C476.33 62.8173 474.24 61.8773 472.76 60.6773C471.28 59.4873 466.56 58.1373 462.35 63.3173C462.35 63.3173 462.56 62.6773 462.75 62.1273C464.6 59.1473 469.4 53.3773 470.45 50.4873C471.5 47.5873 475.82 37.7273 479.88 35.8073C483.94 33.8873 494.77 33.4073 497.84 38.1473C500.91 42.8973 504.97 52.0473 505.8 54.7173C506.62 57.3873 507.97 59.4273 507.97 59.4273C507.97 59.4273 506.02 58.1573 503.84 58.5273C501.66 58.8973 499.49 61.3173 496.18 62.1373C492.87 62.9573 489.13 61.6373 488.23 60.8873C487.33 60.1373 484.62 60.8873 484.62 60.8873Z" fill="#E2AF9C"/>
<path d="M486.32 75.9391C486.09 75.8691 486.49 74.0291 487.27 73.1491C488.05 72.2791 489.79 71.0391 489.79 71.0391C489.79 71.0391 493 72.2491 492.41 75.4391C490.95 76.4291 490.03 76.5391 489.07 77.1591C488.11 77.7791 487.74 78.0591 487.5 77.7791C487.09 77.1891 490.06 75.4091 489.88 75.1591C489.7 74.8991 487.33 77.2791 486.99 76.9391C486.64 76.5891 487.75 75.6791 488.2 75.2491C488.65 74.8291 489.11 74.3191 489.02 74.2091C488.91 74.0791 487.94 75.0791 487.55 75.4991C487.16 75.9191 486.93 76.4191 486.66 76.3491C486.57 76.3191 486.54 76.1391 486.56 75.8891C486.56 75.8891 486.49 75.9891 486.32 75.9491V75.9391Z" fill="#D88E87"/>
<path d="M471.68 29.9172C468.88 28.6772 468.36 29.6872 468.18 31.9972C468 34.2972 468.19 37.9772 472.4 42.2172L477.67 33.8272C476.5 32.2872 474.48 31.1572 471.68 29.9172Z" fill="#E2AF9C"/>
<path d="M505.43 32.0032C505.25 29.7032 504.73 28.6832 501.93 29.9232C499.13 31.1632 497.12 32.2932 495.94 33.8332L501.21 42.2232C505.42 37.9832 505.61 34.3032 505.43 32.0032Z" fill="#E2AF9C"/>
<path d="M499.61 38.827C499.42 37.167 499.49 34.527 501 32.517C502.51 30.507 504.89 30.797 504.55 33.937C504.21 37.077 502.9 39.047 500.66 40.957L499.62 38.827H499.61Z" fill="#F7DFDC"/>
<path d="M483.74 60.0766C483.74 60.0766 484.83 61.5066 486.42 61.5066C488.01 61.5066 489.1 60.0766 489.1 60.0766C489.1 60.0766 488.09 57.9766 486.42 57.9766C484.75 57.9766 483.74 60.0766 483.74 60.0766Z" fill="#FFFAF4"/>
<path d="M484.62 58.9375C484.62 58.9375 485.35 59.9075 486.43 59.9075C487.51 59.9075 488.24 58.9375 488.24 58.9375C488.24 58.9375 487.57 57.4375 486.43 57.4375C485.29 57.4375 484.62 58.9375 484.62 58.9375Z" fill="#D88E87"/>
<path d="M497.04 51.903C495.02 49.673 490.37 49.573 489.31 52.523L488.94 54.093L486.42 55.233V58.613C486.42 58.613 491.13 62.423 496.75 59.983C498.7 59.133 499.58 54.703 497.05 51.913L497.04 51.903Z" fill="#FFFAF4"/>
<path d="M475.82 51.903C477.84 49.673 482.49 49.573 483.55 52.523L483.92 54.093L486.44 55.233V58.613C486.44 58.613 481.73 62.423 476.11 59.983C474.16 59.133 473.28 54.703 475.81 51.913L475.82 51.903Z" fill="#FFFAF4"/>
<path d="M472.61 32.517C471.1 30.507 468.72 30.797 469.06 33.937C469.4 37.077 470.71 39.047 472.95 40.957L473.99 38.827C474.18 37.167 474.11 34.527 472.6 32.517H472.61Z" fill="#F7DFDC"/>
<path d="M475.61 74.9831C475.61 74.9831 476.85 72.0231 480.29 72.3631C482.21 74.6931 482.33 75.4331 482.38 76.6531C482.43 77.8731 482.49 78.4131 482.24 78.4331C482 78.4531 481.82 78.0831 481.71 77.0631C481.6 76.0431 481.12 75.1831 480.91 75.2831C480.7 75.3831 481.28 76.2131 481.32 77.3131C481.37 78.4131 481.34 78.7131 481.13 78.7231C480.85 78.7231 480.69 77.7331 480.42 76.9031C480.15 76.0731 479.77 75.3931 479.55 75.5331C479.33 75.6731 480.02 76.6731 480.1 77.8431C480.18 79.0131 480.1 79.2231 479.87 79.2531C479.64 79.2831 479.53 77.9531 479.16 77.2131C478.79 76.4731 478.47 75.8231 478.29 75.9431C478.12 76.0731 478.93 77.2331 479.09 78.1531C479.25 79.0831 479.11 79.7031 478.65 78.7831C478.19 77.8631 477.81 77.2031 477.15 76.5831C476.49 75.9631 475.75 75.3731 475.6 74.9831H475.61Z" fill="#D88E87"/>
<path d="M493.63 49.4325C494.784 49.4325 495.72 47.9506 495.72 46.1225C495.72 44.2944 494.784 42.8125 493.63 42.8125C492.476 42.8125 491.54 44.2944 491.54 46.1225C491.54 47.9506 492.476 49.4325 493.63 49.4325Z" fill="#563C3C"/>
<path d="M479.31 49.4325C480.464 49.4325 481.4 47.9506 481.4 46.1225C481.4 44.2944 480.464 42.8125 479.31 42.8125C478.155 42.8125 477.22 44.2944 477.22 46.1225C477.22 47.9506 478.155 49.4325 479.31 49.4325Z" fill="#563C3C"/>
<path d="M510.65 61.5078C508.57 55.6778 504.46 50.3878 503.24 47.3178C502.02 44.2478 499.85 37.9678 496.87 34.7578C493.89 31.5478 490.9 30.5078 487.39 30.5078H486.21C482.7 30.5078 479.72 31.5478 476.73 34.7578C473.75 37.9678 471.58 44.2478 470.36 47.3178C469.14 50.3878 465.03 55.6778 462.95 61.5078C462.88 61.7078 462.81 61.9178 462.73 62.1178C462.89 62.1578 463.04 62.0878 463.18 61.9078C464.39 60.2978 465.84 59.1378 468.5 57.3178C471.16 55.4978 471.41 49.8178 473.27 45.9178C475.13 42.0178 476.87 38.3878 480.62 37.9378C484.37 37.4878 485.09 41.5778 486.79 41.5778C488.49 41.5778 489.21 37.4878 492.96 37.9378C496.71 38.3878 498.45 42.0178 500.31 45.9178C502.17 49.8178 502.41 55.4978 505.08 57.3178C507.74 59.1378 509.19 60.2978 510.4 61.9078C510.53 62.0878 510.68 62.1478 510.85 62.1178C510.78 61.9078 510.71 61.7078 510.63 61.5078H510.65Z" fill="#BC907D"/>
<path d="M477.33 88.0593C478.2 87.4393 477.08 84.9193 475.48 82.1393C473.88 79.3593 471.86 77.4493 471.32 77.8193C470.78 78.1993 473.67 81.2393 473.41 81.5593C473.15 81.8793 470.67 77.8793 470.11 78.3493C469.55 78.8193 472.64 82.0693 472.32 82.3893C472 82.7093 469.86 78.9293 469.29 79.3893C468.72 79.8593 472.06 83.0493 471.85 83.4393C471.64 83.8293 469.15 80.0993 468.78 80.4693C468.41 80.8393 469.52 82.4093 471.9 84.8093C474.28 87.2093 476.33 88.7693 477.32 88.0593H477.33Z" fill="#D88E87"/>
<path d="M496.25 89.2911C495.21 89.0611 495.25 86.3011 495.63 83.1211C496.01 79.9311 497.11 77.3811 497.76 77.5211C498.41 77.6611 496.94 81.5911 497.3 81.7811C497.66 81.9711 498.38 77.3211 499.07 77.5311C499.77 77.7411 498.2 81.9511 498.62 82.1111C499.04 82.2811 499.52 77.9611 500.23 78.1611C500.94 78.3611 499.12 82.6211 499.47 82.8911C499.82 83.1711 500.64 78.7611 501.13 78.9511C501.62 79.1511 501.21 81.0311 499.97 84.1611C498.72 87.3011 497.45 89.5411 496.26 89.2811L496.25 89.2911Z" fill="#D88E87"/>
<path d="M488.39 53.7765C487.64 53.0865 486.42 54.7565 486.42 54.7565C486.42 54.7565 485.2 53.0865 484.45 53.7765C483.76 54.4165 485.16 55.8065 486.17 56.0265C486.17 56.0265 486.17 56.0465 486.17 56.0565V59.2565C486.17 59.3965 486.28 59.5165 486.43 59.5165C486.58 59.5165 486.69 59.4065 486.69 59.2565V56.0565C486.69 56.0565 486.69 56.0365 486.69 56.0265C487.7 55.8065 489.1 54.4165 488.41 53.7765H488.39Z" fill="#D88E87"/>
<path d="M588.37 45.8687C593.53 50.9987 585.15 57.3087 580.04 57.4987C578.65 57.5487 577.12 57.2487 576.27 56.1487C575.52 55.1687 575.51 53.7987 575.81 52.5987C576.63 49.3587 579.37 46.9287 582.31 45.3387C583.26 44.8287 584.28 44.3687 585.36 44.4087C586.5 44.4487 587.56 45.0687 588.37 45.8687Z" fill="#DCD5C9"/>
<path d="M570.45 102.291C572.95 97.7009 575.25 108.131 575.95 109.701C574.41 109.471 573.1 108.201 572.75 106.661C571.12 108.901 568.95 110.751 566.48 112.011C566.67 109.861 567.83 107.821 569.58 106.561C568.49 108.391 566.67 109.781 564.62 110.351C565.56 108.731 566.96 107.391 568.61 106.511C567.13 107.011 565.66 107.511 564.18 108.011C563.92 106.951 564.98 106.011 566.01 105.661C567.05 105.311 568.22 105.221 569.05 104.501C569.71 103.931 570.02 103.061 570.44 102.291H570.45Z" fill="#DD9B8D"/>
<path d="M555.98 98.6971C558.48 94.1071 560.78 104.537 561.48 106.107C559.94 105.877 558.63 104.607 558.28 103.067C556.65 105.307 554.48 107.157 552.01 108.417C552.2 106.267 553.36 104.227 555.11 102.967C554.02 104.797 552.2 106.187 550.15 106.757C551.09 105.137 552.49 103.797 554.14 102.917C552.66 103.417 551.19 103.917 549.71 104.417C549.45 103.357 550.51 102.417 551.54 102.067C552.58 101.717 553.75 101.627 554.58 100.907C555.24 100.337 555.55 99.4671 555.97 98.6971H555.98Z" fill="#DD9B8D"/>
<path d="M607.92 104.171C607.35 102.341 612.51 98.2106 610.92 97.1006C609.02 95.7806 605.84 100.461 604.5 101.141C603.21 101.801 601.78 102.181 600.49 102.841C599.19 103.501 597.98 104.521 597.59 105.921C599.45 105.621 601.23 104.871 602.74 103.741C602.13 104.931 601.53 106.121 600.92 107.311C602.71 106.141 604.41 104.821 605.99 103.361C605.93 103.931 605.87 104.521 606.01 105.081C606.15 105.641 606.52 106.181 607.08 106.351C607.63 106.521 608.33 106.181 608.41 105.601C608.48 105.091 608.09 104.651 607.94 104.161L607.92 104.171Z" fill="#DD9B8D"/>
<path d="M637.71 86.2403C640.13 86.5403 642.52 86.9403 644.81 87.7603C647.81 88.8203 650.74 90.7603 652.37 93.5703C654.81 97.8003 651.91 101.44 648.11 103.38C646.24 104.33 644.44 104.63 642.43 104.98C641.91 105.07 635.23 105.52 635.45 105.15C636.45 103.47 638.16 103.67 639.8 103.35C641.73 102.98 643.73 102.17 645.49 101.32C647.55 100.32 649.76 98.5803 649.51 96.3103C649.38 95.1403 648.58 94.1303 647.61 93.4703C643.37 90.5703 636.56 89.8603 631.61 88.9903C625.81 87.9703 619.95 87.3703 614.08 86.9103C611.87 86.7403 610.38 87.4403 609.12 85.1503C608.57 84.1403 608.41 81.9103 609.35 81.0203C610.41 80.0203 611.74 81.0403 613.09 81.4303C618.57 83.0003 624.18 84.1503 629.78 85.2103C632.38 85.7003 635.06 85.9103 637.71 86.2403Z" fill="#DD9B8D"/>
<path d="M557.62 101.433C561.3 101.413 558.55 94.9933 563.56 96.1733C566.41 96.8433 568.56 98.3733 569.47 100.963C570.15 102.883 569.6 105.153 572.7 104.503C574.09 104.213 575.14 103.113 576.07 102.043C580.6 96.8333 588.88 98.9933 595.01 99.5233C602.3 100.163 611.74 100.403 616.6 94.7933C617.7 93.5233 618.56 91.9533 619.11 90.0233C620.27 85.9833 619.57 81.5933 618 77.6933C614.66 69.4633 608.25 61.8833 599.7 58.8633C593.79 56.7733 588.09 58.5833 582.21 57.3133C576.4 56.0633 569.39 55.4533 564.33 59.2033C560.72 61.8733 558.85 66.2633 557.5 70.5533C555.92 75.6133 555.4 81.2733 554.81 86.5133C554.41 90.0533 553.77 93.9633 554.14 97.5233C554.32 99.2333 555.99 101.443 557.6 101.433H557.62Z" fill="#ECE5DF"/>
<path d="M616.6 94.7812C611.74 100.401 602.3 100.161 595.01 99.5212C590.08 99.0912 584.93 98.5213 580.09 99.1813C580.83 96.3513 586.08 95.5913 588.37 95.6413C592.66 95.7313 596.8 97.2813 601.09 97.4413C607.03 97.6713 613.01 95.0413 616.87 90.5312C617.21 91.9713 617.08 93.4212 616.61 94.7812H616.6Z" fill="#DCD5C9"/>
<path d="M565.03 51.4328C563.64 48.8928 562.2 46.3928 560.48 44.0528C558.91 41.9228 556.43 40.8228 554.01 39.7428C553.52 39.5228 553.02 39.3128 552.49 39.3128C549.68 39.2828 552.96 41.6028 553.54 42.3028C555.31 44.4228 557.14 46.6828 557.62 49.4028C557.88 50.8928 557.82 52.6528 559 53.5928C559.95 54.3528 561.39 54.1928 562.42 53.5628C563.46 52.9228 564.18 51.9028 564.88 50.9128" fill="#DCD5C9"/>
<path d="M560.46 53.6174C560.46 53.6174 560.42 53.6874 560.39 53.7274C558.87 52.6674 556.66 51.4674 556.97 54.5974C557.05 55.3674 556.87 56.3874 556.11 56.4874C555.75 56.5374 555.42 56.3374 555.11 56.1474C551.26 53.7674 546.74 51.0174 547.01 45.7574C547.13 43.4474 549.02 39.8874 551.64 39.6374C554.18 39.3974 557.42 42.6874 558.68 44.5574C560.09 46.6474 561.84 51.2074 560.45 53.6174H560.46Z" fill="#DD9B8D"/>
<path d="M552.1 66.403C552.67 73.803 555.18 81.573 556.24 88.173C562.11 85.643 569.94 83.723 574.72 79.353C578.96 75.473 581.47 70.113 584.78 65.503C585.08 65.083 585.39 64.633 585.44 64.123C585.49 63.613 585.27 63.133 585.06 62.663C583.72 59.763 582.92 56.613 580.87 54.173C578.58 51.443 575.4 50.053 572.14 48.813C570.48 48.183 568.77 47.543 566.99 47.563C565.05 47.583 563.21 48.383 561.44 49.163C558.8 50.323 555.62 51.013 554.06 53.493C552.14 57.413 551.76 61.833 552.11 66.393L552.1 66.403Z" fill="#ECE5DF"/>
<path d="M576.34 52.9302C576.95 52.8402 578.03 51.5702 579.3 52.4602C579.93 52.9002 579.72 53.8602 579.5 54.6002C578.54 57.7402 583.51 56.2702 585.15 55.4902C588.1 54.1002 589.96 49.9902 589.67 46.8702C589.14 41.2402 583.17 38.8602 579.21 42.9902C577.33 44.9502 575.82 48.6302 575.81 51.3402C575.81 52.6402 576 52.9702 576.35 52.9202L576.34 52.9302Z" fill="#DD9B8D"/>
<path d="M558.37 60.1663C559.16 61.8463 558.48 64.8663 557.12 64.9663C555.56 65.0763 554.89 61.3663 556.16 59.8063C556.84 58.9763 557.87 59.1063 558.37 60.1663Z" fill="#5D5D5D"/>
<path d="M572.78 60.1663C573.57 61.8463 572.89 64.8663 571.53 64.9663C569.97 65.0763 569.3 61.3663 570.57 59.8063C571.25 58.9763 572.28 59.1063 572.78 60.1663Z" fill="#5D5D5D"/>
<path d="M558.44 66.5002C559.13 67.8802 560.04 69.0202 561.65 68.7102C562.21 68.6002 564.16 66.5702 563.56 66.5202C561.88 66.3702 560.14 66.4902 558.44 66.5002Z" fill="#DD9B8D"/>
<path d="M584.85 58.2225C585.04 58.0325 585.23 57.8425 585.42 57.6525C584.58 57.5425 583.74 57.4225 582.9 57.3125C584.35 61.6125 583.56 66.4125 581.69 70.5425C579.82 74.6725 576.96 78.2625 574.13 81.8125C581.81 79.8125 592.92 65.7325 585.32 58.2825" fill="#DCD5C9"/>
<path d="M558.02 97.9678C558.3 98.1378 558.63 98.3478 559 98.5678C559.13 97.8878 559.36 97.2378 559.78 96.6878C561.15 94.8878 564.069 94.9978 565.919 96.3078C567.689 97.5678 568.66 99.1178 569 100.948C568.78 99.7878 570.58 97.8978 570.31 96.2878C570.12 95.1178 569.57 94.0378 569.03 92.9778C568.17 91.2878 567.3 89.6078 566.44 87.9178C566.1 87.2478 565.74 86.5678 565.15 86.0978C564.56 85.6278 563.68 85.4578 563.07 85.8878C562.58 86.2378 562.389 86.8678 562.229 87.4478C562.029 88.1678 558.67 98.4178 558.02 97.9578V97.9678Z" fill="#DCD5C9"/>
<path d="M553.91 71C555.02 75.8 559.56 79.58 564.47 79.8C562.7 79.46 560.89 79.88 559.1 79.97C557.31 80.07 555.3 79.74 554.18 78.33C552.91 76.73 553.28 74.42 553.71 72.42" fill="#DCD5C9"/>
</g>
<defs>
<clipPath id="clip0_2351_13041">
<rect width="846" height="133" fill="white"/>
</clipPath>
</defs>
</svg>
