<svg width="277" height="83" viewBox="0 0 277 83" fill="none" xmlns="http://www.w3.org/2000/svg">
<path d="M34.7096 12.6688C26.3996 13.4388 25.7796 14.0588 25.0096 22.3688C24.2396 14.0588 23.6196 13.4388 15.3096 12.6688C23.6196 11.8988 24.2396 11.2788 25.0096 2.96875C25.7796 11.2788 26.3996 11.8988 34.7096 12.6688Z" fill="#F9C215"/>
<path d="M149.83 74.6681C144.4 75.1681 143.99 75.5781 143.49 81.0081C142.99 75.5781 142.58 75.1681 137.15 74.6681C142.58 74.1681 142.99 73.7581 143.49 68.3281C143.99 73.7581 144.4 74.1681 149.83 74.6681Z" fill="#F9C215"/>
<path d="M276.83 10.6681C271.4 11.1681 270.99 11.5781 270.49 17.0081C269.99 11.5781 269.58 11.1681 264.15 10.6681C269.58 10.1681 269.99 9.75812 270.49 4.32812C270.99 9.75812 271.4 10.1681 276.83 10.6681Z" fill="#F9C215"/>
<path d="M9.72 14.5084C5.56 14.8884 5.25002 15.1984 4.86002 19.3684C4.48002 15.2084 4.17 14.8984 0 14.5084C4.16 14.1284 4.47002 13.8184 4.86002 9.64844C5.24002 13.8084 5.55 14.1184 9.72 14.5084Z" fill="#F9C215"/>
<path d="M13.4502 39.6333C16.2002 36.9933 26.9102 29.6033 37.2402 33.3533C47.5702 37.1133 54.7602 45.5133 56.7802 55.0033C58.8002 64.4933 54.6702 76.1033 40.5802 75.6233C40.5802 75.6233 22.0902 70.5633 17.1202 59.2433C12.1502 47.9233 13.4502 39.6333 13.4502 39.6333Z" fill="#9B8E8C"/>
<path d="M9.32983 68.435C9.32983 68.435 9.07981 73.795 11.9698 76.895C14.2698 79.125 15.6598 77.925 17.3498 76.895C19.0398 75.865 19.0498 75.445 18.4898 74.185C17.9298 72.925 15.5298 69.145 12.5698 67.215C10.6098 65.875 9.18983 65.985 9.32983 68.435Z" fill="black"/>
<path d="M10.7101 66.378C13.2601 70.218 17.1101 77.038 17.1101 77.038C16.9101 77.158 16.7201 77.288 16.5301 77.398C16.5301 77.398 11.7601 69.498 9.87012 66.538C10.0901 66.378 10.3801 66.328 10.7101 66.378Z" fill="#514F4F"/>
<path d="M9.36035 67.5809C9.41035 67.2009 9.53034 66.9109 9.69034 66.7109C10.5803 72.6209 15.5904 77.9009 15.5904 77.9009C15.3404 78.0009 15.1004 78.0809 14.8404 78.1209C14.8204 78.1009 10.5204 74.1009 9.36035 67.5809Z" fill="#514F4F"/>
<path d="M7.76955 67.9568C7.76955 67.9568 7.12954 69.1268 7.88954 71.9868C8.63954 74.8468 10.1195 76.1568 11.2495 75.9668C12.3795 75.7768 12.8295 74.7568 12.7195 74.6068C12.6095 74.4468 11.6796 74.8768 11.1196 74.9368C11.7896 74.7068 12.7295 73.7368 12.5795 73.5468C12.4195 73.3568 12.0296 73.5468 10.6196 73.9368C11.5396 73.7168 12.3995 72.7268 12.2195 72.4868C12.0295 72.2568 11.4496 72.6068 10.6196 72.8868C11.5396 72.5068 12.0295 71.8268 11.8295 71.5268C11.6295 71.2168 10.3395 72.1168 9.65953 71.9468C9.65953 71.9468 9.27955 70.4168 9.36955 68.4268C8.77955 67.7268 7.76955 67.9468 7.76955 67.9468V67.9568Z" fill="#8E7C7B"/>
<path d="M7.77029 67.9546C7.77029 67.9546 8.7803 67.7347 9.3703 68.4347C9.2803 70.4247 9.66028 71.9546 9.66028 71.9546C9.01028 72.0046 8.9003 71.5947 8.6803 70.6247C8.4603 69.6647 8.26027 69.4647 7.53027 69.2247C7.56027 68.3447 7.78027 67.9546 7.78027 67.9546H7.77029Z" fill="#8E7C7B"/>
<path d="M12.2803 67.4454L11.2404 70.3054L10.6104 70.0754L10.8004 68.2254C10.8004 68.2254 11.5003 66.5554 12.3503 66.4554C13.2003 66.3654 13.1104 69.0054 13.1104 69.0054L12.1303 70.6254L11.4203 70.3754L12.2803 67.4554V67.4454Z" fill="white"/>
<path d="M13.4495 71.956C13.5195 71.486 16.5295 70.616 16.5295 70.616L33.3295 53.526C38.8095 49.096 46.1095 53.826 47.0495 61.196C47.9895 68.566 44.8395 73.736 39.8695 75.966C34.8895 78.196 29.8395 77.236 26.4895 75.966C23.1295 74.696 20.1495 73.666 18.3895 74.206C16.6295 74.746 15.5495 74.626 15.3695 74.366C15.1895 74.106 17.2795 73.596 17.2795 73.596C17.2795 73.596 14.2495 74.326 14.1895 73.976C14.1195 73.626 16.7195 72.876 16.7195 72.876C16.7195 72.876 13.9695 73.606 13.7595 73.156C13.5495 72.706 16.2695 71.956 16.2695 71.956C16.2695 71.956 13.3795 72.426 13.4495 71.956Z" fill="#8E7C7B"/>
<path d="M4.26991 50.2991L35.0599 57.0791C36.3699 59.4291 37.9399 63.2191 34.7799 67.2191C31.6199 71.2291 26.3799 70.2891 24.3399 69.6891C22.2899 69.0991 22.1999 69.1291 20.5399 69.7791C18.8799 70.4391 13.9499 72.1291 12.2799 67.4491C10.2999 68.9691 7.4799 68.8391 6.4199 66.3091C5.3599 63.7791 4.68989 64.4991 2.59989 62.9291C-0.560107 60.5591 -1.34011 53.4191 4.27989 50.2891L4.26991 50.2991Z" fill="#BFADAC"/>
<path d="M32.5597 51.0649C34.8497 49.6549 36.7896 47.5549 35.4996 44.8349C34.2196 42.1149 30.8997 42.6749 29.0497 44.0249C26.8597 40.8649 20.4697 37.2949 13.9297 40.6749C12.7397 37.5749 10.5197 36.7349 8.79965 38.1749C7.07965 39.6149 7.66966 43.1849 8.45966 44.6849C8.45966 44.6849 5.99965 46.7949 4.04965 50.7649C2.09965 54.7349 4.02963 57.7649 5.99963 59.9349C7.96963 62.1049 11.3496 64.5249 11.0696 65.7749L14.1896 66.7349C14.1896 66.7349 14.9597 65.8149 18.1797 65.4849C21.3997 65.1649 27.2597 65.8249 30.0597 64.6949C33.1597 63.4449 35.4796 61.4349 35.0696 57.0849C33.4396 54.7049 32.5696 51.0749 32.5696 51.0749L32.5597 51.0649Z" fill="#8E7C7B"/>
<path d="M12.5203 57.8109C12.5203 57.8109 13.0103 56.3909 12.7703 53.9009C12.5403 51.4109 14.0102 47.6809 15.1602 45.2809C16.3102 42.8909 16.0102 42.0209 13.6302 43.5009C11.2602 44.9809 8.14027 48.7109 8.46027 51.3209C8.81027 54.3009 12.1103 54.8609 12.5103 57.8109H12.5203Z" fill="#BFADAC"/>
<path d="M19.1098 59.1386C19.1098 59.1386 18.9698 57.3286 21.4998 54.2586C24.0398 51.1786 24.4298 49.9186 25.4898 47.2186C26.5498 44.5186 27.7898 45.7186 27.9798 47.6886C28.1698 49.6586 28.9898 52.7586 26.7598 55.1586C24.5298 57.5486 20.9098 56.9386 19.1098 59.1486V59.1386Z" fill="#BFADAC"/>
<path d="M31.8099 49.8142C31.8099 49.8142 33.9499 48.9242 33.8499 47.2342C33.7599 45.5442 31.4999 46.1542 30.4199 48.0042C31.3599 48.8542 31.8099 49.8142 31.8099 49.8142Z" fill="black"/>
<path d="M11.6897 42.3093C11.6897 42.3093 10.5997 39.7993 9.61973 40.2193C8.63973 40.6393 8.72973 42.4493 9.36973 43.9293C10.5197 42.9693 11.6897 42.3093 11.6897 42.3093Z" fill="black"/>
<path d="M14.18 66.841C14.32 65.931 11.55 64.991 11.06 65.761C10.67 66.371 11.42 67.171 12.28 67.451C13.04 67.701 14.06 67.651 14.18 66.841Z" fill="black"/>
<path d="M9.4595 61.0109C10.553 61.0109 11.4395 59.6006 11.4395 57.8609C11.4395 56.1212 10.553 54.7109 9.4595 54.7109C8.36598 54.7109 7.47949 56.1212 7.47949 57.8609C7.47949 59.6006 8.36598 61.0109 9.4595 61.0109Z" fill="#563C3C"/>
<path d="M23.0748 62.2381C23.9428 60.7304 23.8782 59.0659 22.9306 58.5203C21.9829 57.9747 20.511 58.7546 19.643 60.2623C18.7749 61.77 18.8395 63.4345 19.7872 63.9801C20.7349 64.5257 22.2068 63.7458 23.0748 62.2381Z" fill="#563C3C"/>
<path d="M90.1702 58.9076C95.7302 59.1376 97.2802 58.4776 100.23 58.4776C103.18 58.4776 104.73 59.1376 110.3 58.9076C110.3 58.9076 121.18 57.4176 123.71 49.8576C126.23 42.2976 125.16 33.5176 119.53 27.4576C113.9 21.4076 79.5702 23.9076 77.6002 30.6276C75.6302 37.3476 74.4302 45.9576 78.3602 51.1576C83.0502 58.7476 90.1802 58.8976 90.1802 58.8976L90.1702 58.9076Z" fill="#F7F1EB"/>
<path d="M103.21 41.6598C103.04 40.5598 104.64 39.2298 104.37 35.9798C104.1 32.7298 103.98 31.1298 100.95 30.7298C97.92 30.3298 96.66 31.2398 95.84 32.1298C95.03 33.0198 94.52 33.9998 94.05 35.2698C94.05 35.2698 92.92 38.5498 93.44 40.7798C93.96 43.0098 94.05 43.4198 94.05 43.4198C94.05 43.4198 90.63 44.6198 89.03 45.5898C87.43 46.5598 85.28 47.3198 87.67 52.6098C89.22 55.8098 91.3 56.4898 93.26 56.3598C95.22 56.2298 98.08 55.7598 101.06 56.6198C104.04 57.4698 107.97 57.4698 110.18 55.5498C110.88 54.9498 110.26 54.0998 110.27 52.8898C110.27 51.9498 111.01 50.7098 110.78 49.7298C110.37 47.9498 109.7 46.3298 109.25 45.7098C109.06 45.4498 106.85 45.9398 105.54 45.0898C103.94 44.0498 103.2 41.6698 103.2 41.6698L103.21 41.6598Z" fill="#FFFAF4"/>
<path d="M124.07 32.1291C123.34 30.0791 122.35 28.0891 121.33 26.2391C119.95 25.8291 116.35 27.5891 115.06 30.0391C116.61 29.9691 117.99 30.7891 118.33 32.7491C118.67 34.7091 118.42 37.3891 116.03 40.9691C113.64 44.5491 109.17 44.7091 105.6 44.3691L105.82 46.0591C107.82 47.2191 115.17 47.3391 118.94 41.0691C121.74 36.4091 121.43 32.9591 120.52 30.3491C122.67 33.5891 125.19 38.6191 124.08 44.3791C122.97 50.1291 119.4 56.4291 112.43 56.9691C110.85 57.6691 110.22 58.1791 110.28 58.8991C110.71 58.8791 111.16 58.8591 111.63 58.8291C118.32 58.4191 121.8 54.8491 124.6 49.4291C127.4 44.0091 126.14 37.9491 124.06 32.1191L124.07 32.1291Z" fill="#E2AF9C"/>
<path d="M87.0804 57.0863C83.1304 55.9963 79.2504 52.6963 77.5404 47.3663C75.8304 42.0363 76.6904 37.3063 78.2004 34.0963C77.5704 37.1963 78.8404 40.4863 80.9404 42.6763C83.4904 45.3463 89.0304 45.5863 89.0304 45.5863L90.7204 43.6463C90.7204 43.6463 87.2404 43.3163 84.5104 41.5663C81.7804 39.8163 80.6904 36.7963 81.2704 33.9263C81.8504 31.0663 84.7804 30.5563 84.7804 30.5563C84.7804 30.5563 82.9604 27.7563 77.2604 29.9463C76.9404 30.6563 76.6504 31.3863 76.3904 32.1263C74.3104 37.9563 73.0504 44.0163 75.8504 49.4363C78.6504 54.8563 82.1304 58.4263 88.8204 58.8363C89.3404 58.8663 89.8304 58.8963 90.2904 58.9063C90.1704 57.9963 89.5504 57.9163 87.0904 57.0863H87.0804Z" fill="#E2AF9C"/>
<path d="M98.0395 31.5044C97.1095 32.2944 95.5495 33.6544 92.6495 33.5444C89.7495 33.4344 87.6595 32.4944 86.1795 31.2944C84.6995 30.1044 79.9795 28.7544 75.7695 33.9344C75.7695 33.9344 75.9795 33.2944 76.1695 32.7444C78.0195 29.7644 82.8195 23.9944 83.8695 21.1044C84.9195 18.2044 89.2395 8.34444 93.2995 6.42444C97.3595 4.50444 108.19 4.02444 111.26 8.76444C114.33 13.5144 118.39 22.6644 119.22 25.3344C120.04 28.0044 121.39 30.0444 121.39 30.0444C121.39 30.0444 119.44 28.7744 117.26 29.1444C115.08 29.5144 112.91 31.9344 109.6 32.7544C106.29 33.5744 102.55 32.2544 101.65 31.5044C100.75 30.7544 98.0395 31.5044 98.0395 31.5044Z" fill="#E2AF9C"/>
<path d="M99.7404 46.5563C99.5104 46.4863 99.9104 44.6463 100.69 43.7663C101.47 42.8963 103.21 41.6562 103.21 41.6562C103.21 41.6562 106.42 42.8663 105.83 46.0563C104.37 47.0463 103.45 47.1563 102.49 47.7763C101.53 48.3963 101.16 48.6762 100.92 48.3962C100.51 47.8062 103.48 46.0263 103.3 45.7763C103.12 45.5163 100.75 47.8963 100.41 47.5563C100.06 47.2063 101.17 46.2962 101.62 45.8662C102.07 45.4462 102.53 44.9362 102.44 44.8262C102.33 44.6962 101.36 45.6962 100.97 46.1162C100.58 46.5362 100.35 47.0362 100.08 46.9662C99.9904 46.9362 99.9604 46.7562 99.9804 46.5062C99.9804 46.5062 99.9104 46.6062 99.7404 46.5662V46.5563Z" fill="#D88E87"/>
<path d="M85.0995 0.534379C82.2995 -0.705621 81.7795 0.304379 81.5995 2.61438C81.4195 4.91438 81.6095 8.59438 85.8195 12.8344L91.0895 4.44438C89.9195 2.90438 87.8995 1.77438 85.0995 0.534379Z" fill="#E2AF9C"/>
<path d="M118.85 2.62037C118.67 0.320367 118.15 -0.699633 115.35 0.540367C112.55 1.78037 110.54 2.91037 109.36 4.45037L114.63 12.8404C118.84 8.60037 119.03 4.92037 118.85 2.62037Z" fill="#E2AF9C"/>
<path d="M113.03 9.44418C112.84 7.78418 112.91 5.14417 114.42 3.13417C115.93 1.12417 118.31 1.41417 117.97 4.55417C117.63 7.69417 116.32 9.66417 114.08 11.5742L113.04 9.44418H113.03Z" fill="#F7DFDC"/>
<path d="M97.1602 30.6938C97.1602 30.6938 98.2502 32.1237 99.8402 32.1237C101.43 32.1237 102.52 30.6938 102.52 30.6938C102.52 30.6938 101.51 28.5938 99.8402 28.5938C98.1702 28.5938 97.1602 30.6938 97.1602 30.6938Z" fill="#FFFAF4"/>
<path d="M98.04 29.5547C98.04 29.5547 98.77 30.5247 99.85 30.5247C100.93 30.5247 101.66 29.5547 101.66 29.5547C101.66 29.5547 100.99 28.0547 99.85 28.0547C98.71 28.0547 98.04 29.5547 98.04 29.5547Z" fill="#D88E87"/>
<path d="M110.46 22.5202C108.44 20.2902 103.79 20.1902 102.73 23.1402L102.36 24.7102L99.8398 25.8502V29.2302C99.8398 29.2302 104.55 33.0402 110.17 30.6002C112.12 29.7502 113 25.3202 110.47 22.5302L110.46 22.5202Z" fill="#FFFAF4"/>
<path d="M89.2404 22.5202C91.2604 20.2902 95.9104 20.1902 96.9704 23.1402L97.3404 24.7102L99.8604 25.8502V29.2302C99.8604 29.2302 95.1504 33.0402 89.5304 30.6002C87.5804 29.7502 86.7004 25.3202 89.2304 22.5302L89.2404 22.5202Z" fill="#FFFAF4"/>
<path d="M86.0301 3.13417C84.5201 1.12417 82.1401 1.41417 82.4801 4.55417C82.8201 7.69417 84.1301 9.66417 86.3701 11.5742L87.4101 9.44418C87.6001 7.78418 87.5301 5.14417 86.0201 3.13417H86.0301Z" fill="#F7DFDC"/>
<path d="M89.0295 45.6003C89.0295 45.6003 90.2695 42.6403 93.7095 42.9803C95.6295 45.3103 95.7495 46.0503 95.7995 47.2703C95.8495 48.4903 95.9095 49.0303 95.6595 49.0503C95.4195 49.0703 95.2395 48.7003 95.1295 47.6803C95.0195 46.6603 94.5395 45.8003 94.3295 45.9003C94.1195 46.0003 94.6995 46.8303 94.7395 47.9303C94.7895 49.0303 94.7595 49.3303 94.5495 49.3403C94.2695 49.3403 94.1095 48.3503 93.8395 47.5203C93.5695 46.6903 93.1895 46.0103 92.9695 46.1503C92.7495 46.2903 93.4395 47.2903 93.5195 48.4603C93.5995 49.6303 93.5195 49.8403 93.2895 49.8703C93.0595 49.9003 92.9495 48.5703 92.5795 47.8303C92.2095 47.0903 91.8895 46.4403 91.7095 46.5603C91.5395 46.6903 92.3495 47.8503 92.5095 48.7703C92.6695 49.7003 92.5295 50.3203 92.0695 49.4003C91.6095 48.4803 91.2295 47.8203 90.5695 47.2003C89.9095 46.5803 89.1695 45.9903 89.0195 45.6003H89.0295Z" fill="#D88E87"/>
<path d="M107.05 20.0497C108.204 20.0497 109.14 18.5677 109.14 16.7397C109.14 14.9116 108.204 13.4297 107.05 13.4297C105.896 13.4297 104.96 14.9116 104.96 16.7397C104.96 18.5677 105.896 20.0497 107.05 20.0497Z" fill="#563C3C"/>
<path d="M92.7296 20.0497C93.8839 20.0497 94.8196 18.5677 94.8196 16.7397C94.8196 14.9116 93.8839 13.4297 92.7296 13.4297C91.5754 13.4297 90.6396 14.9116 90.6396 16.7397C90.6396 18.5677 91.5754 20.0497 92.7296 20.0497Z" fill="#563C3C"/>
<path d="M124.07 32.125C121.99 26.295 117.88 21.005 116.66 17.935C115.44 14.865 113.27 8.585 110.29 5.375C107.31 2.165 104.32 1.125 100.81 1.125H99.6304C96.1204 1.125 93.1404 2.165 90.1504 5.375C87.1704 8.585 85.0004 14.865 83.7804 17.935C82.5604 21.005 78.4504 26.295 76.3704 32.125C76.3004 32.325 76.2304 32.535 76.1504 32.735C76.3104 32.775 76.4604 32.705 76.6004 32.525C77.8104 30.915 79.2604 29.755 81.9204 27.935C84.5804 26.115 84.8304 20.435 86.6904 16.535C88.5504 12.635 90.2904 9.005 94.0404 8.555C97.7904 8.105 98.5104 12.195 100.21 12.195C101.91 12.195 102.63 8.105 106.38 8.555C110.13 9.005 111.87 12.635 113.73 16.535C115.59 20.435 115.83 26.115 118.5 27.935C121.16 29.755 122.61 30.915 123.82 32.525C123.95 32.705 124.1 32.765 124.27 32.735C124.2 32.525 124.13 32.325 124.05 32.125H124.07Z" fill="#BC907D"/>
<path d="M90.7497 58.6764C91.6197 58.0564 90.4997 55.5364 88.8997 52.7564C87.2997 49.9764 85.2797 48.0664 84.7397 48.4364C84.1997 48.8164 87.0897 51.8564 86.8297 52.1764C86.5697 52.4964 84.0897 48.4964 83.5297 48.9664C82.9697 49.4364 86.0597 52.6864 85.7397 53.0064C85.4197 53.3264 83.2797 49.5464 82.7097 50.0064C82.1397 50.4764 85.4797 53.6664 85.2697 54.0564C85.0597 54.4464 82.5697 50.7164 82.1997 51.0864C81.8297 51.4564 82.9397 53.0264 85.3197 55.4264C87.6997 57.8264 89.7497 59.3864 90.7397 58.6764H90.7497Z" fill="#D88E87"/>
<path d="M109.67 59.9083C108.63 59.6783 108.67 56.9183 109.05 53.7383C109.43 50.5483 110.53 47.9983 111.18 48.1383C111.83 48.2783 110.36 52.2083 110.72 52.3983C111.08 52.5883 111.8 47.9383 112.49 48.1483C113.19 48.3583 111.62 52.5683 112.04 52.7283C112.46 52.8983 112.94 48.5783 113.65 48.7783C114.36 48.9783 112.54 53.2383 112.89 53.5083C113.24 53.7883 114.06 49.3783 114.55 49.5683C115.04 49.7683 114.63 51.6483 113.39 54.7783C112.14 57.9183 110.87 60.1583 109.68 59.8983L109.67 59.9083Z" fill="#D88E87"/>
<path d="M101.81 24.3937C101.06 23.7037 99.8396 25.3737 99.8396 25.3737C99.8396 25.3737 98.6196 23.7037 97.8696 24.3937C97.1796 25.0337 98.5796 26.4237 99.5896 26.6437C99.5896 26.6437 99.5896 26.6637 99.5896 26.6737V29.8737C99.5896 30.0137 99.6996 30.1337 99.8496 30.1337C99.9996 30.1337 100.11 30.0237 100.11 29.8737V26.6737C100.11 26.6737 100.11 26.6537 100.11 26.6437C101.12 26.4237 102.52 25.0337 101.83 24.3937H101.81Z" fill="#D88E87"/>
<path d="M201.79 16.4859C206.95 21.6159 198.57 27.9259 193.46 28.1159C192.07 28.1659 190.54 27.8659 189.69 26.7659C188.94 25.7859 188.93 24.4159 189.23 23.2159C190.05 19.9759 192.79 17.5459 195.73 15.9559C196.68 15.4459 197.7 14.9859 198.78 15.0259C199.92 15.0659 200.98 15.6859 201.79 16.4859Z" fill="#DCD5C9"/>
<path d="M183.87 72.9081C186.37 68.3181 188.67 78.7481 189.37 80.3181C187.83 80.0881 186.52 78.8181 186.17 77.2781C184.54 79.5181 182.37 81.3681 179.9 82.6281C180.09 80.4781 181.25 78.4381 183 77.1781C181.91 79.0081 180.09 80.3981 178.04 80.9681C178.98 79.3481 180.38 78.0081 182.03 77.1281C180.55 77.6281 179.08 78.1281 177.6 78.6281C177.34 77.5681 178.4 76.6281 179.43 76.2781C180.47 75.9281 181.64 75.8381 182.47 75.1181C183.13 74.5481 183.44 73.6781 183.86 72.9081H183.87Z" fill="#DD9B8D"/>
<path d="M169.4 69.3143C171.9 64.7243 174.2 75.1543 174.9 76.7243C173.36 76.4943 172.05 75.2243 171.7 73.6843C170.07 75.9243 167.9 77.7743 165.43 79.0343C165.62 76.8843 166.78 74.8443 168.53 73.5843C167.44 75.4143 165.62 76.8043 163.57 77.3743C164.51 75.7543 165.91 74.4143 167.56 73.5343C166.08 74.0343 164.61 74.5343 163.13 75.0343C162.87 73.9743 163.93 73.0343 164.96 72.6843C166 72.3343 167.17 72.2443 168 71.5243C168.66 70.9543 168.97 70.0843 169.39 69.3143H169.4Z" fill="#DD9B8D"/>
<path d="M221.34 74.7877C220.77 72.9577 225.93 68.8277 224.34 67.7177C222.44 66.3977 219.26 71.0777 217.92 71.7577C216.63 72.4177 215.2 72.7977 213.91 73.4577C212.61 74.1177 211.4 75.1377 211.01 76.5377C212.87 76.2377 214.65 75.4877 216.16 74.3577C215.55 75.5477 214.95 76.7377 214.34 77.9277C216.13 76.7577 217.83 75.4377 219.41 73.9777C219.35 74.5477 219.29 75.1377 219.43 75.6977C219.57 76.2577 219.94 76.7977 220.5 76.9677C221.05 77.1377 221.75 76.7977 221.83 76.2177C221.9 75.7077 221.51 75.2678 221.36 74.7778L221.34 74.7877Z" fill="#DD9B8D"/>
<path d="M251.13 56.8575C253.55 57.1575 255.94 57.5575 258.23 58.3775C261.23 59.4375 264.16 61.3775 265.79 64.1875C268.23 68.4175 265.33 72.0575 261.53 73.9975C259.66 74.9475 257.86 75.2475 255.85 75.5975C255.33 75.6875 248.65 76.1375 248.87 75.7675C249.87 74.0875 251.58 74.2875 253.22 73.9675C255.15 73.5975 257.15 72.7875 258.91 71.9375C260.97 70.9375 263.18 69.1975 262.93 66.9275C262.8 65.7575 262 64.7475 261.03 64.0875C256.79 61.1875 249.98 60.4775 245.03 59.6075C239.23 58.5875 233.37 57.9875 227.5 57.5275C225.29 57.3575 223.8 58.0575 222.54 55.7675C221.99 54.7575 221.83 52.5275 222.77 51.6375C223.83 50.6375 225.16 51.6575 226.51 52.0475C231.99 53.6175 237.6 54.7675 243.2 55.8275C245.8 56.3175 248.48 56.5275 251.13 56.8575Z" fill="#DD9B8D"/>
<path d="M171.04 72.0505C174.72 72.0305 171.97 65.6105 176.98 66.7905C179.83 67.4605 181.98 68.9905 182.89 71.5805C183.57 73.5005 183.02 75.7705 186.12 75.1205C187.51 74.8305 188.56 73.7305 189.49 72.6605C194.02 67.4505 202.3 69.6105 208.43 70.1405C215.72 70.7805 225.16 71.0205 230.02 65.4105C231.12 64.1405 231.98 62.5705 232.53 60.6405C233.69 56.6005 232.99 52.2105 231.42 48.3105C228.08 40.0805 221.67 32.5005 213.12 29.4805C207.21 27.3905 201.51 29.2005 195.63 27.9305C189.82 26.6805 182.81 26.0705 177.75 29.8205C174.14 32.4905 172.27 36.8805 170.92 41.1705C169.34 46.2305 168.82 51.8905 168.23 57.1305C167.83 60.6705 167.19 64.5805 167.56 68.1405C167.74 69.8505 169.41 72.0605 171.02 72.0505H171.04Z" fill="#ECE5DF"/>
<path d="M230.02 65.3984C225.16 71.0184 215.72 70.7784 208.43 70.1384C203.5 69.7084 198.35 69.1384 193.51 69.7984C194.25 66.9684 199.5 66.2084 201.79 66.2584C206.08 66.3484 210.22 67.8984 214.51 68.0584C220.45 68.2884 226.43 65.6584 230.29 61.1484C230.63 62.5884 230.5 64.0384 230.03 65.3984H230.02Z" fill="#DCD5C9"/>
<path d="M178.45 22.05C177.06 19.51 175.62 17.01 173.9 14.67C172.33 12.54 169.85 11.44 167.43 10.36C166.94 10.14 166.44 9.92998 165.91 9.92998C163.1 9.89998 166.38 12.22 166.96 12.92C168.73 15.04 170.56 17.3 171.04 20.02C171.3 21.51 171.24 23.27 172.42 24.21C173.37 24.97 174.81 24.81 175.84 24.18C176.88 23.54 177.6 22.52 178.3 21.53" fill="#DCD5C9"/>
<path d="M173.88 24.2346C173.88 24.2346 173.84 24.3046 173.81 24.3446C172.29 23.2846 170.079 22.0846 170.389 25.2146C170.469 25.9846 170.289 27.0046 169.529 27.1046C169.169 27.1546 168.839 26.9546 168.529 26.7646C164.679 24.3846 160.16 21.6346 160.43 16.3746C160.55 14.0646 162.44 10.5046 165.06 10.2546C167.6 10.0146 170.839 13.3046 172.099 15.1746C173.509 17.2646 175.26 21.8246 173.87 24.2346H173.88Z" fill="#DD9B8D"/>
<path d="M165.52 37.0201C166.09 44.4201 168.6 52.1901 169.66 58.7901C175.53 56.2601 183.36 54.3401 188.14 49.9701C192.38 46.0901 194.89 40.7301 198.2 36.1201C198.5 35.7001 198.81 35.2501 198.86 34.7401C198.91 34.2301 198.69 33.7501 198.48 33.2801C197.14 30.3801 196.34 27.2301 194.29 24.7901C192 22.0601 188.82 20.6701 185.56 19.4301C183.9 18.8001 182.19 18.1601 180.41 18.1801C178.47 18.2001 176.63 19.0001 174.86 19.7801C172.22 20.9401 169.04 21.6301 167.48 24.1101C165.56 28.0301 165.18 32.4501 165.53 37.0101L165.52 37.0201Z" fill="#ECE5DF"/>
<path d="M189.76 23.5474C190.37 23.4574 191.449 22.1874 192.719 23.0774C193.349 23.5174 193.139 24.4774 192.919 25.2174C191.959 28.3574 196.93 26.8874 198.57 26.1074C201.52 24.7174 203.379 20.6074 203.089 17.4874C202.559 11.8574 196.59 9.47739 192.63 13.6074C190.75 15.5674 189.239 19.2474 189.229 21.9574C189.229 23.2574 189.419 23.5874 189.769 23.5374L189.76 23.5474Z" fill="#DD9B8D"/>
<path d="M171.789 30.7835C172.579 32.4635 171.899 35.4835 170.539 35.5835C168.979 35.6935 168.309 31.9835 169.579 30.4235C170.259 29.5935 171.289 29.7235 171.789 30.7835Z" fill="#5D5D5D"/>
<path d="M186.2 30.7835C186.99 32.4635 186.31 35.4835 184.95 35.5835C183.39 35.6935 182.72 31.9835 183.99 30.4235C184.67 29.5935 185.7 29.7235 186.2 30.7835Z" fill="#5D5D5D"/>
<path d="M171.86 37.1174C172.55 38.4974 173.46 39.6374 175.07 39.3274C175.63 39.2174 177.58 37.1874 176.98 37.1374C175.3 36.9874 173.56 37.1074 171.86 37.1174Z" fill="#DD9B8D"/>
<path d="M198.27 28.8397C198.46 28.6497 198.65 28.4597 198.84 28.2697C198 28.1597 197.16 28.0397 196.32 27.9297C197.77 32.2297 196.98 37.0297 195.11 41.1597C193.24 45.2897 190.38 48.8797 187.55 52.4297C195.23 50.4297 206.34 36.3497 198.74 28.8997" fill="#DCD5C9"/>
<path d="M171.439 68.585C171.719 68.755 172.049 68.965 172.419 69.185C172.549 68.505 172.779 67.855 173.199 67.305C174.569 65.505 177.489 65.615 179.339 66.925C181.109 68.185 182.079 69.735 182.419 71.565C182.199 70.405 183.999 68.515 183.729 66.905C183.539 65.735 182.989 64.655 182.449 63.595C181.589 61.905 180.719 60.225 179.859 58.535C179.519 57.865 179.159 57.185 178.569 56.715C177.979 56.245 177.099 56.075 176.489 56.505C175.999 56.855 175.809 57.485 175.649 58.065C175.449 58.785 172.089 69.035 171.439 68.575V68.585Z" fill="#DCD5C9"/>
<path d="M167.33 41.6172C168.44 46.4172 172.98 50.1972 177.89 50.4172C176.12 50.0772 174.31 50.4972 172.52 50.5872C170.73 50.6872 168.72 50.3572 167.6 48.9472C166.33 47.3472 166.7 45.0372 167.13 43.0372" fill="#DCD5C9"/>
</svg>
