<svg width="1440" height="128" viewBox="0 0 1440 128" fill="none" xmlns="http://www.w3.org/2000/svg">
<rect width="1440" height="128" fill="#ABC592"/>
<path d="M585.24 41.64V39.16H578.16V33.92H585.24V30.76H591V33.92H598.72V39.16H591V41.64H597.16V47H579.48V41.64H585.24ZM577.12 50.2L577.72 55.56C576.56 55.88 575.36 56.16 574.16 56.48V68.8H568.68V57.84L563.8 59.04L562.4 53.12C564.16 52.84 566.32 52.44 568.68 51.96V43.88H566.96C566.6 45.72 566.2 47.4 565.72 48.76C564.8 48.24 562.76 47.52 561.68 47.2C562.92 44 563.6 38.8 563.88 34L568.16 34.64C568.08 35.88 567.96 37.12 567.8 38.36H568.68V30.8H574.16V38.36H577.28V43.88H574.16V50.84L577.12 50.2ZM599.6 49.96V55.28H596.2V62.52C596.2 65.28 595.72 66.8 593.88 67.68C592.12 68.56 589.76 68.68 586.76 68.68C586.56 67 585.76 64.56 585.04 62.96C586.76 63.04 589 63.04 589.64 63.04C590.24 63.04 590.44 62.92 590.44 62.4V55.28H584.44C586 56.96 587.76 59.08 588.6 60.6L584.04 63.6C583.24 61.92 581.28 59.32 579.68 57.44L583.12 55.28H578.16V49.96H590.44V47.68H596.2V49.96H599.6ZM611.84 37.88V39.96H606.64V33.24H621.32C621.12 32.56 620.88 31.88 620.68 31.28L626.96 30.44C627.4 31.24 627.76 32.36 628 33.24H641.84V39.96H636.4V37.88H611.84ZM612.68 58.08V58.2C612.68 59.2 612.64 60.28 612.56 61.4C613.8 61.12 615.28 60.72 616.84 60.28C615.88 59.68 614.08 58.72 612.68 58.08ZM618.6 57.44L616.84 60.28C617.4 60.12 618 59.96 618.6 59.8V57.44ZM618.6 55.24H612.68V57.68L614.24 55.36C615.64 55.92 617.56 56.72 618.6 57.32V55.24ZM623.8 51.92V64.52C623.8 66.6 623.4 67.6 622.04 68.24C620.68 68.84 618.88 68.88 616.6 68.84C616.4 67.64 615.8 66.04 615.24 64.96C616.28 65.04 617.64 65.04 618 65.04C618.44 65 618.6 64.88 618.6 64.48V62.92C616.68 63.84 614.92 64.68 613.16 65.48L612.32 63.2C612 65.4 611.32 67.52 610.12 69.12C609.32 68.36 607.32 67 606.32 66.52C608.12 64.04 608.24 60.76 608.24 58.12V51.92H623.8ZM632.6 64.4H637.16C638.08 64.4 638.48 64.2 638.72 63.32H630.72C630.8 64.24 631.2 64.4 632.6 64.4ZM617.88 44.52H613.52C613.84 45.24 614.08 46.04 614.24 46.76H617.24C617.48 46.04 617.72 45.2 617.88 44.52ZM622.92 44.92L622.12 46.76H625V50.8H606.08V46.76H609.44C609.32 46.12 609.12 45.44 608.92 44.88L611.04 44.52H606.8V40.72H613.88C613.76 40.16 613.56 39.6 613.4 39.12L618.16 38.56C618.44 39.16 618.72 40 618.92 40.72H624.64V44.52H620.88L622.92 44.92ZM640.64 60.56V62.72C641.56 63.08 642.6 63.4 643.44 63.56C642.92 67.48 641.48 68.64 637.72 68.64H631.84C626.88 68.64 625.4 67.36 625.4 62.84V49.36H635.76V48.36H625.4V38.76H630.68V40.72H641.44V44.24H630.68V45.08H641.12V52.64H630.68V53.44H640.08V56.2H630.68V57H639.92V59.76H630.68V60.56H640.64ZM661.2 35.24L657.76 39.92C656.2 38.76 652.76 36.84 650.56 35.52L653.84 31.32C655.96 32.4 659.48 34.16 661.2 35.24ZM659.44 46.12L656.2 50.96C654.56 49.8 651 47.88 648.64 46.64L651.76 42.32C653.96 43.32 657.64 45.04 659.44 46.12ZM653.96 68.36L649.04 64.44C651.16 61.48 654.2 56.64 656.64 51.96L660.92 55.84C658.8 60.04 656.4 64.36 653.96 68.36ZM679.12 61.92V57.44H668.36V61.92H679.12ZM686.32 47.96H676.56V52.2H684.64V68.6H679.12V67.16H668.36V68.76H663.08V52.2H671.04V47.96H660.8V42.4H671.04V38.72C668.6 39.08 666.16 39.36 663.8 39.56C663.56 38.16 662.8 35.88 662.16 34.6C668.88 33.96 676.08 32.6 680.52 30.72L684.92 35.28C682.4 36.28 679.56 37.08 676.56 37.72V42.4H686.32V47.96ZM704.64 60.56V61.92L711 61.44C711.2 61.16 711.4 60.88 711.6 60.56H704.64ZM697.4 51.96H699.4V50.76H697.4V51.96ZM706.6 51.96V50.76H704.64V51.96H706.6ZM697.4 46.28V47.48H699.4V46.28H697.4ZM706.6 46.28H704.64V47.48H706.6V46.28ZM720.84 39.68H728.76C728.76 39.68 728.72 41.48 728.72 42.16C728.4 58.36 728.12 64.36 726.84 66.24C725.84 67.76 724.84 68.24 723.44 68.56C722.16 68.84 720.32 68.84 718.4 68.8C718.28 67.2 717.64 64.84 716.72 63.28C718.32 63.44 719.68 63.44 720.48 63.44C721.08 63.44 721.44 63.28 721.84 62.72C722.6 61.68 722.92 57 723.12 45H720.68C720.12 55.8 718.32 63.84 711.76 69.16C711.24 68.24 710.2 67 709.2 66C703.12 66.6 696.88 67.16 692.2 67.56L691.56 62.76C693.76 62.64 696.44 62.48 699.4 62.28V60.56H692.68V56.52H699.4V55.48H692.84V42.76H699.4V41.76H691.88V37.64H699.4V36.68C697.24 36.8 695.08 36.88 693.04 36.92C692.88 35.76 692.32 33.96 691.8 32.84C697.8 32.56 704.56 31.88 709.12 30.92L711.56 35.2C709.48 35.64 707.12 35.96 704.64 36.24V37.64H711.88V41.76H704.64V42.76H711.36V55.48H704.64V56.52H711.6V60.56C714.12 56.56 714.92 51.44 715.2 45H712.04V39.68H715.32V31.56H720.88C720.88 34.4 720.88 37.12 720.84 39.68ZM757.04 46.48L760 44C764.04 47.16 770.24 51.84 773.12 55.08L768.12 59.56C765.88 56.72 761.04 52.48 757.04 49.12V68.72H750.64V50.64C747.24 54.16 743.28 57.24 738.88 59.52C737.96 57.96 736.12 55.52 734.88 54.2C741.88 51 747.76 45.2 751.36 39.36H736.28V33.4H771.4V39.36H759.08C758.44 40.48 757.76 41.6 757.04 42.68V46.48ZM808.56 54.68H801.52V56.52H808.56V54.68ZM801.52 62.88H808.56V61.04H801.52V62.88ZM796.44 68.76V49.96H813.92V68.76H808.56V67.44H801.52V68.76H796.44ZM803.16 40.12V43.08H806.28V40.12H803.16ZM784.28 40.84H790.76C789.52 39.84 788 38.8 786.48 37.92C785.8 38.92 785.04 39.92 784.28 40.84ZM791.28 60.6L788.76 59.84V61.04L791.28 60.6ZM811.44 43.08H815.76V48.24H793.96V43.08H798.12V40.12H794.76V38.6L792.84 42.64C792.56 42.36 792.24 42.04 791.88 41.76V45.64H788.76V47.76H793.24V52.64H788.76V59.68C789.2 57.88 789.72 55.28 789.88 53.4L793.92 54.4C793.2 56.56 792.56 58.88 792.04 60.48L793.28 60.28L793.6 64.8C788.76 65.88 783.6 66.92 779.6 67.76L778.56 62.56C780.12 62.36 782 62.08 784.08 61.76V52.64H779.16V47.76H784.08V45.64H781.52V43.84C780.88 44.44 780.24 45 779.6 45.52C779.32 44.24 778.32 40.96 777.68 39.52C780.6 37.44 783.72 34.04 785.52 30.52L789.72 32.48C789.52 32.92 789.28 33.32 789.04 33.76C791.28 34.96 793.4 36.36 794.76 37.52V35.08H798.12V30.8H803.16V35.08H806.28V30.8H811.44V35.08H814.88V40.12H811.44V43.08ZM779.2 54.68L782.64 53.72C783.28 55.8 783.84 58.52 784.04 60.28L780.36 61.4C780.24 59.56 779.72 56.8 779.2 54.68ZM831.92 36.8L827.4 39.92C826.4 38.2 824.2 35.4 822.48 33.4L826.84 30.8C828.68 32.68 830.8 35.16 831.92 36.8ZM841.56 36.08V44.12H842.96V38.04H849.16V36.08H841.56ZM849.16 44.12V41.56H847.08V44.12H849.16ZM846.6 55.08V53.16H844.2V55.08H846.6ZM838.8 61.68H834.24C836.56 62.92 839.72 63.12 843.68 63.16C848 63.16 855 62.88 859.8 62.4C859 63.56 858.24 66.16 857.96 67.72C853.56 68 848.4 68.12 843.56 68.12C836.64 68.12 832.2 67.36 829.2 63.52C827.92 65.84 826.36 67.64 824.6 68.96C823.84 67.84 821.96 65.88 820.84 65.12C824.08 62.92 826.24 59.2 827.4 54.2H825.16C824.24 54.2 823 54.48 822.64 54.84C822.36 53.68 821.36 51.28 820.88 50.28C821.56 50.12 822.24 49.8 823.04 48.96C823.64 48.36 825 46.6 826.28 44.76H821.8V40.2H829.88L830.36 40L833.8 41.52C832.36 43.68 830.04 47.12 828.04 49.76H829.76L830.64 49.64L833 50.6C832.64 53.64 832.04 56.36 831.24 58.72C831.92 59.92 832.76 60.8 833.8 61.44V44.12H836.56V31.88H854.36V44.12H857.36V56.96C857.36 59.12 857.04 60.32 855.68 61.08C854.36 61.8 852.68 61.84 850.6 61.84C850.48 60.88 850.16 59.68 849.8 58.64H844.2V59.64H840.12V49.56H850.72V57.4H851.6C852 57.4 852.12 57.28 852.12 56.92V48.44H838.8V61.68ZM869.04 54.2L868 40.68L867.76 34.32H874.92L874.68 40.68L873.64 54.2H869.04ZM871.32 65.56C868.88 65.56 867.12 63.6 867.12 61.12C867.12 58.64 868.88 56.72 871.32 56.72C873.8 56.72 875.56 58.64 875.56 61.12C875.56 63.6 873.8 65.56 871.32 65.56Z" fill="#FEFDFD"/>
<path d="M466.84 94.38V95.3H477.34V94.38H466.84ZM466.84 92.58V93.48H477.34V92.58H466.84ZM479.8 97.16V99.78C479.8 100.46 479.64 100.8 479.06 101C478.46 101.18 477.5 101.18 476.06 101.18C475.96 100.8 475.76 100.38 475.56 100.06C476.72 100.1 477.68 100.1 477.98 100.08C478.28 100.06 478.36 100 478.36 99.76V98.28H472.72V101.52H471.26V98.28H466.02V101.2H464.6V97.16H471.26V96.2H465.52V91.68H471.16C471.34 91.3 471.54 90.82 471.66 90.46C468.62 90.74 465.52 91.02 463.34 91.22L463.22 90.2C464.26 90.14 465.56 90.04 466.98 89.92V88.82H463.76V87.96H466.98V87.02H463.34V86.14H466.98V85.2H464.06V84.34H466.98V83.28H468.38V84.34H471.44V85.2H468.38V86.14H472.04V87.02H468.38V87.96H471.68V88.82H468.38V89.82L472.12 89.52L472.1 90.36L473.12 90.6C472.9 90.98 472.7 91.36 472.5 91.68H478.7V96.2H472.72V97.16H479.8ZM476 88.86L474.96 89.48C474.62 88.8 473.84 87.78 473.1 87.08L474.1 86.54C474.82 87.22 475.64 88.18 476 88.86ZM478.74 85.06H480.9V86.2H478.74V89.7C478.74 90.4 478.58 90.68 478.08 90.88C477.56 91.08 476.78 91.08 475.54 91.08C475.44 90.74 475.24 90.3 475.04 89.98C475.96 90 476.78 90 477.04 89.98C477.3 89.98 477.38 89.9 477.38 89.68V86.2H472.18V85.06H477.38V83.3H478.74V85.06ZM488.94 83.34L490.34 83.76C489.76 85.24 489.06 86.68 488.28 88.04V101.48H486.86V90.26C486.22 91.18 485.52 92 484.84 92.74C484.68 92.38 484.28 91.62 484 91.28C485.96 89.36 487.82 86.38 488.94 83.34ZM492.58 91.78L494.04 92.06C493.4 94.68 492.34 97.2 491.12 98.86C490.84 98.62 490.2 98.24 489.84 98.04C491.1 96.52 492.04 94.14 492.58 91.78ZM501.04 88.48H497.28V99.72C497.28 100.56 497.1 101 496.58 101.24C496.04 101.5 495.2 101.54 493.94 101.54C493.86 101.12 493.62 100.46 493.42 100.04C494.36 100.08 495.22 100.06 495.48 100.06C495.74 100.06 495.82 99.98 495.82 99.72V88.48H492.78C492.22 89.8 491.56 90.98 490.84 91.92C490.6 91.7 489.98 91.2 489.66 90.98C491.12 89.14 492.28 86.28 492.94 83.36L494.4 83.68C494.1 84.84 493.74 86 493.34 87.1H501.44L501.68 87.04L502.7 87.28C502.44 88.74 502.08 90.46 501.82 91.52L500.58 91.28C500.7 90.56 500.88 89.5 501.04 88.48ZM498.74 92.06L500.04 91.62C501.18 93.74 502.2 96.48 502.54 98.3L501.12 98.78C500.8 96.96 499.8 94.16 498.74 92.06ZM523.18 84.74V92.48H519.04V91.2H521.88V89.2H519.18V87.96H521.88V86H519.04V84.74H523.18ZM516.18 91.18V92.46H512.18V85.26C513.12 84.92 514.54 84.28 515.34 83.84L516.26 84.9C515.38 85.32 514.38 85.66 513.5 85.92V87.96H516.06V89.2H513.5V91.18H516.18ZM511.76 93.2L509.86 93.92V99.62C509.86 100.42 509.66 100.82 509.2 101.06C508.72 101.32 507.98 101.36 506.8 101.36C506.76 100.96 506.58 100.36 506.38 99.96C507.18 99.98 507.92 99.98 508.14 99.98C508.38 99.96 508.48 99.9 508.48 99.64V94.46C507.76 94.72 507.08 94.98 506.46 95.22L506.04 93.8C506.72 93.58 507.56 93.3 508.48 92.96V88.66H506.26V87.28H508.48V83.3H509.86V87.28H511.56V88.66H509.86V92.46L511.5 91.84L511.76 93.2ZM520.84 95.24H514.78C515.54 96.28 516.56 97.2 517.84 97.96C519.06 97.24 520.1 96.34 520.84 95.24ZM522 93.88L522.92 94.34C522.1 96.16 520.8 97.6 519.22 98.68C520.76 99.42 522.54 99.92 524.46 100.22C524.12 100.54 523.72 101.14 523.52 101.54C521.42 101.14 519.48 100.48 517.8 99.52C515.92 100.52 513.76 101.16 511.52 101.56C511.4 101.16 511.08 100.58 510.84 100.24C512.82 99.96 514.76 99.46 516.46 98.66C515.2 97.76 514.14 96.68 513.36 95.44L513.92 95.24H511.96V93.94H516.88V83.3H518.3V93.94H521.74L522 93.88ZM536.6 87.94V86.6H531.76V87.94H536.6ZM536.6 90.32V89H531.76V90.32H536.6ZM536.6 92.76V91.38H531.76V92.76H536.6ZM530.3 94.56V88.22C529.78 88.78 529.18 89.32 528.56 89.84C528.32 89.52 527.84 89.08 527.5 88.88C529.68 87.22 531.28 84.98 532.14 83.24L533.66 83.52C533.32 84.12 532.96 84.78 532.52 85.4H536.96C536.72 84.82 536.38 84.14 536.06 83.6L537.42 83.18C537.86 83.88 538.34 84.76 538.58 85.4H544.46V86.6H538.04V87.94H543.66V89H538.04V90.32H543.72V91.38H538.04V92.76H545.12V93.96H531.76V94.56H530.3ZM533.5 97.7L534.64 98.26C533.24 99.36 530.66 100.42 528.62 100.9C528.42 100.54 528 100.04 527.7 99.76C529.74 99.38 532.22 98.6 533.5 97.7ZM538.66 98.52L539.48 97.58C541.42 98.16 544.08 99.06 545.48 99.66L544.66 100.76C543.32 100.16 540.64 99.18 538.66 98.52ZM537.48 95.5H545.68V96.72H537.48V101.52H536.02V96.72H527.94V95.5H536.02V94.14H537.48V95.5ZM555.08 88.96L552.4 89.12C552.08 90.74 551.7 92.34 551.36 93.64C552.12 94.22 552.92 94.84 553.68 95.5C554.78 93.22 555.04 90.9 555.08 88.96ZM557.64 88.8L556.5 88.88C556.44 91.12 556.14 93.82 554.82 96.46C555.82 97.34 556.74 98.18 557.34 98.88L556.36 100.12C555.8 99.44 554.98 98.62 554.06 97.76C553.18 99.1 551.96 100.4 550.34 101.58C550.12 101.26 549.6 100.78 549.3 100.56C550.94 99.4 552.12 98.1 552.96 96.78C551.9 95.84 550.76 94.92 549.74 94.14C550.14 92.84 550.56 91.06 550.96 89.2L549.38 89.28L549.22 87.86C549.8 87.84 550.48 87.8 551.22 87.78C551.5 86.26 551.72 84.68 551.86 83.32L553.32 83.4C553.16 84.74 552.92 86.24 552.66 87.72L555.1 87.58V86.12H556.5V87.5L557.66 87.44L557.64 88.8ZM567.52 91.7V93.12H563.12V99.76C563.12 100.64 562.9 101.06 562.28 101.3C561.66 101.52 560.7 101.56 559.14 101.54C559.06 101.12 558.82 100.54 558.6 100.12C559.78 100.16 560.88 100.16 561.18 100.14C561.5 100.14 561.62 100.04 561.62 99.76V93.12H557V91.7H561.62V89.42C562.64 88.58 563.72 87.28 564.54 86.12H557.88V84.74H565.56L565.9 84.66L566.92 85.4C565.94 86.88 564.52 88.56 563.12 89.78V91.7H567.52ZM576.4 88.42H574.84C574.56 90.1 573.78 91.1 571.6 91.68C571.5 91.38 571.18 90.94 570.94 90.76C572.74 90.34 573.4 89.66 573.6 88.42H571.3V87.3H574.96V85.82H572.06V84.72H574.96V83.36H576.32V84.72H579.28V85.82H576.32V87.3H579.94V88.42H577.54V89.44C577.54 89.86 577.56 90 577.84 90H579.04C579.28 90 579.7 89.96 579.92 89.9C579.94 90.2 579.98 90.58 580 90.86C579.82 90.94 579.42 90.96 579.06 90.96H577.66C576.62 90.96 576.4 90.52 576.4 89.42V88.42ZM572.44 101.56L571.06 100.96C572.04 100.18 572.98 98.8 573.52 97.5L574.9 97.86C574.36 99.2 573.44 100.66 572.44 101.56ZM576.86 97.98L578.24 97.86C578.5 98.94 578.7 100.34 578.72 101.16L577.26 101.36C577.24 100.5 577.1 99.08 576.86 97.98ZM580.94 97.96L582.32 97.7C582.82 98.76 583.32 100.16 583.5 101.02L582.04 101.34C581.88 100.46 581.42 99.04 580.94 97.96ZM585.06 97.88L586.44 97.44C587.4 98.52 588.5 100.02 589 101.02L587.54 101.56C587.06 100.58 586 99.02 585.06 97.88ZM587.46 95.46H587.82C587.96 95.46 588.06 95.42 588.14 95.34C588.22 95.26 588.26 95.06 588.3 94.7C588.34 94.3 588.36 93.42 588.36 92.28C588.62 92.54 589.02 92.74 589.38 92.84C589.36 93.88 589.28 95.12 589.2 95.54C589.12 96 588.96 96.26 588.74 96.42C588.52 96.6 588.2 96.68 587.88 96.68H587.1C586.74 96.68 586.38 96.56 586.1 96.3C585.84 96.06 585.74 95.74 585.74 94.38V87.44H583.82C583.76 88.72 583.64 89.9 583.44 90.94C584.26 91.54 585 92.1 585.5 92.52L584.8 93.76C584.38 93.38 583.8 92.88 583.14 92.38C582.6 94.32 581.72 95.88 580.22 97.04C580.02 96.72 579.58 96.26 579.26 96.06L579.44 95.92C576.46 96.22 573.4 96.56 571.24 96.78L571.1 95.5C572.16 95.42 573.48 95.3 574.96 95.16V93.34H571.78V92.2H574.96V90.76H576.32V92.2H579.44V93.34H576.32V95.02C577.5 94.94 578.72 94.8 579.9 94.68L579.92 95.48C580.98 94.44 581.6 93.12 581.98 91.5C581.34 91.02 580.7 90.56 580.14 90.16L580.8 89.1C581.24 89.4 581.74 89.74 582.24 90.1C582.36 89.28 582.44 88.38 582.48 87.44H580.32V86.1H582.54C582.56 85.2 582.58 84.26 582.58 83.26H583.94C583.92 84.26 583.92 85.2 583.88 86.1H587.1V94.46C587.1 94.96 587.12 95.28 587.18 95.38C587.24 95.44 587.34 95.46 587.46 95.46ZM599.2 85.46H594.96V87.2H599.2V85.46ZM594.96 90.26H599.2V88.34H594.96V90.26ZM600.6 84.2V91.5H594.96V101.52H593.5V84.2H600.6ZM603.88 90.28H608.32V88.34H603.88V90.28ZM608.32 85.46H603.88V87.2H608.32V85.46ZM609.82 84.2V99.48C609.82 100.5 609.56 100.98 608.9 101.22C608.2 101.46 607.02 101.5 605.22 101.5C605.14 101.08 604.9 100.38 604.68 99.96C606.04 100.04 607.4 100.02 607.82 100C608.18 99.98 608.32 99.88 608.32 99.48V91.52H602.46V84.2H609.82ZM619.64 85.58L618.78 86.78C617.96 86.2 616.3 85.24 615.08 84.58L615.9 83.52C617.12 84.1 618.8 85.02 619.64 85.58ZM618.62 90.98L617.78 92.2C616.96 91.64 615.32 90.68 614.1 90.04L614.92 88.96C616.08 89.54 617.74 90.42 618.62 90.98ZM615.82 101.26L614.58 100.26C615.66 98.76 617.2 96.12 618.36 93.86L619.44 94.84C618.4 96.94 617 99.42 615.82 101.26ZM629.54 99.3V95.18H622.44V99.3H629.54ZM632.26 90.52H626.78V93.8H630.96V101.42H629.54V100.68H622.44V101.52H621.06V93.8H625.36V90.52H619.6V89.08H625.36V85.84C623.9 86.06 622.4 86.24 620.98 86.38C620.9 86.02 620.7 85.46 620.56 85.12C624 84.76 628.02 84.14 630.24 83.34L631.4 84.5C630.1 84.94 628.5 85.32 626.78 85.62V89.08H632.26V90.52ZM637.52 93.98H640.04V92.52H637.52V93.98ZM637.52 90.1V91.54H640.04V90.1H637.52ZM644 90.1H641.38V91.54H644V90.1ZM644 93.98V92.52H641.38V93.98H644ZM649.26 87.9H653.5C653.5 87.9 653.48 88.46 653.48 88.66C653.26 97.04 653.08 99.82 652.4 100.66C652.06 101.18 651.66 101.34 651.06 101.4C650.5 101.48 649.56 101.46 648.64 101.4C648.6 101 648.44 100.38 648.22 100C649.18 100.08 650.06 100.1 650.44 100.1C650.78 100.1 650.96 100.04 651.16 99.78C651.62 99.2 651.86 96.56 652.06 89.3H649.2C648.96 94.62 648.04 98.98 644.52 101.62C644.3 101.3 643.78 100.8 643.42 100.56C643.74 100.34 644.02 100.1 644.28 99.86C641.26 100.22 638.16 100.56 635.92 100.8L635.7 99.5C636.9 99.4 638.4 99.26 640.04 99.1V97.38H636.26V96.24H640.04V95.02H636.3V89.08H640.04V87.82H635.72V86.66H640.04V85.34C638.76 85.44 637.46 85.52 636.28 85.56C636.22 85.24 636.08 84.76 635.92 84.46C638.88 84.3 642.48 83.94 644.54 83.48L645.28 84.62C644.2 84.86 642.84 85.04 641.38 85.2V86.66H645.62V87.82H641.38V89.08H645.26V95.02H641.38V96.24H645.3V97.38H641.38V98.96C642.68 98.84 644.04 98.7 645.38 98.54V98.62C647.1 96.26 647.64 93.04 647.82 89.3H645.48V87.9H647.86C647.9 86.5 647.9 85.04 647.9 83.52H649.3C649.3 85.02 649.3 86.5 649.26 87.9ZM672.64 91.3H665.26C666.08 93.46 667.34 95.3 668.98 96.78C670.6 95.38 671.86 93.56 672.64 91.3ZM663.28 85.66V87.46C663.28 88.22 663.26 89.04 663.2 89.9H667.58C667.94 88.66 668.34 87.1 668.66 85.66H663.28ZM673.56 89.82L674.6 90.28C673.76 93.52 672.22 95.94 670.2 97.76C671.72 98.84 673.54 99.64 675.6 100.14C675.26 100.48 674.8 101.1 674.58 101.54C672.4 100.94 670.54 100.02 668.96 98.76C667.1 100.14 664.92 101.06 662.62 101.68C662.44 101.26 662.08 100.62 661.78 100.32C663.94 99.82 666 98.98 667.78 97.72C666.04 96.02 664.74 93.84 663.82 91.3H663.08C662.68 94.54 661.52 98.12 658.28 101.18C658.06 100.78 657.52 100.2 657.2 99.92C661.44 95.98 661.78 91 661.78 87.46V85.66H658.28V84.2H670.54C670.14 86.04 669.62 88.3 669.18 89.9H673.28L673.56 89.82ZM689.96 85.78H687.9C687.46 86.54 686.94 87.24 686.4 87.78C686.16 87.56 685.6 87.18 685.28 87.02C686.32 86.08 687.14 84.68 687.58 83.22L688.92 83.52C688.8 83.9 688.64 84.26 688.5 84.62H695.2L695.44 84.56L696.44 84.9C695.94 85.92 695.3 87.08 694.76 87.78L693.58 87.36C693.88 86.94 694.24 86.36 694.52 85.78H691.34V86.04C691.34 86.24 691.32 86.46 691.28 86.7C692.34 87.9 694.52 88.68 697.14 88.9C696.86 89.18 696.48 89.72 696.3 90.08C694.02 89.76 692.1 88.96 690.86 87.74C690.2 88.72 688.62 89.64 685.1 90.18C684.94 89.86 684.56 89.32 684.3 89.08C689.48 88.38 689.96 87.02 689.96 85.98V85.78ZM683.1 95.96V97.36H693.12V95.96H683.1ZM683.1 93.64V95H693.12V93.64H683.1ZM683.1 91.32V92.68H693.12V91.32H683.1ZM681.66 98.34V90.32H694.6V98.34H681.66ZM684.26 84.46V85.62H679.48V84.46H684.26ZM684.76 87.56V88.76H679.04V87.56H684.76ZM685 98.48L686.34 99.08C684.74 100.04 682.22 100.98 680.24 101.52C679.98 101.22 679.48 100.66 679.14 100.4C681.18 99.98 683.58 99.26 685 98.48ZM689.88 99.26L690.9 98.46C693.04 99.12 695.38 99.98 696.78 100.62L695.48 101.48C694.2 100.84 692.04 99.98 689.88 99.26ZM705.26 85.76L704.14 86.44C703.86 85.72 703.24 84.6 702.74 83.78L703.8 83.18C704.34 84 704.94 85.06 705.26 85.76ZM707.8 86.66V87.88H700.62V86.66H707.8ZM707.04 90.46H701.42V89.28H707.04V90.46ZM705.84 95.78H702.58V99.08H705.84V95.78ZM707.06 94.54V100.32H702.58V101.26H701.4V94.54H707.06ZM701.42 93.06V91.88H707.08V93.06H701.42ZM708 84.4H716.7C716.58 92.48 716.54 99.42 717.66 99.7C717.78 99.74 717.92 98.46 718 97.02C718.24 97.4 718.64 97.9 718.86 98.1C718.64 100.9 718 101.54 717.08 101.16C715.12 100.56 715.18 94.02 715.2 85.82H711.88V91.72H714.52V93.1H711.88V101.5H710.48V93.1H707.78V91.72H710.48V85.82H708V84.4ZM729.56 96.24L729.12 95.18C730.66 94.54 731.54 93.6 731.64 92.24C731.52 92.26 731.42 92.26 731.3 92.26C730.48 92.26 729.8 91.78 729.8 90.84C729.8 89.9 730.5 89.4 731.32 89.4C732.42 89.4 733.02 90.3 733.02 91.7C733.02 93.86 731.66 95.5 729.56 96.24ZM747.5 83.8H753.58C755.44 86.58 758.88 89.26 762.04 90.58C761.74 90.88 761.24 91.5 761.04 91.88C758.02 90.46 754.86 87.88 752.8 85.22C750.74 87.76 747.34 90.52 744.54 92.02C744.36 91.64 743.96 91.14 743.62 90.82C746.1 89.66 749.08 87.4 751.06 85.2H747.5V83.8ZM753.5 96.3V99.62H761.3V100.98H744.4V99.62H751.98V96.3H746.38V94.98H751.98V91.92H747.24V90.58H758.4V91.92H753.5V94.98H759.18V96.3H753.5ZM779.2 94.58H769.54V99H779.2V94.58ZM768.04 101.52V93.16H780.76V101.48H779.2V100.44H769.54V101.52H768.04ZM776.36 86.3L777.54 85.54C779.48 87.24 781.78 89.68 782.82 91.34L781.56 92.24C781.26 91.72 780.84 91.14 780.34 90.52C768.92 91.16 767.76 91.2 766.98 91.48C766.92 91.16 766.66 90.42 766.5 90.02C766.94 89.94 767.46 89.5 768.12 88.84C768.84 88.2 771.16 85.68 772.72 83.2L774.18 83.86C772.6 86.02 770.82 88.08 769.06 89.74L779.26 89.24C778.34 88.2 777.32 87.16 776.36 86.3ZM798.8 89.32V86.8H794.6V85.42H798.8V83.28H800.26V85.42H804.58V86.8H800.26V89.32H804V90.72H795.44V89.32H798.8ZM793.84 92.98L794 94.34L791.84 94.94V101.52H790.4V95.3C789.34 95.6 788.3 95.86 787.4 96.08L787 94.6C787.94 94.4 789.12 94.12 790.4 93.84V88.78H788.7C788.46 89.98 788.14 91.06 787.78 91.92C787.54 91.78 786.98 91.56 786.66 91.46C787.44 89.78 787.88 87.2 788.12 84.74L789.3 84.92C789.2 85.74 789.1 86.56 788.96 87.36H790.4V83.28H791.84V87.36H793.84V88.78H791.84V93.48L793.84 92.98ZM795.62 95.78L796.76 95.1C797.68 96.06 798.8 97.4 799.32 98.28L798.12 99.02C797.62 98.16 796.54 96.78 795.62 95.78ZM805 93.14V94.52H802.7V99.68C802.7 100.54 802.52 100.96 801.92 101.18C801.3 101.44 800.34 101.46 798.92 101.46C798.84 101.04 798.62 100.42 798.42 100C799.54 100.04 800.54 100.04 800.86 100.02C801.16 100 801.24 99.94 801.24 99.66V94.52H794.36V93.14H801.24V91.26H802.7V93.14H805ZM810.46 85.9V87.6H809.1V84.66H817.1C816.9 84.24 816.62 83.78 816.38 83.4L817.88 83.14C818.24 83.58 818.56 84.18 818.78 84.66H826.14V87.6H824.72V85.9H810.46ZM816.94 93.12V100.14C816.94 100.82 816.8 101.12 816.32 101.32C815.86 101.5 815.1 101.52 814 101.5C813.94 101.16 813.76 100.72 813.6 100.4C814.38 100.44 815.08 100.44 815.28 100.42C815.52 100.4 815.58 100.34 815.58 100.14V98.12C814.14 98.66 812.72 99.16 811.54 99.58L811.06 98.52C812.26 98.24 813.9 97.74 815.58 97.22V94.1H811.16V96.4C811.16 98.02 810.96 100.2 809.94 101.74C809.72 101.5 809.24 101.12 808.94 100.96C809.84 99.6 809.94 97.78 809.94 96.38V93.12H816.94ZM811.52 95.68L811.94 94.88C813 95.16 814.36 95.58 815.12 95.88L814.68 96.74C813.94 96.44 812.56 95.96 811.52 95.68ZM815.06 89.14H811.68C811.96 89.74 812.22 90.5 812.32 91H814.36C814.6 90.44 814.9 89.68 815.06 89.14ZM815.62 89.14L816.38 89.34C816.14 89.9 815.88 90.5 815.64 91H818.08V92.14H808.74V91H811C810.9 90.48 810.66 89.8 810.44 89.26L811.08 89.14H809.16V88.04H813.06C812.86 87.62 812.64 87.2 812.4 86.84L813.62 86.6C813.92 87.02 814.24 87.58 814.44 88.04H817.74V89.14H815.62ZM821.32 100.28H824.66C825.3 100.28 825.44 100.08 825.52 98.98H820.22V99.56C820.22 100.14 820.38 100.28 821.32 100.28ZM825.82 98.98C826.1 99.12 826.46 99.24 826.76 99.32C826.6 100.96 826.2 101.44 824.78 101.44H821.2C819.4 101.44 818.86 101.08 818.86 99.58V92.48H824.34V91.2H818.86V86.84H820.22V88.12H825.94V89.14H820.22V90.22H825.72V93.46H820.22V94.42H825.3V95.3H820.22V96.26H825.2V97.14H820.22V98.1H825.84L825.82 98.98ZM835.64 85.58L834.78 86.78C833.96 86.2 832.3 85.24 831.08 84.58L831.9 83.52C833.12 84.1 834.8 85.02 835.64 85.58ZM834.62 90.98L833.78 92.2C832.96 91.64 831.32 90.68 830.1 90.04L830.92 88.96C832.08 89.54 833.74 90.42 834.62 90.98ZM831.82 101.26L830.58 100.26C831.66 98.76 833.2 96.12 834.36 93.86L835.44 94.84C834.4 96.94 833 99.42 831.82 101.26ZM845.54 99.3V95.18H838.44V99.3H845.54ZM848.26 90.52H842.78V93.8H846.96V101.42H845.54V100.68H838.44V101.52H837.06V93.8H841.36V90.52H835.6V89.08H841.36V85.84C839.9 86.06 838.4 86.24 836.98 86.38C836.9 86.02 836.7 85.46 836.56 85.12C840 84.76 844.02 84.14 846.24 83.34L847.4 84.5C846.1 84.94 844.5 85.32 842.78 85.62V89.08H848.26V90.52ZM853.52 93.98H856.04V92.52H853.52V93.98ZM853.52 90.1V91.54H856.04V90.1H853.52ZM860 90.1H857.38V91.54H860V90.1ZM860 93.98V92.52H857.38V93.98H860ZM865.26 87.9H869.5C869.5 87.9 869.48 88.46 869.48 88.66C869.26 97.04 869.08 99.82 868.4 100.66C868.06 101.18 867.66 101.34 867.06 101.4C866.5 101.48 865.56 101.46 864.64 101.4C864.6 101 864.44 100.38 864.22 100C865.18 100.08 866.06 100.1 866.44 100.1C866.78 100.1 866.96 100.04 867.16 99.78C867.62 99.2 867.86 96.56 868.06 89.3H865.2C864.96 94.62 864.04 98.98 860.52 101.62C860.3 101.3 859.78 100.8 859.42 100.56C859.74 100.34 860.02 100.1 860.28 99.86C857.26 100.22 854.16 100.56 851.92 100.8L851.7 99.5C852.9 99.4 854.4 99.26 856.04 99.1V97.38H852.26V96.24H856.04V95.02H852.3V89.08H856.04V87.82H851.72V86.66H856.04V85.34C854.76 85.44 853.46 85.52 852.28 85.56C852.22 85.24 852.08 84.76 851.92 84.46C854.88 84.3 858.48 83.94 860.54 83.48L861.28 84.62C860.2 84.86 858.84 85.04 857.38 85.2V86.66H861.62V87.82H857.38V89.08H861.26V95.02H857.38V96.24H861.3V97.38H857.38V98.96C858.68 98.84 860.04 98.7 861.38 98.54V98.62C863.1 96.26 863.64 93.04 863.82 89.3H861.48V87.9H863.86C863.9 86.5 863.9 85.04 863.9 83.52H865.3C865.3 85.02 865.3 86.5 865.26 87.9ZM880.78 85.66H876.1V88.26H880.78V85.66ZM876.1 92.36H880.78V89.6H876.1V92.36ZM878.74 95.32L880 94.72C881.02 96.34 882.22 98.5 882.78 99.82L881.44 100.56C881.22 100.02 880.9 99.3 880.52 98.56C875.48 100.34 874.82 100.62 874.4 100.94C874.3 100.52 874.02 99.8 873.78 99.42C874.12 99.26 874.62 98.92 874.62 98.16V84.32H882.24V93.7H876.1V98.6L879.9 97.36C879.52 96.66 879.1 95.94 878.74 95.32ZM890.62 84.44V95.88C890.62 96.72 890.44 97.14 889.9 97.38C889.36 97.64 888.46 97.66 887 97.64C886.94 97.24 886.78 96.64 886.56 96.22C887.6 96.26 888.52 96.26 888.78 96.24C889.06 96.24 889.16 96.16 889.16 95.88V85.84H885.54V101.54H884.08V84.44H890.62ZM899.86 85.94H896.96V90.36H899.86V85.94ZM896.96 96.28H899.86V91.68H896.96V96.28ZM901.26 84.58V97.64H896.96V99.24H895.58V84.58H901.26ZM902.9 95.8L904.14 95.1C905.08 96.12 906.2 97.58 906.72 98.5L905.42 99.3C904.96 98.34 903.86 96.88 902.9 95.8ZM913.06 87H908.06V89.58H912.42V90.9H910.68V93.08H913V94.4H910.68V99.76C910.68 100.62 910.46 101.04 909.86 101.26C909.22 101.5 908.24 101.52 906.62 101.52C906.56 101.1 906.34 100.52 906.14 100.12C907.36 100.16 908.48 100.16 908.8 100.14C909.12 100.12 909.22 100.04 909.22 99.74V94.4H901.7V93.08H909.22V90.9H902.5V89.58H906.6V87H901.62V85.66H906.6V83.28H908.06V85.66H913.06V87ZM918.66 87.18V89.88H917.26V85.92H920.62C920.28 85.32 919.74 84.5 919.2 83.9L920.5 83.38C921.08 84.02 921.74 84.9 922.06 85.48L921.12 85.92H924.82V83.26H926.32V85.92H930L929.1 85.54C929.64 84.96 930.38 84.02 930.78 83.38L932.26 83.9C931.64 84.64 930.94 85.38 930.38 85.92H934.04V89.88H932.58V87.18H918.66ZM921.5 89.42V91H929.76V89.42H921.5ZM931.22 92.02H920.12V88.4H931.22V92.02ZM934.42 97.68V98.76H926.3V100.02C926.3 100.84 926.08 101.16 925.42 101.36C924.74 101.56 923.64 101.56 921.84 101.56C921.76 101.18 921.52 100.72 921.32 100.38C922.72 100.42 924.02 100.42 924.36 100.4C924.72 100.38 924.84 100.3 924.84 100V98.76H916.82V97.68H924.84V96.34H917.96V95.28H924.84V94.06C922.84 94.16 920.78 94.22 918.9 94.22C918.9 93.92 918.76 93.48 918.62 93.22C923 93.18 928.36 92.9 931.18 92.42L932.12 93.36C930.54 93.62 928.48 93.84 926.3 93.98V95.28H933.36V96.34H926.3V97.68H934.42ZM943.94 93.36L941.72 94.12V99.68C941.72 100.5 941.54 100.9 941.04 101.14C940.58 101.38 939.82 101.44 938.58 101.42C938.52 101.04 938.34 100.44 938.14 100.02C938.98 100.04 939.76 100.04 939.98 100.04C940.22 100.04 940.32 99.96 940.32 99.68V94.56L938.2 95.24L937.84 93.86C938.52 93.66 939.38 93.4 940.32 93.14V88.66H938.12V87.28H940.32V83.28H941.72V87.28H943.88V88.66H941.72V92.7L943.74 92.06L943.94 93.36ZM953.96 85.28H945.96V87.2H953.96V85.28ZM951.58 99.88H956.34V101.1H945.02V99.88H950.12V97.68H946.22V96.5H950.12V94.64C947.58 94.84 947.14 94.92 946.8 95.04V94.96C946.78 95 946.78 95.02 946.78 95.04C946.7 94.76 946.48 94.1 946.34 93.78C946.62 93.72 946.92 93.48 947.28 93.12C947.52 92.86 948.32 91.98 948.96 90.96H945.96C945.9 94.2 945.52 98.56 943.54 101.56C943.28 101.32 942.68 100.92 942.32 100.78C944.32 97.74 944.52 93.38 944.52 90.26V84.06H955.44V88.4H945.96V89.78H955.5V90.96H950.62C949.96 91.9 949.22 92.82 948.48 93.58L953.36 93.26C952.94 92.76 952.52 92.24 952.08 91.82L953.14 91.36C954.14 92.3 955.22 93.62 955.66 94.54L954.52 95.08C954.42 94.86 954.28 94.6 954.12 94.34L951.58 94.52V96.5H955.5V97.68H951.58V99.88ZM968.14 95.16L967.74 87.4L967.7 85.04H969.9L969.86 87.4L969.46 95.16H968.14ZM968.8 100.1C968.08 100.1 967.52 99.58 967.52 98.78C967.52 97.98 968.1 97.44 968.8 97.44C969.5 97.44 970.08 97.98 970.08 98.78C970.08 99.58 969.5 100.1 968.8 100.1Z" fill="#543816"/>
<path d="M395.007 99.3702C394.588 99.3702 394.176 99.3562 393.757 99.3353C391.31 99.2096 389.894 97.0597 389.943 95.0563C389.991 93.0251 391.461 91.5452 393.427 91.5452C393.495 91.5452 393.571 91.5452 393.64 91.5452C393.983 91.5662 394.334 91.5732 394.691 91.5732C397.007 91.5732 400.759 91.1683 403.02 88.8299C399.289 87.6991 396.045 84.4881 394.925 80.4884C394.258 78.1151 394.636 75.7976 396.004 73.9618C397.468 71.9863 399.893 70.8067 402.491 70.8067C404.182 70.8067 405.81 71.3092 407.198 72.2655C408.593 73.2219 409.769 74.5551 410.655 76.1676C411.322 74.2759 411.535 72.1608 411.225 70.0249C411.067 68.922 411.349 67.8819 412.016 67.0931C412.71 66.2764 413.775 65.8018 414.923 65.8018C416.95 65.8018 418.565 67.1978 418.853 69.2012C419.816 75.9232 417.129 83.0641 412.277 86.8824C412.009 88.3622 411.548 89.7164 410.909 90.924C408.057 96.2849 402.257 99.3562 394.994 99.3562L395.007 99.3702ZM402.347 78.499C402.525 78.9388 403.061 79.7345 403.879 80.5023C404.017 80.635 404.161 80.7536 404.298 80.8583C403.81 79.5181 402.903 78.492 402.436 78.492C402.409 78.492 402.381 78.492 402.354 78.506L402.347 78.499Z" fill="#75BEDB"/>
<path d="M414.93 67.6368C415.906 67.6368 416.916 68.2301 417.095 69.4796C417.947 75.4268 415.645 82.3653 410.635 85.8764C410.436 87.3911 410.003 88.836 409.343 90.0785C406.512 95.3976 400.67 97.5615 395.008 97.5615C394.623 97.5615 394.231 97.5545 393.846 97.5335C391.29 97.4009 390.933 93.3802 393.434 93.3802C393.475 93.3802 393.517 93.3802 393.558 93.3802C393.936 93.4012 394.314 93.4082 394.705 93.4082C399.172 93.4082 404.175 92.033 406.037 87.4679C406.003 87.4679 405.976 87.4679 405.941 87.4679C401.832 87.4679 397.846 84.222 396.657 80.0059C395.441 75.6711 398.829 72.6417 402.498 72.6417C403.763 72.6417 405.055 72.9977 406.209 73.7864C408.367 75.2663 409.748 77.7233 410.374 80.4247C412.696 77.4651 413.549 73.5072 413.013 69.7727C412.813 68.3767 413.851 67.6368 414.937 67.6368M405.824 83.3076C406.086 83.3076 406.354 83.2797 406.615 83.2169C406.532 82.2117 406.326 81.2205 405.996 80.3061C405.474 78.8262 404.161 76.6693 402.43 76.6693C402.1 76.6693 401.756 76.7461 401.399 76.9206C399.186 78.0165 401.557 80.7877 402.656 81.8278C403.715 82.826 404.766 83.3006 405.824 83.3006M414.937 64C413.267 64 411.714 64.698 410.676 65.9196C409.666 67.1062 409.233 68.6629 409.467 70.2963C409.542 70.8268 409.583 71.3503 409.583 71.8738C409.151 71.469 408.69 71.099 408.209 70.7709C406.519 69.6122 404.546 68.9979 402.498 68.9979C399.344 68.9979 396.382 70.4498 394.582 72.872C392.871 75.1755 392.383 78.0584 393.214 80.9971C394.176 84.4175 396.41 87.2934 399.241 89.0873C397.674 89.6388 395.949 89.7644 394.705 89.7644C394.389 89.7644 394.066 89.7574 393.743 89.7365C393.64 89.7365 393.537 89.7295 393.434 89.7295C390.5 89.7295 388.232 91.9981 388.156 95.0136C388.074 98.2944 390.493 100.989 393.668 101.156C394.114 101.177 394.561 101.191 395.008 101.191C402.828 101.191 409.364 97.6801 412.497 91.8027C413.129 90.616 413.604 89.3037 413.92 87.9007C418.929 83.6008 421.665 76.055 420.641 68.956C420.228 66.0871 417.83 64 414.937 64Z" fill="white"/>
<path d="M1012.81 54.2654C1011.82 54.2654 1010.92 53.7754 1010.31 52.9271C1009.72 52.1006 1009.18 51.2815 1008.69 50.4697C1007.65 51.0182 1006.59 51.5229 1005.52 51.9909C1005.04 52.203 1004.55 52.3127 1004.05 52.3127C1002.71 52.3127 1001.54 51.5448 1000.98 50.3015C1000.41 49.029 1000.64 47.559 1001.56 46.462L1002.41 45.4747C1002.16 45.3503 1001.91 45.2333 1001.67 45.109C1000.35 44.4435 999.664 43.0978 999.923 41.679C1000.21 40.0847 1001.61 38.7609 1003.17 38.6073C1003.55 38.5708 1003.95 38.5342 1004.34 38.5123C1004.19 37.2544 1004.06 35.9745 1003.98 34.7019C1003.91 33.8024 1004.21 32.9394 1004.82 32.2812C1005.47 31.5645 1006.42 31.1549 1007.43 31.1549C1007.94 31.1549 1008.46 31.2719 1008.9 31.4913C1009.07 31.0672 1009.23 30.6503 1009.41 30.2334C1009.97 28.8951 1011.39 27.9517 1012.83 27.9517C1014.14 27.9517 1015.24 28.7342 1015.73 29.9848C1016.25 31.3597 1016.66 32.7127 1016.94 34.0876L1018.79 33.7293C1019.01 33.6854 1019.23 33.6635 1019.45 33.6635C1020.72 33.6635 1021.88 34.3655 1022.5 35.4845C1023.11 36.5815 1023.07 37.8833 1022.42 38.9584L1020.91 41.4303L1021.47 41.657C1023.04 42.2933 1023.95 44.012 1023.63 45.7453C1023.32 47.3469 1022.05 48.422 1020.45 48.422C1020.36 48.422 1020.26 48.4219 1020.16 48.4073L1017.1 48.1587C1016.99 48.1514 1016.87 48.1368 1016.75 48.1221C1016.62 49.0875 1016.5 50.0456 1016.38 51.0036C1016.15 52.7662 1014.52 54.2508 1012.82 54.2508L1012.81 54.2654Z" fill="#77C67C"/>
<path d="M1012.83 29.8469C1013.3 29.8469 1013.75 30.0809 1013.98 30.6733C1014.69 32.5236 1015.17 34.3812 1015.4 36.312C1016.65 36.0706 1017.89 35.8293 1019.14 35.5879C1019.24 35.566 1019.35 35.5587 1019.45 35.5587C1020.62 35.5587 1021.5 36.8385 1020.83 37.9502C1019.93 39.4202 1019.04 40.8902 1018.15 42.3529C1019.03 42.7039 1019.9 43.0623 1020.77 43.4133C1022.26 44.013 1022.16 46.4996 1020.45 46.4996C1020.4 46.4996 1020.35 46.4996 1020.3 46.4996L1017.25 46.2509C1016.58 46.1997 1015.76 46.0169 1015.01 45.9803C1014.92 46.5946 1014.95 47.3918 1014.89 47.816C1014.76 48.796 1014.63 49.7687 1014.51 50.7487C1014.41 51.5605 1013.6 52.3357 1012.81 52.3357C1012.46 52.3357 1012.11 52.1748 1011.83 51.7872C1010.94 50.5293 1010.13 49.2494 1009.39 47.8964C1007.89 48.7521 1006.36 49.5274 1004.78 50.2221C1004.53 50.3318 1004.29 50.383 1004.06 50.383C1002.79 50.383 1002.01 48.8326 1002.99 47.6844L1005.49 44.7517C1004.48 44.3275 1003.49 43.874 1002.51 43.3767C1000.97 42.6015 1002.04 40.605 1003.37 40.466C1004.35 40.3636 1005.33 40.3197 1006.32 40.3197C1006.38 40.3197 1006.45 40.3197 1006.51 40.3197C1006.2 38.4036 1005.99 36.4729 1005.86 34.5275C1005.79 33.5914 1006.62 33.0209 1007.43 33.0209C1007.84 33.0209 1008.25 33.1672 1008.53 33.489C1008.93 33.9278 1009.31 34.3812 1009.69 34.8273C1010.13 33.5109 1010.6 32.2164 1011.14 30.9366C1011.41 30.3003 1012.16 29.8176 1012.84 29.8176M1012.84 26.0073C1010.74 26.0073 1008.7 27.3164 1007.79 29.2253C1007.67 29.2179 1007.56 29.2106 1007.43 29.2106C1005.91 29.2106 1004.47 29.8396 1003.45 30.9366C1002.49 31.9824 1002.01 33.35 1002.11 34.7908C1002.16 35.4636 1002.21 36.1291 1002.28 36.7946C1000.19 37.3139 998.484 39.1057 998.088 41.2924C997.764 43.0696 998.354 44.7663 999.614 45.9291C998.664 47.4869 998.527 49.3737 999.283 51.0558C1000.14 52.95 1002.01 54.1787 1004.06 54.1787C1004.81 54.1787 1005.56 54.0178 1006.27 53.7033C1006.86 53.4473 1007.44 53.1767 1008.02 52.8915C1008.27 53.2572 1008.53 53.6302 1008.79 54.0032C1009.76 55.3562 1011.22 56.1314 1012.81 56.1314C1015.45 56.1314 1017.88 53.93 1018.23 51.2241C1018.27 50.8657 1018.32 50.5 1018.36 50.1417L1020 50.2733C1020.15 50.2879 1020.3 50.2879 1020.44 50.2879C1022.93 50.2879 1024.99 48.5546 1025.46 46.0681C1025.85 43.9984 1025.07 41.9433 1023.55 40.6854L1024.01 39.9248C1025.02 38.25 1025.07 36.2315 1024.14 34.5202C1023.19 32.7942 1021.39 31.7191 1019.45 31.7191C1019.11 31.7191 1018.77 31.7484 1018.44 31.8142L1018.33 31.8362C1018.1 30.9732 1017.81 30.1175 1017.47 29.2472C1016.7 27.2433 1014.92 26 1012.83 26L1012.84 26.0073Z" fill="white"/>
<path d="M1063.85 74.6401C1063.23 74.6401 1062.65 74.4718 1062.14 74.146C1059.44 73.277 1058.07 69.6494 1057.27 66.9503C1056.09 62.9751 1056.33 59.8796 1057.98 57.7399C1059.06 56.3443 1060.65 55.5405 1062.35 55.5405C1063.85 55.5405 1065.23 56.1759 1066.25 57.3272C1066.55 57.6639 1066.82 58.0332 1067.06 58.4242C1068.1 57.9626 1069.17 57.7182 1070.19 57.7182C1072.96 57.7182 1074.91 59.4778 1075.4 62.432C1075.97 65.9185 1073.51 68.8293 1071.61 70.7138C1069.43 72.8752 1066.92 74.222 1064.35 74.6021C1064.18 74.6293 1064.01 74.6401 1063.84 74.6401H1063.85Z" fill="#E07D77"/>
<path d="M1062.35 57.0846C1063.35 57.0846 1064.36 57.4919 1065.12 58.3554C1065.7 59.0071 1066.12 59.7511 1066.41 60.5385C1067.59 59.7456 1068.95 59.2623 1070.2 59.2623C1071.97 59.2623 1073.5 60.2344 1073.91 62.6836C1074.35 65.4098 1072.34 67.8319 1070.55 69.6077C1068.78 71.3672 1066.61 72.7032 1064.13 73.0725C1064.04 73.0887 1063.94 73.0942 1063.85 73.0942C1063.43 73.0942 1063.08 72.953 1062.8 72.7303C1060.53 72.2036 1059.3 68.4564 1058.72 66.5068C1058 64.0684 1057.51 60.8535 1059.17 58.6975C1059.98 57.6494 1061.16 57.09 1062.34 57.09M1062.34 54C1060.18 54 1058.14 55.0155 1056.78 56.7914C1054.8 59.3492 1054.47 62.9171 1055.8 67.4029C1056.37 69.3199 1057.83 74.2455 1061.5 75.5651C1062.21 75.9779 1063 76.1897 1063.84 76.1897C1064.08 76.1897 1064.32 76.1734 1064.56 76.1353C1067.45 75.7063 1070.25 74.2129 1072.66 71.8234C1074.03 70.4657 1077.66 66.8652 1076.89 62.1786C1076.28 58.4749 1073.71 56.1777 1070.19 56.1777C1069.34 56.1777 1068.47 56.3135 1067.61 56.5796C1067.54 56.4872 1067.46 56.3949 1067.38 56.3026C1066.07 54.82 1064.28 54.0054 1062.34 54.0054V54Z" fill="white"/>
<path d="M359.301 55.6275C358.869 55.6275 358.443 55.5668 358.024 55.4452C357.824 55.3843 357.631 55.3168 357.438 55.229C355.343 54.2899 354.246 51.8915 354.878 49.6553C355.303 48.169 355.117 47.4867 354.964 47.2097C354.791 46.8921 354.372 46.5746 353.78 46.3111C353.514 46.1895 353.208 46.0814 352.882 45.9868C352.676 45.926 352.483 45.8517 352.297 45.7707C350.202 44.8316 349.105 42.4332 349.736 40.197C350.302 38.2108 352.118 36.819 354.159 36.819C354.592 36.819 355.018 36.8798 355.437 37.0014C356.035 37.1771 356.554 37.2649 356.993 37.2649C357.352 37.2649 357.638 37.2041 357.844 37.0893C358.117 36.9406 358.629 36.461 359.055 34.9746C359.394 33.7788 360.179 32.7858 361.25 32.1777C361.928 31.7994 362.7 31.5967 363.471 31.5967C363.903 31.5967 364.336 31.6575 364.755 31.7791C364.954 31.8332 365.147 31.9075 365.34 31.9953C367.435 32.9344 368.533 35.3327 367.901 37.5689C367.475 39.0552 367.661 39.7376 367.814 40.0146C367.987 40.3321 368.406 40.6497 368.992 40.9131C369.258 41.0347 369.564 41.1428 369.896 41.2442C370.089 41.2982 370.295 41.3725 370.488 41.4604C372.577 42.3994 373.674 44.791 373.042 47.0272C372.477 49.0135 370.661 50.4052 368.619 50.4052C368.187 50.4052 367.761 50.3444 367.342 50.2228C366.75 50.0471 366.225 49.9593 365.786 49.9593C365.427 49.9593 365.141 50.0201 364.934 50.135C364.662 50.2836 364.15 50.7633 363.724 52.2496C363.158 54.2358 361.343 55.6275 359.301 55.6275Z" fill="#F2C32A"/>
<path d="M363.471 33.1888C363.757 33.1888 364.037 33.2294 364.316 33.3104C364.449 33.351 364.575 33.3982 364.702 33.4523C366.085 34.0738 366.81 35.6547 366.391 37.1275C365.952 38.6814 365.965 39.911 366.438 40.7825C366.783 41.4175 367.429 41.9512 368.353 42.3701C368.686 42.5187 369.058 42.6539 369.457 42.7687C369.59 42.8093 369.717 42.8565 369.843 42.9106C371.226 43.5321 371.951 45.113 371.532 46.5858C371.147 47.937 369.929 48.8153 368.613 48.8153C368.333 48.8153 368.054 48.7747 367.774 48.6937C367.036 48.4775 366.371 48.3694 365.786 48.3694C365.161 48.3694 364.622 48.491 364.183 48.7409C363.325 49.2206 362.666 50.2543 362.227 51.8082C361.842 53.1594 360.624 54.0376 359.308 54.0376C359.028 54.0376 358.749 53.9971 358.47 53.916C358.337 53.8755 358.21 53.8282 358.084 53.7741C356.7 53.1526 355.975 51.5717 356.394 50.0989C356.833 48.545 356.82 47.3155 356.348 46.444C356.002 45.8089 355.357 45.2752 354.432 44.8563C354.1 44.7077 353.727 44.5726 353.328 44.4577C353.195 44.4172 353.069 44.3699 352.942 44.3158C351.559 43.6943 350.834 42.1134 351.253 40.6406C351.639 39.2894 352.856 38.4111 354.173 38.4111C354.452 38.4111 354.732 38.4517 355.011 38.5327C355.749 38.7489 356.414 38.857 357 38.857C357.625 38.857 358.164 38.7354 358.603 38.4854C359.461 38.0058 360.119 36.9721 360.558 35.4183C360.784 34.6278 361.296 33.9725 362.008 33.5739C362.46 33.3172 362.966 33.1888 363.471 33.1888ZM363.471 30.0068C362.434 30.0068 361.409 30.277 360.498 30.7904C359.055 31.6011 358.011 32.9321 357.552 34.54C357.359 35.2156 357.173 35.5466 357.079 35.675C357.059 35.675 357.033 35.675 357 35.675C356.8 35.675 356.441 35.6412 355.876 35.4723C355.317 35.3102 354.745 35.2291 354.166 35.2291C351.433 35.2291 348.998 37.087 348.24 39.7556C347.389 42.7484 348.865 45.9575 351.665 47.2209C351.918 47.3357 352.184 47.4303 352.45 47.5114C352.716 47.5857 352.949 47.6735 353.155 47.7681C353.368 47.8627 353.501 47.9438 353.574 47.9978C353.581 48.1667 353.574 48.545 353.381 49.2139C352.53 52.2068 354.007 55.4158 356.807 56.6792C357.059 56.794 357.326 56.8886 357.592 56.9697C358.15 57.1318 358.722 57.2129 359.301 57.2129C362.035 57.2129 364.469 55.355 365.227 52.6864C365.42 52.0108 365.606 51.6798 365.699 51.5447C365.719 51.5447 365.746 51.5447 365.779 51.5447C365.979 51.5447 366.338 51.5784 366.903 51.7473C367.462 51.9095 368.034 51.9906 368.613 51.9906C371.346 51.9906 373.78 50.1327 374.539 47.4641C375.39 44.4712 373.913 41.2621 371.113 39.9988C370.861 39.8839 370.595 39.7893 370.329 39.7083C370.062 39.634 369.83 39.5461 369.623 39.4515C369.411 39.357 369.278 39.2759 369.204 39.2219C369.198 39.053 369.204 38.6746 369.397 38.0058C370.249 35.0129 368.779 31.8038 365.972 30.5405C365.719 30.4256 365.453 30.331 365.187 30.25C364.628 30.0878 364.05 30 363.471 30V30.0068Z" fill="white"/>
<path d="M1028.05 104.8C1027.67 104.8 1027.29 104.746 1026.92 104.637C1026.74 104.583 1026.57 104.523 1026.4 104.445C1024.53 103.609 1023.56 101.475 1024.12 99.4858C1024.5 98.1633 1024.33 97.5562 1024.2 97.3098C1024.04 97.0272 1023.67 96.7447 1023.14 96.5103C1022.91 96.4021 1022.63 96.3059 1022.34 96.2217C1022.16 96.1676 1021.99 96.1015 1021.82 96.0294C1019.96 95.1938 1018.98 93.0599 1019.55 91.0702C1020.05 89.3029 1021.66 88.0646 1023.48 88.0646C1023.87 88.0646 1024.24 88.1187 1024.62 88.2269C1025.15 88.3832 1025.61 88.4613 1026 88.4613C1026.32 88.4613 1026.58 88.4072 1026.76 88.305C1027 88.1728 1027.46 87.746 1027.84 86.4235C1028.14 85.3596 1028.84 84.476 1029.79 83.935C1030.39 83.5983 1031.08 83.418 1031.77 83.418C1032.15 83.418 1032.53 83.4721 1032.91 83.5803C1033.09 83.6284 1033.26 83.6945 1033.43 83.7726C1035.29 84.6082 1036.27 86.7421 1035.71 88.7318C1035.33 90.0543 1035.49 90.6614 1035.63 90.9079C1035.78 91.1904 1036.16 91.4729 1036.68 91.7074C1036.91 91.8156 1037.19 91.9117 1037.48 92.0019C1037.65 92.05 1037.84 92.1161 1038.01 92.1943C1039.87 93.0298 1040.84 95.1578 1040.28 97.1474C1039.78 98.9147 1038.16 100.153 1036.35 100.153C1035.96 100.153 1035.58 100.099 1035.21 99.9907C1034.68 99.8344 1034.22 99.7563 1033.82 99.7563C1033.51 99.7563 1033.25 99.8104 1033.07 99.9126C1032.82 100.045 1032.37 100.472 1031.99 101.794C1031.49 103.561 1029.87 104.8 1028.05 104.8Z" fill="#F2C32A"/>
<path d="M1031.77 84.8373C1032.02 84.8373 1032.27 84.8733 1032.52 84.9455C1032.64 84.9815 1032.75 85.0236 1032.86 85.0717C1034.09 85.6247 1034.74 87.0313 1034.36 88.3418C1033.97 89.7243 1033.98 90.8184 1034.41 91.5938C1034.71 92.1588 1035.29 92.6337 1036.11 93.0064C1036.41 93.1387 1036.74 93.2589 1037.09 93.3611C1037.21 93.3971 1037.32 93.4392 1037.43 93.4873C1038.67 94.0403 1039.31 95.4469 1038.94 96.7574C1038.59 97.9596 1037.51 98.7411 1036.34 98.7411C1036.09 98.7411 1035.84 98.705 1035.59 98.6328C1034.94 98.4405 1034.35 98.3443 1033.83 98.3443C1033.27 98.3443 1032.79 98.4525 1032.4 98.6749C1031.64 99.1017 1031.05 100.021 1030.66 101.404C1030.32 102.606 1029.23 103.388 1028.06 103.388C1027.81 103.388 1027.56 103.352 1027.32 103.279C1027.2 103.243 1027.08 103.201 1026.97 103.153C1025.74 102.6 1025.1 101.194 1025.47 99.8832C1025.86 98.5006 1025.85 97.4066 1025.43 96.6311C1025.12 96.0661 1024.55 95.5912 1023.72 95.2185C1023.43 95.0863 1023.1 94.9661 1022.74 94.8639C1022.62 94.8278 1022.51 94.7857 1022.4 94.7376C1021.17 94.1846 1020.52 92.778 1020.89 91.4676C1021.24 90.2653 1022.32 89.4839 1023.49 89.4839C1023.74 89.4839 1023.99 89.5199 1024.24 89.5921C1024.89 89.7844 1025.49 89.8806 1026.01 89.8806C1026.56 89.8806 1027.04 89.7724 1027.43 89.55C1028.2 89.1232 1028.78 88.2035 1029.17 86.821C1029.37 86.1176 1029.83 85.5346 1030.46 85.1799C1030.87 84.9515 1031.32 84.8373 1031.77 84.8373ZM1031.77 82.006C1030.84 82.006 1029.93 82.2464 1029.12 82.7033C1027.84 83.4246 1026.91 84.6089 1026.5 86.0395C1026.33 86.6406 1026.16 86.9352 1026.08 87.0494C1026.06 87.0494 1026.04 87.0494 1026.01 87.0494C1025.83 87.0494 1025.51 87.0193 1025.01 86.8691C1024.51 86.7248 1024 86.6526 1023.49 86.6526C1021.05 86.6526 1018.89 88.3057 1018.21 90.6801C1017.46 93.343 1018.77 96.1983 1021.26 97.3224C1021.49 97.4246 1021.72 97.5087 1021.96 97.5809C1022.2 97.647 1022.4 97.7252 1022.59 97.8093C1022.78 97.8935 1022.89 97.9656 1022.96 98.0137C1022.97 98.164 1022.96 98.5006 1022.79 99.0957C1022.03 101.759 1023.34 104.614 1025.84 105.738C1026.06 105.84 1026.3 105.924 1026.53 105.996C1027.03 106.141 1027.54 106.213 1028.06 106.213C1030.49 106.213 1032.65 104.56 1033.33 102.185C1033.5 101.584 1033.67 101.29 1033.75 101.17C1033.77 101.17 1033.79 101.17 1033.82 101.17C1034 101.17 1034.32 101.2 1034.82 101.35C1035.32 101.494 1035.83 101.566 1036.34 101.566C1038.77 101.566 1040.94 99.9132 1041.61 97.5388C1042.37 94.8759 1041.06 92.0206 1038.57 90.8965C1038.34 90.7943 1038.1 90.7101 1037.87 90.638C1037.63 90.5719 1037.42 90.4937 1037.24 90.4096C1037.05 90.3254 1036.93 90.2533 1036.87 90.2052C1036.86 90.0549 1036.87 89.7183 1037.04 89.1232C1037.8 86.4603 1036.49 83.605 1033.99 82.4809C1033.77 82.3787 1033.53 82.2945 1033.29 82.2224C1032.8 82.0781 1032.28 82 1031.77 82V82.006Z" fill="white"/>
</svg>
