<svg width="145" height="281" viewBox="0 0 145 281" fill="none" xmlns="http://www.w3.org/2000/svg">
<g clip-path="url(#clip0_2351_13200)">
<path d="M34.6684 2.65625H110.332C127.996 2.65625 142.333 16.9488 142.333 34.5568V246.439C142.333 264.047 127.996 278.339 110.332 278.339H34.6684C17.0048 278.339 2.66699 264.047 2.66699 246.439V34.5568C2.66699 16.9488 17.0048 2.65625 34.6684 2.65625Z" fill="white"/>
<path d="M110.332 5.31676C126.505 5.31676 139.666 18.4368 139.666 34.559V246.441C139.666 262.563 126.505 275.683 110.332 275.683H34.6682C18.4951 275.683 5.33357 262.563 5.33357 246.441V34.559C5.33357 18.4368 18.4951 5.31676 34.6682 5.31676H110.332ZM110.332 0H34.6682C15.5241 0 0 15.4752 0 34.559V246.441C0 265.525 15.5241 281 34.6682 281H110.332C129.476 281 145 265.525 145 246.441V34.559C145 15.4752 129.476 0 110.332 0Z" fill="#93C8C8"/>
<path d="M110.687 190.031H34.3132C17.3225 190.031 3.54883 203.762 3.54883 220.699V245.281C3.54883 262.218 17.3225 275.949 34.3132 275.949H110.687C127.677 275.949 141.451 262.218 141.451 245.281V220.699C141.451 203.762 127.677 190.031 110.687 190.031Z" fill="#93C8C8"/>
<path opacity="0.67" d="M106.195 122.303C112.635 122.303 117.856 117.099 117.856 110.679C117.856 104.259 112.635 99.0547 106.195 99.0547C99.7549 99.0547 94.5342 104.259 94.5342 110.679C94.5342 117.099 99.7549 122.303 106.195 122.303Z" fill="white"/>
<path d="M63.6579 67.1064C63.5667 68.4103 63.5058 69.4919 63.4044 70.4825H66.8824V73.7069H63.0292C62.8163 75.0108 62.5628 75.779 62.2181 76.244C61.5387 77.2345 60.6971 77.5479 59.6324 77.6995C58.6083 77.8511 57.0569 77.8511 55.4649 77.7602C55.4345 76.9515 55.0593 75.7487 54.5929 74.94C55.9922 75.0613 57.209 75.0917 57.8579 75.0613C58.3852 75.0613 58.6387 75.0007 58.9429 74.5661C59.0646 74.3841 59.1964 74.1314 59.3181 73.6968H42.5873C42.9625 71.8672 43.3376 69.5424 43.7027 67.0963H39.4135V63.8112H44.1691C44.4226 61.9514 44.6355 60.0309 44.8181 58.3226C44.0373 59.2829 43.2667 60.1522 42.5163 60.9305C41.7355 60.3442 40.0929 59.2829 39.1904 58.7876C42.0499 56.4021 44.7572 52.5005 46.339 48.6797L50.0097 49.7309C49.7257 50.3475 49.4215 51.0045 49.1072 51.6514H67.0446V54.9365H47.1806C46.6534 55.7754 46.1261 56.5538 45.5684 57.322H63.9722C63.9722 57.322 63.9418 58.5046 63.9418 58.9291C63.881 60.7283 63.8201 62.3052 63.7593 63.791H68.2411V67.0761H63.6376L63.6579 67.1064ZM47.424 66.9851C47.2415 68.2284 47.0792 69.3706 46.8967 70.4825H53.7107C52.6257 69.6435 51.2569 68.7742 50.0097 68.188L51.2569 66.975H47.4341L47.424 66.9851ZM48.2656 60.5666C48.1439 61.6785 47.9817 62.8004 47.8296 63.9426H54.0149C52.9299 63.134 51.6219 62.3355 50.4051 61.7998L51.6827 60.5565H48.2656V60.5666ZM59.8048 70.4825C59.8656 69.4919 59.9569 68.38 60.0177 66.9851H53.5485C54.9782 67.7634 56.3471 68.6934 57.1887 69.4312L56.1341 70.4825H59.8048ZM60.1495 63.9426C60.2104 62.8914 60.2408 61.7998 60.2712 60.5666H53.9541C55.3229 61.2843 56.6614 62.1738 57.503 62.8914L56.4485 63.9426H60.1495Z" fill="#543816"/>
<path d="M101.642 73.0879C101.642 75.3218 101.115 76.373 99.6849 76.9896C98.1943 77.6365 96.0142 77.7072 92.81 77.7072C92.5971 76.6257 91.8468 74.8568 91.2587 73.8359C93.4387 73.9572 96.0447 73.9269 96.7342 73.9269C97.4845 73.9269 97.7279 73.6742 97.7279 73.0273V68.5293H84.4244C83.6132 71.9963 82.0618 75.3824 79.1719 77.7982C78.6142 77.0199 77.1237 75.6553 76.3125 75.1297C81.0073 71.127 81.4433 65.2139 81.4433 60.5036V50.3047H101.652V73.0879H101.642ZM97.7279 64.9612V61.1808H85.2559C85.2254 62.3634 85.1646 63.6572 85.0429 64.9612H97.7279ZM85.2559 53.9031V57.6835H97.7279V53.9031H85.2559Z" fill="#543816"/>
<path d="M68.2919 95.9875V98.6257H50.6282V95.9875H57.5335V94.623H51.8754V92.1769H57.5335V90.9336H51.0947V89.7914C50.2835 91.8029 49.4115 94.0064 48.7625 95.4619L46.7143 94.6836V96.3312H50.0401V99.7679H46.7143V101.941L48.0223 101.011C48.6408 101.729 50.7601 104.761 51.2569 105.509L48.9247 108.178C48.4583 106.965 47.495 104.923 46.7143 103.467V115.001H43.4796V104.741C42.8003 107.379 41.7964 109.977 40.4985 111.493C40.1842 110.412 39.5048 108.764 38.9775 107.713C40.2247 106.136 41.401 103.285 41.837 100.92L43.4898 101.506V99.7679H39.515V96.3312H43.4898V86.0717H46.7244V94.0064C47.3429 92.2678 48.002 89.852 48.3366 88.1135L51.1048 88.9828V88.2954H57.5436V86.0312H61.123V88.2954H67.8964V90.9336H61.123V92.1769H67.2779V94.623H61.123V95.9875H68.302H68.2919ZM40.7723 95.3002C40.5898 93.501 39.9915 90.7415 39.4338 88.6694L41.9789 88.0528C42.5671 90.125 43.2261 92.8541 43.4695 94.623L40.7622 95.3002H40.7723ZM66.8013 111.635C66.8013 113.181 66.5174 113.99 65.4324 114.455C64.4083 114.92 62.9482 114.98 60.9912 114.95C60.8695 114.081 60.4335 112.848 60.0279 112.039C61.1838 112.069 62.4817 112.069 62.8569 112.069C63.2625 112.069 63.3842 111.948 63.3842 111.604V110.3H54.958C54.5828 112.1 53.873 113.868 52.6866 115.233C52.1594 114.586 50.7905 113.313 50.101 112.908C51.9059 110.735 52.0884 107.824 52.0884 105.408V99.8892H66.7912V111.635H66.8013ZM63.374 107.915V106.429H55.4143C55.3838 106.924 55.3534 107.42 55.323 107.915H63.374ZM55.4143 102.588V104.044H63.374V102.588H55.4143Z" fill="#543816"/>
<path d="M85.1043 101.285C84.7595 103.67 84.2931 105.783 83.6441 107.613C85.449 110.867 88.9574 111.272 94.1186 111.302C97.4141 111.302 102.545 111.12 106.023 110.776C105.526 111.524 105.06 113.192 104.877 114.183C101.642 114.395 97.6676 114.466 94.0274 114.466C88.2781 114.466 84.6683 113.879 82.3057 110.625C81.2815 112.515 80.0648 113.94 78.6351 115.022C78.1686 114.274 76.9518 113.01 76.2725 112.545C78.8176 110.776 80.6225 107.714 81.4945 103.59H79.4767C78.8277 103.59 77.9557 103.802 77.6718 104.055C77.4892 103.307 76.8302 101.76 76.4854 101.113C76.9823 100.992 77.4791 100.739 77.976 100.123C78.4424 99.597 79.5274 97.8584 80.4906 96.221H76.9822V93.3099H82.3969L82.8938 93.1279L85.1347 93.9972C84.1714 95.7054 82.4578 98.6165 81.0585 100.749H82.7721L83.3602 100.658L85.1043 101.305V101.285ZM81.312 92.764C80.5008 91.4601 78.6959 89.297 77.2662 87.7707L80.0039 86.0625C81.4641 87.5484 83.2385 89.4689 84.1714 90.7121L81.312 92.7539V92.764ZM94.5546 93.6637C94.3011 94.4116 94.0882 95.5538 94.0274 96.1704C87.6798 97.2216 86.6861 97.4137 86.0676 97.7169C85.9155 96.9689 85.3172 95.6448 84.8508 94.9878C85.3476 94.7351 85.8749 94.2095 85.8749 92.9763V87.0531H94.4836V92.946H88.7343V94.4622L94.5445 93.6535L94.5546 93.6637ZM105.131 106.157H99.3812C101.277 107.117 103.295 108.27 104.542 109.129L101.247 110.645C100.132 109.685 98.134 108.35 96.2683 107.421L98.1948 106.147H91.6648L94.3113 107.047C92.7599 108.472 90.2655 109.927 88.2172 110.766C87.5683 110.15 86.2602 109.058 85.449 108.563C87.406 107.946 89.4543 107.077 90.7623 106.147H85.0739V103.478H89.9815V101.558H86.1892V98.8894H89.9815V97.2419H93.3683V98.8894H96.755V97.2419H100.172V98.8894H103.995V101.558H100.172V103.478H105.12V106.147L105.131 106.157ZM88.7445 89.3274V90.7222H91.4214V89.3274H88.7445ZM93.3784 103.489H96.7651V101.568H93.3784V103.489ZM99.1581 96.8274C96.3595 96.8274 95.6802 95.7762 95.6802 93.1077V87.0935H104.512V92.9864H98.6004V93.138C98.6004 94.0073 98.7221 94.3207 99.3812 94.3207H102.585C103.204 94.3207 104.198 94.2903 104.735 94.1387C104.796 94.917 104.887 95.9379 104.989 96.6152C104.461 96.7668 103.528 96.8274 102.687 96.8274H99.1784H99.1581ZM98.6004 89.3577V90.7526H101.369V89.3577H98.6004Z" fill="#543816"/>
<path d="M48.3163 151.518C48.2352 151.578 48.1338 151.629 48.0019 151.669C47.8701 151.71 47.7282 151.74 47.5761 151.74C47.3935 151.74 47.2414 151.71 47.0995 151.659C46.9575 151.608 46.8561 151.518 46.8054 151.386C46.197 150.133 45.6698 148.98 45.2338 147.939C44.7977 146.898 44.4428 146.039 44.1691 145.352H44.0981C44.0677 146.191 44.0271 146.979 43.9866 147.697C43.946 148.424 43.9054 149.122 43.8649 149.819C43.8243 150.507 43.7736 151.204 43.7331 151.912C43.6925 152.619 43.6418 153.377 43.6012 154.186C43.5303 154.206 43.4491 154.226 43.3376 154.257C43.2261 154.277 43.1145 154.287 42.9928 154.287C42.7495 154.287 42.567 154.237 42.4656 154.135C42.3642 154.034 42.3135 153.893 42.3135 153.701C42.3135 153.59 42.3135 153.347 42.3338 152.973C42.354 152.599 42.3743 152.154 42.4149 151.629C42.4453 151.103 42.4859 150.517 42.5264 149.88C42.567 149.243 42.6075 148.586 42.6582 147.929C42.7089 147.272 42.7596 146.615 42.8103 145.978C42.861 145.342 42.9117 144.755 42.9523 144.23C43.0435 144.149 43.1754 144.078 43.3376 144.007C43.51 143.937 43.7026 143.906 43.9156 143.906C44.4327 143.906 44.7977 144.119 45.0005 144.533C45.2135 144.968 45.4264 145.433 45.6495 145.918C45.8726 146.403 46.0855 146.898 46.3086 147.404C46.5317 147.909 46.7446 148.404 46.9474 148.9C47.1603 149.395 47.353 149.86 47.5456 150.315H47.6166C47.86 149.718 48.1135 149.132 48.3568 148.556C48.6002 147.98 48.8435 147.424 49.0869 146.878C49.3201 146.342 49.5432 145.837 49.7663 145.362C49.9894 144.887 50.1719 144.462 50.3442 144.068C50.4456 144.007 50.5775 143.967 50.7296 143.947C50.8817 143.926 51.0338 143.906 51.1656 143.906C51.6928 143.906 51.997 144.088 52.0782 144.442C52.1187 144.644 52.1694 144.978 52.2303 145.443C52.281 145.908 52.3418 146.443 52.4026 147.05C52.4635 147.656 52.5142 148.303 52.5649 149.001C52.6156 149.698 52.6663 150.365 52.7068 151.012C52.7474 151.659 52.788 152.255 52.8285 152.791C52.8589 153.337 52.8894 153.761 52.9096 154.075C52.7068 154.206 52.4736 154.277 52.1998 154.277C52.0275 154.277 51.8855 154.237 51.7537 154.156C51.6219 154.075 51.5509 153.913 51.5306 153.691C51.4698 152.872 51.4191 152.063 51.3785 151.255C51.338 150.446 51.2873 149.678 51.2568 148.95C51.2163 148.222 51.1757 147.555 51.1453 146.939C51.1149 146.322 51.0845 145.807 51.0642 145.382H50.9932C50.8715 145.695 50.7296 146.049 50.5673 146.443C50.4051 146.838 50.2124 147.282 49.9894 147.767C49.7663 148.263 49.5229 148.819 49.2593 149.445C48.9956 150.072 48.6813 150.759 48.3467 151.518H48.3163Z" fill="#543816"/>
<path d="M62.5727 150.291C62.5727 150.918 62.4815 151.484 62.299 151.989C62.1164 152.495 61.8629 152.929 61.5283 153.283C61.1937 153.647 60.7983 153.92 60.3217 154.112C59.8451 154.304 59.3178 154.395 58.7399 154.395C58.1619 154.395 57.6245 154.304 57.158 154.112C56.6916 153.92 56.2759 153.647 55.9413 153.283C55.6066 152.929 55.343 152.495 55.1605 151.989C54.978 151.484 54.8867 150.918 54.8867 150.291C54.8867 149.665 54.978 149.099 55.1605 148.593C55.343 148.088 55.6066 147.653 55.9413 147.299C56.2759 146.946 56.6815 146.663 57.158 146.471C57.6346 146.278 58.1518 146.188 58.7297 146.188C59.3077 146.188 59.8248 146.278 60.3014 146.471C60.778 146.663 61.1734 146.935 61.508 147.299C61.8427 147.663 62.0962 148.088 62.2888 148.593C62.4713 149.099 62.5626 149.665 62.5626 150.291H62.5727ZM58.7399 147.299C57.9794 147.299 57.371 147.562 56.935 148.088C56.499 148.613 56.2759 149.351 56.2759 150.291C56.2759 151.231 56.4888 151.979 56.9248 152.505C57.3608 153.031 57.9591 153.283 58.7399 153.283C59.5206 153.283 60.1189 153.02 60.5448 152.495C60.9706 151.969 61.1836 151.231 61.1836 150.291C61.1836 149.351 60.9706 148.613 60.5346 148.088C60.0986 147.562 59.5004 147.299 58.7399 147.299Z" fill="#543816"/>
<path d="M69.5292 147.74C69.1743 147.446 68.6978 147.305 68.0995 147.305C67.6534 147.305 67.2478 147.366 66.903 147.477C66.5583 147.588 66.2541 147.719 66.0107 147.861V154.148C65.9499 154.168 65.8688 154.198 65.7572 154.229C65.6457 154.259 65.524 154.269 65.382 154.269C64.8953 154.269 64.6621 154.067 64.6621 153.663V147.932C64.6621 147.699 64.7128 147.507 64.8041 147.355C64.8953 147.204 65.0677 147.052 65.3009 146.911C65.595 146.729 65.9803 146.567 66.467 146.426C66.9537 146.284 67.4911 146.203 68.0995 146.203C69.1237 146.203 69.9348 146.436 70.523 146.89C71.1111 147.345 71.4051 148.073 71.4051 149.064V154.158C71.3443 154.178 71.2632 154.209 71.1415 154.239C71.0198 154.269 70.8981 154.279 70.7764 154.279C70.2897 154.279 70.0565 154.077 70.0565 153.673V149.134C70.0565 148.508 69.8841 148.043 69.5292 147.76V147.74Z" fill="#543816"/>
<path d="M76.6065 154.4C75.8156 154.4 75.1767 154.228 74.69 153.874C74.2033 153.52 73.96 152.944 73.96 152.146V144.16C74.0208 144.14 74.1019 144.11 74.2236 144.079C74.3453 144.049 74.467 144.039 74.5988 144.039C75.0753 144.039 75.3086 144.241 75.3086 144.646V146.576H78.0767C78.1072 146.637 78.1477 146.708 78.1781 146.799C78.2086 146.889 78.2288 147.001 78.2288 147.112C78.2288 147.496 78.0565 147.688 77.7218 147.688H75.3086V152.065C75.3086 152.509 75.4302 152.833 75.6837 153.015C75.9372 153.197 76.2921 153.288 76.7586 153.288C76.9512 153.288 77.1642 153.257 77.3974 153.187C77.6306 153.116 77.8334 153.045 77.9855 152.954C78.0565 153.025 78.1173 153.106 78.168 153.207C78.2187 153.308 78.2491 153.429 78.2491 153.561C78.2491 153.803 78.1072 154.005 77.8131 154.167C77.519 154.329 77.1135 154.4 76.5963 154.4H76.6065Z" fill="#543816"/>
<path d="M81.3519 154.224C81.2404 154.255 81.1187 154.265 80.9768 154.265C80.4901 154.265 80.2568 154.063 80.2568 153.658V143.278C80.3177 143.257 80.3988 143.227 80.5205 143.197C80.6422 143.166 80.7638 143.156 80.8956 143.156C81.3722 143.156 81.6054 143.358 81.6054 143.763V146.795C81.8792 146.633 82.1935 146.502 82.5586 146.371C82.9236 146.239 83.3394 146.189 83.7956 146.189C84.2519 146.189 84.6981 146.249 85.0834 146.371C85.4687 146.492 85.8033 146.684 86.0873 146.937C86.3712 147.189 86.5841 147.513 86.7463 147.897C86.9086 148.281 86.9796 148.736 86.9796 149.251V154.144C86.9187 154.164 86.8376 154.194 86.7159 154.224C86.5942 154.255 86.4726 154.265 86.3509 154.265C85.8642 154.265 85.631 154.063 85.631 153.658V149.282C85.631 148.604 85.4484 148.109 85.0733 147.786C84.6981 147.462 84.2114 147.3 83.603 147.3C83.2075 147.3 82.8425 147.371 82.4977 147.513C82.153 147.654 81.8589 147.826 81.5953 148.028V154.154C81.5345 154.174 81.4533 154.204 81.3418 154.235L81.3519 154.224Z" fill="#543816"/>
<path d="M90.742 154.224C90.6304 154.255 90.5087 154.265 90.3668 154.265C89.8801 154.265 89.6367 154.063 89.6367 153.658V143.278C89.6976 143.257 89.7787 143.227 89.9004 143.197C90.022 143.166 90.1437 143.156 90.2654 143.156C90.7521 143.156 90.9955 143.358 90.9955 143.763V154.144C90.9346 154.164 90.8535 154.194 90.742 154.224Z" fill="#543816"/>
<path d="M95.2534 152.444C95.1115 152.171 94.9391 151.837 94.7465 151.423C94.5538 151.009 94.351 150.544 94.1482 150.028C93.9454 149.513 93.7325 148.967 93.5195 148.391C93.3066 147.814 93.1038 147.228 92.9111 146.632C92.9923 146.521 93.0937 146.43 93.2255 146.359C93.3573 146.288 93.4891 146.258 93.6412 146.258C93.8339 146.258 93.986 146.308 94.1076 146.409C94.2293 146.511 94.3307 146.682 94.422 146.915C94.7566 147.865 95.1115 148.805 95.4765 149.725C95.8416 150.645 96.2573 151.605 96.7136 152.616H96.7846C96.9671 152.272 97.1496 151.847 97.3423 151.342C97.5349 150.847 97.7174 150.311 97.9101 149.755C98.0926 149.199 98.265 148.623 98.4374 148.047C98.5996 147.471 98.7416 146.915 98.8632 146.389C98.9444 146.359 99.0255 146.329 99.1167 146.298C99.208 146.268 99.3094 146.258 99.4412 146.258C99.6339 146.258 99.786 146.308 99.9178 146.399C100.039 146.49 100.1 146.642 100.1 146.824C100.1 147.046 100.019 147.461 99.8671 148.047C99.715 148.633 99.502 149.31 99.2485 150.048C98.995 150.786 98.701 151.544 98.3765 152.323C98.052 153.101 97.7174 153.798 97.3828 154.405C96.8555 155.355 96.379 156.093 95.9531 156.598C95.5272 157.104 95.1419 157.366 94.7769 157.366C94.5234 157.366 94.3206 157.296 94.1786 157.164C94.0367 157.033 93.9555 156.871 93.915 156.689C94.0975 156.527 94.3003 156.325 94.5234 156.083C94.7465 155.84 94.9695 155.567 95.2027 155.284C95.436 155.001 95.6388 154.708 95.8416 154.405C96.0443 154.102 96.2167 153.808 96.3485 153.525C96.1559 153.465 95.9835 153.374 95.8213 153.232C95.659 153.091 95.4765 152.828 95.2737 152.434L95.2534 152.444Z" fill="#543816"/>
<path d="M43.0542 170.722C43.8046 170.722 44.3825 170.551 44.7679 170.207C45.1532 169.863 45.3458 169.429 45.3458 168.883C45.3458 168.408 45.1937 168.034 44.8997 167.741C44.6056 167.448 44.129 167.205 43.4902 167.023L42.02 166.588C41.3 166.376 40.7322 166.063 40.3266 165.648C39.921 165.234 39.7081 164.678 39.7081 163.97C39.7081 163.546 39.7892 163.162 39.9514 162.818C40.1137 162.474 40.3469 162.191 40.6511 161.949C40.9553 161.716 41.3203 161.534 41.736 161.403C42.1619 161.272 42.6283 161.211 43.1658 161.211C43.6119 161.211 44.0378 161.251 44.4231 161.322C44.8084 161.393 45.1532 161.494 45.4371 161.625C45.721 161.757 45.9441 161.898 46.1063 162.05C46.2686 162.202 46.3395 162.373 46.3395 162.535C46.3395 162.697 46.299 162.828 46.2179 162.939C46.1367 163.051 46.0353 163.142 45.9137 163.212C45.6196 162.99 45.2444 162.788 44.778 162.626C44.3116 162.454 43.7944 162.373 43.2165 162.373C42.5574 162.373 42.0301 162.515 41.6549 162.798C41.2798 163.081 41.0871 163.475 41.0871 163.97C41.0871 164.365 41.2189 164.688 41.4927 164.931C41.7665 165.173 42.2126 165.396 42.8413 165.567L43.8654 165.871C44.7577 166.133 45.4574 166.487 45.9644 166.952C46.4714 167.417 46.735 168.064 46.735 168.893C46.735 169.782 46.4105 170.5 45.7717 171.046C45.1329 171.592 44.2203 171.865 43.0441 171.865C42.527 171.865 42.0605 171.824 41.6346 171.733C41.2088 171.642 40.8539 171.521 40.5598 171.379C40.2658 171.238 40.0325 171.076 39.8703 170.904C39.7081 170.733 39.627 170.561 39.627 170.389C39.627 170.197 39.6878 170.035 39.7993 169.914C39.921 169.782 40.0528 169.691 40.2151 169.641C40.3367 169.762 40.4888 169.894 40.6714 170.015C40.8539 170.136 41.0567 170.258 41.3 170.369C41.5332 170.48 41.7969 170.561 42.0909 170.632C42.385 170.702 42.6993 170.733 43.0542 170.733V170.722Z" fill="#543816"/>
<path d="M49.8378 168.551C50.142 170.016 51.1053 170.754 52.7378 170.754C53.2143 170.754 53.6402 170.673 54.0154 170.522C54.3906 170.37 54.7049 170.198 54.928 170.016C55.2018 170.178 55.3336 170.39 55.3336 170.653C55.3336 170.815 55.2626 170.956 55.1206 171.108C54.9787 171.26 54.786 171.381 54.5427 171.492C54.2993 171.603 54.0154 171.694 53.7011 171.765C53.3867 171.836 53.0318 171.866 52.6668 171.866C51.3588 171.866 50.3346 171.512 49.5741 170.805C48.8137 170.097 48.4385 169.066 48.4385 167.712C48.4385 167.075 48.5297 166.509 48.7123 166.004C48.8948 165.508 49.1584 165.084 49.493 164.73C49.8276 164.386 50.2231 164.113 50.6794 163.931C51.1357 163.75 51.6427 163.648 52.1801 163.648C52.6871 163.648 53.1535 163.729 53.5794 163.901C54.0053 164.073 54.3703 164.305 54.6846 164.619C54.9888 164.932 55.2322 165.296 55.4147 165.71C55.5871 166.135 55.6783 166.59 55.6783 167.095C55.6783 167.338 55.6175 167.52 55.506 167.621C55.3944 167.732 55.2322 167.793 55.0294 167.813L49.8378 168.531V168.551ZM52.1598 164.75C51.4703 164.75 50.9025 164.993 50.4563 165.468C50.0102 165.943 49.7668 166.63 49.7465 167.51L54.3906 166.873C54.3297 166.256 54.1168 165.751 53.7416 165.357C53.3664 164.962 52.8392 164.76 52.1598 164.76V164.75Z" fill="#543816"/>
<path d="M58.8621 171.693C58.7505 171.723 58.6289 171.734 58.4869 171.734C58.0002 171.734 57.7568 171.531 57.7568 171.127V160.746C57.8177 160.726 57.8988 160.696 58.0205 160.665C58.1422 160.635 58.2638 160.625 58.3855 160.625C58.8722 160.625 59.1156 160.827 59.1156 161.231V171.612C59.0547 171.633 58.9736 171.663 58.8621 171.693Z" fill="#543816"/>
<path d="M62.745 168.551C63.0492 170.016 64.0125 170.754 65.645 170.754C66.1216 170.754 66.5475 170.673 66.9226 170.522C67.2978 170.37 67.6121 170.198 67.8352 170.016C68.109 170.178 68.2408 170.39 68.2408 170.653C68.2408 170.815 68.1698 170.956 68.0279 171.108C67.8859 171.26 67.6933 171.381 67.4499 171.492C67.2065 171.603 66.9226 171.694 66.6083 171.765C66.294 171.836 65.9391 171.866 65.574 171.866C64.266 171.866 63.2419 171.512 62.4814 170.805C61.7209 170.097 61.3457 169.066 61.3457 167.712C61.3457 167.075 61.437 166.509 61.6195 166.004C61.802 165.508 62.0656 165.084 62.4002 164.73C62.7349 164.386 63.1303 164.113 63.5866 163.931C64.0429 163.75 64.5499 163.648 65.0873 163.648C65.5943 163.648 66.0607 163.729 66.4866 163.901C66.9125 164.073 67.2775 164.305 67.5919 164.619C67.8961 164.932 68.1394 165.296 68.3219 165.71C68.4943 166.135 68.5856 166.59 68.5856 167.095C68.5856 167.338 68.5247 167.52 68.4132 167.621C68.3016 167.732 68.1394 167.793 67.9366 167.813L62.745 168.531V168.551ZM65.067 164.75C64.3775 164.75 63.8097 164.993 63.3635 165.468C62.9174 165.943 62.674 166.63 62.6537 167.51L67.2978 166.873C67.237 166.256 67.024 165.751 66.6489 165.357C66.2737 164.962 65.7464 164.76 65.067 164.76V164.75Z" fill="#543816"/>
<path d="M74.1423 164.786C73.7569 164.786 73.402 164.847 73.0776 164.978C72.7531 165.109 72.4692 165.302 72.236 165.554C72.0027 165.807 71.8101 166.12 71.6783 166.494C71.5465 166.868 71.4755 167.303 71.4755 167.778C71.4755 168.738 71.7188 169.476 72.1954 169.992C72.6821 170.497 73.3311 170.76 74.1321 170.76C74.6087 170.76 74.994 170.699 75.3083 170.568C75.6227 170.436 75.9066 170.295 76.1499 170.123C76.2716 170.194 76.373 170.275 76.4541 170.376C76.5353 170.477 76.5758 170.598 76.5758 170.75C76.5758 170.911 76.515 171.053 76.3933 171.184C76.2716 171.316 76.0992 171.437 75.8762 171.538C75.6531 171.639 75.3996 171.72 75.0954 171.781C74.8013 171.841 74.4769 171.872 74.122 171.872C73.5339 171.872 72.9965 171.791 72.4996 171.619C72.0027 171.447 71.5769 171.194 71.222 170.861C70.8671 170.527 70.5832 170.103 70.3804 169.587C70.1776 169.082 70.0762 168.475 70.0762 167.778C70.0762 167.081 70.1877 166.494 70.4006 165.989C70.6136 165.483 70.8975 165.049 71.2625 164.705C71.6276 164.362 72.0433 164.099 72.5402 163.927C73.037 163.755 73.5541 163.664 74.1017 163.664C74.4465 163.664 74.7709 163.694 75.0751 163.755C75.3692 163.816 75.6328 163.907 75.8458 164.018C76.0587 164.129 76.2311 164.26 76.3426 164.402C76.4541 164.543 76.515 164.685 76.515 164.826C76.515 164.958 76.4744 165.079 76.3933 165.18C76.3122 165.281 76.2108 165.362 76.0891 165.413C75.8458 165.241 75.572 165.099 75.2779 164.978C74.9839 164.857 74.5985 164.796 74.1321 164.796L74.1423 164.786Z" fill="#543816"/>
<path d="M81.2608 171.868C80.4699 171.868 79.831 171.697 79.3443 171.343C78.8576 170.989 78.6143 170.413 78.6143 169.614V161.629C78.6751 161.609 78.7562 161.579 78.8779 161.548C78.9996 161.518 79.1213 161.508 79.2531 161.508C79.7296 161.508 79.9629 161.71 79.9629 162.114V164.045H82.731C82.7615 164.106 82.802 164.176 82.8324 164.267C82.8629 164.358 82.8831 164.469 82.8831 164.581C82.8831 164.965 82.7108 165.157 82.3761 165.157H79.9629V169.533C79.9629 169.978 80.0845 170.302 80.338 170.484C80.5915 170.666 80.9464 170.757 81.4129 170.757C81.6055 170.757 81.8185 170.726 82.0517 170.655C82.2849 170.585 82.4877 170.514 82.6398 170.423C82.7108 170.494 82.7716 170.575 82.8223 170.676C82.873 170.777 82.9034 170.898 82.9034 171.029C82.9034 171.272 82.7615 171.474 82.4674 171.636C82.1734 171.798 81.7678 171.868 81.2506 171.868H81.2608Z" fill="#543816"/>
<path d="M84.7588 161.425C84.7588 161.192 84.8399 160.99 85.0022 160.829C85.1644 160.667 85.3773 160.586 85.6308 160.586C85.8843 160.586 86.0973 160.667 86.2595 160.829C86.4217 160.99 86.4927 161.192 86.4927 161.425C86.4927 161.657 86.4116 161.86 86.2595 162.021C86.0973 162.183 85.8945 162.264 85.6308 162.264C85.3672 162.264 85.1644 162.183 85.0022 162.021C84.8399 161.86 84.7588 161.657 84.7588 161.425ZM86.3102 171.614C86.2494 171.634 86.1682 171.664 86.0567 171.695C85.9452 171.725 85.8235 171.735 85.6815 171.735C85.1948 171.735 84.9514 171.533 84.9514 171.128V163.911C85.0123 163.891 85.0934 163.861 85.2151 163.831C85.3368 163.8 85.4584 163.79 85.5903 163.79C86.0668 163.79 86.3001 164.002 86.3001 164.417V171.614H86.3102Z" fill="#543816"/>
<path d="M96.1762 167.76C96.1762 168.387 96.085 168.953 95.9025 169.458C95.72 169.964 95.4665 170.398 95.1318 170.752C94.7972 171.116 94.4018 171.389 93.9252 171.581C93.4486 171.773 92.9214 171.864 92.3434 171.864C91.7654 171.864 91.228 171.773 90.7616 171.581C90.2951 171.389 89.8794 171.116 89.5448 170.752C89.2102 170.398 88.9465 169.964 88.764 169.458C88.5815 168.953 88.4902 168.387 88.4902 167.76C88.4902 167.133 88.5815 166.567 88.764 166.062C88.9465 165.557 89.2102 165.122 89.5448 164.768C89.8794 164.414 90.285 164.131 90.7616 163.939C91.2381 163.747 91.7553 163.656 92.3332 163.656C92.9112 163.656 93.4283 163.747 93.9049 163.939C94.3815 164.131 94.777 164.404 95.1116 164.768C95.4462 165.132 95.6997 165.557 95.8923 166.062C96.0749 166.567 96.1661 167.133 96.1661 167.76H96.1762ZM92.3434 164.768C91.5829 164.768 90.9745 165.031 90.5385 165.557C90.1025 166.082 89.8794 166.82 89.8794 167.76C89.8794 168.7 90.0923 169.448 90.5283 169.974C90.9644 170.499 91.5626 170.752 92.3434 170.752C93.1242 170.752 93.7224 170.489 94.1483 169.964C94.5742 169.438 94.7871 168.7 94.7871 167.76C94.7871 166.82 94.5742 166.082 94.1381 165.557C93.7021 165.031 93.1039 164.768 92.3434 164.768Z" fill="#543816"/>
<path d="M103.133 165.2C102.778 164.907 102.301 164.766 101.703 164.766C101.257 164.766 100.851 164.826 100.507 164.938C100.162 165.049 99.8576 165.18 99.6142 165.322V171.609C99.5534 171.629 99.4723 171.659 99.3607 171.69C99.2492 171.72 99.1275 171.73 98.9856 171.73C98.4988 171.73 98.2656 171.528 98.2656 171.124V165.393C98.2656 165.16 98.3163 164.968 98.4076 164.816C98.4988 164.665 98.6712 164.513 98.9044 164.372C99.1985 164.19 99.5838 164.028 100.071 163.886C100.557 163.745 101.095 163.664 101.703 163.664C102.727 163.664 103.538 163.897 104.126 164.351C104.715 164.806 105.009 165.534 105.009 166.525V171.619C104.948 171.639 104.867 171.67 104.745 171.7C104.623 171.73 104.502 171.74 104.38 171.74C103.893 171.74 103.66 171.538 103.66 171.134V166.595C103.66 165.969 103.488 165.504 103.133 165.221V165.2Z" fill="#543816"/>
<path d="M108.07 16.0234C119.143 16.0234 128.117 24.9689 128.117 36.0068" stroke="#93C8C8" stroke-width="3" stroke-linecap="round" stroke-linejoin="round"/>
<path d="M29.4053 131.406H115.594" stroke="#543816" stroke-width="0.75" stroke-miterlimit="10"/>
<path d="M41.0463 250.88C40.803 251.83 40.3669 252.74 39.6571 253.508C42.1313 254.327 45.2442 254.397 49.0974 254.377C48.6816 254.893 48.2557 255.833 48.1239 256.611C43.997 256.52 40.5089 256.237 37.7914 255.044C36.5138 255.762 34.8509 256.389 32.6404 256.823C32.3767 256.288 31.7683 255.347 31.2715 254.812C33.0967 254.529 34.4858 254.145 35.5606 253.69C34.8204 253.124 34.1715 252.406 33.6037 251.567L35.3376 250.87H33.3197V243.087H38.9474V241.965H31.6669V239.953H48.3064V241.965H41.3099V243.087H47.1201V250.87H41.026L41.0463 250.88ZM35.4592 246.129H38.9575V244.916H35.4592V246.129ZM35.4592 249.04H38.9372C38.9575 248.828 38.9575 248.626 38.9575 248.413V247.807H35.4592V249.04ZM35.6519 250.88C36.1995 251.557 36.7876 252.093 37.4974 252.527C38.0449 252.012 38.3694 251.486 38.6026 250.88H35.662H35.6519ZM44.8995 247.807H41.3302V248.434C41.3302 248.626 41.3302 248.828 41.3099 249.04H44.8995V247.807ZM41.3302 244.916V246.129H44.8995V244.916H41.3302Z" fill="#543816"/>
<path d="M70.0264 248.065C67.7246 253.696 62.2795 255.929 55.7596 256.819C55.5872 256.192 55.1512 255.282 54.8064 254.757C57.5442 254.474 60.0893 253.908 62.2187 252.958C61.4987 252.311 60.3732 251.532 59.4302 250.966C58.5886 251.381 57.6861 251.765 56.7127 252.098C56.4491 251.573 55.8001 250.734 55.3236 250.36C58.9739 249.258 61.5596 247.631 63.0806 245.983C60.5354 247.651 57.4225 248.753 54.269 249.369C54.0561 248.803 53.6201 247.934 53.2246 247.439C55.4452 247.075 57.6659 246.458 59.6229 245.559C58.9232 245.033 57.9498 244.406 57.0778 243.931C56.3984 244.295 55.6683 244.609 54.8977 244.912C54.5732 244.396 53.8736 243.628 53.3767 243.244C56.7431 242.183 59.0753 240.596 60.3833 239.039L62.8372 239.555C62.5533 239.878 62.2491 240.201 61.9246 240.525H65.7271L66.1022 240.434L67.5421 241.273C66.6092 243.011 65.2403 244.437 63.6281 245.609L65.9096 246.145C65.5445 246.58 65.1491 246.994 64.7333 247.398H68.1302L68.5155 247.307L70.0365 248.086L70.0264 248.065ZM59.6736 242.385C59.4505 242.557 59.2173 242.708 58.9739 242.88C59.9271 243.375 60.9715 244.002 61.6001 244.528C62.6243 243.901 63.4963 243.183 64.2264 242.385H59.6837H59.6736ZM62.4012 249.268C62.0767 249.491 61.7522 249.703 61.3973 249.915C62.4215 250.481 63.5673 251.219 64.2466 251.846C65.3113 251.148 66.1833 250.289 66.8729 249.268H62.4113H62.4012Z" fill="#543816"/>
<path d="M89.109 244.489C88.1355 247.218 86.8478 249.432 85.195 251.271C87.152 252.788 89.545 253.879 92.374 254.546C91.8569 255.042 91.1978 256.022 90.853 256.649C87.8719 255.85 85.4181 254.607 83.4205 252.939C81.3317 254.647 78.7866 255.891 75.7243 256.77C75.481 256.245 74.8118 255.183 74.3555 254.668C77.3163 253.93 79.7702 252.848 81.7474 251.312C80.0338 249.432 78.7257 247.168 77.7016 244.489H74.7205V242.296H82.7411C82.5282 241.517 82.1125 240.456 81.6764 239.627L84.0897 238.93C84.5866 239.799 85.1544 241.012 85.3775 241.79L83.745 242.306H92.009V244.499H89.0988L89.109 244.489ZM80.0439 244.489C80.8653 246.48 82.0009 248.239 83.4611 249.735C84.7691 248.3 85.8135 246.571 86.5537 244.489H80.0338H80.0439Z" fill="#543816"/>
<path d="M113.637 254.849H106.154V256.779H103.761V254.849H96.3691V253.07H103.761V252.2H98.4073V246.025H111.609V252.2H106.154V253.07H113.637V254.849ZM113.546 245.347H96.4503V243.568H100.648C100.516 243.174 100.324 242.77 100.172 242.436L101.713 242.133H97.6265V240.374H103.842C103.69 240.01 103.538 239.657 103.406 239.353L105.667 238.898C105.911 239.353 106.164 239.879 106.347 240.374H112.441V242.133H108.375L109.967 242.396C109.744 242.83 109.551 243.215 109.379 243.568H113.536V245.347H113.546ZM100.608 248.41H109.287V247.52H100.608V248.41ZM100.608 250.725H109.287V249.815H100.608V250.725ZM102.433 242.123C102.676 242.557 102.93 243.103 103.082 243.558H106.935C107.148 243.083 107.371 242.557 107.523 242.123H102.433Z" fill="#543816"/>
<path d="M60.1602 220.351H84.8406L75.9581 212.477" stroke="#543816" stroke-width="1.95" stroke-linecap="round" stroke-linejoin="round"/>
</g>
<defs>
<clipPath id="clip0_2351_13200">
<rect width="145" height="281" fill="white"/>
</clipPath>
</defs>
</svg>
