<svg width="153" height="182" viewBox="0 0 153 182" fill="none" xmlns="http://www.w3.org/2000/svg">
<path d="M37.3098 67.09C37.3098 67.09 12.0998 86.51 6.50977 99.93V173.74C6.50977 173.74 84.2498 191.8 97.9398 84.35C97.9398 84.35 58.0498 66.68 37.3098 67.09Z" fill="#F2E9EA"/>
<path d="M24.4702 48.0599C24.4702 48.0599 33.7002 38.6299 42.4702 44.6699C51.2402 50.7099 60.1902 54.0699 60.1902 54.0699L92.6802 59.6599L102.31 64.7099L113.36 63.9199L118.57 73.5499C118.57 73.5499 108.45 84.7799 96.6202 85.0799C96.6202 85.0799 94.9102 112.59 85.9402 129.18C76.9602 145.77 49.0002 167.02 23.2802 159.19C-2.43977 151.36 7.00023 100.99 7.00023 100.99C7.00023 100.99 9.86023 88.7399 29.9402 73.8199L37.3102 67.0799C37.3102 67.0799 25.6502 59.9199 24.4702 48.0499V48.0599Z" fill="#FFF8F9"/>
<path d="M68.2695 81.6401C68.2695 81.6401 23.5995 69.0901 24.4595 48.0601C25.3195 27.0301 52.7895 2.87013 66.0895 8.11013C79.3895 13.3501 81.6695 20.7301 95.5095 19.5501C108.36 18.4601 115.66 18.7401 121.12 37.4501C126.58 56.1601 128.38 95.6501 68.2695 81.6401Z" fill="#F2E9EA"/>
<path d="M105.5 36.1798C103.07 35.6198 101.43 39.3898 99.5899 44.0098C97.0699 50.3298 98.8399 53.1598 99.8399 53.9498C101.87 55.5598 104.92 53.1998 107.44 46.8798C109.73 41.1398 108.57 36.8898 105.5 36.1798Z" fill="#543816" stroke="#543816" stroke-width="3.4" stroke-miterlimit="10"/>
<path d="M60.3401 28.24C60.6201 31.38 59.3001 36.95 57.7701 40.33C57.0001 42.04 52.4701 44.67 50.1301 40.22C47.8001 35.77 51.3101 26.16 54.3301 24.41C56.7201 23.02 60.0201 24.64 60.3401 28.24Z" fill="#543816" stroke="#543816" stroke-width="3.4" stroke-miterlimit="10"/>
<g opacity="0.71">
<path d="M101.87 25.2597C102.65 24.0897 104.44 24.0597 106.15 24.3697C106.41 24.2697 106.71 24.2497 107.05 24.3297C107.8 24.5097 108.48 24.7997 109.11 25.1797C109.18 25.2097 109.26 25.2297 109.33 25.2597C109.73 25.3997 110 25.6497 110.18 25.9397C110.2 25.9597 110.22 25.9797 110.24 25.9897C111.03 26.5697 111.52 27.4097 111.28 28.5797C110.74 31.1797 107.11 30.0697 105.4 29.5197C103.84 29.0197 100.41 27.4297 101.87 25.2597Z" fill="#423D34"/>
<path d="M89.3903 22.6899C90.6003 22.5499 91.8103 22.4399 93.0303 22.3799C94.0703 22.3199 95.2303 22.1599 96.2103 22.6299C97.9203 23.4499 98.8803 25.6899 98.5703 27.4699C98.4103 28.3799 97.2603 28.8599 96.4603 28.4899C96.2903 28.5099 96.1103 28.4999 95.9203 28.4599C93.1703 27.8499 90.4403 27.2799 88.3103 25.3199C87.2403 24.3399 88.1703 22.8299 89.3903 22.6899Z" fill="#423D34"/>
<path d="M83.4396 17.2896C84.2596 17.5996 85.0896 17.8696 85.9296 18.0996C86.5496 18.2896 87.1696 18.4696 87.7996 18.6396C87.8596 18.6596 87.9196 18.6696 87.9796 18.6796C88.0296 18.7696 88.0796 18.8596 88.1196 18.9496C88.3896 19.6096 87.9196 20.3396 87.4096 20.6996C85.9196 21.7196 84.5496 21.8196 83.1696 21.1296C82.7596 21.0396 82.3796 20.7996 82.1496 20.4796C82.1396 20.4796 82.1296 20.4596 82.1196 20.4496C80.9296 19.5196 79.1496 17.8196 79.5996 16.0896C79.6196 15.9996 79.6496 15.9096 79.6896 15.8296C80.9296 16.3696 82.1896 16.8496 83.4596 17.2896H83.4396Z" fill="#423D34"/>
<path d="M104.46 19.2295C104.54 19.8795 104.17 20.4695 103.37 20.7395C101.88 21.2295 100.3 21.1095 98.8898 20.4195C98.2498 20.0995 98.0098 19.4095 98.1098 18.7795C100.21 18.6995 102.38 18.8795 104.46 19.2295Z" fill="#423D34"/>
<path d="M64.7505 14.4398C65.3305 13.2898 66.9805 12.9898 68.1305 12.8898C69.5805 12.7698 70.8705 13.8198 72.0005 14.6098C73.3605 15.5598 74.6905 16.5998 75.8705 17.7598C76.6605 18.5298 77.3805 19.5898 76.6905 20.6898C76.0105 21.7798 74.4705 21.6898 73.4005 21.3598C71.8405 20.8898 70.3205 20.0698 68.8505 19.3898C67.9305 18.9698 67.1205 18.4698 66.4505 17.7698C66.2305 17.6998 66.0205 17.5798 65.8205 17.3798C64.9505 16.5198 64.0605 15.7898 64.7405 14.4398H64.7505Z" fill="#423D34"/>
<path d="M62.4999 8.09977C62.6599 8.09977 62.8199 8.08977 62.9799 8.07977C62.9799 8.05977 62.9899 8.02977 62.9999 8.00977C64.8599 8.34977 66.7399 8.82977 68.3999 9.70977C68.4499 9.73977 68.5099 9.75977 68.5599 9.77977C68.6799 9.87977 68.8199 9.95977 68.9799 10.0198C68.9799 10.0198 68.9799 10.0198 68.9899 10.0298C68.8399 10.4398 68.5299 10.7898 68.0399 10.9298C67.8299 11.0498 67.5699 11.1198 67.2599 11.1098C66.3399 11.0898 65.4099 11.0898 64.4899 11.1098L62.4999 11.1798C60.5099 11.2498 60.4899 8.19977 62.4699 8.08977L62.4999 8.09977Z" fill="#423D34"/>
<path d="M50.4501 11.8398C51.4201 11.2498 52.4201 10.7398 53.3701 10.1198C53.4401 10.0798 53.5001 10.0298 53.5601 9.97984C54.8501 9.46984 56.1901 9.07984 57.4901 8.58984C58.7301 9.39984 59.1101 11.5498 58.2801 12.7198C58.2601 12.7498 58.2401 12.7698 58.2201 12.7898C58.2201 12.9198 58.2101 13.0498 58.1801 13.1698C57.9501 14.0398 57.1201 14.3998 56.2901 14.2698C55.4201 14.1298 54.5501 13.9898 53.6701 13.8498C52.7401 13.9398 51.7701 13.7498 50.9601 13.3098C50.3701 12.9898 50.1501 12.4898 50.1901 11.9998C50.2801 11.9398 50.3601 11.8898 50.4501 11.8298V11.8398Z" fill="#423D34"/>
<path d="M57.6804 15.1998C58.4404 15.1998 59.2004 15.2598 59.9604 15.3498C60.0804 15.3498 60.2004 15.3498 60.3304 15.3698C60.5804 15.4098 60.8204 15.4498 61.0704 15.4898C61.8904 15.6198 62.3604 16.6298 62.1704 17.3798C61.9804 18.1298 61.3104 18.5098 60.5904 18.4998C60.5304 18.4998 60.4704 18.4998 60.4004 18.4998C59.5004 18.4298 58.6104 18.3598 57.7104 18.2898C56.8804 18.2198 56.1604 17.6498 56.1504 16.7598C56.1504 15.9398 56.8404 15.1898 57.6804 15.1998Z" fill="#423D34"/>
<path d="M80.4705 22.2596C81.8805 21.7696 83.2405 23.5496 84.2005 24.4496C85.4205 25.6096 84.0305 27.3496 82.7005 27.0196C82.3205 27.1596 81.8905 27.1396 81.4905 26.8396C81.2805 26.6896 81.0705 26.5296 80.8605 26.3696C79.7505 26.0096 79.0305 25.2496 78.6005 24.1596C78.1805 23.0896 79.4405 21.9096 80.4805 22.2596H80.4705Z" fill="#423D34"/>
<path d="M113.31 31.0096C114.01 30.9696 114.77 30.9196 115.42 30.8296C115.44 30.8296 115.46 30.8296 115.48 30.8296C116.07 31.8896 116.62 32.9696 117.05 34.1096C116.68 34.6096 116.06 34.8796 115.42 34.7096C114.59 34.4896 113.76 34.2696 112.93 34.0496C111.21 33.5996 111.59 31.0996 113.31 31.0096Z" fill="#423D34"/>
</g>
<path opacity="0.71" d="M43.9399 20.9899C44.0699 20.7899 44.2399 20.6199 44.4399 20.4899C44.4399 20.4899 44.4499 20.4699 44.4599 20.4699C44.5299 20.3799 44.5999 20.2599 44.6899 20.1699C44.7099 20.1499 44.7399 20.1199 44.7599 20.0999C44.9099 19.9699 45.0699 19.8299 45.2399 19.7199C45.2699 19.6999 45.2999 19.6799 45.3399 19.6699C45.5299 19.5799 45.7199 19.4899 45.9099 19.4199C46.2699 19.3099 46.6399 19.2999 47.0099 19.3899C47.2899 19.4499 47.5399 19.5699 47.7499 19.7599C47.9799 19.8999 48.1699 20.0999 48.2999 20.3399C48.4899 20.6599 48.5899 20.9999 48.5999 21.3699C48.6099 21.4499 48.6099 21.5399 48.5999 21.6199C48.5799 21.8799 48.5699 22.1499 48.5099 22.4099C48.4999 22.4499 48.4899 22.4999 48.4699 22.5399C48.3999 22.7499 48.3199 22.9499 48.2299 23.1499C48.1999 23.2299 48.1499 23.3099 48.1099 23.3799C47.9699 23.5999 47.8199 23.8099 47.6499 23.9999C47.5399 24.1299 47.3999 24.2299 47.2699 24.3299C47.1399 24.4399 47.0099 24.5499 46.8599 24.6299C46.6299 24.7499 46.3899 24.8599 46.1499 24.9399C45.7899 25.0499 45.4199 25.0599 45.0499 24.9699C44.7699 24.9099 44.5199 24.7899 44.3099 24.5999C44.0799 24.4599 43.8899 24.2599 43.7599 24.0199C43.5699 23.6999 43.4699 23.3599 43.4599 22.9899C43.4399 22.8699 43.4399 22.7499 43.4499 22.6299C43.4699 22.3399 43.4899 22.0199 43.5799 21.7399C43.6399 21.4599 43.7599 21.2099 43.9499 20.9999L43.9399 20.9899Z" fill="#423D34"/>
<path opacity="0.71" d="M42.5696 15.2499C42.7496 14.9299 42.9996 14.6699 43.3196 14.4799C43.7696 14.2299 44.2196 13.9699 44.6596 13.7199C44.8896 13.5699 45.1496 13.4799 45.4196 13.4599C45.6996 13.3899 45.9696 13.3999 46.2496 13.4799C46.5296 13.5399 46.7796 13.6599 46.9896 13.8499C47.2196 13.9899 47.4096 14.1899 47.5396 14.4299C47.6096 14.5899 47.6896 14.7599 47.7596 14.9199C47.8696 15.2799 47.8796 15.6499 47.7896 16.0199C47.7196 16.1999 47.6496 16.3699 47.5796 16.5499C47.3996 16.8699 47.1496 17.1299 46.8296 17.3199C46.3796 17.5699 45.9296 17.8199 45.4896 18.0799C45.2596 18.2299 44.9996 18.3199 44.7296 18.3399C44.4496 18.4099 44.1796 18.3999 43.8996 18.3199C43.6196 18.2599 43.3696 18.1399 43.1596 17.9499C42.9296 17.8099 42.7396 17.6099 42.6096 17.3699C42.5396 17.2099 42.4596 17.0399 42.3896 16.8799C42.2796 16.5199 42.2696 16.1499 42.3596 15.7799C42.4296 15.5999 42.4996 15.4299 42.5696 15.2499Z" fill="#423D34"/>
<path opacity="0.71" d="M34.3403 25.8501C35.3903 24.8701 36.5703 24.0201 37.8703 23.4101C38.2003 23.2601 38.5303 23.1201 38.9003 23.1001C39.3803 23.0901 39.8303 23.2501 40.2103 23.5301C40.8803 24.0301 41.2003 24.8801 41.0103 25.7101C40.8003 26.6401 40.4403 27.5401 39.9803 28.3801C39.9803 28.4001 39.9803 28.4101 39.9803 28.4201C39.9803 28.9901 39.7803 29.5201 39.3903 29.9501C38.8903 30.4801 38.2003 30.9101 37.4803 31.0801C37.0103 31.1901 36.5703 31.1801 36.1203 31.0001C35.7103 30.8401 35.3003 30.5501 35.0803 30.1501C34.9003 29.8301 34.8303 29.4801 34.8203 29.1301C34.6603 29.0401 34.5103 28.9401 34.3903 28.8201C34.0203 28.4301 33.7403 27.9201 33.7503 27.3701C33.7503 26.8201 33.9303 26.2301 34.3403 25.8401V25.8501Z" fill="#423D34"/>
<path opacity="0.71" d="M25.2498 41.6999C25.3098 41.5099 25.3998 41.3599 25.4698 41.1799C25.4698 41.1799 25.4598 41.1799 25.4498 41.1799C25.4998 41.1099 25.5198 41.0299 25.5598 40.9599C25.5898 40.8899 25.6198 40.8199 25.6498 40.7599C25.6798 40.6499 25.7098 40.5399 25.7298 40.4299C25.7498 40.2699 25.7998 40.1199 25.8698 39.9699C25.9498 39.6999 26.0898 39.4699 26.2998 39.2699C26.4998 39.0599 26.7798 38.8899 27.0798 38.7699C27.1398 38.7199 27.1798 38.6599 27.2398 38.6099C27.6498 38.2699 27.9098 38.0699 28.4198 37.8899C28.8398 37.7399 29.3798 37.7099 29.8098 37.8299C30.2498 37.9499 30.6598 38.1699 30.9798 38.4899C31.3198 38.8299 31.5198 39.2099 31.6798 39.6599C31.7298 39.7799 31.7598 39.9099 31.7798 40.0299C31.8398 40.3299 31.8998 40.6399 31.9098 40.9499C31.9598 41.8499 31.7298 42.6999 31.3798 43.5199C31.0098 44.3899 30.3298 45.0799 29.5798 45.6299C29.1698 45.9299 28.4698 45.9899 27.9898 45.8699C27.5098 45.7499 26.9398 45.3799 26.6898 44.9199C26.5498 44.6699 26.4498 44.3899 26.4098 44.0999C26.0398 43.9299 25.6798 43.6799 25.4798 43.3099C25.2198 42.8399 25.0598 42.2399 25.2398 41.7199L25.2498 41.6999Z" fill="#423D34"/>
<path opacity="0.71" d="M91.0201 34.67C91.2901 34.51 91.5801 34.39 91.8601 34.27C92.0001 34.21 92.1501 34.16 92.3101 34.13C92.5401 34.08 92.7801 34.04 93.0201 34.01C93.2601 33.98 93.5201 34.02 93.7601 34.06C93.9601 34.1 94.1801 34.2 94.3601 34.28C94.3901 34.29 94.4101 34.3 94.4401 34.32C94.2301 34.21 94.8001 34.56 94.9101 34.68C94.9101 34.68 94.9201 34.69 94.9301 34.7C95.0401 34.7 95.1501 34.7 95.2601 34.72C95.5501 34.72 95.8201 34.8 96.0701 34.96C96.3201 35.09 96.5201 35.27 96.6801 35.5C96.8701 35.7 97.0001 35.93 97.0701 36.2C97.2001 36.74 97.1901 37.34 96.8901 37.83C96.6101 38.28 96.1801 38.7 95.6501 38.82L93.5101 39.3L92.9701 39.39C92.6801 39.41 92.4001 39.35 92.1501 39.23C91.9701 39.18 91.8101 39.1 91.6701 38.96C91.4401 38.82 91.2501 38.62 91.1201 38.38C91.1001 38.35 91.0901 38.31 91.0801 38.28C91.0201 38.24 90.9501 38.2 90.8901 38.15C90.6601 38.01 90.4701 37.81 90.3401 37.57C90.0801 37.09 89.9401 36.52 90.1001 35.98C90.2601 35.44 90.5701 34.97 91.0501 34.68L91.0201 34.67Z" fill="#423D34"/>
<path opacity="0.71" d="M79.2599 30.0398C81.8899 30.6798 80.8899 34.7798 78.2599 34.1298C75.6299 33.4898 76.6299 29.3898 79.2599 30.0398Z" fill="#423D34"/>
<path opacity="0.71" d="M66.48 24.9401C66.61 24.6901 66.79 24.4901 67.02 24.3301C67.15 24.2001 67.3 24.1101 67.48 24.0501C67.72 23.9201 67.98 23.8501 68.27 23.8501C68.8 23.8501 69.44 24.0201 69.8 24.4401C69.92 24.5801 70.01 24.7301 70.13 24.8701C70.13 24.8701 70.18 24.9401 70.21 24.9801C70.27 25.0501 70.32 25.1201 70.37 25.1901C70.46 25.2801 70.55 25.3701 70.64 25.4501C70.77 25.5301 70.9 25.6001 71.04 25.6701C71.16 25.7001 71.27 25.7501 71.39 25.7701C71.67 25.8301 71.92 25.9501 72.13 26.1401C72.36 26.2801 72.55 26.4801 72.68 26.7201C72.83 26.9501 72.92 27.2101 72.94 27.4801C73.01 27.7601 73 28.0301 72.92 28.3101C72.77 28.8301 72.46 29.3401 71.97 29.6101L71.48 29.8301C71.3 29.8801 71.11 29.9101 70.93 29.9201C70.81 29.9901 70.68 30.0501 70.55 30.0901C70.19 30.2001 69.82 30.2101 69.45 30.1201C68.77 30.0201 68.12 29.4801 67.79 28.8901C67.76 28.8401 67.75 28.7901 67.72 28.7401C67.68 28.6801 67.63 28.6401 67.59 28.5801C67.53 28.4801 67.5 28.3701 67.45 28.2701C67.41 28.2301 67.37 28.2001 67.33 28.1601C67.03 27.8201 66.74 27.4601 66.52 27.0601C66.27 26.5901 66.12 26.0001 66.28 25.4701C66.35 25.2901 66.42 25.1201 66.49 24.9401H66.48Z" fill="#423D34"/>
<path d="M96.6197 83.9698C108.45 83.6698 118.57 72.4398 118.57 72.4398L113.36 62.8098L102.31 63.5998L92.6797 58.5498L60.1897 52.9598C60.1897 52.9598 51.2397 49.5998 42.4697 43.5598C33.6997 37.5098 24.4697 46.9498 24.4697 46.9498C25.6497 58.8198 37.3097 65.9798 37.3097 65.9798C37.3097 65.9798 64.8397 84.7998 96.6197 83.9798V83.9698Z" fill="#FFF8F9"/>
<path d="M111.44 78.69C111.44 78.69 104.38 75.07 110.23 62.79C112.6 57.82 118.82 55.4 123.93 57.32C123.93 57.32 122.37 71.78 111.44 78.68V78.69Z" fill="#EFBEB1"/>
<path d="M37.3802 37.1299C31.7602 34.9999 23.4602 39.1899 22.5802 45.9799C21.9002 51.1999 25.8602 56.1199 30.6502 57.6999C34.0002 58.8099 38.6102 58.5699 41.3802 55.7599C46.1902 50.8799 44.0802 39.6699 37.3802 37.1299Z" fill="#EFBEB1"/>
<path d="M68.2695 81.6401C68.2695 81.6401 23.5995 69.0901 24.4595 48.0601C25.3195 27.0301 52.7895 2.87013 66.0895 8.11013C79.3895 13.3501 81.6695 20.7301 95.5095 19.5501C108.36 18.4601 115.66 18.7401 121.12 37.4501C126.58 56.1601 128.38 95.6501 68.2695 81.6401Z" stroke="#543816" stroke-width="4.01" stroke-linecap="round" stroke-linejoin="round"/>
<path d="M60.94 53.6499L60.54 56.7199C60.54 56.7199 69.15 61.1699 76.49 62.8599C83.84 64.5599 92.44 63.3599 92.44 63.3599L95.51 61.3799C95.51 61.3799 78.73 52.5599 60.93 53.6499H60.94Z" fill="#EFBEB1"/>
<path d="M96.9096 62.7701C70.6696 67.9901 55.3096 52.3501 55.3096 52.3501" stroke="#543816" stroke-width="4.01" stroke-linecap="round" stroke-linejoin="round"/>
<path d="M115.59 62.2698C115.59 62.2698 109.64 67.7098 99.6204 63.4598C93.5904 60.8998 90.2104 56.8098 79.0104 54.4798C65.9804 51.7698 65.1504 54.9498 55.3104 52.3398C45.4704 49.7298 39.6104 40.5098 39.6104 40.5098" stroke="#543816" stroke-width="4.01" stroke-linecap="round" stroke-linejoin="round"/>
<path d="M91.9004 114.17C91.9004 114.17 113.03 104.81 122.15 100.52C131.28 96.23 145.49 87.02 148.19 79.11C150.89 71.2 145.96 72.84 145.34 72.03C144.72 71.22 146.26 66.79 144.21 65.81C142.17 64.83 142.44 66.05 141.32 64.13C140.2 62.2 139.17 58.63 134.31 63.46C129.45 68.29 105.96 86.96 98.2604 91.43" fill="#F2E9EA"/>
<path d="M91.9004 114.17C91.9004 114.17 113.03 104.81 122.15 100.52C131.28 96.23 145.49 87.02 148.19 79.11C150.89 71.2 145.96 72.84 145.34 72.03C144.72 71.22 146.26 66.79 144.21 65.81C142.17 64.83 142.44 66.05 141.32 64.13C140.2 62.2 139.17 58.63 134.31 63.46C129.45 68.29 105.96 86.96 98.2604 91.43" stroke="#543816" stroke-width="4.01" stroke-linecap="round" stroke-linejoin="round"/>
<path d="M36.7 67.5002C36.7 67.5002 12.1 86.5102 6.5 99.9302V173.74C6.5 173.74 84.24 191.8 97.93 84.3502C97.93 84.3502 73.6 88.7402 36.69 67.4902L36.7 67.5002Z" stroke="#543816" stroke-width="4.01" stroke-linecap="round" stroke-linejoin="round"/>
</svg>
