<svg width="53" height="44" viewBox="0 0 53 44" fill="none" xmlns="http://www.w3.org/2000/svg">
<g clip-path="url(#clip0_2296_12378)">
<path d="M49.3876 21.5181C50.0868 28.7825 44.8641 34.085 44.2814 34.6576C38.2219 40.6282 29.6728 40.501 26.2722 40.4479C23.1047 40.3949 13.0832 40.2465 7.25666 33.0987C6.73757 32.4624 2.79673 27.4781 3.67601 20.903C4.87309 11.8888 14.5875 3.80779 25.7849 3.55328C37.7028 3.27755 48.4765 11.9524 49.3876 21.5181Z" fill="#FAFFFF" stroke="#FAFFFF" stroke-width="6.69" stroke-linecap="round" stroke-linejoin="round"/>
<path d="M49.3876 21.5181C50.0868 28.7825 44.8641 34.085 44.2814 34.6576C38.2219 40.6282 29.6728 40.501 26.2722 40.4479C23.1047 40.3949 13.0832 40.2465 7.25666 33.0987C6.73757 32.4624 2.79673 27.4781 3.67601 20.903C4.87309 11.8888 14.5875 3.80779 25.7849 3.55328C37.7028 3.27755 48.4765 11.9524 49.3876 21.5181Z" fill="#FAFFFF" stroke="#543816" stroke-width="1.87" stroke-linecap="round" stroke-linejoin="round"/>
<path d="M11.2929 21.5183C14.1425 21.6349 16.9922 25.0073 16.1236 28.1464C15.4456 30.5643 12.8077 31.9748 10.4242 31.7733C8.75038 31.6354 6.77996 30.681 6.09138 28.9311C4.89429 25.8981 7.90289 21.391 11.3034 21.5183H11.2929Z" fill="#FFCAB0"/>
<path d="M41.792 21.675C44.6416 21.7916 47.4913 25.164 46.6121 28.2925C45.9341 30.6998 43.2962 32.1208 40.9127 31.9194C39.2495 31.7815 37.2685 30.827 36.5799 29.0772C35.3828 26.0548 38.3914 21.5371 41.7814 21.675H41.792Z" fill="#FFCAB0"/>
<path d="M35.0756 17.2968C34.62 18.8133 34.7154 21.6872 35.1285 23.5113C35.3404 24.4339 37.3002 26.1837 38.8999 24.2218C40.4995 22.2599 39.7368 17.1695 38.4231 16.003C37.385 15.0803 35.5946 15.547 35.0756 17.2862V17.2968Z" fill="#543816" stroke="#543816" stroke-width="1.61" stroke-miterlimit="10"/>
<path d="M16.4201 17.2968C16.8757 18.8133 16.7803 21.6872 16.3672 23.5113C16.1553 24.4339 14.1955 26.1837 12.5958 24.2218C10.9962 22.2599 11.7589 17.1695 13.0726 16.003C14.1107 15.0803 15.9011 15.547 16.4201 17.2862V17.2968Z" fill="#543816" stroke="#543816" stroke-width="1.61" stroke-miterlimit="10"/>
<path d="M33.4335 29.018C30.5097 27.8832 30.372 25.9531 30.372 25.9531C28.5075 26.3243 26.9608 26.6318 25.6472 26.6318C24.3336 26.6318 22.7869 26.3137 20.9224 25.9531C20.9224 25.9531 20.7847 27.8726 17.8609 29.018C14.937 30.1527 13.7929 33.2812 19.1109 34.6174C21.0072 35.0946 23.3166 35.5612 25.6472 35.5612C27.9778 35.5612 30.2872 35.0946 32.1835 34.6174C37.5015 33.2812 36.3574 30.1633 33.4335 29.018Z" fill="#F2C32A" stroke="#543816" stroke-width="1.74" stroke-linecap="round" stroke-linejoin="round"/>
<path d="M24.0476 30.0359C24.3226 30.0359 24.5455 29.8128 24.5455 29.5375C24.5455 29.2622 24.3226 29.0391 24.0476 29.0391C23.7726 29.0391 23.5497 29.2622 23.5497 29.5375C23.5497 29.8128 23.7726 30.0359 24.0476 30.0359Z" fill="#DD8936" stroke="#DD8936" stroke-width="0.62" stroke-miterlimit="10"/>
<path d="M27.321 30.0359C27.596 30.0359 27.8189 29.8128 27.8189 29.5375C27.8189 29.2622 27.596 29.0391 27.321 29.0391C27.046 29.0391 26.8231 29.2622 26.8231 29.5375C26.8231 29.8128 27.046 30.0359 27.321 30.0359Z" fill="#DD8936" stroke="#DD8936" stroke-width="0.62" stroke-miterlimit="10"/>
</g>
<defs>
<clipPath id="clip0_2296_12378">
<rect width="53" height="44" fill="white"/>
</clipPath>
</defs>
</svg>
