<svg width="53" height="44" viewBox="0 0 53 44" fill="none" xmlns="http://www.w3.org/2000/svg">
<g clip-path="url(#clip0_2253_12472)">
<path d="M49.3878 21.5175C50.087 28.7819 44.8643 34.0844 44.2817 34.657C38.2221 40.6276 29.673 40.5004 26.2725 40.4473C23.105 40.3943 13.0834 40.2458 7.2569 33.0981C6.73781 32.4618 2.79698 27.4775 3.67625 20.9024C4.87333 11.8882 14.5877 3.80718 25.7852 3.55266C37.703 3.27694 48.4768 11.9518 49.3878 21.5175Z" fill="#FAFFFF" stroke="#FAFFFF" stroke-width="6.69" stroke-linecap="round" stroke-linejoin="round"/>
<path d="M49.3878 21.5175C50.087 28.7819 44.8643 34.0844 44.2817 34.657C38.2221 40.6276 29.673 40.5004 26.2725 40.4473C23.105 40.3943 13.0834 40.2458 7.2569 33.0981C6.73781 32.4618 2.79698 27.4775 3.67625 20.9024C4.87333 11.8882 14.5877 3.80718 25.7852 3.55266C37.703 3.27694 48.4768 11.9518 49.3878 21.5175Z" fill="#FAFFFF" stroke="#797979" stroke-width="1.87" stroke-linecap="round" stroke-linejoin="round"/>
<path d="M11.2925 21.5175C14.1422 21.6342 16.9919 25.0066 16.1232 28.1456C15.4452 30.5636 12.8074 31.974 10.4238 31.7725C8.75001 31.6347 6.7796 30.6802 6.09101 28.9304C4.89393 25.8974 7.90252 21.3903 11.3031 21.5175H11.2925Z" fill="#D1D1D1"/>
<path d="M41.7924 21.6765C44.6421 21.7932 47.4918 25.1656 46.6125 28.294C45.9345 30.7014 43.2967 32.1224 40.9131 31.9209C39.2499 31.7831 37.2689 30.8286 36.5803 29.0788C35.3832 26.0564 38.3918 21.5387 41.7818 21.6765H41.7924Z" fill="#D1D1D1"/>
<path d="M35.076 17.2967C34.6205 18.8132 34.7159 21.6871 35.129 23.5112C35.3409 24.4338 37.3007 26.1836 38.9003 24.2217C40.5 22.2598 39.7372 17.1694 38.4236 16.0029C37.3855 15.0802 35.5951 15.5468 35.076 17.2861V17.2967Z" fill="#797979" stroke="#797979" stroke-width="1.61" stroke-miterlimit="10"/>
<path d="M16.4202 17.2967C16.8757 18.8132 16.7804 21.6871 16.3672 23.5112C16.1554 24.4338 14.1955 26.1836 12.5959 24.2217C10.9963 22.2598 11.759 17.1694 13.0726 16.0029C14.1108 15.0802 15.9011 15.5468 16.4202 17.2861V17.2967Z" fill="#797979" stroke="#797979" stroke-width="1.61" stroke-miterlimit="10"/>
<path d="M33.434 29.0152C30.5101 27.8804 30.3724 25.9503 30.3724 25.9503C28.5079 26.3215 26.9612 26.629 25.6476 26.629C24.334 26.629 22.7873 26.3109 20.9229 25.9503C20.9229 25.9503 20.7852 27.8698 17.8613 29.0152C14.9375 30.1499 13.7933 33.2783 19.1114 34.6146C21.0076 35.0918 23.317 35.5584 25.6476 35.5584C27.9782 35.5584 30.2876 35.0918 32.1839 34.6146C37.5019 33.2783 36.3578 30.1605 33.434 29.0152Z" fill="#C3C3C3" stroke="#797979" stroke-width="1.74" stroke-linecap="round" stroke-linejoin="round"/>
<path d="M24.0477 30.0332C24.3227 30.0332 24.5456 29.8101 24.5456 29.5348C24.5456 29.2595 24.3227 29.0364 24.0477 29.0364C23.7727 29.0364 23.5498 29.2595 23.5498 29.5348C23.5498 29.8101 23.7727 30.0332 24.0477 30.0332Z" fill="#E1E1E1" stroke="#E1E1E1" stroke-width="0.62" stroke-miterlimit="10"/>
<path d="M27.3211 30.0332C27.5961 30.0332 27.819 29.8101 27.819 29.5348C27.819 29.2595 27.5961 29.0364 27.3211 29.0364C27.0462 29.0364 26.8232 29.2595 26.8232 29.5348C26.8232 29.8101 27.0462 30.0332 27.3211 30.0332Z" fill="#E1E1E1" stroke="#E1E1E1" stroke-width="0.62" stroke-miterlimit="10"/>
</g>
<defs>
<clipPath id="clip0_2253_12472">
<rect width="53" height="44" fill="white"/>
</clipPath>
</defs>
</svg>
