<svg width="18" height="18" viewBox="0 0 18 18" fill="none" xmlns="http://www.w3.org/2000/svg">
<path d="M9.98203 17.0515C9.70221 17.1371 9.41478 17.1788 9.11766 17.1889C8.97967 17.1908 8.83843 17.182 8.70088 17.1664C7.16022 16.9802 5.98161 15.6744 5.95819 14.1249C5.94258 13.0919 5.68896 12.6967 5.54073 12.5517C5.3686 12.3853 5.03648 12.262 4.59948 12.2111C4.40107 12.1853 4.18475 12.1765 3.94894 12.1794C3.81094 12.1812 3.66973 12.1725 3.53217 12.1569C1.99152 11.9707 0.812883 10.6648 0.78947 9.11532C0.766898 7.73854 1.67348 6.4928 2.99341 6.08925C3.27323 6.0037 3.55906 5.95667 3.85251 5.95344C4.27178 5.94633 4.62742 5.90102 4.91252 5.81386C5.14483 5.74283 5.31834 5.64942 5.42776 5.53525C5.57298 5.38707 5.8121 4.97958 5.7981 3.95186C5.78612 3.11955 6.09953 2.33189 6.67351 1.73553C7.03757 1.35902 7.50046 1.07913 7.99675 0.927395C8.27658 0.841844 8.5693 0.798473 8.86114 0.789965C8.99913 0.788132 9.14035 0.796851 9.27791 0.812451C10.8186 0.998675 11.9972 2.30452 12.0206 3.85401C12.0362 4.887 12.2898 5.28222 12.4381 5.42715C12.6102 5.59361 12.9423 5.71691 13.3793 5.7678C13.5777 5.79362 13.794 5.80245 14.0298 5.79954C14.1678 5.79771 14.3143 5.8048 14.4519 5.8204C15.9857 6.00296 17.1643 7.30881 17.1877 8.8583C17.2103 10.2351 16.3037 11.4808 14.9838 11.8844C14.7039 11.9699 14.4181 12.017 14.1247 12.0202C13.7054 12.0273 13.3498 12.0726 13.0647 12.1598C12.8324 12.2308 12.6588 12.3242 12.5494 12.4384C12.4042 12.5865 12.1651 12.9941 12.1791 14.0218C12.2016 15.3986 11.2951 16.6443 9.97515 17.0478L9.98203 17.0515Z" fill="#FEFDFD"/>
</svg>
