<svg width="18" height="18" viewBox="0 0 18 18" fill="none" xmlns="http://www.w3.org/2000/svg">
<path d="M13.9365 17.1601C13.3367 17.5874 9.48824 14.8793 8.75116 14.8733C8.01408 14.8674 4.12225 17.5132 3.52946 17.0764C2.93667 16.6396 4.33029 12.153 4.1082 11.4522C3.88611 10.7514 0.15992 7.87809 0.393331 7.18093C0.626794 6.48376 5.3366 6.41901 5.93639 5.99179C6.53618 5.56462 8.12513 1.14303 8.86226 1.14893C9.59929 1.15488 11.1165 5.60147 11.7092 6.03828C12.302 6.47504 17.0102 6.61563 17.2324 7.31644C17.4545 8.01725 13.6823 10.8302 13.4489 11.5273C13.2155 12.2245 14.5363 16.7329 13.9365 17.1601Z" fill="#543816"/>
</svg>
