<svg width="26" height="26" viewBox="0 0 26 26" fill="none" xmlns="http://www.w3.org/2000/svg">
<path fill-rule="evenodd" clip-rule="evenodd" d="M3.79199 11.1775C3.79199 6.19434 7.9562 2.16663 12.9932 2.16663C18.0445 2.16663 22.2087 6.19434 22.2087 11.1775C22.2087 13.6886 21.2954 16.0199 19.7923 17.9958C18.134 20.1754 16.0902 22.0745 13.7896 23.5651C13.263 23.9096 12.7879 23.9356 12.21 23.5651C9.89629 22.0745 7.85242 20.1754 6.20837 17.9958C4.70414 16.0199 3.79199 13.6886 3.79199 11.1775ZM9.96074 11.4581C9.96074 13.1275 11.323 14.4404 12.9932 14.4404C14.6646 14.4404 16.0399 13.1275 16.0399 11.4581C16.0399 9.80174 14.6646 8.42486 12.9932 8.42486C11.323 8.42486 9.96074 9.80174 9.96074 11.4581Z" fill="#FEFDFD"/>
</svg>
