<svg width="48" height="48" viewBox="0 0 48 48" fill="none" xmlns="http://www.w3.org/2000/svg">
<path d="M36.3699 41H11.6284C10.6694 41.0027 9.74222 40.6494 9.01983 40.0061C8.29744 39.3628 7.8292 38.4734 7.70249 37.5038L5.02196 17.3252C4.9554 16.8298 5.04098 16.3255 5.26693 15.8817C5.49288 15.4379 5.84809 15.0765 6.2837 14.847C6.71932 14.6176 7.21393 14.5314 7.69952 14.6004C8.1851 14.6694 8.63779 14.8902 8.99532 15.2324L13.4194 19.406C13.6532 19.6365 13.931 19.8156 14.2356 19.932C14.5401 20.0484 14.8649 20.0997 15.1897 20.0826C15.5145 20.0656 15.8324 19.9807 16.1236 19.833C16.4149 19.6854 16.6733 19.4783 16.8827 19.2245L22.1726 12.8613C22.3953 12.5915 22.6731 12.3746 22.9865 12.2259C23.3 12.0771 23.6416 12 23.9873 12C24.333 12 24.6746 12.0771 24.9881 12.2259C25.3015 12.3746 25.5793 12.5915 25.802 12.8613L31.1156 19.2245C31.3231 19.4744 31.5782 19.6787 31.8654 19.825C32.1525 19.9714 32.4658 20.0567 32.7863 20.076C33.1068 20.0952 33.4278 20.0479 33.7298 19.9369C34.0318 19.8259 34.3086 19.6535 34.5434 19.4302L38.9674 15.2566C39.3214 14.9027 39.7753 14.6708 40.2652 14.5935C40.7551 14.5162 41.2564 14.5973 41.6987 14.8256C42.141 15.0538 42.5021 15.4177 42.7313 15.866C42.9605 16.3144 43.0462 16.8247 42.9764 17.3252L40.2958 37.4917C40.1718 38.4635 39.7047 39.3558 38.982 40.0016C38.2594 40.6473 37.3307 41.0023 36.3699 41Z" fill="#EFC141"/>
<path d="M18.756 35V33.488C22.392 30.23 24.516 27.728 24.516 25.676C24.516 24.344 23.814 23.516 22.536 23.516C21.546 23.516 20.772 24.146 20.088 24.902L18.63 23.462C19.854 22.148 21.06 21.446 22.878 21.446C25.38 21.446 27.072 23.048 27.072 25.532C27.072 27.962 25.056 30.554 22.626 32.93C23.292 32.858 24.174 32.768 24.804 32.768H27.684V35H18.756Z" fill="#FEFDFD"/>
<circle cx="5" cy="10" r="2" fill="#EFC141"/>
<circle cx="43" cy="10" r="2" fill="#EFC141"/>
<circle cx="24" cy="7" r="2" fill="#EFC141"/>
</svg>
