<svg width="62" height="41" viewBox="0 0 62 41" fill="none" xmlns="http://www.w3.org/2000/svg">
<g clip-path="url(#clip0_2253_12482)">
<path d="M54.4497 7.68C49.4497 3.68 45.2997 6.49 45.2997 6.49L45.5197 6.97C42.4697 4.36 38.9897 2.93 36.2597 3.38C34.6797 3.64 33.5797 4.49 30.6897 4.68C27.2197 4.91 25.6797 3.89 23.7197 3.75C21.0697 3.55 18.0397 4.97 15.4197 7.39L15.8397 6.49C15.8397 6.49 11.6897 3.68 6.68974 7.68C1.68974 11.68 2.04974 19.41 8.86974 21.54L9.04974 21.15L9.07974 21.16L9.11974 21.01C9.18974 26.21 12.1697 29.99 12.6097 30.53C18.1097 37.27 27.5697 37.41 30.5597 37.46C33.7697 37.51 41.8497 37.63 47.5597 32C48.0597 31.51 52.1397 27.35 52.4097 21.47C59.0697 19.26 59.3897 11.63 54.4297 7.67L54.4497 7.68Z" fill="white" stroke="white" stroke-width="6.6" stroke-linecap="round" stroke-linejoin="round"/>
<path d="M15.8397 6.49003C15.8397 6.49003 11.6897 3.68003 6.68974 7.68003C1.68974 11.68 2.04974 19.41 8.86974 21.54L15.8297 6.48003L15.8397 6.49003Z" fill="#E3E3E3"/>
<mask id="mask0_2253_12482" style="mask-type:luminance" maskUnits="userSpaceOnUse" x="3" y="5" width="13" height="17">
<path d="M15.8397 6.49003C15.8397 6.49003 11.6897 3.68003 6.68974 7.68003C1.68974 11.68 2.04974 19.41 8.86974 21.54L15.8297 6.48003L15.8397 6.49003Z" fill="white"/>
</mask>
<g mask="url(#mask0_2253_12482)">
<path d="M11.6894 11.6801C11.6894 11.6801 7.68942 11.6801 6.68942 15.6801C5.68942 19.6801 9.07942 21.1701 9.07942 21.1701L11.6894 11.6801Z" fill="#9A9A9A" stroke="#797979" stroke-width="1.87" stroke-linecap="round" stroke-linejoin="round"/>
</g>
<path d="M15.8397 6.49003C15.8397 6.49003 11.6897 3.68003 6.68974 7.68003C1.68974 11.68 2.04974 19.41 8.86974 21.54L15.8297 6.48003L15.8397 6.49003Z" stroke="#797979" stroke-width="1.87" stroke-linecap="round" stroke-linejoin="round"/>
<path d="M45.2998 6.49003C45.2998 6.49003 49.4498 3.68003 54.4498 7.68003C59.4498 11.68 59.0898 19.41 52.2698 21.54L45.3098 6.48003L45.2998 6.49003Z" fill="#E3E3E3"/>
<mask id="mask1_2253_12482" style="mask-type:luminance" maskUnits="userSpaceOnUse" x="45" y="5" width="13" height="17">
<path d="M45.2998 6.49003C45.2998 6.49003 49.4498 3.68003 54.4498 7.68003C59.4498 11.68 59.0898 19.41 52.2698 21.54L45.3098 6.48003L45.2998 6.49003Z" fill="white"/>
</mask>
<g mask="url(#mask1_2253_12482)">
<path d="M49.4502 11.6801C49.4502 11.6801 53.4502 11.6801 54.4502 15.6801C55.4502 19.6801 52.0602 21.1701 52.0602 21.1701L49.4502 11.6801Z" fill="#9A9A9A" stroke="#797979" stroke-width="1.87" stroke-linecap="round" stroke-linejoin="round"/>
</g>
<path d="M45.2998 6.49003C45.2998 6.49003 49.4498 3.68003 54.4498 7.68003C59.4498 11.68 59.0898 19.41 52.2698 21.54L45.3098 6.48003L45.2998 6.49003Z" stroke="#797979" stroke-width="1.87" stroke-linecap="round" stroke-linejoin="round"/>
<path d="M52.3904 19.62C53.0504 26.47 48.1204 31.47 47.5704 32.01C41.8504 37.64 33.7804 37.52 30.5704 37.47C27.5804 37.42 18.1204 37.28 12.6204 30.54C12.1304 29.94 8.4104 25.24 9.2404 19.04C10.3804 10.49 17.9704 3.31004 23.7304 3.74004C25.6904 3.89004 27.2304 4.90004 30.7004 4.67004C33.5904 4.48004 34.6904 3.63004 36.2704 3.37004C42.1104 2.41004 51.4704 9.97004 52.3904 19.61V19.62Z" fill="#E3E3E3"/>
<mask id="mask2_2253_12482" style="mask-type:luminance" maskUnits="userSpaceOnUse" x="9" y="3" width="44" height="35">
<path d="M52.3904 19.62C53.0504 26.47 48.1204 31.47 47.5704 32.01C41.8504 37.64 33.7804 37.52 30.5704 37.47C27.5804 37.42 18.1204 37.28 12.6204 30.54C12.1304 29.94 8.4104 25.24 9.2404 19.04C10.3804 10.49 17.9704 3.31004 23.7304 3.74004C25.6904 3.89004 27.2304 4.90004 30.7004 4.67004C33.5904 4.48004 34.6904 3.63004 36.2704 3.37004C42.1104 2.41004 51.4704 9.97004 52.3904 19.61V19.62Z" fill="white"/>
</mask>
<g mask="url(#mask2_2253_12482)">
<path d="M49.54 24.7301C50.1 30.5901 45.88 34.8801 45.41 35.3401C40.51 40.1601 33.6 40.05 30.85 40.01C28.29 39.97 20.19 39.8501 15.48 34.0801C12.09 29.9201 12.52 25.0101 12.59 24.2301C13.19 16.7801 19.81 10.3601 24.7 10.6801C26.44 10.7901 27.58 11.7401 30.7 11.6801C33.24 11.6401 34.32 10.9801 35.67 10.8001C40.83 10.1201 48.76 16.5 49.54 24.72V24.7301Z" fill="white"/>
<path d="M13.7204 22.1601C16.4104 22.2701 19.1004 25.4501 18.2804 28.4101C17.6404 30.6901 15.1504 32.0201 12.9004 31.8301C11.3204 31.7001 9.46038 30.8001 8.81038 29.1501C7.68038 26.2901 10.5204 22.0401 13.7304 22.1601H13.7204Z" fill="#C8C8C8"/>
<path d="M47.5107 22.31C50.2007 22.42 52.8907 25.6 52.0607 28.55C51.4207 30.82 48.9307 32.16 46.6807 31.97C45.1107 31.84 43.2407 30.94 42.5907 29.29C41.4607 26.44 44.3007 22.18 47.5007 22.31H47.5107Z" fill="#C8C8C8"/>
</g>
<path d="M52.3904 19.62C53.0504 26.47 48.1204 31.47 47.5704 32.01C41.8504 37.64 33.7804 37.52 30.5704 37.47C27.5804 37.42 18.1204 37.28 12.6204 30.54C12.1304 29.94 8.4104 25.24 9.2404 19.04C10.3804 10.49 17.9704 3.31004 23.7304 3.74004C25.6904 3.89004 27.2304 4.90004 30.7004 4.67004C33.5904 4.48004 34.6904 3.63004 36.2704 3.37004C42.1104 2.41004 51.4704 9.97004 52.3904 19.61V19.62Z" stroke="#797979" stroke-width="1.87" stroke-linecap="round" stroke-linejoin="round"/>
<path d="M38.8804 18.65C38.4504 20.08 38.5404 22.79 38.9304 24.51C39.1304 25.38 40.9804 27.03 42.4904 25.18C44.0004 23.33 43.2804 18.53 42.0404 17.43C41.0604 16.56 39.3704 17 38.8804 18.64V18.65Z" fill="#797979" stroke="#797979" stroke-width="1.61" stroke-miterlimit="10"/>
<path d="M21.2696 18.65C21.6996 20.08 21.6096 22.79 21.2196 24.51C21.0196 25.38 19.1696 27.03 17.6596 25.18C16.1496 23.33 16.8696 18.53 18.1096 17.43C19.0896 16.56 20.7796 17 21.2696 18.64V18.65Z" fill="#797979" stroke="#797979" stroke-width="1.61" stroke-miterlimit="10"/>
<path d="M22.87 28.72C23.49 30.13 25.32 30.52 26.71 30.42C27.55 30.36 28.32 30.09 29.13 29.86C30.05 29.6 30.85 29.7 31.76 29.96C33.17 30.36 34.44 30.64 35.88 30.18C36.84 29.87 38.21 29.35 38.47 28.25C38.69 27.31 37.24 26.91 37.02 27.85C36.89 28.42 35.52 28.74 35.04 28.86C33.8 29.18 32.64 28.58 31.45 28.32C30.08 28.03 28.98 28.37 27.67 28.73C26.61 29.02 24.71 29.18 24.17 27.95C23.78 27.07 22.49 27.83 22.87 28.71V28.72Z" fill="#797979"/>
</g>
<defs>
<clipPath id="clip0_2253_12482">
<rect width="61.14" height="40.78" fill="white"/>
</clipPath>
</defs>
</svg>
