<svg width="55" height="51" viewBox="0 0 55 51" fill="none" xmlns="http://www.w3.org/2000/svg">
<g clip-path="url(#clip0_2253_12412)">
<path d="M50.96 39.19C49.57 38.61 47.39 38.41 45.53 38.35C45.78 37.48 45.93 36.62 46.02 35.82L50.71 34.54C49.48 34.47 47.7 34.9 46.06 35.42C46.24 33.26 45.96 31.55 45.88 31.12C45.33 28.06 43.79 25.21 41.62 22.86C44.04 19.92 50.68 10.95 46.64 5.29997C43.43 0.809972 38.84 4.31997 37.86 9.19997C37.33 11.83 36.64 16.15 36.24 18.74C33.75 17.43 30.96 16.62 28.07 16.52C24.97 16.41 21.95 17.13 19.25 18.42C18.84 15.8 18.19 11.72 17.68 9.19997C16.7 4.31997 12.11 0.809972 8.89996 5.29997C5.03996 10.7 10.95 19.15 13.58 22.44C11.31 24.75 9.66996 27.57 9.00996 30.63C8.91996 31.05 8.50996 33.1 8.72996 35.63C6.93996 35.04 4.83996 34.48 3.45996 34.55L8.76996 36C8.84996 36.76 8.99996 37.55 9.21996 38.35C7.25996 38.38 4.73996 38.56 3.20996 39.21L9.31996 38.65C9.76996 40.12 10.49 41.61 11.65 42.95C15.36 47.23 21.06 47.23 27.36 47.23C33.59 47.23 39.32 47.23 43.07 42.95C44.23 41.62 44.96 40.15 45.42 38.7L50.96 39.21V39.19Z" fill="white" stroke="white" stroke-width="6.44" stroke-linecap="round" stroke-linejoin="round"/>
<path d="M45.8797 31.11C46.0397 32.01 47.0897 38.3399 43.0697 42.9299C39.3197 47.2199 33.5897 47.2199 27.3597 47.2099C21.0597 47.2099 15.3597 47.2099 11.6497 42.9299C7.49967 38.1299 8.84967 31.42 9.01967 30.61C10.7497 22.64 19.1097 16.1899 28.0697 16.5099C36.6597 16.8099 44.4597 23.2699 45.8697 31.11H45.8797Z" fill="#EBEBEB"/>
<mask id="mask0_2253_12412" style="mask-type:luminance" maskUnits="userSpaceOnUse" x="8" y="16" width="39" height="32">
<path d="M45.8797 31.11C46.0397 32.01 47.0897 38.3399 43.0697 42.9299C39.3197 47.2199 33.5897 47.2199 27.3597 47.2099C21.0597 47.2099 15.3597 47.2099 11.6497 42.9299C7.49967 38.1299 8.84967 31.42 9.01967 30.61C10.7497 22.64 19.1097 16.1899 28.0697 16.5099C36.6597 16.8099 44.4597 23.2699 45.8697 31.11H45.8797Z" fill="white"/>
</mask>
<g mask="url(#mask0_2253_12412)">
<path d="M14.4693 33.8099C16.7893 33.8999 19.0993 36.6399 18.3893 39.1899C17.8393 41.1499 15.6893 42.2999 13.7593 42.1399C12.3993 42.0299 10.7993 41.2499 10.2393 39.8299C9.26928 37.3699 11.7093 33.7099 14.4693 33.8199V33.8099Z" fill="#E2E2E2"/>
<path d="M40.939 33.9399C43.259 34.0299 45.569 36.7699 44.859 39.3099C44.309 41.2699 42.169 42.4099 40.229 42.2499C38.879 42.1399 37.269 41.3599 36.709 39.9399C35.739 37.4799 38.179 33.8199 40.939 33.9299V33.9399Z" fill="#E2E2E2"/>
</g>
<path d="M45.8797 31.11C46.0397 32.01 47.0897 38.3399 43.0697 42.9299C39.3197 47.2199 33.5897 47.2199 27.3597 47.2099C21.0597 47.2099 15.3597 47.2099 11.6497 42.9299C7.49967 38.1299 8.84967 31.42 9.01967 30.61C10.7497 22.64 19.1097 16.1899 28.0697 16.5099C36.6597 16.8099 44.4597 23.2699 45.8697 31.11H45.8797Z" stroke="#797979" stroke-width="1.6" stroke-linecap="round" stroke-linejoin="round"/>
<path d="M35.8798 32.32C35.5398 33.46 35.6098 35.63 35.9198 37C36.0798 37.69 37.5598 39.01 38.7598 37.54C39.9598 36.07 39.3898 32.23 38.3998 31.35C37.6198 30.65 36.2698 31.01 35.8798 32.32Z" fill="#797979" stroke="#797979" stroke-width="1.67" stroke-miterlimit="10"/>
<path d="M18.4797 32.32C18.8197 33.46 18.7497 35.63 18.4397 37C18.2797 37.69 16.7997 39.01 15.5997 37.54C14.3997 36.06 14.9697 32.23 15.9597 31.35C16.7397 30.65 18.0897 31.01 18.4797 32.32Z" fill="#797979" stroke="#797979" stroke-width="1.67" stroke-miterlimit="10"/>
<path d="M19.58 40.87C20.2 42.28 22.03 42.67 23.42 42.57C24.26 42.51 25.03 42.24 25.84 42.01C26.76 41.75 27.56 41.85 28.47 42.11C29.88 42.51 31.15 42.79 32.59 42.33C33.55 42.02 34.92 41.5 35.18 40.4C35.4 39.46 33.95 39.06 33.73 40C33.6 40.57 32.23 40.89 31.75 41.01C30.51 41.33 29.35 40.73 28.16 40.47C26.79 40.18 25.69 40.52 24.38 40.88C23.32 41.17 21.42 41.33 20.88 40.1C20.49 39.22 19.2 39.98 19.58 40.86V40.87Z" fill="#797979"/>
<path d="M12.2305 36.92C12.2305 36.92 6.34047 34.38 3.48047 34.53" stroke="#797979" stroke-width="1.34" stroke-linecap="round" stroke-linejoin="round"/>
<path d="M12.1097 38.38C12.1097 38.38 6.02973 38.02 3.21973 39.19" stroke="#797979" stroke-width="1.34" stroke-linecap="round" stroke-linejoin="round"/>
<path d="M41.9502 36.92C41.9502 36.92 47.8402 34.38 50.7002 34.53" stroke="#797979" stroke-width="1.34" stroke-linecap="round" stroke-linejoin="round"/>
<path d="M42.0801 38.38C42.0801 38.38 48.1601 38.02 50.9701 39.19" stroke="#797979" stroke-width="1.34" stroke-linecap="round" stroke-linejoin="round"/>
<path d="M14.7601 23.81C14.7601 23.81 4.03012 12.11 8.91012 5.28996C12.1201 0.799962 16.7101 4.30996 17.6901 9.18996C18.4801 13.13 19.6401 20.89 19.6401 20.89" fill="#EBEBEB"/>
<mask id="mask1_2253_12412" style="mask-type:luminance" maskUnits="userSpaceOnUse" x="7" y="3" width="13" height="21">
<path d="M14.7601 23.81C14.7601 23.81 4.03012 12.11 8.91012 5.28996C12.1201 0.799962 16.7101 4.30996 17.6901 9.18996C18.4801 13.13 19.6401 20.89 19.6401 20.89" fill="white"/>
</mask>
<g mask="url(#mask1_2253_12412)">
<path d="M16.9302 22.47L14.4502 23.43C14.4502 23.43 9.49019 16.88 8.94019 14.14C8.39019 11.4 6.45019 7.48996 10.3502 9.43996C14.2502 11.39 16.9302 22.47 16.9302 22.47Z" fill="#E2E2E2"/>
</g>
<path d="M14.7601 23.81C14.7601 23.81 4.03012 12.11 8.91012 5.28996C12.1201 0.799962 16.7101 4.30996 17.6901 9.18996C18.4801 13.13 19.6401 20.89 19.6401 20.89" stroke="#797979" stroke-width="1.6" stroke-linecap="round" stroke-linejoin="round"/>
<path d="M16.7097 22.84C16.7097 22.84 13.7797 14.06 12.8097 12.11C11.8397 10.16 9.87969 8.21004 7.92969 9.18004" stroke="#797979" stroke-width="1.6" stroke-linecap="round" stroke-linejoin="round"/>
<path d="M40.7902 23.81C40.7902 23.81 51.5202 12.11 46.6402 5.27995C43.4302 0.789953 38.8402 4.29995 37.8602 9.17995C37.0702 13.12 35.9102 20.88 35.9102 20.88" fill="#EBEBEB"/>
<mask id="mask2_2253_12412" style="mask-type:luminance" maskUnits="userSpaceOnUse" x="35" y="3" width="13" height="21">
<path d="M40.7902 23.81C40.7902 23.81 51.5202 12.11 46.6402 5.27995C43.4302 0.789953 38.8402 4.29995 37.8602 9.17995C37.0702 13.12 35.9102 20.88 35.9102 20.88" fill="white"/>
</mask>
<g mask="url(#mask2_2253_12412)">
<path d="M38.6299 22.47L41.1099 23.43C41.1099 23.43 46.0699 16.88 46.6199 14.14C47.1699 11.4 49.1099 7.48996 45.2099 9.43996C41.3099 11.39 38.6299 22.47 38.6299 22.47Z" fill="#E2E2E2"/>
</g>
<path d="M40.7902 23.81C40.7902 23.81 51.5202 12.11 46.6402 5.27995C43.4302 0.789953 38.8402 4.29995 37.8602 9.17995C37.0702 13.12 35.9102 20.88 35.9102 20.88" stroke="#797979" stroke-width="1.6" stroke-linecap="round" stroke-linejoin="round"/>
<path d="M38.8398 22.84C38.8398 22.84 41.7698 14.06 42.7398 12.11C43.7098 10.16 45.6698 8.21004 47.6198 9.18004" stroke="#797979" stroke-width="1.6" stroke-linecap="round" stroke-linejoin="round"/>
</g>
<defs>
<clipPath id="clip0_2253_12412">
<rect width="54.18" height="50.44" fill="white"/>
</clipPath>
</defs>
</svg>
