<svg width="55" height="45" viewBox="0 0 55 45" fill="none" xmlns="http://www.w3.org/2000/svg">
<g clip-path="url(#clip0_2253_12445)">
<path d="M51.1601 33.38C49.7701 32.8 47.5801 32.59 45.7201 32.53C45.9701 31.66 46.1201 30.8 46.2101 29.99L50.9001 28.71C49.6701 28.64 47.8801 29.08 46.2401 29.59C46.4201 27.42 46.1401 25.71 46.0601 25.28C45.6001 22.75 44.4701 20.36 42.8701 18.28C46.9001 16.04 47.8001 11.36 47.3301 8.44004C47.3601 7.99004 47.3601 7.79004 47.3601 7.79004C47.3601 7.79004 47.2901 7.76004 47.1801 7.72004C47.0801 7.36004 46.9601 7.05004 46.8301 6.79004C46.2201 4.90004 42.4001 1.97004 39.7701 4.04004C38.9301 4.59004 38.1801 5.51004 37.5901 6.90004C36.6401 9.17004 36.0201 11.05 35.6201 12.48C33.3301 11.4 30.8201 10.75 28.2301 10.66C25.0601 10.55 21.9701 11.3 19.2201 12.64C18.8201 11.18 18.1901 9.25004 17.2001 6.90004C16.6101 5.51004 15.8601 4.58004 15.0201 4.04004C12.3901 1.97004 8.57008 4.90004 7.96008 6.79004C7.82008 7.05004 7.70008 7.37004 7.61008 7.72004C7.50008 7.76004 7.43008 7.79004 7.43008 7.79004C7.43008 7.79004 7.43008 7.99004 7.46008 8.44004C6.99008 11.38 7.91008 16.14 12.0501 18.35C12.0901 18.37 12.1301 18.39 12.1601 18.41C10.7101 20.33 9.65008 22.49 9.15008 24.79C9.06008 25.21 8.65008 27.26 8.87008 29.8C7.07008 29.2 4.98008 28.65 3.59008 28.72L8.91008 30.17C8.99008 30.93 9.14008 31.72 9.36008 32.52C7.39008 32.55 4.87008 32.74 3.33008 33.38L9.45008 32.82C9.90008 34.29 10.6201 35.79 11.7801 37.13C15.4901 41.42 21.2101 41.42 27.5201 41.42C33.7601 41.42 39.5001 41.42 43.2601 37.13C44.4201 35.8 45.1501 34.32 45.6101 32.87L51.1601 33.38Z" stroke="white" stroke-width="6.67" stroke-linecap="round" stroke-linejoin="round"/>
<path d="M46.5205 25.36C46.6905 26.28 47.7605 32.7699 43.6405 37.4799C39.8005 41.8799 33.9205 41.8799 27.5305 41.8699C21.0705 41.8699 15.2205 41.8699 11.4205 37.4799C7.16047 32.5599 8.54047 25.6799 8.72047 24.8499C10.4905 16.6699 19.0705 10.0699 28.2605 10.3899C37.0705 10.6999 45.0605 17.33 46.5205 25.36Z" fill="#D1D1D1"/>
<mask id="mask0_2253_12445" style="mask-type:luminance" maskUnits="userSpaceOnUse" x="8" y="10" width="39" height="32">
<path d="M46.5205 25.36C46.6905 26.28 47.7605 32.7699 43.6405 37.4799C39.8005 41.8799 33.9205 41.8799 27.5305 41.8699C21.0705 41.8699 15.2205 41.8699 11.4205 37.4799C7.16047 32.5599 8.54047 25.6799 8.72047 24.8499C10.4905 16.6699 19.0705 10.0699 28.2605 10.3899C37.0705 10.6999 45.0605 17.33 46.5205 25.36Z" fill="white"/>
</mask>
<g mask="url(#mask0_2253_12445)">
<path d="M14.31 28.1299C16.69 28.2199 19.06 31.0399 18.33 33.6399C17.77 35.6499 15.57 36.8299 13.58 36.6599C12.19 36.5499 10.54 35.7499 9.97002 34.2899C8.97002 31.7699 11.48 28.0099 14.31 28.1199V28.1299Z" fill="#B3B3B3"/>
<path d="M41.4601 28.2599C43.8401 28.3499 46.2101 31.1599 45.4801 33.7699C44.9201 35.7799 42.7201 36.9499 40.7301 36.7899C39.3401 36.6799 37.7001 35.8799 37.1201 34.4199C36.1301 31.8999 38.6301 28.1499 41.4601 28.2599Z" fill="#B3B3B3"/>
</g>
<path d="M46.5205 25.36C46.6905 26.28 47.7605 32.7699 43.6405 37.4799C39.8005 41.8799 33.9205 41.8799 27.5305 41.8699C21.0705 41.8699 15.2205 41.8699 11.4205 37.4799C7.16047 32.5599 8.54047 25.6799 8.72047 24.8499C10.4905 16.6699 19.0705 10.0699 28.2605 10.3899C37.0705 10.6999 45.0605 17.33 46.5205 25.36Z" stroke="#797979" stroke-width="1.64" stroke-linecap="round" stroke-linejoin="round"/>
<path d="M36.27 26.6C35.92 27.77 35.99 29.99 36.31 31.4C36.47 32.11 37.99 33.46 39.23 31.95C40.47 30.44 39.87 26.51 38.86 25.6C38.06 24.89 36.68 25.25 36.28 26.59L36.27 26.6Z" fill="#797979" stroke="#797979" stroke-width="1.71" stroke-miterlimit="10"/>
<path d="M18.4196 26.6C18.7696 27.77 18.6996 29.99 18.3796 31.4C18.2196 32.11 16.6996 33.46 15.4596 31.95C14.2296 30.44 14.8196 26.51 15.8296 25.6C16.6296 24.89 18.0096 25.25 18.4096 26.59L18.4196 26.6Z" fill="#797979" stroke="#797979" stroke-width="1.71" stroke-miterlimit="10"/>
<path d="M19.55 35.38C20.19 36.83 22.06 37.23 23.49 37.13C24.35 37.07 25.15 36.79 25.97 36.56C26.92 36.3 27.73 36.4 28.66 36.66C30.11 37.07 31.41 37.36 32.88 36.89C33.86 36.57 35.27 36.04 35.53 34.91C35.76 33.95 34.27 33.53 34.04 34.5C33.9 35.08 32.51 35.41 32.01 35.54C30.74 35.86 29.55 35.25 28.33 34.99C26.93 34.69 25.8 35.04 24.46 35.41C23.38 35.71 21.43 35.87 20.87 34.61C20.47 33.7 19.14 34.49 19.54 35.39L19.55 35.38Z" fill="#797979"/>
<path d="M35.0996 15.56C35.0996 15.56 36.1396 11.45 38.5196 5.79003C40.8996 0.130027 46.5296 4.07003 47.2996 6.43003C48.3796 9.76003 48.0496 19.52 37.6296 19.5L35.0996 15.56Z" fill="url(#paint0_linear_2253_12445)"/>
<path d="M44.9699 8.29004C44.9699 8.29004 41.9499 10.97 41.4599 13.78C40.8599 17.16 39.3199 18.79 38.4199 19.26" stroke="#797979" stroke-width="1.6" stroke-linecap="round" stroke-linejoin="round"/>
<path d="M47.8495 7.45994C47.8495 7.45994 45.5095 6.16994 43.2595 10.1899C41.0095 14.2099 40.6495 16.6599 40.1195 17.7699C39.5895 18.8799 39.2695 19.4999 39.2695 19.4999C39.2695 19.4999 46.1295 17.6899 47.0195 13.3799C47.9095 9.06994 47.8595 7.45994 47.8595 7.45994H47.8495Z" fill="url(#paint1_linear_2253_12445)"/>
<path d="M35.0996 15.5601C35.0996 15.5601 35.4596 12.2101 37.8396 6.54006C40.2196 0.880055 45.3696 2.78005 47.2996 6.43005C48.9196 9.49005 48.0496 19.5201 37.6296 19.5001" stroke="#797979" stroke-width="1.62" stroke-linecap="round" stroke-linejoin="round"/>
<path d="M44.9696 8.29004C44.9696 8.29004 42.6296 8.04004 41.2696 14.06C40.5096 17.4 38.7496 18.85 37.8496 19.32" stroke="#797979" stroke-width="1.6" stroke-linecap="round" stroke-linejoin="round"/>
<path d="M19.7097 15.56C19.7097 15.56 18.6697 11.45 16.2897 5.79003C13.9097 0.130027 8.27974 4.07003 7.50974 6.43003C6.42974 9.76003 6.75974 19.52 17.1797 19.5L19.7097 15.56Z" fill="url(#paint2_linear_2253_12445)"/>
<path d="M9.83984 8.29004C9.83984 8.29004 12.8598 10.97 13.3498 13.78C13.9498 17.16 15.4898 18.79 16.3898 19.26" stroke="#797979" stroke-width="1.6" stroke-linecap="round" stroke-linejoin="round"/>
<path d="M6.96047 7.45994C6.96047 7.45994 9.30047 6.16994 11.5505 10.1899C13.8005 14.2099 14.1605 16.6599 14.6905 17.7699C15.2205 18.8799 15.5405 19.4999 15.5405 19.4999C15.5405 19.4999 8.68047 17.6899 7.79047 13.3799C6.91047 9.06994 6.95047 7.45994 6.95047 7.45994H6.96047Z" fill="url(#paint3_linear_2253_12445)"/>
<path d="M19.7097 15.5601C19.7097 15.5601 19.3497 12.2101 16.9697 6.54006C14.5897 0.880055 9.43968 2.78005 7.50968 6.43005C5.88968 9.49005 6.75968 19.5201 17.1797 19.5001" stroke="#797979" stroke-width="1.62" stroke-linecap="round" stroke-linejoin="round"/>
<path d="M9.83984 8.29004C9.83984 8.29004 12.1798 8.04004 13.5398 14.06C14.2998 17.4 16.0598 18.85 16.9598 19.32" stroke="#797979" stroke-width="1.6" stroke-linecap="round" stroke-linejoin="round"/>
<path d="M12.0003 31.32C12.0003 31.32 5.96027 28.72 3.03027 28.87" stroke="#797979" stroke-width="1.37" stroke-linecap="round" stroke-linejoin="round"/>
<path d="M11.8795 32.8099C11.8795 32.8099 5.63953 32.4399 2.76953 33.6399" stroke="#797979" stroke-width="1.37" stroke-linecap="round" stroke-linejoin="round"/>
<path d="M42.4902 31.32C42.4902 31.32 48.5302 28.72 51.4602 28.87" stroke="#797979" stroke-width="1.37" stroke-linecap="round" stroke-linejoin="round"/>
<path d="M42.6201 32.8099C42.6201 32.8099 48.8601 32.4399 51.7301 33.6399" stroke="#797979" stroke-width="1.37" stroke-linecap="round" stroke-linejoin="round"/>
</g>
<defs>
<linearGradient id="paint0_linear_2253_12445" x1="38.6778" y1="15.5948" x2="42.3124" y2="10.5059" gradientUnits="userSpaceOnUse">
<stop stop-color="#D1D1D1"/>
<stop offset="0.21" stop-color="#BABABA"/>
<stop offset="0.74" stop-color="#848484"/>
<stop offset="1" stop-color="#707070"/>
</linearGradient>
<linearGradient id="paint1_linear_2253_12445" x1="39.0883" y1="19.3553" x2="45.5175" y2="11.6448" gradientUnits="userSpaceOnUse">
<stop stop-color="#EAEAEA"/>
<stop offset="1" stop-color="#887C7C"/>
</linearGradient>
<linearGradient id="paint2_linear_2253_12445" x1="16.1374" y1="15.5924" x2="12.5124" y2="10.501" gradientUnits="userSpaceOnUse">
<stop stop-color="#D1D1D1"/>
<stop offset="0.21" stop-color="#BABABA"/>
<stop offset="0.74" stop-color="#848484"/>
<stop offset="1" stop-color="#707070"/>
</linearGradient>
<linearGradient id="paint3_linear_2253_12445" x1="15.725" y1="19.3433" x2="9.29828" y2="11.6424" gradientUnits="userSpaceOnUse">
<stop stop-color="#E1E1E1"/>
<stop offset="1" stop-color="#9B9B9B"/>
</linearGradient>
<clipPath id="clip0_2253_12445">
<rect width="54.5" height="44.76" fill="white"/>
</clipPath>
</defs>
</svg>
