<svg width="55" height="45" viewBox="0 0 55 45" fill="none" xmlns="http://www.w3.org/2000/svg">
<g clip-path="url(#clip0_2296_12351)">
<path d="M51.16 33.3781C49.77 32.7981 47.58 32.5881 45.72 32.5281C45.97 31.6581 46.12 30.7981 46.21 29.9881L50.9 28.7081C49.67 28.6381 47.88 29.0781 46.24 29.5881C46.42 27.4181 46.14 25.7081 46.06 25.2781C45.6 22.7481 44.47 20.3581 42.87 18.2781C46.9 16.0381 47.8 11.3581 47.33 8.43809C47.36 7.98809 47.36 7.78809 47.36 7.78809C47.36 7.78809 47.29 7.75809 47.18 7.71809C47.08 7.35809 46.96 7.04809 46.83 6.78809C46.22 4.89809 42.4 1.96809 39.77 4.03809C38.93 4.58809 38.18 5.50809 37.59 6.89809C36.64 9.16809 36.02 11.0481 35.62 12.4781C33.33 11.3981 30.82 10.7481 28.23 10.6581C25.06 10.5481 21.97 11.2981 19.22 12.6381C18.82 11.1781 18.19 9.24809 17.2 6.89809C16.61 5.50809 15.86 4.57809 15.02 4.03809C12.39 1.96809 8.57002 4.89809 7.96002 6.78809C7.82002 7.04809 7.70002 7.36809 7.61002 7.71809C7.50002 7.75809 7.43002 7.78809 7.43002 7.78809C7.43002 7.78809 7.43002 7.98809 7.46002 8.43809C6.99002 11.3781 7.91002 16.1381 12.05 18.3481C12.09 18.3681 12.13 18.3881 12.16 18.4081C10.71 20.3281 9.65002 22.4881 9.15002 24.7881C9.06002 25.2081 8.65002 27.2581 8.87002 29.7981C7.07002 29.1981 4.98002 28.6481 3.59002 28.7181L8.91002 30.1681C8.99002 30.9281 9.14002 31.7181 9.36002 32.5181C7.39002 32.5481 4.87002 32.7381 3.33002 33.3781L9.45002 32.8181C9.90002 34.2881 10.62 35.7881 11.78 37.1281C15.49 41.4181 21.21 41.4181 27.52 41.4181C33.76 41.4181 39.5 41.4181 43.26 37.1281C44.42 35.7981 45.15 34.3181 45.61 32.8681L51.16 33.3781Z" stroke="white" stroke-width="6.67" stroke-linecap="round" stroke-linejoin="round"/>
<path d="M46.52 25.3562C46.69 26.2762 47.76 32.7662 43.64 37.4762C39.8 41.8762 33.92 41.8762 27.53 41.8662C21.07 41.8662 15.22 41.8662 11.42 37.4762C7.15998 32.5562 8.53998 25.6762 8.71998 24.8462C10.49 16.6662 19.07 10.0662 28.26 10.3862C37.07 10.6962 45.06 17.3262 46.52 25.3562Z" fill="#D1D1D1"/>
<mask id="mask0_2296_12351" style="mask-type:luminance" maskUnits="userSpaceOnUse" x="8" y="10" width="39" height="32">
<path d="M46.52 25.3562C46.69 26.2762 47.76 32.7662 43.64 37.4762C39.8 41.8762 33.92 41.8762 27.53 41.8662C21.07 41.8662 15.22 41.8662 11.42 37.4762C7.15998 32.5562 8.53998 25.6762 8.71998 24.8462C10.49 16.6662 19.07 10.0662 28.26 10.3862C37.07 10.6962 45.06 17.3262 46.52 25.3562Z" fill="white"/>
</mask>
<g mask="url(#mask0_2296_12351)">
<path d="M14.31 28.1295C16.69 28.2195 19.06 31.0395 18.33 33.6395C17.77 35.6495 15.57 36.8295 13.58 36.6595C12.19 36.5495 10.54 35.7495 9.96996 34.2895C8.96996 31.7695 11.48 28.0095 14.31 28.1195V28.1295Z" fill="#D8ABAB"/>
<path d="M41.4599 28.2602C43.8399 28.3502 46.2099 31.1602 45.4799 33.7702C44.9199 35.7802 42.7199 36.9502 40.7299 36.7902C39.3399 36.6802 37.6999 35.8802 37.1199 34.4202C36.1299 31.9002 38.6299 28.1502 41.4599 28.2602Z" fill="#D8ABAB"/>
</g>
<path d="M46.52 25.3562C46.69 26.2762 47.76 32.7662 43.64 37.4762C39.8 41.8762 33.92 41.8762 27.53 41.8662C21.07 41.8662 15.22 41.8662 11.42 37.4762C7.15998 32.5562 8.53998 25.6762 8.71998 24.8462C10.49 16.6662 19.07 10.0662 28.26 10.3862C37.07 10.6962 45.06 17.3262 46.52 25.3562Z" stroke="#543816" stroke-width="1.64" stroke-linecap="round" stroke-linejoin="round"/>
<path d="M36.27 26.5989C35.92 27.7689 35.99 29.9889 36.31 31.3989C36.47 32.1089 37.99 33.4589 39.23 31.9489C40.47 30.4389 39.87 26.5089 38.86 25.5989C38.06 24.8889 36.68 25.2489 36.28 26.5889L36.27 26.5989Z" fill="#543816" stroke="#543816" stroke-width="1.71" stroke-miterlimit="10"/>
<path d="M18.42 26.5989C18.77 27.7689 18.7 29.9889 18.38 31.3989C18.22 32.1089 16.7 33.4589 15.46 31.9489C14.23 30.4389 14.82 26.5089 15.83 25.5989C16.63 24.8889 18.01 25.2489 18.41 26.5889L18.42 26.5989Z" fill="#543816" stroke="#543816" stroke-width="1.71" stroke-miterlimit="10"/>
<path d="M19.55 35.3765C20.19 36.8265 22.06 37.2265 23.49 37.1265C24.35 37.0665 25.15 36.7865 25.97 36.5565C26.92 36.2965 27.73 36.3965 28.66 36.6565C30.11 37.0665 31.41 37.3565 32.88 36.8865C33.86 36.5665 35.27 36.0365 35.53 34.9065C35.76 33.9465 34.27 33.5265 34.04 34.4965C33.9 35.0765 32.51 35.4065 32.01 35.5365C30.74 35.8565 29.55 35.2465 28.33 34.9865C26.93 34.6865 25.8 35.0365 24.46 35.4065C23.38 35.7065 21.43 35.8665 20.87 34.6065C20.47 33.6965 19.14 34.4865 19.54 35.3865L19.55 35.3765Z" fill="#543816"/>
<path d="M35.1 15.56C35.1 15.56 36.14 11.45 38.52 5.79003C40.9 0.130027 46.53 4.07003 47.3 6.43003C48.38 9.76003 48.05 19.52 37.63 19.5L35.1 15.56Z" fill="url(#paint0_linear_2296_12351)"/>
<path d="M44.97 8.28906C44.97 8.28906 41.95 10.9691 41.46 13.7791C40.86 17.1591 39.32 18.7891 38.42 19.2591" stroke="#543816" stroke-width="1.6" stroke-linecap="round" stroke-linejoin="round"/>
<path d="M47.85 7.46275C47.85 7.46275 45.51 6.17275 43.26 10.1927C41.01 14.2127 40.65 16.6627 40.12 17.7727C39.59 18.8827 39.27 19.5027 39.27 19.5027C39.27 19.5027 46.13 17.6927 47.02 13.3828C47.91 9.07275 47.86 7.46275 47.86 7.46275H47.85Z" fill="url(#paint1_linear_2296_12351)"/>
<path d="M35.1 15.5588C35.1 15.5588 35.46 12.2088 37.84 6.53883C40.22 0.878834 45.37 2.77883 47.3 6.42883C48.92 9.48883 48.05 19.5188 37.63 19.4988" stroke="#543816" stroke-width="1.62" stroke-linecap="round" stroke-linejoin="round"/>
<path d="M44.97 8.29053C44.97 8.29053 42.63 8.04053 41.27 14.0605C40.51 17.4005 38.75 18.8505 37.85 19.3205" stroke="#543816" stroke-width="1.6" stroke-linecap="round" stroke-linejoin="round"/>
<path d="M19.71 15.56C19.71 15.56 18.67 11.45 16.29 5.79003C13.91 0.130027 8.27999 4.07003 7.50999 6.43003C6.42999 9.76003 6.75999 19.52 17.18 19.5L19.71 15.56Z" fill="url(#paint2_linear_2296_12351)"/>
<path d="M9.84003 8.28906C9.84003 8.28906 12.86 10.9691 13.35 13.7791C13.95 17.1591 15.49 18.7891 16.39 19.2591" stroke="#543816" stroke-width="1.6" stroke-linecap="round" stroke-linejoin="round"/>
<path d="M6.95999 7.46275C6.95999 7.46275 9.29999 6.17275 11.55 10.1927C13.8 14.2127 14.16 16.6627 14.69 17.7727C15.22 18.8827 15.54 19.5027 15.54 19.5027C15.54 19.5027 8.67998 17.6927 7.78998 13.3828C6.90998 9.07275 6.94998 7.46275 6.94998 7.46275H6.95999Z" fill="url(#paint3_linear_2296_12351)"/>
<path d="M19.71 15.5588C19.71 15.5588 19.35 12.2088 16.97 6.53883C14.59 0.878834 9.43999 2.77883 7.50999 6.42883C5.88999 9.48883 6.75999 19.5188 17.18 19.4988" stroke="#543816" stroke-width="1.62" stroke-linecap="round" stroke-linejoin="round"/>
<path d="M9.84003 8.29053C9.84003 8.29053 12.18 8.04053 13.54 14.0605C14.3 17.4005 16.06 18.8505 16.96 19.3205" stroke="#543816" stroke-width="1.6" stroke-linecap="round" stroke-linejoin="round"/>
<path d="M12 31.3234C12 31.3234 5.96003 28.7234 3.03003 28.8734" stroke="#543816" stroke-width="1.37" stroke-linecap="round" stroke-linejoin="round"/>
<path d="M11.88 32.8116C11.88 32.8116 5.64002 32.4416 2.77002 33.6416" stroke="#543816" stroke-width="1.37" stroke-linecap="round" stroke-linejoin="round"/>
<path d="M42.49 31.3234C42.49 31.3234 48.53 28.7234 51.46 28.8734" stroke="#543816" stroke-width="1.37" stroke-linecap="round" stroke-linejoin="round"/>
<path d="M42.62 32.8116C42.62 32.8116 48.86 32.4416 51.73 33.6416" stroke="#543816" stroke-width="1.37" stroke-linecap="round" stroke-linejoin="round"/>
</g>
<defs>
<linearGradient id="paint0_linear_2296_12351" x1="38.6782" y1="15.5948" x2="42.3128" y2="10.5059" gradientUnits="userSpaceOnUse">
<stop stop-color="#D1D1D1"/>
<stop offset="0.21" stop-color="#BABABA"/>
<stop offset="0.74" stop-color="#848484"/>
<stop offset="1" stop-color="#707070"/>
</linearGradient>
<linearGradient id="paint1_linear_2296_12351" x1="39.0888" y1="19.3581" x2="45.518" y2="11.6476" gradientUnits="userSpaceOnUse">
<stop stop-color="#E2BCBC"/>
<stop offset="0.19" stop-color="#DDB8B8"/>
<stop offset="0.41" stop-color="#CEAEAE"/>
<stop offset="0.66" stop-color="#B69D9D"/>
<stop offset="0.91" stop-color="#958585"/>
<stop offset="1" stop-color="#887C7C"/>
</linearGradient>
<linearGradient id="paint2_linear_2296_12351" x1="16.1376" y1="15.5924" x2="12.5127" y2="10.501" gradientUnits="userSpaceOnUse">
<stop stop-color="#D1D1D1"/>
<stop offset="0.21" stop-color="#BABABA"/>
<stop offset="0.74" stop-color="#848484"/>
<stop offset="1" stop-color="#707070"/>
</linearGradient>
<linearGradient id="paint3_linear_2296_12351" x1="15.7245" y1="19.3461" x2="9.2978" y2="11.6452" gradientUnits="userSpaceOnUse">
<stop stop-color="#E2BCBC"/>
<stop offset="0.19" stop-color="#DDB8B8"/>
<stop offset="0.41" stop-color="#CEAEAE"/>
<stop offset="0.66" stop-color="#B69D9D"/>
<stop offset="0.91" stop-color="#958585"/>
<stop offset="1" stop-color="#887C7C"/>
</linearGradient>
<clipPath id="clip0_2296_12351">
<rect width="54.5" height="44.76" fill="white"/>
</clipPath>
</defs>
</svg>
