<svg width="146" height="110" viewBox="0 0 146 110" fill="none" xmlns="http://www.w3.org/2000/svg">
<g clip-path="url(#clip0_2148_7732)">
<path d="M50.84 103.542C50.84 103.542 33.08 93.452 25.43 88.872C17.78 84.292 6.11 74.902 4.47 67.642C2.83 60.372 7.03 62.232 7.65 61.572C8.27 60.912 7.34 56.822 9.23 56.122C11.13 55.422 10.77 56.482 11.94 54.862C13.11 53.242 14.36 50.142 18.19 54.842C22.02 59.542 40.98 78.132 47.36 82.752" fill="#FFE9E9"/>
<path d="M50.84 103.542C50.84 103.542 33.08 93.452 25.43 88.872C17.78 84.292 6.11 74.902 4.47 67.642C2.83 60.372 7.03 62.232 7.65 61.572C8.27 60.912 7.34 56.822 9.23 56.122C11.13 55.422 10.77 56.482 11.94 54.862C13.11 53.242 14.36 50.142 18.19 54.842C22.02 59.542 40.98 78.132 47.36 82.752" stroke="#543816" stroke-width="3.53" stroke-linecap="round" stroke-linejoin="round"/>
<path d="M48.55 72.1925C48.55 72.1925 35.83 92.6125 35.83 111.663H117.03C117.03 111.663 118.03 93.6225 100.99 67.5525C100.99 67.5525 62.28 57.7925 48.55 72.1925Z" fill="#FFE9E9" stroke="#543816" stroke-width="3.53" stroke-linecap="round" stroke-linejoin="round"/>
<path d="M105.79 47.1828C105.37 39.3728 104.4 32.2428 104.4 32.2428L125.54 28.6328L126.15 40.1428C126.15 40.1428 130.77 44.7328 121.22 47.7428C114.26 49.9428 105.78 47.1828 105.78 47.1828H105.79Z" fill="#F2A7A7" stroke="#543816" stroke-width="3.49" stroke-linecap="round" stroke-linejoin="round"/>
<path d="M125.55 28.6277C125.55 28.6277 132.4 26.6977 135.95 26.3477C139.5 25.9977 143.03 28.2977 137.41 31.4677C131.8 34.6377 131.6 34.0977 131.6 34.0977C131.6 34.0977 136.08 40.4077 121.27 39.7977C121.27 39.7977 121.56 45.5577 113.91 42.0377" fill="#F2A7A7"/>
<path d="M125.55 28.6277C125.55 28.6277 132.4 26.6977 135.95 26.3477C139.5 25.9977 143.03 28.2977 137.41 31.4677C131.8 34.6377 131.6 34.0977 131.6 34.0977C131.6 34.0977 136.08 40.4077 121.27 39.7977C121.27 39.7977 121.56 45.5577 113.91 42.0377" stroke="#543816" stroke-width="3.49" stroke-linecap="round" stroke-linejoin="round"/>
<path d="M100.5 21.989C100.5 21.989 109.08 23.769 119.84 18.299C130.6 12.829 138.49 6.47897 140.92 9.35897C144.35 13.429 140.7 15.979 124.12 23.939C124.12 23.939 134.5 24.439 127.73 29.789C125.28 31.729 119.67 33.339 114.17 32.079C114.17 32.079 110.47 37.949 104.98 36.699C104.98 36.699 104.81 26.519 100.5 21.979V21.989Z" fill="#F2A7A7" stroke="#523818" stroke-width="3.49" stroke-linecap="round" stroke-linejoin="round"/>
<path d="M42.58 47.1828C43 39.3728 43.97 32.2428 43.97 32.2428L22.83 28.6328L22.22 40.1428C22.22 40.1428 17.6 44.7328 27.15 47.7428C34.11 49.9428 42.59 47.1828 42.59 47.1828H42.58Z" fill="#F2A7A7" stroke="#543816" stroke-width="3.49" stroke-linecap="round" stroke-linejoin="round"/>
<path d="M22.83 28.6277C22.83 28.6277 15.98 26.6977 12.43 26.3477C8.88 25.9977 5.35 28.2977 10.97 31.4677C16.58 34.6377 16.78 34.0977 16.78 34.0977C16.78 34.0977 12.3 40.4077 27.11 39.7977C27.11 39.7977 26.82 45.5577 34.47 42.0377" fill="#F2A7A7"/>
<path d="M22.83 28.6277C22.83 28.6277 15.98 26.6977 12.43 26.3477C8.88 25.9977 5.35 28.2977 10.97 31.4677C16.58 34.6377 16.78 34.0977 16.78 34.0977C16.78 34.0977 12.3 40.4077 27.11 39.7977C27.11 39.7977 26.82 45.5577 34.47 42.0377" stroke="#543816" stroke-width="3.49" stroke-linecap="round" stroke-linejoin="round"/>
<path d="M47.87 21.9882C47.87 21.9882 39.29 23.7682 28.53 18.2982C17.76 12.8382 9.87 6.47823 7.45 9.35823C4.02 13.4282 7.67 15.9782 24.25 23.9382C24.25 23.9382 13.87 24.4382 20.64 29.7882C23.09 31.7282 28.7 33.3382 34.2 32.0782C34.2 32.0782 37.9 37.9482 43.39 36.6982C43.39 36.6982 43.56 26.5182 47.87 21.9782V21.9882Z" fill="#F2A7A7" stroke="#523818" stroke-width="3.49" stroke-linecap="round" stroke-linejoin="round"/>
<path d="M75.81 76.0662C75.81 76.0662 34.96 76.1562 30.64 58.1362C26.32 40.1162 44.09 17.2563 56.31 14.2963C63.1 12.6563 67.1 12.6562 78.1 12.6562C89.1 12.6562 104.1 17.6563 109.98 25.9463C119.9 39.9463 130.1 73.5062 75.81 76.0662Z" fill="#FFE9E9"/>
<path d="M96.44 28.6287C94.25 28.7387 93.76 32.3187 93.31 36.6787C92.69 42.6287 94.87 44.6087 95.91 45.0387C98.02 45.9187 100.03 43.1787 100.65 37.2287C101.21 31.8187 99.21 28.4987 96.44 28.6287Z" fill="#543816" stroke="#543816" stroke-width="2.99" stroke-miterlimit="10"/>
<path d="M56.27 32.7436C57.26 35.3336 57.48 40.3636 57 43.6036C56.76 45.2436 53.55 48.5536 50.51 45.3436C47.47 42.1336 48.13 33.1536 50.27 30.9436C51.96 29.1936 55.14 29.7736 56.28 32.7436H56.27Z" fill="#543816" stroke="#543816" stroke-width="2.99" stroke-miterlimit="10"/>
<path d="M111.67 63.2089C111.67 63.2089 104.82 61.8389 106.83 50.0289C107.64 45.2489 112.33 41.7089 117.13 42.1089C117.13 42.1089 119.28 54.7389 111.67 63.2089Z" fill="#FFA9A9"/>
<path d="M38.95 45.7924C33.68 45.3324 27.65 50.8824 28.53 56.8424C29.21 61.4324 33.74 64.6424 38.18 64.8324C41.28 64.9624 45.13 63.6624 46.81 60.6124C49.71 55.3224 45.23 46.3324 38.95 45.7924Z" fill="#FFA9A9"/>
<path d="M75.81 76.0707C75.81 76.0707 34.96 76.1607 30.64 58.1407C26.32 40.1207 41.31 20.0507 53.1 15.6607C62.89 12.0207 73.1 11.6607 84.1 12.6607C95.1 13.6607 106.1 20.6607 109.98 25.9507C120.12 39.8007 130.1 73.5107 75.81 76.0707Z" stroke="#543816" stroke-width="3.53" stroke-linecap="round" stroke-linejoin="round"/>
<path d="M62.88 54.1177L63.28 56.8177C63.28 56.8177 71.64 58.5177 78.27 58.1977C84.9 57.8777 91.9 54.7877 91.9 54.7877L94.03 52.3677C94.03 52.3677 77.7 48.9277 62.88 54.1177Z" fill="#EFBEB1"/>
<path d="M95.54 53.2109C74.57 63.9309 57.8 54.3709 57.8 54.3709" stroke="#543816" stroke-width="3.53" stroke-linecap="round" stroke-linejoin="round"/>
<path d="M111.25 48.3072C111.25 48.3072 107.51 54.3472 98.01 53.1472C92.29 52.4272 88.44 49.7772 78.39 50.4872C66.7 51.3172 66.76 54.2172 57.8 54.3672C48.83 54.5172 41.66 48.1172 41.66 48.1172" stroke="#543816" stroke-width="3.53" stroke-linecap="round" stroke-linejoin="round"/>
</g>
<defs>
<clipPath id="clip0_2148_7732">
<rect width="145.29" height="109.35" fill="white"/>
</clipPath>
</defs>
</svg>
