<svg width="20" height="20" viewBox="0 0 20 20" fill="none" xmlns="http://www.w3.org/2000/svg">
<path d="M15 12.5C14 12.5 13.25 12.875 12.5 13.5L8.5 11.25C8.625 10.875 8.75 10.375 8.75 10C8.75 9.625 8.625 9.125 8.5 8.75L12.5 6.5C13.25 7.125 14 7.5 15 7.5C17.125 7.5 18.75 5.875 18.75 3.75C18.75 1.625 17.125 0 15 0C12.875 0 11.25 1.625 11.25 3.75V4.375L6.875 6.75C6.375 6.5 5.75 6.25 5 6.25C3 6.25 1.25 7.875 1.25 10C1.25 12 3 13.75 5 13.75C5.75 13.75 6.375 13.5 6.875 13.25L11.25 15.625V16.25C11.25 18.375 12.875 20 15 20C17.125 20 18.75 18.375 18.75 16.25C18.75 14.125 17.125 12.5 15 12.5Z" fill="#FEFDFD"/>
</svg>
