<svg width="37" height="38" viewBox="0 0 37 38" fill="none" xmlns="http://www.w3.org/2000/svg">
<path d="M31.55 31.54C34.89 28.2 36.96 23.58 36.96 18.48C36.96 8.28 28.69 0 18.48 0C8.28 0 0 8.27 0 18.48C0 28.69 8.27 36.96 18.48 36.96C22.08 36.96 25.43 35.93 28.27 34.15L34.24 37.59L31.55 31.54Z" fill="#543816"/>
<path d="M15.4294 25.8084C15.4294 27.1008 16.477 28.1484 17.7694 28.1484C19.0617 28.1484 20.1094 27.1008 20.1094 25.8084L20.1094 10.4884C20.1094 9.19609 19.0617 8.14844 17.7694 8.14844C16.477 8.14844 15.4294 9.19609 15.4294 10.4884L15.4294 25.8084Z" fill="#F9D885"/>
<path d="M21.54 25.2093C22.4538 26.1231 23.9355 26.1231 24.8493 25.2093C25.7631 24.2955 25.7631 22.8139 24.8493 21.9001L14.0164 11.0672C13.1026 10.1534 11.621 10.1534 10.7071 11.0672C9.79332 11.981 9.79331 13.4626 10.7071 14.3764L21.54 25.2093Z" fill="#F9D885"/>
<path d="M25.4393 20.4769C26.7316 20.4769 27.7793 19.4292 27.7793 18.1369C27.7793 16.8445 26.7316 15.7969 25.4393 15.7969L10.1193 15.7969C8.82695 15.7969 7.7793 16.8445 7.7793 18.1369C7.7793 19.4292 8.82695 20.4769 10.1193 20.4769H25.4393Z" fill="#F9D885"/>
<path d="M24.8441 14.378C25.7579 13.4641 25.7579 11.9825 24.8441 11.0687C23.9303 10.1549 22.4487 10.1549 21.5348 11.0687L10.7019 21.9016C9.78812 22.8154 9.78812 24.297 10.7019 25.2108C11.6158 26.1247 13.0974 26.1247 14.0112 25.2108L24.8441 14.378Z" fill="#F9D885"/>
<path d="M17.77 20.9072C19.2998 20.9072 20.54 19.667 20.54 18.1372C20.54 16.6074 19.2998 15.3672 17.77 15.3672C16.2402 15.3672 15 16.6074 15 18.1372C15 19.667 16.2402 20.9072 17.77 20.9072Z" fill="white"/>
</svg>
