<svg width="37" height="38" viewBox="0 0 37 38" fill="none" xmlns="http://www.w3.org/2000/svg">
<path d="M5.41 31.54C2.07 28.2 0 23.58 0 18.48C0 8.28 8.27001 0 18.48 0C28.69 0 36.96 8.27 36.96 18.48C36.96 28.69 28.69 36.96 18.48 36.96C14.88 36.96 11.53 35.93 8.69 34.15L2.72 37.59L5.41 31.54Z" fill="#543816"/>
<path d="M21.5198 10.465C21.5198 9.17265 20.4722 8.125 19.1798 8.125C17.8875 8.125 16.8398 9.17265 16.8398 10.465V25.785C16.8398 27.0773 17.8875 28.125 19.1798 28.125C20.4722 28.125 21.5198 27.0773 21.5198 25.785V10.465Z" fill="#F9D885"/>
<path d="M26.2581 14.3623C27.172 13.4485 27.172 11.9669 26.2581 11.0531C25.3443 10.1392 23.8627 10.1392 22.9489 11.0531L12.116 21.8859C11.2022 22.7998 11.2022 24.2814 12.116 25.1952C13.0298 26.109 14.5114 26.109 15.4253 25.1952L26.2581 14.3623Z" fill="#F9D885"/>
<path d="M26.8495 20.4691C28.1418 20.4691 29.1895 19.4214 29.1895 18.1291C29.1895 16.8367 28.1418 15.7891 26.8495 15.7891L11.5295 15.7891C10.2371 15.7891 9.18945 16.8367 9.18945 18.1291C9.18945 19.4214 10.2371 20.4691 11.5295 20.4691H26.8495Z" fill="#F9D885"/>
<path d="M22.9482 25.2093C23.8621 26.1231 25.3437 26.1231 26.2575 25.2093C27.1713 24.2955 27.1713 22.8139 26.2575 21.9001L15.4246 11.0672C14.5108 10.1534 13.0292 10.1534 12.1153 11.0672C11.2015 11.981 11.2015 13.4626 12.1154 14.3764L22.9482 25.2093Z" fill="#F9D885"/>
<path d="M19.1899 20.8994C20.7198 20.8994 21.9599 19.6592 21.9599 18.1294C21.9599 16.5996 20.7198 15.3594 19.1899 15.3594C17.6601 15.3594 16.4199 16.5996 16.4199 18.1294C16.4199 19.6592 17.6601 20.8994 19.1899 20.8994Z" fill="white"/>
</svg>
