<svg width="86" height="87" viewBox="0 0 86 87" fill="none" xmlns="http://www.w3.org/2000/svg">
<path d="M73.01 72.98C80.74 65.24 85.52 54.56 85.52 42.76C85.52 19.15 66.38 0 42.76 0C19.14 0 0 19.14 0 42.76C0 66.38 19.14 85.52 42.76 85.52C51.09 85.52 58.85 83.13 65.42 79.02L79.23 86.99L73.01 72.99V72.98Z" fill="#543816"/>
<path d="M52.05 26.1328C47.91 26.1328 44.32 28.4328 42.49 31.8128C40.67 28.4328 37.07 26.1328 32.93 26.1328C26.95 26.1328 22.1 30.9428 22.1 36.8628C22.1 51.3828 42.49 61.4828 42.49 61.4828C42.49 61.4828 62.88 51.3828 62.88 36.8628C62.88 30.9328 58.03 26.1328 52.05 26.1328Z" fill="#D0EAB5"/>
</svg>
