<svg width="37" height="38" viewBox="0 0 37 38" fill="none" xmlns="http://www.w3.org/2000/svg">
<path d="M5.40999 31.54C2.06999 28.2 0 23.58 0 18.48C0 8.28 8.27 0 18.48 0C28.69 0 36.96 8.27 36.96 18.48C36.96 28.69 28.69 36.96 18.48 36.96C14.88 36.96 11.53 35.93 8.68999 34.15L2.71999 37.59L5.40999 31.54Z" fill="#543816"/>
<path d="M18.2095 27.9134C18.2095 21.0234 21.2695 17.9734 28.1595 17.9734C21.2695 17.9734 18.2195 14.9134 18.2195 8.02344C18.2195 14.9134 15.1595 17.9634 8.26953 17.9634C15.1595 17.9634 18.2095 21.0234 18.2095 27.9134Z" fill="#BFE2E1"/>
<path d="M18.2095 27.9134C18.2095 21.0234 21.2695 17.9734 28.1595 17.9734C21.2695 17.9734 18.2195 14.9134 18.2195 8.02344C18.2195 14.9134 15.1595 17.9634 8.26953 17.9634C15.1595 17.9634 18.2095 21.0234 18.2095 27.9134Z" stroke="#BFE2E1" stroke-width="1.73" stroke-linecap="round" stroke-linejoin="round"/>
</svg>
