<svg width="37" height="38" viewBox="0 0 37 38" fill="none" xmlns="http://www.w3.org/2000/svg">
<path d="M31.55 31.54C34.89 28.2 36.96 23.58 36.96 18.48C36.96 8.28 28.69 0 18.48 0C8.28 0 0 8.27 0 18.48C0 28.68 8.27 36.96 18.48 36.96C22.08 36.96 25.43 35.93 28.27 34.15L34.24 37.59L31.55 31.54Z" fill="#543816"/>
<path d="M18.7505 27.9034C18.7505 21.0134 15.7005 17.9634 8.81055 17.9634C15.7005 17.9634 18.7505 14.9034 18.7505 8.02344C18.7505 14.9134 21.8106 17.9634 28.6906 17.9634C21.8006 17.9634 18.7505 21.0134 18.7505 27.9034Z" fill="#BFE2E1"/>
<path d="M18.7505 27.9034C18.7505 21.0134 15.7005 17.9634 8.81055 17.9634C15.7005 17.9634 18.7505 14.9034 18.7505 8.02344C18.7505 14.9134 21.8106 17.9634 28.6906 17.9634C21.8006 17.9634 18.7505 21.0134 18.7505 27.9034Z" stroke="#BFE2E1" stroke-width="1.73" stroke-linecap="round" stroke-linejoin="round"/>
</svg>
