<svg width="44" height="44" viewBox="0 0 44 44" fill="none" xmlns="http://www.w3.org/2000/svg">
<g clip-path="url(#clip0_1923_5979)">
<path d="M9.11917 0.5H34.8808C39.6411 0.5 43.5 4.35893 43.5 9.11917V34.8808C43.5 39.6411 39.6411 43.5 34.8808 43.5H9.11917C4.35893 43.5 0.5 39.6411 0.5 34.8808V9.11917C0.5 4.35893 4.35893 0.5 9.11917 0.5Z" stroke="#D0CCC6"/>
<path d="M35.0007 22.807C35.0007 21.697 34.9088 20.8869 34.7099 20.0469H21.7764V25.0571H29.3681C29.2151 26.3023 28.3885 28.1774 26.5518 29.4374L26.526 29.6051L30.6154 32.71L30.8987 32.7377C33.5007 30.3825 35.0007 26.9173 35.0007 22.807Z" fill="#4285F4"/>
<path d="M21.7758 35.9947C25.4951 35.9947 28.6174 34.7946 30.8981 32.7245L26.5512 29.4243C25.388 30.2193 23.8267 30.7743 21.7758 30.7743C18.133 30.7743 15.0412 28.4193 13.939 25.1641L13.7775 25.1775L9.52533 28.4027L9.46973 28.5542C11.735 32.9645 16.388 35.9947 21.7758 35.9947Z" fill="#34A853"/>
<path d="M13.9387 25.1713C13.6478 24.3313 13.4795 23.4311 13.4795 22.5011C13.4795 21.571 13.6478 20.671 13.9234 19.8309L13.9157 19.652L9.6102 16.375L9.46934 16.4407C8.53571 18.2708 8 20.326 8 22.5011C8 24.6762 8.53571 26.7313 9.46934 28.5615L13.9387 25.1713Z" fill="#FBBC05"/>
<path d="M21.7758 14.2203C24.3624 14.2203 26.1073 15.3154 27.1022 16.2305L30.9899 12.5102C28.6022 10.3351 25.4951 9 21.7758 9C16.388 9 11.735 12.0302 9.46973 16.4404L13.9237 19.8307C15.0412 16.5755 18.133 14.2203 21.7758 14.2203Z" fill="#EB4335"/>
</g>
<defs>
<clipPath id="clip0_1923_5979">
<rect width="44" height="44" fill="white"/>
</clipPath>
</defs>
</svg>
