<svg width="44" height="44" viewBox="0 0 44 44" fill="none" xmlns="http://www.w3.org/2000/svg">
<g clip-path="url(#clip0_1923_5961)">
<path fill-rule="evenodd" clip-rule="evenodd" d="M9.00525 0H34.9946C39.9475 0 43.9999 4.05239 43.9999 9.00525V34.9946C43.9999 39.9475 39.9475 43.9999 34.9946 43.9999H9.00525C4.05239 44 0 39.9476 0 34.9946V9.00525C0 4.05239 4.05239 0 9.00525 0Z" fill="#3ACE01"/>
<path fill-rule="evenodd" clip-rule="evenodd" d="M21.9569 7.28906C30.8723 7.28906 38.0995 13.0763 38.0995 20.2153C38.0995 22.7089 37.2171 25.0371 35.6895 27.0117C35.614 27.1241 35.5152 27.2483 35.3907 27.3855L35.3812 27.3958C34.8594 28.0201 34.2718 28.6062 33.6257 29.1472C29.1617 33.2733 21.814 38.1858 20.8442 37.4279C20.0012 36.7691 22.2327 33.5468 19.6582 33.0105C19.4786 32.9899 19.2994 32.9678 19.1218 32.9426L19.1184 32.9424V32.9422C11.5568 31.8679 5.81445 26.5787 5.81445 20.2153C5.81422 13.0763 13.0416 7.28906 21.9569 7.28906Z" fill="white"/>
<path fill-rule="evenodd" clip-rule="evenodd" d="M12.5909 24.3343H15.8466C16.3097 24.3343 16.6885 23.9555 16.6885 23.4923V23.4221C16.6885 22.959 16.3097 22.5802 15.8466 22.5802H13.503V17.2481C13.503 16.785 13.1242 16.4062 12.6611 16.4062H12.5909C12.1278 16.4062 11.749 16.785 11.749 17.2481V23.4922C11.749 23.9555 12.1278 24.3343 12.5909 24.3343ZM32.7649 20.4204V20.3502C32.7649 19.8871 32.386 19.5083 31.9229 19.5083H29.5795V18.1753H31.9229C32.386 18.1753 32.7649 17.7965 32.7649 17.3334V17.2632C32.7649 16.8001 32.386 16.4213 31.9229 16.4213H28.6672C28.2041 16.4213 27.8253 16.8001 27.8253 17.2632V23.5073C27.8253 23.9704 28.2041 24.3493 28.6672 24.3493H31.9229C32.386 24.3493 32.7649 23.9704 32.7649 23.5073V23.437C32.7649 22.9739 32.386 22.5951 31.9229 22.5951H29.5795V21.2621H31.9229C32.386 21.2623 32.7649 20.8834 32.7649 20.4204ZM26.5038 24.0833L26.5041 24.083C26.6598 23.9259 26.7473 23.7137 26.7475 23.4925V17.2484C26.7475 16.7853 26.3687 16.4065 25.9055 16.4065H25.8353C25.3722 16.4065 24.9934 16.7853 24.9934 17.2484V20.9137L21.9504 16.8322C21.805 16.5784 21.5313 16.4065 21.2194 16.4065H21.1491C20.686 16.4065 20.3071 16.7853 20.3071 17.2484V23.4925C20.3071 23.9556 20.6859 24.3345 21.1491 24.3345H21.2194C21.6825 24.3345 22.0612 23.9556 22.0612 23.4925V19.7585L25.1262 23.9447C25.145 23.9741 25.1656 24.0023 25.1879 24.0291L25.188 24.0293C25.2722 24.1441 25.3874 24.2229 25.5158 24.271C25.6144 24.3117 25.7223 24.3343 25.8351 24.3343H25.9054C26.0426 24.3344 26.1777 24.3007 26.2987 24.236C26.3829 24.196 26.4539 24.1443 26.5038 24.0833ZM18.2099 24.3343H18.2801C18.7432 24.3343 19.122 23.9555 19.122 23.4923V17.2482C19.122 16.7851 18.7432 16.4064 18.2801 16.4064H18.2099C17.7468 16.4064 17.3679 16.7851 17.3679 17.2482V23.4923C17.3679 23.9555 17.7468 24.3343 18.2099 24.3343Z" fill="#3ACE01"/>
</g>
<defs>
<clipPath id="clip0_1923_5961">
<rect width="44" height="44" fill="white"/>
</clipPath>
</defs>
</svg>
