<svg width="38" height="38" viewBox="0 0 38 38" fill="none" xmlns="http://www.w3.org/2000/svg">
<g clip-path="url(#clip0_1804_10910)">
<path d="M30.1244 0H7.87565C3.52605 0 0 3.52605 0 7.87565V30.1244C0 34.474 3.52605 38 7.87565 38H30.1244C34.474 38 38 34.474 38 30.1244V7.87565C38 3.52605 34.474 0 30.1244 0Z" fill="#1778F2"/>
<path d="M20.515 29.7245V19.5541H23.9289L24.4408 15.5905H20.515V13.0599C20.515 11.9124 20.8338 11.1303 22.4794 11.1303H24.5782V7.5863C23.5623 7.47882 22.5413 7.42675 21.5197 7.43035C18.4935 7.43035 16.4218 9.2774 16.4218 12.6696V15.5905H12.9993V19.5541H16.4218V29.7245H20.515Z" fill="#FDFDFD"/>
</g>
<defs>
<clipPath id="clip0_1804_10910">
<rect width="38" height="38" fill="white"/>
</clipPath>
</defs>
</svg>
