<svg width="1440" height="133" viewBox="0 0 1440 133" fill="none" xmlns="http://www.w3.org/2000/svg">
<g clip-path="url(#clip0_1423_7834)">
<rect width="1440" height="133" fill="#93C9C8"/>
<path d="M676.056 87.488H679.08V98.648C679.08 99.24 679.16 99.616 679.32 99.776C679.48 99.92 679.848 99.992 680.424 99.992C680.568 99.992 680.792 99.992 681.096 99.992C681.416 99.992 681.752 99.992 682.104 99.992C682.472 99.992 682.816 99.992 683.136 99.992C683.456 99.992 683.696 99.992 683.856 99.992C684.272 99.992 684.584 99.88 684.792 99.656C685 99.416 685.152 98.976 685.248 98.336C685.344 97.68 685.416 96.72 685.464 95.456C685.688 95.616 685.96 95.784 686.28 95.96C686.6 96.12 686.928 96.264 687.264 96.392C687.616 96.52 687.92 96.616 688.176 96.68C688.064 98.2 687.872 99.4 687.6 100.28C687.344 101.144 686.944 101.76 686.4 102.128C685.856 102.496 685.088 102.68 684.096 102.68C683.952 102.68 683.744 102.68 683.472 102.68C683.2 102.68 682.896 102.68 682.56 102.68C682.224 102.68 681.888 102.68 681.552 102.68C681.232 102.68 680.936 102.68 680.664 102.68C680.392 102.68 680.192 102.68 680.064 102.68C679.024 102.68 678.208 102.552 677.616 102.296C677.04 102.056 676.632 101.64 676.392 101.048C676.168 100.472 676.056 99.672 676.056 98.648V87.488ZM671.712 88.88L674.544 89.432C674.432 90.472 674.288 91.6 674.112 92.816C673.952 94.016 673.76 95.2 673.536 96.368C673.312 97.52 673.064 98.552 672.792 99.464L669.864 98.264C670.152 97.416 670.416 96.472 670.656 95.432C670.912 94.392 671.128 93.312 671.304 92.192C671.496 91.056 671.632 89.952 671.712 88.88ZM686.688 89.216L689.376 88.112C689.824 89.056 690.256 90.072 690.672 91.16C691.088 92.232 691.456 93.288 691.776 94.328C692.096 95.352 692.336 96.28 692.496 97.112L689.568 98.312C689.44 97.496 689.224 96.56 688.92 95.504C688.632 94.448 688.296 93.376 687.912 92.288C687.528 91.184 687.12 90.16 686.688 89.216ZM676.896 82.928L678.84 80.984C679.576 81.432 680.368 81.952 681.216 82.544C682.064 83.136 682.872 83.736 683.64 84.344C684.424 84.936 685.056 85.48 685.536 85.976L683.424 88.232C682.976 87.736 682.384 87.176 681.648 86.552C680.912 85.912 680.12 85.272 679.272 84.632C678.44 83.992 677.648 83.424 676.896 82.928ZM707.4 86.432V87.632H713.688V86.432H707.4ZM707.4 83.336V84.512H713.688V83.336H707.4ZM704.64 81.296H716.592V89.672H704.64V81.296ZM703.416 90.728H717.36V93.08H703.416V90.728ZM702.816 94.424H717.864V96.872H702.816V94.424ZM711.648 92.792H714.552V100.304C714.552 100.96 714.472 101.472 714.312 101.84C714.168 102.224 713.864 102.512 713.4 102.704C712.952 102.912 712.416 103.032 711.792 103.064C711.184 103.112 710.472 103.136 709.656 103.136C709.608 102.752 709.496 102.32 709.32 101.84C709.144 101.36 708.96 100.936 708.768 100.568C709.264 100.584 709.752 100.6 710.232 100.616C710.728 100.616 711.056 100.616 711.216 100.616C711.392 100.6 711.504 100.568 711.552 100.52C711.616 100.456 711.648 100.36 711.648 100.232V92.792ZM704.4 98.072L706.416 96.728C706.928 97.192 707.464 97.72 708.024 98.312C708.584 98.904 709.016 99.432 709.32 99.896L707.184 101.408C707.008 101.104 706.76 100.76 706.44 100.376C706.136 99.992 705.8 99.6 705.432 99.2C705.08 98.784 704.736 98.408 704.4 98.072ZM701.112 85.904L703.632 86.96C703.056 87.952 702.376 88.944 701.592 89.936C700.808 90.928 699.984 91.872 699.12 92.768C698.256 93.648 697.408 94.416 696.576 95.072C696.496 94.848 696.376 94.552 696.216 94.184C696.072 93.8 695.904 93.416 695.712 93.032C695.536 92.648 695.368 92.344 695.208 92.12C695.928 91.608 696.648 91.024 697.368 90.368C698.088 89.696 698.776 88.984 699.432 88.232C700.088 87.464 700.648 86.688 701.112 85.904ZM700.488 80.648L703.224 81.752C702.696 82.488 702.08 83.232 701.376 83.984C700.688 84.72 699.96 85.416 699.192 86.072C698.424 86.728 697.656 87.304 696.888 87.8C696.792 87.576 696.656 87.312 696.48 87.008C696.32 86.704 696.144 86.4 695.952 86.096C695.776 85.792 695.616 85.544 695.472 85.352C696.096 84.968 696.728 84.512 697.368 83.984C698.008 83.456 698.6 82.904 699.144 82.328C699.704 81.736 700.152 81.176 700.488 80.648ZM698.736 91.28L701.4 88.616L701.544 88.664V103.136H698.736V91.28ZM736.008 90.824L738.912 91.664C738 93.808 736.808 95.624 735.336 97.112C733.864 98.6 732.144 99.832 730.176 100.808C728.208 101.768 726.032 102.544 723.648 103.136C723.536 102.912 723.376 102.64 723.168 102.32C722.96 102 722.744 101.68 722.52 101.36C722.296 101.04 722.088 100.776 721.896 100.568C724.232 100.12 726.328 99.488 728.184 98.672C730.04 97.856 731.632 96.808 732.96 95.528C734.288 94.248 735.304 92.68 736.008 90.824ZM727.944 86.672L730.776 87.752C730.216 88.456 729.568 89.152 728.832 89.84C728.112 90.528 727.36 91.176 726.576 91.784C725.808 92.392 725.072 92.92 724.368 93.368C724.192 93.176 723.968 92.944 723.696 92.672C723.424 92.4 723.136 92.136 722.832 91.88C722.544 91.624 722.288 91.416 722.064 91.256C722.8 90.888 723.528 90.464 724.248 89.984C724.984 89.488 725.672 88.96 726.312 88.4C726.952 87.824 727.496 87.248 727.944 86.672ZM729.792 90.944C730.848 93.52 732.544 95.608 734.88 97.208C737.232 98.808 740.224 99.88 743.856 100.424C743.664 100.632 743.448 100.888 743.208 101.192C742.984 101.496 742.776 101.808 742.584 102.128C742.392 102.464 742.232 102.76 742.104 103.016C739.544 102.536 737.312 101.808 735.408 100.832C733.52 99.856 731.904 98.616 730.56 97.112C729.232 95.592 728.112 93.8 727.2 91.736L729.792 90.944ZM722.256 83.648H743.424V86.456H722.256V83.648ZM735.144 88.16L737.4 86.528C738.104 87.008 738.848 87.544 739.632 88.136C740.432 88.728 741.184 89.328 741.888 89.936C742.592 90.528 743.168 91.08 743.616 91.592L741.144 93.488C740.76 92.992 740.232 92.432 739.56 91.808C738.888 91.168 738.16 90.528 737.376 89.888C736.608 89.248 735.864 88.672 735.144 88.16ZM730.464 81.272L733.2 80.312C733.52 80.824 733.848 81.392 734.184 82.016C734.536 82.64 734.792 83.176 734.952 83.624L732.048 84.704C731.92 84.256 731.704 83.704 731.4 83.048C731.096 82.392 730.784 81.8 730.464 81.272ZM754.632 83.504H769.608V86.072H754.632V83.504ZM760.56 92.456H763.08V102.104H760.56V92.456ZM756.504 92.216H759.072V94.592C759.072 95.248 759.032 95.944 758.952 96.68C758.888 97.416 758.728 98.16 758.472 98.912C758.232 99.664 757.88 100.384 757.416 101.072C756.952 101.776 756.312 102.44 755.496 103.064C755.368 102.856 755.184 102.632 754.944 102.392C754.704 102.152 754.448 101.92 754.176 101.696C753.92 101.472 753.688 101.296 753.48 101.168C754.392 100.496 755.056 99.784 755.472 99.032C755.904 98.264 756.184 97.488 756.312 96.704C756.44 95.904 756.504 95.168 756.504 94.496V92.216ZM763.896 87.056L766.056 85.784C766.488 86.296 766.952 86.864 767.448 87.488C767.96 88.096 768.448 88.696 768.912 89.288C769.392 89.88 769.784 90.4 770.088 90.848L767.736 92.336C767.464 91.872 767.104 91.336 766.656 90.728C766.224 90.12 765.76 89.496 765.264 88.856C764.784 88.2 764.328 87.6 763.896 87.056ZM755.568 91.856L755.496 89.816L757.008 88.952L767.4 88.376C767.432 88.744 767.488 89.152 767.568 89.6C767.664 90.048 767.752 90.416 767.832 90.704C765.832 90.848 764.152 90.968 762.792 91.064C761.432 91.16 760.312 91.248 759.432 91.328C758.568 91.392 757.888 91.448 757.392 91.496C756.896 91.544 756.512 91.6 756.24 91.664C755.968 91.728 755.744 91.792 755.568 91.856ZM748.488 83L750.096 80.888C750.592 81.096 751.12 81.352 751.68 81.656C752.24 81.944 752.768 82.248 753.264 82.568C753.776 82.888 754.184 83.2 754.488 83.504L752.808 85.832C752.504 85.528 752.112 85.208 751.632 84.872C751.152 84.52 750.632 84.184 750.072 83.864C749.528 83.528 749 83.24 748.488 83ZM747.504 89.648L749.016 87.464C749.528 87.656 750.072 87.888 750.648 88.16C751.224 88.416 751.768 88.696 752.28 89C752.808 89.304 753.248 89.592 753.6 89.864L751.992 92.264C751.688 91.976 751.28 91.672 750.768 91.352C750.256 91.032 749.712 90.72 749.136 90.416C748.576 90.112 748.032 89.856 747.504 89.648ZM747.936 100.928C748.368 100.32 748.848 99.608 749.376 98.792C749.904 97.96 750.44 97.08 750.984 96.152C751.528 95.208 752.032 94.272 752.496 93.344L754.608 95.264C754.192 96.096 753.744 96.952 753.264 97.832C752.8 98.712 752.32 99.576 751.824 100.424C751.344 101.272 750.856 102.088 750.36 102.872L747.936 100.928ZM764.64 92.24H767.304V99.392C767.304 99.76 767.32 100.024 767.352 100.184C767.384 100.328 767.472 100.4 767.616 100.4C767.696 100.4 767.792 100.4 767.904 100.4C768.016 100.4 768.136 100.4 768.264 100.4C768.392 100.4 768.488 100.4 768.552 100.4C768.712 100.4 768.904 100.392 769.128 100.376C769.368 100.344 769.56 100.304 769.704 100.256C769.736 100.576 769.768 100.944 769.8 101.36C769.832 101.776 769.872 102.136 769.92 102.44C769.744 102.504 769.536 102.544 769.296 102.56C769.056 102.592 768.816 102.608 768.576 102.608C768.48 102.608 768.352 102.608 768.192 102.608C768.048 102.608 767.896 102.608 767.736 102.608C767.592 102.608 767.464 102.608 767.352 102.608C766.6 102.608 766.024 102.496 765.624 102.272C765.24 102.048 764.976 101.696 764.832 101.216C764.704 100.736 764.64 100.112 764.64 99.344V92.24ZM755.568 91.856C755.52 91.664 755.44 91.408 755.328 91.088C755.232 90.768 755.12 90.44 754.992 90.104C754.864 89.752 754.744 89.456 754.632 89.216C754.936 89.136 755.232 88.968 755.52 88.712C755.808 88.456 756.128 88.12 756.48 87.704C756.672 87.496 756.952 87.16 757.32 86.696C757.688 86.216 758.088 85.648 758.52 84.992C758.968 84.32 759.416 83.6 759.864 82.832C760.312 82.064 760.72 81.288 761.088 80.504L763.896 81.584C763.288 82.688 762.616 83.776 761.88 84.848C761.144 85.92 760.384 86.928 759.6 87.872C758.832 88.816 758.072 89.664 757.32 90.416V90.488C757.32 90.488 757.232 90.536 757.056 90.632C756.88 90.712 756.672 90.832 756.432 90.992C756.208 91.136 756.008 91.288 755.832 91.448C755.656 91.592 755.568 91.728 755.568 91.856Z" fill="#FEFDFD"/>
<path d="M496.24 63V33.84H512.36V35.92H498.64V46.48H510.16V48.56H498.64V60.92H512.8V63H496.24ZM517.558 63L524.758 51.88L518.158 41.64H520.718L524.038 46.92C524.384 47.5067 524.744 48.0933 525.118 48.68C525.491 49.24 525.878 49.84 526.278 50.48H526.438C526.784 49.84 527.131 49.24 527.478 48.68C527.824 48.0933 528.184 47.5067 528.558 46.92L531.718 41.64H534.158L527.558 52.08L534.758 63H532.158L528.518 57.36C528.171 56.6933 527.784 56.04 527.358 55.4C526.958 54.7333 526.531 54.0933 526.078 53.48H525.878C525.478 54.0933 525.078 54.7333 524.678 55.4C524.304 56.04 523.918 56.6933 523.518 57.36L520.078 63H517.558ZM549.85 63.52C548.144 63.52 546.544 63.08 545.05 62.2C543.584 61.32 542.41 60.0533 541.53 58.4C540.65 56.72 540.21 54.7067 540.21 52.36C540.21 49.9867 540.65 47.96 541.53 46.28C542.41 44.6 543.584 43.32 545.05 42.44C546.544 41.56 548.144 41.12 549.85 41.12C551.13 41.12 552.357 41.3733 553.53 41.88C554.704 42.3867 555.73 43.12 556.61 44.08C557.517 45.04 558.224 46.2267 558.73 47.64C559.237 49.0267 559.49 50.6 559.49 52.36C559.49 54.7067 559.037 56.72 558.13 58.4C557.25 60.0533 556.077 61.32 554.61 62.2C553.17 63.08 551.584 63.52 549.85 63.52ZM549.85 61.48C551.237 61.48 552.477 61.1067 553.57 60.36C554.664 59.5867 555.517 58.52 556.13 57.16C556.77 55.7733 557.09 54.1733 557.09 52.36C557.09 50.52 556.77 48.92 556.13 47.56C555.517 46.1733 554.664 45.0933 553.57 44.32C552.477 43.5467 551.237 43.16 549.85 43.16C548.464 43.16 547.224 43.5467 546.13 44.32C545.037 45.0933 544.184 46.1733 543.57 47.56C542.957 48.92 542.65 50.52 542.65 52.36C542.65 54.1733 542.957 55.7733 543.57 57.16C544.184 58.52 545.037 59.5867 546.13 60.36C547.224 61.1067 548.464 61.48 549.85 61.48ZM574.334 63.52C572.921 63.52 571.814 63.2533 571.014 62.72C570.241 62.16 569.681 61.3867 569.334 60.4C569.014 59.4133 568.854 58.2667 568.854 56.96V43.64H565.574V41.88L568.934 41.64L569.214 35.52H571.174V41.64H577.294V43.64H571.174V57.12C571.174 58.4533 571.401 59.52 571.854 60.32C572.334 61.12 573.294 61.52 574.734 61.52C575.134 61.52 575.574 61.4667 576.054 61.36C576.534 61.2267 576.961 61.0667 577.334 60.88L577.894 62.72C577.281 62.9333 576.654 63.12 576.014 63.28C575.401 63.44 574.841 63.52 574.334 63.52ZM585.597 63V41.64H587.917V63H585.597ZM586.797 36.68C586.237 36.68 585.784 36.5067 585.437 36.16C585.117 35.7867 584.957 35.3067 584.957 34.72C584.957 34.16 585.117 33.7067 585.437 33.36C585.784 33.0133 586.237 32.84 586.797 32.84C587.33 32.84 587.77 33.0133 588.117 33.36C588.464 33.7067 588.637 34.16 588.637 34.72C588.637 35.3067 588.464 35.7867 588.117 36.16C587.77 36.5067 587.33 36.68 586.797 36.68ZM607.03 63.52C605.19 63.52 603.537 63.08 602.07 62.2C600.604 61.32 599.444 60.0533 598.59 58.4C597.737 56.72 597.31 54.7067 597.31 52.36C597.31 49.9867 597.764 47.96 598.67 46.28C599.604 44.6 600.817 43.32 602.31 42.44C603.804 41.56 605.43 41.12 607.19 41.12C608.63 41.12 609.844 41.3867 610.83 41.92C611.844 42.4533 612.71 43.0533 613.43 43.72L612.11 45.32C611.444 44.7067 610.71 44.2 609.91 43.8C609.137 43.3733 608.257 43.16 607.27 43.16C605.83 43.16 604.537 43.5467 603.39 44.32C602.27 45.0933 601.377 46.1733 600.71 47.56C600.07 48.92 599.75 50.52 599.75 52.36C599.75 54.1733 600.057 55.7733 600.67 57.16C601.31 58.52 602.19 59.5867 603.31 60.36C604.43 61.1067 605.737 61.48 607.23 61.48C608.324 61.48 609.337 61.2533 610.27 60.8C611.204 60.3467 612.03 59.7867 612.75 59.12L613.91 60.76C612.977 61.56 611.937 62.2267 610.79 62.76C609.644 63.2667 608.39 63.52 607.03 63.52ZM634.499 63V33.84H642.059C644.273 33.84 646.166 34.1067 647.739 34.64C649.339 35.1733 650.566 36.04 651.419 37.24C652.273 38.4133 652.699 40.0133 652.699 42.04C652.699 43.9867 652.273 45.6 651.419 46.88C650.593 48.1333 649.393 49.08 647.819 49.72C646.273 50.36 644.406 50.68 642.219 50.68H636.899V63H634.499ZM636.899 48.64H641.739C644.619 48.64 646.753 48.1333 648.139 47.12C649.553 46.08 650.259 44.3867 650.259 42.04C650.259 39.6667 649.539 38.04 648.099 37.16C646.659 36.28 644.486 35.84 641.579 35.84H636.899V48.64ZM668.98 63.52C667.14 63.52 665.46 63.08 663.94 62.2C662.446 61.2933 661.246 60.0133 660.34 58.36C659.46 56.7067 659.02 54.7067 659.02 52.36C659.02 50.6267 659.273 49.0667 659.78 47.68C660.286 46.2933 660.98 45.12 661.86 44.16C662.766 43.1733 663.78 42.4267 664.9 41.92C666.02 41.3867 667.18 41.12 668.38 41.12C670.086 41.12 671.553 41.52 672.78 42.32C674.006 43.0933 674.953 44.2267 675.62 45.72C676.286 47.1867 676.62 48.96 676.62 51.04C676.62 51.3333 676.606 51.6267 676.58 51.92C676.58 52.1867 676.553 52.4667 676.5 52.76H661.38C661.433 54.4667 661.78 55.9867 662.42 57.32C663.086 58.6267 663.993 59.6667 665.14 60.44C666.286 61.1867 667.633 61.56 669.18 61.56C670.326 61.56 671.353 61.4 672.26 61.08C673.166 60.7333 674.02 60.28 674.82 59.72L675.74 61.44C674.886 61.9733 673.926 62.4533 672.86 62.88C671.793 63.3067 670.5 63.52 668.98 63.52ZM661.38 50.88H674.46C674.46 48.32 673.913 46.3867 672.82 45.08C671.726 43.7733 670.246 43.12 668.38 43.12C667.233 43.12 666.153 43.4267 665.14 44.04C664.126 44.6533 663.286 45.5333 662.62 46.68C661.953 47.8267 661.54 49.2267 661.38 50.88ZM691.034 63.52C689.621 63.52 688.514 63.2533 687.714 62.72C686.941 62.16 686.381 61.3867 686.034 60.4C685.714 59.4133 685.554 58.2667 685.554 56.96V43.64H682.274V41.88L685.634 41.64L685.914 35.52H687.874V41.64H693.994V43.64H687.874V57.12C687.874 58.4533 688.101 59.52 688.554 60.32C689.034 61.12 689.994 61.52 691.434 61.52C691.834 61.52 692.274 61.4667 692.754 61.36C693.234 61.2267 693.661 61.0667 694.034 60.88L694.594 62.72C693.981 62.9333 693.354 63.12 692.714 63.28C692.101 63.44 691.541 63.52 691.034 63.52ZM725.045 63.52C723.258 63.52 721.605 63.1733 720.085 62.48C718.592 61.7867 717.285 60.7733 716.165 59.44C715.072 58.1067 714.218 56.52 713.605 54.68C713.018 52.8133 712.725 50.72 712.725 48.4C712.725 46.0533 713.032 43.96 713.645 42.12C714.258 40.2533 715.125 38.6667 716.245 37.36C717.365 36.0533 718.685 35.0533 720.205 34.36C721.752 33.6667 723.445 33.32 725.285 33.32C727.018 33.32 728.525 33.68 729.805 34.4C731.112 35.12 732.165 35.9333 732.965 36.84L731.605 38.4C730.832 37.52 729.912 36.8133 728.845 36.28C727.805 35.7467 726.632 35.48 725.325 35.48C723.245 35.48 721.445 36 719.925 37.04C718.432 38.08 717.272 39.5733 716.445 41.52C715.618 43.44 715.205 45.72 715.205 48.36C715.205 51 715.605 53.2933 716.405 55.24C717.232 57.1867 718.392 58.6933 719.885 59.76C721.378 60.8267 723.138 61.36 725.165 61.36C726.632 61.36 727.938 61.0667 729.085 60.48C730.258 59.8667 731.365 58.9867 732.405 57.84L733.765 59.36C732.645 60.6667 731.392 61.6933 730.005 62.44C728.618 63.16 726.965 63.52 725.045 63.52ZM750.483 63.52C748.776 63.52 747.176 63.08 745.683 62.2C744.216 61.32 743.043 60.0533 742.163 58.4C741.283 56.72 740.843 54.7067 740.843 52.36C740.843 49.9867 741.283 47.96 742.163 46.28C743.043 44.6 744.216 43.32 745.683 42.44C747.176 41.56 748.776 41.12 750.483 41.12C751.763 41.12 752.99 41.3733 754.163 41.88C755.336 42.3867 756.363 43.12 757.243 44.08C758.15 45.04 758.856 46.2267 759.363 47.64C759.87 49.0267 760.123 50.6 760.123 52.36C760.123 54.7067 759.67 56.72 758.763 58.4C757.883 60.0533 756.71 61.32 755.243 62.2C753.803 63.08 752.216 63.52 750.483 63.52ZM750.483 61.48C751.87 61.48 753.11 61.1067 754.203 60.36C755.296 59.5867 756.15 58.52 756.763 57.16C757.403 55.7733 757.723 54.1733 757.723 52.36C757.723 50.52 757.403 48.92 756.763 47.56C756.15 46.1733 755.296 45.0933 754.203 44.32C753.11 43.5467 751.87 43.16 750.483 43.16C749.096 43.16 747.856 43.5467 746.763 44.32C745.67 45.0933 744.816 46.1733 744.203 47.56C743.59 48.92 743.283 50.52 743.283 52.36C743.283 54.1733 743.59 55.7733 744.203 57.16C744.816 58.52 745.67 59.5867 746.763 60.36C747.856 61.1067 749.096 61.48 750.483 61.48ZM769.553 63V41.64H771.473L771.753 44.92H771.833C772.793 43.8533 773.846 42.96 774.993 42.24C776.166 41.4933 777.353 41.12 778.553 41.12C780.26 41.12 781.566 41.5067 782.473 42.28C783.406 43.0533 784.06 44.1067 784.433 45.44C785.66 44.1333 786.86 43.0933 788.033 42.32C789.206 41.52 790.42 41.12 791.673 41.12C793.78 41.12 795.366 41.8133 796.433 43.2C797.5 44.56 798.033 46.6133 798.033 49.36V63H795.713V49.68C795.713 47.4667 795.34 45.84 794.593 44.8C793.846 43.7333 792.686 43.2 791.113 43.2C790.153 43.2 789.18 43.52 788.193 44.16C787.206 44.8 786.126 45.76 784.953 47.04V63H782.633V49.68C782.633 47.4667 782.26 45.84 781.513 44.8C780.766 43.7333 779.606 43.2 778.033 43.2C777.1 43.2 776.113 43.52 775.073 44.16C774.06 44.8 772.993 45.76 771.873 47.04V63H769.553ZM808.925 63V41.64H810.845L811.125 44.92H811.205C812.165 43.8533 813.218 42.96 814.365 42.24C815.538 41.4933 816.725 41.12 817.925 41.12C819.632 41.12 820.938 41.5067 821.845 42.28C822.778 43.0533 823.432 44.1067 823.805 45.44C825.032 44.1333 826.232 43.0933 827.405 42.32C828.578 41.52 829.792 41.12 831.045 41.12C833.152 41.12 834.738 41.8133 835.805 43.2C836.872 44.56 837.405 46.6133 837.405 49.36V63H835.085V49.68C835.085 47.4667 834.712 45.84 833.965 44.8C833.218 43.7333 832.058 43.2 830.485 43.2C829.525 43.2 828.552 43.52 827.565 44.16C826.578 44.8 825.498 45.76 824.325 47.04V63H822.005V49.68C822.005 47.4667 821.632 45.84 820.885 44.8C820.138 43.7333 818.978 43.2 817.405 43.2C816.472 43.2 815.485 43.52 814.445 44.16C813.432 44.8 812.365 45.76 811.245 47.04V63H808.925ZM854.417 63.52C852.204 63.52 850.564 62.84 849.497 61.48C848.457 60.12 847.937 58.0533 847.937 55.28V41.64H850.297V55C850.297 57.2133 850.657 58.84 851.377 59.88C852.124 60.92 853.31 61.44 854.937 61.44C856.164 61.44 857.27 61.1067 858.257 60.44C859.27 59.7733 860.377 58.72 861.577 57.28V41.64H863.937V63H861.937L861.737 59.48H861.657C860.59 60.68 859.484 61.6533 858.337 62.4C857.217 63.1467 855.91 63.52 854.417 63.52ZM875.052 63V41.64H876.972L877.252 44.92H877.332C878.398 43.8533 879.505 42.96 880.652 42.24C881.825 41.4933 883.145 41.12 884.612 41.12C886.825 41.12 888.452 41.8133 889.492 43.2C890.558 44.56 891.092 46.6133 891.092 49.36V63H888.772V49.68C888.772 47.4667 888.398 45.84 887.652 44.8C886.932 43.7333 885.732 43.2 884.052 43.2C882.825 43.2 881.718 43.52 880.732 44.16C879.745 44.8 878.625 45.76 877.372 47.04V63H875.052ZM901.923 63V41.64H904.243V63H901.923ZM903.123 36.68C902.563 36.68 902.11 36.5067 901.763 36.16C901.443 35.7867 901.283 35.3067 901.283 34.72C901.283 34.16 901.443 33.7067 901.763 33.36C902.11 33.0133 902.563 32.84 903.123 32.84C903.657 32.84 904.097 33.0133 904.443 33.36C904.79 33.7067 904.963 34.16 904.963 34.72C904.963 35.3067 904.79 35.7867 904.443 36.16C904.097 36.5067 903.657 36.68 903.123 36.68ZM921.397 63.52C919.984 63.52 918.877 63.2533 918.077 62.72C917.304 62.16 916.744 61.3867 916.397 60.4C916.077 59.4133 915.917 58.2667 915.917 56.96V43.64H912.637V41.88L915.997 41.64L916.277 35.52H918.237V41.64H924.357V43.64H918.237V57.12C918.237 58.4533 918.464 59.52 918.917 60.32C919.397 61.12 920.357 61.52 921.797 61.52C922.197 61.52 922.637 61.4667 923.117 61.36C923.597 61.2267 924.024 61.0667 924.397 60.88L924.957 62.72C924.344 62.9333 923.717 63.12 923.077 63.28C922.464 63.44 921.904 63.52 921.397 63.52ZM932.059 72.6C931.659 72.6 931.259 72.56 930.859 72.48C930.459 72.4 930.113 72.2933 929.819 72.16L930.299 70.2C930.513 70.28 930.779 70.3467 931.099 70.4C931.419 70.48 931.726 70.52 932.019 70.52C933.326 70.52 934.406 70 935.259 68.96C936.113 67.9467 936.806 66.6667 937.339 65.12L937.899 63.28L929.179 41.64H931.659L936.619 54.72C936.966 55.6533 937.339 56.6533 937.739 57.72C938.139 58.76 938.526 59.76 938.899 60.72H939.099C939.419 59.76 939.739 58.76 940.059 57.72C940.406 56.6533 940.726 55.6533 941.019 54.72L945.379 41.64H947.739L939.419 65.48C939.019 66.7067 938.486 67.8533 937.819 68.92C937.179 70.0133 936.393 70.8933 935.459 71.56C934.526 72.2533 933.393 72.6 932.059 72.6Z" fill="#FEFDFD"/>
<path d="M439.872 66.1184C439.532 66.1184 439.198 66.0707 438.869 65.9752C438.712 65.9275 438.561 65.8744 438.41 65.8055C436.765 65.0683 435.903 63.1855 436.399 61.43C436.734 60.2632 436.587 59.7275 436.467 59.5101C436.331 59.2608 436.003 59.0115 435.538 58.8047C435.329 58.7092 435.089 58.6244 434.833 58.5501C434.671 58.5024 434.52 58.4441 434.373 58.3804C432.729 57.6432 431.867 55.7604 432.363 54.0049C432.807 52.4457 434.232 51.3531 435.835 51.3531C436.175 51.3531 436.509 51.4008 436.838 51.4963C437.308 51.6342 437.715 51.7031 438.06 51.7031C438.342 51.7031 438.566 51.6554 438.728 51.5653C438.942 51.4486 439.344 51.072 439.678 49.9052C439.945 48.9665 440.561 48.1868 441.401 47.7095C441.934 47.4125 442.54 47.2534 443.145 47.2534C443.485 47.2534 443.824 47.3011 444.153 47.3966C444.31 47.439 444.461 47.4974 444.613 47.5663C446.257 48.3035 447.119 50.1863 446.623 51.9418C446.289 53.1086 446.435 53.6443 446.555 53.8617C446.691 54.111 447.02 54.3603 447.479 54.5671C447.688 54.6626 447.928 54.7474 448.189 54.827C448.341 54.8694 448.502 54.9278 448.654 54.9967C450.293 55.7339 451.155 57.6114 450.659 59.3669C450.215 60.9261 448.79 62.0187 447.187 62.0187C446.847 62.0187 446.513 61.971 446.184 61.8755C445.719 61.7376 445.307 61.6687 444.962 61.6687C444.68 61.6687 444.456 61.7164 444.294 61.8066C444.08 61.9232 443.678 62.2998 443.344 63.4666C442.9 65.0259 441.475 66.1184 439.872 66.1184Z" fill="#F2C32A"/>
<path d="M443.145 48.5033C443.37 48.5033 443.589 48.5351 443.808 48.5988C443.913 48.6306 444.012 48.6677 444.111 48.7102C445.197 49.1981 445.766 50.4391 445.438 51.5953C445.093 52.8152 445.103 53.7804 445.474 54.4646C445.746 54.9631 446.252 55.3821 446.978 55.7109C447.239 55.8276 447.531 55.9337 447.845 56.0239C447.949 56.0557 448.048 56.0928 448.147 56.1352C449.233 56.6232 449.803 57.8642 449.474 59.0204C449.171 60.0811 448.215 60.7706 447.181 60.7706C446.962 60.7706 446.743 60.7388 446.524 60.6751C445.944 60.5054 445.422 60.4205 444.962 60.4205C444.472 60.4205 444.049 60.516 443.704 60.7123C443.03 61.0888 442.514 61.9003 442.169 63.1201C441.866 64.1808 440.911 64.8703 439.877 64.8703C439.657 64.8703 439.438 64.8385 439.219 64.7748C439.114 64.743 439.015 64.7059 438.916 64.6634C437.83 64.1755 437.261 62.9345 437.59 61.7783C437.934 60.5584 437.924 59.5932 437.553 58.909C437.282 58.4105 436.775 57.9915 436.05 57.6627C435.788 57.546 435.496 57.4399 435.183 57.3498C435.078 57.3179 434.979 57.2808 434.88 57.2384C433.794 56.7504 433.225 55.5094 433.554 54.3532C433.857 53.2925 434.812 52.603 435.846 52.603C436.065 52.603 436.284 52.6348 436.504 52.6985C437.083 52.8682 437.605 52.9531 438.065 52.9531C438.556 52.9531 438.979 52.8576 439.323 52.6613C439.997 52.2848 440.514 51.4733 440.858 50.2535C441.036 49.633 441.438 49.1185 441.997 48.8056C442.352 48.6041 442.749 48.5033 443.145 48.5033ZM443.145 46.0053C442.331 46.0053 441.527 46.2175 440.811 46.6205C439.678 47.257 438.859 48.3018 438.498 49.564C438.347 50.0944 438.201 50.3543 438.128 50.4551C438.112 50.4551 438.091 50.4551 438.065 50.4551C437.908 50.4551 437.626 50.4285 437.183 50.2959C436.744 50.1686 436.295 50.105 435.841 50.105C433.695 50.105 431.784 51.5635 431.188 53.6584C430.52 56.0079 431.679 58.5272 433.877 59.5189C434.076 59.6091 434.285 59.6833 434.494 59.747C434.702 59.8053 434.885 59.8743 435.047 59.9485C435.214 60.0228 435.319 60.0864 435.376 60.1289C435.381 60.2614 435.376 60.5584 435.225 61.0835C434.556 63.433 435.715 65.9522 437.914 66.944C438.112 67.0342 438.321 67.1084 438.53 67.1721C438.968 67.2993 439.417 67.363 439.872 67.363C442.018 67.363 443.929 65.9045 444.524 63.8096C444.675 63.2792 444.821 63.0193 444.895 62.9133C444.91 62.9133 444.931 62.9133 444.957 62.9133C445.114 62.9133 445.396 62.9398 445.84 63.0724C446.278 63.1996 446.727 63.2633 447.181 63.2633C449.327 63.2633 451.238 61.8048 451.834 59.7099C452.502 57.3604 451.343 54.8411 449.145 53.8494C448.946 53.7592 448.737 53.685 448.529 53.6213C448.32 53.563 448.137 53.494 447.975 53.4198C447.808 53.3455 447.704 53.2819 447.646 53.2395C447.641 53.1069 447.646 52.8099 447.798 52.2848C448.466 49.9353 447.312 47.4161 445.109 46.4243C444.91 46.3341 444.701 46.2599 444.492 46.1962C444.054 46.069 443.6 46 443.145 46V46.0053Z" fill="white"/>
<path d="M473.286 96.7084C472.534 96.7084 471.843 96.335 471.382 95.6886C470.932 95.059 470.521 94.4349 470.142 93.8163C469.352 94.2343 468.546 94.6187 467.734 94.9754C467.366 95.137 466.988 95.2206 466.609 95.2206C465.589 95.2206 464.695 94.6355 464.272 93.6882C463.839 92.7186 464.009 91.5985 464.716 90.7626L465.358 90.0104C465.166 89.9156 464.98 89.8265 464.793 89.7317C463.789 89.2247 463.268 88.1993 463.466 87.1183C463.685 85.9035 464.749 84.8949 465.94 84.7779C466.231 84.75 466.532 84.7222 466.834 84.7054C466.713 83.747 466.62 82.7718 466.554 81.8022C466.505 81.1168 466.735 80.4592 467.196 79.9577C467.695 79.4116 468.42 79.0996 469.182 79.0996C469.577 79.0996 469.967 79.1887 470.307 79.3559C470.433 79.0327 470.559 78.7151 470.696 78.3975C471.124 77.3721 472.199 76.6589 473.302 76.6589C474.295 76.6589 475.14 77.2551 475.507 78.208C475.908 79.2556 476.215 80.2865 476.435 81.3341L477.85 81.0611C478.014 81.0276 478.185 81.0109 478.349 81.0109C479.315 81.0109 480.203 81.5459 480.675 82.3984C481.136 83.2343 481.109 84.2262 480.609 85.0453L479.463 86.9288L479.885 87.096C481.087 87.5808 481.778 88.8903 481.531 90.211C481.301 91.4313 480.33 92.2505 479.112 92.2505C479.04 92.2505 478.964 92.2505 478.887 92.2393L476.561 92.0499C476.473 92.0443 476.385 92.0332 476.292 92.022C476.193 92.752 476.1 93.4876 476.007 94.2175C475.837 95.5605 474.591 96.6917 473.297 96.6917L473.286 96.7084Z" fill="#77C67C"/>
<path d="M473.296 78.103C473.659 78.103 473.999 78.2813 474.174 78.7327C474.717 80.1425 475.079 81.5579 475.26 83.029C476.21 82.8451 477.159 82.6612 478.108 82.4773C478.185 82.4606 478.267 82.455 478.344 82.455C479.232 82.455 479.907 83.4302 479.391 84.2772C478.711 85.3972 478.031 86.5173 477.351 87.6318C478.02 87.8993 478.689 88.1723 479.353 88.4398C480.483 88.8967 480.406 90.7913 479.106 90.7913C479.068 90.7913 479.029 90.7913 478.991 90.7913C478.217 90.73 477.444 90.6687 476.665 90.6019C476.155 90.5629 475.529 90.4236 474.959 90.3957C474.893 90.8638 474.915 91.4712 474.871 91.7944C474.772 92.5411 474.673 93.2822 474.58 94.0289C474.503 94.6474 473.883 95.2381 473.286 95.2381C473.017 95.2381 472.748 95.1155 472.539 94.8202C471.859 93.8617 471.239 92.8866 470.68 91.8557C469.539 92.5076 468.37 93.0983 467.169 93.6277C466.977 93.7113 466.79 93.7503 466.615 93.7503C465.649 93.7503 465.057 92.5689 465.803 91.6941C466.439 90.9474 467.07 90.2062 467.706 89.4595C466.938 89.1363 466.181 88.7908 465.435 88.4119C464.261 87.8212 465.078 86.3 466.088 86.1941C466.839 86.1161 467.586 86.0826 468.337 86.0826C468.387 86.0826 468.436 86.0826 468.485 86.0826C468.249 84.6227 468.085 83.1516 467.986 81.6693C467.937 80.956 468.568 80.5214 469.187 80.5214C469.5 80.5214 469.807 80.6328 470.027 80.878C470.329 81.2124 470.619 81.5579 470.91 81.8978C471.239 80.8947 471.601 79.9084 472.013 78.9333C472.216 78.4485 472.786 78.0807 473.307 78.0807M473.307 75.1775C471.706 75.1775 470.153 76.1749 469.462 77.6293C469.369 77.6237 469.281 77.6182 469.187 77.6182C468.03 77.6182 466.927 78.0974 466.154 78.9333C465.419 79.7301 465.057 80.7721 465.133 81.8699C465.166 82.3826 465.21 82.8897 465.26 83.3968C463.669 83.7924 462.368 85.1576 462.067 86.8238C461.82 88.1779 462.27 89.4707 463.23 90.3567C462.506 91.5436 462.401 92.9813 462.977 94.2629C463.63 95.7062 465.057 96.6424 466.615 96.6424C467.191 96.6424 467.761 96.5198 468.304 96.2802C468.749 96.0851 469.193 95.8789 469.637 95.6616C469.824 95.9402 470.021 96.2244 470.224 96.5086C470.959 97.5395 472.073 98.1302 473.286 98.1302C475.299 98.1302 477.148 96.4529 477.411 94.3911C477.444 94.1181 477.482 93.8394 477.515 93.5664L478.761 93.6667C478.876 93.6778 478.991 93.6778 479.101 93.6778C480.993 93.6778 482.568 92.3572 482.924 90.4626C483.221 88.8856 482.628 87.3197 481.465 86.3613L481.816 85.7817C482.59 84.5057 482.628 82.9677 481.915 81.6637C481.191 80.3486 479.825 79.5295 478.344 79.5295C478.086 79.5295 477.828 79.5518 477.576 79.6019L477.493 79.6187C477.312 78.9611 477.093 78.3091 476.835 77.646C476.248 76.1192 474.893 75.1719 473.296 75.1719L473.307 75.1775Z" fill="white"/>
<path d="M1090.39 55.2425C1089.88 55.2425 1089.39 55.1018 1088.97 54.8296C1086.71 54.1037 1085.56 51.073 1084.89 48.8181C1083.91 45.497 1084.11 42.9109 1085.49 41.1233C1086.39 39.9573 1087.72 39.2858 1089.14 39.2858C1090.39 39.2858 1091.55 39.8167 1092.4 40.7785C1092.65 41.0598 1092.88 41.3683 1093.08 41.695C1093.94 41.3093 1094.84 41.1052 1095.69 41.1052C1098.01 41.1052 1099.63 42.5752 1100.04 45.0433C1100.52 47.956 1098.46 50.3879 1096.87 51.9622C1095.05 53.7679 1092.96 54.8931 1090.81 55.2107C1090.67 55.2334 1090.53 55.2425 1090.39 55.2425H1090.39Z" fill="#E07D77"/>
<path d="M1089.14 40.577C1089.98 40.577 1090.82 40.9173 1091.46 41.6387C1091.94 42.1831 1092.29 42.8047 1092.53 43.4625C1093.51 42.8001 1094.65 42.3964 1095.7 42.3964C1097.18 42.3964 1098.45 43.2085 1098.79 45.2547C1099.17 47.5322 1097.49 49.5557 1095.99 51.0393C1094.52 52.5093 1092.7 53.6254 1090.63 53.934C1090.55 53.9476 1090.47 53.9521 1090.39 53.9521C1090.04 53.9521 1089.75 53.8341 1089.51 53.6481C1087.62 53.208 1086.59 50.0775 1086.11 48.4487C1085.51 46.4116 1085.1 43.7257 1086.48 41.9245C1087.16 41.0489 1088.15 40.5815 1089.13 40.5815M1089.13 38C1087.32 38 1085.63 38.8484 1084.48 40.332C1082.83 42.4689 1082.56 45.4498 1083.67 49.1973C1084.14 50.7989 1085.37 54.9139 1088.43 56.0164C1089.02 56.3612 1089.69 56.5382 1090.38 56.5382C1090.58 56.5382 1090.79 56.5246 1090.99 56.4928C1093.4 56.1344 1095.74 54.8867 1097.76 52.8904C1098.9 51.7562 1101.93 48.7482 1101.29 44.8327C1100.78 41.7385 1098.63 39.8193 1095.69 39.8193C1094.98 39.8193 1094.26 39.9328 1093.54 40.1551C1093.47 40.0779 1093.41 40.0008 1093.34 39.9237C1092.25 38.6851 1090.75 38.0045 1089.13 38.0045V38Z" fill="white"/>
<path d="M395.393 87.2425C394.879 87.2425 394.392 87.1018 393.968 86.8296C391.708 86.1037 390.564 83.073 389.894 80.8181C388.907 77.497 389.108 74.9109 390.488 73.1233C391.391 71.9573 392.722 71.2858 394.138 71.2858C395.393 71.2858 396.549 71.8167 397.398 72.7785C397.648 73.0598 397.876 73.3683 398.077 73.695C398.944 73.3093 399.841 73.1052 400.695 73.1052C403.008 73.1052 404.634 74.5752 405.041 77.0433C405.518 79.956 403.464 82.3879 401.874 83.9622C400.051 85.7679 397.956 86.8931 395.808 87.2107C395.67 87.2334 395.527 87.2425 395.388 87.2425H395.393Z" fill="#E07D77"/>
<path d="M394.137 72.577C394.977 72.577 395.817 72.9173 396.456 73.6387C396.938 74.1831 397.286 74.8047 397.532 75.4625C398.515 74.8001 399.654 74.3964 400.699 74.3964C402.177 74.3964 403.455 75.2085 403.794 77.2547C404.17 79.5322 402.49 81.5557 400.994 83.0393C399.515 84.5093 397.697 85.6254 395.629 85.934C395.549 85.9476 395.469 85.9521 395.393 85.9521C395.044 85.9521 394.749 85.8341 394.513 85.6481C392.623 85.208 391.591 82.0775 391.109 80.4487C390.506 78.4116 390.095 75.7257 391.484 73.9245C392.159 73.0489 393.15 72.5815 394.133 72.5815M394.133 70C392.324 70 390.627 70.8484 389.483 72.332C387.831 74.4689 387.558 77.4498 388.67 81.1973C389.144 82.7989 390.368 86.9139 393.427 88.0164C394.021 88.3612 394.687 88.5382 395.384 88.5382C395.585 88.5382 395.786 88.5246 395.987 88.4928C398.403 88.1344 400.744 86.8867 402.758 84.8904C403.902 83.7562 406.934 80.7482 406.291 76.8327C405.782 73.7385 403.634 71.8193 400.69 71.8193C399.984 71.8193 399.256 71.9328 398.537 72.1551C398.475 72.0779 398.408 72.0008 398.341 71.9237C397.246 70.6851 395.75 70.0045 394.133 70.0045V70Z" fill="white"/>
<path d="M1118.11 97.8401C1117.79 97.8401 1117.47 97.795 1117.16 97.7046C1117.01 97.6594 1116.87 97.6091 1116.73 97.5439C1115.17 96.8458 1114.35 95.063 1114.82 93.4007C1115.14 92.2959 1115 91.7887 1114.89 91.5828C1114.76 91.3468 1114.45 91.1107 1114.01 90.9149C1113.81 90.8245 1113.58 90.7441 1113.34 90.6738C1113.19 90.6286 1113.04 90.5734 1112.9 90.5131C1111.35 89.815 1110.53 88.0322 1111 86.37C1111.42 84.8935 1112.77 83.859 1114.29 83.859C1114.61 83.859 1114.93 83.9042 1115.24 83.9946C1115.68 84.1251 1116.07 84.1904 1116.39 84.1904C1116.66 84.1904 1116.87 84.1452 1117.03 84.0599C1117.23 83.9494 1117.61 83.5928 1117.93 82.488C1118.18 81.5991 1118.76 80.8609 1119.56 80.4089C1120.06 80.1277 1120.64 79.977 1121.21 79.977C1121.53 79.977 1121.85 80.0222 1122.16 80.1126C1122.31 80.1528 1122.46 80.208 1122.6 80.2733C1124.16 80.9714 1124.97 82.7542 1124.5 84.4164C1124.19 85.5213 1124.32 86.0285 1124.44 86.2344C1124.57 86.4704 1124.88 86.7064 1125.31 86.9023C1125.51 86.9927 1125.74 87.073 1125.99 87.1484C1126.13 87.1886 1126.28 87.2438 1126.43 87.3091C1127.98 88.0071 1128.79 89.7849 1128.32 91.4472C1127.9 92.9236 1126.55 93.9582 1125.04 93.9582C1124.71 93.9582 1124.4 93.913 1124.09 93.8226C1123.65 93.692 1123.26 93.6267 1122.93 93.6267C1122.66 93.6267 1122.45 93.6719 1122.3 93.7573C1122.09 93.8678 1121.71 94.2243 1121.4 95.3292C1120.98 96.8056 1119.63 97.8401 1118.11 97.8401Z" fill="#F2C32A"/>
<path d="M1121.21 81.1594C1121.42 81.1594 1121.63 81.1896 1121.84 81.2498C1121.94 81.28 1122.03 81.3151 1122.12 81.3553C1123.15 81.8173 1123.69 82.9924 1123.38 84.0872C1123.05 85.2423 1123.06 86.1563 1123.41 86.8041C1123.67 87.2762 1124.15 87.6729 1124.84 87.9843C1125.09 88.0948 1125.36 88.1952 1125.66 88.2806C1125.76 88.3107 1125.85 88.3459 1125.95 88.386C1126.97 88.8481 1127.51 90.0232 1127.2 91.118C1126.92 92.1224 1126.01 92.7753 1125.03 92.7753C1124.82 92.7753 1124.62 92.7451 1124.41 92.6848C1123.86 92.5241 1123.37 92.4438 1122.93 92.4438C1122.47 92.4438 1122.07 92.5342 1121.74 92.72C1121.1 93.0766 1120.61 93.8449 1120.29 95C1120 96.0044 1119.09 96.6572 1118.11 96.6572C1117.91 96.6572 1117.7 96.6271 1117.49 96.5668C1117.39 96.5367 1117.3 96.5016 1117.21 96.4614C1116.18 95.9994 1115.64 94.8242 1115.95 93.7294C1116.28 92.5744 1116.27 91.6604 1115.91 91.0126C1115.66 90.5405 1115.18 90.1437 1114.49 89.8324C1114.24 89.7219 1113.97 89.6215 1113.67 89.5361C1113.57 89.506 1113.48 89.4708 1113.38 89.4306C1112.35 88.9686 1111.82 87.7935 1112.13 86.6987C1112.41 85.6943 1113.32 85.0414 1114.3 85.0414C1114.51 85.0414 1114.71 85.0715 1114.92 85.1318C1115.47 85.2925 1115.96 85.3729 1116.4 85.3729C1116.86 85.3729 1117.26 85.2825 1117.59 85.0967C1118.23 84.7401 1118.72 83.9717 1119.04 82.8167C1119.21 82.2291 1119.59 81.742 1120.12 81.4457C1120.46 81.2549 1120.83 81.1594 1121.21 81.1594ZM1121.21 78.7941C1120.44 78.7941 1119.68 78.995 1119 79.3766C1117.93 79.9793 1117.15 80.9686 1116.81 82.1638C1116.67 82.666 1116.53 82.9121 1116.46 83.0075C1116.44 83.0075 1116.42 83.0075 1116.4 83.0075C1116.25 83.0075 1115.98 82.9824 1115.56 82.8569C1115.15 82.7363 1114.72 82.6761 1114.29 82.6761C1112.26 82.6761 1110.45 84.0571 1109.89 86.0408C1109.25 88.2655 1110.35 90.651 1112.43 91.5901C1112.62 91.6754 1112.82 91.7457 1113.02 91.806C1113.22 91.8612 1113.39 91.9265 1113.54 91.9968C1113.7 92.0671 1113.8 92.1274 1113.85 92.1676C1113.86 92.2931 1113.85 92.5744 1113.71 93.0715C1113.08 95.2963 1114.17 97.6817 1116.26 98.6208C1116.44 98.7062 1116.64 98.7765 1116.84 98.8368C1117.25 98.9573 1117.68 99.0176 1118.11 99.0176C1120.14 99.0176 1121.95 97.6365 1122.51 95.6528C1122.66 95.1507 1122.8 94.9046 1122.87 94.8041C1122.88 94.8041 1122.9 94.8041 1122.93 94.8041C1123.07 94.8041 1123.34 94.8292 1123.76 94.9548C1124.18 95.0753 1124.6 95.1356 1125.03 95.1356C1127.06 95.1356 1128.87 93.7546 1129.44 91.7709C1130.07 89.5461 1128.97 87.1607 1126.89 86.2216C1126.7 86.1362 1126.5 86.0659 1126.31 86.0056C1126.11 85.9504 1125.94 85.8851 1125.78 85.8148C1125.62 85.7445 1125.53 85.6842 1125.47 85.6441C1125.47 85.5185 1125.47 85.2373 1125.61 84.7401C1126.25 82.5154 1125.16 80.1299 1123.07 79.1908C1122.88 79.1054 1122.68 79.0351 1122.49 78.9749C1122.07 78.8543 1121.64 78.7891 1121.21 78.7891V78.7941Z" fill="white"/>
<path d="M1042.33 128.85C1042.33 128.85 1050.59 123.461 1057.5 110.721C1061.47 103.381 1065.84 98.2526 1077.07 93.8268C1085.93 90.3358 1096.15 95.6014 1092.86 101.831C1090.71 105.882 1079.36 116.086 1073.42 123.761C1067.48 131.442 1058.38 142.893 1046.74 145.838C1035.1 148.789 1029.52 143.709 1029.52 143.709L1042.33 128.851L1042.33 128.85Z" fill="url(#paint0_linear_1423_7834)"/>
<path fill-rule="evenodd" clip-rule="evenodd" d="M1088.96 95.2796C1086.03 93.7822 1081.62 93.3537 1077.52 94.9713C1072.01 97.1442 1068.25 99.4614 1065.39 102.087C1062.54 104.712 1060.53 107.7 1058.58 111.308C1055.06 117.795 1051.19 122.421 1048.19 125.432C1046.69 126.937 1045.41 128.04 1044.49 128.771C1044.04 129.136 1043.67 129.409 1043.41 129.592C1043.31 129.664 1043.23 129.722 1043.17 129.767L1031.34 143.485C1031.97 143.858 1032.9 144.321 1034.14 144.712C1036.77 145.545 1040.84 146.071 1046.44 144.651C1051.97 143.25 1056.98 139.804 1061.38 135.682C1065.77 131.565 1069.48 126.853 1072.45 123.013C1075.31 119.317 1079.39 115.061 1083.07 111.225C1083.27 111.012 1083.47 110.8 1083.68 110.59C1085.6 108.579 1087.39 106.701 1088.83 105.076C1090.29 103.424 1091.31 102.126 1091.77 101.259C1092.42 100.036 1092.38 98.9497 1091.92 97.9964C1091.44 96.9932 1090.43 96.0278 1088.96 95.2796ZM1029.52 143.712L1028.69 144.62C1028.2 144.172 1028.16 143.414 1028.59 142.91L1041.33 128.136C1041.42 128.015 1041.53 127.909 1041.66 127.825C1041.66 127.825 1041.66 127.825 1041.66 127.825C1041.66 127.824 1041.66 127.824 1041.66 127.824L1041.67 127.816C1041.68 127.808 1041.7 127.794 1041.73 127.776C1041.78 127.738 1041.87 127.68 1041.98 127.599C1042.2 127.439 1042.54 127.191 1042.96 126.852C1043.81 126.174 1045.03 125.133 1046.45 123.699C1049.31 120.831 1053.03 116.392 1056.42 110.139C1058.44 106.407 1060.6 103.161 1063.73 100.28C1066.86 97.4001 1070.9 94.9403 1076.62 92.6874C1081.37 90.814 1086.51 91.2728 1090.08 93.0927C1091.86 94.0032 1093.35 95.304 1094.13 96.931C1094.94 98.6079 1094.94 100.516 1093.94 102.407C1093.33 103.566 1092.12 105.063 1090.67 106.704C1089.19 108.371 1087.37 110.283 1085.45 112.289C1085.26 112.487 1085.07 112.686 1084.88 112.885C1081.17 116.757 1077.17 120.926 1074.39 124.515C1071.43 128.354 1067.61 133.208 1063.06 137.474C1058.51 141.735 1053.14 145.486 1047.04 147.031C1041 148.562 1036.47 148.023 1033.4 147.053C1031.87 146.57 1030.72 145.984 1029.93 145.507C1029.54 145.269 1029.25 145.058 1029.04 144.902C1028.94 144.823 1028.86 144.759 1028.8 144.71C1028.77 144.686 1028.75 144.667 1028.73 144.651C1028.72 144.644 1028.71 144.637 1028.71 144.632L1028.7 144.625L1028.69 144.621C1028.69 144.62 1028.69 144.62 1029.52 143.712Z" fill="#543816"/>
<path d="M998.732 50.0521C998.732 50.0521 989.143 48.9258 987.341 38.9765C985.543 29.028 980.436 30.231 978.209 33.6056C975.056 38.3823 971.741 53.8898 989.464 58.3965L998.733 50.0465L998.732 50.0521Z" fill="url(#paint1_linear_1423_7834)"/>
<path fill-rule="evenodd" clip-rule="evenodd" d="M980.405 38.4393C980.239 38.2486 980.125 38.0097 980.086 37.7412C980.076 37.6506 980.078 37.4153 980.1 37.2724C980.166 37.049 980.466 36.5877 980.716 36.388C980.988 36.2578 981.487 36.1831 981.69 36.206C981.813 36.2353 982.007 36.3072 982.079 36.3431C982.207 36.4113 982.294 36.4848 982.319 36.5058C982.356 36.5373 982.384 36.5646 982.4 36.5801C982.45 36.6301 982.488 36.6757 982.496 36.6861C982.497 36.6865 982.497 36.6869 982.497 36.6872C982.524 36.7202 982.55 36.754 982.569 36.7784C982.61 36.8329 982.662 36.905 982.723 36.9908C982.845 37.1642 983.014 37.4125 983.212 37.7228C983.609 38.3427 984.135 39.2232 984.653 40.2596C985.663 42.2823 986.75 45.1047 986.59 47.79M980.405 38.4393C980.424 38.4654 980.454 38.5062 980.493 38.562C980.591 38.7012 980.737 38.9161 980.915 39.194C981.272 39.7505 981.747 40.546 982.213 41.4786C983.169 43.394 983.983 45.682 983.867 47.6284L983.867 47.6293C983.518 53.5425 985.598 57.2352 987.354 58.7017C987.932 59.1844 988.792 59.1071 989.275 58.5289C989.758 57.9507 989.68 57.0906 989.102 56.6079C988.15 55.813 986.28 53.0401 986.59 47.7904" fill="#543816"/>
<path d="M976.868 34.991C976.868 34.991 981.36 33.9797 983.591 41.2854C985.822 48.591 985.46 52.6086 985.919 54.584C986.377 56.5594 986.685 57.6702 986.685 57.6702C986.685 57.6702 975.735 51.8408 975.945 44.6656C976.156 37.4903 976.869 34.9854 976.869 34.9854L976.868 34.991Z" fill="url(#paint2_linear_1423_7834)"/>
<path fill-rule="evenodd" clip-rule="evenodd" d="M983.324 29.977C985.916 30.7359 987.783 33.6745 988.697 38.7355C989.512 43.2333 992.055 45.6917 994.406 47.0587C995.594 47.7498 996.736 48.1613 997.58 48.3989C998 48.5173 998.342 48.5912 998.573 48.6349C998.67 48.6533 998.748 48.6662 998.802 48.6748C999.001 48.6847 999.2 48.7377 999.383 48.8358C999.895 49.1093 1000.18 49.6744 1000.1 50.2489L1000.1 50.2545C1000.04 50.6211 999.85 50.9337 999.578 51.1449L990.386 59.425C990.044 59.7333 989.571 59.8502 989.125 59.7367C984.499 58.5605 981.145 56.6392 978.804 54.2657C976.461 51.889 975.199 49.1249 974.656 46.3734C973.587 40.9439 975.305 35.5085 977.059 32.8512M995.892 50.7561C995.04 50.4603 994.047 50.0385 993.02 49.4412C990.125 47.7577 986.973 44.6784 985.985 39.2269L985.985 39.2262C985.102 34.3391 983.516 32.9052 982.549 32.6221C981.615 32.3487 980.323 32.9105 979.36 34.3694L979.36 34.3695C977.96 36.4889 976.445 41.1956 977.361 45.8406C977.811 48.1265 978.846 50.3827 980.767 52.3305C982.582 54.1709 985.245 55.7945 989.097 56.8767L995.892 50.7561ZM983.324 29.977C980.698 29.2085 978.324 30.9356 977.059 32.8512Z" fill="#543816"/>
<path fill-rule="evenodd" clip-rule="evenodd" d="M980.405 38.4393C980.239 38.2486 980.125 38.0097 980.086 37.7412C980.076 37.6506 980.078 37.4153 980.1 37.2724C980.166 37.049 980.466 36.5877 980.716 36.388C980.988 36.2578 981.487 36.1831 981.69 36.206C981.813 36.2353 982.007 36.3072 982.079 36.3431C982.207 36.4113 982.294 36.4848 982.319 36.5058C982.356 36.5373 982.384 36.5646 982.4 36.5801C982.45 36.6301 982.488 36.6757 982.496 36.6861C982.497 36.6865 982.497 36.6869 982.497 36.6872C982.524 36.7202 982.55 36.754 982.569 36.7784C982.61 36.8329 982.662 36.905 982.723 36.9908C982.845 37.1642 983.014 37.4125 983.212 37.7228C983.609 38.3427 984.135 39.2232 984.653 40.2596C985.663 42.2823 986.75 45.1047 986.59 47.79M980.405 38.4393C980.424 38.4654 980.454 38.5062 980.493 38.562C980.591 38.7012 980.737 38.9161 980.915 39.194C981.272 39.7505 981.747 40.546 982.213 41.4786C983.169 43.394 983.983 45.682 983.867 47.6284L983.867 47.6293C983.518 53.5425 985.598 57.2352 987.354 58.7017C987.932 59.1844 988.792 59.1071 989.275 58.5289C989.758 57.9507 989.68 57.0906 989.102 56.6079C988.15 55.813 986.28 53.0401 986.59 47.7904" fill="#543816"/>
<path d="M984.324 90.8175C984.324 90.8175 975.27 87.9859 977.073 72.3166C978.876 56.6473 993.836 46.5712 1008.87 45.1446C1023.9 43.718 1039.82 57.1012 1046.17 78.8418C1052.04 98.9478 1061.33 133.63 1045.11 149.611C1034.7 159.871 990.024 162.996 977.903 142.976C965.627 122.697 984.325 90.8119 984.325 90.8119L984.324 90.8175Z" fill="#D1D1D1"/>
<path d="M980.088 86.3113C980.088 86.3113 983.805 85.3138 982.542 77.8332C982.028 74.8007 979.419 72.6283 976.807 72.9719C976.807 72.9719 975.816 81.0544 980.088 86.3169L980.088 86.3113Z" fill="#D8ABAB"/>
<path d="M984.729 65.6613C986.158 65.9314 986.143 68.3657 986.033 71.3077C985.885 75.3276 984.272 76.4467 983.555 76.6409C982.094 77.0309 981.024 75.03 981.173 71.0044C981.307 67.3494 982.929 65.3143 984.729 65.6613Z" fill="#543816"/>
<path fill-rule="evenodd" clip-rule="evenodd" d="M983.301 67.5175C982.827 68.193 982.424 69.3679 982.362 71.0498L982.362 71.0499C982.291 72.9848 982.523 74.278 982.845 74.9896C983.003 75.3402 983.143 75.4614 983.19 75.4917C983.192 75.4929 983.194 75.4942 983.195 75.4953C983.201 75.5006 983.204 75.5038 983.245 75.4931C983.29 75.4793 984.707 74.9632 984.843 71.2653L984.843 71.2645C984.899 69.7666 984.922 68.5448 984.782 67.6716C984.713 67.238 984.619 66.9984 984.545 66.8825C984.528 66.8551 984.515 66.84 984.508 66.8327C984.508 66.8327 984.508 66.8327 984.508 66.8326L984.504 66.8319C984.188 66.7709 983.759 66.8644 983.301 67.5175ZM984.953 64.4935C983.469 64.2084 982.188 64.9588 981.352 66.1497C980.531 67.3187 980.056 68.9888 979.983 70.9619M984.953 64.4935C986.492 64.7857 986.965 66.2413 987.134 67.2965C987.317 68.4434 987.277 69.9097 987.223 71.3538C987.063 75.6695 985.274 77.4101 983.867 77.7915L983.862 77.7927L983.862 77.7927C983.185 77.9734 982.497 77.8774 981.901 77.4931C981.34 77.132 980.948 76.5745 980.675 75.9705C980.134 74.7727 979.906 73.0526 979.983 70.962" fill="#543816"/>
<path d="M1019.04 70.2489C1023.62 69.7093 1028.98 74.4535 1028.35 79.7384C1027.86 83.8121 1023.98 86.7635 1020.12 87.0528C1017.42 87.2521 1014.04 86.2003 1012.52 83.5433C1009.88 78.947 1013.58 70.885 1019.04 70.2433L1019.04 70.2489Z" fill="#D8ABAB"/>
<path d="M1009.31 68.6362C1008.7 70.3126 1008.64 73.5368 1009.01 75.5973C1009.2 76.6391 1011.38 78.6977 1013.33 76.5856C1015.29 74.4735 1014.71 68.7428 1013.26 67.3683C1012.11 66.2849 1010.01 66.7143 1009.31 68.6362Z" fill="#543816"/>
<path fill-rule="evenodd" clip-rule="evenodd" d="M1007.97 68.1487C1008.97 65.4008 1012.24 64.4466 1014.24 66.3334L1014.24 66.3335C1014.88 66.9364 1015.28 67.843 1015.53 68.6859C1015.8 69.5767 1015.96 70.606 1016.01 71.6417C1016.05 72.6768 1015.98 73.7672 1015.75 74.7745C1015.52 75.7656 1015.1 76.7843 1014.38 77.5616C1013.72 78.2778 1012.95 78.7271 1012.11 78.8788C1011.29 79.029 1010.52 78.8643 1009.9 78.5724C1009.29 78.2844 1008.78 77.8602 1008.4 77.4194C1008.04 77.0023 1007.71 76.4524 1007.6 75.8557C1007.39 74.7038 1007.31 73.2774 1007.36 71.9255C1007.41 70.597 1007.59 69.1962 1007.97 68.1487ZM1012.28 68.4109C1011.98 68.1313 1011.05 68.0356 1010.65 69.1304L1010.65 69.1327C1010.42 69.7614 1010.26 70.8104 1010.22 72.0278C1010.18 73.2116 1010.25 74.4165 1010.41 75.3224C1010.41 75.3222 1010.41 75.322 1010.41 75.322C1010.41 75.3212 1010.45 75.4138 1010.58 75.565C1010.72 75.7372 1010.91 75.8909 1011.11 75.9838C1011.3 76.0728 1011.46 76.0917 1011.6 76.0665C1011.73 76.0426 1011.97 75.9572 1012.29 75.6174C1012.55 75.3387 1012.79 74.849 1012.96 74.1286C1013.13 73.4244 1013.19 72.6003 1013.15 71.7668C1013.11 70.934 1012.98 70.141 1012.79 69.5047C1012.59 68.8208 1012.37 68.4957 1012.28 68.4111" fill="#543816"/>
<path d="M998.025 94.2018C1003.18 93.2755 1010.6 92.3786 1015.33 91.8485C1018.37 91.5096 1021.34 92.9384 1022.95 95.5674C1031.85 110.152 1031.68 123.69 1031.74 133.422C1031.86 149.501 1013.98 163.981 997.474 156.71C980.96 149.437 975.883 140.154 974.367 128.578C972.85 117.008 981.845 95.9551 981.845 95.9551L983.965 91.1777C983.965 91.1777 992.526 95.1876 998.019 94.201L998.025 94.2018Z" fill="#EFEFEF"/>
<path fill-rule="evenodd" clip-rule="evenodd" d="M1044.99 78.8177C1038.73 57.3617 1023.18 44.6512 1008.99 45.9986C994.303 47.3922 980.009 57.1965 978.295 72.0889C977.423 79.6669 979.165 84.0878 980.974 86.5832C981.888 87.8436 982.844 88.6487 983.556 89.1334C983.912 89.376 984.207 89.5382 984.404 89.6364C984.486 89.6772 984.55 89.7069 984.595 89.7267C984.606 89.73 984.617 89.7334 984.628 89.7371C985.191 89.9255 985.538 90.4897 985.453 91.0772L985.453 91.0828C985.428 91.2513 985.369 91.4106 985.282 91.5519C985.278 91.5592 985.274 91.5671 985.269 91.5756C985.238 91.6343 985.19 91.7232 985.128 91.8409C985.005 92.0764 984.823 92.4271 984.596 92.8823C984.141 93.7929 983.503 95.1204 982.774 96.7783C981.314 100.096 979.497 104.725 978.06 109.972C975.166 120.541 973.908 133.282 979.771 142.967L978.721 143.603L979.771 142.967C982.617 147.668 987.373 151.026 993.195 153.24C999.015 155.453 1005.82 156.49 1012.62 156.595C1019.42 156.699 1026.16 155.87 1031.82 154.392C1037.52 152.902 1041.97 150.794 1044.34 148.456L1044.34 148.456C1052.05 140.866 1053.79 128.666 1052.75 115.546C1051.71 102.483 1047.93 88.8735 1044.99 78.8177ZM982.581 91.4263C982.452 91.347 982.316 91.2593 982.174 91.1626C981.261 90.541 980.089 89.5446 978.987 88.0241C976.764 84.9579 974.925 79.8997 975.856 71.8083C977.749 55.3622 993.374 45.0144 1008.76 43.5547C1024.62 42.0487 1040.92 56.1048 1047.35 78.1298L1047.35 78.1299C1050.28 88.1802 1054.13 102.009 1055.19 115.351C1056.25 128.638 1054.58 141.813 1046.06 150.205C1043.23 152.996 1038.28 155.241 1032.44 156.767C1026.55 158.305 1019.59 159.157 1012.58 159.049C1005.58 158.942 998.477 157.875 992.322 155.534C986.168 153.194 980.886 149.549 977.671 144.239L978.715 143.607L977.671 144.239C971.258 133.645 972.759 120.035 975.693 109.323C977.17 103.93 979.033 99.1848 980.527 95.7899C981.274 94.0912 981.929 92.7273 982.4 91.7855C982.464 91.6579 982.524 91.5381 982.581 91.4263Z" fill="#543816"/>
<path d="M1019.67 55.0204C1019.67 55.0204 1030.26 48.9545 1034.38 43.3956C1038.51 37.8375 1038.25 31.0634 1044.92 30.5571C1051.59 30.0508 1055.45 43.1247 1052.38 50.3669C1049.31 57.6036 1044.32 59.7867 1033.91 61.8254" fill="url(#paint3_linear_1423_7834)"/>
<path fill-rule="evenodd" clip-rule="evenodd" d="M1048.29 33.4432C1047.25 32.3916 1046.16 31.9232 1045.03 32.009C1043.63 32.1152 1042.68 32.536 1041.96 33.1256C1041.2 33.7382 1040.59 34.6065 1039.99 35.7566C1039.59 36.5187 1039.24 37.3106 1038.85 38.1805C1038.64 38.6687 1038.41 39.1815 1038.16 39.7273C1037.48 41.1875 1036.67 42.7563 1035.55 44.2626C1033.34 47.2473 1029.49 50.2675 1026.31 52.4858C1024.7 53.6104 1023.23 54.5573 1022.15 55.2231C1021.62 55.5563 1021.18 55.8198 1020.87 56.0008C1020.72 56.0913 1020.6 56.1612 1020.52 56.2089C1020.48 56.2327 1020.45 56.251 1020.43 56.2636L1020.4 56.2781L1020.39 56.2832L1020.39 56.2835C1020.39 56.2837 1020.39 56.2838 1019.67 55.0189L1020.39 56.2835C1019.69 56.6836 1018.8 56.4419 1018.4 55.7433C1018 55.0447 1018.24 54.1541 1018.94 53.754L1018.95 53.7509L1018.97 53.7391C1018.99 53.7284 1019.02 53.7119 1019.05 53.69C1019.13 53.6461 1019.24 53.5802 1019.39 53.494C1019.68 53.3215 1020.1 53.0677 1020.62 52.7454C1021.66 52.1002 1023.09 51.1831 1024.64 50.0964C1027.8 47.892 1031.3 45.0998 1033.21 42.5256L1033.21 42.5248C1034.16 41.2523 1034.87 39.8903 1035.51 38.5016C1035.72 38.0562 1035.92 37.5913 1036.13 37.1225C1036.55 36.1907 1036.97 35.2437 1037.41 34.4042C1038.09 33.1027 1038.92 31.8352 1040.12 30.8616C1041.35 29.865 1042.87 29.2491 1044.81 29.1022C1047.01 28.9348 1048.9 29.9108 1050.37 31.3945C1051.82 32.8632 1052.93 34.8892 1053.68 37.0802C1055.18 41.4261 1055.44 46.8921 1053.72 50.9343C1052.08 54.804 1049.87 57.4204 1046.63 59.304C1043.47 61.1419 1039.41 62.2325 1034.19 63.2544C1033.4 63.409 1032.63 62.894 1032.48 62.104C1032.32 61.3139 1032.84 60.5481 1033.63 60.3935C1038.82 59.3766 1042.46 58.3563 1045.17 56.7838C1047.79 55.2569 1049.61 53.1633 1051.04 49.7962C1052.39 46.5962 1052.26 41.9043 1050.92 38.0294C1050.26 36.1099 1049.35 34.5098 1048.29 33.4432Z" fill="#543816"/>
<path d="M1037.22 57.1777C1037.22 57.1777 1040.51 54.0548 1040.99 50.8914C1041.48 47.728 1041.85 40.049 1043.05 38.0453C1044.25 36.0408 1049.86 32.5823 1051.25 34.4813C1052.64 36.3796 1055.2 43.4294 1053.44 48.2011C1051.67 52.9728 1050.96 55.821 1047.7 57.4641C1044.44 59.1128 1035.2 62.3649 1035.2 62.3649C1035.2 62.3649 1036 58.3015 1037.23 57.1785L1037.22 57.1777Z" fill="url(#paint4_linear_1423_7834)"/>
<path fill-rule="evenodd" clip-rule="evenodd" d="M1048.51 33.2216C1047.43 32.1241 1046.25 31.6018 1045.01 31.6962C1043.55 31.8068 1042.54 32.2482 1041.76 32.8811C1040.96 33.5321 1040.33 34.4428 1039.71 35.609C1039.31 36.3791 1038.95 37.1869 1038.56 38.0639C1038.35 38.5505 1038.12 39.0584 1037.87 39.5931C1037.2 41.046 1036.41 42.593 1035.3 44.0748C1033.12 47.0156 1029.31 50.0113 1026.14 52.228C1024.53 53.3486 1023.06 54.2923 1021.99 54.9559C1021.46 55.288 1021.02 55.5504 1020.72 55.7305C1020.56 55.8205 1020.45 55.89 1020.36 55.9373C1020.32 55.9609 1020.29 55.979 1020.27 55.9914L1020.25 56.0056L1020.24 56.0109C1020.24 56.011 1020.24 56.0111 1019.67 55.0149L1020.24 56.0109C1019.69 56.3259 1018.99 56.1355 1018.67 55.5854C1018.36 55.0353 1018.55 54.3339 1019.1 54.0188M1019.1 54.0188L1019.1 54.0154L1019.12 54.0033C1019.14 53.9924 1019.17 53.9758 1019.21 53.9536C1019.29 53.9093 1019.4 53.843 1019.54 53.7564C1019.84 53.583 1020.26 53.3281 1020.78 53.0046C1021.83 52.3572 1023.26 51.437 1024.82 50.3463C1027.98 48.1404 1031.52 45.324 1033.46 42.7062L1033.46 42.7055C1034.43 41.4082 1035.14 40.0242 1035.79 38.6279C1036 38.1722 1036.21 37.702 1036.42 37.2307C1036.83 36.3049 1037.25 35.375 1037.68 34.544C1038.35 33.2585 1039.16 32.0334 1040.32 31.0981C1041.49 30.1448 1042.95 29.5496 1044.83 29.407C1046.92 29.2484 1048.73 30.1704 1050.15 31.6082C1051.56 33.0342 1052.64 35.015 1053.39 37.1771C1054.87 41.4729 1055.11 46.8567 1053.44 50.8095C1051.82 54.6257 1049.65 57.1866 1046.47 59.0323C1043.36 60.842 1039.34 61.9251 1034.13 62.9465C1033.51 63.0683 1032.9 62.6627 1032.78 62.0405C1032.66 61.4183 1033.06 60.8152 1033.69 60.6934C1038.88 59.676 1042.57 58.6482 1045.32 57.0476C1048.01 55.4828 1049.87 53.3337 1051.32 49.9134C1052.72 46.6239 1052.57 41.8497 1051.22 37.9246C1050.55 35.9763 1049.61 34.3309 1048.51 33.2216" fill="#543816"/>
<path fill-rule="evenodd" clip-rule="evenodd" d="M1046.76 35.2784C1046.98 35.9132 1046.64 36.603 1046.01 36.825C1046.01 36.8255 1046.01 36.8262 1046 36.8273C1045.99 36.8317 1045.97 36.8413 1045.93 36.8567C1045.86 36.8875 1045.75 36.9413 1045.61 37.0233C1045.32 37.1875 1044.92 37.4621 1044.51 37.8882C1043.69 38.7231 1042.74 40.2006 1042.53 42.7453M1045.6 35.6725C1045.21 34.5161 1045.21 34.5163 1045.21 34.5166L1045.21 34.5171L1045.2 34.5183L1045.19 34.5211L1045.17 34.5284C1045.16 34.5339 1045.14 34.541 1045.12 34.5498C1045.07 34.5672 1045.01 34.5912 1044.94 34.6225C1044.8 34.6851 1044.61 34.7774 1044.39 34.9062C1043.94 35.1635 1043.36 35.5691 1042.76 36.1776C1041.55 37.4118 1040.35 39.4208 1040.1 42.5461L1040.1 42.5472C1040.03 43.3301 1039.99 44.0975 1039.94 44.8485C1039.65 49.7954 1039.39 54.0333 1034.36 57.3126C1033.79 57.6809 1033.63 58.4378 1034 59.0032C1034.37 59.5686 1035.13 59.7283 1035.69 59.36C1041.82 55.3655 1042.13 49.8172 1042.4 44.8711C1042.44 44.1474 1042.48 43.4366 1042.53 42.7454M1045.6 35.6725L1045.21 34.5161C1045.85 34.2984 1046.54 34.6397 1046.76 35.2784" fill="#543816"/>
<path fill-rule="evenodd" clip-rule="evenodd" d="M1005.83 93.6648C1005.88 94.3406 1005.38 94.9315 1004.7 94.9846C997.925 95.5169 992.752 94.8384 989.248 94.0131C987.497 93.6007 986.165 93.152 985.26 92.8009C984.808 92.6253 984.463 92.4742 984.225 92.3641C984.106 92.3091 984.015 92.2643 983.95 92.2319C983.918 92.2157 983.892 92.2026 983.873 92.1929L983.85 92.1808L983.842 92.1767L983.84 92.1752L983.838 92.1745C983.838 92.1742 983.837 92.1739 984.419 91.093L983.837 92.1739C983.24 91.8528 983.017 91.1085 983.338 90.5115C983.658 89.9154 984.401 89.6915 984.998 90.0105L984.998 90.0106L985.005 90.0143C985.013 90.0185 985.028 90.0261 985.049 90.0368C985.092 90.0583 985.161 90.0923 985.257 90.1367C985.449 90.2256 985.747 90.3562 986.149 90.5123C986.953 90.8245 988.176 91.2386 989.811 91.6236C993.078 92.3932 997.997 93.0487 1004.51 92.5372C1005.18 92.4841 1005.77 92.9889 1005.83 93.6648Z" fill="#543816"/>
<path d="M1021.98 107.27C1021.98 107.27 1018.38 111.46 1018.87 115.75C1019.36 120.04 1021.77 118.016 1021.77 118.016C1021.77 118.016 1022.83 118.921 1023.73 117.991C1023.73 117.991 1025.26 119.049 1025.85 117.656C1026.44 116.262 1026.86 112.116 1028.36 110.258" fill="url(#paint5_linear_1423_7834)"/>
<path d="M1021.76 118.022C1021.76 118.022 1021.37 116.107 1021.81 114.412Z" fill="url(#paint6_linear_1423_7834)"/>
<path d="M1023.73 117.996C1023.73 117.996 1023.64 116.539 1024.08 114.693Z" fill="url(#paint7_linear_1423_7834)"/>
<path fill-rule="evenodd" clip-rule="evenodd" d="M1022.33 106.515C1022.75 106.874 1022.8 107.506 1022.44 107.925L1021.68 107.273C1022.44 107.925 1022.44 107.925 1022.44 107.925L1022.43 107.93C1022.43 107.936 1022.42 107.945 1022.41 107.959C1022.39 107.985 1022.35 108.027 1022.31 108.083C1022.22 108.195 1022.09 108.362 1021.94 108.578C1021.63 109.01 1021.22 109.629 1020.83 110.373C1020.03 111.885 1019.35 113.789 1019.56 115.64C1019.68 116.635 1019.89 117.121 1020.04 117.338C1020.16 117.496 1020.22 117.496 1020.24 117.496C1020.25 117.496 1020.25 117.496 1020.25 117.496C1020.33 117.5 1020.46 117.468 1020.62 117.384C1020.69 117.347 1020.75 117.308 1020.79 117.28C1020.8 117.267 1020.82 117.257 1020.82 117.251C1020.83 117.25 1020.83 117.249 1020.83 117.249C1021.2 116.943 1021.73 116.943 1022.1 117.249C1022.1 117.25 1022.11 117.251 1022.11 117.254C1022.12 117.262 1022.14 117.277 1022.17 117.295C1022.23 117.334 1022.31 117.373 1022.39 117.395C1022.47 117.418 1022.52 117.417 1022.55 117.411C1022.57 117.407 1022.62 117.394 1022.72 117.298C1023.06 116.947 1023.6 116.894 1024 117.174L1023.43 117.995C1024 117.174 1024 117.173 1024 117.173L1024 117.173L1024 117.172L1024 117.171L1024 117.169C1024 117.169 1024 117.169 1024 117.17C1024 117.172 1024.01 117.177 1024.02 117.185C1024.05 117.2 1024.08 117.222 1024.13 117.247C1024.24 117.301 1024.36 117.348 1024.46 117.369C1024.52 117.379 1024.55 117.38 1024.57 117.379C1024.58 117.362 1024.6 117.329 1024.63 117.269L1024.63 117.264C1024.74 117.009 1024.86 116.573 1025.01 115.948C1025.05 115.749 1025.1 115.531 1025.16 115.303C1025.26 114.859 1025.37 114.372 1025.49 113.891C1025.86 112.462 1026.38 110.754 1027.28 109.633C1027.63 109.204 1028.26 109.136 1028.69 109.483C1029.12 109.83 1029.18 110.46 1028.84 110.89C1028.24 111.627 1027.8 112.925 1027.43 114.383C1027.32 114.846 1027.21 115.29 1027.11 115.72C1027.06 115.955 1027.01 116.185 1026.95 116.412C1026.81 117.012 1026.65 117.614 1026.47 118.052C1026.23 118.598 1025.86 119.005 1025.36 119.219C1024.89 119.422 1024.42 119.399 1024.07 119.331C1023.87 119.29 1023.68 119.229 1023.52 119.165C1022.92 119.48 1022.31 119.454 1021.83 119.316C1021.7 119.279 1021.59 119.235 1021.48 119.188C1021.5 119.176 1021.53 119.165 1021.55 119.154C1021.71 119.068 1021.84 118.982 1021.94 118.916C1021.98 118.882 1022.02 118.853 1022.05 118.831C1022.07 118.819 1022.08 118.81 1022.09 118.802L1022.1 118.792L1022.11 118.788L1022.11 118.786L1022.11 118.785C1022.11 118.785 1022.11 118.784 1021.47 118.019L1022.11 117.257C1022.11 117.257 1022.11 117.257 1022.11 117.257C1022.11 117.257 1022.11 117.257 1021.47 118.019C1020.82 117.254 1020.82 117.254 1020.82 117.254C1020.82 117.254 1020.82 117.254 1020.82 117.254L1021.47 118.019C1020.82 118.781 1020.82 118.782 1020.82 118.782L1020.82 118.783L1020.82 118.784L1020.82 118.787L1020.83 118.794C1020.84 118.799 1020.85 118.804 1020.85 118.811C1020.87 118.824 1020.89 118.841 1020.92 118.859C1020.97 118.897 1021.04 118.945 1021.12 118.997C1021.22 119.056 1021.34 119.124 1021.48 119.188C1021.17 119.343 1020.7 119.519 1020.16 119.495C1019.51 119.465 1018.88 119.156 1018.42 118.498C1017.98 117.888 1017.71 117.018 1017.58 115.867C1017.3 113.429 1018.18 111.093 1019.06 109.437C1019.5 108.596 1019.96 107.9 1020.31 107.412C1020.49 107.168 1020.64 106.975 1020.74 106.841C1020.8 106.773 1020.84 106.721 1020.87 106.684C1020.88 106.666 1020.9 106.651 1020.9 106.641L1020.92 106.628L1020.92 106.624L1020.92 106.622C1020.92 106.622 1020.92 106.622 1021.68 107.273L1020.92 106.622C1021.28 106.203 1021.91 106.155 1022.33 106.515ZM1024.55 117.394C1024.55 117.393 1024.55 117.391 1024.56 117.388C1024.55 117.393 1024.55 117.394 1024.55 117.394Z" fill="#543816"/>
<path fill-rule="evenodd" clip-rule="evenodd" d="M1021.77 113.448C1022.3 113.587 1022.62 114.134 1022.48 114.668C1022.3 115.372 1022.28 116.155 1022.32 116.794C1022.34 117.107 1022.37 117.371 1022.4 117.555C1022.41 117.647 1022.43 117.718 1022.43 117.764C1022.44 117.788 1022.44 117.804 1022.44 117.814L1022.44 117.824C1022.56 118.365 1022.21 118.894 1021.67 119.005C1021.13 119.116 1020.6 118.768 1020.49 118.227L1021.46 118.025C1020.49 118.227 1020.49 118.227 1020.49 118.227L1020.48 118.225L1020.48 118.223L1020.48 118.215L1020.48 118.192C1020.47 118.174 1020.47 118.148 1020.46 118.115C1020.45 118.05 1020.44 117.958 1020.42 117.844C1020.39 117.616 1020.35 117.296 1020.32 116.918C1020.28 116.176 1020.29 115.155 1020.55 114.162C1020.69 113.628 1021.23 113.308 1021.77 113.448Z" fill="#543816"/>
<path fill-rule="evenodd" clip-rule="evenodd" d="M1024.01 113.726C1024.54 113.853 1024.88 114.392 1024.75 114.93C1024.55 115.782 1024.47 116.547 1024.44 117.097C1024.42 117.372 1024.42 117.59 1024.42 117.737C1024.42 117.81 1024.42 117.865 1024.42 117.9C1024.42 117.917 1024.43 117.93 1024.43 117.937L1024.43 117.943" fill="#543816"/>
<path d="M983.687 105.997C983.687 105.997 980.088 110.187 980.578 114.478C981.068 118.768 983.472 116.743 983.472 116.743C983.472 116.743 984.537 117.648 985.44 116.719C985.44 116.719 986.963 117.776 987.554 116.383C988.15 114.996 988.566 110.843 990.065 108.985" fill="url(#paint8_linear_1423_7834)"/>
<path d="M983.472 116.742C983.472 116.742 983.078 114.828 983.521 113.132Z" fill="url(#paint9_linear_1423_7834)"/>
<path d="M985.439 116.716C985.439 116.716 985.351 115.259 985.788 113.413Z" fill="url(#paint10_linear_1423_7834)"/>
<path fill-rule="evenodd" clip-rule="evenodd" d="M984.038 105.249C984.457 105.608 984.505 106.24 984.145 106.659L983.386 106.007C984.145 106.659 984.145 106.659 984.145 106.659L984.141 106.664C984.136 106.67 984.128 106.679 984.117 106.693C984.095 106.719 984.061 106.761 984.017 106.817C983.928 106.929 983.799 107.096 983.645 107.312C983.335 107.744 982.926 108.363 982.532 109.107C981.732 110.619 981.06 112.523 981.271 114.375C981.385 115.369 981.597 115.855 981.751 116.072C981.864 116.23 981.929 116.23 981.95 116.23C981.952 116.23 981.953 116.23 981.954 116.23C982.032 116.234 982.163 116.202 982.322 116.118C982.393 116.081 982.452 116.042 982.492 116.014C982.511 116.001 982.524 115.991 982.531 115.985C982.532 115.984 982.533 115.983 982.534 115.983C982.535 115.982 982.535 115.982 982.535 115.982L982.533 115.984L982.531 115.985L982.529 115.987L982.528 115.988C982.528 115.988 982.527 115.988 983.172 116.753M983.809 115.983C983.81 115.984 983.813 115.985 983.816 115.988C983.827 115.996 983.848 116.011 983.878 116.029C983.94 116.068 984.018 116.107 984.096 116.129C984.173 116.152 984.223 116.151 984.253 116.145C984.272 116.141 984.329 116.128 984.422 116.033C984.761 115.683 985.302 115.629 985.704 115.904C985.704 115.904 985.704 115.904 985.705 115.904C985.708 115.906 985.716 115.911 985.728 115.919C985.752 115.934 985.791 115.956 985.84 115.981C985.945 116.035 986.064 116.082 986.169 116.103C986.223 116.113 986.255 116.114 986.273 116.113C986.286 116.096 986.307 116.063 986.333 116.003L986.335 115.999C986.444 115.744 986.564 115.307 986.714 114.682C986.761 114.483 986.811 114.265 986.864 114.037C986.967 113.593 987.079 113.106 987.201 112.626C987.563 111.196 988.082 109.488 988.987 108.368C989.334 107.938 989.963 107.871 990.393 108.217C990.823 108.564 990.89 109.194 990.543 109.624C989.948 110.361 989.509 111.659 989.14 113.117C989.023 113.58 988.92 114.024 988.821 114.454C988.767 114.689 988.713 114.919 988.659 115.146C988.516 115.746 988.361 116.348 988.173 116.786C987.941 117.332 987.567 117.739 987.067 117.953C986.594 118.156 986.126 118.134 985.78 118.065C985.577 118.024 985.391 117.963 985.231 117.9C984.63 118.214 984.012 118.188 983.538 118.05C983.411 118.013 983.293 117.969 983.188 117.922C982.878 118.077 982.407 118.253 981.863 118.229C981.217 118.199 980.59 117.89 980.122 117.232C979.688 116.622 979.415 115.752 979.284 114.601C979.005 112.163 979.888 109.827 980.764 108.171C981.209 107.33 981.669 106.634 982.019 106.146C982.194 105.902 982.342 105.709 982.449 105.575C982.502 105.507 982.545 105.455 982.575 105.418C982.59 105.4 982.602 105.385 982.611 105.375L982.622 105.362L982.625 105.358L982.627 105.356C982.627 105.356 982.628 105.356 983.386 106.007L982.628 105.356C982.987 104.937 983.619 104.889 984.038 105.249M985.709 115.907L985.709 115.907L985.708 115.906C985.708 115.907 985.709 115.907 985.709 115.907ZM986.258 116.128C986.258 116.128 986.26 116.125 986.265 116.122C986.26 116.127 986.258 116.128 986.258 116.128Z" fill="#543816"/>
<path fill-rule="evenodd" clip-rule="evenodd" d="M983.469 112.168C984.004 112.308 984.324 112.854 984.184 113.389C984 114.092 983.984 114.876 984.024 115.514C984.043 115.827 984.075 116.092 984.102 116.276C984.115 116.368 984.127 116.439 984.136 116.485C984.14 116.508 984.143 116.525 984.145 116.535L984.147 116.545C984.258 117.086 983.91 117.614 983.369 117.725C982.828 117.837 982.299 117.489 982.187 116.948L983.167 116.746C982.187 116.948 982.187 116.948 982.187 116.948L982.187 116.946L982.186 116.943L982.185 116.936L982.181 116.913C982.177 116.894 982.172 116.868 982.166 116.836C982.155 116.77 982.139 116.679 982.123 116.564C982.089 116.337 982.051 116.017 982.027 115.639C981.981 114.896 981.989 113.875 982.249 112.883C982.388 112.348 982.935 112.028 983.469 112.168ZM984.147 116.545L984.147 116.546C984.147 116.546 984.147 116.545 984.147 116.545ZM984.147 116.546C984.147 116.546 984.147 116.546 984.147 116.546Z" fill="#543816"/>
<path fill-rule="evenodd" clip-rule="evenodd" d="M985.713 112.446C986.251 112.574 986.583 113.113 986.456 113.65C986.254 114.503 986.173 115.268 986.143 115.818C986.128 116.092 986.126 116.311 986.127 116.457C986.128 116.53 986.13 116.586 986.131 116.62C986.131 116.638 986.132 116.65 986.132 116.657L986.133 116.664" fill="#543816"/>
<path fill-rule="evenodd" clip-rule="evenodd" d="M1043.48 75.5829C1043.46 76.0908 1043.03 76.4839 1042.52 76.461C1038.71 76.2887 1032.73 77.4782 1027.61 78.7509C1025.07 79.3821 1022.78 80.0248 1021.12 80.5097C1020.29 80.7522 1019.62 80.955 1019.15 81.097C1018.92 81.168 1018.74 81.2238 1018.62 81.2617C1018.56 81.2807 1018.52 81.2952 1018.48 81.3049L1018.45 81.3158L1018.44 81.3191C1018.44 81.3191 1018.44 81.3192 1018.32 80.9309L1018.44 81.3191C1017.96 81.4737 1017.44 81.2065 1017.28 80.7222C1017.13 80.2378 1017.4 79.7199 1017.88 79.5652L1018.16 80.4422C1017.88 79.5652 1017.88 79.5653 1017.88 79.5652L1017.89 79.5611L1017.93 79.5494C1017.96 79.5393 1018.01 79.5243 1018.07 79.5048C1018.2 79.4659 1018.38 79.409 1018.61 79.3369C1019.08 79.1927 1019.76 78.9875 1020.6 78.7424C1022.28 78.2525 1024.6 77.6028 1027.17 76.964C1032.26 75.6967 1038.49 74.4357 1042.6 74.6217C1043.11 74.6446 1043.5 75.075 1043.48 75.5829Z" fill="#543816"/>
<path fill-rule="evenodd" clip-rule="evenodd" d="M1018.47 84.4106C1017.96 84.431 1017.53 84.0358 1017.51 83.5277C1017.49 83.0197 1017.88 82.5913 1018.39 82.5709L1018.43 83.4907C1018.39 82.571 1018.39 82.5709 1018.39 82.5709L1018.41 82.5703L1018.44 82.5689C1018.48 82.5676 1018.53 82.5659 1018.59 82.5636C1018.72 82.5592 1018.9 82.5531 1019.14 82.5462C1019.62 82.5323 1020.32 82.5154 1021.18 82.503C1022.89 82.4782 1025.26 82.4713 1027.87 82.5431C1033.05 82.6857 1039.34 83.14 1043.34 84.4368C1043.83 84.5933 1044.09 85.1124 1043.93 85.5961C1043.78 86.0799 1043.26 86.3451 1042.78 86.1885C1039.05 84.9832 1033.02 84.5265 1027.82 84.3836C1025.24 84.3127 1022.9 84.3195 1021.2 84.344C1020.36 84.3563 1019.67 84.373 1019.2 84.3866C1018.96 84.3934 1018.78 84.3994 1018.65 84.4037C1018.59 84.4059 1018.54 84.4076 1018.51 84.4088L1018.48 84.4101L1018.47 84.4106Z" fill="#543816"/>
<path fill-rule="evenodd" clip-rule="evenodd" d="M980.528 78.6878C980.528 78.6879 980.529 78.6879 980.19 79.544L980.528 78.6878C981.001 78.8749 981.233 79.4099 981.046 79.8826C980.859 80.3554 980.324 80.5871 979.851 80.4001C979.851 80.4001 979.851 80.4001 979.851 80.4001L979.844 80.397L979.818 80.3871C979.796 80.3783 979.762 80.365 979.717 80.3475C979.627 80.3126 979.493 80.2612 979.321 80.1958C978.976 80.0649 978.476 79.878 977.856 79.6551C976.616 79.2091 974.904 78.6204 973.01 78.0487C971.114 77.4764 969.049 76.9248 967.103 76.5494C965.141 76.1713 963.362 75.9848 962.014 76.106C961.508 76.1515 961.061 75.7779 961.015 75.2715C960.97 74.7651 961.343 74.3177 961.85 74.2722C963.455 74.1278 965.435 74.3529 967.451 74.7416C969.481 75.133 971.612 75.7033 973.542 76.2861C975.475 76.8695 977.219 77.4691 978.479 77.9226C979.11 78.1495 979.621 78.3402 979.974 78.4744C980.151 78.5415 980.289 78.5946 980.383 78.631C980.43 78.6492 980.466 78.6633 980.49 78.6729L980.518 78.6839L980.528 78.6878Z" fill="#543816"/>
<path fill-rule="evenodd" clip-rule="evenodd" d="M980.012 83.5261C980.012 83.5261 980.012 83.5261 980.012 83.5261L980.005 83.5259L979.979 83.5253C979.956 83.5249 979.922 83.5242 979.876 83.5235C979.785 83.5219 979.649 83.52 979.474 83.5185C979.123 83.5155 978.614 83.5142 977.985 83.5208C976.726 83.5341 974.99 83.5794 973.078 83.7073C969.207 83.9661 964.784 84.5549 962.094 85.8103C961.633 86.0253 961.085 85.8261 960.87 85.3654C960.655 84.9047 960.854 84.3569 961.315 84.1419C964.352 82.7247 969.093 82.1284 972.955 81.8702C974.91 81.7395 976.682 81.6933 977.966 81.6797C978.608 81.6729 979.128 81.6743 979.489 81.6774C979.67 81.6789 979.811 81.6809 979.907 81.6825C979.955 81.6833 979.992 81.684 980.017 81.6845L980.046 81.6851L980.056 81.6854C980.056 81.6854 980.056 81.6854 980.036 82.5172L980.056 81.6854C980.564 81.6976 980.967 82.1195 980.955 82.6278C980.942 83.1361 980.521 83.5382 980.012 83.5261Z" fill="#543816"/>
<path d="M1010.01 80.7056C1008.85 79.8957 1007.73 81.808 1008.88 82.6114C1009.03 82.7133 1008.91 83.0678 1008.84 83.1841C1008.61 83.5812 1008.04 83.7224 1007.64 83.8243C1006.51 84.0964 1005.3 84.1327 1004.15 84.1376C1001.74 84.1388 999.387 83.7229 997.12 82.9356C996.029 82.5596 994.943 82.1443 993.783 82.0506C992.584 81.9513 991.523 82.302 990.489 82.8973C989.436 83.5014 988.403 84.0108 987.157 83.9621C986.719 83.9445 984.789 83.4756 985.55 82.6686C986.529 81.6354 985.004 80.0499 984.024 81.0831C983.039 82.1211 982.995 83.7485 983.93 84.8472C984.861 85.9395 986.389 86.2641 987.757 86.1644C988.59 86.1074 989.387 85.9019 990.157 85.5722C990.94 85.2328 991.635 84.6456 992.446 84.3792C994.082 83.8424 995.925 84.912 997.46 85.3754C1000.71 86.3503 1004.17 86.6 1007.52 86.0942C1008.84 85.8951 1010.24 85.3647 1010.84 84.0645C1011.41 82.8453 1011.11 81.4722 1010.01 80.7056Z" fill="#543816"/>
<path fill-rule="evenodd" clip-rule="evenodd" d="M1009.15 80.4407C1009.44 80.351 1009.76 80.3915 1010.08 80.6137C1011.23 81.4169 1011.54 82.8544 1010.95 84.1204C1010.32 85.4779 1008.86 86.0175 1007.54 86.2181L1007.54 86.2181C1004.17 86.7265 1000.69 86.4755 997.426 85.4956L997.426 85.4956C997.049 85.3818 996.654 85.2323 996.254 85.0806L996.216 85.0663C995.802 84.909 995.38 84.7501 994.956 84.6224C994.107 84.3664 993.266 84.2416 992.483 84.4984L992.446 84.3851L992.483 84.4984C992.091 84.6271 991.725 84.8343 991.352 85.0567C991.304 85.0854 991.255 85.1145 991.207 85.1436C990.884 85.3378 990.553 85.5366 990.204 85.6876L990.204 85.6878C989.423 86.0223 988.612 86.2313 987.765 86.2894C986.378 86.3903 984.805 86.0637 983.839 84.9305L983.839 84.9305C982.864 83.7856 982.91 82.0894 983.937 81.0069C984.205 80.7241 984.519 80.6143 984.822 80.6366C985.121 80.6585 985.4 80.8084 985.607 81.0241C986.022 81.4549 986.18 82.1828 985.636 82.7565C985.636 82.7565 985.636 82.7565 985.636 82.7566L985.549 82.6745L985.636 82.7563C985.636 82.7564 985.636 82.7564 985.636 82.7565C985.551 82.8466 985.512 82.9232 985.499 82.9858C985.486 83.0464 985.495 83.1031 985.524 83.1601C985.587 83.2822 985.741 83.4027 985.957 83.5104C986.168 83.6156 986.418 83.6985 986.643 83.7563C986.87 83.8144 987.064 83.8448 987.161 83.8487C987.161 83.8487 987.161 83.8487 987.161 83.8487L987.157 83.9678L987.157 83.9679L987.157 83.9678L987.161 83.8487C988.37 83.896 989.378 83.4028 990.429 82.7997C990.429 82.7997 990.429 82.7997 990.429 82.7997L990.488 82.903L990.429 82.7997C991.477 82.1967 992.562 81.8356 993.793 81.9375C993.792 81.9375 993.792 81.9375 993.792 81.9375L993.783 82.0565L993.793 81.9375C994.846 82.0226 995.838 82.3686 996.811 82.708C996.927 82.7485 997.043 82.7888 997.158 82.8286L997.159 82.8287C999.414 83.6118 1001.76 84.0253 1004.15 84.0242C1004.15 84.0242 1004.15 84.0242 1004.15 84.0242L1004.15 84.1433L1004.15 84.0242C1004.15 84.0242 1004.15 84.0242 1004.15 84.0242C1005.3 84.0192 1006.5 83.9827 1007.61 83.7144L1007.61 83.7145L1007.64 83.8302L1007.61 83.7142L1007.61 83.7138C1007.82 83.6626 1008.05 83.6041 1008.26 83.5117C1008.47 83.4185 1008.64 83.2974 1008.74 83.1308L1008.74 83.13C1008.76 83.0838 1008.81 82.9792 1008.82 82.8769C1008.83 82.8261 1008.84 82.7836 1008.83 82.753C1008.83 82.7229 1008.82 82.7167 1008.82 82.7158L1008.81 82.7153C1008.17 82.2687 1008.17 81.5148 1008.48 80.9988C1008.63 80.7398 1008.86 80.529 1009.15 80.4407ZM1008.95 82.5192C1009.02 82.5692 1009.05 82.6453 1009.07 82.7139C1009.08 82.782 1009.07 82.8545 1009.06 82.9196C1009.04 83.0489 1008.98 83.1795 1008.94 83.2497C1008.81 83.4799 1008.59 83.6278 1008.35 83.7299C1008.13 83.8306 1007.88 83.8932 1007.68 83.9433L1007.67 83.9459L1007.67 83.9462C1006.52 84.2219 1005.3 84.2579 1004.15 84.2629L1004.15 84.2629C1001.73 84.264 999.36 83.8457 997.08 83.0542C996.964 83.0143 996.849 82.9739 996.733 82.9337C995.756 82.5932 994.794 82.2578 993.773 82.1754L993.773 82.1754C992.605 82.0787 991.569 82.4191 990.548 83.0066L990.548 83.0067C989.493 83.6117 988.434 84.1374 987.152 84.0872L987.152 84.0872C987.03 84.0823 986.819 84.0475 986.584 83.9875C986.349 83.9272 986.082 83.8392 985.85 83.724C985.624 83.6114 985.411 83.4623 985.312 83.269C985.26 83.1683 985.24 83.0558 985.265 82.9362C985.29 82.8187 985.357 82.7042 985.463 82.5926L985.463 82.5924C985.898 82.1328 985.783 81.5515 985.435 81.1896C985.261 81.0089 985.036 80.8916 984.805 80.8746C984.577 80.8579 984.332 80.9373 984.111 81.1711L984.111 81.1712C983.167 82.1647 983.124 83.7232 984.021 84.7757C984.917 85.827 986.398 86.1496 987.749 86.0513L987.749 86.0513C988.567 85.9952 989.351 85.7934 990.11 85.4685C990.442 85.3243 990.758 85.1345 991.083 84.9397C991.131 84.9105 991.18 84.8811 991.23 84.8517C991.603 84.6291 991.989 84.4094 992.409 84.2717C993.262 83.9917 994.16 84.1333 995.025 84.3939C995.458 84.5244 995.887 84.6862 996.301 84.8431L996.335 84.856C996.738 85.0088 997.126 85.1558 997.494 85.267C1000.72 86.2368 1004.17 86.4852 1007.5 85.9821M1008.94 83.2497C1008.94 83.2498 1008.94 83.2499 1008.94 83.25L1008.84 83.19L1008.94 83.2492C1008.94 83.2494 1008.94 83.2495 1008.94 83.2497ZM1008.95 82.5192C1008.44 82.1622 1008.42 81.5584 1008.68 81.12C1008.81 80.9017 1009 80.736 1009.22 80.6685C1009.43 80.6023 1009.68 80.6265 1009.94 80.8093L1009.94 80.8093C1010.99 81.5393 1011.28 82.8478 1010.73 84.0201L1010.73 84.0203C1010.16 85.2633 1008.81 85.7845 1007.5 85.9821" fill="#543816"/>
</g>
<defs>
<linearGradient id="paint0_linear_1423_7834" x1="1040.73" y1="113.185" x2="1086.38" y2="127.74" gradientUnits="userSpaceOnUse">
<stop stop-color="#D1D1D1"/>
<stop offset="1" stop-color="#5F5F5F"/>
</linearGradient>
<linearGradient id="paint1_linear_1423_7834" x1="988.71" y1="51.935" x2="984.894" y2="42.295" gradientUnits="userSpaceOnUse">
<stop stop-color="#D1D1D1"/>
<stop offset="1" stop-color="#5F5F5F"/>
</linearGradient>
<linearGradient id="paint2_linear_1423_7834" x1="986.371" y1="57.8154" x2="979.002" y2="42.7111" gradientUnits="userSpaceOnUse">
<stop stop-color="#E2BCBC"/>
<stop offset="0.15" stop-color="#DDB8B8"/>
<stop offset="0.33" stop-color="#CEAEAE"/>
<stop offset="0.53" stop-color="#B69D9D"/>
<stop offset="0.74" stop-color="#948585"/>
<stop offset="0.95" stop-color="#6A6767"/>
<stop offset="1" stop-color="#5F5F5F"/>
</linearGradient>
<linearGradient id="paint3_linear_1423_7834" x1="1030.06" y1="61.268" x2="1045.87" y2="40.2752" gradientUnits="userSpaceOnUse">
<stop stop-color="#D1D1D1"/>
<stop offset="1" stop-color="#5F5F5F"/>
</linearGradient>
<linearGradient id="paint4_linear_1423_7834" x1="1035.83" y1="61.4465" x2="1049.88" y2="42.7894" gradientUnits="userSpaceOnUse">
<stop stop-color="#E2BCBC"/>
<stop offset="0.15" stop-color="#DDB8B8"/>
<stop offset="0.33" stop-color="#CEAEAE"/>
<stop offset="0.53" stop-color="#B69D9D"/>
<stop offset="0.74" stop-color="#948585"/>
<stop offset="0.95" stop-color="#6A6767"/>
<stop offset="1" stop-color="#5F5F5F"/>
</linearGradient>
<linearGradient id="paint5_linear_1423_7834" x1="1022.35" y1="115.178" x2="1024.91" y2="109.968" gradientUnits="userSpaceOnUse">
<stop stop-color="#E2BCBC"/>
<stop offset="0.21" stop-color="#E2BFBF" stop-opacity="0.98"/>
<stop offset="0.46" stop-color="#E5C9C9" stop-opacity="0.9"/>
<stop offset="0.73" stop-color="#E9D9D9" stop-opacity="0.79"/>
<stop offset="1" stop-color="#EFEFEF" stop-opacity="0.63"/>
</linearGradient>
<linearGradient id="paint6_linear_1423_7834" x1="1022.28" y1="115.151" x2="1024.85" y2="109.941" gradientUnits="userSpaceOnUse">
<stop stop-color="#E2BCBC"/>
<stop offset="0.21" stop-color="#E2BFBF" stop-opacity="0.98"/>
<stop offset="0.46" stop-color="#E5C9C9" stop-opacity="0.9"/>
<stop offset="0.73" stop-color="#E9D9D9" stop-opacity="0.79"/>
<stop offset="1" stop-color="#EFEFEF" stop-opacity="0.63"/>
</linearGradient>
<linearGradient id="paint7_linear_1423_7834" x1="1024.04" y1="116.023" x2="1026.61" y2="110.811" gradientUnits="userSpaceOnUse">
<stop stop-color="#E2BCBC"/>
<stop offset="0.21" stop-color="#E2BFBF" stop-opacity="0.98"/>
<stop offset="0.46" stop-color="#E5C9C9" stop-opacity="0.9"/>
<stop offset="0.73" stop-color="#E9D9D9" stop-opacity="0.79"/>
<stop offset="1" stop-color="#EFEFEF" stop-opacity="0.63"/>
</linearGradient>
<linearGradient id="paint8_linear_1423_7834" x1="984.052" y1="113.903" x2="986.622" y2="108.694" gradientUnits="userSpaceOnUse">
<stop stop-color="#E2BCBC"/>
<stop offset="0.21" stop-color="#E2BFBF" stop-opacity="0.98"/>
<stop offset="0.46" stop-color="#E5C9C9" stop-opacity="0.9"/>
<stop offset="0.73" stop-color="#E9D9D9" stop-opacity="0.79"/>
<stop offset="1" stop-color="#EFEFEF" stop-opacity="0.63"/>
</linearGradient>
<linearGradient id="paint9_linear_1423_7834" x1="983.991" y1="113.869" x2="986.555" y2="108.66" gradientUnits="userSpaceOnUse">
<stop stop-color="#E2BCBC"/>
<stop offset="0.21" stop-color="#E2BFBF" stop-opacity="0.98"/>
<stop offset="0.46" stop-color="#E5C9C9" stop-opacity="0.9"/>
<stop offset="0.73" stop-color="#E9D9D9" stop-opacity="0.79"/>
<stop offset="1" stop-color="#EFEFEF" stop-opacity="0.63"/>
</linearGradient>
<linearGradient id="paint10_linear_1423_7834" x1="985.752" y1="114.736" x2="988.315" y2="109.524" gradientUnits="userSpaceOnUse">
<stop stop-color="#E2BCBC"/>
<stop offset="0.21" stop-color="#E2BFBF" stop-opacity="0.98"/>
<stop offset="0.46" stop-color="#E5C9C9" stop-opacity="0.9"/>
<stop offset="0.73" stop-color="#E9D9D9" stop-opacity="0.79"/>
<stop offset="1" stop-color="#EFEFEF" stop-opacity="0.63"/>
</linearGradient>
<clipPath id="clip0_1423_7834">
<rect width="1440" height="133" fill="white"/>
</clipPath>
</defs>
</svg>
