<svg width="28" height="28" viewBox="0 0 28 28" fill="none" xmlns="http://www.w3.org/2000/svg">
<path d="M20.0711 3.16277C19.3922 2.93497 18.6782 2.8341 17.9631 2.8341C16.3878 2.82277 14.8589 3.3441 13.5998 4.3063C13.4978 4.2281 13.3731 4.15897 13.2598 4.0921C13.1464 4.02297 12.9424 3.8541 12.7724 3.76344L12.3418 3.57077C12.1151 3.4461 11.8782 3.35544 11.6278 3.27497C11.6051 3.25344 11.5711 3.22964 11.5258 3.2081H11.4589C10.7891 2.9803 10.0978 2.85564 9.38377 2.8341H9.2591C8.94177 2.8341 8.62557 2.85564 8.3071 2.9021H8.1711C7.8311 2.9463 7.49224 3.02564 7.16357 3.13897C2.9351 4.52277 1.42777 9.11277 2.70844 13.1248C3.43377 15.175 4.60224 17.0348 6.1209 18.5636C8.32977 20.6943 10.7449 22.5756 13.3391 24.185L13.6338 24.3674L13.9171 24.1963C16.5022 22.5756 18.9038 20.6943 21.0922 18.575C22.6211 17.0461 23.7884 15.175 24.5024 13.1248C25.7616 9.11277 24.2542 4.52277 20.0711 3.16277V3.16277Z" fill="#E07D77"/>
</svg>
