<svg width="28" height="28" viewBox="0 0 28 28" fill="none" xmlns="http://www.w3.org/2000/svg">
<path d="M17.9631 2.8341L17.9574 3.6341H17.9631V2.8341ZM13.5998 4.3063L13.113 4.94119L13.599 5.31375L14.0855 4.94195L13.5998 4.3063ZM13.2598 4.0921L12.8431 4.77514L12.8533 4.78112L13.2598 4.0921ZM12.7724 3.76344L13.1489 3.05756L13.1244 3.04451L13.0991 3.03318L12.7724 3.76344ZM12.3418 3.57077L11.9562 4.27174L11.9851 4.28759L12.0151 4.30103L12.3418 3.57077ZM11.6278 3.27497L11.0768 3.85497L11.2092 3.98077L11.3831 4.03663L11.6278 3.27497ZM11.5258 3.2081L11.869 2.48548L11.7061 2.4081H11.5258V3.2081ZM11.4589 3.2081L11.2013 3.9655L11.3266 4.0081H11.4589V3.2081ZM9.38377 2.8341L9.40789 2.03447L9.39583 2.0341H9.38377V2.8341ZM8.30711 2.9021V3.7021H8.36516L8.42261 3.69372L8.30711 2.9021ZM8.17111 2.9021V2.1021H8.11932L8.06797 2.10878L8.17111 2.9021ZM7.16357 3.13897L7.41242 3.89939L7.42437 3.89527L7.16357 3.13897ZM2.70844 13.1248L1.94632 13.368L1.9501 13.3799L1.95425 13.3916L2.70844 13.1248ZM6.12091 18.5636L5.55333 19.1274L5.55935 19.1335L5.5655 19.1394L6.12091 18.5636ZM13.3391 24.185L12.9174 24.8648L12.9179 24.8651L13.3391 24.185ZM13.6338 24.3674L13.2126 25.0476L13.6286 25.3052L14.0474 25.0522L13.6338 24.3674ZM13.9171 24.1963L14.3308 24.8812L14.342 24.8741L13.9171 24.1963ZM21.0922 18.575L21.6488 19.1497L21.6579 19.1407L21.0922 18.575ZM24.5024 13.1248L25.2579 13.3879L25.262 13.3762L25.2657 13.3643L24.5024 13.1248ZM20.3256 2.40433C19.554 2.14541 18.7527 2.0341 17.9631 2.0341V3.6341C18.6038 3.6341 19.2305 3.72453 19.8166 3.92121L20.3256 2.40433ZM17.9689 2.03412C16.212 2.02149 14.511 2.60313 13.114 3.67066L14.0855 4.94195C15.2068 4.08508 16.5636 3.62406 17.9574 3.63408L17.9689 2.03412ZM14.0865 3.67142C13.9347 3.55503 13.7491 3.45192 13.6663 3.40309L12.8533 4.78112C12.9972 4.86602 13.0608 4.90118 13.113 4.94119L14.0865 3.67142ZM13.6764 3.40914C13.6775 3.4098 13.6737 3.40755 13.6636 3.40061C13.6538 3.39394 13.6413 3.38518 13.625 3.37357C13.5838 3.34412 13.5611 3.32715 13.5047 3.28652C13.4185 3.22453 13.2863 3.13081 13.1489 3.05756L12.396 4.46932C12.4286 4.48673 12.4833 4.52278 12.5701 4.58517C12.6 4.60673 12.6602 4.65061 12.6944 4.67509C12.734 4.70337 12.7881 4.74149 12.8432 4.77507L13.6764 3.40914ZM13.0991 3.03318L12.6685 2.84052L12.0151 4.30103L12.4457 4.49369L13.0991 3.03318ZM12.7273 2.8698C12.4383 2.71086 12.1482 2.6019 11.8725 2.51331L11.3831 4.03663C11.6083 4.10898 11.7919 4.18135 11.9562 4.27174L12.7273 2.8698ZM12.1788 2.69497C12.0846 2.60553 11.9769 2.53671 11.869 2.48548L11.1825 3.93073C11.1723 3.92587 11.1583 3.9184 11.1415 3.90718C11.1252 3.89631 11.1026 3.87954 11.0768 3.85497L12.1788 2.69497ZM11.5258 2.4081H11.4589V4.0081H11.5258V2.4081ZM11.7165 2.45071C10.9707 2.19708 10.2007 2.05838 9.40789 2.03447L9.35966 3.63374C9.99487 3.6529 10.6075 3.76353 11.2013 3.9655L11.7165 2.45071ZM9.38377 2.0341H9.25911V3.6341H9.38377V2.0341ZM9.25911 2.0341C8.90524 2.0341 8.55036 2.05814 8.1916 2.11049L8.42261 3.69372C8.70078 3.65313 8.9783 3.6341 9.25911 3.6341V2.0341ZM8.30711 2.1021H8.17111V3.7021H8.30711V2.1021ZM8.06797 2.10878C7.6743 2.15996 7.28261 2.2517 6.90278 2.38267L7.42437 3.89527C7.70187 3.79958 7.98791 3.73265 8.27424 3.69543L8.06797 2.10878ZM6.91475 2.37865C2.15314 3.93693 0.572198 9.06326 1.94632 13.368L3.47055 12.8815C2.28335 9.16229 3.71707 5.10862 7.41239 3.89929L6.91475 2.37865ZM1.95425 13.3916C2.71885 15.5528 3.95083 17.5142 5.55333 19.1274L6.68848 17.9998C5.25365 16.5554 4.14869 14.7971 3.46263 12.8579L1.95425 13.3916ZM5.5655 19.1394C7.81483 21.3091 10.2747 23.2254 12.9174 24.8648L13.7608 23.5052C11.2151 21.9259 8.84471 20.0795 6.67631 17.9879L5.5655 19.1394ZM12.9179 24.8651L13.2126 25.0476L14.0549 23.6873L13.7603 23.5048L12.9179 24.8651ZM14.0474 25.0522L14.3307 24.8811L13.5035 23.5115L13.2202 23.6827L14.0474 25.0522ZM14.342 24.8741C16.9744 23.2238 19.4201 21.308 21.6488 19.1497L20.5357 18.0003C18.3875 20.0807 16.0301 21.9274 13.4922 23.5185L14.342 24.8741ZM21.6579 19.1407C23.2732 17.5254 24.5048 15.5504 25.2579 13.3879L23.7469 12.8617C23.0721 14.7995 21.969 16.5668 20.5266 18.0093L21.6579 19.1407ZM25.2657 13.3643C26.6146 9.06636 25.0395 3.93686 20.3185 2.40197L19.8238 3.92357C23.469 5.10869 24.9085 9.15918 23.7391 12.8852L25.2657 13.3643Z" fill="#E07D77"/>
</svg>
