<svg width="20" height="20" viewBox="0 0 20 20" fill="none" xmlns="http://www.w3.org/2000/svg">
<path d="M10.982 18.0515C10.7022 18.1371 10.4148 18.1788 10.1177 18.1889C9.97967 18.1908 9.83843 18.182 9.70088 18.1664C8.16022 17.9802 6.98161 16.6744 6.95819 15.1249C6.94258 14.0919 6.68896 13.6967 6.54073 13.5517C6.3686 13.3853 6.03648 13.262 5.59948 13.2111C5.40107 13.1853 5.18475 13.1765 4.94894 13.1794C4.81094 13.1812 4.66973 13.1725 4.53217 13.1569C2.99152 12.9707 1.81288 11.6648 1.78947 10.1153C1.7669 8.73854 2.67348 7.4928 3.99341 7.08925C4.27323 7.0037 4.55906 6.95667 4.85251 6.95344C5.27178 6.94633 5.62742 6.90102 5.91252 6.81386C6.14483 6.74283 6.31834 6.64942 6.42776 6.53525C6.57298 6.38707 6.8121 5.97958 6.7981 4.95186C6.78612 4.11955 7.09953 3.33189 7.67351 2.73553C8.03757 2.35902 8.50046 2.07913 8.99675 1.9274C9.27658 1.84184 9.5693 1.79847 9.86114 1.78996C9.99913 1.78813 10.1404 1.79685 10.2779 1.81245C11.8186 1.99868 12.9972 3.30452 13.0206 4.85401C13.0362 5.887 13.2898 6.28222 13.4381 6.42715C13.6102 6.59361 13.9423 6.71691 14.3793 6.7678C14.5777 6.79362 14.794 6.80245 15.0298 6.79954C15.1678 6.79771 15.3143 6.8048 15.4519 6.8204C16.9857 7.00296 18.1643 8.30881 18.1877 9.8583C18.2103 11.2351 17.3037 12.4808 15.9838 12.8844C15.7039 12.9699 15.4181 13.017 15.1247 13.0202C14.7054 13.0273 14.3498 13.0726 14.0647 13.1598C13.8324 13.2308 13.6588 13.3242 13.5494 13.4384C13.4042 13.5865 13.1651 13.9941 13.1791 15.0218C13.2016 16.3986 12.2951 17.6443 10.9752 18.0478L10.982 18.0515Z" fill="#F2C32A"/>
</svg>
