<svg width="465" height="74" viewBox="0 0 465 74" fill="none" xmlns="http://www.w3.org/2000/svg">
<path fill-rule="evenodd" clip-rule="evenodd" d="M28.2795 1C13.2134 1 1 13.2135 1 28.2795C1 43.3456 13.2135 55.559 28.2795 55.559H373.915L366.525 73L396.856 55.559H436.72C451.787 55.559 464 43.3456 464 28.2795C464 13.2135 451.787 1 436.72 1H28.2795Z" fill="#FEFDFD"/>
<path d="M373.915 55.559L374.836 55.9491C374.967 55.6403 374.934 55.2864 374.749 55.0068C374.563 54.7272 374.25 54.559 373.915 54.559V55.559ZM366.525 73L365.605 72.6099C365.437 73.0054 365.541 73.4638 365.862 73.7486C366.184 74.0334 366.651 74.081 367.024 73.8669L366.525 73ZM396.856 55.559V54.559C396.681 54.559 396.509 54.6049 396.358 54.6921L396.856 55.559ZM2 28.2795C2 13.7657 13.7657 2 28.2795 2V0C12.6612 0 0 12.6612 0 28.2795H2ZM28.2795 54.559C13.7657 54.559 2 42.7933 2 28.2795H0C0 43.8978 12.6612 56.559 28.2795 56.559V54.559ZM373.915 54.559H28.2795V56.559H373.915V54.559ZM367.446 73.3901L374.836 55.9491L372.994 55.1689L365.605 72.6099L367.446 73.3901ZM396.358 54.6921L366.027 72.1331L367.024 73.8669L397.355 56.4259L396.358 54.6921ZM436.72 54.559H396.856V56.559H436.72V54.559ZM463 28.2795C463 42.7933 451.234 54.559 436.72 54.559V56.559C452.339 56.559 465 43.8978 465 28.2795H463ZM436.72 2C451.234 2 463 13.7657 463 28.2795H465C465 12.6612 452.339 0 436.72 0V2ZM28.2795 2H436.72V0H28.2795V2Z" fill="#93C9C8"/>
</svg>
