<svg width="128" height="120" viewBox="0 0 128 120" fill="none" xmlns="http://www.w3.org/2000/svg">
<g clip-path="url(#clip0_158_2807)">
<path d="M102.303 98.7874L67.8745 107.665L36.2709 115.813L25.9335 118.481L11.4813 62.4209L6.15211 41.7461L5.18318 37.9899L3.05656 29.7414L0.62793 20.31L76.9976 0.623047L97.9995 82.0953L99.7801 88.9974L102.303 98.7874Z" fill="#93C8C8" stroke="#847362" stroke-width="1.25836" stroke-linecap="round" stroke-linejoin="round"/>
<path d="M25.1919 31.79C24.5627 32.4758 23.6315 32.8848 22.7003 32.6835C21.8258 32.4947 21.1903 31.7837 20.8128 31.0098C20.3787 30.1164 20.1585 29.1349 19.8942 28.1785C19.5733 27.0271 19.2525 25.8758 18.9316 24.7181C18.2961 22.4404 17.6669 20.1565 17.0315 17.8789C16.8742 17.3189 16.7169 16.759 16.5596 16.199L17.5159 15.9536C17.5474 16.0732 17.5851 16.199 17.6166 16.3185C17.9123 17.3818 18.208 18.4389 18.5037 19.5022C19.0889 21.5973 19.6677 23.6988 20.2528 25.794C20.5423 26.8447 20.838 27.8891 21.1274 28.9399C21.335 29.6949 21.5301 30.4121 21.9768 31.0413C22.3354 31.5509 22.9269 31.8718 23.5372 31.7082C24.1852 31.5384 24.7578 30.9343 24.9843 30.2926C25.3114 29.3614 25.1164 28.3358 24.871 27.4109C24.5942 26.3791 24.2544 25.3661 23.9398 24.3469C23.6252 23.315 23.3107 22.2831 22.9898 21.2513C22.7633 20.5026 22.5431 19.6721 22.0145 19.0995C21.8887 18.9611 21.7629 18.8478 21.6056 18.7597C21.5804 18.7472 21.5552 18.7346 21.5301 18.7157C21.5301 18.7157 21.5301 18.7157 21.5238 18.7157C21.5238 18.7157 21.5238 18.7157 21.5175 18.7157C21.5049 18.7157 21.4986 18.7094 21.4923 18.7031C21.4168 18.678 21.3413 18.6528 21.2658 18.6402C21.2532 18.6402 21.1903 18.6276 21.1777 18.6276C21.14 18.6276 21.1022 18.6213 21.0645 18.6213C20.9953 18.6213 20.9261 18.6213 20.8506 18.6276C20.8506 18.6276 20.7247 18.6528 20.7059 18.6591C20.6492 18.6717 20.5926 18.6905 20.536 18.7094C20.5297 18.7157 20.4542 18.7472 20.4416 18.7535C20.4101 18.7723 20.3787 18.7912 20.3472 18.8101C20.3472 18.8101 20.3346 18.8101 20.3346 18.8164C20.3032 18.8415 20.278 18.8667 20.2528 18.8919C20.2403 18.9045 20.2277 18.917 20.2151 18.9296C20.2088 18.9422 20.1962 18.9611 20.1899 18.9737C20.1773 18.9988 20.1648 19.024 20.1522 19.0429C20.1522 19.0429 20.1459 19.0618 20.1459 19.068C20.1081 19.2568 20.1207 19.4141 20.1773 19.628C20.2403 19.8734 20.3158 20.1125 20.385 20.3516C21.0016 22.4593 21.6119 24.5671 22.2222 26.6685C22.3983 27.2788 21.4483 27.5368 21.2784 26.9265C21.1148 26.3665 20.9512 25.8003 20.7876 25.2403C20.4542 24.1015 20.127 22.9627 19.7935 21.8238C19.6237 21.245 19.4538 20.6724 19.2902 20.0999C19.1392 19.584 19.0574 19.0618 19.2902 18.5647C19.6363 17.8537 20.5171 17.5454 21.2658 17.6272C22.197 17.7342 22.8765 18.3885 23.2918 19.1939C23.7637 20.1062 24.0027 21.1443 24.3048 22.1196C24.6508 23.2521 25.0031 24.3909 25.3492 25.5234C25.9658 27.5242 26.8215 29.9843 25.2045 31.746L25.1919 31.79Z" fill="#B39681"/>
<path d="M76.7676 8.65164L8.34961 22.5093L26.1628 110.457L94.5809 96.5992L76.7676 8.65164Z" fill="#E8DFD6" stroke="#847362" stroke-width="1.25836" stroke-linecap="round" stroke-linejoin="round"/>
<g style="mix-blend-mode:multiply" opacity="0.25">
<path d="M99.7795 88.9935L67.8739 107.661L36.2703 115.809L11.4807 62.417L5.18262 37.986L8.00763 36.4697L97.999 82.0914L99.7795 88.9935Z" fill="#C1A28B"/>
</g>
<path d="M63.6882 4.04195L0.660156 34.0508L39.2348 115.07L102.263 85.0609L63.6882 4.04195Z" fill="#FEF5EC" stroke="#847362" stroke-width="1.25836" stroke-linecap="round" stroke-linejoin="round"/>
<path d="M48.3875 31.1273L66.6777 21.7526C67.3824 21.3876 67.6655 20.5194 67.3006 19.8147C66.9357 19.11 66.0674 18.8269 65.3627 19.1918L47.0725 28.5666C46.3678 28.9315 46.0847 29.7998 46.4496 30.5044C46.8146 31.2091 47.6828 31.4922 48.3875 31.1273Z" fill="#EFDDCB"/>
<path d="M48.7352 37.4635L70.3034 26.4088C71.0081 26.0439 71.2912 25.1756 70.9263 24.471C70.5613 23.7663 69.6931 23.4831 68.9884 23.8481L47.4202 34.9027C46.7155 35.2676 46.4324 36.1359 46.7973 36.8406C47.1622 37.5453 48.0305 37.8284 48.7352 37.4635Z" fill="#EFDDCB"/>
<path d="M37.2582 56.5133L58.8831 45.5719C59.5941 45.2133 59.8772 44.345 59.5186 43.6341C59.1599 42.9231 58.2917 42.64 57.5807 42.9986L35.9558 53.94C35.2449 54.2986 34.9617 55.1669 35.3204 55.8779C35.679 56.5888 36.5473 56.872 37.2582 56.5133Z" fill="#EFDDCB"/>
<path d="M74.8214 43.994L25.6599 68.8704C25.0026 69.203 24.7394 70.0055 25.072 70.6628L25.231 70.9772C25.5637 71.6345 26.3661 71.8977 27.0234 71.5651L76.185 46.6887C76.8423 46.3561 77.1055 45.5537 76.7729 44.8963L76.6138 44.582C76.2812 43.9247 75.4788 43.6614 74.8214 43.994Z" fill="#EFDDCB"/>
<path d="M28.4377 73.8171L38.6383 68.6554C39.3737 68.2833 40.2784 68.58 40.6505 69.3155L40.6647 69.3435C41.0368 70.079 40.7401 70.9836 40.0047 71.3558L29.8041 76.5174C29.0687 76.8895 28.164 76.5928 27.7919 75.8574L27.7777 75.8293C27.4055 75.0939 27.7023 74.1892 28.4377 73.8171Z" fill="#EFDDCB"/>
<path d="M44.991 68.7257L61.6264 60.3073C62.3689 59.9298 62.6709 59.0238 62.2934 58.2751C61.9159 57.5326 61.0099 57.2306 60.2611 57.6081L43.6257 66.0266C42.8832 66.4041 42.5812 67.3101 42.9587 68.0588C43.3362 68.8012 44.2423 69.1032 44.991 68.7257Z" fill="#EFDDCB"/>
<path d="M41.0977 96.3689L57.9345 88.3657C58.6895 88.0071 59.0104 87.1074 58.6518 86.3524C58.2931 85.5974 57.3934 85.2765 56.6384 85.6351L39.8016 93.6383C39.0466 93.9969 38.7257 94.8966 39.0843 95.6516C39.443 96.4066 40.3427 96.7275 41.0977 96.3689Z" fill="#EFDDCB"/>
<path d="M47.6143 99.551L64.4511 91.5479C65.2061 91.1892 65.527 90.2895 65.1684 89.5345C64.8097 88.7795 63.91 88.4586 63.155 88.8172L46.3182 96.8204C45.5632 97.179 45.2423 98.0787 45.6009 98.8337C45.9596 99.5888 46.8593 99.9096 47.6143 99.551Z" fill="#EFDDCB"/>
<path d="M25.3351 25.5625C24.989 24.43 24.6367 23.2912 24.2906 22.1586C23.9886 21.1771 23.7495 20.1453 23.2776 19.233C22.8624 18.4213 22.1766 17.767 21.2517 17.6663C20.5093 17.5845 19.6221 17.8928 19.2761 18.6038C19.037 19.1008 19.1251 19.6231 19.2761 20.139C19.4397 20.7178 19.6095 21.2904 19.7794 21.8629C20.1129 23.0017 20.44 24.1406 20.7735 25.2794C20.9371 25.8393 21.1007 26.4056 21.2643 26.9656C21.4404 27.5696 22.3905 27.3116 22.208 26.7076C21.5914 24.5999 20.9811 22.4921 20.3708 20.3907C20.3016 20.1516 20.2261 19.9125 20.1632 19.6671C20.1066 19.4532 20.094 19.2896 20.1317 19.1071C20.1317 19.1008 20.1317 19.0883 20.138 19.082C20.138 19.082 20.1632 19.0316 20.1758 19.0065C20.1758 18.9939 20.1947 18.9813 20.201 18.9624C20.2135 18.9498 20.2261 18.9373 20.2387 18.9247C20.2639 18.8995 20.289 18.8743 20.3205 18.8492C20.3205 18.8492 20.3268 18.8492 20.3331 18.8429C20.3645 18.824 20.396 18.8051 20.4275 18.7863C20.44 18.78 20.5155 18.7485 20.5218 18.7422C20.5785 18.717 20.6351 18.7045 20.6917 18.6919C20.7106 18.6856 20.8238 18.6667 20.8364 18.6604C20.9056 18.6541 20.9748 18.6478 21.0503 18.6541C21.0881 18.6541 21.1259 18.6541 21.1636 18.6604C21.1762 18.6604 21.2328 18.673 21.2517 18.673C21.3272 18.6919 21.4027 18.7108 21.4782 18.7359C21.4782 18.7359 21.4908 18.7422 21.5034 18.7485H21.5096C21.5096 18.7485 21.5097 18.7485 21.5159 18.7485C21.5411 18.7611 21.5663 18.7737 21.5914 18.7925C21.7487 18.8806 21.8746 18.9939 22.0004 19.1323C22.5289 19.7049 22.7491 20.5417 22.9756 21.2841C23.2902 22.3159 23.6111 23.3478 23.9257 24.3796C24.2403 25.3989 24.58 26.4119 24.8569 27.4437C25.1085 28.3686 25.2973 29.3942 24.9701 30.3254C24.7436 30.9671 24.1711 31.5712 23.523 31.741C22.9127 31.9046 22.3213 31.5837 21.9627 31.0741C21.5159 30.4386 21.3272 29.7214 21.1133 28.9726C20.8238 27.9219 20.5281 26.8775 20.2387 25.8268C19.6536 23.7316 19.0747 21.6364 18.4896 19.535C18.1939 18.4717 17.8982 17.4146 17.6025 16.3513C17.571 16.2318 17.5332 16.106 17.5018 15.9864C17.2438 15.0741 16.9733 14.1618 16.7719 13.2306C16.665 12.7524 16.5832 12.2554 16.5706 11.7646C16.5706 11.601 16.5643 11.4312 16.665 11.299C16.7594 11.1795 16.9418 11.0851 17.1054 11.0096C17.4011 10.8649 17.7597 10.7391 18.1184 10.6321C18.4959 10.5251 18.7853 10.4622 19.1502 10.4559C19.2383 10.4559 19.3264 10.4559 19.4145 10.4622C19.4145 10.4622 19.4397 10.4622 19.4522 10.4622C19.4522 10.4622 19.4585 10.4622 19.4648 10.4622C19.4963 10.4622 19.5277 10.4748 19.5592 10.4811C19.6347 10.5 19.7039 10.5189 19.7794 10.544C19.7983 10.544 19.8046 10.5566 19.8172 10.5566C19.8172 10.5566 19.836 10.5629 19.8423 10.5692C19.8864 10.5881 19.9304 10.6132 19.9745 10.6384C20.0625 10.695 20.1695 10.7831 20.2513 10.8964C20.3708 11.0599 20.4338 11.2487 20.4904 11.4437C20.7735 12.4378 20.9434 13.476 21.0818 14.5016C21.107 14.6777 21.1259 14.8539 21.1447 15.0364L22.0948 14.791C22.0004 14.0297 21.8809 13.2684 21.7362 12.5196C21.5411 11.5381 21.3901 10.3679 20.4652 9.7953C19.7228 9.336 18.7601 9.43038 17.9548 9.65059C17.5395 9.76384 17.1306 9.92113 16.7342 10.0973C16.2686 10.3049 15.8408 10.5944 15.6646 11.0851C15.4695 11.6136 15.5954 12.268 15.6835 12.8091C15.7715 13.3753 15.9037 13.929 16.0547 14.4827C16.212 15.0678 16.3756 15.6529 16.5329 16.2381C16.6901 16.7981 16.8474 17.358 17.0047 17.918C17.6402 20.1956 18.2694 22.4795 18.9049 24.7572C19.2257 25.9086 19.5466 27.0662 19.8675 28.2176C20.1317 29.1677 20.352 30.1555 20.7861 31.0489C21.1636 31.8228 21.7991 32.5338 22.6736 32.7226C23.6048 32.9239 24.536 32.5149 25.1652 31.8291C26.7822 30.0674 25.9265 27.601 25.3099 25.6065L25.3351 25.5625Z" fill="#847362"/>
<path d="M125.922 97.0468L105.273 75.6799C104.58 74.9689 103.624 74.7047 102.825 74.9375L100.227 71.7853L99.1759 70.5144C103.574 65.8962 106.279 59.6547 106.279 52.7715C106.279 44.2587 102.146 36.7086 95.772 32.0275C91.5062 28.8942 86.2462 27.0444 80.5459 27.0444C77.356 27.0444 74.3044 27.6233 71.4794 28.6866C64.4389 31.3354 58.8707 36.9854 56.3225 44.0763C55.3473 46.7943 54.8125 49.72 54.8125 52.7778C54.8125 55.8356 55.3033 58.5096 56.1967 61.1333C59.6635 71.2442 69.2521 78.5112 80.5396 78.5112C85.9757 78.5112 91.0154 76.8187 95.168 73.9434L97.2694 76.4853L98.8235 78.3665C98.3265 79.1656 98.4208 80.2981 99.1318 81.16L115.925 101.501L118.045 104.075C118.945 105.169 120.461 105.396 121.38 104.572L126.029 100.419C126.948 99.6013 126.891 98.0661 125.903 97.0468H125.922ZM67.6981 68.7967C67.1821 68.3814 66.6914 67.9473 66.2195 67.488C62.3878 63.757 60.0095 58.5411 60.0095 52.7715C60.0095 52.5073 60.0221 52.2493 60.0284 51.9851C60.0284 51.8466 60.041 51.7019 60.0473 51.5635C60.0598 51.3622 60.0787 51.1608 60.0913 50.9595C60.1039 50.84 60.1102 50.7141 60.1228 50.5946C60.1542 50.3114 60.192 50.0283 60.2297 49.7452C60.2423 49.676 60.2486 49.6131 60.2612 49.5438C60.3052 49.2607 60.3556 48.9839 60.4122 48.707C60.4373 48.5938 60.4625 48.4805 60.4877 48.3673C60.5317 48.1722 60.5758 47.9709 60.6261 47.7759C60.6576 47.65 60.689 47.5242 60.7268 47.4046C60.7771 47.2222 60.8274 47.0397 60.8841 46.8573C60.9218 46.7314 60.9596 46.6056 60.9973 46.486C61.0539 46.3036 61.1169 46.1211 61.1798 45.9449C61.2238 45.8254 61.2616 45.7059 61.3056 45.5926C61.3748 45.4039 61.4503 45.2088 61.5321 45.0201C61.5762 44.9194 61.6139 44.8187 61.658 44.718C61.7712 44.4475 61.8908 44.1832 62.0166 43.919C62.0292 43.8938 62.0355 43.875 62.048 43.8498C62.1802 43.5792 62.3186 43.3087 62.4633 43.0381C62.5136 42.9438 62.564 42.8557 62.6143 42.7676C62.715 42.5851 62.8156 42.409 62.9226 42.2328C62.9855 42.1258 63.0484 42.0252 63.1114 41.9245C63.212 41.7609 63.3127 41.6036 63.4197 41.4463C63.4889 41.3394 63.5581 41.2387 63.6273 41.138C63.7342 40.9807 63.8475 40.8297 63.9545 40.6724C64.0237 40.5718 64.0992 40.4774 64.1684 40.383C64.2879 40.2194 64.42 40.0621 64.5459 39.9048C64.6151 39.823 64.678 39.7412 64.7472 39.6595C64.9297 39.4392 65.1121 39.2253 65.3009 39.0177C65.3198 38.9988 65.3324 38.9799 65.3449 38.9611C65.5526 38.7346 65.7602 38.5144 65.9741 38.3004C66.0496 38.2249 66.1251 38.1557 66.1943 38.0865C66.339 37.9418 66.49 37.8034 66.641 37.665C66.7291 37.5832 66.8172 37.5014 66.9116 37.4259C67.05 37.3 67.1947 37.1742 67.3394 37.0547C67.4338 36.9729 67.5345 36.8974 67.6289 36.8156C67.7736 36.696 67.9246 36.5828 68.0693 36.4695C68.1637 36.394 68.2643 36.3185 68.365 36.2493C68.5286 36.1298 68.6922 36.0165 68.8558 35.9033C68.9438 35.8403 69.0319 35.7774 69.12 35.7208C69.3528 35.5635 69.5856 35.4188 69.8247 35.2678C69.8499 35.2489 69.875 35.2363 69.9002 35.2175C70.1644 35.0602 70.4287 34.9029 70.6992 34.7582C70.7873 34.7078 70.8817 34.6638 70.9761 34.6134C71.1585 34.5191 71.341 34.4247 71.5298 34.3303C71.6367 34.28 71.75 34.2234 71.8569 34.173C72.0331 34.0912 72.203 34.0094 72.3792 33.9339C72.4924 33.8836 72.6119 33.8333 72.7252 33.7892C72.9014 33.7137 73.0838 33.6445 73.26 33.5753C73.3733 33.5313 73.4865 33.4872 73.606 33.4495C73.8011 33.3803 73.9961 33.311 74.1975 33.2481C74.2981 33.2167 74.3988 33.1789 74.4995 33.1475C74.7763 33.0594 75.0595 32.9839 75.3489 32.9084C75.3678 32.9084 75.3929 32.8958 75.4118 32.8895C75.7201 32.814 76.0284 32.7385 76.3367 32.6756C76.5254 32.6378 76.7142 32.6064 76.9029 32.5686C77.0539 32.5435 77.2049 32.512 77.3622 32.4868C77.5636 32.4554 77.7649 32.4302 77.9663 32.405C78.111 32.3862 78.2557 32.3673 78.4004 32.3484C78.6269 32.3232 78.8597 32.3107 79.0925 32.2918C79.212 32.2855 79.3379 32.2729 79.4574 32.2666C79.816 32.2477 80.1684 32.2414 80.5333 32.2414C85.3213 32.2414 89.7193 33.8773 93.2112 36.6205C94.199 37.3944 95.1051 38.2564 95.9356 39.1939C99.1318 42.8179 101.07 47.5745 101.07 52.7841C101.07 64.1282 91.8711 73.3268 80.527 73.3268C75.6635 73.3268 71.1963 71.6343 67.6729 68.8093L67.6981 68.7967Z" fill="#C1A28B" stroke="#847362" stroke-width="2.6048" stroke-linecap="round" stroke-linejoin="round"/>
<path d="M107.147 80.184L103.095 83.5312L97.2748 76.4844L93.7388 72.1997L92.04 71.753L96.0982 68.4058L97.5013 68.5064L100.219 71.797L107.147 80.184Z" fill="#C0B5AB"/>
<path d="M95.772 32.0275C91.5062 28.8942 86.2462 27.0444 80.5459 27.0444C77.356 27.0444 74.3044 27.6233 71.4794 28.6866C64.4389 31.3354 58.8707 36.9854 56.3225 44.0763C55.3473 46.7943 54.8125 49.72 54.8125 52.7778C54.8125 55.8356 55.3033 58.5096 56.1967 61.1333C59.6635 71.2442 69.2521 78.5112 80.5396 78.5112C94.7527 78.5112 106.273 66.991 106.273 52.7778C106.273 44.265 102.139 36.7149 95.7657 32.0338L95.772 32.0275ZM80.5459 73.3142C75.6823 73.3142 71.2152 71.6217 67.6918 68.7967C67.1758 68.3814 66.6851 67.9473 66.2132 67.488C62.3815 63.757 60.0032 58.5411 60.0032 52.7715C60.0032 52.6205 60.0032 52.4695 60.0032 52.3185C60.2108 42.6355 67.1192 34.6072 76.2675 32.6756C77.6454 32.3862 79.0736 32.2289 80.5396 32.2289C85.3276 32.2289 89.7256 33.8647 93.2175 36.6079C94.2053 37.3818 95.1114 38.2438 95.9419 39.1813C99.1381 42.8053 101.076 47.5619 101.076 52.7715C101.076 64.1156 91.8774 73.3142 80.5333 73.3142H80.5459Z" fill="#CFC5BD"/>
<path d="M126.042 100.424L121.392 104.577C120.474 105.395 118.957 105.168 118.058 104.08L115.937 101.507L99.1445 81.1652C98.3014 80.1396 98.3076 78.7303 99.1696 77.9627L101.831 75.5844L102.083 75.3579C102.945 74.5903 104.348 74.735 105.266 75.6913L125.916 97.0582C126.904 98.0775 126.954 99.6127 126.042 100.431V100.424Z" fill="#93C8C8"/>
<path d="M60.0048 52.7778C60.0048 58.5474 62.3831 63.7633 66.2148 67.4943C61.4204 63.7318 58.3438 57.893 58.3438 51.3244C58.3438 39.9803 67.5423 30.7817 78.8864 30.7817C84.4672 30.7817 89.5258 33.0027 93.2254 36.6142C89.7334 33.871 85.3292 32.2351 80.5474 32.2351C69.2034 32.2351 60.0048 41.4337 60.0048 52.7778Z" fill="#C4BAB0"/>
<g style="mix-blend-mode:multiply" opacity="0.3">
<path d="M106.28 52.7743C106.28 66.9874 94.7601 78.5077 80.547 78.5077C69.2595 78.5077 59.6709 71.2407 56.2041 61.1298C57.8337 63.5773 61.3256 67.4278 67.6929 68.7994C71.21 71.6245 75.6835 73.3169 80.547 73.3169C91.8911 73.3169 101.09 64.1184 101.09 52.7743C101.09 47.5647 99.1518 42.8081 95.9556 39.184C96.1129 37.1644 96.138 34.6602 95.7731 32.0303C102.14 36.7114 106.28 44.2615 106.28 52.7743Z" fill="#CFC5BD"/>
</g>
<g style="mix-blend-mode:multiply" opacity="0.25">
<path d="M126.04 100.422L121.391 104.575C120.472 105.393 118.956 105.166 118.056 104.078L115.936 101.505C116.716 100.473 117.817 98.3334 117.068 95.0366C116.062 90.626 104.963 78.5332 101.836 75.5761L102.088 75.3496C102.95 74.582 104.353 74.7267 105.271 75.683L125.921 97.0499C126.909 98.0692 126.959 99.6044 126.047 100.422H126.04Z" fill="#C1A28B"/>
</g>
<g style="mix-blend-mode:screen" opacity="0.37">
<path d="M86.5419 34.3827L76.8148 71.6427C73.411 70.938 70.3343 69.3336 67.8428 67.0937C68.6544 61.0788 70.6867 45.299 71.9261 35.6222C74.5687 34.2632 77.5636 33.4956 80.7346 33.4956C82.7543 33.4956 84.7047 33.8039 86.5356 34.3827H86.5419Z" fill="white"/>
</g>
<g style="mix-blend-mode:screen" opacity="0.37">
<path d="M96.4339 42.4104L89.4311 69.6601C87.3989 70.7171 85.1527 71.4155 82.7744 71.6735L90.7524 36.8862C93.0111 38.3019 94.9553 40.1894 96.4402 42.4104H96.4339Z" fill="white"/>
</g>
</g>
<defs>
<clipPath id="clip0_158_2807">
<rect width="128" height="119.116" fill="white"/>
</clipPath>
</defs>
</svg>
