<svg width="1280" height="104" viewBox="0 0 1280 104" fill="none" xmlns="http://www.w3.org/2000/svg">
<path d="M981.537 56.6232C981.172 56.6232 980.813 56.5719 980.46 56.4693C980.291 56.418 980.128 56.361 979.966 56.2868C978.197 55.4943 977.271 53.4703 977.805 51.5831C978.164 50.3287 978.007 49.7528 977.877 49.5191C977.732 49.2511 977.378 48.9831 976.878 48.7608C976.654 48.6581 976.396 48.5669 976.121 48.4871C975.947 48.4358 975.784 48.3731 975.627 48.3047C973.858 47.5121 972.932 45.4881 973.466 43.6009C973.943 41.9246 975.475 40.7501 977.198 40.7501C977.563 40.7501 977.922 40.8014 978.276 40.904C978.781 41.0523 979.219 41.1264 979.589 41.1264C979.893 41.1264 980.134 41.0751 980.308 40.9781C980.538 40.8527 980.97 40.4479 981.33 39.1936C981.616 38.1844 982.278 37.3462 983.182 36.8331C983.754 36.5138 984.406 36.3428 985.057 36.3428C985.422 36.3428 985.786 36.3941 986.14 36.4967C986.308 36.5423 986.471 36.605 986.634 36.6792C988.402 37.4717 989.328 39.4957 988.795 41.383C988.436 42.6373 988.593 43.2132 988.722 43.4469C988.868 43.7149 989.222 43.9829 989.716 44.2052C989.94 44.3079 990.198 44.3991 990.479 44.4846C990.642 44.5302 990.816 44.5929 990.979 44.6671C992.741 45.4596 993.667 47.4779 993.134 49.3651C992.657 51.0414 991.124 52.2159 989.401 52.2159C989.036 52.2159 988.677 52.1646 988.324 52.062C987.824 51.9137 987.381 51.8396 987.01 51.8396C986.707 51.8396 986.466 51.8909 986.292 51.9879C986.061 52.1133 985.629 52.5181 985.27 53.7725C984.793 55.4487 983.26 56.6232 981.537 56.6232Z" fill="#F2C32A"/>
<path d="M985.057 37.6911C985.298 37.6911 985.534 37.7254 985.77 37.7938C985.882 37.828 985.988 37.8679 986.095 37.9135C987.263 38.4381 987.874 39.7722 987.521 41.0152C987.15 42.3265 987.162 43.3642 987.56 44.0997C987.852 44.6357 988.396 45.0861 989.177 45.4396C989.457 45.565 989.772 45.679 990.108 45.776C990.221 45.8102 990.327 45.8501 990.434 45.8957C991.602 46.4202 992.213 47.7544 991.86 48.9973C991.534 50.1377 990.507 50.8789 989.396 50.8789C989.16 50.8789 988.924 50.8447 988.688 50.7762C988.065 50.5938 987.504 50.5026 987.01 50.5026C986.482 50.5026 986.028 50.6052 985.657 50.8161C984.933 51.221 984.377 52.0933 984.007 53.4046C983.681 54.545 982.654 55.2862 981.543 55.2862C981.307 55.2862 981.071 55.252 980.836 55.1835C980.723 55.1493 980.617 55.1094 980.51 55.0638C979.342 54.5393 978.731 53.2051 979.084 51.9622C979.455 50.6508 979.444 49.6131 979.045 48.8776C978.753 48.3417 978.209 47.8912 977.428 47.5377C977.148 47.4123 976.833 47.2983 976.497 47.2014C976.384 47.1672 976.278 47.1272 976.171 47.0816C975.004 46.5571 974.392 45.2229 974.745 43.98C975.071 42.8396 976.098 42.0985 977.209 42.0985C977.445 42.0985 977.681 42.1327 977.917 42.2011C978.54 42.3835 979.101 42.4748 979.595 42.4748C980.123 42.4748 980.577 42.3721 980.948 42.1612C981.672 41.7564 982.228 40.884 982.598 39.5727C982.789 38.9056 983.221 38.3525 983.822 38.0161C984.203 37.7995 984.63 37.6911 985.057 37.6911ZM985.057 35.0057C984.181 35.0057 983.317 35.2338 982.548 35.6671C981.33 36.3513 980.448 37.4745 980.061 38.8315C979.898 39.4016 979.741 39.681 979.662 39.7893C979.646 39.7893 979.623 39.7893 979.595 39.7893C979.427 39.7893 979.124 39.7608 978.646 39.6183C978.175 39.4814 977.692 39.413 977.204 39.413C974.897 39.413 972.842 40.9809 972.203 43.2331C971.484 45.7589 972.73 48.4671 975.093 49.5333C975.307 49.6302 975.531 49.71 975.756 49.7785C975.98 49.8412 976.177 49.9153 976.351 49.9951C976.53 50.0749 976.643 50.1434 976.704 50.189C976.71 50.3315 976.704 50.6508 976.542 51.2152C975.823 53.741 977.069 56.4493 979.432 57.5155C979.646 57.6124 979.87 57.6922 980.095 57.7606C980.566 57.8975 981.049 57.9659 981.537 57.9659C983.844 57.9659 985.899 56.398 986.539 54.1459C986.701 53.5757 986.858 53.2963 986.937 53.1823C986.954 53.1823 986.976 53.1823 987.004 53.1823C987.173 53.1823 987.476 53.2108 987.953 53.3533C988.425 53.4902 988.907 53.5586 989.396 53.5586C991.703 53.5586 993.757 51.9907 994.397 49.7385C995.115 47.2128 993.869 44.5045 991.506 43.4383C991.293 43.3414 991.068 43.2616 990.844 43.1932C990.619 43.1304 990.423 43.0563 990.249 42.9765C990.069 42.8967 989.957 42.8283 989.895 42.7826C989.89 42.6401 989.895 42.3208 990.058 41.7564C990.776 39.2306 989.536 36.5223 987.167 35.4561C986.954 35.3592 986.729 35.2794 986.505 35.211C986.033 35.0741 985.545 35 985.057 35V35.0057Z" fill="white"/>
<path d="M461.537 81.6281C461.172 81.6281 460.813 81.5768 460.46 81.4742C460.291 81.4229 460.128 81.3659 459.966 81.2917C458.197 80.4992 457.271 78.4752 457.805 76.5879C458.164 75.3336 458.007 74.7577 457.877 74.524C457.732 74.256 457.378 73.988 456.878 73.7657C456.654 73.663 456.396 73.5718 456.121 73.492C455.947 73.4407 455.784 73.378 455.627 73.3095C453.858 72.517 452.932 70.493 453.466 68.6058C453.943 66.9295 455.475 65.755 457.198 65.755C457.563 65.755 457.922 65.8063 458.276 65.9089C458.781 66.0571 459.219 66.1313 459.589 66.1313C459.893 66.1313 460.134 66.08 460.308 65.983C460.538 65.8576 460.97 65.4528 461.33 64.1984C461.616 63.1893 462.278 62.3511 463.182 61.838C463.754 61.5187 464.406 61.3477 465.057 61.3477C465.422 61.3477 465.786 61.399 466.14 61.5016C466.308 61.5472 466.471 61.6099 466.634 61.684C468.402 62.4766 469.328 64.5006 468.795 66.3878C468.436 67.6422 468.593 68.218 468.722 68.4518C468.868 68.7198 469.222 68.9878 469.716 69.2101C469.94 69.3127 470.198 69.404 470.479 69.4895C470.642 69.5351 470.816 69.5978 470.979 69.6719C472.741 70.4645 473.667 72.4828 473.134 74.37C472.657 76.0463 471.124 77.2208 469.401 77.2208C469.036 77.2208 468.677 77.1695 468.324 77.0669C467.824 76.9186 467.381 76.8445 467.01 76.8445C466.707 76.8445 466.466 76.8958 466.292 76.9927C466.061 77.1182 465.629 77.523 465.27 78.7773C464.793 80.4536 463.26 81.6281 461.537 81.6281Z" fill="#F2C32A"/>
<path d="M465.057 62.6911C465.298 62.6911 465.534 62.7254 465.77 62.7938C465.882 62.828 465.988 62.8679 466.095 62.9135C467.263 63.4381 467.874 64.7722 467.521 66.0152C467.15 67.3265 467.162 68.3642 467.56 69.0997C467.852 69.6357 468.396 70.0861 469.177 70.4396C469.457 70.565 469.772 70.679 470.108 70.776C470.221 70.8102 470.327 70.8501 470.434 70.8957C471.602 71.4202 472.213 72.7544 471.86 73.9973C471.534 75.1377 470.507 75.8789 469.396 75.8789C469.16 75.8789 468.924 75.8447 468.688 75.7762C468.065 75.5938 467.504 75.5026 467.01 75.5026C466.482 75.5026 466.028 75.6052 465.657 75.8161C464.933 76.221 464.377 77.0933 464.007 78.4046C463.681 79.545 462.654 80.2862 461.543 80.2862C461.307 80.2862 461.071 80.252 460.836 80.1835C460.723 80.1493 460.617 80.1094 460.51 80.0638C459.342 79.5393 458.731 78.2051 459.084 76.9622C459.455 75.6508 459.444 74.6131 459.045 73.8776C458.753 73.3417 458.209 72.8912 457.428 72.5377C457.148 72.4123 456.833 72.2983 456.497 72.2014C456.384 72.1672 456.278 72.1272 456.171 72.0816C455.004 71.5571 454.392 70.2229 454.745 68.98C455.071 67.8396 456.098 67.0985 457.209 67.0985C457.445 67.0985 457.681 67.1327 457.917 67.2011C458.54 67.3835 459.101 67.4748 459.595 67.4748C460.123 67.4748 460.577 67.3721 460.948 67.1612C461.672 66.7564 462.228 65.884 462.598 64.5727C462.789 63.9056 463.221 63.3525 463.822 63.0161C464.203 62.7995 464.63 62.6911 465.057 62.6911ZM465.057 60.0057C464.181 60.0057 463.317 60.2338 462.548 60.6671C461.33 61.3513 460.448 62.4745 460.061 63.8315C459.898 64.4016 459.741 64.681 459.662 64.7893C459.646 64.7893 459.623 64.7893 459.595 64.7893C459.427 64.7893 459.124 64.7608 458.646 64.6183C458.175 64.4814 457.692 64.413 457.204 64.413C454.897 64.413 452.842 65.9809 452.203 68.2331C451.484 70.7589 452.73 73.4671 455.093 74.5333C455.307 74.6302 455.531 74.71 455.756 74.7785C455.98 74.8412 456.177 74.9153 456.351 74.9951C456.53 75.0749 456.643 75.1434 456.704 75.189C456.71 75.3315 456.704 75.6508 456.542 76.2152C455.823 78.741 457.069 81.4493 459.432 82.5155C459.646 82.6124 459.87 82.6922 460.095 82.7606C460.566 82.8975 461.049 82.9659 461.537 82.9659C463.844 82.9659 465.899 81.398 466.539 79.1459C466.701 78.5757 466.858 78.2963 466.937 78.1823C466.954 78.1823 466.976 78.1823 467.004 78.1823C467.173 78.1823 467.476 78.2108 467.953 78.3533C468.425 78.4902 468.907 78.5586 469.396 78.5586C471.703 78.5586 473.757 76.9907 474.397 74.7385C475.115 72.2128 473.869 69.5045 471.506 68.4383C471.293 68.3414 471.068 68.2616 470.844 68.1932C470.619 68.1304 470.423 68.0563 470.249 67.9765C470.069 67.8967 469.957 67.8283 469.895 67.7826C469.89 67.6401 469.895 67.3208 470.058 66.7564C470.776 64.2306 469.536 61.5223 467.167 60.4561C466.954 60.3592 466.729 60.2794 466.505 60.211C466.033 60.0741 465.545 60 465.057 60V60.0057Z" fill="white"/>
<path d="M362.291 60.6813C361.645 60.6813 361.034 60.5046 360.5 60.1625C357.66 59.2502 356.223 55.4416 355.381 52.6079C354.141 48.4344 354.393 45.1844 356.128 42.938C357.262 41.4727 358.934 40.6289 360.714 40.6289C362.291 40.6289 363.745 41.296 364.811 42.5047C365.126 42.8582 365.412 43.2459 365.664 43.6564C366.753 43.1718 367.887 42.9152 368.954 42.9152C371.861 42.9152 373.905 44.7625 374.415 47.8642C375.016 51.5246 372.434 54.5806 370.436 56.5591C368.145 58.8283 365.513 60.2423 362.813 60.6414C362.639 60.6699 362.459 60.6813 362.285 60.6813H362.291Z" fill="#E07D77"/>
<path d="M360.713 42.2442C361.768 42.2442 362.823 42.6718 363.626 43.5784C364.232 44.2626 364.67 45.0437 364.979 45.8704C366.214 45.0379 367.645 44.5305 368.959 44.5305C370.816 44.5305 372.422 45.5511 372.848 48.1225C373.32 50.9847 371.209 53.5276 369.329 55.392C367.471 57.2393 365.186 58.6419 362.588 59.0296C362.487 59.0467 362.386 59.0524 362.29 59.0524C361.852 59.0524 361.482 58.9042 361.184 58.6647C358.81 58.1116 357.513 54.1776 356.907 52.1307C356.149 49.5707 355.633 46.1954 357.379 43.9319C358.226 42.8315 359.472 42.2442 360.707 42.2442M360.707 39C358.434 39 356.301 40.0662 354.864 41.9306C352.787 44.616 352.445 48.362 353.842 53.0715C354.437 55.0841 355.975 60.2554 359.82 61.6409C360.567 62.0742 361.403 62.2966 362.279 62.2966C362.531 62.2966 362.784 62.2795 363.037 62.2396C366.073 61.7892 369.015 60.2212 371.546 57.7125C372.983 56.2871 376.794 52.507 375.986 47.5866C375.346 43.6981 372.646 41.2863 368.947 41.2863C368.06 41.2863 367.145 41.4289 366.242 41.7082C366.163 41.6113 366.079 41.5144 365.995 41.4175C364.62 39.8609 362.739 39.0057 360.707 39.0057V39Z" fill="white"/>
<path d="M508.552 59.0269C507.783 59.0269 507.075 58.6449 506.604 57.9835C506.144 57.3393 505.723 56.7007 505.335 56.0678C504.527 56.4954 503.702 56.8888 502.871 57.2537C502.495 57.4191 502.108 57.5046 501.721 57.5046C500.676 57.5046 499.762 56.9059 499.329 55.9367C498.886 54.9446 499.06 53.7986 499.784 52.9434L500.441 52.1736C500.244 52.0767 500.053 51.9855 499.863 51.8886C498.835 51.3697 498.302 50.3206 498.504 49.2145C498.729 47.9716 499.818 46.9396 501.036 46.8199C501.333 46.7914 501.642 46.7629 501.951 46.7458C501.827 45.7651 501.732 44.773 501.664 43.7752C501.614 43.0682 501.85 42.4012 502.321 41.888C502.832 41.3293 503.573 41.01 504.353 41.01C504.757 41.01 505.156 41.1012 505.504 41.2722C505.633 40.9416 505.762 40.6166 505.902 40.2916C506.34 39.2482 507.44 38.5127 508.569 38.5127C509.585 38.5127 510.449 39.1228 510.825 40.0977C511.24 41.1696 511.549 42.2244 511.774 43.2963L513.222 43.0169C513.39 42.9827 513.564 42.9656 513.733 42.9656C514.721 42.9656 515.63 43.513 516.113 44.3853C516.584 45.2405 516.556 46.2554 516.045 47.0935L514.872 49.0207L515.304 49.1974C516.534 49.6935 517.241 51.0333 516.988 52.3846C516.753 53.6332 515.759 54.4714 514.513 54.4714C514.44 54.4714 514.361 54.4714 514.283 54.46L511.903 54.2661C511.813 54.2604 511.723 54.249 511.628 54.2376C511.527 54.9845 511.431 55.7371 511.336 56.484C511.162 57.8581 509.893 59.0155 508.563 59.0155L508.552 59.0269Z" fill="#77C67C"/>
<path d="M508.564 39.9933C508.934 39.9933 509.282 40.1758 509.462 40.6376C510.018 42.0801 510.388 43.5283 510.573 45.0335C511.545 44.8454 512.516 44.6572 513.487 44.4691C513.565 44.4519 513.649 44.4462 513.728 44.4462C514.637 44.4462 515.328 45.444 514.8 46.3107L512.712 49.743C513.397 50.0167 514.082 50.296 514.761 50.5697C515.917 51.0373 515.839 52.9758 514.508 52.9758C514.469 52.9758 514.43 52.9758 514.39 52.9758C513.599 52.9131 512.807 52.8504 512.01 52.7819C511.488 52.742 510.848 52.5995 510.265 52.571C510.197 53.0499 510.214 53.6714 510.175 54.0021C510.074 54.7661 509.973 55.5244 509.877 56.2884C509.799 56.9213 509.165 57.5256 508.553 57.5256C508.278 57.5256 508.003 57.4002 507.789 57.098C507.093 56.1173 506.459 55.1196 505.886 54.0648C504.719 54.7319 503.523 55.3362 502.294 55.8779C502.098 55.9634 501.907 56.0033 501.727 56.0033C500.739 56.0033 500.133 54.7946 500.896 53.8994C501.548 53.1354 502.193 52.3771 502.844 51.6131C502.058 51.2824 501.284 50.9289 500.52 50.5412C499.319 49.9368 500.155 48.3803 501.188 48.2777C501.957 48.1979 502.721 48.1637 503.484 48.1637C503.535 48.1637 503.585 48.1637 503.636 48.1637C503.394 46.6699 503.226 45.1646 503.125 43.648C503.074 42.9182 503.72 42.4735 504.354 42.4735C504.674 42.4735 504.988 42.5875 505.213 42.8384C505.522 43.1805 505.819 43.534 506.117 43.8818C506.453 42.8555 506.824 41.8463 507.245 40.8486C507.453 40.3525 508.036 39.9762 508.57 39.9762M508.57 37.0057C506.931 37.0057 505.342 38.0263 504.635 39.5144C504.539 39.5087 504.449 39.503 504.354 39.503C503.17 39.503 502.041 39.9933 501.25 40.8486C500.498 41.6639 500.127 42.7301 500.206 43.8533C500.24 44.3778 500.285 44.8967 500.335 45.4155C498.707 45.8203 497.377 47.2172 497.068 48.922C496.816 50.3075 497.276 51.6302 498.258 52.5368C497.517 53.7512 497.411 55.2222 498 56.5336C498.668 58.0103 500.127 58.9681 501.722 58.9681C502.311 58.9681 502.895 58.8427 503.45 58.5975C503.905 58.398 504.36 58.187 504.814 57.9647C505.005 58.2497 505.207 58.5405 505.415 58.8313C506.167 59.8861 507.307 60.4905 508.547 60.4905C510.607 60.4905 512.499 58.7743 512.768 56.6647C512.802 56.3853 512.841 56.1002 512.875 55.8209L514.149 55.9235C514.267 55.9349 514.385 55.9349 514.497 55.9349C516.434 55.9349 518.044 54.5836 518.409 52.6451C518.712 51.0316 518.106 49.4294 516.916 48.4487L517.276 47.8558C518.067 46.5501 518.106 44.9765 517.377 43.6423C516.636 42.2968 515.238 41.4586 513.722 41.4586C513.459 41.4586 513.195 41.4814 512.937 41.5328L512.852 41.5499C512.667 40.8771 512.443 40.21 512.179 39.5315C511.578 37.9693 510.192 37 508.558 37L508.57 37.0057Z" fill="white"/>
<path d="M879.547 70.0357C878.778 70.0357 878.071 69.6537 877.599 68.9923C877.139 68.3481 876.718 67.7095 876.331 67.0766C875.522 67.5042 874.697 67.8976 873.866 68.2625C873.49 68.4279 873.103 68.5134 872.716 68.5134C871.672 68.5134 870.757 67.9147 870.324 66.9455C869.881 65.9534 870.055 64.8074 870.779 63.9521L871.436 63.1824C871.239 63.0855 871.049 62.9943 870.858 62.8974C869.83 62.3785 869.297 61.3294 869.499 60.2233C869.724 58.9804 870.813 57.9484 872.031 57.8287C872.328 57.8002 872.637 57.7716 872.946 57.7545C872.822 56.7739 872.727 55.7761 872.66 54.784C872.609 54.0827 872.845 53.4099 873.316 52.8968C873.827 52.338 874.568 52.0188 875.348 52.0188C875.752 52.0188 876.151 52.11 876.499 52.281C876.628 51.9503 876.757 51.6254 876.897 51.3004C877.335 50.257 878.435 49.5215 879.564 49.5215C880.58 49.5215 881.444 50.1315 881.82 51.1065C882.23 52.1784 882.544 53.2332 882.763 54.3051L884.211 54.0257C884.38 53.9915 884.554 53.9744 884.722 53.9744C885.71 53.9744 886.619 54.5217 887.102 55.3941C887.574 56.2493 887.546 57.2642 887.035 58.1023L885.862 60.0295L886.294 60.2062C887.523 60.7022 888.23 62.0421 887.978 63.3934C887.742 64.642 886.748 65.4802 885.502 65.4802C885.429 65.4802 885.351 65.4801 885.272 65.4687L882.892 65.2749C882.802 65.2692 882.713 65.2578 882.617 65.2464C882.516 65.999 882.421 66.7459 882.325 67.4928C882.151 68.8669 880.877 70.0243 879.552 70.0243L879.547 70.0357Z" fill="#77C67C"/>
<path d="M879.558 50.999C879.929 50.999 880.277 51.1815 880.456 51.6433C881.012 53.0858 881.383 54.534 881.568 56.0392C882.539 55.8511 883.51 55.6629 884.481 55.4748C884.56 55.4577 884.644 55.4519 884.722 55.4519C885.632 55.4519 886.322 56.4497 885.795 57.3164C885.098 58.4624 884.402 59.6084 883.706 60.7487C884.391 61.0224 885.076 61.3018 885.755 61.5755C886.912 62.043 886.833 63.9815 885.503 63.9815C885.463 63.9815 885.424 63.9815 885.385 63.9815L883.005 63.7876C882.483 63.7477 881.843 63.6052 881.259 63.5767C881.192 64.0556 881.214 64.6771 881.169 65.0078C881.068 65.7718 880.967 66.5301 880.872 67.2941C880.793 67.927 880.159 68.5313 879.547 68.5313C879.272 68.5313 878.997 68.4059 878.784 68.1037C878.088 67.1231 877.453 66.1253 876.881 65.0705C875.713 65.7376 874.518 66.342 873.288 66.8836C873.092 66.9691 872.901 67.009 872.722 67.009C871.734 67.009 871.127 65.8003 871.891 64.9052L873.839 62.6188C873.053 62.2881 872.278 61.9346 871.515 61.5469C870.313 60.9426 871.15 59.386 872.183 59.2777C872.952 59.1979 873.715 59.1637 874.484 59.1637C874.535 59.1637 874.585 59.1637 874.636 59.1637C874.394 57.6699 874.226 56.1647 874.125 54.648C874.074 53.9182 874.72 53.4735 875.354 53.4735C875.674 53.4735 875.988 53.5876 876.213 53.8384C876.522 54.1805 876.819 54.534 877.117 54.8818C877.453 53.8555 877.824 52.8463 878.245 51.8486C878.453 51.3525 879.036 50.9762 879.57 50.9762M879.57 48.0057C877.931 48.0057 876.342 49.0263 875.635 50.5144C875.539 50.5087 875.45 50.503 875.354 50.503C874.17 50.503 873.041 50.9933 872.25 51.8486C871.498 52.6639 871.127 53.7301 871.206 54.8533C871.24 55.3778 871.285 55.8967 871.335 56.4155C869.707 56.8203 868.377 58.2172 868.068 59.922C867.816 61.3075 868.276 62.6302 869.258 63.5368C868.517 64.7512 868.411 66.2222 869 67.5336C869.668 69.0103 871.127 69.9681 872.722 69.9681C873.311 69.9681 873.895 69.8427 874.45 69.5975C874.905 69.398 875.36 69.187 875.814 68.9647C876.005 69.2497 876.207 69.5405 876.415 69.8313C877.167 70.8861 878.307 71.4905 879.547 71.4905C881.607 71.4905 883.499 69.7743 883.768 67.6647C883.802 67.3853 883.841 67.1002 883.875 66.8209L885.149 66.9235C885.267 66.9349 885.385 66.9349 885.497 66.9349C887.434 66.9349 889.045 65.5836 889.409 63.6451C889.712 62.0316 889.106 60.4294 887.916 59.4488L888.275 58.8558C889.067 57.5501 889.106 55.9765 888.377 54.6423C887.636 53.2968 886.238 52.4586 884.722 52.4586C884.459 52.4586 884.195 52.4814 883.937 52.5328L883.852 52.5499C883.667 51.8771 883.443 51.21 883.179 50.5315C882.578 48.9693 881.192 48 879.558 48L879.57 48.0057Z" fill="white"/>
<path d="M808.17 62.2152C807.272 62.2152 806.469 61.8788 805.902 61.2631C805.352 60.6701 805.077 59.8548 805.128 58.9653C805.229 57.2605 805.178 53.6173 803.208 51.4336C802.203 54.4725 799.615 57.061 796.416 57.9561C795.81 58.1272 795.209 58.2127 794.62 58.2127C792.386 58.2127 790.404 56.9641 789.321 54.8716C788.12 52.5511 788.288 49.6547 789.753 47.4995C790.488 46.4105 791.499 45.4868 792.7 44.7684C791.707 44.432 790.634 44.2553 789.529 44.2553C789.057 44.2553 788.574 44.2895 788.109 44.3522C787.946 44.375 787.789 44.3864 787.637 44.3864C785.992 44.3864 784.718 43.1264 784.6 41.3931C784.477 39.5572 785.712 37.9836 787.474 37.7441C788.148 37.6529 788.849 37.6016 789.551 37.6016C794.468 37.6016 799.065 39.7853 801.737 43.3487C802.916 43.5882 803.999 43.9816 804.965 44.5176C809.539 47.089 812.043 52.4826 811.661 58.9482C811.538 61.0635 809.77 62.2095 808.175 62.2095L808.17 62.2152ZM796.231 50.4415C795.681 50.7266 795.209 51.1029 795.029 51.4107C795.349 51.2226 795.793 50.8919 796.231 50.4415Z" fill="#E07D77"/>
<path d="M789.551 39.2385C793.851 39.2385 798.398 41.1998 800.828 44.8488C802.046 45.0256 803.203 45.3962 804.196 45.9549C808.743 48.5092 810.365 53.8801 810.068 58.869C810 60.0036 809.046 60.6022 808.176 60.6022C807.39 60.6022 806.666 60.1119 806.728 59.0742C806.958 55.1573 806.043 50.3907 802.069 48.6803C802.08 52.124 799.425 55.4423 795.995 56.4059C795.518 56.5427 795.058 56.5998 794.626 56.5998C790.798 56.5998 788.816 51.7591 791.073 48.4294C792.279 46.6505 794.267 45.5273 796.444 45.0256C794.508 43.4234 792.027 42.6423 789.535 42.6423C788.99 42.6423 788.44 42.6822 787.901 42.7564C787.811 42.7678 787.727 42.7735 787.643 42.7735C785.751 42.7735 785.656 39.6433 787.694 39.3639C788.305 39.2784 788.923 39.2385 789.551 39.2385ZM794.637 53.213C795.647 53.213 796.922 52.0727 797.511 51.4398C798.521 50.3565 798.881 49.2618 798.656 48.1671C797.848 48.2299 797.051 48.3952 796.31 48.6575C794.89 49.1592 792.689 50.5903 793.559 52.449C793.817 53.0021 794.205 53.2187 794.637 53.2187M789.551 36C788.777 36 788.008 36.0513 787.261 36.1539C784.657 36.5131 782.833 38.8223 783.012 41.5248C783.186 44.0905 785.173 46.029 787.643 46.029C787.868 46.029 788.103 46.0119 788.333 45.9834C788.536 45.9549 788.743 45.9321 788.945 45.9207C788.766 46.1431 788.597 46.3654 788.44 46.5992C786.616 49.2903 786.414 52.7569 787.912 55.6476C789.276 58.2817 791.786 59.8553 794.626 59.8553C795.355 59.8553 796.102 59.7527 796.849 59.5418C799.447 58.812 801.698 57.1186 803.214 54.952C803.618 56.5142 803.584 58.1563 803.539 58.8918C803.461 60.2316 803.887 61.4746 804.746 62.3982C805.616 63.339 806.834 63.8578 808.176 63.8578C810.909 63.8578 813.099 61.7996 813.256 59.0742C813.677 51.9701 810.865 46.0062 805.74 43.127C804.791 42.5967 803.753 42.1919 802.636 41.9125C799.621 38.2407 794.738 36.0057 789.551 36.0057V36Z" fill="white"/>
</svg>
