<svg width="1063" height="71" viewBox="0 0 1063 71" fill="none" xmlns="http://www.w3.org/2000/svg">
<path d="M1001.55 22.0357C1000.78 22.0357 1000.07 21.6537 999.6 20.9923C999.14 20.348 998.719 19.7095 998.331 19.0766C997.523 19.5042 996.698 19.8976 995.867 20.2625C995.491 20.4279 995.104 20.5134 994.717 20.5134C993.673 20.5134 992.758 19.9147 992.325 18.9455C991.882 17.9534 992.056 16.8074 992.78 15.9521L993.437 15.1824C993.24 15.0855 993.05 14.9943 992.859 14.8973C991.831 14.3785 991.298 13.3294 991.5 12.2233C991.725 10.9804 992.814 9.9484 994.032 9.82867C994.329 9.80016 994.638 9.77165 994.947 9.75454C994.823 8.77388 994.728 7.77611 994.661 6.78403C994.61 6.08274 994.846 5.40994 995.317 4.8968C995.828 4.33805 996.569 4.01877 997.349 4.01877C997.753 4.01877 998.152 4.10999 998.5 4.28104C998.629 3.95035 998.758 3.62536 998.898 3.30037C999.336 2.25128 1000.44 1.52148 1001.56 1.52148C1002.58 1.52148 1003.45 2.13155 1003.82 3.10652C1004.23 4.17841 1004.55 5.23319 1004.77 6.30509L1006.22 6.02572C1006.39 5.99151 1006.56 5.9744 1006.73 5.9744C1007.72 5.9744 1008.63 6.52175 1009.11 7.39409C1009.58 8.24932 1009.55 9.2642 1009.04 10.1023L1007.87 12.0295L1008.3 12.2005C1009.53 12.6966 1010.24 14.0364 1009.98 15.3877C1009.75 16.6363 1008.76 17.4745 1007.51 17.4745C1007.44 17.4745 1007.36 17.4745 1007.28 17.4631L1004.9 17.2692C1004.81 17.2635 1004.72 17.2521 1004.62 17.2407C1004.52 17.9876 1004.43 18.7402 1004.33 19.4871C1004.16 20.8612 1002.88 22.0186 1001.56 22.0186L1001.55 22.0357Z" fill="#77C67C"/>
<path d="M1001.56 2.99903C1001.93 2.99903 1002.28 3.18148 1002.46 3.64331C1003.01 5.0858 1003.38 6.534 1003.57 8.03921C1004.54 7.85106 1005.51 7.66291 1006.48 7.47476C1006.56 7.45765 1006.64 7.45195 1006.72 7.45195C1007.63 7.45195 1008.32 8.44972 1007.79 9.31635C1007.1 10.4624 1006.4 11.6084 1005.71 12.7487C1006.39 13.0224 1007.08 13.3017 1007.76 13.5754C1008.91 14.043 1008.83 15.9815 1007.5 15.9815C1007.46 15.9815 1007.42 15.9815 1007.38 15.9815C1006.59 15.9188 1005.8 15.8561 1005 15.7876C1004.48 15.7477 1003.84 15.6052 1003.26 15.5767C1003.19 16.0556 1003.21 16.6771 1003.17 17.0078C1003.07 17.7718 1002.97 18.5301 1002.87 19.2941C1002.79 19.927 1002.16 20.5313 1001.55 20.5313C1001.27 20.5313 1001 20.4059 1000.78 20.1037C1000.09 19.1231 999.453 18.1253 998.881 17.0705C997.713 17.7376 996.518 18.3419 995.288 18.8836C995.092 18.9691 994.901 19.009 994.722 19.009C993.734 19.009 993.127 17.8003 993.891 16.9051C994.542 16.1411 995.187 15.3828 995.839 14.6188C995.053 14.2881 994.278 13.9346 993.515 13.5469C992.313 12.9426 993.15 11.386 994.183 11.2777C994.952 11.1979 995.715 11.1637 996.484 11.1637C996.535 11.1637 996.585 11.1637 996.636 11.1637C996.394 9.66984 996.226 8.16464 996.125 6.64803C996.074 5.91823 996.72 5.4735 997.354 5.4735C997.674 5.4735 997.988 5.58753 998.213 5.8384C998.522 6.18049 998.819 6.534 999.117 6.88179C999.453 5.85551 999.824 4.84633 1000.24 3.84856C1000.45 3.35252 1001.04 2.97622 1001.57 2.97622M1001.57 0.00570713C999.931 0.00570713 998.342 1.02628 997.635 2.51439C997.539 2.50869 997.45 2.50299 997.354 2.50299C996.17 2.50299 995.041 2.99332 994.25 3.84856C993.498 4.66388 993.127 5.73007 993.206 6.85327C993.24 7.37782 993.285 7.89667 993.335 8.41551C991.707 8.82032 990.377 10.2172 990.068 11.922C989.816 13.3075 990.276 14.6302 991.258 15.5368C990.517 16.7512 990.411 18.2222 991 19.5336C991.668 21.0103 993.127 21.9681 994.722 21.9681C995.311 21.9681 995.895 21.8427 996.45 21.5975C996.905 21.398 997.36 21.187 997.814 20.9646C998.005 21.2497 998.207 21.5405 998.415 21.8313C999.167 22.8861 1000.31 23.4905 1001.55 23.4905C1003.61 23.4905 1005.5 21.7743 1005.77 19.6647C1005.8 19.3853 1005.84 19.1002 1005.87 18.8209L1007.15 18.9235C1007.27 18.9349 1007.38 18.9349 1007.5 18.9349C1009.43 18.9349 1011.04 17.5836 1011.41 15.6451C1011.71 14.0316 1011.11 12.4294 1009.92 11.4487L1010.28 10.8558C1011.07 9.55012 1011.11 7.97648 1010.38 6.64232C1009.64 5.29675 1008.24 4.45863 1006.72 4.45863C1006.46 4.45863 1006.19 4.48144 1005.94 4.53275L1005.85 4.54985C1005.67 3.87707 1005.44 3.20998 1005.18 2.5315C1004.58 0.969267 1003.19 0 1001.56 0L1001.57 0.00570713Z" fill="white"/>
<path d="M966.29 59.6715C965.644 59.6715 965.033 59.4948 964.499 59.1527C961.659 58.2404 960.222 54.4318 959.38 51.5981C958.14 47.4246 958.392 44.1747 960.127 41.9283C961.261 40.463 962.933 39.6191 964.713 39.6191C966.29 39.6191 967.744 40.2862 968.81 41.495C969.125 41.8484 969.411 42.2362 969.663 42.6467C970.752 42.162 971.881 41.9055 972.953 41.9055C975.86 41.9055 977.904 43.7528 978.414 46.8544C979.015 50.5148 976.433 53.5709 974.435 55.5493C972.144 57.8185 969.512 59.2325 966.812 59.6316C966.638 59.6601 966.458 59.6715 966.284 59.6715H966.29Z" fill="#E07D77"/>
<path d="M964.713 41.2385C965.768 41.2385 966.823 41.6661 967.626 42.5726C968.232 43.2568 968.67 44.038 968.979 44.8647C970.214 44.0322 971.645 43.5248 972.959 43.5248C974.816 43.5248 976.422 44.5454 976.848 47.1168C977.32 49.979 975.209 52.5219 973.329 54.3863C971.471 56.2336 969.187 57.6362 966.588 58.0239C966.487 58.041 966.386 58.0467 966.29 58.0467C965.852 58.0467 965.482 57.8984 965.184 57.6647C962.81 57.1116 961.513 53.1776 960.907 51.1307C960.149 48.5707 959.633 45.1954 961.379 42.9318C962.226 41.8314 963.472 41.2442 964.707 41.2442M964.707 38C962.434 38 960.301 39.0662 958.864 40.9306C956.787 43.616 956.445 47.362 957.842 52.0715C958.437 54.0841 959.975 59.2554 963.82 60.6409C964.567 61.0742 965.403 61.2966 966.279 61.2966C966.531 61.2966 966.784 61.2795 967.037 61.2396C970.073 60.7891 973.015 59.2212 975.546 56.7125C976.983 55.2871 980.794 51.507 979.986 46.5866C979.346 42.6981 976.646 40.2863 972.947 40.2863C972.06 40.2863 971.145 40.4289 970.242 40.7082C970.163 40.6113 970.079 40.5144 969.995 40.4175C968.62 38.8609 966.739 38.0057 964.707 38.0057V38Z" fill="white"/>
<path d="M1040.4 56.4752C1038.19 56.4752 1035.85 55.9963 1033.62 55.0898C1032.11 54.4797 1031.28 52.8947 1031.6 51.2412C1031.88 49.7417 1033.05 48.6926 1034.43 48.6926C1034.82 48.6926 1035.21 48.7724 1035.6 48.9321C1036.8 49.4167 1038.63 49.9983 1040.51 49.9983C1041.62 49.9983 1042.59 49.7987 1043.42 49.3939C1040.86 47.4953 1039.22 44.1713 1039.39 40.7788C1039.56 37.3066 1042.1 34.8834 1045.56 34.8834C1047.74 34.8834 1049.82 35.9268 1051.13 37.6829C1051.93 38.7719 1052.49 40.0775 1052.77 41.52C1053.73 40.2657 1054.4 38.732 1054.71 37.0557C1054.99 35.5562 1056.17 34.5527 1057.64 34.5527C1058.65 34.5527 1059.64 35.0203 1060.27 35.8014C1060.88 36.554 1061.12 37.5061 1060.94 38.4925C1059.93 43.9603 1055.99 48.7724 1051.24 50.4373C1050.65 51.5035 1049.94 52.4271 1049.13 53.1854C1046.84 55.3349 1043.82 56.4752 1040.4 56.4752ZM1045.77 41.3148C1045.82 41.7139 1046.02 42.4095 1046.41 43.1507C1046.44 43.2134 1046.48 43.2761 1046.51 43.3388C1046.44 42.3924 1046.11 41.4915 1045.76 41.3148H1045.77Z" fill="#F2C32A"/>
<path d="M1057.64 36.0959C1058.62 36.0959 1059.68 36.9227 1059.45 38.2055C1058.56 43.0291 1054.97 47.7785 1050.19 49.1468C1049.64 50.2643 1048.93 51.2678 1048.1 52.0489C1045.92 54.0901 1043.19 54.9282 1040.4 54.9282C1038.29 54.9282 1036.15 54.4493 1034.18 53.6511C1032.42 52.9384 1032.89 50.2358 1034.43 50.2358C1034.62 50.2358 1034.82 50.2757 1035.04 50.3613C1036.72 51.0397 1038.64 51.5358 1040.51 51.5358C1042.65 51.5358 1044.7 50.8915 1046.22 49.1354C1043 48.0635 1040.73 44.4601 1040.91 40.8511C1041.05 37.9262 1043.24 36.4266 1045.55 36.4266C1047.15 36.4266 1048.81 37.145 1049.91 38.6103C1051.19 40.3322 1051.62 42.6014 1051.4 44.8593C1053.97 43.1944 1055.65 40.3664 1056.21 37.3332C1056.36 36.4666 1056.98 36.0902 1057.64 36.0902M1047.76 46.0053C1047.96 45.207 1048.06 44.386 1048.05 43.5878C1048.02 42.1339 1047.44 39.7221 1045.64 39.7278C1045.55 39.7278 1045.46 39.7278 1045.37 39.745C1043.38 39.9958 1044.49 42.7782 1045.07 43.8729C1045.76 45.1899 1046.67 45.8798 1047.76 46.0053ZM1057.64 33C1055.4 33 1053.63 34.5109 1053.21 36.7687C1053.15 37.0994 1053.08 37.4187 1052.98 37.7323C1052.78 37.3902 1052.56 37.0595 1052.33 36.7459C1050.73 34.6078 1048.2 33.3364 1045.55 33.3364C1041.31 33.3364 1038.08 36.4323 1037.86 40.6971C1037.72 43.508 1038.67 46.2846 1040.32 48.4455C1039.06 48.417 1037.63 48.0863 1036.16 47.4934C1035.6 47.2653 1035.01 47.1456 1034.43 47.1456C1032.3 47.1456 1030.52 48.7078 1030.09 50.9485C1029.64 53.3432 1030.85 55.6352 1033.05 56.5247C1035.46 57.5053 1038 58.0185 1040.39 58.0185C1044.2 58.0185 1047.58 56.7413 1050.16 54.3181C1050.95 53.5712 1051.66 52.6932 1052.27 51.6954C1057.34 49.6885 1061.35 44.6597 1062.43 38.7757C1062.7 37.3503 1062.33 35.9078 1061.44 34.8131C1060.51 33.6842 1059.09 33.0057 1057.64 33.0057V33Z" fill="white"/>
<path d="M5.59781 39.8915C5.25541 39.8915 4.91862 39.8801 4.57622 39.863C2.57794 39.7603 1.42164 38.0043 1.46093 36.3679C1.50022 34.7087 2.70144 33.5 4.3068 33.5C4.36293 33.5 4.42467 33.5 4.4808 33.5C4.76146 33.5171 5.04774 33.5228 5.33963 33.5228C7.23125 33.5228 10.296 33.1921 12.1427 31.2821C9.09481 30.3585 6.4454 27.7357 5.53046 24.4687C4.98598 22.5302 5.29471 20.6373 6.41172 19.1378C7.60732 17.5242 9.58876 16.5607 11.7105 16.5607C13.0914 16.5607 14.4217 16.9712 15.5555 17.7523C16.695 18.5334 17.6548 19.6224 18.3789 20.9395C18.9234 19.3943 19.0974 17.6668 18.8448 15.9221C18.7157 15.0213 18.9458 14.1717 19.4903 13.5274C20.0573 12.8604 20.9273 12.4727 21.8647 12.4727C23.5206 12.4727 24.8397 13.613 25.0754 15.2493C25.8613 20.7399 23.6665 26.5726 19.7036 29.6914C19.4847 30.9001 19.1086 32.0062 18.5866 32.9926C16.2572 37.3714 11.5197 39.8801 5.58661 39.8801L5.59781 39.8915ZM11.5926 22.8438C11.7386 23.203 12.1764 23.853 12.8444 24.4801C12.9567 24.5885 13.0745 24.6854 13.1868 24.7709C12.7882 23.6762 12.0473 22.8381 11.6656 22.8381C11.6432 22.8381 11.6207 22.8381 11.5983 22.8495L11.5926 22.8438Z" fill="#75BEDB"/>
<path d="M21.8704 13.9705C22.6675 13.9705 23.4926 14.4552 23.6386 15.4757C24.3346 20.3335 22.4542 26.0008 18.3622 28.8687C18.1994 30.1059 17.8458 31.2862 17.3069 32.3011C14.9943 36.6456 10.2232 38.4131 5.59795 38.4131C5.28362 38.4131 4.96367 38.4074 4.64933 38.3903C2.56124 38.282 2.26937 34.9979 4.31256 34.9979C4.34624 34.9979 4.37991 34.9979 4.41359 34.9979C4.72231 35.015 5.03102 35.0207 5.35097 35.0207C8.99951 35.0207 13.0859 33.8975 14.607 30.1687C14.579 30.1687 14.5565 30.1687 14.5285 30.1687C11.1718 30.1687 7.91619 27.5174 6.94512 24.0737C5.95159 20.533 8.71887 18.0585 11.7163 18.0585C12.7491 18.0585 13.8044 18.3493 14.7474 18.9936C16.5099 20.2023 17.6381 22.2093 18.1489 24.4158C20.0462 21.9983 20.7422 18.7655 20.3044 15.7152C20.1416 14.5749 20.9892 13.9705 21.8761 13.9705M14.433 26.7705C14.6463 26.7705 14.8653 26.7477 15.0785 26.6964C15.0112 25.8754 14.8428 25.0658 14.5734 24.3189C14.1468 23.1101 13.0746 21.3483 11.6601 21.3483C11.3907 21.3483 11.11 21.4111 10.8182 21.5536C9.01073 22.4487 10.9473 24.7123 11.8454 25.5618C12.7098 26.3771 13.5686 26.7648 14.433 26.7648M21.8761 11C20.5121 11 19.2435 11.5702 18.3959 12.5679C17.5708 13.5372 17.2172 14.8086 17.408 16.1428C17.4698 16.5761 17.5034 17.0038 17.5034 17.4314C17.1498 17.1007 16.7737 16.7985 16.3808 16.5305C15 15.5841 13.389 15.0823 11.7163 15.0823C9.13986 15.0823 6.72058 16.2682 5.24994 18.2467C3.85227 20.1282 3.45374 22.483 4.13293 24.8833C4.91877 27.6771 6.74305 30.0261 9.05566 31.4914C7.77587 31.9418 6.36695 32.0445 5.35097 32.0445C5.09277 32.0445 4.82897 32.0388 4.56515 32.0217C4.48096 32.0217 4.39675 32.016 4.31256 32.016C1.91575 32.016 0.0634164 33.869 0.0016719 36.332C-0.0656857 39.0118 1.91012 41.2126 4.50338 41.3494C4.86824 41.3665 5.2331 41.3779 5.59795 41.3779C11.9857 41.3779 17.3238 38.5101 19.8834 33.7093C20.3998 32.7401 20.7871 31.6682 21.0453 30.5222C25.1373 27.01 27.3713 20.8466 26.535 15.0481C26.1982 12.7048 24.2392 11 21.8761 11Z" fill="white"/>
<path d="M61.2331 69.3804C59.0047 69.3804 57.1018 67.6927 56.7987 65.4463C56.5966 63.9525 56.17 63.4223 55.9287 63.2341C55.6536 63.0232 55.1597 62.9034 54.531 62.9034C54.2447 62.9034 53.936 62.9262 53.5992 62.9718C53.4028 63.0003 53.1951 63.0117 52.993 63.0117C50.7646 63.0117 48.8617 61.3241 48.5586 59.0777C48.3958 57.8747 48.7102 56.683 49.4287 55.7138C50.1527 54.7445 51.2024 54.123 52.3868 53.9577C53.8574 53.7524 54.3795 53.3191 54.5647 53.0739C54.7443 52.8345 55.0193 52.2016 54.8173 50.7078C54.6545 49.5047 54.9632 48.3074 55.6873 47.3439C56.4114 46.3803 57.4611 45.7531 58.6454 45.5878C58.8475 45.5593 59.0496 45.5479 59.2516 45.5479C61.4801 45.5479 63.3829 47.2412 63.686 49.4819C63.8881 50.9758 64.3147 51.506 64.5561 51.6884C64.8311 51.8994 65.3251 52.0191 65.9537 52.0191C66.24 52.0191 66.5543 51.9963 66.8855 51.9507C67.0876 51.9222 67.2897 51.9108 67.4917 51.9108C69.7202 51.9108 71.623 53.6042 71.9261 55.8449C72.0889 57.0479 71.7802 58.2395 71.0561 59.2088C70.332 60.1781 69.2823 60.7996 68.098 60.9649C66.6273 61.1702 66.1053 61.6035 65.9201 61.8486C65.7404 62.0881 65.4654 62.721 65.6675 64.2148C65.8303 65.4178 65.5159 66.6094 64.7918 67.5787C64.0677 68.548 63.0181 69.1695 61.8337 69.3348C61.6316 69.3633 61.4296 69.3747 61.2275 69.3747L61.2331 69.3804Z" fill="#F2C32A"/>
<path d="M59.2577 47.1017C60.7283 47.1017 61.9856 48.2192 62.1821 49.6959C62.3898 51.2581 62.8838 52.3414 63.6359 52.9287C64.1916 53.3563 64.9718 53.5729 65.9541 53.5729C66.3078 53.5729 66.6895 53.5444 67.088 53.4874C67.2227 53.4703 67.3574 53.4589 67.4865 53.4589C68.9572 53.4589 70.2145 54.5764 70.411 56.0531C70.6299 57.6952 69.496 59.2061 67.885 59.4284C66.347 59.6394 65.2806 60.1411 64.7024 60.9051C64.1243 61.6749 63.939 62.8551 64.1523 64.4173C64.3712 66.0593 63.2374 67.5703 61.6264 67.7926C61.4917 67.8098 61.357 67.8211 61.2279 67.8211C59.7572 67.8211 58.4999 66.7036 58.3034 65.2269C58.0957 63.6647 57.6018 62.5814 56.8496 61.9941C56.2939 61.5665 55.5137 61.3499 54.5314 61.3499C54.1778 61.3499 53.7961 61.3784 53.3975 61.4354C53.2628 61.4525 53.1337 61.4639 52.999 61.4639C51.5284 61.4639 50.271 60.3464 50.0746 58.8697C49.8557 57.2276 50.9895 55.7167 52.6005 55.4887C54.1385 55.2777 55.205 54.776 55.7831 54.0119C56.3613 53.2422 56.5465 52.062 56.3332 50.4998C56.2266 49.7073 56.4286 48.9147 56.9057 48.2762C57.3829 47.6376 58.0789 47.2271 58.8591 47.1188C58.9938 47.1017 59.1286 47.0903 59.2577 47.0903M59.2577 44C58.9882 44 58.7132 44.0171 58.4494 44.057C56.8608 44.2794 55.4519 45.1118 54.4865 46.4061C53.5154 47.7003 53.1001 49.3025 53.319 50.916C53.4088 51.5945 53.3695 51.9594 53.3358 52.1191C53.1955 52.1932 52.8587 52.33 52.1907 52.4212C48.9126 52.8773 46.6113 55.9505 47.0547 59.2802C47.4588 62.2849 50.0128 64.5485 52.999 64.5485C53.2684 64.5485 53.5435 64.5313 53.8073 64.4914C54.0711 64.4572 54.3181 64.4344 54.5314 64.4344C54.7447 64.4344 54.9075 64.4572 54.9917 64.4743C55.0646 64.6169 55.1994 64.959 55.2892 65.6374C55.6933 68.6422 58.2473 70.9057 61.2335 70.9057C61.5029 70.9057 61.7779 70.8886 62.0418 70.8487C65.3198 70.3926 67.6212 67.3194 67.1778 63.9897C67.088 63.3112 67.1273 62.9463 67.161 62.7867C67.3013 62.7125 67.6381 62.5757 68.306 62.4845C69.8945 62.2621 71.2978 61.4297 72.2689 60.1355C73.24 58.8412 73.6554 57.239 73.4364 55.6255C73.0323 52.6208 70.4783 50.3573 67.4921 50.3573C67.2227 50.3573 66.9477 50.3743 66.6838 50.4143C66.42 50.4485 66.173 50.4713 65.9597 50.4713C65.7464 50.4713 65.5837 50.4485 65.4995 50.4314C65.4265 50.2888 65.2918 49.9468 65.202 49.2683C64.7978 46.2635 62.2438 44 59.2577 44Z" fill="white"/>
</svg>
