<svg width="1440" height="133" viewBox="0 0 1440 133" fill="none" xmlns="http://www.w3.org/2000/svg">
<g clip-path="url(#clip0_846_3856)">
<rect width="1440" height="133" fill="#EFC141"/>
<path d="M670.544 86.984V85.496H666.296V82.352H670.544V80.456H674V82.352H678.632V85.496H674V86.984H677.696V90.2H667.088V86.984H670.544ZM665.672 92.12L666.032 95.336C665.336 95.528 664.616 95.696 663.896 95.888V103.28H660.608V96.704L657.68 97.424L656.84 93.872C657.896 93.704 659.192 93.464 660.608 93.176V88.328H659.576C659.36 89.432 659.12 90.44 658.832 91.256C658.28 90.944 657.056 90.512 656.408 90.32C657.152 88.4 657.56 85.28 657.728 82.4L660.296 82.784C660.248 83.528 660.176 84.272 660.08 85.016H660.608V80.48H663.896V85.016H665.768V88.328H663.896V92.504L665.672 92.12ZM679.16 91.976V95.168H677.12V99.512C677.12 101.168 676.832 102.08 675.728 102.608C674.672 103.136 673.256 103.208 671.456 103.208C671.336 102.2 670.856 100.736 670.424 99.776C671.456 99.824 672.8 99.824 673.184 99.824C673.544 99.824 673.664 99.752 673.664 99.44V95.168H670.064C671 96.176 672.056 97.448 672.56 98.36L669.824 100.16C669.344 99.152 668.168 97.592 667.208 96.464L669.272 95.168H666.296V91.976H673.664V90.608H677.12V91.976H679.16ZM686.504 84.728V85.976H683.384V81.944H692.192C692.072 81.536 691.928 81.128 691.808 80.768L695.576 80.264C695.84 80.744 696.056 81.416 696.2 81.944H704.504V85.976H701.24V84.728H686.504ZM687.008 96.848V96.92C687.008 97.52 686.984 98.168 686.936 98.84C687.68 98.672 688.568 98.432 689.504 98.168C688.928 97.808 687.848 97.232 687.008 96.848ZM690.56 96.464L689.504 98.168C689.84 98.072 690.2 97.976 690.56 97.88V96.464ZM690.56 95.144H687.008V96.608L687.944 95.216C688.784 95.552 689.936 96.032 690.56 96.392V95.144ZM693.68 93.152V100.712C693.68 101.96 693.44 102.56 692.624 102.944C691.808 103.304 690.728 103.328 689.36 103.304C689.24 102.584 688.88 101.624 688.544 100.976C689.168 101.024 689.984 101.024 690.2 101.024C690.464 101 690.56 100.928 690.56 100.688V99.752C689.408 100.304 688.352 100.808 687.296 101.288L686.792 99.92C686.6 101.24 686.192 102.512 685.472 103.472C684.992 103.016 683.792 102.2 683.192 101.912C684.272 100.424 684.344 98.456 684.344 96.872V93.152H693.68ZM698.96 100.64H701.696C702.248 100.64 702.488 100.52 702.632 99.992H697.832C697.88 100.544 698.12 100.64 698.96 100.64ZM690.128 88.712H687.512C687.704 89.144 687.848 89.624 687.944 90.056H689.744C689.888 89.624 690.032 89.12 690.128 88.712ZM693.152 88.952L692.672 90.056H694.4V92.48H683.048V90.056H685.064C684.992 89.672 684.872 89.264 684.752 88.928L686.024 88.712H683.48V86.432H687.728C687.656 86.096 687.536 85.76 687.44 85.472L690.296 85.136C690.464 85.496 690.632 86 690.752 86.432H694.184V88.712H691.928L693.152 88.952ZM703.784 98.336V99.632C704.336 99.848 704.96 100.04 705.464 100.136C705.152 102.488 704.288 103.184 702.032 103.184H698.504C695.528 103.184 694.64 102.416 694.64 99.704V91.616H700.856V91.016H694.64V85.256H697.808V86.432H704.264V88.544H697.808V89.048H704.072V93.584H697.808V94.064H703.448V95.72H697.808V96.2H703.352V97.856H697.808V98.336H703.784ZM726.68 97.496H727.736V86.168H726.68V97.496ZM712.52 84.728H711.728V95.024H712.52V84.728ZM715.16 97.76H711.728V99.632H709.112V82.016H715.16V97.76ZM720.512 88.112H719.576C719.432 92.936 719.024 96.872 717.8 99.992C718.28 100.04 718.688 100.04 719 100.04C719.312 100.04 719.48 99.944 719.696 99.56C720.104 98.912 720.32 96.104 720.512 88.112ZM719.624 85.064H723.512C723.512 85.064 723.512 86.048 723.488 86.432C723.248 96.752 723.032 100.544 722.336 101.6C721.832 102.416 721.376 102.704 720.68 102.872C720.08 103.016 719.288 103.04 718.4 103.016C718.352 102.2 718.112 101.048 717.728 100.184C717.224 101.408 716.6 102.488 715.808 103.448C715.352 102.704 714.32 101.624 713.6 101.168C716.024 98.24 716.552 94.04 716.672 88.112H715.616V85.064H716.72V80.6H719.648C719.648 82.16 719.648 83.648 719.624 85.064ZM723.944 83.12H730.616V102.152H727.736V100.544H726.68V102.344H723.944V83.12ZM739.16 93.32V85.472H738.08V93.32H739.16ZM745.664 83.936V80.72H749.048V91.856C749.048 96.248 748.352 101 744.464 103.496C743.912 102.848 742.664 101.744 741.896 101.24C743.504 100.208 744.44 98.744 744.992 97.136C744.176 97.472 743.384 97.808 742.64 98.12L741.968 96.488H738.08V98.432H735.176V82.328H742.088V94.712C743.096 94.472 744.32 94.136 745.592 93.752C745.64 93.128 745.664 92.528 745.664 91.928H742.688V88.832H745.664V87.08H742.52V83.936H745.664ZM757.28 93.704V96.848H753.56V103.256H750.152V80.672H753.56V83.936H756.968V87.08H753.56V88.832H756.752V91.928H753.56V93.704H757.28ZM768.2 92.6H769.448V91.928H768.2V92.6ZM768.2 89.696V90.32H769.448V89.696H768.2ZM769.448 87.536H768.2V88.088H769.448V87.536ZM771.944 87.536V100.616C772.256 99.752 772.448 98.744 772.544 97.784L774.68 98.384C774.512 99.92 774.248 101.552 773.552 102.584L771.944 101.84V103.256H769.448V96.968C769.016 97.064 768.536 97.136 768.032 97.184V97.976H769.064V99.752H768.032V100.448L769.088 100.376L769.136 102.32C767.456 102.488 765.848 102.632 764.36 102.752L764.144 100.664L765.944 100.568V99.752H764.84V97.976H765.944V97.352C765.536 97.352 765.128 97.352 764.768 97.328C764.72 96.992 764.6 96.512 764.456 96.08C764.144 98.696 763.616 101.336 762.656 103.328C762.104 102.752 760.712 101.744 760.016 101.432C761.576 98 761.672 92.912 761.672 89.36V81.992H770.216C770.072 81.728 769.904 81.488 769.736 81.248L772.736 80.096C773.192 80.648 773.648 81.344 773.96 81.992H782.744V84.632H764.792V89.336C764.792 91.088 764.744 93.248 764.504 95.456C765.848 95.384 767.384 95.192 768.416 94.928L769.448 96.872V94.688H764.936V92.6H765.824V87.536H765.152V85.448H772.736V87.536H771.944ZM779.6 90.68V91.856H780.248V90.68H779.6ZM777.896 91.856V90.68H777.272V91.856H777.896ZM775.568 91.856V90.68H774.992V91.856H775.568ZM782.432 88.136H778.976V88.832H782.312V93.728H773V88.832H776.072V88.136H772.904V85.832H776.072V84.968H778.976V85.832H782.432V88.136ZM777.416 101.024H778.04C778.352 101.024 778.448 100.856 778.496 99.512C778.856 99.824 779.648 100.136 780.272 100.304C780.056 99.704 779.792 99.104 779.528 98.552L777.752 99.608C777.608 99.296 777.368 98.912 777.08 98.528V100.472C777.08 100.976 777.128 101.024 777.416 101.024ZM783.056 101.408L780.776 102.248C780.728 101.864 780.632 101.432 780.488 100.952C780.2 102.656 779.6 103.136 778.352 103.136H777.008C775.088 103.136 774.704 102.488 774.704 100.472V97.88H776.576C776.312 97.544 776.024 97.232 775.736 96.968L776.432 96.56H772.568V94.304H782.96V96.56H778.28C778.712 97.016 779.144 97.52 779.432 97.952L781.4 97.256C782.168 98.552 782.888 100.256 783.056 101.408Z" fill="#FEFDFD"/>
<path d="M573.24 63V33.84H589.36V35.92H575.6V46.52H587.16V48.6H575.6V60.96H589.8V63H573.24ZM594.558 63L601.758 51.88L595.158 41.68H597.718L600.998 46.92C601.718 48.12 602.478 49.28 603.238 50.48H603.438C604.118 49.28 604.798 48.12 605.518 46.92L608.678 41.68H611.158L604.558 52.08L611.758 63H609.158L605.518 57.36C604.758 56.04 603.918 54.72 603.078 53.48H602.878C602.038 54.72 601.278 56.04 600.478 57.36L597.038 63H594.558ZM626.811 63.56C621.651 63.56 617.131 59.44 617.131 52.4C617.131 45.24 621.651 41.16 626.811 41.16C631.971 41.16 636.451 45.24 636.451 52.4C636.451 59.44 631.971 63.56 626.811 63.56ZM626.811 61.52C630.971 61.52 634.051 57.84 634.051 52.4C634.051 46.92 630.971 43.16 626.811 43.16C622.611 43.16 619.571 46.92 619.571 52.4C619.571 57.84 622.611 61.52 626.811 61.52ZM651.216 63.56C647.016 63.56 645.776 60.92 645.776 56.96V43.68H642.456V41.88L645.856 41.68L646.096 35.52H648.096V41.68H654.176V43.68H648.096V57.12C648.096 59.8 648.776 61.56 651.656 61.56C652.416 61.56 653.496 61.24 654.216 60.92L654.816 62.72C653.576 63.16 652.216 63.56 651.216 63.56ZM662.479 63V41.68H664.839V63H662.479ZM663.679 36.68C662.599 36.68 661.839 35.96 661.839 34.72C661.839 33.64 662.599 32.88 663.679 32.88C664.759 32.88 665.519 33.64 665.519 34.72C665.519 35.96 664.759 36.68 663.679 36.68ZM683.952 63.56C678.432 63.56 674.192 59.44 674.192 52.4C674.192 45.24 678.792 41.16 684.072 41.16C686.952 41.16 688.872 42.4 690.312 43.76L689.032 45.36C687.672 44.12 686.112 43.16 684.152 43.16C679.872 43.16 676.632 46.92 676.632 52.4C676.632 57.84 679.632 61.52 684.112 61.52C686.272 61.52 688.232 60.48 689.672 59.16L690.792 60.76C688.952 62.4 686.632 63.56 683.952 63.56ZM711.421 63V33.84H718.981C725.541 33.84 729.621 36 729.621 42.08C729.621 47.92 725.621 50.68 719.141 50.68H713.781V63H711.421ZM713.781 48.68H718.621C724.381 48.68 727.141 46.72 727.141 42.08C727.141 37.32 724.301 35.88 718.461 35.88H713.781V48.68ZM745.862 63.56C740.342 63.56 735.902 59.4 735.902 52.4C735.902 45.44 740.462 41.16 745.262 41.16C750.422 41.16 753.542 44.84 753.542 51.08C753.542 51.64 753.502 52.2 753.422 52.76H738.302C738.382 57.92 741.462 61.56 746.102 61.56C748.382 61.56 750.142 60.84 751.742 59.72L752.662 61.44C750.942 62.52 748.902 63.56 745.862 63.56ZM738.262 50.92H751.382C751.382 45.76 749.022 43.12 745.302 43.12C741.822 43.12 738.742 46 738.262 50.92ZM767.916 63.56C763.716 63.56 762.476 60.92 762.476 56.96V43.68H759.156V41.88L762.556 41.68L762.796 35.52H764.796V41.68H770.876V43.68H764.796V57.12C764.796 59.8 765.476 61.56 768.356 61.56C769.116 61.56 770.196 61.24 770.916 60.92L771.516 62.72C770.276 63.16 768.916 63.56 767.916 63.56ZM801.967 63.56C794.727 63.56 789.647 57.72 789.647 48.4C789.647 39.12 794.807 33.32 802.207 33.32C805.647 33.32 808.287 35.04 809.847 36.84L808.487 38.4C806.927 36.68 804.847 35.48 802.207 35.48C796.007 35.48 792.127 40.44 792.127 48.36C792.127 56.28 795.967 61.4 802.087 61.4C805.007 61.4 807.207 60.16 809.287 57.84L810.687 59.4C808.407 62 805.727 63.56 801.967 63.56ZM824.205 63.56C820.805 63.56 818.005 61.6 818.005 57.64C818.005 52.92 822.205 50.68 831.605 49.6C831.685 46.44 830.805 43.16 826.765 43.16C823.925 43.16 821.525 44.52 820.005 45.64L819.005 43.92C820.605 42.8 823.565 41.16 827.045 41.16C832.125 41.16 833.965 44.76 833.965 49.48V63H832.005L831.765 60.32H831.645C829.525 62.04 826.965 63.56 824.205 63.56ZM824.685 61.56C827.045 61.56 829.125 60.44 831.605 58.28V51.36C823.205 52.28 820.365 54.28 820.365 57.52C820.365 60.44 822.325 61.56 824.685 61.56ZM844.92 63V37.24C844.92 33 846.84 30.72 850.4 30.72C851.48 30.72 852.64 30.96 853.64 31.4L853.04 33.28C852.2 32.84 851.32 32.68 850.52 32.68C848.28 32.68 847.24 34.36 847.24 37.36V63H844.92ZM842 43.68V41.88L845 41.68H852.08V43.68H842ZM867.405 63.56C861.885 63.56 857.445 59.4 857.445 52.4C857.445 45.44 862.005 41.16 866.805 41.16C871.965 41.16 875.085 44.84 875.085 51.08C875.085 51.64 875.045 52.2 874.965 52.76H859.845C859.925 57.92 863.005 61.56 867.645 61.56C869.925 61.56 871.685 60.84 873.285 59.72L874.205 61.44C872.485 62.52 870.445 63.56 867.405 63.56ZM859.805 50.92H872.925C872.925 45.76 870.565 43.12 866.845 43.12C863.365 43.12 860.285 46 859.805 50.92Z" fill="#FEFDFD"/>
<path d="M477.872 66.115C477.532 66.115 477.198 66.0672 476.869 65.9718C476.712 65.924 476.561 65.871 476.41 65.8021C474.765 65.0649 473.903 63.1821 474.399 61.4266C474.734 60.2598 474.587 59.7241 474.467 59.5067C474.332 59.2574 474.003 59.0081 473.538 58.8013C473.329 58.7058 473.089 58.621 472.833 58.5467C472.671 58.499 472.52 58.4406 472.374 58.377C470.729 57.6398 469.867 55.757 470.363 54.0015C470.807 52.4422 472.233 51.3497 473.835 51.3497C474.175 51.3497 474.509 51.3974 474.838 51.4929C475.308 51.6308 475.715 51.6997 476.06 51.6997C476.342 51.6997 476.566 51.652 476.728 51.5618C476.942 51.4452 477.344 51.0686 477.678 49.9018C477.945 48.9631 478.561 48.1834 479.401 47.7061C479.934 47.4091 480.54 47.25 481.145 47.25C481.485 47.25 481.824 47.2977 482.153 47.3932C482.31 47.4356 482.461 47.494 482.613 47.5629C484.257 48.3001 485.119 50.1829 484.623 51.9384C484.289 53.1052 484.435 53.6409 484.555 53.8583C484.691 54.1076 485.02 54.3569 485.479 54.5637C485.688 54.6592 485.928 54.744 486.189 54.8236C486.341 54.866 486.503 54.9243 486.654 54.9933C488.293 55.7305 489.155 57.608 488.659 59.3635C488.215 60.9227 486.79 62.0153 485.187 62.0153C484.847 62.0153 484.513 61.9675 484.184 61.8721C483.72 61.7342 483.307 61.6652 482.962 61.6652C482.68 61.6652 482.456 61.713 482.294 61.8031C482.08 61.9198 481.678 62.2964 481.344 63.4632C480.9 65.0224 479.475 66.115 477.872 66.115Z" fill="#F2C32A"/>
<path d="M481.145 48.5033C481.37 48.5033 481.589 48.5351 481.808 48.5988C481.913 48.6306 482.012 48.6677 482.111 48.7102C483.197 49.1981 483.766 50.4391 483.438 51.5953C483.093 52.8152 483.103 53.7804 483.474 54.4646C483.746 54.9631 484.252 55.3821 484.978 55.7109C485.239 55.8276 485.531 55.9337 485.845 56.0239C485.949 56.0557 486.048 56.0928 486.147 56.1352C487.233 56.6232 487.803 57.8642 487.474 59.0204C487.171 60.0811 486.215 60.7706 485.181 60.7706C484.962 60.7706 484.743 60.7388 484.524 60.6751C483.944 60.5054 483.422 60.4205 482.962 60.4205C482.472 60.4205 482.049 60.516 481.704 60.7123C481.03 61.0888 480.514 61.9003 480.169 63.1201C479.866 64.1808 478.911 64.8703 477.877 64.8703C477.657 64.8703 477.438 64.8385 477.219 64.7748C477.114 64.743 477.015 64.7059 476.916 64.6634C475.83 64.1755 475.261 62.9345 475.59 61.7783C475.934 60.5584 475.924 59.5932 475.553 58.909C475.282 58.4105 474.775 57.9915 474.05 57.6627C473.788 57.546 473.496 57.4399 473.183 57.3498C473.078 57.3179 472.979 57.2808 472.88 57.2384C471.794 56.7504 471.225 55.5094 471.554 54.3532C471.857 53.2925 472.812 52.603 473.846 52.603C474.065 52.603 474.284 52.6348 474.504 52.6985C475.083 52.8682 475.605 52.9531 476.065 52.9531C476.556 52.9531 476.979 52.8576 477.323 52.6613C477.997 52.2848 478.514 51.4733 478.858 50.2535C479.036 49.633 479.438 49.1185 479.997 48.8056C480.352 48.6041 480.749 48.5033 481.145 48.5033ZM481.145 46.0053C480.331 46.0053 479.527 46.2175 478.811 46.6205C477.678 47.257 476.859 48.3018 476.498 49.564C476.347 50.0944 476.201 50.3543 476.128 50.4551C476.112 50.4551 476.091 50.4551 476.065 50.4551C475.908 50.4551 475.626 50.4285 475.183 50.2959C474.744 50.1686 474.295 50.105 473.841 50.105C471.695 50.105 469.784 51.5635 469.188 53.6584C468.52 56.0079 469.679 58.5272 471.877 59.5189C472.076 59.6091 472.285 59.6833 472.494 59.747C472.702 59.8053 472.885 59.8743 473.047 59.9485C473.214 60.0228 473.319 60.0864 473.376 60.1289C473.381 60.2614 473.376 60.5584 473.225 61.0835C472.556 63.433 473.715 65.9522 475.914 66.944C476.112 67.0342 476.321 67.1084 476.53 67.1721C476.968 67.2993 477.417 67.363 477.872 67.363C480.018 67.363 481.929 65.9045 482.524 63.8096C482.675 63.2792 482.821 63.0193 482.895 62.9133C482.91 62.9133 482.931 62.9133 482.957 62.9133C483.114 62.9133 483.396 62.9398 483.84 63.0724C484.278 63.1996 484.727 63.2633 485.181 63.2633C487.327 63.2633 489.238 61.8048 489.834 59.7099C490.502 57.3604 489.343 54.8411 487.145 53.8494C486.946 53.7592 486.737 53.685 486.529 53.6213C486.32 53.563 486.137 53.494 485.975 53.4198C485.808 53.3455 485.704 53.2819 485.646 53.2395C485.641 53.1069 485.646 52.8099 485.798 52.2848C486.466 49.9353 485.312 47.4161 483.109 46.4243C482.91 46.3341 482.701 46.2599 482.492 46.1962C482.054 46.069 481.6 46 481.145 46V46.0053Z" fill="white"/>
<path d="M1055.67 102.838C1053.62 102.838 1051.44 102.392 1049.37 101.549C1047.97 100.981 1047.19 99.5071 1047.49 97.969C1047.75 96.5742 1048.83 95.5983 1050.12 95.5983C1050.48 95.5983 1050.85 95.6725 1051.21 95.821C1052.33 96.2719 1054.02 96.8128 1055.78 96.8128C1056.81 96.8128 1057.71 96.6272 1058.48 96.2506C1056.1 94.4845 1054.58 91.3925 1054.73 88.2369C1054.9 85.007 1057.26 82.7529 1060.47 82.7529C1062.5 82.7529 1064.44 83.7235 1065.65 85.357C1066.4 86.37 1066.92 87.5845 1067.18 88.9263C1068.08 87.7595 1068.7 86.3329 1068.99 84.7736C1069.24 83.3787 1070.34 82.4453 1071.71 82.4453C1072.65 82.4453 1073.57 82.8802 1074.16 83.6068C1074.73 84.3069 1074.95 85.1926 1074.78 86.1101C1073.84 91.1963 1070.18 95.6725 1065.76 97.2212C1065.21 98.213 1064.55 99.0722 1063.79 99.7775C1061.66 101.777 1058.85 102.838 1055.67 102.838ZM1060.67 88.7354C1060.71 89.1067 1060.91 89.7537 1061.27 90.4432C1061.3 90.5015 1061.33 90.5599 1061.36 90.6182C1061.3 89.7378 1060.98 88.8998 1060.66 88.7354H1060.67Z" fill="#F2C32A"/>
<path d="M1071.71 83.8799C1072.62 83.8799 1073.61 84.6489 1073.39 85.8422C1072.57 90.3291 1069.23 94.747 1064.78 96.0199C1064.27 97.0594 1063.61 97.9928 1062.83 98.7194C1060.81 100.618 1058.27 101.398 1055.67 101.398C1053.71 101.398 1051.72 100.952 1049.89 100.21C1048.25 99.5468 1048.69 97.0328 1050.12 97.0328C1050.3 97.0328 1050.48 97.07 1050.69 97.1495C1052.25 97.7807 1054.04 98.2421 1055.78 98.2421C1057.76 98.2421 1059.67 97.6428 1061.08 96.0092C1058.09 95.0122 1055.98 91.6603 1056.14 88.3031C1056.28 85.5823 1058.31 84.1875 1060.47 84.1875C1061.96 84.1875 1063.5 84.8557 1064.52 86.2188C1065.72 87.8205 1066.11 89.9313 1065.91 92.0315C1068.29 90.4829 1069.86 87.8523 1070.38 85.0308C1070.52 84.2246 1071.1 83.8746 1071.71 83.8746M1062.53 93.0976C1062.71 92.3551 1062.8 91.5913 1062.79 90.8488C1062.77 89.4964 1062.22 87.253 1060.55 87.2583C1060.47 87.2583 1060.38 87.2583 1060.3 87.2742C1058.44 87.5075 1059.48 90.0957 1060.01 91.114C1060.66 92.3391 1061.51 92.9809 1062.53 93.0976ZM1071.71 81C1069.63 81 1067.98 82.4055 1067.59 84.5057C1067.53 84.8133 1067.46 85.1103 1067.38 85.402C1067.19 85.0838 1066.99 84.7762 1066.77 84.4845C1065.29 82.4956 1062.93 81.3129 1060.46 81.3129C1056.52 81.3129 1053.51 84.1928 1053.31 88.1599C1053.18 90.7746 1054.06 93.3574 1055.6 95.3675C1054.43 95.341 1053.1 95.0334 1051.73 94.4818C1051.21 94.2697 1050.66 94.1583 1050.12 94.1583C1048.14 94.1583 1046.49 95.6115 1046.09 97.6958C1045.67 99.9233 1046.79 102.055 1048.83 102.883C1051.08 103.795 1053.44 104.272 1055.67 104.272C1059.21 104.272 1062.35 103.084 1064.75 100.83C1065.49 100.135 1066.15 99.3187 1066.71 98.3906C1071.43 96.5237 1075.16 91.8459 1076.17 86.3726C1076.41 85.0467 1076.07 83.7048 1075.24 82.6865C1074.38 81.6364 1073.06 81.0053 1071.71 81.0053V81Z" fill="white"/>
<path d="M511.286 96.7058C510.534 96.7058 509.843 96.3324 509.382 95.686C508.932 95.0563 508.521 94.4322 508.142 93.8137C507.352 94.2316 506.546 94.6161 505.734 94.9728C505.366 95.1344 504.988 95.2179 504.609 95.2179C503.589 95.2179 502.695 94.6328 502.272 93.6855C501.839 92.7159 502.009 91.5959 502.716 90.76L503.358 90.0077C503.166 89.913 502.98 89.8238 502.793 89.7291C501.789 89.222 501.268 88.1967 501.466 87.1157C501.685 85.9009 502.749 84.8923 503.94 84.7753C504.231 84.7474 504.532 84.7195 504.834 84.7028C504.713 83.7444 504.62 82.7692 504.554 81.7996C504.505 81.1142 504.735 80.4566 505.196 79.9551C505.695 79.409 506.42 79.097 507.182 79.097C507.577 79.097 507.967 79.1861 508.307 79.3533C508.433 79.0301 508.559 78.7125 508.696 78.3948C509.124 77.3695 510.199 76.6562 511.302 76.6562C512.295 76.6562 513.14 77.2525 513.507 78.2054C513.908 79.253 514.215 80.2839 514.435 81.3315L515.85 81.0584C516.014 81.025 516.185 81.0083 516.349 81.0083C517.315 81.0083 518.203 81.5432 518.675 82.3958C519.136 83.2317 519.109 84.2236 518.609 85.0427L517.463 86.9262L517.885 87.0934C519.087 87.5782 519.778 88.8877 519.531 90.2084C519.301 91.4287 518.33 92.2479 517.112 92.2479C517.04 92.2479 516.964 92.2478 516.887 92.2367L514.561 92.0472C514.473 92.0417 514.385 92.0305 514.292 92.0194C514.193 92.7494 514.1 93.4849 514.007 94.2149C513.837 95.5579 512.591 96.6891 511.297 96.6891L511.286 96.7058Z" fill="#77C67C"/>
<path d="M511.296 78.103C511.659 78.103 511.999 78.2813 512.174 78.7327C512.717 80.1425 513.079 81.5579 513.26 83.029C514.21 82.8451 515.159 82.6612 516.108 82.4773C516.185 82.4606 516.267 82.455 516.344 82.455C517.232 82.455 517.907 83.4302 517.391 84.2772C516.711 85.3972 516.031 86.5173 515.351 87.6318C516.02 87.8993 516.689 88.1723 517.353 88.4398C518.483 88.8967 518.406 90.7913 517.106 90.7913C517.068 90.7913 517.029 90.7913 516.991 90.7913C516.217 90.73 515.444 90.6687 514.665 90.6019C514.155 90.5629 513.529 90.4236 512.959 90.3957C512.893 90.8638 512.915 91.4712 512.871 91.7944C512.772 92.5411 512.673 93.2822 512.58 94.0289C512.503 94.6474 511.883 95.2381 511.286 95.2381C511.017 95.2381 510.748 95.1155 510.539 94.8202C509.859 93.8617 509.239 92.8866 508.68 91.8557C507.539 92.5076 506.37 93.0983 505.169 93.6277C504.977 93.7113 504.79 93.7503 504.615 93.7503C503.649 93.7503 503.057 92.5689 503.803 91.6941C504.439 90.9474 505.07 90.2062 505.706 89.4595C504.938 89.1363 504.181 88.7908 503.435 88.4119C502.261 87.8212 503.078 86.3 504.088 86.1941C504.839 86.1161 505.586 86.0826 506.337 86.0826C506.387 86.0826 506.436 86.0826 506.485 86.0826C506.249 84.6227 506.085 83.1516 505.986 81.6693C505.937 80.956 506.568 80.5214 507.187 80.5214C507.5 80.5214 507.807 80.6328 508.027 80.878C508.329 81.2124 508.619 81.5579 508.91 81.8978C509.239 80.8947 509.601 79.9084 510.013 78.9333C510.216 78.4485 510.786 78.0807 511.307 78.0807M511.307 75.1775C509.706 75.1775 508.153 76.1749 507.462 77.6293C507.369 77.6237 507.281 77.6182 507.187 77.6182C506.03 77.6182 504.927 78.0974 504.154 78.9333C503.419 79.7301 503.057 80.7721 503.133 81.8699C503.166 82.3826 503.21 82.8897 503.26 83.3968C501.669 83.7924 500.368 85.1576 500.067 86.8238C499.82 88.1779 500.27 89.4707 501.23 90.3567C500.506 91.5436 500.401 92.9813 500.977 94.2629C501.63 95.7062 503.057 96.6424 504.615 96.6424C505.191 96.6424 505.761 96.5198 506.304 96.2802C506.749 96.0851 507.193 95.8789 507.637 95.6616C507.824 95.9402 508.021 96.2244 508.224 96.5086C508.959 97.5395 510.073 98.1302 511.286 98.1302C513.299 98.1302 515.148 96.4529 515.411 94.3911C515.444 94.1181 515.482 93.8394 515.515 93.5664L516.761 93.6667C516.876 93.6778 516.991 93.6778 517.101 93.6778C518.993 93.6778 520.568 92.3572 520.924 90.4626C521.221 88.8856 520.628 87.3197 519.465 86.3613L519.816 85.7817C520.59 84.5057 520.628 82.9677 519.915 81.6637C519.191 80.3486 517.825 79.5295 516.344 79.5295C516.086 79.5295 515.828 79.5518 515.576 79.6019L515.493 79.6187C515.312 78.9611 515.093 78.3091 514.835 77.646C514.248 76.1192 512.893 75.1719 511.296 75.1719L511.307 75.1775Z" fill="white"/>
<path d="M1044.64 52.1606C1044.04 52.1606 1043.47 51.9962 1042.98 51.678C1040.33 50.8294 1039 47.2866 1038.21 44.6507C1037.06 40.7685 1037.3 37.7454 1038.91 35.6558C1039.96 34.2928 1041.52 33.5078 1043.17 33.5078C1044.64 33.5078 1045.99 34.1283 1046.99 35.2527C1047.28 35.5815 1047.54 35.9422 1047.78 36.324C1048.79 35.8732 1049.84 35.6346 1050.84 35.6346C1053.54 35.6346 1055.44 37.3529 1055.92 40.2381C1056.48 43.643 1054.08 46.4858 1052.22 48.3261C1050.09 50.437 1047.64 51.7523 1045.13 52.1235C1044.97 52.15 1044.8 52.1606 1044.64 52.1606H1044.64Z" fill="#E07D77"/>
<path d="M1043.17 35.0125C1044.16 35.0125 1045.14 35.4102 1045.88 36.2535C1046.45 36.8899 1046.86 37.6165 1047.14 38.3856C1048.29 37.6112 1049.62 37.1392 1050.84 37.1392C1052.57 37.1392 1054.07 38.0886 1054.46 40.4805C1054.9 43.1429 1052.94 45.5083 1051.19 47.2426C1049.46 48.961 1047.34 50.2657 1044.92 50.6263C1044.82 50.6422 1044.73 50.6475 1044.64 50.6475C1044.23 50.6475 1043.89 50.5096 1043.61 50.2922C1041.4 49.7777 1040.2 46.1182 1039.63 44.2142C1038.93 41.8329 1038.45 38.6932 1040.07 36.5876C1040.86 35.564 1042.02 35.0178 1043.17 35.0178M1043.17 32C1041.05 32 1039.07 32.9918 1037.73 34.7261C1035.8 37.2241 1035.48 40.7085 1036.78 45.0893C1037.34 46.9615 1038.77 51.7719 1042.34 53.0607C1043.04 53.4637 1043.82 53.6706 1044.63 53.6706C1044.87 53.6706 1045.1 53.6547 1045.34 53.6176C1048.16 53.1986 1050.9 51.7401 1053.25 49.4065C1054.59 48.0806 1058.13 44.5643 1057.38 39.9873C1056.79 36.3702 1054.28 34.1267 1050.83 34.1267C1050.01 34.1267 1049.16 34.2593 1048.32 34.5192C1048.24 34.4291 1048.17 34.3389 1048.09 34.2487C1046.81 32.8008 1045.06 32.0053 1043.17 32.0053V32Z" fill="white"/>
<path d="M415.86 66.011C415.329 64.0289 415.196 61.8105 415.473 59.5849C415.659 58.0864 416.883 56.9584 418.444 56.8427C419.86 56.7389 421.083 57.5304 421.416 58.7761C421.51 59.1241 421.533 59.4963 421.482 59.8828C421.336 61.0788 421.253 62.8579 421.707 64.5525C421.973 65.5461 422.386 66.3705 422.95 67.0195C424.04 64.2626 426.632 61.9896 429.72 61.3242C432.882 60.6446 435.67 62.3408 436.503 65.4476C437.027 67.4045 436.591 69.5268 435.328 71.1247C434.544 72.1131 433.505 72.9268 432.276 73.5262C433.634 74.0867 435.174 74.3226 436.755 74.1965C438.168 74.0826 439.354 74.9001 439.709 76.2265C439.951 77.1293 439.769 78.1295 439.22 78.8875C438.691 79.6184 437.893 80.0645 436.963 80.1356C431.808 80.5492 426.535 78.1672 423.895 74.2962C422.795 74.0234 421.795 73.6103 420.917 73.0615C418.435 71.5213 416.683 69.0825 415.86 66.011ZM430.774 67.1826C430.427 67.3241 429.852 67.6781 429.28 68.2046C429.231 68.2499 429.183 68.2953 429.135 68.3407C429.969 68.0523 430.698 67.5328 430.773 67.1775L430.774 67.1826Z" fill="#E07D77"/>
<path d="M438.322 76.5994C438.558 77.477 438.07 78.6293 436.861 78.7263C432.313 79.0907 427.182 77.0114 424.801 73.0438C423.665 72.8186 422.593 72.4247 421.69 71.8613C419.333 70.4009 417.922 68.1465 417.25 65.6399C416.742 63.7436 416.656 61.7017 416.9 59.7443C417.116 57.9891 419.658 57.7621 420.03 59.149C420.074 59.3154 420.087 59.5066 420.063 59.7239C419.857 61.3952 419.875 63.2446 420.325 64.924C420.839 66.8405 421.912 68.5313 423.855 69.4703C424.044 66.3223 426.734 63.4122 430.02 62.7047C432.683 62.1316 434.556 63.7325 435.114 65.8155C435.5 67.2528 435.254 68.9187 434.201 70.2549C432.963 71.8244 431.027 72.7541 428.946 73.1009C431.059 75.005 434.006 75.8372 436.865 75.6062C437.681 75.5388 438.168 76.0029 438.326 76.593M427.04 70.1087C427.805 70.093 428.566 69.9811 429.28 69.7788C430.581 69.4086 432.607 68.3035 432.169 66.6859C432.148 66.6102 432.125 66.5245 432.088 66.4479C431.383 64.7179 429.151 66.3864 428.306 67.1694C427.291 68.1119 426.89 69.095 427.04 70.1087ZM441.103 75.849C440.565 73.8417 438.779 72.6067 436.65 72.7771C436.338 72.8012 436.034 72.8125 435.729 72.8023C435.989 72.5434 436.234 72.2671 436.459 71.9798C437.996 70.0327 438.529 67.452 437.89 65.0664C436.869 61.2586 433.309 59.099 429.426 59.9341C426.867 60.4847 424.599 62.0005 423.054 64.0035C422.777 62.8669 422.731 61.5063 422.91 60.0421C422.978 59.4778 422.945 58.9245 422.805 58.4C422.293 56.4885 420.461 55.2658 418.345 55.422C416.084 55.59 414.316 57.2312 414.045 59.4173C413.745 61.8221 413.895 64.2253 414.472 66.3789C415.388 69.7983 417.349 72.527 420.147 74.2586C421.01 74.7949 421.969 75.219 423.012 75.5235C426.036 79.5996 431.52 81.9899 437.067 81.5467C438.412 81.4405 439.62 80.7654 440.389 79.7C441.18 78.596 441.448 77.1567 441.098 75.8504L441.103 75.849Z" fill="white"/>
<path d="M941.141 87.1926C941.141 87.1926 919.24 84.8523 920.511 63.9275C921.781 43.0028 948.71 30.3852 963.937 35.8726C984.583 43.3154 980.022 60.9104 973.116 90.3819C973.116 90.3819 971.289 101.415 971.511 105.374C971.511 105.374 975.46 84.2793 1004.71 73.7472C1033.96 63.214 1022.08 73.8911 1015.8 79.4962C1009.51 85.1013 1005.44 108.44 1006.41 125.745C1007.38 143.05 1007.81 168.086 973.999 175.686C934.65 184.521 898.103 139.54 941.141 87.1926Z" fill="#EAC3BB"/>
<path d="M929.646 104.571L941.144 87.1803C945.28 87.4695 953.791 85.8489 951.951 105.356C950.906 116.459 951.379 137.232 965.578 147.67C975.527 154.983 1000 153.557 1006.16 129.161C1006.16 129.161 1008.86 146.697 999.8 160.394C995.964 166.197 988.369 170.462 980.254 173.787C963.598 180.619 934.838 175.365 925.739 153.015C915.554 127.997 929.648 104.565 929.648 104.565L929.646 104.571Z" fill="#EFEFED"/>
<path d="M929.451 82.9435C931.35 82.2851 933.286 81.449 936.989 81.4229C942.731 81.378 942.809 82.819 947.199 82.5362C951.588 82.2596 954.866 78.8042 954.866 78.8042" stroke="#543816" stroke-width="2.76899" stroke-linecap="round" stroke-linejoin="round"/>
<mask id="mask0_846_3856" style="mask-type:luminance" maskUnits="userSpaceOnUse" x="919" y="34" width="104" height="143">
<path d="M940.414 87.2395C940.414 87.2395 918.514 84.8992 919.784 63.9744C921.055 43.0496 947.983 30.432 963.211 35.9194C983.857 43.3623 979.296 60.9573 972.389 90.4288C972.389 90.4288 970.563 101.461 970.785 105.421C970.785 105.421 974.733 84.3262 1003.98 73.794C1033.23 63.2609 1019.76 72.5095 1015.07 79.5431C1005.48 93.9171 1004.71 108.487 1005.68 125.792C1006.66 143.097 1007.09 168.133 973.272 175.733C933.923 184.568 897.377 139.587 940.414 87.2395Z" fill="white"/>
</mask>
<g mask="url(#mask0_846_3856)">
<path opacity="0.76" d="M984.253 49.5251C985.312 48.3359 983.487 46.6974 982.428 47.8866C981.872 48.5084 981.29 49.0942 980.677 49.6491C980.728 49.531 980.78 49.4129 980.825 49.2937C981.366 47.8127 979.198 46.6864 978.649 48.1787C978.227 49.3249 977.366 50.1229 976.503 50.9333C975.445 51.9324 974.324 52.8573 973.193 53.7741C973.055 53.8899 972.912 53.9925 972.775 54.1022C971.599 54.4721 970.422 55.1462 969.328 55.6251C968.523 55.8364 967.705 56.0199 966.886 56.1715C964.275 56.6446 961.473 56.99 958.811 56.6675C958.366 56.5279 957.929 56.3833 957.489 56.219C955.075 55.3554 952.536 54.4258 949.925 54.7529C949.586 54.7965 949.243 54.8647 948.91 54.9535C948.898 54.9514 948.877 54.9607 948.865 54.9586C948.756 54.9779 948.656 55.0116 948.562 55.0526C947.259 55.4705 946.092 56.267 945.525 57.5023C944.828 58.6901 944.851 60.128 945.549 61.377C947.191 64.3358 950.862 65.8461 954.123 66.2458C955.702 67.0935 957.785 66.8599 959.509 66.787C963.405 66.6164 967.302 65.9637 971.037 64.801C975.346 63.4574 979.435 61.3909 983.038 58.6257C983.938 57.9295 983.578 56.2053 982.295 56.3602C981.192 56.4948 980.089 56.6233 978.985 56.758C978.896 56.5142 978.796 56.2561 978.678 56.001C979.22 55.2055 979.648 54.346 979.915 53.4082C981.488 52.2816 982.946 50.9893 984.261 49.5138L984.253 49.5251Z" fill="#EFDBD8"/>
<path opacity="0.76" d="M974.998 38.0752C974.621 37.6871 974.054 37.5329 973.589 37.8784C973.557 37.6255 973.469 37.3756 973.325 37.1225C972.444 35.6265 970.6 36.2881 969.295 36.6547C967.621 37.1234 965.952 37.6054 964.301 38.1286C963.653 38.335 963.011 38.5486 962.367 38.7684C959.523 39.5823 956.723 40.5432 954.035 41.7901C951.463 42.9868 948.988 44.416 946.78 46.2208C945.503 47.2585 943.741 48.651 943.26 50.2883C942.774 51.087 942.488 51.9899 942.718 52.8351C940.741 54.2796 939.067 56.0998 937.801 58.2434C937.796 58.2362 937.785 58.2279 937.78 58.2207C938.393 56.8981 938.712 55.4742 938.879 54.0244C939.034 52.6423 939.169 51.2376 939.21 49.8297C939.42 48.7109 939.582 47.5837 939.689 46.4472C941.135 43.1097 942.913 39.9115 944.99 36.9358C945.877 35.66 944.199 34.0402 943.165 35.2973C941.996 36.7279 940.819 38.1635 939.65 39.5941C939.63 39.4193 939.616 39.2456 939.595 39.077C939.54 38.6299 939.251 38.2758 938.891 38.0809C938.769 37.4445 938.313 37.0428 937.819 36.971C937.87 36.6751 937.932 36.3813 937.983 36.0854C938.211 34.8617 936.718 34.0984 935.881 35.0085C934.507 36.5055 933.54 38.3578 933.046 40.3291C932.581 40.4907 932.182 40.8918 932.161 41.5228C932.111 43.0561 932.303 44.5611 932.721 46.0223C932.691 46.2011 932.713 46.4015 932.782 46.6164C933.339 48.2156 933.89 49.8518 933.971 51.5662C934.055 53.2683 933.514 54.5274 932.808 56.0245C932.279 57.1459 931.968 58.3807 932.397 59.5963C932.397 59.5963 932.396 59.6024 932.401 59.6096C932.435 59.7741 932.506 59.9449 932.634 60.1065C932.644 60.1209 932.654 60.1353 932.664 60.1497C932.94 60.5839 933.331 60.9618 933.787 61.1795C934.059 61.3465 934.362 61.4745 934.692 61.5501C935.113 61.6475 935.558 61.673 935.985 61.6255C936.17 61.6001 936.372 61.5141 936.567 61.4333C937.365 62.1408 938.076 62.84 939.311 62.4106C939.643 62.2961 939.977 62.1313 940.298 61.9386C940.488 61.8506 940.669 61.742 940.843 61.6005C940.966 61.501 941.071 61.3984 941.171 61.2886C941.664 60.8527 942.1 60.3499 942.419 59.8397C943.159 58.653 943.456 57.2445 944.077 55.9928C944.323 55.502 944.603 55.0359 944.904 54.5925C945.704 54.5518 946.46 54.0023 946.932 53.2139C947.005 53.1565 947.073 53.0857 947.137 53.0015C948.415 51.342 949.987 49.7837 952.041 49.2089C952.881 48.972 953.778 48.9161 954.635 49.0882C955.353 49.2365 955.895 49.5767 956.449 49.9508C956.658 50.1135 956.872 50.2517 957.089 50.3713C957.123 50.3898 957.151 50.4135 957.185 50.4321C957.778 50.8001 958.385 50.9739 958.992 51.0079C961.819 51.3841 964.926 49.619 967.539 48.2959C971.164 46.4608 975.645 43.7507 975.766 39.1393C975.782 38.533 975.436 38.1819 975.001 38.0629L974.998 38.0752Z" fill="#EFDBD8"/>
<path opacity="0.76" d="M959.172 33.7205C958.1 32.7946 956.082 33.4137 954.847 33.583C952.914 33.8549 950.981 34.1268 949.048 34.3987C948.888 34.422 948.749 34.468 948.625 34.5356C948.315 34.5207 947.999 34.6506 947.756 35.015C946.55 36.7692 943.218 40.9769 946.061 42.7961C947.311 43.6001 948.821 42.6594 949.924 42.017C951.416 41.1492 952.785 40.0829 954.178 39.0649C955.542 38.0674 956.917 37.11 958.436 36.3738C959.472 35.8721 960.291 34.6989 959.172 33.7205Z" fill="#EFDBD8"/>
<path opacity="0.76" d="M930.133 52.8165C929.892 51.6711 929.651 50.5258 929.404 49.3794C929.446 47.7433 929.476 46.1112 929.481 44.4751C929.486 42.8769 927.047 43.0369 927.043 44.6289C927.04 45.1232 927.036 45.6237 927.032 46.1181C926.968 46.1642 926.909 46.2175 926.855 46.2781C926.679 45.5563 925.898 45.3339 925.272 45.5629C924.592 45.0087 923.372 45.0219 923.273 46.1471C923.146 47.6546 923.328 49.0753 923.684 50.4624C923.476 50.5411 923.285 50.6734 923.148 50.853C923.142 50.8519 923.134 50.8632 923.127 50.8684C922.535 50.4942 921.944 50.1139 921.352 49.7397C920.536 49.2192 919.549 50.0591 919.582 50.9215C919.665 53.5372 921.026 55.661 922.969 56.8629C923.313 57.2963 923.708 57.6937 924.161 58.0378C925.167 58.8002 927.121 59.8706 928.428 59.2378C928.721 59.2055 929.006 59.1084 929.261 58.9362C929.521 58.765 929.698 58.5351 929.811 58.2753C930.153 57.8135 930.327 57.2341 930.311 56.6349C930.431 56.3319 930.515 56.0227 930.54 55.735C930.638 54.7557 930.333 53.7644 930.133 52.8165Z" fill="#EFDBD8"/>
<path opacity="0.76" d="M976.011 82.5249C975.171 83.2377 974.33 83.9504 973.479 84.6549C973.205 84.8682 972.93 85.0876 972.672 85.3164C971.052 86.6443 969.394 87.9342 967.663 89.1098C964.935 90.9589 961.653 92.142 959.203 94.3749C958.833 94.7113 958.492 95.1352 958.281 95.6003C958.194 95.706 958.111 95.8251 958.04 95.9462C957.257 96.802 956.727 97.8914 956.572 99.0895C956.181 99.873 955.916 100.729 955.875 101.591C955.734 104.6 958.888 105.114 960.986 103.881C961.791 103.409 962.582 102.879 963.359 102.32C963.745 102.145 964.122 101.949 964.483 101.738C964.7 101.674 964.916 101.578 965.125 101.455C965.235 101.391 965.347 101.321 965.454 101.245C967.912 100.098 970.01 97.8747 971.777 95.8739C972.002 95.6204 972.079 95.3163 972.06 95.0213C972.772 94.185 973.317 93.1932 973.679 92.0623C973.879 91.4429 973.621 91.0118 973.206 90.8076C973.609 90.0262 973.983 89.2273 974.322 88.416C974.523 87.9364 974.458 87.5128 974.243 87.1969C974.729 86.7662 975.248 86.3601 975.81 85.9994C976.035 85.8539 976.184 85.6763 976.266 85.4874C976.631 85.1818 976.989 84.8752 977.354 84.5696C978.546 83.5553 977.213 81.4871 976.001 82.5105L976.011 82.5249Z" fill="#E5ACA3"/>
<path opacity="0.76" d="M997.898 96.3187C996.978 94.5051 995.107 93.5376 993.227 93.0635C989.046 92.0178 984.393 92.4522 980.297 93.7181C976.854 94.7785 973.648 96.5394 970.889 98.8652C970.712 98.9492 970.545 99.0856 970.405 99.2837C970.234 99.4386 970.065 99.5873 969.895 99.7421C967.328 101.568 964.761 103.387 962.198 105.22C959.828 106.915 957.38 108.774 955.922 111.379C954.671 113.615 954.025 117.279 956.41 119.001C957.328 119.66 958.331 119.711 959.208 119.366C960.8 119.41 962.625 118.453 963.926 117.642C966.215 116.206 968.314 114.453 970.176 112.481C970.613 112.409 971.015 112.104 971.147 111.549C971.158 111.488 971.17 111.42 971.192 111.36C971.239 111.305 971.293 111.244 971.34 111.189C971.86 111.252 972.426 110.975 972.667 110.261C973.036 109.163 974.135 108.399 975.017 107.738C975.999 106.999 977.031 106.338 978.1 105.747C980.203 104.59 982.507 103.76 984.843 103.253C987.126 102.761 989.472 102.63 991.794 102.786C993.703 102.91 995.866 103.046 997.336 101.54C998.705 100.143 998.744 97.9863 997.893 96.3115L997.898 96.3187ZM992.802 99.7421C992.374 99.6878 991.947 99.6275 991.52 99.5671C991.454 99.5556 991.393 99.5452 991.326 99.5338C991.818 99.5799 992.312 99.6518 992.802 99.7421Z" fill="#E5ACA3"/>
<path opacity="0.76" d="M998.202 112.037C997.572 110.35 996.352 108.941 994.974 107.83C993.536 106.67 991.819 105.57 990.04 105.05C987.993 104.452 985.904 105.091 983.936 105.712C979.691 107.047 975.57 109.077 972.583 112.512C972.443 112.672 972.359 112.836 972.313 112.999C970.081 115.929 967.828 118.868 965.432 121.663C964.332 122.946 963.16 124.097 961.696 124.951C960.384 125.716 958.959 126.379 958.227 127.809C957.776 128.69 957.676 129.529 957.843 130.269C957.843 130.598 957.893 130.93 957.987 131.257C959.16 135.348 964.547 134.532 967.228 132.668C967.723 132.328 968.171 131.941 968.583 131.536C972.09 129.446 974.743 125.953 975.649 121.863C976.179 121.32 976.722 120.778 977.273 120.257C978.172 119.751 979.011 119.12 979.935 118.65C982.856 117.164 986.045 116.27 989.281 115.98C990.413 116.155 991.529 116.422 992.624 116.742C994.237 117.209 996.355 118.447 997.777 116.889C998.931 115.62 998.756 113.509 998.204 112.025L998.202 112.037ZM979.298 110.4C979.298 110.4 979.242 110.359 979.213 110.348C979.357 110.271 979.497 110.187 979.64 110.116C979.524 110.211 979.408 110.305 979.297 110.406L979.298 110.4ZM988.613 113.423C988.711 113.395 988.805 113.36 988.903 113.333C988.915 113.373 988.926 113.419 988.938 113.459C988.829 113.44 988.717 113.434 988.612 113.429L988.613 113.423Z" fill="#E5ACA3"/>
<path opacity="0.76" d="M990.317 123.171C986.719 120.797 982.041 119.591 978.499 122.766C978.189 123.043 978.117 123.392 978.185 123.721C977.621 124.646 977.205 125.654 976.958 126.696C976.804 126.898 976.725 127.177 976.785 127.523C976.788 127.543 976.791 127.562 976.792 127.588C976.782 127.65 976.772 127.705 976.762 127.767C975.78 129.82 974.566 131.763 973.251 133.606C972.272 134.981 971.237 136.32 970.187 137.638C969.184 138.9 967.972 140.139 967.253 141.602C965.96 144.23 967.396 147.192 970.298 147.612C971.535 147.792 972.626 147.51 973.59 146.951C974.604 146.903 975.662 146.31 976.386 145.653C976.866 145.221 977.305 144.738 977.724 144.226C980.096 142.373 981.279 139.073 981.976 136.096C982.388 134.713 982.681 133.292 982.847 131.848C983.063 132.995 983.266 134.147 983.592 135.269C984.239 137.511 985.618 140.552 988.4 139.88C989.964 139.5 991.581 138.851 992.745 137.743C994.617 136.331 995.99 134.003 996.115 131.854C996.342 127.971 993.243 125.093 990.313 123.158L990.317 123.171ZM986.365 123.96C986.064 123.788 985.753 123.633 985.432 123.502C985.747 123.594 986.066 123.7 986.382 123.824C986.375 123.867 986.367 123.916 986.365 123.96ZM991.823 134.228C991.829 134.045 991.828 133.868 991.828 133.684C991.852 133.726 991.883 133.763 991.909 133.799C991.914 133.806 991.924 133.82 991.929 133.828C991.905 133.963 991.864 134.096 991.823 134.228Z" fill="#E5ACA3"/>
<path opacity="0.76" d="M1002.3 84.534C1000.31 83.1603 997.855 82.8978 995.507 82.8576C992.449 82.8036 989.417 83.2174 986.458 83.9735C985.726 84.1592 985.53 84.792 985.682 85.3637C984.397 86.0828 983.206 86.983 982.036 88.0199C980.838 88.6271 979.679 89.3044 978.559 90.0454C977.418 90.8018 978.314 92.7572 979.626 92.2457C982.008 91.321 984.421 90.4333 986.892 89.7904C989.131 89.5581 991.399 89.737 993.603 90.368C994.698 90.6824 995.889 91.3876 997.085 91.5542C998.933 92.5114 1001.55 92.5604 1002.97 91.1395C1003.39 90.8957 1003.77 90.5737 1004.07 90.1354C1005.42 88.1327 1004 85.7262 1002.3 84.5463L1002.3 84.534Z" fill="#E5ACA3"/>
<path opacity="0.76" d="M1006.28 75.2748C1003.6 74.2133 1000.54 74.255 997.762 74.9272C994.816 75.0255 991.955 75.6082 989.304 77.0072C987.965 77.7108 989.144 79.4735 990.37 79.2075C990.525 79.177 990.675 79.1454 990.83 79.1149C990.908 79.6803 991.325 80.1641 992.055 80.0606C992.151 80.0453 992.246 80.0363 992.342 80.021C992.535 80.1365 992.777 80.1842 993.074 80.1272C994.687 79.8259 996.308 79.7734 997.915 80.0929C999.455 80.401 1000.84 81.0757 1002.29 81.6724C1004.44 82.5551 1007.88 83.658 1009.16 80.87C1010.29 78.424 1008.45 76.1287 1006.28 75.2686L1006.28 75.2748Z" fill="#E5ACA3"/>
<path opacity="0.76" d="M998.66 125.122C997.839 123.351 996.651 121.968 995.027 120.909C994.471 120.547 993.66 120.904 993.384 121.459C993.06 122.108 993.361 122.762 993.917 123.124C994.956 123.803 995.823 124.802 996.347 125.932C996.625 126.538 997.218 126.938 997.897 126.699C998.468 126.498 998.943 125.729 998.66 125.122Z" fill="#E5ACA3"/>
<path opacity="0.76" d="M1000.35 120.381C1000.2 120.045 1000.05 119.778 999.779 119.528C999.503 119.278 999.224 119.161 998.881 119.045C998.713 119.003 998.556 119.008 998.392 119.056C998.233 119.073 998.079 119.13 997.949 119.234C997.702 119.401 997.48 119.712 997.429 120.008C997.374 120.329 997.414 120.684 997.605 120.952C997.672 121.033 997.741 121.108 997.808 121.19C997.906 121.276 998.013 121.345 998.124 121.39C998.167 121.467 998.218 121.533 998.276 121.594C998.372 121.724 998.487 121.82 998.638 121.89C998.907 122.031 999.294 122.072 999.582 121.957C999.87 121.841 1000.14 121.64 1000.28 121.34C1000.41 121.052 1000.48 120.677 1000.35 120.381Z" fill="#E5ACA3"/>
<path opacity="0.76" d="M998.859 105.603C998.506 105.149 998.068 104.751 997.528 104.55C997.21 104.433 996.921 104.37 996.583 104.484C996.304 104.582 996.013 104.824 995.884 105.1C995.753 105.395 995.699 105.747 995.814 106.059C995.922 106.338 996.124 106.658 996.418 106.765C996.524 106.802 996.622 106.851 996.718 106.905C996.801 106.97 996.876 107.04 996.944 107.122C997.118 107.31 997.318 107.452 997.583 107.51C997.878 107.574 998.264 107.513 998.514 107.327C998.764 107.141 998.979 106.874 999.034 106.553C999.088 106.239 999.058 105.866 998.858 105.609L998.859 105.603Z" fill="#E5ACA3"/>
<path opacity="0.76" d="M999.763 93.8614C998.197 93.9613 998.33 96.4333 999.902 96.3344C1001.47 96.2345 1001.34 93.7625 999.763 93.8614Z" fill="#E5ACA3"/>
<path opacity="0.76" d="M961.661 122.042C961.42 121.411 960.768 121.058 960.112 121.276C959.695 121.414 959.284 121.553 958.868 121.684C958.259 121.885 957.867 122.643 958.104 123.261C958.346 123.892 958.998 124.245 959.654 124.027L960.898 123.618C961.507 123.418 961.899 122.66 961.661 122.042Z" fill="#E5ACA3"/>
<path opacity="0.76" d="M961.409 90.6395C961.194 90.0698 960.479 89.5731 959.86 89.8731C959.357 90.1106 958.853 90.3543 958.35 90.5918C957.772 90.8672 957.327 91.4954 957.586 92.168C957.801 92.7378 958.516 93.2344 959.136 92.9345C959.638 92.6969 960.142 92.4533 960.645 92.2157C961.224 91.9403 961.668 91.3122 961.409 90.6395Z" fill="#E5ACA3"/>
<path opacity="0.76" d="M1012.21 73.9551C1011.87 73.6236 1011.41 73.3925 1010.95 73.3002C1010.63 73.24 1010.28 73.301 1010.02 73.4835C1009.77 73.6505 1009.55 73.9615 1009.5 74.2574C1009.44 74.578 1009.48 74.9337 1009.67 75.2012C1009.86 75.4616 1010.12 75.6645 1010.43 75.7247C1010.46 75.7289 1010.48 75.733 1010.5 75.7434C1010.5 75.7434 1010.52 75.7454 1010.52 75.7465C1010.54 75.763 1010.57 75.7867 1010.59 75.8031C1011.06 76.2449 1011.9 76.2053 1012.32 75.6922C1012.75 75.1565 1012.72 74.4155 1012.22 73.9428L1012.21 73.9551Z" fill="#E5ACA3"/>
<path opacity="0.76" d="M933.186 50.8594C933.074 50.0535 932.961 49.2537 932.849 48.4477C932.756 47.7847 932.262 47.2431 931.561 47.2881C930.942 47.3281 930.319 47.9384 930.411 48.6015C930.523 49.4075 930.636 50.2073 930.748 51.0132C930.841 51.6763 931.335 52.2178 932.036 52.1729C932.655 52.1329 933.278 51.5225 933.186 50.8594Z" fill="#EFDBD8"/>
<path opacity="0.76" d="M976.098 43.0743C973.53 45.2299 971.573 48.4103 968.604 50.0277C968.503 50.0737 968.396 50.1126 968.294 50.1587C968.187 50.2037 968.089 50.2631 968.004 50.3246C967.896 50.3697 967.793 50.4219 967.686 50.4669C966.183 51.0726 966.963 53.1223 968.465 52.8085C971.439 52.1881 974.079 50.6667 976.205 48.4671C976.547 48.1132 976.608 47.7176 976.499 47.369C977.136 46.4945 977.643 45.5026 977.964 44.3583C978.246 43.366 976.914 42.3893 976.098 43.0743Z" fill="#EFDBD8"/>
<path opacity="0.76" d="M963.824 51.6036C962.258 51.7035 962.391 54.1755 963.963 54.0766C965.529 53.9767 965.397 51.5047 963.824 51.6036Z" fill="#EFDBD8"/>
<path opacity="0.76" d="M943.462 44.7736C942.981 44.374 942.157 44.3344 941.738 44.8845C941.231 45.5465 940.767 46.2476 940.36 46.9838C940.044 47.5515 940.309 48.3773 940.893 48.6487C941.513 48.9325 942.201 48.7076 942.537 48.0988C942.9 47.4376 943.136 47.0783 943.562 46.523C943.956 46.013 943.999 45.2145 943.462 44.7736Z" fill="#EFDBD8"/>
<path opacity="0.76" d="M959.514 52.7375C957.908 51.9041 956.187 51.3747 954.397 51.1762C952.845 51.0058 952.323 53.4355 953.882 53.6007C955.483 53.7732 956.97 54.2056 958.405 54.9461C959.806 55.6681 960.915 53.4595 959.515 52.7313L959.514 52.7375Z" fill="#EFDBD8"/>
<path opacity="0.76" d="M981.985 61.3779C979.05 63.6357 975.763 65.2113 972.185 66.0773C970.661 66.4445 971.447 68.7872 972.965 68.4189C976.726 67.5081 980.252 65.8085 983.332 63.4359C984.577 62.4752 983.239 60.4059 981.979 61.3769L981.985 61.3779Z" fill="#EFDBD8"/>
</g>
<path d="M941.141 87.1926C941.141 87.1926 919.24 84.8523 920.511 63.9275C921.781 43.0028 948.71 30.3852 963.937 35.8726C984.583 43.3154 980.022 60.9104 973.116 90.3819C973.116 90.3819 971.289 101.415 971.511 105.374C971.511 105.374 975.46 84.2793 1004.71 73.7472C1033.96 63.214 1020.49 72.4627 1015.8 79.4962C1006.21 93.8702 1005.44 108.44 1006.41 125.745C1007.38 143.05 1007.81 168.086 973.999 175.686C934.65 184.521 898.103 139.54 941.141 87.1926Z" stroke="#543816" stroke-width="1.73532" stroke-linecap="round" stroke-linejoin="round"/>
<path d="M964.904 68.6574C968.86 68.2813 973.379 72.4684 972.727 77.0017C972.223 80.4941 968.833 82.9658 965.506 83.1323C963.18 83.2545 960.293 82.2779 959.033 79.9683C956.851 75.9653 960.193 69.1009 964.899 68.6502L964.904 68.6574Z" fill="#E58989"/>
<path d="M957.102 62.0479C956.332 64.1051 956.166 68.0996 956.552 70.6656C956.742 71.9609 959.256 74.574 961.631 72.011C964.006 69.4481 963.469 62.3319 961.8 60.5868C960.474 59.2113 957.987 59.6867 957.108 62.0489L957.102 62.0479Z" fill="#C44141" stroke="#C44141" stroke-width="2.37432" stroke-miterlimit="10"/>
<path d="M923.907 59.818C923.313 59.2023 922.486 58.9593 921.67 59.0924C921.253 60.2838 920.846 61.4958 920.555 62.7214C920.658 65.9498 921.112 69.2826 921.763 72.1224C921.777 72.1882 921.786 72.2468 921.799 72.3126C922.421 72.2542 923.086 71.9491 923.738 71.2422C926.113 68.6792 925.576 61.5631 923.907 59.818Z" fill="#C44141" stroke="#C44141" stroke-width="2.37432" stroke-miterlimit="10"/>
<path d="M971.52 105.367C971.52 105.367 970.347 121.448 982.748 128.85" stroke="#543816" stroke-width="2.76899" stroke-linecap="round" stroke-linejoin="round"/>
<path d="M940.922 87.1602C940.922 87.1602 946.73 88.7063 959.196 84.1968" stroke="#543816" stroke-width="2.76899" stroke-linecap="round" stroke-linejoin="round"/>
<mask id="mask1_846_3856" style="mask-type:luminance" maskUnits="userSpaceOnUse" x="922" y="87" width="85" height="90">
<path d="M929.642 104.587L941.14 87.1959C945.276 87.4851 953.786 85.8646 951.946 105.372C950.901 116.475 951.375 137.248 965.573 147.686C975.522 154.998 999.998 153.572 1006.16 129.177C1006.16 129.177 1008.86 146.713 999.796 160.41C995.96 166.213 988.365 170.477 980.249 173.802C963.594 180.634 934.833 175.381 925.735 153.03C915.55 128.012 929.643 104.581 929.643 104.581L929.642 104.587Z" fill="white"/>
</mask>
<g mask="url(#mask1_846_3856)">
<path d="M947.894 94.1891C945.938 94.7806 943.945 95.1439 941.905 95.2388C940.294 95.3119 938.478 95.3373 937.172 94.2445C935.964 93.232 934.335 95.0851 935.548 96.1048C937.143 97.4438 939.114 97.7496 941.127 97.7389C943.685 97.7261 946.228 97.2796 948.673 96.5369C950.182 96.0782 949.402 93.7366 947.893 94.1953L947.894 94.1891Z" fill="#DBD8D1"/>
<path d="M947.72 100.756C943.545 101.977 937.642 102.851 934.114 99.6267C932.948 98.5577 931.324 100.418 932.49 101.487C936.72 105.352 943.442 104.58 948.499 103.104C950.011 102.665 949.226 100.316 947.719 100.763L947.72 100.756Z" fill="#DBD8D1"/>
<path d="M945.381 108.754C940.635 110.429 935.308 109.251 931.682 105.762C930.545 104.666 928.921 106.527 930.058 107.622C934.3 111.705 940.629 113.055 946.166 111.103C947.649 110.577 946.876 108.236 945.386 108.762L945.381 108.754Z" fill="#DBD8D1"/>
<path d="M944.073 116.729C941.234 118.242 937.682 118.224 934.559 118.184C931.73 118.144 928.655 117.497 927.108 114.859C926.305 113.491 924.275 114.875 925.072 116.243C926.903 119.374 930.439 120.467 933.841 120.631C937.701 120.816 941.934 120.646 945.419 118.787C946.809 118.041 945.454 115.995 944.067 116.728L944.073 116.729Z" fill="#DBD8D1"/>
<path d="M946.495 126.266C943.318 128.292 939.502 128.47 935.858 128.557C932.302 128.64 927.931 128.735 925.405 125.72C924.405 124.521 922.353 125.889 923.369 127.104C926.336 130.645 930.796 131.123 935.131 131.053C939.503 130.983 944.021 130.754 947.841 128.33C949.173 127.479 947.826 125.421 946.488 126.271L946.495 126.266Z" fill="#DBD8D1"/>
<path d="M948.259 134.28C945.35 137.697 940.974 139.213 936.659 139.642C931.829 140.122 926.502 139.534 922.316 136.908C920.979 136.07 919.881 138.286 921.206 139.122C925.848 142.036 931.915 142.688 937.262 142.068C942.055 141.511 946.847 139.717 950.077 135.924C951.109 134.711 949.284 133.072 948.252 134.285L948.259 134.28Z" fill="#DBD8D1"/>
</g>
<path d="M941.141 87.1926C941.141 87.1926 919.24 84.8523 920.511 63.9275C921.781 43.0028 948.71 30.3852 963.937 35.8726C984.583 43.3154 980.022 60.9104 973.116 90.3819C973.116 90.3819 971.289 101.415 971.511 105.374C971.511 105.374 975.46 84.2793 1004.71 73.7472C1033.96 63.214 1020.49 72.4627 1015.8 79.4962C1006.21 93.8702 1005.44 108.44 1006.41 125.745C1007.38 143.05 1007.81 168.086 973.999 175.686C934.65 184.521 898.103 139.54 941.141 87.1926Z" stroke="#543816" stroke-width="2.76899" stroke-linecap="round" stroke-linejoin="round"/>
<mask id="mask2_846_3856" style="mask-type:luminance" maskUnits="userSpaceOnUse" x="919" y="82" width="22" height="24">
<path d="M927.286 84.3399C927.286 84.3399 935.179 81.1097 940.877 82.4912L929.569 105.416L919.193 103.589C919.193 103.589 923.796 87.5431 927.285 84.346L927.286 84.3399Z" fill="white"/>
</mask>
<g mask="url(#mask2_846_3856)">
<path d="M941.675 77.1066C941.675 77.1066 936.965 77.0301 931.707 83.0082C926.448 88.9862 923.046 98.1311 921.966 100.681L925.737 98.211L926.22 102.399C926.22 102.399 928.542 87.1175 941.675 77.1066Z" fill="#F49D9D" stroke="#543816" stroke-width="2.12999" stroke-linecap="round" stroke-linejoin="round"/>
</g>
</g>
<defs>
<clipPath id="clip0_846_3856">
<rect width="1440" height="133" fill="white"/>
</clipPath>
</defs>
</svg>
