<svg width="54" height="54" viewBox="0 0 54 54" fill="none" xmlns="http://www.w3.org/2000/svg">
<path d="M46.8276 16.3636C46.8276 14.9242 46.3247 13.7008 45.319 12.6932C44.3132 11.6856 43.092 11.1818 41.6552 11.1818V11.1818C40.703 11.1818 39.931 11.9537 39.931 12.906V19.8213C39.931 20.7735 40.703 21.5455 41.6552 21.5455V21.5455C43.092 21.5455 44.3132 21.0417 45.319 20.0341C46.3247 19.0265 46.8276 17.803 46.8276 16.3636ZM2.26871 39.0662C1.96272 38.0049 2.89543 37.0909 4 37.0909H48.2759C49.3804 37.0909 50.3131 38.0049 50.0071 39.0662C49.6951 40.1487 49.1111 41.1185 48.2554 41.9759C46.9084 43.3253 45.283 44 43.3793 44H8.89655C6.99282 44 5.36746 43.3253 4.02047 41.9759C3.16472 41.1185 2.5808 40.1487 2.26871 39.0662ZM52 16.3636C52 19.2244 50.9898 21.6669 48.9693 23.6911C46.9488 25.7152 44.5108 26.7273 41.6552 26.7273H40.7947C40.3177 26.7273 39.931 27.1139 39.931 27.5909V27.5909C39.931 29.2462 39.3384 30.6676 38.153 31.8551C36.9677 33.0426 35.5488 33.6364 33.8966 33.6364H14.931C13.2787 33.6364 11.8599 33.0426 10.6746 31.8551C9.48922 30.6676 8.89655 29.2462 8.89655 27.5909V7.72727C8.89655 7.25947 9.06717 6.85464 9.4084 6.51278C9.74964 6.17093 10.1537 6 10.6207 6H41.6552C44.5108 6 46.9488 7.01207 48.9693 9.03622C50.9898 11.0604 52 13.5028 52 16.3636Z" fill="#A3907A"/>
</svg>
