<svg width="58" height="62" viewBox="0 0 58 62" fill="none" xmlns="http://www.w3.org/2000/svg">
<g filter="url(#filter0_dddd_47_2105)">
<ellipse cx="20.8434" cy="20.8355" rx="18.8434" ry="18.8355" fill="white"/>
</g>
<path d="M20.4034 14.9265L20.8434 15.7412L21.2834 14.9265C22.1794 13.267 23.9444 12.1367 25.9788 12.1367C28.9209 12.1367 31.2989 14.4997 31.2989 17.4045C31.2989 21.0748 28.7114 24.2544 25.9969 26.5662C24.6525 27.7112 23.3055 28.6188 22.2935 29.2404C21.788 29.5508 21.3675 29.7892 21.0744 29.9493C20.9851 29.9981 20.9077 30.0396 20.8434 30.0736C20.7791 30.0396 20.7017 29.9981 20.6124 29.9493C20.3193 29.7892 19.8988 29.5508 19.3933 29.2404C18.3813 28.6188 17.0343 27.7112 15.6899 26.5662C12.9754 24.2544 10.3879 21.0748 10.3879 17.4045C10.3879 14.4997 12.7658 12.1367 15.708 12.1367C17.7424 12.1367 19.5074 13.267 20.4034 14.9265Z" stroke="#E07D77"/>
<defs>
<filter id="filter0_dddd_47_2105" x="0" y="0" width="57.6868" height="61.6709" filterUnits="userSpaceOnUse" color-interpolation-filters="sRGB">
<feFlood flood-opacity="0" result="BackgroundImageFix"/>
<feColorMatrix in="SourceAlpha" type="matrix" values="0 0 0 0 0 0 0 0 0 0 0 0 0 0 0 0 0 0 127 0" result="hardAlpha"/>
<feOffset dx="1" dy="1"/>
<feGaussianBlur stdDeviation="1.5"/>
<feColorMatrix type="matrix" values="0 0 0 0 0 0 0 0 0 0 0 0 0 0 0 0 0 0 0.2 0"/>
<feBlend mode="normal" in2="BackgroundImageFix" result="effect1_dropShadow_47_2105"/>
<feColorMatrix in="SourceAlpha" type="matrix" values="0 0 0 0 0 0 0 0 0 0 0 0 0 0 0 0 0 0 127 0" result="hardAlpha"/>
<feOffset dx="3" dy="4"/>
<feGaussianBlur stdDeviation="2.5"/>
<feColorMatrix type="matrix" values="0 0 0 0 0 0 0 0 0 0 0 0 0 0 0 0 0 0 0.17 0"/>
<feBlend mode="normal" in2="effect1_dropShadow_47_2105" result="effect2_dropShadow_47_2105"/>
<feColorMatrix in="SourceAlpha" type="matrix" values="0 0 0 0 0 0 0 0 0 0 0 0 0 0 0 0 0 0 127 0" result="hardAlpha"/>
<feOffset dx="6" dy="8"/>
<feGaussianBlur stdDeviation="3"/>
<feColorMatrix type="matrix" values="0 0 0 0 0 0 0 0 0 0 0 0 0 0 0 0 0 0 0.1 0"/>
<feBlend mode="normal" in2="effect2_dropShadow_47_2105" result="effect3_dropShadow_47_2105"/>
<feColorMatrix in="SourceAlpha" type="matrix" values="0 0 0 0 0 0 0 0 0 0 0 0 0 0 0 0 0 0 127 0" result="hardAlpha"/>
<feOffset dx="11" dy="15"/>
<feGaussianBlur stdDeviation="3.5"/>
<feColorMatrix type="matrix" values="0 0 0 0 0 0 0 0 0 0 0 0 0 0 0 0 0 0 0.03 0"/>
<feBlend mode="normal" in2="effect3_dropShadow_47_2105" result="effect4_dropShadow_47_2105"/>
<feBlend mode="normal" in="SourceGraphic" in2="effect4_dropShadow_47_2105" result="shape"/>
</filter>
</defs>
</svg>
