<svg width="40" height="40" viewBox="0 0 40 40" fill="none" xmlns="http://www.w3.org/2000/svg">
<g clip-path="url(#clip0_98_2250)">
<path d="M31.7098 0H8.29016C3.71163 0 0 3.71163 0 8.29016V31.7098C0 36.2884 3.71163 40 8.29016 40H31.7098C36.2884 40 40 36.2884 40 31.7098V8.29016C40 3.71163 36.2884 0 31.7098 0Z" fill="#1778F2"/>
<path d="M21.5944 31.289V20.5833H25.188L25.7268 16.4111H21.5944V13.7473C21.5944 12.5394 21.9299 11.7162 23.6622 11.7162H25.8715V7.98563C24.8021 7.87249 23.7274 7.81769 22.652 7.82147C19.4665 7.82147 17.2858 9.76573 17.2858 13.3365V16.4111H13.6831V20.5833H17.2858V31.289H21.5944Z" fill="#FDFDFD"/>
</g>
<defs>
<clipPath id="clip0_98_2250">
<rect width="40" height="40" fill="white"/>
</clipPath>
</defs>
</svg>
