<svg width="155" height="165" viewBox="0 0 155 165" fill="none" xmlns="http://www.w3.org/2000/svg">
<g clip-path="url(#clip0_800_5974)">
<path d="M145.94 140.42C145.04 139.12 139.11 139.89 129.83 137.43C120.55 134.97 113.29 123.45 102.68 109.58C93.64 97.7499 86.36 96.7999 84.42 96.7799C84.59 95.4799 84.74 94.1099 84.87 92.6599C85.87 81.5299 79.61 58.1899 78.2 52.8999C78.03 52.2499 77.98 51.5699 78.06 50.8999C80.75 29.6599 67.99 6.57988 55.64 7.99988C51.03 8.52988 47.78 10.7899 40.53 11.1499C34.24 11.4599 31.56 7.90988 25.09 9.02988C17.69 10.2999 9.82003 24.6399 8.47003 31.2299C6.91003 38.8399 8.23002 52.6999 25.33 56.7699C21.98 60.7199 17.41 67.8999 12.17 80.9699C6.55003 94.9699 7.58003 105.96 9.23003 107.77C10.88 109.58 12.02 109.1 14.31 108.36C16.6 107.62 16.39 108.55 17.32 108.76C17.69 108.84 18.3 108.71 18.91 108.51C19.11 109.23 19.33 109.9 19.56 110.51C23.03 119.46 30.35 122.84 30.35 122.84C30.35 122.84 31.31 138.44 30.73 142.41C30.15 146.38 28.46 147.01 26.98 147.65C25.78 148.17 23.83 149.8 24.09 151.99C24.43 154.84 27.44 154.78 27.88 154.78C28.32 154.78 30.73 154.29 32.07 155.36C33.41 156.43 36.47 155.28 37.34 155.04C38.22 154.8 38.67 155.67 40.87 155.63C43.07 155.59 44.16 155.35 45.25 154.89C46.34 154.43 47.97 153.19 47.97 153.19C48.34 154.01 49.37 154.88 51.75 155.26C53.85 155.6 53.84 154.94 56.03 154.9C58.04 154.86 57.59 156 61.22 156.01C62.66 156.01 63.72 155.28 65.05 155.17C65.66 155.12 67.72 156.66 71 155.94C77.37 154.54 78.5 152.03 78.83 151.17C79 150.72 78.73 146.36 78.34 141.13C93.68 159.08 125.61 152.42 135.75 148.97C146.02 145.47 146.83 141.72 145.92 140.42H145.94Z" stroke="white" stroke-width="15.86" stroke-linecap="round" stroke-linejoin="round"/>
<path d="M83.91 96.7935C83.91 96.7935 92.09 95.7035 102.69 109.584C113.29 123.454 120.55 134.974 129.84 137.434C139.12 139.894 145.05 139.124 145.95 140.424C146.85 141.724 146.05 145.484 135.78 148.974C125.51 152.474 92.87 159.254 77.77 140.414L75.17 119.794L83.91 96.8035V96.7935Z" fill="#F2E9EA" stroke="#543816" stroke-width="2.86" stroke-linecap="round" stroke-linejoin="round"/>
<path d="M31.22 52.01C31.22 52.01 23.18 53.55 12.18 80.96C6.55997 94.96 7.58997 105.95 9.23997 107.76C10.89 109.57 12.03 109.09 14.32 108.35C16.61 107.61 16.4 108.54 17.32 108.75C18.24 108.96 20.76 107.76 20.76 107.76C20.76 107.76 23.74 71.04 31.22 52V52.01Z" fill="#F2E9EA" stroke="#543816" stroke-width="3" stroke-linecap="round" stroke-linejoin="round"/>
<path d="M47.99 153.18C48.36 154 49.39 154.87 51.77 155.25C53.87 155.59 53.86 154.93 56.05 154.89C58.06 154.85 57.61 155.99 61.24 156C62.68 156 63.74 155.27 65.07 155.16C65.68 155.11 67.74 156.65 71.02 155.93C77.39 154.53 78.52 152.02 78.85 151.16C79.27 150.05 77.04 125.68 76.97 122.17C76.9 118.65 83.04 113.07 84.87 92.6599C85.87 81.5299 79.61 58.1899 78.2 52.8999C78.03 52.2499 77.98 51.5699 78.06 50.8999C80.75 29.6599 67.99 6.57988 55.64 7.99988C51.03 8.52988 47.78 10.7899 40.53 11.1499C34.24 11.4599 31.25 8.68988 24.78 9.79988C17.38 11.0699 9.82998 24.6299 8.47998 31.2299C6.83998 39.2499 8.36998 54.2099 28.23 57.3499C28.23 57.3499 26.31 59.3799 25.86 60.0299C18.94 77.5399 15.38 92.6699 19.32 108.98C21.58 118.31 30.36 122.84 30.36 122.84C30.36 122.84 31.32 138.44 30.74 142.41C30.16 146.38 28.47 147.01 26.99 147.65C25.79 148.17 23.84 149.8 24.1 151.99C24.44 154.84 27.45 154.78 27.89 154.78C28.33 154.78 30.74 154.29 32.08 155.36C33.42 156.43 36.48 155.28 37.35 155.04C38.22 154.8 38.68 155.67 40.88 155.63C43.08 155.59 44.17 155.35 45.26 154.89C46.35 154.43 47.98 153.19 47.98 153.19L47.99 153.18Z" fill="#F2E9EA"/>
<path d="M7.96001 36.63C7.96001 36.63 15.57 39.55 19.07 38.82C22.57 38.09 28.61 31.6 41.88 35.74C55.16 39.88 62.58 30.9 66.65 34.25C70.73 37.6 65.08 52.89 68.08 60.09C71.08 67.29 86.84 119.97 55.49 125.75C55.49 125.75 28.42 133.43 19.2 109.08C9.98001 84.74 27.33 57.13 27.33 57.13C27.33 57.13 8.38001 55.08 7.95001 36.62L7.96001 36.63Z" fill="#FFF8F9"/>
<path d="M28.22 57.3409C28.22 57.3409 31.76 58.5909 46.25 57.2109" stroke="#543816" stroke-width="2.86" stroke-linecap="round" stroke-linejoin="round"/>
<path d="M14.1 49.1537C14.1 49.1537 19.12 47.9637 17.32 39.3037C16.59 35.8037 13.04 33.3137 9.52 33.7337C9.52 33.7337 8.27 43.1037 14.1 49.1537Z" fill="#EFBEB1"/>
<path d="M20.94 21.8626C22.69 22.1726 22.7 25.1026 22.61 28.6526C22.48 33.4926 20.53 34.8526 19.65 35.0826C17.87 35.5626 16.53 33.1626 16.66 28.3226C16.78 23.9226 18.73 21.4626 20.93 21.8626H20.94Z" fill="#543816" stroke="#543816" stroke-width="2.42" stroke-miterlimit="10"/>
<path d="M52.43 23.8938C51.7 26.0138 51.67 30.0938 52.16 32.6938C52.41 34.0038 55.09 36.5938 57.46 33.9138C59.83 31.2338 59.03 23.9838 57.24 22.2638C55.82 20.9038 53.27 21.4638 52.43 23.8938Z" fill="#543816" stroke="#543816" stroke-width="2.42" stroke-miterlimit="10"/>
<path d="M78.07 50.8984C78.07 50.8984 78.42 71.5584 78.38 80.5784C78.33 89.5984 76.2 104.588 70.8 109.758C65.4 114.918 64.87 110.308 63.99 110.108C63.11 109.908 60.08 112.818 58.52 111.528C56.96 110.238 58.05 109.998 56.07 109.818C54.09 109.638 50.8 110.138 52.89 104.378C54.98 98.6184 61.3 72.5484 62.02 64.6184" fill="#F2E9EA"/>
<path d="M78.07 50.8984C78.07 50.8984 78.42 71.5584 78.38 80.5784C78.33 89.5984 76.2 104.588 70.8 109.758C65.4 114.918 64.87 110.308 63.99 110.108C63.11 109.908 60.08 112.818 58.52 111.528C56.96 110.238 58.05 109.998 56.07 109.818C54.09 109.638 50.8 110.138 52.89 104.378C54.98 98.6184 61.3 72.5484 62.02 64.6184" stroke="#543816" stroke-width="2.86" stroke-linecap="round" stroke-linejoin="round"/>
<path d="M67.75 45.9781C67.75 45.9781 64.84 58.9881 61.82 66.8281L69.73 59.7281L68.34 44.5781L67.75 45.9681V45.9781Z" fill="#F2E9EA"/>
<path d="M78.07 50.8984C78.07 50.8984 78.42 71.5584 78.38 80.5784C78.33 89.5984 76.2 104.588 70.8 109.758C65.4 114.918 64.87 110.308 63.99 110.108C63.11 109.908 60.08 112.818 58.52 111.528C56.96 110.238 58.05 109.998 56.07 109.818C54.09 109.638 50.8 110.138 52.89 104.378C54.98 98.6184 61.3 72.5484 62.02 64.6184" stroke="#543816" stroke-width="2.86" stroke-linecap="round" stroke-linejoin="round"/>
<path d="M62.82 31.9411C67.07 31.4211 72.1 35.7311 71.56 40.5711C71.14 44.3011 67.57 47.0311 63.99 47.3111C61.49 47.5111 58.33 46.5711 56.89 44.1511C54.39 39.9611 57.75 32.5611 62.81 31.9411H62.82Z" fill="#EFBEB1"/>
<path d="M8.96997 39.68C8.96997 39.68 12.17 44.45 19.81 43.21C24.41 42.46 27.45 40.2 35.59 40.49C45.06 40.82 45.1 43.17 52.35 43.03C59.6 42.89 65.22 37.5 65.22 37.5" stroke="#543816" stroke-width="2.86" stroke-linecap="round" stroke-linejoin="round"/>
<path d="M30.36 122.844C30.36 122.844 41.92 129.224 59.87 124.914" stroke="#543816" stroke-width="2.86" stroke-linecap="round" stroke-linejoin="round"/>
<path d="M51.58 126.328C51.58 126.328 52.01 138.088 51.88 141.998C51.82 143.808 51.49 146.628 49.55 148.858C47.61 151.098 47.98 153.178 47.98 153.178" stroke="#543816" stroke-width="2.86" stroke-linecap="round" stroke-linejoin="round"/>
<g opacity="0.71">
<path d="M28.2 14.7934C27.86 13.8534 26.62 13.5334 25.39 13.4534C25.23 13.3434 25.02 13.2734 24.77 13.2734C24.22 13.2734 23.7 13.3534 23.2 13.5134C23.14 13.5134 23.09 13.5234 23.04 13.5334C22.74 13.5634 22.51 13.6834 22.34 13.8634C22.32 13.8634 22.3 13.8834 22.29 13.8934C21.65 14.1634 21.16 14.6634 21.13 15.5134C21.06 17.4034 23.76 17.2534 25.04 17.1534C26.2 17.0734 28.84 16.5534 28.2 14.8034V14.7934Z" fill="#423D34"/>
<path d="M37.27 15.131C36.46 14.831 35.64 14.551 34.81 14.301C34.1 14.081 33.32 13.781 32.57 13.931C31.25 14.211 30.2 15.591 30.11 16.881C30.07 17.531 30.78 18.061 31.4 17.951C31.51 17.991 31.64 18.021 31.78 18.021C33.78 18.071 35.77 18.131 37.58 17.141C38.49 16.641 38.1 15.441 37.28 15.141L37.27 15.131Z" fill="#423D34"/>
<path d="M42.3 12.4012C41.68 12.4812 41.06 12.5213 40.44 12.5413C39.98 12.5613 39.52 12.5813 39.06 12.5913C39.02 12.5913 38.97 12.5913 38.93 12.5913C38.88 12.6413 38.83 12.7013 38.79 12.7613C38.49 13.1713 38.69 13.7613 38.99 14.0913C39.85 15.0413 40.78 15.3512 41.85 15.1112C42.15 15.1112 42.45 15.0213 42.67 14.8313C42.67 14.8313 42.69 14.8312 42.7 14.8212C43.68 14.3812 45.2 13.5012 45.18 12.2312C45.18 12.1612 45.18 12.1013 45.16 12.0312C44.21 12.1912 43.26 12.3112 42.3 12.4012Z" fill="#423D34"/>
<path d="M27.43 10.1797C27.27 10.6097 27.42 11.0897 27.93 11.4097C28.88 12.0097 29.99 12.1897 31.08 11.9497C31.58 11.8397 31.86 11.3997 31.9 10.9497C30.46 10.5397 28.93 10.2897 27.43 10.1897V10.1797Z" fill="#423D34"/>
<path d="M55.72 13.5981C55.51 12.6981 54.43 12.2181 53.64 11.9581C52.66 11.6281 51.58 12.1381 50.67 12.4881C49.57 12.9081 48.48 13.4081 47.46 14.0081C46.78 14.4081 46.11 15.0181 46.4 15.8981C46.69 16.7681 47.77 16.9681 48.56 16.9181C49.72 16.8581 50.91 16.5481 52.05 16.3281C52.76 16.1881 53.41 15.9881 53.98 15.6181C54.14 15.6181 54.31 15.5581 54.48 15.4581C55.22 15.0081 55.97 14.6581 55.72 13.6081V13.5981Z" fill="#423D34"/>
<path d="M58.35 9.59006C58.24 9.56006 58.13 9.53006 58.02 9.49006C58.02 9.47006 58.02 9.46006 58.02 9.44006C56.67 9.36006 55.29 9.37006 54 9.70006C53.96 9.71006 53.92 9.72006 53.87 9.72006C53.77 9.77006 53.66 9.80006 53.54 9.81006C53.54 9.81006 53.54 9.81006 53.53 9.81006C53.56 10.1201 53.72 10.4101 54.03 10.5901C54.16 10.7101 54.32 10.8001 54.54 10.8501C55.18 10.9901 55.82 11.1501 56.46 11.3201L57.83 11.7101C59.2 12.1001 59.72 9.99006 58.37 9.58006L58.35 9.59006Z" fill="#423D34"/>
<path d="M66.06 14.2213C65.49 13.6513 64.88 13.1213 64.33 12.5413C64.29 12.5013 64.26 12.4513 64.22 12.4113C63.41 11.8413 62.55 11.3413 61.74 10.7812C60.74 11.1312 60.12 12.5513 60.5 13.5013C60.5 13.5213 60.52 13.5413 60.53 13.5613C60.51 13.6513 60.49 13.7413 60.5 13.8313C60.51 14.4713 61.03 14.8612 61.62 14.9113C62.25 14.9613 62.87 15.0113 63.5 15.0613C64.13 15.2813 64.83 15.3212 65.47 15.1512C65.94 15.0312 66.17 14.7213 66.23 14.3813C66.18 14.3313 66.13 14.2713 66.08 14.2213H66.06Z" fill="#423D34"/>
<path d="M60.48 15.3182C59.95 15.1982 59.42 15.1082 58.88 15.0382C58.8 15.0182 58.71 14.9982 58.62 14.9882C58.44 14.9782 58.27 14.9582 58.09 14.9482C57.5 14.8982 57 15.5182 57.01 16.0682C57.02 16.6182 57.42 16.9982 57.91 17.1082C57.95 17.1182 57.99 17.1382 58.04 17.1382C58.67 17.2382 59.3 17.3482 59.93 17.4482C60.52 17.5482 61.11 17.2682 61.27 16.6582C61.41 16.0882 61.06 15.4582 60.48 15.3182Z" fill="#423D34"/>
<path d="M43.52 16.3401C42.62 15.7601 41.38 16.7601 40.57 17.2201C39.53 17.8201 40.19 19.2601 41.17 19.2501C41.41 19.4101 41.71 19.4701 42.04 19.3301C42.21 19.2601 42.38 19.1901 42.56 19.1101C43.39 19.0501 44.02 18.6401 44.5 17.9701C44.98 17.3001 44.3 16.2701 43.52 16.3301V16.3401Z" fill="#423D34"/>
<path d="M19.31 16.8337C18.84 16.6937 18.31 16.5238 17.88 16.3538C17.87 16.3538 17.85 16.3537 17.84 16.3438C17.25 16.9737 16.69 17.6338 16.2 18.3538C16.37 18.7638 16.75 19.0538 17.23 19.0438C17.84 19.0338 18.45 19.0238 19.07 19.0138C20.33 18.9938 20.5 17.2038 19.32 16.8538L19.31 16.8337Z" fill="#423D34"/>
</g>
<path opacity="0.71" d="M69.01 21.6491C68.96 21.4891 68.86 21.3491 68.75 21.2191C68.75 21.2191 68.75 21.2091 68.75 21.1991C68.72 21.1291 68.69 21.0291 68.64 20.9591C68.63 20.9391 68.61 20.9191 68.6 20.8991C68.52 20.7791 68.43 20.6591 68.33 20.5591C68.31 20.5391 68.29 20.5191 68.27 20.5091C68.16 20.4191 68.04 20.3191 67.92 20.2391C67.69 20.0991 67.43 20.0391 67.16 20.0391C66.95 20.0391 66.76 20.0791 66.58 20.1691C66.39 20.2291 66.23 20.3291 66.1 20.4791C65.91 20.6691 65.79 20.8891 65.71 21.1391C65.69 21.1991 65.67 21.2491 65.66 21.3091C65.63 21.4891 65.59 21.6791 65.59 21.8691C65.59 21.8991 65.59 21.9291 65.59 21.9691C65.6 22.1191 65.63 22.2791 65.65 22.4291C65.65 22.4891 65.68 22.5491 65.7 22.6091C65.76 22.7791 65.83 22.9491 65.92 23.1191C65.98 23.2291 66.06 23.3191 66.13 23.4091C66.2 23.5091 66.27 23.5991 66.36 23.6891C66.5 23.8091 66.64 23.9291 66.8 24.0291C67.03 24.1691 67.29 24.2291 67.56 24.2291C67.77 24.2291 67.96 24.1891 68.14 24.0991C68.33 24.0391 68.49 23.9391 68.62 23.7891C68.81 23.5991 68.93 23.3791 69.01 23.1291C69.04 23.0491 69.07 22.9691 69.08 22.8791C69.11 22.6791 69.16 22.4491 69.14 22.2391C69.14 22.0291 69.1 21.8391 69.01 21.6591V21.6491Z" fill="#423D34"/>
<path opacity="0.71" d="M70.93 17.9216C70.86 17.6716 70.73 17.4516 70.54 17.2616C70.27 17.0116 70.01 16.7616 69.74 16.5116C69.6 16.3616 69.44 16.2616 69.26 16.2016C69.08 16.1116 68.89 16.0616 68.68 16.0716C68.47 16.0716 68.28 16.1116 68.1 16.2016C67.91 16.2616 67.75 16.3616 67.62 16.5116C67.54 16.6116 67.46 16.7116 67.39 16.8116C67.25 17.0416 67.19 17.3016 67.19 17.5716C67.21 17.7016 67.23 17.8416 67.24 17.9716C67.31 18.2216 67.44 18.4416 67.63 18.6316C67.9 18.8816 68.16 19.1316 68.43 19.3816C68.57 19.5316 68.73 19.6316 68.91 19.6916C69.09 19.7816 69.28 19.8316 69.49 19.8216C69.7 19.8216 69.89 19.7816 70.07 19.6916C70.26 19.6316 70.42 19.5316 70.55 19.3816C70.63 19.2816 70.71 19.1816 70.78 19.0816C70.92 18.8516 70.98 18.5916 70.98 18.3216C70.96 18.1916 70.94 18.0516 70.93 17.9216Z" fill="#423D34"/>
<path opacity="0.71" d="M74.83 26.6404C74.27 25.7904 73.6 25.0004 72.8 24.3604C72.6 24.2004 72.39 24.0404 72.14 23.9704C71.81 23.8804 71.47 23.9204 71.16 24.0504C70.61 24.2804 70.25 24.8204 70.24 25.4204C70.23 26.1004 70.32 26.7804 70.5 27.4404C70.5 27.4504 70.5 27.4604 70.49 27.4704C70.4 27.8704 70.44 28.2604 70.64 28.6304C70.89 29.0804 71.3 29.5004 71.77 29.7404C72.08 29.9004 72.38 29.9604 72.73 29.9204C73.04 29.8804 73.37 29.7504 73.59 29.5104C73.77 29.3204 73.87 29.0904 73.94 28.8504C74.07 28.8204 74.19 28.7704 74.29 28.7104C74.61 28.5004 74.89 28.2004 74.98 27.8104C75.07 27.4304 75.05 26.9904 74.83 26.6504V26.6404Z" fill="#423D34"/>
<path opacity="0.71" d="M78.43 39.1481C78.42 39.0081 78.38 38.8881 78.36 38.7481C78.36 38.7481 78.36 38.7481 78.37 38.7481C78.35 38.6881 78.34 38.6381 78.33 38.5781C78.33 38.5281 78.31 38.4781 78.3 38.4281C78.3 38.3481 78.3 38.2681 78.3 38.1881C78.3 38.0781 78.3 37.9581 78.28 37.8481C78.28 37.6481 78.21 37.4581 78.1 37.2881C78 37.1081 77.83 36.9381 77.64 36.8081C77.61 36.7581 77.59 36.7081 77.55 36.6681C77.32 36.3681 77.18 36.1781 76.86 35.9681C76.6 35.7981 76.22 35.6781 75.91 35.6881C75.59 35.6981 75.26 35.7781 74.98 35.9481C74.69 36.1281 74.49 36.3581 74.3 36.6381C74.25 36.7181 74.21 36.7981 74.17 36.8781C74.08 37.0781 73.99 37.2781 73.92 37.4981C73.73 38.1181 73.75 38.7381 73.85 39.3681C73.96 40.0381 74.31 40.6281 74.74 41.1281C74.98 41.4081 75.45 41.5681 75.8 41.5681C76.15 41.5681 76.61 41.4081 76.86 41.1281C77 40.9781 77.12 40.7981 77.2 40.6081C77.49 40.5581 77.77 40.4381 77.97 40.2181C78.23 39.9381 78.44 39.5481 78.41 39.1581L78.43 39.1481Z" fill="#423D34"/>
<path opacity="0.71" d="M77.9 53.24C77.75 52.69 77.42 52.19 76.91 51.9C76.15 51.46 75.27 51.7 74.65 52.25C74.09 52.75 73.7 53.47 73.49 54.18C73.26 54.98 73.25 55.89 73.51 56.68C73.66 57.13 73.94 57.47 74.38 57.65C74.47 57.69 74.56 57.71 74.65 57.73C74.65 57.73 74.65 57.74 74.65 57.75C75.18 58.76 76.7 58.69 77.24 57.75C77.6 57.13 77.87 56.43 77.97 55.72C78.09 54.89 78.11 54.05 77.89 53.24H77.9Z" fill="#423D34"/>
<path opacity="0.71" d="M83.91 82.4539C83.71 82.1839 83.51 81.9739 83.19 81.8439C82.89 81.7139 82.53 81.6639 82.21 81.7639C81.96 81.8439 81.74 81.9739 81.55 82.1539C81.24 82.4439 81.16 82.8139 81.11 83.2139C81.09 83.4039 81.09 83.5939 81.07 83.7839C81.04 83.8939 81.01 83.9939 81 84.1039C80.92 85.1539 81.14 86.2339 81.57 87.2039C81.61 87.3139 81.64 87.4339 81.68 87.5439C81.83 87.9039 82 88.2439 82.37 88.4439C82.41 88.4639 82.45 88.4639 82.49 88.4839C82.78 88.6539 83.11 88.7439 83.46 88.6939C84.06 88.6139 84.52 88.1939 84.71 87.6239C85.26 85.9339 84.97 83.9039 83.91 82.4639V82.4539Z" fill="#423D34"/>
<path opacity="0.71" d="M81.16 100.126C81.06 99.6963 80.72 99.3463 80.32 99.1663C80.19 98.9463 80.03 98.7363 79.86 98.5563C79.29 97.9763 78.31 97.9863 77.74 98.5563C77.58 98.7163 77.42 98.8863 77.27 99.0663C77.15 99.1363 77.03 99.2063 76.94 99.3163C76.32 100.066 75.81 100.846 75.44 101.756C75.28 102.146 75.19 102.606 75.22 103.026C75.29 103.806 75.62 104.456 76.28 104.906C77.14 105.486 78.29 105.336 79.16 104.876C79.86 104.506 80.48 103.826 80.81 103.106C81.06 102.566 81.19 102.086 81.26 101.496C81.31 101.046 81.26 100.576 81.16 100.136V100.126Z" fill="#423D34"/>
<path opacity="0.71" d="M82.45 92.5716C82.39 92.3816 82.29 92.2216 82.14 92.0916C81.94 91.9016 81.7 91.7716 81.44 91.7016C81.37 91.4416 81.24 91.1916 81.05 91.0116C80.91 90.8616 80.75 90.7616 80.57 90.7016C80.39 90.6116 80.2 90.5616 79.99 90.5716C79.6 90.5916 79.2 90.7116 78.93 91.0116C78.66 91.3016 78.49 91.6616 78.49 92.0716C78.49 92.6816 78.73 93.2516 79.11 93.7116C79.14 93.7916 79.15 93.8816 79.19 93.9616C79.37 94.2916 79.54 94.6216 79.72 94.9516L79.95 95.2516C80.09 95.4016 80.25 95.5016 80.43 95.5616C80.55 95.6316 80.67 95.6616 80.81 95.6616C81.01 95.7016 81.21 95.7016 81.41 95.6316C81.66 95.5516 81.88 95.4216 82.07 95.2416C82.36 94.9716 82.49 94.5616 82.51 94.1816C82.53 93.8316 82.55 93.4916 82.57 93.1416C82.57 92.9316 82.53 92.7416 82.44 92.5616L82.45 92.5716Z" fill="#423D34"/>
<path opacity="0.71" d="M80.48 77.0078C78.55 77.0078 78.55 80.0078 80.48 80.0078C82.41 80.0078 82.41 77.0078 80.48 77.0078Z" fill="#423D34"/>
<path opacity="0.71" d="M77.74 113.121C77.69 112.601 77.58 112.101 77.28 111.661C77.15 111.431 76.97 111.261 76.74 111.121C76.57 111.011 76.38 110.951 76.18 110.941C75.98 110.901 75.78 110.901 75.58 110.971C75.33 111.041 75.11 111.171 74.92 111.361C74.79 111.491 74.69 111.641 74.59 111.791C74.43 111.861 74.27 111.931 74.13 112.031C73.95 112.161 73.77 112.291 73.61 112.441C73.38 112.661 73.16 112.921 73.01 113.201C72.81 113.561 72.65 114.011 72.69 114.431C72.72 114.781 72.77 115.061 72.96 115.361C73.13 115.651 73.37 115.881 73.66 116.061C74.12 116.341 74.71 116.401 75.22 116.261C75.37 116.221 75.52 116.151 75.66 116.081C75.7 116.061 75.75 116.041 75.79 116.021C75.92 115.941 76.05 115.831 76.16 115.741C76.2 115.711 76.24 115.671 76.27 115.631C76.35 115.541 76.42 115.441 76.48 115.341C76.62 115.311 76.76 115.261 76.89 115.181L77.19 114.951C77.38 114.761 77.5 114.541 77.58 114.291C77.66 114.101 77.69 113.921 77.71 113.711C77.74 113.511 77.76 113.321 77.74 113.121Z" fill="#423D34"/>
<path opacity="0.71" d="M82.31 107.3C82.31 107.1 82.24 106.91 82.13 106.74C82.04 106.57 81.91 106.42 81.74 106.32C81.59 106.19 81.43 106.1 81.23 106.05C81.1 106.03 80.96 106.01 80.83 106C80.56 106 80.31 106.07 80.07 106.2L79.77 106.43C79.58 106.62 79.46 106.84 79.38 107.09L79.19 107.84C79.13 108.04 79.12 108.24 79.16 108.44C79.16 108.64 79.23 108.83 79.34 109C79.43 109.17 79.56 109.32 79.73 109.42C79.87 109.55 80.04 109.64 80.24 109.69C80.37 109.71 80.51 109.73 80.64 109.74C80.91 109.74 81.16 109.67 81.4 109.54C81.5 109.46 81.6 109.38 81.7 109.31C81.89 109.12 82.01 108.9 82.09 108.65C82.15 108.4 82.22 108.15 82.28 107.9C82.34 107.7 82.35 107.5 82.31 107.3Z" fill="#423D34"/>
<path opacity="0.71" d="M91.95 104.989C91.85 103.869 91.53 102.789 90.96 101.809C90.7 101.349 90.14 101.059 89.6 101.079C88.19 100.459 86.8 101.699 86.33 102.969C86.07 103.689 86.05 104.469 86.12 105.249C85.92 106.149 85.92 107.169 86.12 108.039C86.2 108.409 86.38 108.749 86.63 109.019C86.71 109.339 86.85 109.639 87.09 109.889C88 110.799 89.55 110.599 90.55 109.959C91.56 109.309 92.16 108.299 92.29 107.099C92.37 106.379 92.22 105.659 91.96 104.979L91.95 104.989Z" fill="#423D34"/>
<path opacity="0.71" d="M96.53 111.101C96.5 110.991 96.46 110.891 96.41 110.801C96.4 110.661 96.38 110.521 96.35 110.391C96.29 110.181 96.18 109.991 96.04 109.831C95.99 109.661 95.91 109.501 95.79 109.371C95.72 109.261 95.63 109.171 95.52 109.101C95.38 108.971 95.21 108.881 95.01 108.831C94.88 108.811 94.74 108.791 94.61 108.781C94.48 108.801 94.34 108.821 94.21 108.831C94.01 108.881 93.84 108.971 93.7 109.101C93.54 109.211 93.41 109.351 93.31 109.521C93.18 109.741 93.08 109.991 92.99 110.231C92.91 110.481 92.88 110.751 92.85 111.011C92.84 111.151 92.84 111.291 92.85 111.431C92.88 111.691 92.91 111.961 93 112.211C93.07 112.461 93.2 112.681 93.39 112.871C93.49 112.981 93.61 113.051 93.73 113.111C93.86 113.211 94 113.291 94.16 113.321C94.43 113.391 94.69 113.391 94.96 113.321C95.55 113.151 96.04 112.771 96.36 112.251C96.47 112.081 96.53 111.891 96.54 111.691C96.58 111.491 96.58 111.291 96.51 111.091L96.53 111.101Z" fill="#423D34"/>
<path opacity="0.71" d="M91.37 113.777C91.19 113.167 90.67 112.687 90.05 112.567C89.92 112.537 89.8 112.547 89.67 112.547C89.31 112.347 88.88 112.277 88.44 112.417C88.33 112.447 88.22 112.507 88.11 112.547C87.69 112.587 87.31 112.807 86.96 113.037C86.8 113.137 86.65 113.247 86.5 113.357C86.19 113.527 85.88 113.677 85.58 113.857C85.16 114.107 84.88 114.587 84.84 115.067C84.68 115.327 84.54 115.597 84.44 115.887C84.4 116.007 84.37 116.127 84.34 116.247C83.98 117.367 84.6 118.567 85.74 118.887C86.41 119.077 87.21 118.957 87.87 118.797C88.55 118.627 89.23 118.277 89.71 117.757C90.09 117.347 90.38 116.837 90.51 116.297C90.51 116.297 90.51 116.297 90.52 116.297C91.17 115.687 91.65 114.667 91.38 113.777H91.37Z" fill="#423D34"/>
<path opacity="0.71" d="M98.34 104.891C98.33 104.731 98.3 104.571 98.28 104.411C98.28 104.351 98.26 104.301 98.24 104.251C98.17 104.001 98.04 103.781 97.85 103.591C97.66 103.401 97.44 103.281 97.19 103.201C96.92 103.131 96.66 103.131 96.39 103.201C96.14 103.271 95.92 103.401 95.73 103.591C95.69 103.621 95.66 103.661 95.62 103.691C95.52 103.811 95.43 103.921 95.34 104.051C95.33 104.071 95.31 104.091 95.3 104.111C95.21 104.261 95.15 104.431 95.09 104.591C95.07 104.641 95.06 104.691 95.05 104.741C94.99 104.941 94.98 105.141 95.02 105.341C95.02 105.541 95.09 105.731 95.2 105.901C95.29 106.071 95.42 106.221 95.59 106.321C95.7 106.421 95.84 106.491 95.99 106.551C96.11 106.631 96.23 106.701 96.37 106.731C96.5 106.751 96.64 106.771 96.77 106.781C97.04 106.781 97.29 106.711 97.53 106.581L97.83 106.351C98.02 106.161 98.14 105.941 98.22 105.691C98.24 105.641 98.26 105.581 98.27 105.531C98.3 105.371 98.32 105.211 98.34 105.051C98.34 105.021 98.34 105.001 98.34 104.971C98.34 104.941 98.34 104.921 98.34 104.891Z" fill="#423D34"/>
<path opacity="0.71" d="M103.83 113.289C103.7 112.089 103.29 110.559 101.81 110.509C101.23 110.489 100.76 110.739 100.32 111.069C99.96 111.339 99.61 111.609 99.29 111.919C99.16 112.039 99.06 112.179 98.94 112.299C98.64 112.529 98.35 112.799 98.11 113.089C97.83 113.429 97.58 113.789 97.37 114.179C97.09 114.619 96.86 115.069 96.65 115.559C96.51 115.909 96.38 116.259 96.3 116.629C96.13 117.369 96.14 117.969 96.46 118.669C96.6 118.979 97.03 119.289 97.36 119.359C97.63 119.419 97.88 119.409 98.13 119.349C98.15 119.349 98.17 119.349 98.18 119.349C98.23 119.369 98.27 119.389 98.31 119.409C98.88 119.589 99.47 119.499 100.02 119.289C101.65 118.649 102.9 117.419 103.52 115.769C103.81 114.989 103.93 114.109 103.84 113.279L103.83 113.289Z" fill="#423D34"/>
<path opacity="0.71" d="M95.12 118.511C94.92 118.011 94.7 117.551 94.21 117.261C93.85 117.041 93.45 117.001 93.07 117.071C92.57 117.131 92.09 117.401 91.67 117.711C90.75 118.401 89.91 119.261 89.42 120.321C88.84 121.561 88.62 123.191 89.72 124.241C89.92 124.431 90.15 124.571 90.41 124.691C90.89 125.121 91.55 125.211 92.17 124.911C92.22 124.881 92.27 124.851 92.32 124.821C92.86 124.661 93.34 124.391 93.79 124.001C95.3 122.721 95.86 120.331 95.13 118.501L95.12 118.511Z" fill="#423D34"/>
<path opacity="0.71" d="M86.73 121.618C86.68 121.418 86.59 121.248 86.46 121.108C86.35 120.948 86.21 120.818 86.04 120.718L85.68 120.568C85.41 120.498 85.15 120.498 84.88 120.568L84.78 120.608C84.57 120.628 84.36 120.688 84.18 120.788L83.88 121.018C83.88 121.018 83.87 121.028 83.86 121.038C83.71 121.108 83.57 121.198 83.45 121.318C83.43 121.338 83.41 121.368 83.39 121.388C83.3 121.488 83.22 121.608 83.14 121.718C83.13 121.738 83.12 121.748 83.11 121.768C83.11 121.778 83.1 121.798 83.09 121.808C83.05 121.888 82.97 122.088 82.94 122.168C82.94 122.168 82.94 122.188 82.94 122.198C82.94 122.208 82.94 122.228 82.94 122.238C82.94 122.288 82.89 122.588 82.89 122.638V122.658C82.89 122.728 82.92 122.898 82.92 122.878C82.92 122.828 82.93 123.028 82.95 123.088C82.95 123.098 82.95 123.108 82.95 123.118C82.97 123.178 83.04 123.328 83.03 123.308C83.03 123.298 83.08 123.448 83.11 123.498V123.508L83.34 123.818L83.36 123.838L83.66 124.068C83.66 124.068 83.66 124.068 83.67 124.068H83.68C83.73 124.088 84 124.208 84.04 124.218C84.18 124.258 84.33 124.278 84.47 124.278C84.47 124.278 84.48 124.278 84.49 124.278C84.54 124.278 84.85 124.238 84.9 124.228C85.03 124.198 85.24 124.088 85.29 124.068C85.32 124.058 85.35 124.038 85.37 124.018C85.4 123.998 85.42 123.978 85.45 123.958C85.58 123.868 85.7 123.768 85.82 123.668C85.97 123.538 86.08 123.398 86.2 123.238C86.33 123.068 86.46 122.908 86.54 122.708C86.65 122.538 86.71 122.348 86.72 122.148C86.76 121.948 86.76 121.748 86.69 121.548L86.73 121.618Z" fill="#423D34"/>
<path opacity="0.71" d="M85.04 126.42C83.5 126.14 82 126.75 80.85 127.76C79.99 127.86 79.19 128.34 78.53 128.88C77.86 129.42 77.27 130.18 76.99 131C76.52 132.42 77.51 133.79 79.01 133.76C79.07 133.76 79.13 133.76 79.19 133.75C79.27 133.82 79.35 133.9 79.45 133.96C80.04 134.36 80.69 134.36 81.37 134.26C83.11 134 84.9 133.34 86.12 132.02C86.85 131.22 87.46 130.17 87.46 129.06C87.46 127.7 86.32 126.65 85.04 126.42Z" fill="#423D34"/>
<path opacity="0.71" d="M81.55 121.448C81.53 121.338 81.51 121.228 81.48 121.118C81.32 120.618 80.96 120.218 80.43 120.068C80.16 119.998 79.9 119.998 79.63 120.068C79.38 120.138 79.16 120.268 78.97 120.458C78.29 121.298 77.71 122.178 77.27 123.158C77.22 123.278 77.17 123.398 77.12 123.518C77.06 123.718 77.05 123.918 77.09 124.118C77.09 124.258 77.12 124.378 77.19 124.498C77.25 124.688 77.35 124.848 77.5 124.978C77.69 125.158 77.91 125.288 78.16 125.368C78.36 125.428 78.56 125.438 78.76 125.398C78.96 125.398 79.15 125.328 79.32 125.218C79.37 125.198 79.42 125.158 79.47 125.128C79.67 125.108 79.87 125.048 80.04 124.938C80.31 124.758 80.58 124.558 80.79 124.298C80.93 124.118 81.08 123.938 81.19 123.738C81.3 123.538 81.38 123.328 81.46 123.118C81.5 123.018 81.52 122.918 81.54 122.808C81.58 122.588 81.62 122.358 81.62 122.128C81.62 121.898 81.59 121.668 81.55 121.448Z" fill="#423D34"/>
<path opacity="0.71" d="M95.61 128.951C95.55 128.881 95.49 128.831 95.43 128.771C95.35 128.501 95.24 128.241 95.1 127.991C94.93 127.681 94.55 127.381 94.2 127.301C93.83 127.221 93.36 127.211 93.04 127.451C93 127.481 92.97 127.511 92.94 127.531C92.23 127.481 91.51 127.761 91.02 128.331C90.63 128.791 90.32 129.351 90.14 129.941C89.88 130.161 89.64 130.401 89.43 130.661C89.08 131.091 88.74 131.531 88.61 132.081C88.41 132.941 88.7 133.831 89.47 134.311C89.92 134.591 90.48 134.661 91.01 134.631C91.41 135.021 92.01 135.211 92.62 135.041C93.06 134.921 93.51 134.681 93.89 134.431C94.66 133.931 95.41 133.231 95.82 132.391C96.37 131.261 96.45 129.951 95.61 128.941V128.951Z" fill="#423D34"/>
<path opacity="0.71" d="M87.42 137.247C87.42 137.177 87.4 137.087 87.39 137.007C87.39 136.977 87.38 136.957 87.36 136.927C87.31 136.727 87.22 136.557 87.09 136.417C86.98 136.257 86.84 136.127 86.67 136.027C86.5 135.917 86.31 135.857 86.11 135.847C85.91 135.807 85.71 135.807 85.51 135.877C85.39 135.927 85.27 135.977 85.15 136.027C84.92 136.157 84.75 136.337 84.61 136.567C84.56 136.687 84.51 136.807 84.46 136.927C84.43 137.047 84.42 137.157 84.41 137.277C84.41 137.287 84.4 137.297 84.39 137.317C84.3 137.497 84.25 137.687 84.26 137.897C84.26 138.107 84.3 138.297 84.39 138.477C84.45 138.667 84.55 138.827 84.7 138.957L85 139.187C85.23 139.327 85.49 139.387 85.76 139.387C85.89 139.367 86.03 139.347 86.16 139.337C86.41 139.267 86.63 139.137 86.82 138.947C86.84 138.927 86.86 138.907 86.88 138.887C86.88 138.887 86.89 138.877 86.9 138.867C86.98 138.767 87.07 138.657 87.14 138.557C87.14 138.547 87.16 138.537 87.16 138.527C87.16 138.517 87.17 138.507 87.18 138.487C87.18 138.487 87.18 138.477 87.19 138.467C87.24 138.347 87.3 138.217 87.34 138.097C87.35 138.067 87.36 138.047 87.37 138.017C87.37 138.007 87.37 137.987 87.37 137.977C87.37 137.977 87.37 137.967 87.37 137.957C87.39 137.827 87.41 137.677 87.42 137.547C87.42 137.517 87.42 137.497 87.42 137.467C87.42 137.387 87.4 137.307 87.39 137.227L87.42 137.247Z" fill="#423D34"/>
<path opacity="0.71" d="M100.64 124.087C100.59 123.887 100.5 123.717 100.37 123.577C100.26 123.417 100.12 123.287 99.95 123.187C99.83 123.137 99.71 123.087 99.59 123.037C99.32 122.967 99.06 122.967 98.79 123.037C98.67 123.087 98.55 123.137 98.43 123.187C98.2 123.317 98.03 123.497 97.89 123.727C97.87 123.777 97.84 123.817 97.82 123.867C97.71 124.037 97.65 124.227 97.64 124.427C97.6 124.627 97.6 124.827 97.67 125.027C97.72 125.227 97.81 125.397 97.94 125.537C98.05 125.697 98.19 125.827 98.36 125.927L98.72 126.077C98.99 126.147 99.25 126.147 99.52 126.077L99.88 125.927C100.11 125.797 100.28 125.617 100.42 125.387C100.44 125.337 100.47 125.297 100.49 125.247C100.6 125.077 100.66 124.887 100.67 124.687C100.71 124.487 100.71 124.287 100.64 124.087Z" fill="#423D34"/>
<path opacity="0.71" d="M109.53 116.927C108.97 116.147 108.05 115.967 107.29 116.537C107.07 116.557 106.84 116.597 106.62 116.687C105.23 117.237 104.04 118.397 103.44 119.767C102.79 121.237 102.62 122.887 103.31 124.377C104.12 126.147 106.23 126.607 107.9 125.827C109.49 125.087 110.41 123.267 110.63 121.607C110.85 119.987 110.51 118.257 109.54 116.917L109.53 116.927Z" fill="#423D34"/>
<path opacity="0.71" d="M104.7 130.023C104.58 129.703 104.42 129.403 104.23 129.133C104.15 128.813 104.04 128.503 103.86 128.213C103.82 128.143 103.76 128.093 103.71 128.033C103.71 127.503 103.43 127.003 102.97 126.743C102.47 126.453 101.96 126.513 101.46 126.743C100.35 127.253 99.39 128.143 98.71 129.203C98.65 129.303 98.58 129.393 98.53 129.493C98.46 129.613 98.41 129.733 98.35 129.853C98.31 129.943 98.26 130.033 98.22 130.133C97.97 130.703 97.8 131.303 97.74 131.913C97.71 132.283 97.77 132.653 97.91 132.993C97.91 133.053 97.91 133.103 97.93 133.163C98.02 133.613 98.4 133.963 98.8 134.133C99.1 134.263 99.4 134.273 99.69 134.213C99.99 134.223 100.29 134.173 100.58 134.083C100.86 134.183 101.17 134.203 101.48 134.143C101.59 134.213 101.72 134.273 101.85 134.303C102.27 134.403 102.62 134.323 103.01 134.153C103.93 133.743 104.68 132.753 104.84 131.753C104.93 131.173 104.93 130.583 104.72 130.023H104.7Z" fill="#423D34"/>
<path opacity="0.71" d="M97.77 139.402C97.77 139.202 97.7 139.012 97.59 138.842C97.5 138.672 97.37 138.522 97.2 138.422C97.06 138.292 96.89 138.202 96.69 138.152C96.56 138.132 96.42 138.112 96.29 138.102C96.02 138.102 95.77 138.172 95.53 138.302L95.23 138.532C95.13 138.632 95.05 138.742 94.98 138.862C94.94 138.942 94.89 139.022 94.84 139.102C94.78 139.172 94.72 139.242 94.64 139.302C94.68 139.272 94.72 139.242 94.76 139.202C94.62 139.292 94.49 139.392 94.4 139.532C94.27 139.672 94.18 139.842 94.13 140.042C94.07 140.242 94.06 140.442 94.1 140.642C94.1 140.842 94.17 141.032 94.28 141.202L94.51 141.502C94.7 141.692 94.92 141.812 95.17 141.892C95.3 141.912 95.44 141.932 95.57 141.942C95.84 141.942 96.09 141.872 96.33 141.742C96.37 141.712 96.41 141.682 96.45 141.652C96.59 141.552 96.72 141.452 96.85 141.332C96.92 141.272 96.99 141.202 97.05 141.122C97.16 140.992 97.26 140.852 97.36 140.712C97.39 140.672 97.41 140.632 97.44 140.592C97.55 140.402 97.63 140.182 97.72 139.982C97.78 139.782 97.79 139.582 97.75 139.382L97.77 139.402Z" fill="#423D34"/>
<path opacity="0.71" d="M95.54 146.527C95.49 146.267 95.38 145.997 95.24 145.777C95.19 145.707 95.13 145.637 95.08 145.567C95.04 145.207 94.97 144.927 94.8 144.577C94.63 144.237 94.35 143.977 94.04 143.757C93.49 143.367 92.79 143.327 92.15 143.457C91.69 143.547 91.26 143.777 90.86 144.017C90.48 144.247 90.11 144.507 89.79 144.807C89.37 145.207 89.08 145.677 88.88 146.217C88.69 146.737 88.68 147.287 88.78 147.827C88.98 148.897 89.93 149.657 90.93 149.937C91.34 150.057 91.79 150.107 92.23 150.107C92.67 150.107 93.13 150.047 93.54 149.887C94.03 149.697 94.52 149.447 94.86 149.027C95.18 148.637 95.45 148.197 95.54 147.687C95.62 147.267 95.62 146.937 95.54 146.517V146.527Z" fill="#423D34"/>
<path opacity="0.71" d="M90.71 142.933C90.71 142.733 90.64 142.543 90.53 142.373L90.3 142.073C90.11 141.883 89.89 141.763 89.64 141.683C89.51 141.663 89.37 141.643 89.24 141.633C88.97 141.633 88.72 141.703 88.48 141.833L87.92 142.253C87.75 142.343 87.6 142.473 87.5 142.643C87.37 142.783 87.28 142.953 87.23 143.153C87.17 143.353 87.16 143.553 87.2 143.753C87.2 143.953 87.27 144.143 87.38 144.313L87.61 144.613C87.8 144.803 88.02 144.923 88.27 145.003C88.4 145.023 88.54 145.043 88.67 145.053C88.94 145.053 89.19 144.983 89.43 144.853C89.62 144.713 89.81 144.573 89.99 144.433C90.16 144.343 90.3 144.213 90.41 144.043C90.54 143.903 90.63 143.733 90.68 143.533C90.74 143.333 90.75 143.133 90.71 142.933Z" fill="#423D34"/>
<path opacity="0.71" d="M106.56 136.659C106.47 136.639 106.38 136.639 106.29 136.629C106.2 136.499 106.11 136.379 105.98 136.299C105.94 136.269 105.9 136.249 105.86 136.219C105.86 136.149 105.86 136.079 105.84 136.019C105.84 135.819 105.77 135.629 105.66 135.459C105.57 135.289 105.44 135.139 105.27 135.039C105.13 134.909 104.96 134.819 104.76 134.769C104.63 134.749 104.49 134.729 104.36 134.719C104.09 134.719 103.84 134.789 103.6 134.919C103.5 134.999 103.4 135.079 103.3 135.149C103.11 135.339 102.99 135.559 102.91 135.809C102.89 135.879 102.86 135.949 102.84 136.029C102.8 136.059 102.75 136.089 102.71 136.129C102.62 136.169 102.53 136.199 102.44 136.239C102.32 136.309 102.12 136.479 102.08 136.509C101.95 136.619 101.84 136.779 101.75 136.919C101.54 137.239 101.48 137.579 101.45 137.949C101.45 138.009 101.45 138.069 101.45 138.129C101.47 138.309 101.48 138.499 101.54 138.679C101.65 138.989 101.8 139.279 102.04 139.509C101.89 139.709 101.74 139.889 101.6 140.099C101.54 140.199 101.49 140.299 101.46 140.409C101.06 141.119 100.82 141.899 100.74 142.709C100.68 143.309 100.82 143.949 101.25 144.389C101.81 144.959 102.52 145.069 103.27 144.949C104.03 144.829 104.8 144.469 105.43 144.029C106.15 143.529 106.77 142.909 107.23 142.149C107.7 141.359 107.95 140.469 108.01 139.559C108.09 138.429 107.82 136.949 106.53 136.639L106.56 136.659Z" fill="#423D34"/>
<path opacity="0.71" d="M109.57 133.297C107.64 133.297 107.64 136.297 109.57 136.297C111.5 136.297 111.5 133.297 109.57 133.297Z" fill="#423D34"/>
<path opacity="0.71" d="M116.68 125.823C116.62 125.283 116.43 124.823 115.94 124.523C115.52 124.273 114.84 124.213 114.43 124.523C114.36 124.573 114.3 124.633 114.24 124.683C114.11 124.623 113.97 124.573 113.81 124.553C113.31 124.483 112.93 124.653 112.55 124.963C111.99 125.433 111.56 126.043 111.26 126.703C110.99 126.603 110.68 126.573 110.38 126.663C109.71 126.863 109.14 127.203 108.61 127.653C108.35 127.873 108.15 128.143 107.94 128.413C107.8 128.593 107.68 128.793 107.59 128.993C107.45 129.223 107.39 129.483 107.39 129.753C107.39 130.023 107.46 130.273 107.59 130.513C107.72 130.743 107.9 130.913 108.13 131.053C108.18 131.083 108.24 131.103 108.3 131.123C108.33 131.193 108.35 131.253 108.38 131.313C108.46 131.413 108.54 131.513 108.61 131.613C108.75 131.763 108.91 131.863 109.09 131.923C109.21 131.993 109.33 132.023 109.47 132.023C109.6 132.063 109.74 132.063 109.87 132.023C110.01 132.023 110.13 131.993 110.25 131.923C110.44 131.863 110.6 131.763 110.73 131.613C110.83 131.523 110.92 131.423 111 131.333C111.14 131.593 111.35 131.823 111.6 131.983C111.95 132.203 112.34 132.283 112.74 132.223C113.07 132.183 113.31 132.053 113.53 131.873C113.63 131.923 113.73 131.963 113.83 131.993C114.67 132.183 115.4 131.743 115.68 130.943C115.89 130.343 115.99 129.693 116.01 129.043C116.06 128.953 116.11 128.863 116.15 128.773C116.56 127.843 116.81 126.833 116.69 125.813L116.68 125.823Z" fill="#423D34"/>
<path opacity="0.71" d="M82.24 140.808C82.24 140.608 82.17 140.418 82.06 140.248L81.83 139.948C81.64 139.758 81.42 139.638 81.17 139.558C81.04 139.538 80.9 139.518 80.77 139.508C80.5 139.508 80.25 139.578 80.01 139.708C79.58 139.888 79.16 140.078 78.73 140.258C78.56 140.348 78.42 140.478 78.31 140.648C78.18 140.788 78.09 140.958 78.04 141.158C77.98 141.358 77.97 141.558 78.01 141.758C78.01 141.958 78.08 142.148 78.19 142.318L78.42 142.618C78.61 142.808 78.83 142.928 79.08 143.008C79.21 143.028 79.35 143.048 79.48 143.058C79.75 143.058 80 142.988 80.24 142.858C80.67 142.678 81.09 142.488 81.52 142.308C81.69 142.218 81.84 142.088 81.94 141.918C82.07 141.778 82.16 141.608 82.21 141.408C82.27 141.208 82.28 141.008 82.24 140.808Z" fill="#423D34"/>
<path opacity="0.71" d="M101.38 147.547C99.45 147.547 99.45 150.547 101.38 150.547C103.31 150.547 103.31 147.547 101.38 147.547Z" fill="#423D34"/>
<path opacity="0.71" d="M117.43 135.918C117.37 135.328 117.18 134.888 116.8 134.428C116.62 134.198 116.3 134.078 116.01 134.028C115.98 134.008 115.96 133.968 115.92 133.948C115.41 133.648 114.73 133.638 114.22 133.948C113.95 134.108 113.7 134.328 113.46 134.538C112.69 135.208 112.04 136.058 111.57 136.968C111.43 137.248 111.39 137.568 111.41 137.878C111 138.848 110.89 139.948 111.49 140.878C111.71 141.228 112.08 141.478 112.49 141.578C112.55 141.628 112.6 141.688 112.68 141.728C113.26 142.038 114.03 141.988 114.5 141.498C114.63 141.358 114.76 141.208 114.89 141.058C115.28 141.078 115.68 140.948 115.95 140.628C116.66 139.788 117.07 138.718 117.04 137.638C117.14 137.408 117.24 137.168 117.3 136.938C117.39 136.618 117.45 136.258 117.42 135.928L117.43 135.918Z" fill="#423D34"/>
<path opacity="0.71" d="M112.35 144.66C112.29 144.47 112.19 144.31 112.04 144.18C111.94 144.1 111.84 144.02 111.74 143.95C111.51 143.81 111.25 143.75 110.98 143.75C110.85 143.77 110.71 143.79 110.58 143.8C110.33 143.87 110.11 144 109.92 144.19L109.78 144.33C109.63 144.47 109.53 144.63 109.47 144.81C109.38 144.99 109.33 145.18 109.34 145.39C109.34 145.6 109.38 145.79 109.47 145.97C109.53 146.16 109.63 146.32 109.78 146.45L110.08 146.68C110.31 146.82 110.57 146.88 110.84 146.88C110.97 146.86 111.11 146.84 111.24 146.83C111.49 146.76 111.71 146.63 111.9 146.44L112.04 146.3C112.19 146.16 112.29 146 112.35 145.82C112.44 145.64 112.49 145.45 112.48 145.24C112.48 145.03 112.44 144.84 112.35 144.66Z" fill="#423D34"/>
<path opacity="0.71" d="M120.53 146.649C120.47 145.779 120.16 145.039 119.6 144.379C119.3 144.019 118.78 143.909 118.34 143.969C117.87 144.029 117.57 144.269 117.29 144.629C116.56 144.879 115.87 145.459 115.31 145.909C114.71 146.379 114.16 146.919 113.67 147.509C113 148.319 112.24 149.249 112.23 150.359C112.23 151.029 112.54 151.719 113.07 152.129C113.68 152.599 114.42 152.669 115.16 152.459C115.38 152.399 115.59 152.319 115.8 152.239C116.36 152.449 116.94 152.339 117.41 151.929C118.03 151.389 118.52 150.729 118.9 150.019C118.94 149.999 118.98 149.989 119.01 149.959C119.42 149.689 119.64 149.309 119.7 148.879C119.71 148.879 119.72 148.859 119.73 148.859C120.32 148.319 120.58 147.419 120.53 146.639V146.649Z" fill="#423D34"/>
<path opacity="0.71" d="M134.03 142.73C133.88 142.21 133.64 141.72 133.29 141.31C133.22 141.23 133.13 141.15 133.05 141.08C132.36 140.37 131.23 140.39 130.51 141.08C130.11 141.46 129.87 142.01 129.71 142.54C129.55 143.05 129.5 143.61 129.54 144.17C129.5 145.12 129.74 146.06 130.16 146.91C130.28 147.15 130.47 147.33 130.69 147.45C131.3 148.01 132.21 148.03 132.81 147.45C134.03 146.26 134.52 144.37 134.04 142.74L134.03 142.73Z" fill="#423D34"/>
<path opacity="0.71" d="M127.92 140.352C125.99 140.352 125.99 143.352 127.92 143.352C129.85 143.352 129.85 140.352 127.92 140.352Z" fill="#423D34"/>
<path opacity="0.71" d="M142.24 140.808C142.24 140.608 142.17 140.418 142.06 140.248C141.97 140.078 141.84 139.928 141.67 139.828C141.53 139.698 141.36 139.608 141.16 139.558C141.03 139.538 140.89 139.518 140.76 139.508C140.49 139.508 140.24 139.578 140 139.708C139.9 139.788 139.8 139.868 139.7 139.938C139.51 140.128 139.39 140.348 139.31 140.598C139.26 140.928 139.21 141.258 139.16 141.588C139.1 141.788 139.09 141.988 139.13 142.188C139.13 142.388 139.2 142.578 139.31 142.748C139.4 142.918 139.53 143.068 139.7 143.168C139.84 143.298 140.01 143.388 140.21 143.438C140.34 143.458 140.48 143.478 140.61 143.488C140.88 143.488 141.13 143.418 141.37 143.288L141.67 143.058C141.86 142.868 141.98 142.648 142.06 142.398C142.11 142.068 142.16 141.738 142.21 141.408C142.27 141.208 142.28 141.008 142.24 140.808Z" fill="#423D34"/>
<path opacity="0.71" d="M72.95 137.554C72.94 137.414 72.92 137.264 72.89 137.124C72.89 137.114 72.89 137.094 72.89 137.084C72.89 137.074 72.89 137.054 72.88 137.044C72.83 136.924 72.78 136.784 72.72 136.664C72.71 136.634 72.69 136.614 72.67 136.584C72.58 136.414 72.45 136.264 72.28 136.164C72.14 136.034 71.97 135.944 71.77 135.894C71.64 135.874 71.5 135.854 71.37 135.844C71.1 135.844 70.85 135.914 70.61 136.044C70.46 136.144 70.33 136.254 70.19 136.364C70.15 136.394 70.11 136.434 70.07 136.464C70.03 136.504 70 136.534 69.97 136.574C69.86 136.704 69.75 136.844 69.65 136.994C69.59 137.074 69.55 137.164 69.51 137.264C69.42 137.474 69.32 137.684 69.27 137.914C69.25 138.044 69.23 138.184 69.22 138.314C69.24 138.444 69.26 138.584 69.27 138.714L69.42 139.074C69.51 139.244 69.64 139.394 69.81 139.494C69.9 139.584 70.01 139.654 70.14 139.684C70.26 139.754 70.38 139.784 70.52 139.784C70.65 139.824 70.79 139.824 70.92 139.784C71.12 139.784 71.31 139.714 71.48 139.604C71.52 139.584 71.56 139.564 71.59 139.534C71.73 139.444 71.86 139.334 71.99 139.234C72.14 139.164 72.29 139.074 72.41 138.944C72.5 138.844 72.58 138.724 72.66 138.624C72.66 138.614 72.68 138.604 72.68 138.594C72.76 138.474 72.84 138.234 72.86 138.174C72.93 138.004 72.94 137.804 72.95 137.634C72.95 137.604 72.95 137.584 72.95 137.554Z" fill="#423D34"/>
<path opacity="0.71" d="M73.52 141.297C71.59 141.297 71.59 144.297 73.52 144.297C75.45 144.297 75.45 141.297 73.52 141.297Z" fill="#423D34"/>
<path opacity="0.71" d="M34.11 23.1534C33.95 22.9934 33.77 22.8634 33.59 22.7334C33.5 22.6634 33.4 22.6134 33.3 22.5634C33.15 22.4934 32.99 22.4234 32.83 22.3634C32.67 22.3034 32.48 22.2834 32.31 22.2734C32.17 22.2734 32 22.2934 31.86 22.3234C31.84 22.3234 31.82 22.3234 31.8 22.3334C31.96 22.2934 31.51 22.4334 31.41 22.5034C31.41 22.5034 31.4 22.5034 31.39 22.5134C31.31 22.4934 31.24 22.4734 31.16 22.4734C30.96 22.4334 30.76 22.4334 30.56 22.5034C30.36 22.5534 30.19 22.6434 30.05 22.7734C29.89 22.8834 29.76 23.0234 29.66 23.1934C29.48 23.5434 29.38 23.9634 29.51 24.3534C29.63 24.7134 29.85 25.0734 30.2 25.2534L31.6 25.9434L31.96 26.0934C32.16 26.1534 32.36 26.1634 32.56 26.1234C32.7 26.1234 32.82 26.0934 32.94 26.0234C33.13 25.9634 33.29 25.8634 33.42 25.7134C33.44 25.6934 33.45 25.6734 33.47 25.6534C33.52 25.6334 33.57 25.6234 33.62 25.5934C33.81 25.5334 33.97 25.4334 34.1 25.2834C34.36 24.9934 34.56 24.6234 34.54 24.2234C34.52 23.8234 34.39 23.4534 34.1 23.1634L34.11 23.1534Z" fill="#423D34"/>
<path opacity="0.71" d="M38.04 23.9297C36.11 23.9297 36.11 26.9297 38.04 26.9297C39.97 26.9297 39.97 23.9297 38.04 23.9297Z" fill="#423D34"/>
<path opacity="0.71" d="M46.74 22.5671C46.69 22.3671 46.6 22.1971 46.47 22.0571C46.4 21.9471 46.31 21.8571 46.2 21.7871C46.05 21.6571 45.89 21.5671 45.69 21.5171C45.32 21.4371 44.86 21.4371 44.53 21.6671C44.43 21.7471 44.33 21.8271 44.23 21.9071C44.23 21.9071 44.18 21.9471 44.16 21.9671C44.11 22.0071 44.06 22.0471 44.01 22.0871C43.93 22.1371 43.86 22.1771 43.78 22.2171C43.68 22.2471 43.57 22.2771 43.47 22.2971C43.38 22.2971 43.3 22.3071 43.21 22.2971C43 22.2971 42.81 22.3371 42.63 22.4271C42.44 22.4871 42.28 22.5871 42.15 22.7371C42 22.8771 41.9 23.0371 41.84 23.2171C41.75 23.3971 41.7 23.5871 41.71 23.7971C41.73 24.1871 41.85 24.5871 42.15 24.8571L42.45 25.0871C42.57 25.1571 42.69 25.2071 42.82 25.2371C42.89 25.3071 42.97 25.3671 43.06 25.4171C43.29 25.5571 43.55 25.6171 43.82 25.6171C44.31 25.6671 44.85 25.3971 45.18 25.0471C45.21 25.0171 45.23 24.9871 45.25 24.9571C45.29 24.9271 45.33 24.9071 45.37 24.8671C45.43 24.8071 45.47 24.7371 45.52 24.6771C45.55 24.6571 45.59 24.6371 45.62 24.6171C45.88 24.4371 46.15 24.2371 46.37 23.9971C46.62 23.7171 46.83 23.3271 46.81 22.9371C46.79 22.8071 46.77 22.6671 46.76 22.5371L46.74 22.5671Z" fill="#423D34"/>
<path d="M47.99 153.18C48.36 154 49.39 154.87 51.77 155.25C53.87 155.59 53.86 154.93 56.05 154.89C58.06 154.85 57.61 155.99 61.24 156C62.68 156 63.74 155.27 65.07 155.16C65.68 155.11 67.74 156.65 71.02 155.93C77.39 154.53 78.52 152.02 78.85 151.16C79.27 150.05 77.04 125.68 76.97 122.17C76.9 118.65 83.04 113.07 84.87 92.6599C85.87 81.5299 79.61 58.1899 78.2 52.8999C78.03 52.2499 77.98 51.5699 78.06 50.8999C80.75 29.6599 67.99 6.57988 55.64 7.99988C51.03 8.52988 47.78 10.7899 40.53 11.1499C34.24 11.4599 31.56 7.90988 25.09 9.02988C17.69 10.2999 9.82003 24.6399 8.47003 31.2299C6.83003 39.2499 8.36003 54.2099 28.22 57.3499C28.22 57.3499 26.3 59.3799 25.85 60.0299C16.34 80.0099 16.09 101.56 19.56 110.52C23.03 119.47 30.35 122.85 30.35 122.85C30.35 122.85 31.31 138.45 30.73 142.42C30.15 146.39 28.46 147.02 26.98 147.66C25.78 148.18 23.83 149.81 24.09 152C24.43 154.85 27.44 154.79 27.88 154.79C28.32 154.79 30.73 154.3 32.07 155.37C33.41 156.44 36.47 155.29 37.34 155.05C38.21 154.81 38.67 155.68 40.87 155.64C43.07 155.6 44.16 155.36 45.25 154.9C46.34 154.44 47.97 153.2 47.97 153.2L47.99 153.18Z" stroke="#543816" stroke-width="2.86" stroke-linecap="round" stroke-linejoin="round"/>
<path d="M84.88 96.4285C84.88 96.4285 92.08 95.6985 102.68 109.578C113.28 123.448 120.54 134.968 129.83 137.428C139.11 139.888 145.04 139.118 145.94 140.418C146.84 141.718 146.04 145.478 135.77 148.968C125.5 152.468 93.98 160.278 78.88 141.428L76.88 121.428C76.88 121.428 81.88 113.428 84.88 96.4285Z" stroke="#543816" stroke-width="2.86" stroke-linecap="round" stroke-linejoin="round"/>
</g>
<defs>
<clipPath id="clip0_800_5974">
<rect width="154.15" height="164.06" fill="white"/>
</clipPath>
</defs>
</svg>
