<svg width="35" height="35" viewBox="0 0 35 35" fill="none" xmlns="http://www.w3.org/2000/svg">
<path d="M17.8424 26.5752C18.2053 26.5752 19.3699 26.0914 21.0363 24.5505C23.6836 22.1136 26.7745 17.8313 26.7745 13.7998C26.7745 11.4166 25.8277 9.13101 24.1426 7.44585C22.4574 5.76068 20.1718 4.81396 17.7887 4.81396C15.4055 4.81396 13.1199 5.76068 11.4347 7.44585C9.74958 9.13101 8.80286 11.4166 8.80286 13.7998C8.80286 20.1337 16.1805 26.4408 17.8424 26.5752ZM17.7887 8.44681C18.6356 8.44681 19.4636 8.69796 20.1678 9.16852C20.872 9.63907 21.4209 10.3079 21.7451 11.0904C22.0692 11.8729 22.154 12.7339 21.9887 13.5646C21.8235 14.3953 21.4157 15.1584 20.8168 15.7573C20.2179 16.3562 19.4548 16.764 18.6241 16.9293C17.7934 17.0945 16.9324 17.0097 16.1499 16.6856C15.3674 16.3614 14.6986 15.8126 14.228 15.1083C13.7575 14.4041 13.5063 13.5761 13.5063 12.7292C13.5075 11.5938 13.959 10.5052 14.7619 9.70239C15.5647 8.89955 16.6533 8.44799 17.7887 8.44681ZM27.5539 27.4173C27.5539 28.255 24.1092 29.881 17.7887 29.881C11.4681 29.881 8.02344 28.255 8.02344 27.4173C8.02344 26.8574 9.63604 25.8182 13.2286 25.2806C13.291 25.2708 13.3515 25.2511 13.4078 25.2224C15.092 26.8126 16.7405 27.8339 17.7349 27.9101H17.8603C19.2042 27.9101 21.1617 26.2571 21.9501 25.5315C22.0486 25.4419 22.1472 25.3433 22.2457 25.2448C22.2795 25.2558 22.3139 25.2648 22.3488 25.2717C25.9413 25.8182 27.5539 26.8574 27.5539 27.4173Z" fill="#543816"/>
</svg>
