<svg width="620" height="327" viewBox="0 0 620 327" fill="none" xmlns="http://www.w3.org/2000/svg">
<g clip-path="url(#clip0_800_6360)">
<mask id="mask0_800_6360" style="mask-type:luminance" maskUnits="userSpaceOnUse" x="0" y="0" width="620" height="327">
<path d="M599.19 0H20.76C9.29457 0 0 9.29457 0 20.76V305.53C0 316.995 9.29457 326.29 20.76 326.29H599.19C610.655 326.29 619.95 316.995 619.95 305.53V20.76C619.95 9.29457 610.655 0 599.19 0Z" fill="white"/>
</mask>
<g mask="url(#mask0_800_6360)">
<path d="M634 -15.7109H-14.5098V336.289H634V-15.7109Z" fill="#F7F3F2"/>
<path d="M209.16 -2.93094C209.16 -2.93094 166 188.289 -18 211.289V-9.71094L209.16 -2.93094Z" fill="#EBE7E4"/>
<path d="M-7 327.289L629 327.289V272.289L-7 272.289V327.289Z" fill="#BAA493"/>
</g>
<path d="M35.2002 39.0703V200.29H147.16V39.0703H35.2002ZM143.17 196.3H39.2002V43.0603H143.17V196.29V196.3Z" fill="#C6B6A7" stroke="#84705A" stroke-width="2" stroke-miterlimit="10"/>
<path d="M143.17 43.0625H39.2002V196.292H143.17V43.0625Z" fill="white"/>
<path d="M93.3601 44.1094H89.3701V198.299H93.3601V44.1094Z" fill="#C6B6A7" stroke="#84705A" stroke-width="2" stroke-miterlimit="10"/>
<path d="M31.58 52.7109L150.79 52.7109V47.1509L31.58 47.1509V52.7109Z" fill="#E0D5CD" stroke="#84705A" stroke-width="2" stroke-linecap="round" stroke-linejoin="round"/>
<path d="M31.58 58.9688L150.79 58.9688V53.4088L31.58 53.4088V58.9688Z" fill="#E0D5CD" stroke="#84705A" stroke-width="2" stroke-linecap="round" stroke-linejoin="round"/>
<path d="M31.58 65.2188L150.79 65.2188V59.6587L31.58 59.6587V65.2188Z" fill="#E0D5CD" stroke="#84705A" stroke-width="2" stroke-linecap="round" stroke-linejoin="round"/>
<path d="M31.58 71.4688L150.79 71.4688V65.9087L31.58 65.9087V71.4688Z" fill="#E0D5CD" stroke="#84705A" stroke-width="2" stroke-linecap="round" stroke-linejoin="round"/>
<path d="M31.58 77.7422L150.79 77.7422V72.1822L31.58 72.1822V77.7422Z" fill="#E0D5CD" stroke="#84705A" stroke-width="2" stroke-linecap="round" stroke-linejoin="round"/>
<path d="M31.58 83.9922L150.79 83.9922V78.4322L31.58 78.4322V83.9922Z" fill="#E0D5CD" stroke="#84705A" stroke-width="2" stroke-linecap="round" stroke-linejoin="round"/>
<path d="M31.58 90.25L150.79 90.25V84.69L31.58 84.69V90.25Z" fill="#E0D5CD" stroke="#84705A" stroke-width="2" stroke-linecap="round" stroke-linejoin="round"/>
<path d="M31.58 96.5078L150.79 96.5078V90.9478L31.58 90.9478V96.5078Z" fill="#E0D5CD" stroke="#84705A" stroke-width="2" stroke-linecap="round" stroke-linejoin="round"/>
<path d="M31.58 102.773L150.79 102.773V97.2134L31.58 97.2134V102.773Z" fill="#E0D5CD" stroke="#84705A" stroke-width="2" stroke-linecap="round" stroke-linejoin="round"/>
<path d="M50.72 46.0234H49.79V148.513H50.72V46.0234Z" fill="#84705A"/>
<path d="M48.6001 152.854H51.9101L51.0801 148.094H49.4301L48.6001 152.854Z" fill="#84705A"/>
<path d="M47.3597 46.0234H46.4297V184.803H47.3597V46.0234Z" fill="#84705A"/>
<path d="M45.2402 188.289H48.5502L47.7202 183.539H46.0702L45.2402 188.289Z" fill="#84705A"/>
<path d="M25.3802 49.9297L156.99 49.9297V38.2897L25.3802 38.2897V49.9297Z" fill="#BFAD9B" stroke="#84705A" stroke-width="2" stroke-linecap="round" stroke-linejoin="round"/>
<path d="M224.583 74.0808C229.64 61.6078 223.629 47.3969 211.156 42.3397C198.683 37.2826 184.472 43.2943 179.415 55.7673C174.357 68.2402 180.369 82.4512 192.842 87.5083C205.315 92.5655 219.526 86.5537 224.583 74.0808Z" fill="#84705A"/>
<path d="M215.224 85.2915C226.19 78.6005 229.655 64.2866 222.964 53.3206C216.273 42.3546 201.959 38.889 190.993 45.5801C180.027 52.2711 176.562 66.585 183.253 77.551C189.944 88.517 204.258 91.9826 215.224 85.2915Z" fill="#BFAD9B"/>
<path d="M214.851 83.8404C224.991 77.3602 227.959 63.8865 221.479 53.7459C214.998 43.6053 201.525 40.638 191.384 47.1182C181.244 53.5983 178.276 67.0721 184.756 77.2127C191.237 87.3533 204.71 90.3206 214.851 83.8404Z" fill="white"/>
<path d="M203.32 45.25H202.9V48.55H203.32V45.25Z" fill="#BFAD9B"/>
<path d="M193.184 47.8525L192.82 48.0625L194.47 50.9204L194.834 50.7104L193.184 47.8525Z" fill="#BFAD9B"/>
<path d="M185.699 55.1597L185.489 55.5234L188.347 57.1734L188.557 56.8097L185.699 55.1597Z" fill="#BFAD9B"/>
<path d="M186.2 65.25H182.9V65.67H186.2V65.25Z" fill="#BFAD9B"/>
<path d="M188.365 73.7484L185.507 75.3984L185.717 75.7622L188.575 74.1122L188.365 73.7484Z" fill="#BFAD9B"/>
<path d="M194.468 79.9928L192.819 82.8516L193.183 83.0614L194.832 80.2026L194.468 79.9928Z" fill="#BFAD9B"/>
<path d="M203.32 82.3594H202.9V85.6594H203.32V82.3594Z" fill="#BFAD9B"/>
<path d="M211.738 80.0009L211.375 80.2109L213.025 83.0688L213.388 82.8588L211.738 80.0009Z" fill="#BFAD9B"/>
<path d="M217.843 73.7144L217.633 74.0781L220.491 75.7281L220.701 75.3644L217.843 73.7144Z" fill="#BFAD9B"/>
<path d="M223.31 65.25H220.01V65.67H223.31V65.25Z" fill="#BFAD9B"/>
<path d="M220.499 55.1698L217.641 56.8203L217.851 57.184L220.709 55.5335L220.499 55.1698Z" fill="#BFAD9B"/>
<path d="M213.032 47.8678L211.383 50.7266L211.747 50.9364L213.396 48.0776L213.032 47.8678Z" fill="#BFAD9B"/>
<path d="M203.42 46.7522L204.14 66.9322L202.07 66.9022L202.86 46.7422L203.42 46.7522Z" fill="#BFAD9B"/>
<path d="M216 58.4197L202.42 67.0897L201.43 65.2697L215.73 57.9297L216 58.4197Z" fill="#BFAD9B"/>
<path d="M203.81 65.46C203.81 65.85 203.49 66.17 203.1 66.17C202.71 66.17 202.39 65.85 202.39 65.46C202.39 65.07 202.71 64.75 203.1 64.75C203.49 64.75 203.81 65.07 203.81 65.46Z" fill="#BFAD9B"/>
<path d="M455.6 103.133H337.93V279.293H455.6V103.133Z" fill="#D3C7BC" stroke="#84705A" stroke-width="2" stroke-linecap="round" stroke-linejoin="round"/>
<path d="M445.53 113.578H348.01V270.308H445.53V113.578Z" fill="white"/>
<path d="M445.53 156.148H348.01V157.578H445.53V156.148Z" fill="#BFAD9B"/>
<path d="M445.53 192.891H348.01V194.321H445.53V192.891Z" fill="#BFAD9B"/>
<path d="M445.53 229.633H348.01V231.063H445.53V229.633Z" fill="#BFAD9B"/>
<path d="M397.88 113.578H395.64V270.308H397.88V113.578Z" fill="#BFAD9B"/>
<path d="M400.06 192.891H411.61V174.751H400.06V192.891Z" fill="#EDE3DA"/>
<path d="M398.48 174.75H413.2V171.66H398.48V174.75Z" fill="#93C8C8"/>
<path d="M401.54 189.93H410.13V178.75H401.54V189.93Z" fill="#93C8C8"/>
<path d="M415.63 192.891H427.18V174.751H415.63V192.891Z" fill="#EDE3DA"/>
<path d="M414.04 174.75H428.76V171.66H414.04V174.75Z" fill="#93C8C8"/>
<path d="M417.11 189.93H425.7V178.75H417.11V189.93Z" fill="#93C8C8"/>
<path d="M431.21 192.891H442.76V174.751H431.21V192.891Z" fill="#EDE3DA"/>
<path d="M429.62 174.75H444.34V171.66H429.62V174.75Z" fill="#93C8C8"/>
<path d="M432.68 189.93H441.27V178.75H432.68V189.93Z" fill="#93C8C8"/>
<path d="M365.34 229.641H350.03V214.641C350.03 212.111 352.08 210.061 354.61 210.061H360.76C363.29 210.061 365.34 212.111 365.34 214.641V229.641Z" fill="#EDE3DA"/>
<path d="M353.24 210.109H362.12V208.109H353.24V210.109Z" fill="#EDE3DA"/>
<path d="M350.98 208.109H364.38V205.979H350.98V208.109Z" fill="#D3C7BC"/>
<path d="M352.47 225.359H365.33V214.789H352.47V225.359Z" fill="#93C8C8"/>
<path d="M382.46 229.641H367.15V214.641C367.15 212.111 369.2 210.061 371.73 210.061H377.88C380.41 210.061 382.46 212.111 382.46 214.641V229.641Z" fill="#EDE3DA"/>
<path d="M370.36 210.109H379.24V208.109H370.36V210.109Z" fill="#EDE3DA"/>
<path d="M368.1 208.109H381.5V205.979H368.1V208.109Z" fill="#D3C7BC"/>
<path d="M369.59 225.359H382.45V214.789H369.59V225.359Z" fill="#93C8C8"/>
<path d="M388.96 156.151H354.56C352.58 156.151 350.98 154.641 350.98 152.771C350.98 150.901 352.58 149.391 354.56 149.391H388.96C390.94 149.391 392.54 150.901 392.54 152.771C392.54 154.641 390.94 156.151 388.96 156.151Z" fill="#93C8C8"/>
<path d="M388.96 148.947H354.56C352.58 148.947 350.98 147.438 350.98 145.568C350.98 143.698 352.58 142.188 354.56 142.188H388.96C390.94 142.188 392.54 143.698 392.54 145.568C392.54 147.438 390.94 148.947 388.96 148.947Z" fill="#93C8C8"/>
<path d="M388.36 141.762H355.15C353.73 141.762 352.58 140.672 352.58 139.342C352.58 138.002 353.73 136.922 355.15 136.922H388.36C389.78 136.922 390.93 138.012 390.93 139.342C390.93 140.682 389.78 141.762 388.36 141.762Z" fill="#B8E0DF"/>
<path d="M388.36 136.481H355.15C353.73 136.481 352.58 135.401 352.58 134.061C352.58 132.721 353.73 131.641 355.15 131.641H388.36C389.78 131.641 390.93 132.731 390.93 134.061C390.93 135.401 389.78 136.481 388.36 136.481Z" fill="#B8E0DF"/>
<path d="M517.2 193.922H199.37V200.412H517.2V193.922Z" fill="#AD9C8E" stroke="#84705A" stroke-width="2" stroke-linecap="round" stroke-linejoin="round"/>
<path d="M503.94 200.406H212.63V298.286H503.94V200.406Z" fill="#D3C7BC" stroke="#84705A" stroke-width="2" stroke-linecap="round" stroke-linejoin="round"/>
<path d="M363.57 234.289H352.99V273.249H363.57V234.289Z" fill="white"/>
<path d="M377.76 259.049V248.469H338.8V259.049H377.76Z" fill="white"/>
<path d="M258 215.289H227V253.289H258V215.289Z" fill="#93C8C8" stroke="#84705A" stroke-width="2" stroke-miterlimit="10"/>
<path d="M282 239.289H251V277.289H282V239.289Z" fill="#B8E0DF" stroke="#84705A" stroke-width="2" stroke-miterlimit="10"/>
</g>
<defs>
<clipPath id="clip0_800_6360">
<rect width="619.95" height="326.29" rx="35" fill="white"/>
</clipPath>
</defs>
</svg>
