<svg width="620" height="327" viewBox="0 0 620 327" fill="none" xmlns="http://www.w3.org/2000/svg">
<g clip-path="url(#clip0_837_5774)">
<path d="M-627.98 576.538C-627.98 576.538 -642.15 300.958 -439.08 307.268C-236.01 313.578 -228.17 123.888 -66.8599 126.018C94.4401 128.148 183.13 223.518 221.14 300.498C259.15 377.488 290.49 586.998 290.49 586.998L-627.97 576.538H-627.98Z" fill="#EBE7E4"/>
<path d="M631.79 -6H-11.4897V333H631.79V-6Z" fill="#F7F3F2"/>
<path d="M-518.09 516.022C-518.09 516.022 -530.25 279.592 -356.02 285.002C-181.8 290.412 -175.06 127.672 -36.67 129.492C101.72 131.312 177.81 213.142 210.42 279.192C243.03 345.242 269.92 525.002 269.92 525.002L-518.09 516.022Z" fill="#EBE7E4"/>
<path d="M-4 333L632 333V278L-4 278V333Z" fill="#BAA493"/>
<path d="M191.65 103.25L241.35 144.48H222.43L190.52 121.89L191.65 103.25Z" fill="white"/>
<path d="M191.37 83.7734L261.96 143.633L254.05 144.203L190.52 91.9634L191.37 83.7734Z" fill="white"/>
<path d="M260 46L327.46 46.22L385.91 82.92L386 128L260 46Z" fill="white"/>
<path d="M190.19 45.1875V145.277H387.07V45.1875H190.19ZM330.85 47.2775V143.188H232.12V47.2775H330.85ZM384.99 143.188H332.94V47.2775H384.99V143.188ZM192.28 47.2775H230.03V143.188H192.28V47.2775Z" fill="#C6B6A7"/>
<path d="M190 45H387.27V145.47H190V45ZM386.88 45.38H190.38V145.08H386.88V45.38ZM192.09 47.08H230.23V143.37H192.09V47.09V47.08ZM229.84 47.46H192.47V142.98H229.84V47.46ZM231.93 47.08H331.04V143.37H231.93V47.09V47.08ZM330.66 47.46H232.32V142.98H330.66V47.46ZM332.75 47.08H385.18V143.37H332.75V47.09V47.08ZM384.8 47.46H333.14V142.98H384.8V47.46Z" fill="#C6B6A7"/>
<path d="M20.2599 307.047L382.13 307.047V219.407L20.2599 219.407V307.047Z" fill="#D3C7BC" stroke="#84705A" stroke-width="2" stroke-linecap="round" stroke-linejoin="round"/>
<path d="M337.75 297.508H371.68V220.088H337.75V297.508Z" fill="#BAADA0"/>
<path d="M161.88 297.508H195.81V220.088H161.88V297.508Z" fill="#BAADA0"/>
<path d="M-22.1197 307.047H20.2603L20.2603 220.087H-22.1197L-22.1197 307.047Z" fill="#BAAA9D" stroke="#84705A" stroke-width="2" stroke-linecap="round" stroke-linejoin="round"/>
<path d="M-22.4399 219.852H20.5901V307.282H-22.4399V219.852ZM19.9401 220.322H-21.7999V306.812H19.9401V220.322Z" fill="#BAAA9D" stroke="#84705A" stroke-width="2" stroke-linecap="round" stroke-linejoin="round"/>
<path d="M-36 220.09H20.5V297.53V305.15V307.05H382.13V305.15V297.53V220.09H407.19V211H-35.7L-36 220.09ZM371.69 297.53H205.84V220.09H371.69V297.53ZM30.94 220.09H195.81V297.53H30.94V220.09Z" fill="#D3C7BC" stroke="#84705A" stroke-width="2" stroke-linecap="round" stroke-linejoin="round"/>
<path d="M235.88 297.288H268.21V261.958C264.96 258.708 263.14 256.888 259.9 253.648H235.88V297.288Z" fill="#D3C7BC" stroke="#84705A" stroke-width="2" stroke-linecap="round" stroke-linejoin="round"/>
<path d="M243.19 297.288H275.52V262.808C271.94 259.228 269.94 257.228 266.36 253.648H243.19V297.288Z" fill="#ABC592" stroke="#84705A" stroke-width="2" stroke-linecap="round" stroke-linejoin="round"/>
<path d="M251.12 292.523H267.26C268.293 292.523 269.13 291.686 269.13 290.653V279.873C269.13 278.841 268.293 278.003 267.26 278.003H251.12C250.087 278.003 249.25 278.841 249.25 279.873V290.653C249.25 291.686 250.087 292.523 251.12 292.523Z" fill="#F7F3F2"/>
<path d="M283.88 297.288H316.21V261.958C312.96 258.708 311.14 256.888 307.9 253.648H283.88V297.288Z" fill="#D3C7BC" stroke="#84705A" stroke-width="2" stroke-linecap="round" stroke-linejoin="round"/>
<path d="M291.19 297.288H323.52V262.808C319.94 259.228 317.94 257.228 314.36 253.648H291.19V297.288Z" fill="#ABC592" stroke="#84705A" stroke-width="2" stroke-linecap="round" stroke-linejoin="round"/>
<path d="M299.12 292.523H315.26C316.293 292.523 317.13 291.686 317.13 290.653V279.873C317.13 278.841 316.293 278.003 315.26 278.003H299.12C298.087 278.003 297.25 278.841 297.25 279.873V290.653C297.25 291.686 298.087 292.523 299.12 292.523Z" fill="#F7F3F2"/>
<path d="M23.1301 99.4766L161.12 99.4766V91.7266L23.1301 91.7266V99.4766Z" fill="#AFA094" stroke="#84705A" stroke-width="1.5" stroke-linecap="round" stroke-linejoin="round"/>
<path d="M50.6302 106.367L44.6602 106.327L44.7102 99.4766L53.3802 99.5366L50.6302 106.367Z" fill="#AFA094" stroke="#84705A" stroke-width="1.5" stroke-linecap="round" stroke-linejoin="round"/>
<path d="M147.46 106.347L141.49 106.387L141.45 99.5366L150.13 99.4766L147.46 106.347Z" fill="#AFA094" stroke="#84705A" stroke-width="1.5" stroke-linecap="round" stroke-linejoin="round"/>
<path d="M132.87 89.2938C132.87 89.2938 131.65 71.9338 131.28 68.8838C130.91 65.8338 128.15 66.0738 128.15 66.0738V65.3438H126.19H125.14H123.18V66.0738C123.18 66.0738 120.42 65.8338 120.05 68.8838C119.68 71.9338 118.46 89.2938 118.46 89.2938C118.46 89.2938 117.97 91.7338 120.98 91.7338H125.14C125.8 91.7338 126.19 91.7338 126.19 91.7338H130.35C133.36 91.7338 132.87 89.2938 132.87 89.2938Z" fill="#ABC592" stroke="#84705A" stroke-width="1.5" stroke-linecap="round" stroke-linejoin="round"/>
<path d="M130.3 85.4522C130.3 85.4522 129.52 74.2922 129.28 72.3422C129.04 70.3822 127.27 70.5422 127.27 70.5422H124.08C124.08 70.5422 122.3 70.3822 122.07 72.3422C121.83 74.3022 121.05 85.4522 121.05 85.4522C121.05 85.4522 120.74 87.0222 122.67 87.0222H125.34C125.76 87.0222 126.01 87.0222 126.01 87.0222H128.68C130.61 87.0222 130.3 85.4522 130.3 85.4522Z" fill="#F9F2E8" stroke="#84705A" stroke-width="1.5" stroke-miterlimit="10"/>
<path d="M128.22 63.1328H123.12C122.905 63.1328 122.73 63.3074 122.73 63.5228V65.0228C122.73 65.2382 122.905 65.4128 123.12 65.4128H128.22C128.435 65.4128 128.61 65.2382 128.61 65.0228V63.5228C128.61 63.3074 128.435 63.1328 128.22 63.1328Z" fill="#F9F2E8" stroke="#84705A" stroke-width="1.5" stroke-linecap="round" stroke-linejoin="round"/>
<path d="M149.87 89.2938C149.87 89.2938 148.65 71.9338 148.28 68.8838C147.91 65.8338 145.15 66.0738 145.15 66.0738V65.3438H143.19H142.14H140.18V66.0738C140.18 66.0738 137.42 65.8338 137.05 68.8838C136.68 71.9338 135.46 89.2938 135.46 89.2938C135.46 89.2938 134.97 91.7338 137.98 91.7338H142.14C142.8 91.7338 143.19 91.7338 143.19 91.7338H147.35C150.36 91.7338 149.87 89.2938 149.87 89.2938Z" fill="#ABC592" stroke="#84705A" stroke-width="1.5" stroke-linecap="round" stroke-linejoin="round"/>
<path d="M147.3 85.4522C147.3 85.4522 146.52 74.2922 146.28 72.3422C146.04 70.3822 144.27 70.5422 144.27 70.5422H141.08C141.08 70.5422 139.3 70.3822 139.07 72.3422C138.83 74.3022 138.05 85.4522 138.05 85.4522C138.05 85.4522 137.74 87.0222 139.67 87.0222H142.34C142.76 87.0222 143.01 87.0222 143.01 87.0222H145.68C147.61 87.0222 147.3 85.4522 147.3 85.4522Z" fill="#F9F2E8" stroke="#84705A" stroke-width="1.5" stroke-miterlimit="10"/>
<path d="M145.22 63.1328H140.12C139.905 63.1328 139.73 63.3074 139.73 63.5228V65.0228C139.73 65.2382 139.905 65.4128 140.12 65.4128H145.22C145.435 65.4128 145.61 65.2382 145.61 65.0228V63.5228C145.61 63.3074 145.435 63.1328 145.22 63.1328Z" fill="#F9F2E8" stroke="#84705A" stroke-width="1.5" stroke-linecap="round" stroke-linejoin="round"/>
<path d="M158.87 89.2938C158.87 89.2938 157.65 71.9338 157.28 68.8838C156.91 65.8338 154.15 66.0738 154.15 66.0738V65.3438H152.19H151.14H149.18V66.0738C149.18 66.0738 146.42 65.8338 146.05 68.8838C145.68 71.9338 144.46 89.2938 144.46 89.2938C144.46 89.2938 143.97 91.7338 146.98 91.7338H151.14C151.8 91.7338 152.19 91.7338 152.19 91.7338H156.35C159.36 91.7338 158.87 89.2938 158.87 89.2938Z" fill="#ABC592" stroke="#84705A" stroke-width="1.5" stroke-linecap="round" stroke-linejoin="round"/>
<path d="M156.3 85.4522C156.3 85.4522 155.52 74.2922 155.28 72.3422C155.04 70.3822 153.27 70.5422 153.27 70.5422H150.08C150.08 70.5422 148.3 70.3822 148.07 72.3422C147.83 74.3022 147.05 85.4522 147.05 85.4522C147.05 85.4522 146.74 87.0222 148.67 87.0222H151.34C151.76 87.0222 152.01 87.0222 152.01 87.0222H154.68C156.61 87.0222 156.3 85.4522 156.3 85.4522Z" fill="#F9F2E8" stroke="#84705A" stroke-width="1.5" stroke-miterlimit="10"/>
<path d="M154.22 63.1328H149.12C148.905 63.1328 148.73 63.3074 148.73 63.5228V65.0228C148.73 65.2382 148.905 65.4128 149.12 65.4128H154.22C154.435 65.4128 154.61 65.2382 154.61 65.0228V63.5228C154.61 63.3074 154.435 63.1328 154.22 63.1328Z" fill="#F9F2E8" stroke="#84705A" stroke-width="1.5" stroke-linecap="round" stroke-linejoin="round"/>
<path d="M35.7903 99.4766L173.78 99.4766V91.7266L35.7903 91.7266V99.4766Z" fill="#D3C7BC" stroke="#84705A" stroke-width="1.5" stroke-linecap="round" stroke-linejoin="round"/>
<path d="M-35.8699 165.477L102.12 165.477V157.727L-35.8699 157.727V165.477Z" fill="#AFA094" stroke="#84705A" stroke-width="1.5" stroke-linecap="round" stroke-linejoin="round"/>
<path d="M88.4602 172.347L82.4902 172.387L82.4502 165.537L91.1302 165.477L88.4602 172.347Z" fill="#AFA094" stroke="#84705A" stroke-width="1.5" stroke-linecap="round" stroke-linejoin="round"/>
<path d="M-23.2097 165.477L114.78 165.477V157.727L-23.2097 157.727V165.477Z" fill="#D3C7BC" stroke="#84705A" stroke-width="1.5" stroke-linecap="round" stroke-linejoin="round"/>
<path d="M195.6 176.089C195.6 181.969 197.34 187.439 200.33 192.019C203.25 196.489 207.36 200.109 212.22 202.439C212.41 202.529 212.6 202.629 212.81 202.709C213.52 203.039 214.24 203.329 214.98 203.589C217.36 204.439 219.88 204.979 222.5 205.179C223.38 205.259 224.27 205.289 225.16 205.269C226.03 205.269 226.87 205.209 227.72 205.119C229.89 204.909 231.99 204.449 233.99 203.769C234.88 203.479 235.76 203.129 236.6 202.749C237.16 202.499 237.7 202.239 238.23 201.959C239.84 201.119 241.37 200.129 242.79 199.009C249.42 193.789 253.77 185.769 253.99 176.789C254.04 174.369 253.81 172.009 253.31 169.749C253.31 169.749 253.31 169.729 253.31 169.719C253.31 169.719 253.31 169.699 253.3 169.689C253.21 169.539 252.7 169.399 251.81 169.269C251.74 169.269 251.66 169.249 251.58 169.239C251.42 169.219 251.25 169.199 251.08 169.179C250.91 169.159 250.71 169.129 250.52 169.109C250.42 169.099 250.32 169.089 250.22 169.079C250.11 169.069 250.01 169.059 249.9 169.049C246.76 168.759 241.67 168.529 235.51 168.399C234.24 168.369 232.91 168.349 231.55 168.329C229.39 168.299 227.14 168.289 224.81 168.289C223.12 168.289 221.47 168.289 219.87 168.309C208.63 168.409 199.65 168.849 197.07 169.399C196.57 169.509 196.31 169.619 196.31 169.729C196.29 169.829 196.26 169.929 196.24 170.029C195.83 171.979 195.61 173.999 195.61 176.069L195.6 176.089Z" fill="#93C8C8"/>
<path d="M200.33 192.029C203.25 196.499 207.36 200.119 212.22 202.449C212.41 202.539 212.6 202.639 212.81 202.719C213.52 203.049 214.24 203.339 214.98 203.599C217.36 204.449 219.88 204.989 222.5 205.189C223.38 205.269 224.27 205.299 225.16 205.279C226.03 205.279 226.87 205.219 227.72 205.129C229.89 204.919 231.99 204.459 233.99 203.779C234.88 203.489 235.76 203.139 236.6 202.759C237.16 202.509 237.7 202.249 238.23 201.969C239.84 201.129 241.37 200.139 242.79 199.019C239.92 191.979 230.17 186.789 218.59 186.789C211.38 186.789 204.89 188.799 200.32 192.009L200.33 192.029Z" fill="#65A09E"/>
<path d="M232.7 192.568L228.17 199.608C228.17 199.608 224.59 191.688 232.7 192.568Z" fill="#84705A"/>
<path d="M219.31 179.848C219.81 180.318 220.32 180.808 220.82 181.268C222.38 178.848 225.09 177.248 228.18 177.248C230.75 177.248 233.36 179.728 235.24 182.048C233.42 179.458 230.12 175.508 226.87 175.508C223.62 175.508 220.83 177.248 219.31 179.848Z" fill="#84705A" stroke="#84705A" stroke-width="0.75" stroke-linecap="round" stroke-linejoin="round"/>
<path d="M214.56 181.19L218.22 183.07L219.71 183.84C220.67 180.05 224.1 177.25 228.18 177.25C230.75 177.25 233.36 179.73 235.24 182.05C236.89 184.09 237.97 186 237.97 186C237.97 186 233.01 194.75 228.18 194.75C226.66 194.75 225.24 194.36 223.99 193.68C222.57 192.9 221.38 191.74 220.58 190.33C220.25 189.76 220 189.14 219.81 188.5L218.22 189.32L214.56 191.2L215.64 185.91L214.56 181.18V181.19Z" fill="#F9EBDC"/>
<path d="M232.12 185.421C232.17 186.091 232.75 186.601 233.42 186.551C234.09 186.501 234.6 185.921 234.55 185.251C234.5 184.581 233.92 184.071 233.25 184.121C232.58 184.171 232.07 184.751 232.12 185.421Z" fill="#59493A" stroke="#84705A" stroke-width="0.75" stroke-linecap="round" stroke-linejoin="round"/>
<path d="M234.11 191.211L232.29 199.381C232.29 199.381 226.2 193.181 234.11 191.211Z" fill="#84705A" stroke="#84705A" stroke-width="0.75" stroke-linecap="round" stroke-linejoin="round"/>
<path d="M215.64 185.917L214.56 191.208L216.48 190.227L218.45 186.007L216.52 182.197L214.56 181.188L215.64 185.917Z" fill="#84705A" stroke="#84705A" stroke-width="0.75" stroke-linecap="round" stroke-linejoin="round"/>
<path d="M230.52 191.079L231.97 189.259C232.07 189.129 232.05 188.949 231.92 188.849C231.8 188.749 231.61 188.769 231.51 188.899L230.81 189.779L230.39 188.049L229.54 186.919L230.64 186.979C230.8 186.999 230.94 186.869 230.94 186.709C230.94 186.549 230.83 186.409 230.67 186.409L228.32 186.289L229.89 188.359L230.51 191.099L230.52 191.079Z" fill="#84705A"/>
<path d="M224 193.979C224.1 193.979 224.2 193.929 224.25 193.829C224.33 193.689 224.28 193.509 224.13 193.439C222.75 192.689 221.61 191.569 220.83 190.199C220.1 188.929 219.72 187.479 219.72 186.009C219.72 185.849 219.59 185.719 219.43 185.719C219.27 185.719 219.14 185.849 219.14 186.009C219.14 187.579 219.55 189.129 220.33 190.489C221.16 191.949 222.38 193.139 223.86 193.949C223.9 193.969 223.95 193.989 224 193.989V193.979Z" fill="#84705A" stroke="#84705A" stroke-width="0.75" stroke-linecap="round" stroke-linejoin="round"/>
<path d="M238.82 182.532C238.82 181.882 239.35 181.352 240 181.352C240.65 181.352 241.18 181.882 241.18 182.532C241.18 183.182 240.65 183.712 240 183.712C239.35 183.712 238.82 183.182 238.82 182.532ZM239.4 182.532C239.4 182.862 239.67 183.132 240 183.132C240.33 183.132 240.6 182.862 240.6 182.532C240.6 182.202 240.33 181.932 240 181.932C239.67 181.932 239.4 182.202 239.4 182.532Z" fill="white"/>
<path d="M235.03 176.488C235.03 175.158 236.11 174.078 237.44 174.078C238.77 174.078 239.85 175.158 239.85 176.488C239.85 177.818 238.77 178.898 237.44 178.898C236.11 178.898 235.03 177.818 235.03 176.488ZM235.61 176.488C235.61 177.498 236.43 178.318 237.44 178.318C238.45 178.318 239.27 177.498 239.27 176.488C239.27 175.478 238.45 174.658 237.44 174.658C236.43 174.658 235.61 175.478 235.61 176.488Z" fill="white"/>
<path d="M223.27 188.2C225.42 191 223.48 195.54 228.34 198.21C231.95 200.2 233.46 202.66 234 203.79C235.46 203.3 236.88 202.69 238.24 201.98C237.77 199.49 236.5 195.93 233.05 195.68C227.7 195.29 233.1 187.53 226.72 184.68C220.33 181.83 221.12 185.4 223.28 188.19L223.27 188.2Z" fill="#ABC592"/>
<path d="M206.64 194.451C207.86 196.021 206.76 198.591 209.51 200.101C210.9 200.861 211.74 201.751 212.23 202.441C213.13 202.871 214.05 203.261 214.99 203.591H215.25C215.25 203.591 215.18 198.881 212.16 198.661C209.14 198.441 212.2 194.061 208.59 192.451C204.98 190.841 205.43 192.861 206.64 194.441V194.451Z" fill="#ABC592"/>
<path d="M209.56 186.258C212.13 189.598 209.81 195.018 215.61 198.208C220.32 200.798 222.03 204.068 222.51 205.198C223.39 205.278 224.28 205.298 225.17 205.288C226.03 205.288 226.88 205.228 227.72 205.138C227.6 203.198 226.77 195.588 221.21 195.188C214.83 194.728 221.28 185.468 213.66 182.078C206.04 178.678 206.99 182.938 209.56 186.268V186.258Z" fill="#ABC592"/>
<path d="M196.85 170.328C196.42 170.228 196.02 170.088 196.02 169.748C196.02 169.408 196.4 169.258 197.01 169.128C199.67 168.558 208.64 168.128 219.87 168.028C221.47 168.018 223.12 168.008 224.81 168.008C227.14 168.008 229.4 168.018 231.55 168.048C232.91 168.058 234.23 168.088 235.51 168.118C241.63 168.248 246.74 168.478 249.93 168.768L250.23 168.798C250.34 168.798 250.44 168.808 250.54 168.828C250.67 168.838 250.8 168.858 250.92 168.868L251.1 168.888C251.28 168.908 251.45 168.928 251.62 168.948C251.69 168.958 251.77 168.968 251.85 168.978C253.24 169.188 253.45 169.368 253.56 169.548C253.56 169.548 253.56 169.568 253.57 169.578L253.61 169.628V169.808C253.54 170.128 253.43 170.618 244.88 171.038C239.5 171.308 232.37 171.458 224.8 171.458C211.39 171.458 199.63 170.978 196.84 170.308L196.85 170.328ZM251.79 169.568C251.71 169.568 251.62 169.548 251.55 169.538C251.39 169.518 251.23 169.498 251.05 169.478L250.86 169.458C250.74 169.448 250.62 169.428 250.48 169.418C250.39 169.408 250.29 169.398 250.18 169.388L249.87 169.358C246.71 169.068 241.61 168.838 235.5 168.708C234.23 168.678 232.91 168.658 231.55 168.638C229.4 168.608 227.14 168.598 224.82 168.598C223.13 168.598 221.48 168.598 219.88 168.618C208.86 168.718 199.72 169.148 197.13 169.698C197.05 169.718 196.98 169.728 196.92 169.748C196.94 169.748 196.96 169.758 196.99 169.768C199.74 170.428 211.45 170.898 224.82 170.898C239.61 170.898 250.6 170.328 252.75 169.758C252.56 169.708 252.26 169.648 251.79 169.578V169.568Z" fill="#84705A" stroke="#84705A" stroke-width="0.75" stroke-linecap="round" stroke-linejoin="round"/>
<path d="M212.81 203.007L212.7 202.988C212.49 202.898 212.29 202.808 212.1 202.708C201.91 197.838 195.32 187.388 195.32 176.098C195.32 174.048 195.53 171.988 195.96 169.988L196.11 169.367C196.14 169.207 196.2 169.007 196.28 168.757C197.13 165.917 199.79 163.938 202.75 163.938H246.91C249.95 163.938 252.62 165.957 253.42 168.887L253.44 168.958C253.49 169.188 253.55 169.418 253.59 169.628L253.61 169.697C254.12 171.997 254.35 174.387 254.29 176.807C254.03 187.487 247.93 197.237 238.38 202.227C237.91 202.477 237.39 202.728 236.74 203.018L236.68 203.048L212.82 202.997L212.81 203.007ZM202.73 164.518C200.02 164.518 197.59 166.327 196.81 168.927C196.74 169.157 196.68 169.338 196.65 169.488L196.5 170.107C196.09 172.067 195.88 174.077 195.88 176.087C195.88 187.157 202.34 197.397 212.33 202.177C212.5 202.257 212.68 202.347 212.86 202.417L236.54 202.467C237.16 202.188 237.65 201.947 238.1 201.717C247.47 196.817 253.45 187.267 253.71 176.787C253.76 174.417 253.54 172.077 253.04 169.827L253.02 169.757C252.97 169.537 252.92 169.307 252.86 169.077C252.85 169.047 252.84 169.017 252.83 168.997C252.11 166.357 249.66 164.507 246.89 164.507H202.73V164.518Z" fill="#84705A" stroke="#84705A" stroke-width="0.75" stroke-linecap="round" stroke-linejoin="round"/>
<path d="M211.15 210.179H238.26L236.6 202.719H212.81L211.15 210.179Z" fill="#84705A"/>
<path d="M212.58 202.43H236.83L238.62 210.46H210.78L212.57 202.43H212.58ZM236.37 203.01H213.04L211.51 209.89H237.9L236.37 203.01Z" fill="#84705A"/>
<path d="M138.45 272.891C141.16 272.891 143.36 275.091 143.36 277.801V294.231C143.36 295.581 142.26 296.681 140.91 296.681H135.26C133.93 296.681 132.85 295.601 132.85 294.271V278.481C132.85 275.391 135.36 272.891 138.44 272.891H138.45Z" fill="#BAADA0"/>
<path d="M139.36 274.322H136.74C136.33 274.322 136.01 273.972 136.04 273.562L136.44 268.882C136.47 268.522 136.77 268.242 137.14 268.242H138.91C139.27 268.242 139.57 268.512 139.61 268.872L140.06 273.552C140.1 273.962 139.78 274.322 139.36 274.322Z" fill="#BAADA0"/>
<path d="M139.55 272.132H136.54C136.07 272.132 135.7 271.832 135.74 271.472L136.19 267.412C136.23 267.102 136.57 266.852 136.99 266.852H139.02C139.43 266.852 139.78 267.092 139.82 267.402L140.34 271.462C140.39 271.822 140.01 272.132 139.54 272.132H139.55Z" fill="#84705A"/>
<path d="M151.45 272.891C154.16 272.891 156.36 275.091 156.36 277.801V294.231C156.36 295.581 155.26 296.681 153.91 296.681H148.26C146.93 296.681 145.85 295.601 145.85 294.271V278.481C145.85 275.391 148.36 272.891 151.44 272.891H151.45Z" fill="#BAADA0"/>
<path d="M152.36 274.322H149.74C149.33 274.322 149.01 273.972 149.04 273.562L149.44 268.882C149.47 268.522 149.77 268.242 150.14 268.242H151.91C152.27 268.242 152.57 268.512 152.61 268.872L153.06 273.552C153.1 273.962 152.78 274.322 152.36 274.322Z" fill="#BAADA0"/>
<path d="M152.55 272.132H149.54C149.07 272.132 148.7 271.832 148.74 271.472L149.19 267.412C149.23 267.102 149.57 266.852 149.99 266.852H152.02C152.43 266.852 152.78 267.092 152.82 267.402L153.34 271.462C153.39 271.822 153.01 272.132 152.54 272.132H152.55Z" fill="#84705A"/>
<path d="M15.4301 127.206C15.4301 127.206 13.1501 123.966 13.4301 123.396C13.7101 122.826 15.8901 124.016 17.0101 123.396C18.1301 122.776 19.4901 122.566 20.8501 123.236C22.2101 123.906 24.3001 122.026 25.4901 122.826C26.6801 123.626 28.7201 122.196 30.0201 122.626C31.3201 123.056 33.5601 121.306 34.6501 122.266C35.7401 123.226 37.2701 121.696 38.4001 122.206C39.5301 122.716 40.5501 120.996 40.9501 121.966C41.3501 122.936 39.7001 126.586 39.7001 126.586L15.4201 127.206H15.4301Z" fill="#D3C7BC" stroke="#84705A" stroke-width="1.5" stroke-linecap="round" stroke-linejoin="round"/>
<path d="M15.43 127.211C15.43 127.211 9.89002 137.901 10.91 156.681H23.2L21.69 127.211H15.42H15.43Z" fill="#829B68" stroke="#84705A" stroke-width="1.5" stroke-linecap="round" stroke-linejoin="round"/>
<path d="M39.6999 126.594C39.6999 126.594 50.5499 144.824 49.4399 156.684H17.6099C17.6099 156.684 24.0299 136.784 15.4199 127.214L39.6999 126.594Z" fill="#ABC592" stroke="#84705A" stroke-width="1.5" stroke-linecap="round" stroke-linejoin="round"/>
<path d="M55.8301 87.66C47.4201 87.66 40.5801 80.11 40.5801 70.83C40.5801 61.55 47.4201 54 55.8301 54C64.2401 54 71.0801 61.55 71.0801 70.83C71.0801 80.11 64.2401 87.66 55.8301 87.66ZM55.8301 54.98C47.9601 54.98 41.5601 62.09 41.5601 70.84C41.5601 79.59 47.9601 86.69 55.8301 86.69C63.7001 86.69 70.1001 79.58 70.1001 70.84C70.1001 62.1 63.7001 54.98 55.8301 54.98Z" fill="#84705A" stroke="#84705A" stroke-width="0.5" stroke-linecap="round" stroke-linejoin="round"/>
<path d="M49.1001 87.66C40.6901 87.66 33.8501 80.11 33.8501 70.83C33.8501 61.55 40.6901 54 49.1001 54C57.5101 54 64.3501 61.55 64.3501 70.83C64.3501 80.11 57.5101 87.66 49.1001 87.66ZM49.1001 54.98C41.2301 54.98 34.8301 62.09 34.8301 70.84C34.8301 79.59 41.2301 86.69 49.1001 86.69C56.9701 86.69 63.3701 79.58 63.3701 70.84C63.3701 62.1 56.9701 54.98 49.1001 54.98Z" fill="#84705A" stroke="#84705A" stroke-width="0.5" stroke-linecap="round" stroke-linejoin="round"/>
<path d="M41.0701 70.3438H34.3301V71.3238H41.0701V70.3438Z" fill="#84705A" stroke="#84705A" stroke-width="0.5" stroke-linecap="round" stroke-linejoin="round"/>
<path d="M43.0099 62.0312H36.3799V63.0112H43.0099V62.0312Z" fill="#84705A" stroke="#84705A" stroke-width="0.5" stroke-linecap="round" stroke-linejoin="round"/>
<path d="M42.7102 77.8203H35.9702V78.8003H42.7102V77.8203Z" fill="#84705A" stroke="#84705A" stroke-width="0.5" stroke-linecap="round" stroke-linejoin="round"/>
<path d="M47.8903 84.0625H41.0703V85.0425H47.8903V84.0625Z" fill="#84705A" stroke="#84705A" stroke-width="0.5" stroke-linecap="round" stroke-linejoin="round"/>
<path d="M65.5802 58.1797H58.9502V59.1597H65.5802V58.1797Z" fill="#84705A" stroke="#84705A" stroke-width="0.5" stroke-linecap="round" stroke-linejoin="round"/>
<path d="M69.8303 65.1172H63.0903V66.0972H69.8303V65.1172Z" fill="#84705A" stroke="#84705A" stroke-width="0.5" stroke-linecap="round" stroke-linejoin="round"/>
<path d="M70.4802 72.3203H63.7402V73.3003H70.4802V72.3203Z" fill="#84705A" stroke="#84705A" stroke-width="0.5" stroke-linecap="round" stroke-linejoin="round"/>
<path d="M68.72 77.8203H62.27V78.8003H68.72V77.8203Z" fill="#84705A" stroke="#84705A" stroke-width="0.5" stroke-linecap="round" stroke-linejoin="round"/>
<path d="M66.03 82.1562H59.29V83.1362H66.03V82.1562Z" fill="#84705A" stroke="#84705A" stroke-width="0.5" stroke-linecap="round" stroke-linejoin="round"/>
<path d="M35.05 91.6884C34.99 91.6884 34.92 91.6784 34.86 91.6484C34.61 91.5484 34.49 91.2584 34.6 91.0084L38.27 82.2384C38.37 81.9884 38.66 81.8684 38.91 81.9784C39.16 82.0784 39.28 82.3684 39.17 82.6184L35.5 91.3884C35.42 91.5784 35.24 91.6884 35.05 91.6884Z" fill="#84705A" stroke="#84705A" stroke-width="0.5" stroke-linecap="round" stroke-linejoin="round"/>
<path d="M70.1201 91.6907C69.9301 91.6907 69.7501 91.5807 69.6701 91.3907L66.0001 82.6207C65.9001 82.3707 66.0101 82.0907 66.2601 81.9807C66.5201 81.8807 66.7901 82.0007 66.9001 82.2407L70.5701 91.0107C70.6701 91.2607 70.5601 91.5407 70.3101 91.6507C70.2501 91.6807 70.1801 91.6907 70.1201 91.6907Z" fill="#84705A" stroke="#84705A" stroke-width="0.5" stroke-linecap="round" stroke-linejoin="round"/>
<path d="M41.76 91.6884C41.7 91.6884 41.63 91.6784 41.57 91.6484C41.32 91.5484 41.2 91.2584 41.31 91.0084L44.98 82.2384C44.98 82.2384 45.03 82.1384 45.06 82.0984L54.79 71.0384C54.97 70.8384 55.27 70.8184 55.48 70.9984C55.68 71.1784 55.7 71.4784 55.52 71.6884L45.84 82.6884L42.2 91.3884C42.12 91.5784 41.94 91.6884 41.75 91.6884H41.76Z" fill="#84705A" stroke="#84705A" stroke-width="0.5" stroke-linecap="round" stroke-linejoin="round"/>
<path d="M55.1599 74.2487C56.4191 74.2487 57.4399 72.9549 57.4399 71.3587C57.4399 69.7626 56.4191 68.4688 55.1599 68.4688C53.9007 68.4688 52.8799 69.7626 52.8799 71.3587C52.8799 72.9549 53.9007 74.2487 55.1599 74.2487Z" fill="#84705A" stroke="#84705A" stroke-width="0.5" stroke-linecap="round" stroke-linejoin="round"/>
<path d="M67.4504 80.8919L54.7104 71.6319L54.6804 71.4319L52.4004 54.5519L53.3704 54.4219L55.6204 71.0919L68.0204 80.1019L67.4504 80.8919Z" fill="#84705A" stroke="#84705A" stroke-width="0.5" stroke-linecap="round" stroke-linejoin="round"/>
<path d="M94.6604 88.3191C87.7604 88.3191 82.1504 81.8591 82.1504 73.9291C82.1504 65.9991 87.7604 59.5391 94.6604 59.5391C101.56 59.5391 107.17 65.9891 107.17 73.9291C107.17 81.8691 101.56 88.3191 94.6604 88.3191ZM94.6604 60.6091C88.3604 60.6091 83.2304 66.5791 83.2304 73.9191C83.2304 81.2591 88.3604 87.2391 94.6604 87.2391C100.96 87.2391 106.09 81.2591 106.09 73.9191C106.09 66.5791 100.96 60.6091 94.6604 60.6091Z" fill="#84705A" stroke="#84705A" stroke-width="0.5" stroke-linecap="round" stroke-linejoin="round"/>
<path d="M89.1999 88.3191C82.2999 88.3191 76.6899 81.8591 76.6899 73.9291C76.6899 65.9991 82.2999 59.5391 89.1999 59.5391C96.0999 59.5391 101.71 65.9891 101.71 73.9291C101.71 81.8691 96.0999 88.3191 89.1999 88.3191ZM89.1999 60.6091C82.8999 60.6091 77.7699 66.5791 77.7699 73.9191C77.7699 81.2591 82.8999 87.2391 89.1999 87.2391C95.4999 87.2391 100.63 81.2591 100.63 73.9191C100.63 66.5791 95.4999 60.6091 89.1999 60.6091Z" fill="#84705A" stroke="#84705A" stroke-width="0.5" stroke-linecap="round" stroke-linejoin="round"/>
<path d="M82.6902 73.3906H77.2202V74.4706H82.6902V73.3906Z" fill="#84705A" stroke="#84705A" stroke-width="0.5" stroke-linecap="round" stroke-linejoin="round"/>
<path d="M84.2701 66.3516H78.8901V67.4316H84.2701V66.3516Z" fill="#84705A" stroke="#84705A" stroke-width="0.5" stroke-linecap="round" stroke-linejoin="round"/>
<path d="M84.0203 79.7266H78.5503V80.8066H84.0203V79.7266Z" fill="#84705A" stroke="#84705A" stroke-width="0.5" stroke-linecap="round" stroke-linejoin="round"/>
<path d="M88.2199 85.0234H82.6899V86.1034H88.2199V85.0234Z" fill="#84705A" stroke="#84705A" stroke-width="0.5" stroke-linecap="round" stroke-linejoin="round"/>
<path d="M102.57 63.0781H97.1899V64.1581H102.57V63.0781Z" fill="#84705A" stroke="#84705A" stroke-width="0.5" stroke-linecap="round" stroke-linejoin="round"/>
<path d="M106.01 68.9688H100.55V70.0488H106.01V68.9688Z" fill="#84705A" stroke="#84705A" stroke-width="0.5" stroke-linecap="round" stroke-linejoin="round"/>
<path d="M106.55 75.0703H101.08V76.1503H106.55V75.0703Z" fill="#84705A" stroke="#84705A" stroke-width="0.5" stroke-linecap="round" stroke-linejoin="round"/>
<path d="M105.12 79.7266H99.8901V80.8066H105.12V79.7266Z" fill="#84705A" stroke="#84705A" stroke-width="0.5" stroke-linecap="round" stroke-linejoin="round"/>
<path d="M102.93 83.4062H97.46V84.4862H102.93V83.4062Z" fill="#84705A" stroke="#84705A" stroke-width="0.5" stroke-linecap="round" stroke-linejoin="round"/>
<path d="M78.3101 91.4025L77.3101 91.0025L80.2801 83.5625L81.2901 83.9625L78.3101 91.4025Z" fill="#84705A" stroke="#84705A" stroke-width="0.5" stroke-linecap="round" stroke-linejoin="round"/>
<path d="M105.75 91.4025L102.78 83.9625L103.78 83.5625L106.75 91.0025L105.75 91.4025Z" fill="#84705A" stroke="#84705A" stroke-width="0.5" stroke-linecap="round" stroke-linejoin="round"/>
<path d="M83.75 91.4013L82.75 91.0013L85.81 83.4113L93.71 74.0312L94.53 74.7313L86.69 84.0413L83.75 91.4013Z" fill="#84705A" stroke="#84705A" stroke-width="0.5" stroke-linecap="round" stroke-linejoin="round"/>
<path d="M94.12 77.3706C92.8 77.3706 91.73 76.0306 91.73 74.3806C91.73 72.7306 92.8 71.3906 94.12 71.3906C95.44 71.3906 96.51 72.7306 96.51 74.3806C96.51 76.0306 95.44 77.3706 94.12 77.3706ZM94.12 72.4606C93.41 72.4606 92.81 73.3406 92.81 74.3806C92.81 75.4206 93.41 76.3006 94.12 76.3006C94.83 76.3006 95.43 75.4206 95.43 74.3806C95.43 73.3406 94.83 72.4606 94.12 72.4606Z" fill="#84705A" stroke="#84705A" stroke-width="0.5" stroke-linecap="round" stroke-linejoin="round"/>
<path d="M103.99 82.5578L93.61 74.6678L93.58 74.4478L91.73 60.1478L92.81 60.0078L94.63 74.0878L104.64 81.6978L103.99 82.5578Z" fill="#84705A" stroke="#84705A" stroke-width="0.5" stroke-linecap="round" stroke-linejoin="round"/>
<path d="M571.27 276.989C571.27 276.989 580.31 242.939 572.78 230.409C565.26 217.879 540.04 216.029 530.77 225.169C521.5 234.309 520.34 245.459 534.79 250.169C549.24 254.879 568.48 237.829 572.08 239.579C575.69 241.329 568.5 275.649 568.5 275.649L571.26 276.989H571.27Z" fill="#ABC592" stroke="#84705A" stroke-width="2" stroke-linecap="round" stroke-linejoin="round"/>
<path d="M529.05 241.261L528.82 240.971C528.89 240.921 535.89 235.621 544.76 231.681C549.98 229.361 554.81 227.951 559.13 227.491C564.55 226.921 569.17 227.851 572.87 230.251L572.67 230.561C569.05 228.201 564.51 227.291 559.18 227.861C554.9 228.311 550.1 229.711 544.92 232.021C536.09 235.951 529.12 241.221 529.05 241.271V241.261Z" fill="#C2C68E" stroke="#84705A" stroke-width="2" stroke-linecap="round" stroke-linejoin="round"/>
<path d="M581.42 304.014H562.29C559.36 304.014 556.93 302.244 556.67 299.934L553.91 274.594H589.03L586.53 300.254C586.32 302.374 584.09 304.004 581.41 304.004L581.42 304.014Z" fill="#93C8C8" stroke="#84705A" stroke-width="2" stroke-linecap="round" stroke-linejoin="round"/>
<path d="M590.31 269.186V274.226C590.31 277.346 581.96 279.866 571.66 279.866C561.36 279.866 553.01 277.336 553.01 274.226V269.186C553.01 267.606 557.82 266.246 564.64 265.686C566.81 265.506 569.18 265.406 571.66 265.406C581.96 265.406 590.31 267.096 590.31 269.186Z" fill="#66A8BE" stroke="#84705A" stroke-width="2" stroke-linecap="round" stroke-linejoin="round"/>
<path d="M590.31 269.188C590.31 269.488 590.13 269.788 589.8 270.068C588.97 270.768 587.16 271.408 584.67 271.888C583.7 272.078 582.63 272.248 581.47 272.398C581.17 272.438 580.87 272.468 580.55 272.508C580.37 272.528 580.18 272.548 580 272.568C579.04 272.668 578.03 272.748 576.98 272.808C576.91 272.808 576.83 272.818 576.76 272.818C576.21 272.848 575.66 272.878 575.1 272.898C574.72 272.918 574.33 272.928 573.94 272.938C573.79 272.938 573.64 272.938 573.48 272.938C572.88 272.948 572.27 272.958 571.65 272.958C571.39 272.958 571.12 272.958 570.86 272.958C570.7 272.958 570.54 272.958 570.39 272.958C569.77 272.958 569.16 272.938 568.55 272.908C567.54 272.878 566.56 272.828 565.62 272.758C565.44 272.748 565.27 272.738 565.09 272.718C564.95 272.708 564.81 272.698 564.67 272.688C564.51 272.678 564.35 272.658 564.2 272.648C563.16 272.558 562.18 272.448 561.25 272.318C556.27 271.638 553 270.488 553 269.178C553 268.378 554.23 267.638 556.33 267.018C557.52 266.668 559 266.368 560.69 266.118C560.78 266.098 560.87 266.088 560.97 266.078C561.14 266.058 561.31 266.028 561.48 266.008C562.47 265.878 563.52 265.768 564.63 265.668C564.69 265.668 564.75 265.668 564.81 265.658C565.91 265.568 567.06 265.498 568.25 265.458C568.97 265.428 569.7 265.408 570.45 265.398C570.85 265.398 571.26 265.398 571.66 265.398C572.3 265.398 572.93 265.398 573.55 265.418C573.71 265.418 573.86 265.418 574.01 265.418C575.11 265.448 576.18 265.488 577.2 265.558C577.48 265.578 577.76 265.598 578.03 265.618C578.91 265.678 579.75 265.758 580.57 265.848C581.73 265.978 582.82 266.128 583.82 266.308C583.99 266.338 584.16 266.368 584.32 266.398C584.43 266.418 584.54 266.438 584.65 266.458C586.3 266.778 587.66 267.168 588.63 267.598C589.71 268.078 590.31 268.608 590.31 269.168V269.188Z" fill="#84705A" stroke="#84705A" stroke-width="2" stroke-linecap="round" stroke-linejoin="round"/>
<path d="M574.78 272.143C574.78 272.143 581.76 237.623 594.07 229.653C606.38 221.683 629.84 231.033 634.12 243.283C638.4 255.533 634.49 266.053 619.42 263.983C604.35 261.903 594.63 238.193 590.62 238.193C586.61 238.193 577.85 272.143 577.85 272.143H574.78Z" fill="#ABC592" stroke="#84705A" stroke-width="2" stroke-linecap="round" stroke-linejoin="round"/>
<path d="M625.28 261.916C625.24 261.836 621.32 254.066 615.13 246.676C611.5 242.346 607.81 238.996 604.17 236.726C599.63 233.896 595.15 232.726 590.86 233.266L590.81 232.896C595.19 232.346 599.76 233.536 604.37 236.416C608.05 238.716 611.77 242.086 615.42 246.446C621.64 253.866 625.58 261.676 625.62 261.746L625.29 261.906L625.28 261.916Z" fill="#CCD39C" stroke="#84705A" stroke-width="2" stroke-linecap="round" stroke-linejoin="round"/>
<path d="M570.31 287.474C570.31 287.474 570.5 252.264 560.06 241.994C549.62 231.724 524.74 236.174 518.06 247.324C511.38 258.464 513.06 269.554 528.24 270.544C543.42 271.534 557.76 250.254 561.69 251.054C565.62 251.854 567.3 286.864 567.3 286.864L570.31 287.474Z" fill="#90A876" stroke="#84705A" stroke-width="2" stroke-linecap="round" stroke-linejoin="round"/>
<path d="M520.45 263.327L520.16 263.097C520.21 263.027 525.66 256.167 533.26 250.147C540.29 244.577 550.66 238.597 560.12 241.807L560 242.157C542.19 236.127 520.66 263.057 520.45 263.327Z" fill="#A5D7CD" stroke="#84705A" stroke-width="2" stroke-linecap="round" stroke-linejoin="round"/>
<path d="M591.82 260.567C591.82 260.567 587.59 252.927 578.02 253.277C568.45 253.617 559.22 282.167 562.77 290.177C568.21 302.447 586.72 303.887 594.3 290.177C598.1 283.317 596.52 266.897 591.82 260.567Z" fill="#ABC592" stroke="#84705A" stroke-width="2" stroke-linecap="round" stroke-linejoin="round"/>
<path d="M578.15 291.94L577.79 291.86C577.83 291.66 581.93 272.02 579.75 257.23L580.12 257.18C582.31 272.04 578.2 291.74 578.16 291.94H578.15Z" fill="#C2C68E" stroke="#84705A" stroke-width="2" stroke-linecap="round" stroke-linejoin="round"/>
<path d="M91.4702 262.727H66.4102V273.027H91.4702V262.727Z" fill="#ABC592" stroke="#84705A" stroke-linecap="round" stroke-linejoin="round"/>
<path d="M92.1003 262H65.7803V263.09H92.1003V262Z" fill="#84705A" stroke="#84705A" stroke-linecap="round" stroke-linejoin="round"/>
<path d="M92.1003 272.477H65.7803V273.567H92.1003V272.477Z" fill="#84705A" stroke="#84705A" stroke-linecap="round" stroke-linejoin="round"/>
<path d="M78.9402 271.092C81.4089 271.092 83.4102 269.655 83.4102 267.882C83.4102 266.109 81.4089 264.672 78.9402 264.672C76.4715 264.672 74.4702 266.109 74.4702 267.882C74.4702 269.655 76.4715 271.092 78.9402 271.092Z" fill="#B79F8B" stroke="#84705A" stroke-linecap="round" stroke-linejoin="round"/>
<path d="M91.4702 266.352H66.4102V269.402H91.4702V266.352Z" fill="#B79F8B" stroke="#84705A" stroke-linecap="round" stroke-linejoin="round"/>
<path d="M78.9398 270.637C81.0661 270.637 82.7898 269.402 82.7898 267.877C82.7898 266.353 81.0661 265.117 78.9398 265.117C76.8136 265.117 75.0898 266.353 75.0898 267.877C75.0898 269.402 76.8136 270.637 78.9398 270.637Z" fill="#F7F3ED" stroke="#84705A" stroke-linecap="round" stroke-linejoin="round"/>
<path d="M78.9702 275.227H53.9102V285.527H78.9702V275.227Z" fill="#D3C4AF" stroke="#84705A" stroke-linecap="round" stroke-linejoin="round"/>
<path d="M79.6003 274.5H53.2803V275.59H79.6003V274.5Z" fill="#84705A" stroke="#84705A" stroke-linecap="round" stroke-linejoin="round"/>
<path d="M79.6003 284.977H53.2803V286.067H79.6003V284.977Z" fill="#84705A" stroke="#84705A" stroke-linecap="round" stroke-linejoin="round"/>
<path d="M66.4402 283.592C68.9089 283.592 70.9102 282.155 70.9102 280.382C70.9102 278.609 68.9089 277.172 66.4402 277.172C63.9715 277.172 61.9702 278.609 61.9702 280.382C61.9702 282.155 63.9715 283.592 66.4402 283.592Z" fill="#B79F8B" stroke="#84705A" stroke-linecap="round" stroke-linejoin="round"/>
<path d="M78.9702 278.852H53.9102V281.902H78.9702V278.852Z" fill="#B79F8B" stroke="#84705A" stroke-linecap="round" stroke-linejoin="round"/>
<path d="M66.4403 283.137C68.5666 283.137 70.2903 281.902 70.2903 280.377C70.2903 278.853 68.5666 277.617 66.4403 277.617C64.314 277.617 62.5903 278.853 62.5903 280.377C62.5903 281.902 64.314 283.137 66.4403 283.137Z" fill="#F7F3ED" stroke="#84705A" stroke-linecap="round" stroke-linejoin="round"/>
<path d="M119.97 286.227H94.9102V296.527H119.97V286.227Z" fill="#D3C4AF" stroke="#84705A" stroke-linecap="round" stroke-linejoin="round"/>
<path d="M120.6 285.5H94.2803V286.59H120.6V285.5Z" fill="#84705A" stroke="#84705A" stroke-linecap="round" stroke-linejoin="round"/>
<path d="M120.6 295.977H94.2803V297.067H120.6V295.977Z" fill="#84705A" stroke="#84705A" stroke-linecap="round" stroke-linejoin="round"/>
<path d="M107.44 294.592C109.909 294.592 111.91 293.155 111.91 291.382C111.91 289.609 109.909 288.172 107.44 288.172C104.972 288.172 102.97 289.609 102.97 291.382C102.97 293.155 104.972 294.592 107.44 294.592Z" fill="#B79F8B" stroke="#84705A" stroke-linecap="round" stroke-linejoin="round"/>
<path d="M119.97 289.852H94.9102V292.902H119.97V289.852Z" fill="#B79F8B" stroke="#84705A" stroke-linecap="round" stroke-linejoin="round"/>
<path d="M107.44 294.137C109.566 294.137 111.29 292.902 111.29 291.377C111.29 289.853 109.566 288.617 107.44 288.617C105.314 288.617 103.59 289.853 103.59 291.377C103.59 292.902 105.314 294.137 107.44 294.137Z" fill="#F7F3ED" stroke="#84705A" stroke-linecap="round" stroke-linejoin="round"/>
<path d="M92.9702 286.227H67.9102V296.527H92.9702V286.227Z" fill="#D3C4AF" stroke="#84705A" stroke-linecap="round" stroke-linejoin="round"/>
<path d="M93.6003 285.5H67.2803V286.59H93.6003V285.5Z" fill="#84705A" stroke="#84705A" stroke-linecap="round" stroke-linejoin="round"/>
<path d="M93.6003 295.977H67.2803V297.067H93.6003V295.977Z" fill="#84705A" stroke="#84705A" stroke-linecap="round" stroke-linejoin="round"/>
<path d="M80.4402 294.592C82.9089 294.592 84.9102 293.155 84.9102 291.382C84.9102 289.609 82.9089 288.172 80.4402 288.172C77.9715 288.172 75.9702 289.609 75.9702 291.382C75.9702 293.155 77.9715 294.592 80.4402 294.592Z" fill="#B79F8B" stroke="#84705A" stroke-linecap="round" stroke-linejoin="round"/>
<path d="M92.9702 289.852H67.9102V292.902H92.9702V289.852Z" fill="#B79F8B" stroke="#84705A" stroke-linecap="round" stroke-linejoin="round"/>
<path d="M80.4398 294.137C82.5661 294.137 84.2898 292.902 84.2898 291.377C84.2898 289.853 82.5661 288.617 80.4398 288.617C78.3136 288.617 76.5898 289.853 76.5898 291.377C76.5898 292.902 78.3136 294.137 80.4398 294.137Z" fill="#F7F3ED" stroke="#84705A" stroke-linecap="round" stroke-linejoin="round"/>
<path d="M105.97 275.227H80.9102V285.527H105.97V275.227Z" fill="#ABC592" stroke="#84705A" stroke-linecap="round" stroke-linejoin="round"/>
<path d="M106.6 274.5H80.2803V275.59H106.6V274.5Z" fill="#84705A" stroke="#84705A" stroke-linecap="round" stroke-linejoin="round"/>
<path d="M106.6 284.977H80.2803V286.067H106.6V284.977Z" fill="#84705A" stroke="#84705A" stroke-linecap="round" stroke-linejoin="round"/>
<path d="M93.4402 283.592C95.9089 283.592 97.9102 282.155 97.9102 280.382C97.9102 278.609 95.9089 277.172 93.4402 277.172C90.9715 277.172 88.9702 278.609 88.9702 280.382C88.9702 282.155 90.9715 283.592 93.4402 283.592Z" fill="#B79F8B" stroke="#84705A" stroke-linecap="round" stroke-linejoin="round"/>
<path d="M105.97 278.852H80.9102V281.902H105.97V278.852Z" fill="#B79F8B" stroke="#84705A" stroke-linecap="round" stroke-linejoin="round"/>
<path d="M93.4398 283.137C95.5661 283.137 97.2898 281.902 97.2898 280.377C97.2898 278.853 95.5661 277.617 93.4398 277.617C91.3136 277.617 89.5898 278.853 89.5898 280.377C89.5898 281.902 91.3136 283.137 93.4398 283.137Z" fill="#F7F3ED" stroke="#84705A" stroke-linecap="round" stroke-linejoin="round"/>
<path d="M65.9702 286.227H40.9102V296.527H65.9702V286.227Z" fill="#ABC592" stroke="#84705A" stroke-linecap="round" stroke-linejoin="round"/>
<path d="M66.6003 285.5H40.2803V286.59H66.6003V285.5Z" fill="#84705A" stroke="#84705A" stroke-linecap="round" stroke-linejoin="round"/>
<path d="M66.6003 295.977H40.2803V297.067H66.6003V295.977Z" fill="#84705A" stroke="#84705A" stroke-linecap="round" stroke-linejoin="round"/>
<path d="M53.4402 294.592C55.9089 294.592 57.9102 293.155 57.9102 291.382C57.9102 289.609 55.9089 288.172 53.4402 288.172C50.9715 288.172 48.9702 289.609 48.9702 291.382C48.9702 293.155 50.9715 294.592 53.4402 294.592Z" fill="#B79F8B" stroke="#84705A" stroke-linecap="round" stroke-linejoin="round"/>
<path d="M65.9702 289.852H40.9102V292.902H65.9702V289.852Z" fill="#B79F8B" stroke="#84705A" stroke-linecap="round" stroke-linejoin="round"/>
<path d="M53.4403 294.137C55.5666 294.137 57.2903 292.902 57.2903 291.377C57.2903 289.853 55.5666 288.617 53.4403 288.617C51.314 288.617 49.5903 289.853 49.5903 291.377C49.5903 292.902 51.314 294.137 53.4403 294.137Z" fill="#F7F3ED" stroke="#84705A" stroke-linecap="round" stroke-linejoin="round"/>
</g>
<defs>
<clipPath id="clip0_837_5774">
<rect width="619.95" height="326.29" rx="35" fill="white"/>
</clipPath>
</defs>
</svg>
