<svg width="40" height="40" viewBox="0 0 40 40" fill="none" xmlns="http://www.w3.org/2000/svg">
<circle cx="20" cy="20" r="20" fill="#F5F0EC"/>
<g clip-path="url(#clip0_98_2233)">
<path d="M34 20C34 12.268 27.732 6 20 6C12.268 6 6 12.268 6 20C6 27.732 12.268 34 20 34C27.732 34 34 27.732 34 20Z" fill="#00B900"/>
<path fill-rule="evenodd" clip-rule="evenodd" d="M29.3332 19.3011C29.3332 15.1248 25.1464 11.7271 19.9997 11.7271C14.8538 11.7271 10.6665 15.1248 10.6665 19.3011C10.6665 23.0453 13.9869 26.1809 18.4721 26.7738C18.7761 26.8393 19.1898 26.9742 19.2944 27.234C19.3886 27.47 19.356 27.8396 19.3245 28.0779C19.3245 28.0779 19.215 28.7366 19.1914 28.8768L19.1878 28.8976C19.1434 29.1503 19.0317 29.788 19.9997 29.38C20.996 28.9602 25.3749 26.215 27.333 23.9612C28.6857 22.4779 29.3332 20.9726 29.3332 19.3011ZM18.1035 17.283H17.4488C17.3484 17.283 17.2668 17.3644 17.2668 17.4644V21.5313C17.2668 21.6314 17.3484 21.7127 17.4488 21.7127H18.1035C18.2038 21.7127 18.2852 21.6314 18.2852 21.5313V17.4644C18.2852 17.3644 18.2038 17.283 18.1035 17.283ZM21.9549 17.283H22.6096C22.7101 17.283 22.7914 17.3644 22.7914 17.4644V21.5313C22.7914 21.6314 22.7101 21.7127 22.6096 21.7127H21.9549C21.9388 21.7127 21.9233 21.7104 21.9084 21.7064C21.9075 21.7062 21.9066 21.7059 21.9057 21.7059L21.8982 21.7035L21.8933 21.7018C21.8916 21.7013 21.8898 21.7005 21.888 21.6998L21.8826 21.6975L21.879 21.6961C21.8762 21.6948 21.8732 21.6934 21.8705 21.6918L21.867 21.6901L21.8653 21.6891C21.8615 21.6869 21.8578 21.6846 21.854 21.6823L21.8533 21.6817L21.8522 21.6809C21.8348 21.669 21.8189 21.6542 21.8061 21.6359L19.9401 19.1158V21.5313C19.9401 21.6314 19.8587 21.7127 19.7581 21.7127H19.1036C19.0033 21.7127 18.9217 21.6314 18.9217 21.5313V17.4644C18.9217 17.3644 19.0033 17.283 19.1036 17.283H19.7581L19.7613 17.2832L19.7646 17.2833L19.7676 17.2835C19.7697 17.2835 19.7718 17.2836 19.7739 17.2839L19.779 17.2844C19.7805 17.2846 19.782 17.2848 19.7835 17.2851C19.786 17.2853 19.7887 17.2857 19.7912 17.286L19.7958 17.287L19.8016 17.2884L19.8046 17.2892L19.8079 17.2901C19.8116 17.291 19.8152 17.2923 19.8188 17.2935L19.8247 17.2956C19.8283 17.2969 19.8317 17.2985 19.835 17.3001L19.8363 17.3007L19.8386 17.3018L19.8408 17.3028C19.844 17.3045 19.8472 17.3064 19.8504 17.3084C19.8524 17.3092 19.8542 17.3103 19.856 17.3116C19.858 17.3128 19.8599 17.3141 19.8618 17.3155L19.8655 17.318L19.8668 17.319L19.8677 17.3197C19.8685 17.3204 19.8693 17.321 19.8701 17.3218C19.8735 17.3243 19.8768 17.327 19.8798 17.3298C19.881 17.3309 19.8821 17.3318 19.8832 17.3329C19.887 17.3365 19.8905 17.34 19.8941 17.3442L19.8954 17.3452C19.9004 17.3511 19.9052 17.3572 19.9095 17.3637L21.7731 19.8805V17.4644C21.7731 17.3644 21.8545 17.283 21.9549 17.283ZM16.5254 20.6944H14.7465V17.4646C14.7465 17.3643 14.6651 17.2829 14.5649 17.2829H13.9101C13.8097 17.2829 13.7283 17.3643 13.7283 17.4646V21.5308C13.7283 21.5796 13.7478 21.6242 13.7791 21.6568C13.7798 21.6577 13.7805 21.6586 13.7816 21.6594L13.7843 21.662C13.817 21.6935 13.8611 21.7128 13.9099 21.7128H16.5254C16.6257 21.7128 16.7068 21.6312 16.7068 21.5308V20.8761C16.7068 20.7758 16.6257 20.6944 16.5254 20.6944ZM26.4064 18.1195C26.4064 18.2201 26.3253 18.3013 26.2249 18.3013H24.4462V18.9885H26.2249C26.3253 18.9885 26.4064 19.0701 26.4064 19.1705V19.8252C26.4064 19.9255 26.3253 20.0069 26.2249 20.0069H24.4462V20.6943H26.2249C26.3253 20.6943 26.4064 20.7759 26.4064 20.8761V21.531C26.4064 21.6312 26.3253 21.7128 26.2249 21.7128H23.6096C23.561 21.7128 23.5164 21.6933 23.4839 21.662C23.4829 21.6613 23.4819 21.6603 23.4812 21.6594C23.4802 21.6587 23.4794 21.6576 23.4787 21.6568C23.4473 21.6242 23.4279 21.58 23.4279 21.5312V17.4648C23.4279 17.4162 23.4472 17.3719 23.4783 17.3394C23.4792 17.3383 23.4801 17.3372 23.4812 17.3362C23.4817 17.3355 23.4826 17.3349 23.4833 17.3342C23.5161 17.3025 23.5602 17.2829 23.6093 17.2829H26.2249C26.3253 17.2829 26.4064 17.3644 26.4064 17.4648V18.1195Z" fill="white"/>
</g>
<defs>
<clipPath id="clip0_98_2233">
<rect width="28" height="28" fill="white" transform="translate(6 6)"/>
</clipPath>
</defs>
</svg>
