<svg width="28" height="28" viewBox="0 0 28 28" fill="none" xmlns="http://www.w3.org/2000/svg">
<g clip-path="url(#clip0_2626_13687)">
<path d="M28 14C28 6.26801 21.732 0 14 0C6.26801 0 0 6.26801 0 14C0 21.732 6.26801 28 14 28C21.732 28 28 21.732 28 14Z" fill="#00B900"/>
<path fill-rule="evenodd" clip-rule="evenodd" d="M23.3332 13.3007C23.3332 9.12428 19.1464 5.72656 13.9997 5.72656C8.85379 5.72656 4.6665 9.12428 4.6665 13.3007C4.6665 17.0448 7.9869 20.1804 12.4721 20.7733C12.7761 20.8388 13.1898 20.9737 13.2944 21.2335C13.3886 21.4695 13.356 21.8391 13.3245 22.0774C13.3245 22.0774 13.215 22.7361 13.1914 22.8763L13.1878 22.8971C13.1434 23.1498 13.0317 23.7875 13.9997 23.3795C14.996 22.9597 19.3749 20.2145 21.333 17.9607C22.6857 16.4774 23.3332 14.9721 23.3332 13.3007ZM12.1035 11.2825H11.4488C11.3484 11.2825 11.2668 11.3639 11.2668 11.4639V15.5308C11.2668 15.631 11.3484 15.7122 11.4488 15.7122H12.1035C12.2038 15.7122 12.2852 15.631 12.2852 15.5308V11.4639C12.2852 11.3639 12.2038 11.2825 12.1035 11.2825ZM15.9549 11.2825H16.6096C16.7101 11.2825 16.7914 11.3639 16.7914 11.4639V15.5308C16.7914 15.631 16.7101 15.7122 16.6096 15.7122H15.9549C15.9388 15.7122 15.9233 15.7099 15.9084 15.7059C15.9075 15.7057 15.9066 15.7054 15.9057 15.7054L15.8982 15.7031L15.8933 15.7013C15.8916 15.7008 15.8898 15.7 15.888 15.6993L15.8826 15.697L15.879 15.6956C15.8762 15.6943 15.8732 15.6929 15.8705 15.6913L15.867 15.6896L15.8653 15.6886C15.8615 15.6864 15.8578 15.6841 15.854 15.6818L15.8533 15.6812L15.8522 15.6804C15.8348 15.6685 15.8189 15.6537 15.8061 15.6354L13.9401 13.1153V15.5308C13.9401 15.631 13.8587 15.7122 13.7581 15.7122H13.1036C13.0033 15.7122 12.9217 15.631 12.9217 15.5308V11.4639C12.9217 11.3639 13.0033 11.2825 13.1036 11.2825H13.7581L13.7613 11.2827L13.7646 11.2828L13.7676 11.283C13.7697 11.283 13.7718 11.2831 13.7739 11.2834L13.779 11.2839C13.7805 11.2841 13.782 11.2843 13.7835 11.2846C13.786 11.2848 13.7887 11.2852 13.7912 11.2855L13.7958 11.2865L13.8016 11.2879L13.8046 11.2887L13.8079 11.2896C13.8116 11.2905 13.8152 11.2918 13.8188 11.2931L13.8247 11.2952C13.8283 11.2964 13.8317 11.298 13.835 11.2996L13.8363 11.3002L13.8386 11.3013L13.8408 11.3023C13.844 11.304 13.8472 11.3059 13.8504 11.3079C13.8524 11.3087 13.8542 11.3099 13.856 11.3111C13.858 11.3123 13.8599 11.3136 13.8618 11.315L13.8655 11.3176L13.8668 11.3185L13.8677 11.3192C13.8685 11.3199 13.8693 11.3205 13.8701 11.3213C13.8735 11.3238 13.8768 11.3265 13.8798 11.3293C13.881 11.3304 13.8821 11.3313 13.8832 11.3324C13.887 11.336 13.8905 11.3395 13.8941 11.3437L13.8954 11.3447C13.9004 11.3506 13.9052 11.3567 13.9095 11.3632L15.7731 13.88V11.4639C15.7731 11.3639 15.8545 11.2825 15.9549 11.2825ZM10.5254 14.6939H8.74651V11.4641C8.74651 11.3638 8.66514 11.2824 8.56492 11.2824H7.91007C7.80968 11.2824 7.7283 11.3638 7.7283 11.4641V15.5303C7.7283 15.5792 7.74779 15.6237 7.77911 15.6563C7.77981 15.6572 7.78051 15.6581 7.78162 15.659L7.7843 15.6615C7.81703 15.693 7.86107 15.7123 7.9099 15.7123H10.5254C10.6257 15.7123 10.7068 15.6307 10.7068 15.5303V14.8757C10.7068 14.7753 10.6257 14.6939 10.5254 14.6939ZM20.4064 12.119C20.4064 12.2196 20.3253 12.3008 20.2249 12.3008H18.4462V12.988H20.2249C20.3253 12.988 20.4064 13.0696 20.4064 13.17V13.8247C20.4064 13.9251 20.3253 14.0064 20.2249 14.0064H18.4462V14.6938H20.2249C20.3253 14.6938 20.4064 14.7754 20.4064 14.8757V15.5305C20.4064 15.6307 20.3253 15.7123 20.2249 15.7123H17.6096C17.561 15.7123 17.5164 15.6928 17.4839 15.6615C17.4829 15.6608 17.4819 15.6598 17.4812 15.659C17.4802 15.6583 17.4794 15.6571 17.4787 15.6563C17.4473 15.6237 17.4279 15.5795 17.4279 15.5307V11.4643C17.4279 11.4157 17.4472 11.3715 17.4783 11.3389C17.4792 11.3379 17.4801 11.3367 17.4812 11.3357C17.4817 11.335 17.4826 11.3344 17.4833 11.3337C17.5161 11.302 17.5602 11.2824 17.6093 11.2824H20.2249C20.3253 11.2824 20.4064 11.3639 20.4064 11.4643V12.119Z" fill="white"/>
</g>
<defs>
<clipPath id="clip0_2626_13687">
<rect width="28" height="28" fill="white"/>
</clipPath>
</defs>
</svg>
