<svg width="40" height="40" viewBox="0 0 40 40" fill="none" xmlns="http://www.w3.org/2000/svg">
<circle cx="20" cy="20" r="20" fill="#F5F0EC"/>
<g clip-path="url(#clip0_98_2243)">
<path d="M34 20C34 12.268 27.732 6 20 6C12.268 6 6 12.268 6 20C6 26.9878 11.1196 32.7797 17.8125 33.8299V24.0469H14.2578V20H17.8125V16.9156C17.8125 13.4069 19.9026 11.4688 23.1005 11.4688C24.6322 11.4688 26.2344 11.7422 26.2344 11.7422V15.1875H24.469C22.7299 15.1875 22.1875 16.2667 22.1875 17.3738V20H26.0703L25.4496 24.0469H22.1875V33.8299C28.8804 32.7797 34 26.9878 34 20Z" fill="#1877F2"/>
<path d="M25.4496 24.0469L26.0703 20H22.1875V17.3738C22.1875 16.2667 22.7299 15.1875 24.469 15.1875H26.2344V11.7422C26.2344 11.7422 24.6322 11.4688 23.1005 11.4688C19.9026 11.4688 17.8125 13.4069 17.8125 16.9156V20H14.2578V24.0469H17.8125V33.8299C19.262 34.0567 20.738 34.0567 22.1875 33.8299V24.0469H25.4496Z" fill="white"/>
</g>
<defs>
<clipPath id="clip0_98_2243">
<rect width="28" height="28" fill="white" transform="translate(6 6)"/>
</clipPath>
</defs>
</svg>
