<svg width="53" height="53" viewBox="0 0 53 53" fill="none" xmlns="http://www.w3.org/2000/svg">
<g clip-path="url(#clip0_45_2087)">
<path fill-rule="evenodd" clip-rule="evenodd" d="M47.0548 36.7082L45.3248 22.7702C44.2709 17.7967 41.2881 15.75 38.4445 15.75H15.5964C12.713 15.75 9.63078 17.6534 8.73594 22.7702L6.98604 36.7082C5.5543 46.9416 10.8239 49.5 17.7042 49.5H36.3566C43.217 49.5 48.3275 45.7955 47.0548 36.7082ZM20.4682 27.3343C19.37 27.3343 18.4797 26.418 18.4797 25.2876C18.4797 24.1572 19.37 23.2409 20.4682 23.2409C21.5665 23.2409 22.4568 24.1572 22.4568 25.2876C22.4568 26.418 21.5665 27.3343 20.4682 27.3343ZM31.5046 25.2876C31.5046 26.418 32.3949 27.3343 33.4931 27.3343C34.5913 27.3343 35.4816 26.418 35.4816 25.2876C35.4816 24.1572 34.5913 23.2409 33.4931 23.2409C32.3949 23.2409 31.5046 24.1572 31.5046 25.2876Z" fill="#A3907A"/>
<path d="M38.1912 15.2422C38.1983 15.4168 38.1647 15.5905 38.0932 15.75H34.8597C34.7971 15.5879 34.7639 15.4159 34.7617 15.2422C34.7617 10.9279 31.2522 7.43037 26.9229 7.43037C22.5937 7.43037 19.0841 10.9279 19.0841 15.2422C19.1138 15.4102 19.1138 15.582 19.0841 15.75H15.7722C15.7426 15.582 15.7426 15.4102 15.7722 15.2422C16.0239 9.2383 20.9812 4.5 27.0111 4.5C33.041 4.5 37.9984 9.2383 38.25 15.2422H38.1912Z" fill="#A3907A"/>
</g>
<defs>
<clipPath id="clip0_45_2087">
<rect width="53" height="53" fill="white"/>
</clipPath>
</defs>
</svg>
