<svg width="1440" height="133" viewBox="0 0 1440 133" fill="none" xmlns="http://www.w3.org/2000/svg">
<g clip-path="url(#clip0_86_2185)">
<rect width="1440" height="133" fill="#ABC592"/>
<path d="M670.544 86.984V85.496H666.296V82.352H670.544V80.456H674V82.352H678.632V85.496H674V86.984H677.696V90.2H667.088V86.984H670.544ZM665.672 92.12L666.032 95.336C665.336 95.528 664.616 95.696 663.896 95.888V103.28H660.608V96.704L657.68 97.424L656.84 93.872C657.896 93.704 659.192 93.464 660.608 93.176V88.328H659.576C659.36 89.432 659.12 90.44 658.832 91.256C658.28 90.944 657.056 90.512 656.408 90.32C657.152 88.4 657.56 85.28 657.728 82.4L660.296 82.784C660.248 83.528 660.176 84.272 660.08 85.016H660.608V80.48H663.896V85.016H665.768V88.328H663.896V92.504L665.672 92.12ZM679.16 91.976V95.168H677.12V99.512C677.12 101.168 676.832 102.08 675.728 102.608C674.672 103.136 673.256 103.208 671.456 103.208C671.336 102.2 670.856 100.736 670.424 99.776C671.456 99.824 672.8 99.824 673.184 99.824C673.544 99.824 673.664 99.752 673.664 99.44V95.168H670.064C671 96.176 672.056 97.448 672.56 98.36L669.824 100.16C669.344 99.152 668.168 97.592 667.208 96.464L669.272 95.168H666.296V91.976H673.664V90.608H677.12V91.976H679.16ZM686.504 84.728V85.976H683.384V81.944H692.192C692.072 81.536 691.928 81.128 691.808 80.768L695.576 80.264C695.84 80.744 696.056 81.416 696.2 81.944H704.504V85.976H701.24V84.728H686.504ZM687.008 96.848V96.92C687.008 97.52 686.984 98.168 686.936 98.84C687.68 98.672 688.568 98.432 689.504 98.168C688.928 97.808 687.848 97.232 687.008 96.848ZM690.56 96.464L689.504 98.168C689.84 98.072 690.2 97.976 690.56 97.88V96.464ZM690.56 95.144H687.008V96.608L687.944 95.216C688.784 95.552 689.936 96.032 690.56 96.392V95.144ZM693.68 93.152V100.712C693.68 101.96 693.44 102.56 692.624 102.944C691.808 103.304 690.728 103.328 689.36 103.304C689.24 102.584 688.88 101.624 688.544 100.976C689.168 101.024 689.984 101.024 690.2 101.024C690.464 101 690.56 100.928 690.56 100.688V99.752C689.408 100.304 688.352 100.808 687.296 101.288L686.792 99.92C686.6 101.24 686.192 102.512 685.472 103.472C684.992 103.016 683.792 102.2 683.192 101.912C684.272 100.424 684.344 98.456 684.344 96.872V93.152H693.68ZM698.96 100.64H701.696C702.248 100.64 702.488 100.52 702.632 99.992H697.832C697.88 100.544 698.12 100.64 698.96 100.64ZM690.128 88.712H687.512C687.704 89.144 687.848 89.624 687.944 90.056H689.744C689.888 89.624 690.032 89.12 690.128 88.712ZM693.152 88.952L692.672 90.056H694.4V92.48H683.048V90.056H685.064C684.992 89.672 684.872 89.264 684.752 88.928L686.024 88.712H683.48V86.432H687.728C687.656 86.096 687.536 85.76 687.44 85.472L690.296 85.136C690.464 85.496 690.632 86 690.752 86.432H694.184V88.712H691.928L693.152 88.952ZM703.784 98.336V99.632C704.336 99.848 704.96 100.04 705.464 100.136C705.152 102.488 704.288 103.184 702.032 103.184H698.504C695.528 103.184 694.64 102.416 694.64 99.704V91.616H700.856V91.016H694.64V85.256H697.808V86.432H704.264V88.544H697.808V89.048H704.072V93.584H697.808V94.064H703.448V95.72H697.808V96.2H703.352V97.856H697.808V98.336H703.784ZM723.584 92.168H721.52V92.792H723.752C723.56 92.672 723.344 92.576 723.152 92.48L723.584 92.168ZM714.656 90.128H718.088V89.528H714.656V90.128ZM714.656 87.056V87.632H718.088V87.056H714.656ZM725.168 87.056H721.52V87.632H725.168V87.056ZM725.168 90.128V89.528H721.52V90.128H725.168ZM730.88 95.624V98.336H725.696V100.04C725.696 101.552 725.408 102.368 724.304 102.824C723.2 103.256 721.808 103.28 720.008 103.28C719.888 102.368 719.456 101.096 719.048 100.256C720.032 100.304 721.448 100.304 721.808 100.304C722.192 100.28 722.312 100.208 722.312 99.92V98.336H716.768C717.536 98.936 718.232 99.584 718.664 100.112L716.096 102.296C715.424 101.36 713.888 99.992 712.64 99.056L713.504 98.336H708.824V95.624H722.312V95C717.704 95.12 713.288 95.192 709.976 95.216L709.88 92.768C712.088 92.792 714.944 92.792 718.088 92.792V92.168H711.392V85.016H718.088V84.44H709.472V81.848H718.088V80.48H721.52V81.848H730.112V84.44H721.52V85.016H728.6V92.168H727.472C728.456 92.768 729.392 93.392 730.04 93.896L727.928 95.624C727.664 95.384 727.376 95.144 727.016 94.88L725.696 94.928V95.624H730.88ZM743.96 84.296V83.792H735.248V81.584H743.96V80.48H747.416V81.584H756.32V83.792H747.416V84.296H754.712V86.264H737.096V84.296H743.96ZM739.448 88.568V89.312H741.752V88.568H739.448ZM744.488 88.568V89.312H746.84V88.568H744.488ZM749.576 88.568V89.312H752V88.568H749.576ZM736.376 91.136V86.744H755.24V91.136H736.376ZM741.152 97.76V98.336H750.56V97.76H741.152ZM741.152 95.576V96.128H750.56V95.576H741.152ZM741.152 93.416V93.944H750.56V93.416H741.152ZM754.112 100.064H750.776C753.08 100.664 755.624 101.384 757.184 101.912L753.008 103.4C751.712 102.8 749.264 102.008 746.744 101.36L749.216 100.064H742.592L744.752 101.072C742.664 102.032 739.4 102.872 736.88 103.328C736.304 102.656 735.176 101.504 734.432 100.976C736.496 100.784 738.752 100.472 740.456 100.064H737.768V91.664H754.112V100.064ZM777.632 99.008V96.848H770.12V99.008H777.632ZM775.184 86.984V88.904H782.312V92.048H775.184V93.656H781.208V102.992H777.632V102.056H770.12V102.992H766.712V93.656H771.56V86.984H775.184ZM774.944 83.024H782.816V86.336H765.8V89.048C765.8 93.08 765.416 99.416 763.16 103.28C762.488 102.68 760.88 101.6 760.04 101.24C762.056 97.784 762.2 92.576 762.2 89.024V83.024H771.056C770.888 82.352 770.648 81.68 770.384 81.104L773.936 80.432C774.368 81.2 774.728 82.184 774.944 83.024Z" fill="#FEFDFD"/>
<path d="M561.24 63V33.84H577.36V35.88H563.64V46.52H575.2V48.56H563.64V60.92H577.8V63H561.24ZM582.636 63L589.836 51.84L583.236 41.68H585.796L589.076 46.92C589.796 48.12 590.556 49.28 591.356 50.44H591.516C592.236 49.28 592.916 48.12 593.636 46.92L596.796 41.68H599.236L592.636 52.08L599.836 63H597.236L593.596 57.36C592.876 56.04 592.036 54.72 591.156 53.48H590.956C590.156 54.72 589.396 56.04 588.556 57.36L585.116 63H582.636ZM614.928 63.52C609.768 63.52 605.288 59.44 605.288 52.36C605.288 45.24 609.768 41.12 614.928 41.12C620.088 41.12 624.568 45.24 624.568 52.36C624.568 59.44 620.088 63.52 614.928 63.52ZM614.928 61.52C619.088 61.52 622.168 57.8 622.168 52.36C622.168 46.92 619.088 43.16 614.928 43.16C610.768 43.16 607.728 46.92 607.728 52.36C607.728 57.8 610.768 61.52 614.928 61.52ZM639.412 63.52C635.212 63.52 633.932 60.88 633.932 56.92V43.64H630.612V41.88L634.012 41.68L634.292 35.52H636.252V41.68H642.372V43.64H636.252V57.08C636.252 59.76 636.972 61.52 639.812 61.52C640.612 61.52 641.652 61.24 642.412 60.88L642.972 62.72C641.732 63.16 640.372 63.52 639.412 63.52ZM650.675 63V41.68H652.995V63H650.675ZM651.875 36.68C650.795 36.68 649.995 35.92 649.995 34.72C649.995 33.6 650.795 32.88 651.875 32.88C652.915 32.88 653.715 33.6 653.715 34.72C653.715 35.92 652.915 36.68 651.875 36.68ZM672.148 63.52C666.588 63.52 662.388 59.44 662.388 52.36C662.388 45.24 666.988 41.12 672.268 41.12C675.108 41.12 677.028 42.4 678.508 43.72L677.188 45.32C675.868 44.08 674.308 43.16 672.308 43.16C668.068 43.16 664.828 46.92 664.828 52.36C664.828 57.8 667.788 61.52 672.268 61.52C674.468 61.52 676.388 60.44 677.828 59.16L678.988 60.76C677.108 62.36 674.828 63.52 672.148 63.52ZM699.617 63V33.84H707.177C713.777 33.84 717.817 36 717.817 42.04C717.817 47.88 713.817 50.68 707.337 50.68H702.017V63H699.617ZM702.017 48.68H706.857C712.617 48.68 715.377 46.72 715.377 42.04C715.377 37.32 712.497 35.84 706.697 35.84H702.017V48.68ZM734.096 63.52C728.616 63.52 724.176 59.36 724.176 52.36C724.176 45.44 728.736 41.12 733.536 41.12C738.696 41.12 741.776 44.8 741.776 51.04C741.776 51.64 741.736 52.2 741.656 52.72H726.536C726.656 57.92 729.736 61.56 734.336 61.56C736.616 61.56 738.416 60.84 740.016 59.72L740.896 61.44C739.176 62.52 737.176 63.52 734.096 63.52ZM726.536 50.88H739.656C739.656 45.72 737.296 43.12 733.576 43.12C730.096 43.12 726.976 46 726.536 50.88ZM756.23 63.52C752.03 63.52 750.75 60.88 750.75 56.92V43.64H747.43V41.88L750.83 41.68L751.11 35.52H753.07V41.68H759.19V43.64H753.07V57.08C753.07 59.76 753.79 61.52 756.63 61.52C757.43 61.52 758.47 61.24 759.23 60.88L759.79 62.72C758.55 63.16 757.19 63.52 756.23 63.52ZM787.519 63.52C783.279 63.52 779.919 61.76 777.599 59.16L779.079 57.48C781.199 59.88 784.199 61.36 787.519 61.36C791.839 61.36 794.519 59.08 794.519 55.76C794.519 52.24 792.239 51.12 789.359 49.84L784.999 47.92C782.399 46.76 779.079 44.92 779.079 40.64C779.079 36.32 782.759 33.32 787.719 33.32C791.239 33.32 794.119 34.84 795.959 36.84L794.599 38.4C792.879 36.64 790.599 35.48 787.719 35.48C783.999 35.48 781.519 37.44 781.519 40.44C781.519 43.76 784.359 45 786.479 45.92L790.839 47.84C794.159 49.32 796.959 51.16 796.959 55.6C796.959 60.08 793.239 63.52 787.519 63.52ZM810.986 63.52C806.786 63.52 805.506 60.88 805.506 56.92V43.64H802.186V41.88L805.586 41.68L805.866 35.52H807.826V41.68H813.946V43.64H807.826V57.08C807.826 59.76 808.546 61.52 811.386 61.52C812.186 61.52 813.226 61.24 813.986 60.88L814.546 62.72C813.306 63.16 811.946 63.52 810.986 63.52ZM829.621 63.52C824.461 63.52 819.981 59.44 819.981 52.36C819.981 45.24 824.461 41.12 829.621 41.12C834.781 41.12 839.261 45.24 839.261 52.36C839.261 59.44 834.781 63.52 829.621 63.52ZM829.621 61.52C833.781 61.52 836.861 57.8 836.861 52.36C836.861 46.92 833.781 43.16 829.621 43.16C825.461 43.16 822.421 46.92 822.421 52.36C822.421 57.8 825.461 61.52 829.621 61.52ZM848.691 63V41.68H850.611L850.891 45.64H850.971C852.411 42.96 854.531 41.12 857.011 41.12C857.851 41.12 858.491 41.24 859.171 41.6L858.691 43.68C857.971 43.4 857.571 43.32 856.731 43.32C854.851 43.32 852.571 44.72 851.011 48.68V63H848.691ZM873.996 63.52C868.516 63.52 864.076 59.36 864.076 52.36C864.076 45.44 868.636 41.12 873.436 41.12C878.596 41.12 881.676 44.8 881.676 51.04C881.676 51.64 881.636 52.2 881.556 52.72H866.436C866.556 57.92 869.636 61.56 874.236 61.56C876.516 61.56 878.316 60.84 879.916 59.72L880.796 61.44C879.076 62.52 877.076 63.52 873.996 63.52ZM866.436 50.88H879.556C879.556 45.72 877.196 43.12 873.476 43.12C869.996 43.12 866.876 46 866.436 50.88Z" fill="#FEFDFD"/>
<path d="M477.872 66.1184C477.532 66.1184 477.198 66.0707 476.869 65.9752C476.712 65.9275 476.561 65.8744 476.41 65.8055C474.765 65.0683 473.903 63.1855 474.399 61.43C474.734 60.2632 474.587 59.7275 474.467 59.5101C474.332 59.2608 474.003 59.0115 473.538 58.8047C473.329 58.7092 473.089 58.6244 472.833 58.5501C472.671 58.5024 472.52 58.4441 472.374 58.3804C470.729 57.6432 469.867 55.7604 470.363 54.0049C470.807 52.4457 472.233 51.3531 473.835 51.3531C474.175 51.3531 474.509 51.4008 474.838 51.4963C475.308 51.6342 475.715 51.7031 476.06 51.7031C476.342 51.7031 476.566 51.6554 476.728 51.5653C476.942 51.4486 477.344 51.072 477.678 49.9052C477.945 48.9665 478.561 48.1868 479.401 47.7095C479.934 47.4125 480.54 47.2534 481.145 47.2534C481.485 47.2534 481.824 47.3011 482.153 47.3966C482.31 47.439 482.461 47.4974 482.613 47.5663C484.257 48.3035 485.119 50.1863 484.623 51.9418C484.289 53.1086 484.435 53.6443 484.555 53.8617C484.691 54.111 485.02 54.3603 485.479 54.5671C485.688 54.6626 485.928 54.7474 486.189 54.827C486.341 54.8694 486.503 54.9278 486.654 54.9967C488.293 55.7339 489.155 57.6114 488.659 59.3669C488.215 60.9261 486.79 62.0187 485.187 62.0187C484.847 62.0187 484.513 61.971 484.184 61.8755C483.72 61.7376 483.307 61.6687 482.962 61.6687C482.68 61.6687 482.456 61.7164 482.294 61.8066C482.08 61.9232 481.678 62.2998 481.344 63.4666C480.9 65.0259 479.475 66.1184 477.872 66.1184Z" fill="#F2C32A"/>
<path d="M481.145 48.5033C481.37 48.5033 481.589 48.5351 481.808 48.5988C481.913 48.6306 482.012 48.6677 482.111 48.7102C483.197 49.1981 483.766 50.4391 483.438 51.5953C483.093 52.8152 483.103 53.7804 483.474 54.4646C483.746 54.9631 484.252 55.3821 484.978 55.7109C485.239 55.8276 485.531 55.9337 485.845 56.0239C485.949 56.0557 486.048 56.0928 486.147 56.1352C487.233 56.6232 487.803 57.8642 487.474 59.0204C487.171 60.0811 486.215 60.7706 485.181 60.7706C484.962 60.7706 484.743 60.7388 484.524 60.6751C483.944 60.5054 483.422 60.4205 482.962 60.4205C482.472 60.4205 482.049 60.516 481.704 60.7123C481.03 61.0888 480.514 61.9003 480.169 63.1201C479.866 64.1808 478.911 64.8703 477.877 64.8703C477.657 64.8703 477.438 64.8385 477.219 64.7748C477.114 64.743 477.015 64.7059 476.916 64.6634C475.83 64.1755 475.261 62.9345 475.59 61.7783C475.934 60.5584 475.924 59.5932 475.553 58.909C475.282 58.4105 474.775 57.9915 474.05 57.6627C473.788 57.546 473.496 57.4399 473.183 57.3498C473.078 57.3179 472.979 57.2808 472.88 57.2384C471.794 56.7504 471.225 55.5094 471.554 54.3532C471.857 53.2925 472.812 52.603 473.846 52.603C474.065 52.603 474.284 52.6348 474.504 52.6985C475.083 52.8682 475.605 52.9531 476.065 52.9531C476.556 52.9531 476.979 52.8576 477.323 52.6613C477.997 52.2848 478.514 51.4733 478.858 50.2535C479.036 49.633 479.438 49.1185 479.997 48.8056C480.352 48.6041 480.749 48.5033 481.145 48.5033ZM481.145 46.0053C480.331 46.0053 479.527 46.2175 478.811 46.6205C477.678 47.257 476.859 48.3018 476.498 49.564C476.347 50.0944 476.201 50.3543 476.128 50.4551C476.112 50.4551 476.091 50.4551 476.065 50.4551C475.908 50.4551 475.626 50.4285 475.183 50.2959C474.744 50.1686 474.295 50.105 473.841 50.105C471.695 50.105 469.784 51.5635 469.188 53.6584C468.52 56.0079 469.679 58.5272 471.877 59.5189C472.076 59.6091 472.285 59.6833 472.494 59.747C472.702 59.8053 472.885 59.8743 473.047 59.9485C473.214 60.0228 473.319 60.0864 473.376 60.1289C473.381 60.2614 473.376 60.5584 473.225 61.0835C472.556 63.433 473.715 65.9522 475.914 66.944C476.112 67.0342 476.321 67.1084 476.53 67.1721C476.968 67.2993 477.417 67.363 477.872 67.363C480.018 67.363 481.929 65.9045 482.524 63.8096C482.675 63.2792 482.821 63.0193 482.895 62.9133C482.91 62.9133 482.931 62.9133 482.957 62.9133C483.114 62.9133 483.396 62.9398 483.84 63.0724C484.278 63.1996 484.727 63.2633 485.181 63.2633C487.327 63.2633 489.238 61.8048 489.834 59.7099C490.502 57.3604 489.343 54.8411 487.145 53.8494C486.946 53.7592 486.737 53.685 486.529 53.6213C486.32 53.563 486.137 53.494 485.975 53.4198C485.808 53.3455 485.704 53.2819 485.646 53.2395C485.641 53.1069 485.646 52.8099 485.798 52.2848C486.466 49.9353 485.312 47.4161 483.109 46.4243C482.91 46.3341 482.701 46.2599 482.492 46.1962C482.054 46.069 481.6 46 481.145 46V46.0053Z" fill="white"/>
<path d="M511.286 96.7092C510.534 96.7092 509.843 96.3358 509.382 95.6894C508.932 95.0598 508.521 94.4357 508.142 93.8171C507.352 94.235 506.546 94.6195 505.734 94.9762C505.366 95.1378 504.988 95.2214 504.609 95.2214C503.589 95.2214 502.695 94.6363 502.272 93.6889C501.839 92.7193 502.009 91.5993 502.716 90.7634L503.358 90.0112C503.166 89.9164 502.98 89.8273 502.793 89.7325C501.789 89.2254 501.268 88.2001 501.466 87.1191C501.685 85.9043 502.749 84.8957 503.94 84.7787C504.231 84.7508 504.532 84.7229 504.834 84.7062C504.713 83.7478 504.62 82.7726 504.554 81.803C504.505 81.1176 504.735 80.46 505.196 79.9585C505.695 79.4124 506.42 79.1004 507.182 79.1004C507.577 79.1004 507.967 79.1895 508.307 79.3567C508.433 79.0335 508.559 78.7159 508.696 78.3983C509.124 77.3729 510.199 76.6597 511.302 76.6597C512.295 76.6597 513.14 77.2559 513.507 78.2088C513.908 79.2564 514.215 80.2873 514.435 81.3349L515.85 81.0619C516.014 81.0284 516.185 81.0117 516.349 81.0117C517.315 81.0117 518.203 81.5467 518.675 82.3992C519.136 83.2351 519.109 84.227 518.609 85.0461L517.463 86.9296L517.885 87.0968C519.087 87.5816 519.778 88.8911 519.531 90.2118C519.301 91.4321 518.33 92.2513 517.112 92.2513C517.04 92.2513 516.964 92.2513 516.887 92.2401L514.561 92.0507C514.473 92.0451 514.385 92.0339 514.292 92.0228C514.193 92.7528 514.1 93.4883 514.007 94.2183C513.837 95.5613 512.591 96.6925 511.297 96.6925L511.286 96.7092Z" fill="#77C67C"/>
<path d="M511.296 78.1039C511.659 78.1039 511.999 78.2823 512.174 78.7336C512.717 80.1434 513.079 81.5588 513.26 83.03C514.21 82.8461 515.159 82.6622 516.108 82.4783C516.185 82.4616 516.267 82.456 516.344 82.456C517.232 82.456 517.907 83.4312 517.391 84.2782C516.711 85.3982 516.031 86.5183 515.351 87.6328C516.02 87.9002 516.689 88.1733 517.353 88.4408C518.483 88.8977 518.406 90.7923 517.106 90.7923C517.068 90.7923 517.029 90.7923 516.991 90.7923C516.217 90.731 515.444 90.6697 514.665 90.6029C514.155 90.5638 513.529 90.4245 512.959 90.3967C512.893 90.8648 512.915 91.4721 512.871 91.7953C512.772 92.542 512.673 93.2832 512.58 94.0299C512.503 94.6484 511.883 95.2391 511.286 95.2391C511.017 95.2391 510.748 95.1165 510.539 94.8212C509.859 93.8627 509.239 92.8875 508.68 91.8566C507.539 92.5086 506.37 93.0993 505.169 93.6287C504.977 93.7122 504.79 93.7513 504.615 93.7513C503.649 93.7513 503.057 92.5699 503.803 91.695C504.439 90.9483 505.07 90.2072 505.706 89.4605C504.938 89.1373 504.181 88.7918 503.435 88.4129C502.261 87.8222 503.078 86.3009 504.088 86.1951C504.839 86.1171 505.586 86.0836 506.337 86.0836C506.387 86.0836 506.436 86.0836 506.485 86.0836C506.249 84.6236 506.085 83.1525 505.986 81.6703C505.937 80.957 506.568 80.5224 507.187 80.5224C507.5 80.5224 507.807 80.6338 508.027 80.879C508.329 81.2133 508.619 81.5588 508.91 81.8988C509.239 80.8957 509.601 79.9094 510.013 78.9342C510.216 78.4494 510.786 78.0816 511.307 78.0816M511.307 75.1784C509.706 75.1784 508.153 76.1759 507.462 77.6303C507.369 77.6247 507.281 77.6191 507.187 77.6191C506.03 77.6191 504.927 78.0984 504.154 78.9342C503.419 79.7311 503.057 80.7731 503.133 81.8709C503.166 82.3835 503.21 82.8906 503.26 83.3977C501.669 83.7934 500.368 85.1586 500.067 86.8248C499.82 88.1789 500.27 89.4717 501.23 90.3577C500.506 91.5446 500.401 92.9823 500.977 94.2639C501.63 95.7072 503.057 96.6433 504.615 96.6433C505.191 96.6433 505.761 96.5207 506.304 96.2811C506.749 96.0861 507.193 95.8799 507.637 95.6626C507.824 95.9412 508.021 96.2254 508.224 96.5096C508.959 97.5405 510.073 98.1312 511.286 98.1312C513.299 98.1312 515.148 96.4539 515.411 94.3921C515.444 94.119 515.482 93.8404 515.515 93.5674L516.761 93.6677C516.876 93.6788 516.991 93.6788 517.101 93.6788C518.993 93.6788 520.568 92.3582 520.924 90.4635C521.221 88.8865 520.628 87.3207 519.465 86.3622L519.816 85.7827C520.59 84.5066 520.628 82.9686 519.915 81.6647C519.191 80.3496 517.825 79.5305 516.344 79.5305C516.086 79.5305 515.828 79.5528 515.576 79.6029L515.493 79.6196C515.312 78.9621 515.093 78.3101 514.835 77.647C514.248 76.1202 512.893 75.1729 511.296 75.1729L511.307 75.1784Z" fill="white"/>
<path d="M934.356 87.6556C934.356 87.6556 928.604 82.8374 922.347 90.2867C916.09 97.7359 922.371 105.817 922.371 105.817C922.371 105.817 926.043 95.8922 934.362 87.6552L934.356 87.6556Z" fill="#FAFFFF" stroke="#543816" stroke-width="2.83973" stroke-linecap="round" stroke-linejoin="round"/>
<path d="M1020.05 146.35C1009.69 137.593 1002.01 119.934 998.904 111.902C995.181 96.1406 979.775 85.2266 978.268 80.2582C976.281 73.674 985.353 70.101 980.948 53.271C976.542 36.4409 958.288 29.3316 946.293 31.065C934.292 32.7988 923.819 42.2648 920.619 54.7843C917.304 67.7402 926.933 77.269 930.727 79.8421C938.665 85.2354 928.555 90.5634 923.746 100.518C916.253 116.037 917.051 155.543 959.177 159.685C961.921 159.953 964.613 159.956 967.225 159.641C984.996 159.791 1028.36 153.378 1020.05 146.356L1020.05 146.35Z" fill="#FAFFFF" stroke="#543816" stroke-width="2.83973" stroke-linecap="round" stroke-linejoin="round"/>
<path d="M933.127 63.3288C933.127 63.3288 937.173 66.4475 950.686 64.0394C950.686 64.0394 950.622 68.2594 955.352 71.1199C960.081 73.9805 961.51 80.9526 952.376 83.184C943.243 85.4154 928.705 85.2869 924.221 77.0309C919.738 68.775 928.332 70.3121 933.127 63.3288Z" fill="#F2C32A" stroke="#543816" stroke-width="2.62177" stroke-linecap="round" stroke-linejoin="round"/>
<path d="M975.788 88.3329C975.788 88.3329 959.762 82.9359 962.423 107.722C965.076 132.502 992.496 152.306 1006.2 139.885C1019.91 127.463 1004.4 93.9859 975.788 88.3329Z" fill="#FAFFFF" stroke="#543816" stroke-width="2.83973" stroke-linecap="round" stroke-linejoin="round"/>
<path d="M968.247 56.4483C972.54 56.37 977.12 61.2634 976.087 66.1072C975.295 69.8407 971.45 72.228 967.852 72.1408C965.334 72.0772 962.285 70.7931 961.096 68.1913C959.034 63.6853 963.133 56.5499 968.247 56.4545L968.247 56.4483Z" fill="#FFCAB0"/>
<path d="M955.393 51.7196C954.855 54.0431 955.245 58.3673 956.023 61.0742C956.416 62.4399 959.486 64.9061 961.677 61.8189C963.868 58.7318 962.287 51.1396 960.241 49.4975C958.619 48.1979 956.015 49.0549 955.393 51.7196Z" fill="#543816" stroke="#543816" stroke-width="2.57818" stroke-miterlimit="10"/>
<path d="M933.603 99.7648C931.542 103.492 931.227 108.044 932.84 112.016C933.364 113.3 935.424 112.686 934.894 111.385C933.489 107.924 933.68 104.089 935.486 100.819C936.162 99.5956 934.279 98.5417 933.603 99.7648Z" fill="#E2DDD5"/>
<path d="M939.106 113.362C937.99 111.796 937.507 109.95 937.83 108.031C938.067 106.653 935.982 106.122 935.745 107.506C935.32 109.979 935.822 112.465 937.279 114.509C938.087 115.639 939.915 114.504 939.106 113.362Z" fill="#E2DDD5"/>
<path d="M945.241 112.49C944.036 111.49 943.066 110.32 942.316 108.938C941.643 107.707 939.822 108.854 940.489 110.085C941.321 111.612 942.431 112.967 943.765 114.071C944.835 114.955 946.318 113.379 945.241 112.49Z" fill="#E2DDD5"/>
<path d="M992.975 124.819C987.556 125.456 985.936 118.252 986.034 113.669C987.53 114.907 989.29 115.85 991.166 116.481C992.479 116.92 992.986 114.804 991.679 114.364C987.914 113.097 984.764 110.324 983.781 106.322C983.449 104.959 981.39 105.591 981.727 106.953C982.164 108.74 982.973 110.311 984.046 111.662C984.048 111.687 984.037 111.712 984.032 111.738C983.75 114.139 983.851 116.581 984.418 118.921C981.652 119.015 979.183 117.279 977.775 114.908C976.1 112.08 975.88 108.661 975.98 105.448C976.02 104.044 973.877 104.102 973.831 105.5C973.716 109.287 974.105 113.399 976.299 116.602C978.204 119.386 981.355 121.368 984.767 121.092C984.883 121.085 984.985 121.061 985.075 121.024C985.22 121.396 985.37 121.761 985.544 122.118C986.916 125.014 989.699 127.397 993.024 127.002C994.388 126.841 994.339 124.658 992.969 124.82L992.975 124.819Z" fill="#E2DDD5"/>
<path d="M921.675 57.0043C921.675 57.0043 921.622 57.1444 921.539 57.3984C921.54 57.4108 921.541 57.4232 921.535 57.4298C921.339 58.5872 921.267 59.7623 921.3 60.9375C921.392 62.8129 921.882 64.6897 922.297 66.5213C922.673 67.6014 923.145 68.6449 923.659 69.6671C924.885 69.0469 926.553 67.3731 926.693 62.887C926.786 59.9856 924.491 57.343 921.675 56.9981L921.675 57.0043Z" fill="#FFCAB0"/>
<path d="M928.263 49.2272C930.098 49.468 930.269 52.5843 930.362 56.3529C930.488 61.5084 928.531 63.0498 927.634 63.3454C925.806 63.9512 924.293 61.4681 924.161 56.313C924.045 51.6302 925.945 48.9152 928.263 49.221L928.263 49.2272Z" fill="#543816" stroke="#543816" stroke-width="2.57195" stroke-miterlimit="10"/>
<path d="M937.857 70.045C938.316 70.018 938.665 69.6182 938.638 69.152C938.611 68.6859 938.216 68.3299 937.757 68.3569C937.298 68.3839 936.949 68.7837 936.976 69.2498C937.003 69.716 937.398 70.072 937.857 70.045Z" fill="#DD8936" stroke="#DD8936" stroke-width="1.12718" stroke-miterlimit="10"/>
<path d="M943.111 70.1417C943.57 70.1147 943.92 69.7149 943.892 69.2487C943.865 68.7825 943.471 68.4265 943.012 68.4535C942.553 68.4806 942.203 68.8803 942.23 69.3465C942.258 69.8127 942.652 70.1687 943.111 70.1417Z" fill="#DD8936" stroke="#DD8936" stroke-width="1.12718" stroke-miterlimit="10"/>
<path d="M1044.64 52.1592C1044.04 52.1592 1043.47 51.9948 1042.98 51.6765C1040.33 50.828 1039 47.2852 1038.21 44.6493C1037.06 40.767 1037.3 37.7439 1038.91 35.6543C1039.96 34.2913 1041.52 33.5063 1043.17 33.5063C1044.64 33.5063 1045.99 34.1269 1046.99 35.2512C1047.28 35.5801 1047.54 35.9407 1047.78 36.3226C1048.79 35.8718 1049.84 35.6331 1050.84 35.6331C1053.54 35.6331 1055.44 37.3515 1055.92 40.2366C1056.48 43.6416 1054.08 46.4843 1052.22 48.3247C1050.09 50.4355 1047.64 51.7508 1045.13 52.1221C1044.97 52.1486 1044.8 52.1592 1044.64 52.1592H1044.64Z" fill="#E07D77"/>
<path d="M1043.17 35.0125C1044.16 35.0125 1045.14 35.4102 1045.88 36.2535C1046.45 36.8899 1046.86 37.6165 1047.14 38.3856C1048.29 37.6112 1049.62 37.1392 1050.84 37.1392C1052.57 37.1392 1054.07 38.0886 1054.46 40.4805C1054.9 43.1429 1052.94 45.5083 1051.19 47.2426C1049.46 48.961 1047.34 50.2657 1044.92 50.6263C1044.82 50.6422 1044.73 50.6475 1044.64 50.6475C1044.23 50.6475 1043.89 50.5096 1043.61 50.2922C1041.4 49.7777 1040.2 46.1182 1039.63 44.2142C1038.93 41.8329 1038.45 38.6932 1040.07 36.5876C1040.86 35.564 1042.02 35.0178 1043.17 35.0178M1043.17 32C1041.05 32 1039.07 32.9918 1037.73 34.7261C1035.8 37.2241 1035.48 40.7085 1036.78 45.0893C1037.34 46.9615 1038.77 51.7719 1042.34 53.0607C1043.04 53.4637 1043.82 53.6706 1044.63 53.6706C1044.87 53.6706 1045.1 53.6547 1045.34 53.6176C1048.16 53.1986 1050.9 51.7401 1053.25 49.4065C1054.59 48.0806 1058.13 44.5643 1057.38 39.9873C1056.79 36.3702 1054.28 34.1267 1050.83 34.1267C1050.01 34.1267 1049.16 34.2593 1048.32 34.5192C1048.24 34.4291 1048.17 34.3389 1048.09 34.2487C1046.81 32.8008 1045.06 32.0053 1043.17 32.0053V32Z" fill="white"/>
<path d="M1055.67 102.837C1053.62 102.837 1051.45 102.391 1049.37 101.548C1047.97 100.98 1047.19 99.5061 1047.49 97.968C1047.75 96.5732 1048.83 95.5973 1050.12 95.5973C1050.48 95.5973 1050.85 95.6716 1051.21 95.8201C1052.33 96.2709 1054.02 96.8118 1055.78 96.8118C1056.81 96.8118 1057.71 96.6262 1058.48 96.2497C1056.1 94.4836 1054.58 91.3915 1054.73 88.2359C1054.9 85.006 1057.26 82.7519 1060.47 82.7519C1062.5 82.7519 1064.44 83.7225 1065.65 85.356C1066.4 86.369 1066.92 87.5835 1067.18 88.9254C1068.08 87.7586 1068.7 86.3319 1068.99 84.7726C1069.24 83.3778 1070.34 82.4443 1071.71 82.4443C1072.65 82.4443 1073.57 82.8792 1074.16 83.6058C1074.73 84.3059 1074.95 85.1916 1074.78 86.1091C1073.84 91.1953 1070.18 95.6716 1065.76 97.2202C1065.21 98.212 1064.55 99.0712 1063.79 99.7766C1061.66 101.776 1058.85 102.837 1055.67 102.837ZM1060.67 88.7344C1060.71 89.1057 1060.91 89.7527 1061.27 90.4422C1061.3 90.5005 1061.33 90.5589 1061.36 90.6172C1061.3 89.7368 1060.98 88.8988 1060.66 88.7344H1060.67Z" fill="#F2C32A"/>
<path d="M1071.71 83.8799C1072.62 83.8799 1073.61 84.6489 1073.39 85.8422C1072.57 90.3291 1069.23 94.747 1064.78 96.0199C1064.27 97.0594 1063.61 97.9928 1062.83 98.7194C1060.81 100.618 1058.27 101.398 1055.67 101.398C1053.71 101.398 1051.72 100.952 1049.89 100.21C1048.25 99.5468 1048.69 97.0328 1050.12 97.0328C1050.3 97.0328 1050.48 97.07 1050.69 97.1495C1052.25 97.7807 1054.04 98.2421 1055.78 98.2421C1057.76 98.2421 1059.67 97.6428 1061.08 96.0092C1058.09 95.0122 1055.98 91.6603 1056.14 88.3031C1056.28 85.5823 1058.31 84.1875 1060.47 84.1875C1061.96 84.1875 1063.5 84.8557 1064.52 86.2188C1065.72 87.8205 1066.11 89.9313 1065.91 92.0315C1068.29 90.4829 1069.86 87.8523 1070.38 85.0308C1070.52 84.2246 1071.1 83.8746 1071.71 83.8746M1062.53 93.0976C1062.71 92.3551 1062.8 91.5913 1062.79 90.8488C1062.77 89.4964 1062.22 87.253 1060.55 87.2583C1060.47 87.2583 1060.38 87.2583 1060.3 87.2742C1058.44 87.5075 1059.48 90.0957 1060.01 91.114C1060.66 92.3391 1061.51 92.9809 1062.53 93.0976ZM1071.71 81C1069.63 81 1067.98 82.4055 1067.59 84.5057C1067.53 84.8133 1067.46 85.1103 1067.38 85.402C1067.19 85.0838 1066.99 84.7762 1066.77 84.4845C1065.29 82.4956 1062.93 81.3129 1060.46 81.3129C1056.52 81.3129 1053.51 84.1928 1053.31 88.1599C1053.18 90.7746 1054.06 93.3574 1055.6 95.3675C1054.43 95.341 1053.1 95.0334 1051.73 94.4818C1051.21 94.2697 1050.66 94.1583 1050.12 94.1583C1048.14 94.1583 1046.49 95.6115 1046.09 97.6958C1045.67 99.9233 1046.79 102.055 1048.83 102.883C1051.08 103.795 1053.44 104.272 1055.67 104.272C1059.21 104.272 1062.35 103.084 1064.75 100.83C1065.49 100.135 1066.15 99.3187 1066.71 98.3906C1071.43 96.5237 1075.16 91.8459 1076.17 86.3726C1076.41 85.0467 1076.07 83.7048 1075.24 82.6865C1074.38 81.6364 1073.06 81.0053 1071.71 81.0053V81Z" fill="white"/>
<path d="M415.86 66.0129C415.329 64.0309 415.196 61.8124 415.472 59.5869C415.658 58.0884 416.883 56.9603 418.444 56.8447C419.86 56.7409 421.082 57.5323 421.416 58.7781C421.51 59.126 421.532 59.4983 421.482 59.8847C421.336 61.0807 421.253 62.8598 421.707 64.5544C421.973 65.548 422.386 66.3725 422.95 67.0215C424.039 64.2645 426.631 61.9916 429.72 61.3261C432.882 60.6465 435.67 62.3428 436.502 65.4495C437.027 67.4064 436.591 69.5287 435.328 71.1266C434.544 72.1151 433.504 72.9287 432.276 73.5282C433.634 74.0886 435.174 74.3246 436.755 74.1984C438.168 74.0845 439.354 74.9021 439.709 76.2285C439.951 77.1313 439.769 78.1315 439.22 78.8894C438.691 79.6204 437.893 80.0665 436.962 80.1375C431.808 80.5511 426.535 78.1692 423.895 74.2982C422.795 74.0253 421.795 73.6122 420.917 73.0635C418.435 71.5232 416.683 69.0844 415.86 66.0129ZM430.774 67.1845C430.427 67.326 429.852 67.6801 429.28 68.2065C429.231 68.2519 429.183 68.2972 429.135 68.3426C429.969 68.0542 430.697 67.5347 430.772 67.1795L430.774 67.1845Z" fill="#E07D77"/>
<path d="M438.322 76.6004C438.558 77.478 438.07 78.6302 436.861 78.7273C432.313 79.0917 427.182 77.0124 424.801 73.0448C423.665 72.8196 422.593 72.4257 421.69 71.8623C419.333 70.4019 417.922 68.1475 417.25 65.6409C416.742 63.7446 416.656 61.7026 416.9 59.7453C417.116 57.99 419.658 57.763 420.03 59.15C420.074 59.3164 420.087 59.5076 420.063 59.7249C419.857 61.3962 419.875 63.2455 420.325 64.925C420.839 66.8415 421.912 68.5323 423.855 69.4713C424.044 66.3233 426.734 63.4132 430.02 62.7057C432.683 62.1326 434.556 63.7335 435.114 65.8164C435.5 67.2538 435.254 68.9196 434.201 70.2559C432.963 71.8254 431.027 72.755 428.946 73.1019C431.059 75.006 434.006 75.8381 436.865 75.6072C437.681 75.5397 438.168 76.0039 438.326 76.594M427.04 70.1097C427.805 70.094 428.566 69.9821 429.28 69.7798C430.581 69.4096 432.607 68.3044 432.169 66.6869C432.148 66.6112 432.125 66.5255 432.088 66.4489C431.383 64.7189 429.151 66.3874 428.306 67.1704C427.291 68.1129 426.89 69.096 427.04 70.1097ZM441.103 75.85C440.565 73.8427 438.779 72.6077 436.65 72.7781C436.338 72.8022 436.034 72.8135 435.729 72.8033C435.989 72.5444 436.234 72.2681 436.459 71.9808C437.996 70.0337 438.529 67.453 437.89 65.0674C436.869 61.2596 433.309 59.0999 429.426 59.9351C426.867 60.4857 424.599 62.0015 423.054 64.0045C422.777 62.8679 422.731 61.5073 422.91 60.0431C422.978 59.4788 422.945 58.9255 422.805 58.401C422.293 56.4895 420.461 55.2668 418.345 55.423C416.084 55.591 414.316 57.2322 414.045 59.4183C413.745 61.8231 413.895 64.2263 414.472 66.3798C415.388 69.7993 417.349 72.528 420.147 74.2595C421.01 74.7959 421.969 75.22 423.012 75.5244C426.036 79.6005 431.52 81.9909 437.067 81.5476C438.412 81.4415 439.62 80.7664 440.389 79.7009C441.18 78.597 441.448 77.1576 441.098 75.8514L441.103 75.85Z" fill="white"/>
</g>
<defs>
<clipPath id="clip0_86_2185">
<rect width="1440" height="133" fill="white"/>
</clipPath>
</defs>
</svg>
