<svg width="35" height="35" viewBox="0 0 35 35" fill="none" xmlns="http://www.w3.org/2000/svg">
<path d="M25.6521 19.0546L24.0996 17.2287C23.0977 16.05 23.2518 15.0886 23.2931 13.557C23.3015 13.2439 23.0979 12.962 22.7967 12.876L21.0008 12.3636C20.6331 12.2587 20.2398 12.4725 20.1541 12.8451C19.8558 14.1422 18.7807 15.3795 17.5001 15.3795C16.2155 15.3795 15.1376 14.1707 14.8432 12.88C14.7594 12.5124 14.3722 12.2998 14.0079 12.397L12.1881 12.8823C11.8808 12.9643 11.6715 13.2484 11.6805 13.5664C11.721 14.9919 11.8509 16.0901 10.8739 17.2449L9.31254 19.0903C8.5921 19.9418 8.19678 21.0211 8.19678 22.1365V26.0175C8.19678 27.0945 9.0698 27.9675 10.1467 27.9675H24.8047C25.9086 27.9675 26.8034 27.0727 26.8034 25.9689V22.1862C26.8034 21.0388 26.3953 19.9287 25.6521 19.0546ZM17.5 24.5295C15.6441 24.5295 14.1396 23.025 14.1396 21.1689C14.1396 19.313 15.6441 17.8084 17.5 17.8084C19.356 17.8084 20.8606 19.313 20.8606 21.1689C20.8606 23.025 19.356 24.5295 17.5 24.5295Z" fill="#543816"/>
<path d="M29.6178 10.6004C27.0955 8.50366 22.4049 7.03202 17.5001 7.03223C12.5951 7.03202 7.90461 8.50366 5.38229 10.6004C4.51891 11.318 3.97046 13.6112 4.74805 15.1206C5.31188 16.2148 5.97756 16.6818 7.16825 16.3188L9.15354 15.5029C9.9314 15.3042 10.1274 14.8012 9.96373 13.9194C9.6043 11.9833 10.1411 11.3665 11.8818 10.9248C13.506 10.5126 15.7532 10.4633 17.5 10.4633C19.2467 10.4633 21.4938 10.5126 23.1182 10.9248C24.8588 11.3665 25.3955 11.9833 25.0362 13.9194C24.8725 14.8012 25.0685 15.3042 25.8464 15.5029L27.8316 16.3188C29.0224 16.6818 29.6881 16.2148 30.2518 15.1206C31.0296 13.6113 30.481 11.318 29.6178 10.6004Z" fill="#543816"/>
</svg>
