<svg width="35" height="35" viewBox="0 0 35 35" fill="none" xmlns="http://www.w3.org/2000/svg">
<rect x="6" y="5" width="25" height="25" rx="6" fill="#543816"/>
<path d="M25.376 15.368H22.336C23.168 17.496 24.432 19.544 25.888 20.824C25.328 21.24 24.544 22.072 24.16 22.696C23.088 21.592 22.176 20.088 21.424 18.408V24.52H19.12V18.616C18.272 20.248 17.264 21.688 16.128 22.776C15.792 22.312 15.216 21.656 14.72 21.208V24.488H12.416V16.824C12.096 17.224 11.76 17.576 11.44 17.896C11.2 17.304 10.512 15.992 10.096 15.4C11.648 13.976 13.136 11.704 14 9.4L16.32 10.152C15.888 11.24 15.344 12.376 14.72 13.464V20.68C16.16 19.384 17.44 17.4 18.288 15.368H15.28V13.112H19.12V9.608H21.424V13.112H25.376V15.368Z" fill="white"/>
</svg>
