<svg width="1078" height="754" viewBox="0 0 1078 754" fill="none" xmlns="http://www.w3.org/2000/svg">
<path d="M1025.78 0.0078125H53.2015C24.3618 0.0078125 0.982666 23.7553 0.982666 53.0493V700.788C0.982666 730.082 24.3618 753.83 53.2015 753.83H1025.78C1054.62 753.83 1078 730.082 1078 700.788V53.0493C1078 23.7553 1054.62 0.0078125 1025.78 0.0078125Z" fill="#F7F0ED"/>
<g opacity="0.32">
<mask id="mask0_1128_3797" style="mask-type:luminance" maskUnits="userSpaceOnUse" x="0" y="2" width="1077" height="752">
<path d="M1024 2.07812H53.2018C24.3621 2.07812 0.98291 25.8256 0.98291 55.1196V700.962C0.98291 730.256 24.3621 754.003 53.2018 754.003H1024C1052.84 754.003 1076.22 730.256 1076.22 700.962V55.1196C1076.22 25.8256 1052.84 2.07812 1024 2.07812Z" fill="white"/>
</mask>
<g mask="url(#mask0_1128_3797)">
<path d="M-7.86279 53.7891H1084.08" stroke="#DBCCC1" stroke-width="3.01" stroke-miterlimit="10"/>
<path d="M-7.86279 108H1084.08" stroke="#DBCCC1" stroke-width="3.01" stroke-miterlimit="10"/>
<path d="M-7.86279 162.227H1084.08" stroke="#DBCCC1" stroke-width="3.01" stroke-miterlimit="10"/>
<path d="M-7.86279 216.445H1084.08" stroke="#DBCCC1" stroke-width="3.01" stroke-miterlimit="10"/>
<path d="M-7.86279 270.648H1084.08" stroke="#DBCCC1" stroke-width="3.01" stroke-miterlimit="10"/>
<path d="M-7.86279 324.852H1084.08" stroke="#DBCCC1" stroke-width="3.01" stroke-miterlimit="10"/>
<path d="M-7.86279 379.062H1084.08" stroke="#DBCCC1" stroke-width="3.01" stroke-miterlimit="10"/>
<path d="M-7.86279 433.273H1084.08" stroke="#DBCCC1" stroke-width="3.01" stroke-miterlimit="10"/>
<path d="M-7.86279 487.484H1084.08" stroke="#DBCCC1" stroke-width="3.01" stroke-miterlimit="10"/>
<path d="M-7.86279 541.695H1084.08" stroke="#DBCCC1" stroke-width="3.01" stroke-miterlimit="10"/>
<path d="M-7.86279 595.906H1084.08" stroke="#DBCCC1" stroke-width="3.01" stroke-miterlimit="10"/>
<path d="M-7.86279 650.117H1084.08" stroke="#DBCCC1" stroke-width="3.01" stroke-miterlimit="10"/>
<path d="M-7.86279 704.336H1084.08" stroke="#DBCCC1" stroke-width="3.01" stroke-miterlimit="10"/>
<path d="M689.794 -178.609V936.729" stroke="#DBCCC1" stroke-width="3.01" stroke-miterlimit="10"/>
<path d="M636.72 -178.609V936.729" stroke="#DBCCC1" stroke-width="3.01" stroke-miterlimit="10"/>
<path d="M583.646 -178.609V936.729" stroke="#DBCCC1" stroke-width="3.01" stroke-miterlimit="10"/>
<path d="M530.572 -178.609V936.729" stroke="#DBCCC1" stroke-width="3.01" stroke-miterlimit="10"/>
<path d="M477.498 -178.609V936.729" stroke="#DBCCC1" stroke-width="3.01" stroke-miterlimit="10"/>
<path d="M424.424 -178.609V936.729" stroke="#DBCCC1" stroke-width="3.01" stroke-miterlimit="10"/>
<path d="M371.35 -178.609V936.729" stroke="#DBCCC1" stroke-width="3.01" stroke-miterlimit="10"/>
<path d="M318.277 -178.609V936.729" stroke="#DBCCC1" stroke-width="3.01" stroke-miterlimit="10"/>
<path d="M265.203 -178.609V936.729" stroke="#DBCCC1" stroke-width="3.01" stroke-miterlimit="10"/>
<path d="M212.129 -178.609V936.729" stroke="#DBCCC1" stroke-width="3.01" stroke-miterlimit="10"/>
<path d="M159.055 -178.609V936.729" stroke="#DBCCC1" stroke-width="3.01" stroke-miterlimit="10"/>
<path d="M105.98 -178.609V936.729" stroke="#DBCCC1" stroke-width="3.01" stroke-miterlimit="10"/>
<path d="M52.907 -178.609V936.729" stroke="#DBCCC1" stroke-width="3.01" stroke-miterlimit="10"/>
<path d="M1062.95 -178.609V936.729" stroke="#DBCCC1" stroke-width="3.01" stroke-miterlimit="10"/>
<path d="M1009.88 -178.609V936.729" stroke="#DBCCC1" stroke-width="3.01" stroke-miterlimit="10"/>
<path d="M956.805 -178.609V936.729" stroke="#DBCCC1" stroke-width="3.01" stroke-miterlimit="10"/>
<path d="M903.731 -178.609V936.729" stroke="#DBCCC1" stroke-width="3.01" stroke-miterlimit="10"/>
<path d="M850.657 -178.609V936.729" stroke="#DBCCC1" stroke-width="3.01" stroke-miterlimit="10"/>
<path d="M797.583 -178.609V936.729" stroke="#DBCCC1" stroke-width="3.01" stroke-miterlimit="10"/>
<path d="M744.509 -178.609V936.729" stroke="#DBCCC1" stroke-width="3.01" stroke-miterlimit="10"/>
</g>
</g>
<path d="M210.919 607.44C210.919 607.44 209.75 604.206 210.094 601.141Z" fill="url(#paint0_linear_1128_3797)"/>
<path d="M214.34 606.895C214.34 606.895 213.819 604.379 214.114 601.055Z" fill="url(#paint1_linear_1128_3797)"/>
<path d="M143.909 614.893C143.909 614.893 142.739 611.659 143.083 608.594Z" fill="url(#paint2_linear_1128_3797)"/>
<path d="M147.33 614.34C147.33 614.34 146.808 611.824 147.103 608.5Z" fill="url(#paint3_linear_1128_3797)"/>
<path d="M383.262 682.848C379.361 682.848 376.029 679.893 375.498 675.959C375.144 673.343 374.397 672.415 373.975 672.086C373.493 671.716 372.628 671.506 371.527 671.506C371.026 671.506 370.485 671.546 369.896 671.626C369.552 671.676 369.188 671.696 368.834 671.696C364.932 671.696 361.6 668.741 361.07 664.808C360.785 662.701 361.335 660.615 362.593 658.917C363.861 657.22 365.699 656.132 367.773 655.843C370.348 655.483 371.262 654.724 371.586 654.295C371.901 653.876 372.382 652.768 372.028 650.152C371.743 648.046 372.284 645.949 373.552 644.262C374.82 642.575 376.658 641.477 378.731 641.187C379.085 641.137 379.439 641.117 379.793 641.117C383.695 641.117 387.027 644.082 387.558 648.006C387.911 650.621 388.658 651.55 389.081 651.869C389.563 652.239 390.427 652.448 391.528 652.448C392.029 652.448 392.58 652.408 393.16 652.329C393.514 652.279 393.867 652.259 394.221 652.259C398.123 652.259 401.455 655.224 401.986 659.147C402.271 661.254 401.73 663.34 400.462 665.037C399.194 666.734 397.357 667.823 395.283 668.112C392.708 668.472 391.794 669.23 391.469 669.66C391.155 670.079 390.673 671.187 391.027 673.803C391.312 675.909 390.762 677.996 389.494 679.693C388.226 681.39 386.388 682.478 384.314 682.768C383.96 682.818 383.606 682.838 383.253 682.838L383.262 682.848Z" fill="#F2C32A"/>
<path d="M379.803 643.837C382.378 643.837 384.579 645.794 384.923 648.38C385.287 651.115 386.152 653.012 387.469 654.04C388.442 654.789 389.808 655.168 391.528 655.168C392.147 655.168 392.816 655.118 393.514 655.019C393.749 654.989 393.985 654.969 394.211 654.969C396.786 654.969 398.988 656.925 399.332 659.511C399.715 662.386 397.73 665.032 394.909 665.421C392.216 665.791 390.349 666.669 389.336 668.007C388.324 669.355 388 671.421 388.373 674.157C388.757 677.032 386.771 679.677 383.95 680.067C383.715 680.097 383.479 680.117 383.253 680.117C380.678 680.117 378.476 678.16 378.132 675.574C377.768 672.839 376.903 670.942 375.586 669.914C374.613 669.165 373.247 668.786 371.527 668.786C370.908 668.786 370.24 668.835 369.542 668.935C369.306 668.965 369.08 668.985 368.844 668.985C366.269 668.985 364.067 667.028 363.723 664.443C363.34 661.568 365.325 658.922 368.146 658.523C370.839 658.153 372.707 657.275 373.719 655.937C374.731 654.589 375.056 652.523 374.682 649.787C374.495 648.4 374.849 647.012 375.685 645.894C376.52 644.776 377.739 644.057 379.105 643.867C379.341 643.837 379.577 643.817 379.803 643.817M379.803 638.406C379.331 638.406 378.849 638.436 378.387 638.506C375.606 638.895 373.139 640.353 371.449 642.619C369.748 644.885 369.021 647.691 369.404 650.516C369.561 651.704 369.493 652.343 369.434 652.623C369.188 652.752 368.598 652.992 367.429 653.152C361.689 653.95 357.659 659.331 358.436 665.162C359.143 670.423 363.615 674.386 368.844 674.386C369.316 674.386 369.797 674.356 370.259 674.286C370.721 674.226 371.154 674.187 371.527 674.187C371.901 674.187 372.186 674.226 372.333 674.256C372.461 674.506 372.697 675.105 372.854 676.293C373.562 681.554 378.034 685.518 383.262 685.518C383.734 685.518 384.216 685.488 384.678 685.418C390.418 684.619 394.447 679.238 393.671 673.408C393.514 672.22 393.582 671.581 393.641 671.301C393.887 671.172 394.477 670.932 395.646 670.772C398.428 670.383 400.885 668.925 402.585 666.659C404.286 664.393 405.013 661.588 404.63 658.762C403.922 653.501 399.45 649.538 394.221 649.538C393.749 649.538 393.268 649.568 392.806 649.638C392.344 649.697 391.912 649.737 391.538 649.737C391.165 649.737 390.88 649.697 390.732 649.667C390.604 649.418 390.368 648.819 390.211 647.631C389.504 642.37 385.032 638.406 379.803 638.406Z" fill="white"/>
<path d="M903.633 300.792C902.994 300.792 902.365 300.702 901.745 300.522C901.451 300.433 901.166 300.333 900.881 300.203C897.785 298.815 896.163 295.271 897.097 291.967C897.726 289.77 897.45 288.762 897.224 288.353C896.969 287.884 896.35 287.414 895.475 287.025C895.082 286.845 894.63 286.686 894.148 286.546C893.843 286.456 893.558 286.346 893.283 286.226C890.187 284.839 888.566 281.295 889.499 277.99C890.335 275.055 893.018 272.998 896.035 272.998C896.674 272.998 897.303 273.088 897.922 273.268C898.807 273.527 899.573 273.657 900.222 273.657C900.753 273.657 901.175 273.567 901.48 273.398C901.883 273.178 902.64 272.469 903.269 270.273C903.77 268.506 904.93 267.038 906.512 266.14C907.515 265.581 908.655 265.281 909.795 265.281C910.434 265.281 911.073 265.371 911.692 265.551C911.987 265.631 912.272 265.74 912.557 265.87C915.653 267.258 917.275 270.802 916.341 274.107C915.712 276.303 915.987 277.311 916.213 277.72C916.469 278.19 917.088 278.659 917.953 279.048C918.346 279.228 918.798 279.388 919.289 279.537C919.574 279.617 919.879 279.727 920.164 279.857C923.25 281.245 924.872 284.779 923.938 288.083C923.103 291.018 920.42 293.075 917.402 293.075C916.763 293.075 916.134 292.985 915.515 292.805C914.64 292.546 913.864 292.416 913.215 292.416C912.685 292.416 912.262 292.506 911.957 292.676C911.554 292.895 910.798 293.604 910.169 295.8C909.333 298.735 906.65 300.792 903.633 300.792Z" fill="#F2C32A"/>
<path d="M909.795 267.642C910.218 267.642 910.631 267.702 911.043 267.822C911.24 267.881 911.427 267.951 911.613 268.031C913.658 268.95 914.729 271.286 914.11 273.462C913.461 275.758 913.481 277.575 914.179 278.863C914.69 279.802 915.643 280.59 917.009 281.209C917.501 281.429 918.051 281.629 918.641 281.798C918.837 281.858 919.024 281.928 919.211 282.008C921.255 282.926 922.326 285.262 921.707 287.439C921.137 289.435 919.339 290.733 917.393 290.733C916.98 290.733 916.567 290.673 916.154 290.554C915.063 290.234 914.08 290.074 913.215 290.074C912.292 290.074 911.495 290.254 910.847 290.623C909.579 291.332 908.606 292.86 907.957 295.156C907.387 297.153 905.588 298.45 903.642 298.45C903.23 298.45 902.817 298.391 902.404 298.271C902.208 298.211 902.021 298.141 901.834 298.061C899.79 297.143 898.718 294.806 899.338 292.63C899.986 290.334 899.967 288.517 899.269 287.229C898.758 286.291 897.804 285.502 896.438 284.883C895.947 284.663 895.396 284.464 894.807 284.294C894.61 284.234 894.423 284.164 894.237 284.084C892.192 283.166 891.121 280.83 891.74 278.653C892.31 276.657 894.109 275.359 896.055 275.359C896.468 275.359 896.88 275.419 897.293 275.539C898.384 275.858 899.367 276.018 900.232 276.018C901.156 276.018 901.952 275.838 902.601 275.469C903.868 274.76 904.841 273.233 905.49 270.936C905.824 269.768 906.581 268.8 907.633 268.211C908.301 267.832 909.048 267.642 909.795 267.642ZM909.795 262.94C908.262 262.94 906.748 263.339 905.402 264.098C903.269 265.296 901.726 267.262 901.048 269.638C900.763 270.637 900.487 271.126 900.35 271.316C900.32 271.316 900.281 271.316 900.232 271.316C899.937 271.316 899.406 271.266 898.571 271.016C897.745 270.777 896.9 270.657 896.045 270.657C892.005 270.657 888.408 273.402 887.288 277.346C886.03 281.768 888.212 286.51 892.349 288.377C892.723 288.547 893.116 288.687 893.509 288.807C893.902 288.916 894.246 289.046 894.551 289.186C894.866 289.326 895.062 289.445 895.17 289.525C895.18 289.775 895.17 290.334 894.885 291.322C893.627 295.745 895.809 300.487 899.947 302.354C900.32 302.524 900.714 302.663 901.107 302.783C901.932 303.023 902.778 303.143 903.633 303.143C907.672 303.143 911.269 300.397 912.39 296.454C912.675 295.455 912.95 294.966 913.088 294.767C913.117 294.767 913.156 294.767 913.206 294.767C913.5 294.767 914.031 294.816 914.867 295.066C915.692 295.306 916.537 295.425 917.393 295.425C921.432 295.425 925.029 292.68 926.15 288.737C927.408 284.314 925.226 279.572 921.088 277.705C920.715 277.535 920.321 277.396 919.928 277.276C919.535 277.166 919.191 277.036 918.886 276.896C918.572 276.757 918.375 276.637 918.267 276.557C918.257 276.307 918.267 275.748 918.552 274.76C919.81 270.337 917.638 265.595 913.491 263.728C913.117 263.559 912.724 263.419 912.331 263.299C911.505 263.059 910.65 262.93 909.795 262.93V262.94Z" fill="white"/>
<path d="M542.926 321.261C542.287 321.261 541.658 321.171 541.039 320.991C540.744 320.901 540.459 320.802 540.174 320.672C537.078 319.284 535.456 315.74 536.39 312.435C537.019 310.239 536.744 309.231 536.518 308.821C536.262 308.352 535.643 307.883 534.768 307.494C534.375 307.314 533.923 307.154 533.442 307.014C533.137 306.925 532.852 306.815 532.577 306.695C529.481 305.307 527.859 301.763 528.793 298.459C529.628 295.524 532.311 293.467 535.329 293.467C535.967 293.467 536.597 293.557 537.216 293.737C538.1 293.996 538.867 294.126 539.516 294.126C540.046 294.126 540.469 294.036 540.774 293.866C541.177 293.647 541.933 292.938 542.562 290.742C543.064 288.975 544.223 287.507 545.806 286.609C546.808 286.049 547.948 285.75 549.088 285.75C549.727 285.75 550.366 285.84 550.985 286.02C551.28 286.099 551.565 286.209 551.85 286.339C554.946 287.727 556.568 291.271 555.634 294.575C555.005 296.772 555.28 297.78 555.507 298.189C555.762 298.658 556.381 299.128 557.246 299.517C557.639 299.697 558.091 299.856 558.583 300.006C558.868 300.086 559.173 300.196 559.458 300.326C562.544 301.713 564.165 305.247 563.232 308.552C562.396 311.487 559.713 313.544 556.696 313.544C556.057 313.544 555.428 313.454 554.809 313.274C553.934 313.015 553.158 312.885 552.509 312.885C551.978 312.885 551.555 312.975 551.251 313.144C550.848 313.364 550.091 314.073 549.462 316.269C548.627 319.204 545.943 321.261 542.926 321.261Z" fill="#F2C32A"/>
<path d="M549.089 288.103C549.511 288.103 549.924 288.163 550.337 288.282C550.534 288.342 550.72 288.412 550.907 288.492C552.951 289.411 554.023 291.747 553.403 293.923C552.755 296.219 552.774 298.036 553.472 299.324C553.983 300.262 554.937 301.051 556.303 301.67C556.794 301.89 557.345 302.089 557.934 302.259C558.131 302.319 558.318 302.389 558.504 302.469C560.549 303.387 561.62 305.723 561.001 307.9C560.431 309.896 558.632 311.194 556.686 311.194C556.273 311.194 555.861 311.134 555.448 311.015C554.357 310.695 553.374 310.535 552.509 310.535C551.585 310.535 550.789 310.715 550.14 311.084C548.873 311.793 547.9 313.321 547.251 315.617C546.681 317.614 544.882 318.911 542.936 318.911C542.523 318.911 542.111 318.851 541.698 318.732C541.501 318.672 541.314 318.602 541.128 318.522C539.083 317.604 538.012 315.267 538.631 313.091C539.28 310.795 539.26 308.978 538.562 307.69C538.051 306.752 537.098 305.963 535.732 305.344C535.24 305.124 534.69 304.925 534.1 304.755C533.904 304.695 533.717 304.625 533.53 304.545C531.486 303.627 530.415 301.291 531.034 299.114C531.604 297.118 533.402 295.82 535.349 295.82C535.761 295.82 536.174 295.88 536.587 296C537.678 296.319 538.661 296.479 539.526 296.479C540.45 296.479 541.246 296.299 541.894 295.93C543.162 295.221 544.135 293.693 544.784 291.397C545.118 290.229 545.875 289.261 546.926 288.672C547.595 288.292 548.342 288.103 549.089 288.103ZM549.089 283.401C547.556 283.401 546.042 283.8 544.695 284.559C542.563 285.757 541.02 287.723 540.341 290.099C540.056 291.098 539.781 291.587 539.644 291.777C539.614 291.777 539.575 291.777 539.526 291.777C539.231 291.777 538.7 291.727 537.865 291.477C537.039 291.238 536.194 291.118 535.339 291.118C531.299 291.118 527.702 293.863 526.582 297.807C525.323 302.229 527.505 306.971 531.643 308.838C532.017 309.008 532.41 309.148 532.803 309.267C533.196 309.377 533.54 309.507 533.845 309.647C534.159 309.787 534.356 309.906 534.464 309.986C534.474 310.236 534.464 310.795 534.179 311.783C532.921 316.206 535.103 320.948 539.241 322.815C539.614 322.985 540.007 323.124 540.4 323.244C541.226 323.484 542.071 323.604 542.926 323.604C546.966 323.604 550.563 320.858 551.684 316.915C551.969 315.916 552.244 315.427 552.381 315.228C552.411 315.228 552.45 315.228 552.499 315.228C552.794 315.228 553.325 315.277 554.16 315.527C554.986 315.767 555.831 315.886 556.686 315.886C560.726 315.886 564.323 313.141 565.443 309.198C566.701 304.775 564.52 300.033 560.382 298.166C560.008 297.996 559.615 297.857 559.222 297.737C558.829 297.627 558.485 297.497 558.18 297.357C557.866 297.218 557.669 297.098 557.561 297.018C557.551 296.768 557.561 296.209 557.846 295.221C559.104 290.798 556.932 286.056 552.784 284.189C552.411 284.02 552.018 283.88 551.625 283.76C550.799 283.52 549.944 283.391 549.089 283.391V283.401Z" fill="white"/>
<path d="M874.147 721.089C873.508 721.089 872.879 720.999 872.26 720.819C871.965 720.73 871.68 720.63 871.395 720.5C868.299 719.112 866.677 715.568 867.611 712.264C868.24 710.067 867.965 709.059 867.739 708.65C867.483 708.18 866.864 707.711 865.989 707.322C865.596 707.142 865.144 706.982 864.662 706.843C864.358 706.753 864.073 706.643 863.797 706.523C860.701 705.136 859.08 701.591 860.013 698.287C860.849 695.352 863.532 693.295 866.549 693.295C867.188 693.295 867.817 693.385 868.436 693.565C869.321 693.824 870.088 693.954 870.736 693.954C871.267 693.954 871.69 693.864 871.994 693.695C872.397 693.475 873.154 692.766 873.783 690.57C874.284 688.803 875.444 687.335 877.027 686.437C878.029 685.878 879.169 685.578 880.309 685.578C880.948 685.578 881.587 685.668 882.206 685.848C882.501 685.928 882.786 686.037 883.071 686.167C886.167 687.555 887.789 691.099 886.855 694.403C886.226 696.6 886.501 697.608 886.727 698.017C886.983 698.487 887.602 698.956 888.467 699.345C888.86 699.525 889.312 699.685 889.804 699.834C890.089 699.914 890.393 700.024 890.678 700.154C893.764 701.542 895.386 705.076 894.452 708.38C893.617 711.315 890.934 713.372 887.916 713.372C887.278 713.372 886.649 713.282 886.029 713.102C885.155 712.843 884.378 712.713 883.73 712.713C883.199 712.713 882.776 712.803 882.471 712.972C882.069 713.192 881.312 713.901 880.683 716.097C879.847 719.032 877.164 721.089 874.147 721.089Z" fill="#F2C32A"/>
<path d="M880.309 687.931C880.732 687.931 881.145 687.991 881.557 688.111C881.754 688.171 881.941 688.24 882.128 688.32C884.172 689.239 885.243 691.575 884.624 693.751C883.975 696.047 883.995 697.864 884.693 699.152C885.204 700.091 886.157 700.879 887.523 701.498C888.015 701.718 888.565 701.918 889.155 702.087C889.351 702.147 889.538 702.217 889.725 702.297C891.769 703.215 892.841 705.551 892.221 707.728C891.651 709.724 889.853 711.022 887.907 711.022C887.494 711.022 887.081 710.962 886.668 710.843C885.577 710.523 884.594 710.363 883.73 710.363C882.806 710.363 882.01 710.543 881.361 710.913C880.093 711.621 879.12 713.149 878.471 715.445C877.901 717.442 876.103 718.739 874.157 718.739C873.744 718.739 873.331 718.68 872.918 718.56C872.722 718.5 872.535 718.43 872.348 718.35C870.304 717.432 869.232 715.096 869.852 712.919C870.5 710.623 870.481 708.806 869.783 707.518C869.272 706.58 868.318 705.791 866.952 705.172C866.461 704.952 865.91 704.753 865.321 704.583C865.124 704.523 864.937 704.453 864.751 704.373C862.706 703.455 861.635 701.119 862.254 698.943C862.824 696.946 864.623 695.648 866.569 695.648C866.982 695.648 867.395 695.708 867.807 695.828C868.898 696.147 869.881 696.307 870.746 696.307C871.67 696.307 872.466 696.127 873.115 695.758C874.383 695.049 875.356 693.522 876.004 691.225C876.339 690.057 877.095 689.089 878.147 688.5C878.815 688.121 879.562 687.931 880.309 687.931ZM880.309 683.229C878.776 683.229 877.262 683.628 875.916 684.387C873.783 685.585 872.24 687.552 871.562 689.928C871.277 690.926 871.002 691.415 870.864 691.605C870.835 691.605 870.795 691.605 870.746 691.605C870.451 691.605 869.921 691.555 869.085 691.305C868.26 691.066 867.414 690.946 866.559 690.946C862.52 690.946 858.922 693.691 857.802 697.635C856.544 702.057 858.726 706.799 862.864 708.666C863.237 708.836 863.63 708.976 864.023 709.096C864.417 709.205 864.761 709.335 865.065 709.475C865.38 709.615 865.576 709.735 865.684 709.814C865.694 710.064 865.684 710.623 865.399 711.611C864.141 716.034 866.323 720.776 870.461 722.643C870.835 722.813 871.228 722.952 871.621 723.072C872.446 723.312 873.292 723.432 874.147 723.432C878.186 723.432 881.784 720.686 882.904 716.743C883.189 715.744 883.464 715.255 883.602 715.056C883.631 715.056 883.671 715.056 883.72 715.056C884.015 715.056 884.545 715.106 885.381 715.355C886.206 715.595 887.052 715.715 887.907 715.715C891.946 715.715 895.543 712.969 896.664 709.026C897.922 704.603 895.74 699.861 891.602 697.994C891.229 697.824 890.836 697.685 890.442 697.565C890.049 697.455 889.705 697.325 889.401 697.185C889.086 697.046 888.89 696.926 888.781 696.846C888.772 696.596 888.781 696.037 889.066 695.049C890.325 690.626 888.152 685.884 884.005 684.017C883.631 683.848 883.238 683.708 882.845 683.588C882.019 683.349 881.164 683.219 880.309 683.219V683.229Z" fill="white"/>
<path d="M419.923 712.322C418.793 712.322 417.721 712.013 416.788 711.414C411.815 709.817 409.298 703.148 407.824 698.186C405.652 690.878 406.094 685.188 409.131 681.254C411.117 678.688 414.046 677.211 417.161 677.211C419.923 677.211 422.469 678.379 424.336 680.495C424.886 681.114 425.388 681.793 425.83 682.512C427.737 681.664 429.722 681.214 431.589 681.214C436.681 681.214 440.258 684.449 441.153 689.88C442.204 696.289 437.683 701.64 434.184 705.104C430.174 709.078 425.565 711.554 420.837 712.252C420.532 712.302 420.218 712.322 419.913 712.322H419.923Z" fill="#E07D77"/>
<path d="M417.161 680.04C419.009 680.04 420.856 680.789 422.262 682.376C423.323 683.574 424.09 684.942 424.63 686.389C426.793 684.932 429.299 684.043 431.599 684.043C434.852 684.043 437.663 685.83 438.41 690.333C439.236 695.344 435.54 699.797 432.248 703.061C428.994 706.296 424.994 708.752 420.444 709.431C420.267 709.461 420.09 709.471 419.923 709.471C419.156 709.471 418.507 709.211 417.986 708.792C413.829 707.824 411.559 700.935 410.497 697.351C409.17 692.869 408.266 686.958 411.323 682.995C412.807 681.068 414.989 680.04 417.151 680.04M417.151 674.359C413.17 674.359 409.436 676.226 406.919 679.491C403.283 684.193 402.683 690.752 405.131 698.998C406.173 702.522 408.866 711.577 415.598 714.003C416.905 714.762 418.37 715.151 419.903 715.151C420.345 715.151 420.787 715.121 421.23 715.051C426.547 714.263 431.697 711.517 436.13 707.125C438.646 704.629 445.319 698.01 443.904 689.394C442.784 682.586 438.056 678.363 431.579 678.363C430.026 678.363 428.424 678.612 426.842 679.101C426.704 678.932 426.557 678.762 426.409 678.592C424.001 675.867 420.709 674.369 417.151 674.369V674.359Z" fill="white"/>
<path d="M271.031 188.971C269.901 188.971 268.829 188.661 267.896 188.062C262.922 186.465 260.406 179.796 258.932 174.834C256.76 167.527 257.202 161.836 260.239 157.903C262.225 155.337 265.153 153.859 268.269 153.859C271.031 153.859 273.577 155.027 275.444 157.144C275.994 157.763 276.496 158.442 276.938 159.161C278.845 158.312 280.82 157.863 282.697 157.863C287.789 157.863 291.366 161.097 292.26 166.528C293.312 172.938 288.791 178.289 285.292 181.753C281.282 185.726 276.672 188.202 271.945 188.901C271.64 188.951 271.326 188.971 271.021 188.971H271.031Z" fill="#E07D77"/>
<path d="M268.269 156.694C270.116 156.694 271.964 157.443 273.37 159.03C274.431 160.228 275.198 161.596 275.738 163.043C277.901 161.586 280.407 160.697 282.707 160.697C285.96 160.697 288.771 162.484 289.518 166.987C290.344 171.998 286.648 176.451 283.355 179.716C280.102 182.95 276.102 185.406 271.551 186.085C271.375 186.115 271.198 186.125 271.031 186.125C270.264 186.125 269.615 185.865 269.094 185.456C264.937 184.488 262.666 177.599 261.605 174.015C260.278 169.533 259.374 163.622 262.431 159.659C263.915 157.732 266.097 156.704 268.259 156.704M268.259 151.023C264.278 151.023 260.543 152.89 258.027 156.155C254.391 160.857 253.791 167.416 256.239 175.662C257.28 179.186 259.973 188.241 266.706 190.667C268.013 191.426 269.478 191.815 271.011 191.815C271.453 191.815 271.895 191.785 272.338 191.716C277.655 190.927 282.805 188.181 287.238 183.789C289.754 181.293 296.427 174.674 295.012 166.058C293.892 159.25 289.164 155.027 282.687 155.027C281.134 155.027 279.532 155.276 277.95 155.766C277.812 155.596 277.665 155.426 277.517 155.256C275.109 152.531 271.817 151.033 268.259 151.033V151.023Z" fill="white"/>
<path d="M48.3263 392.334C46.9798 392.334 45.7414 391.665 44.9158 390.507C44.1098 389.379 43.3727 388.261 42.6945 387.153C41.2792 387.902 39.8344 388.59 38.3798 389.229C37.7213 389.519 37.0431 389.669 36.365 389.669C34.5369 389.669 32.9348 388.62 32.178 386.923C31.4016 385.186 31.7063 383.179 32.9741 381.682L34.1241 380.334C33.7801 380.164 33.4459 380.005 33.1117 379.835C31.3131 378.926 30.3794 377.09 30.7332 375.153C31.1264 372.976 33.0331 371.169 35.1659 370.96C35.6868 370.91 36.2274 370.86 36.7679 370.83C36.5517 369.113 36.3846 367.366 36.2667 365.629C36.1782 364.401 36.591 363.223 37.4166 362.324C38.311 361.346 39.6084 360.787 40.9745 360.787C41.6822 360.787 42.38 360.946 42.9894 361.246C43.2154 360.667 43.4415 360.098 43.6872 359.529C44.4538 357.692 46.3802 356.414 48.3557 356.414C50.1347 356.414 51.6483 357.482 52.3068 359.189C53.0243 361.066 53.5747 362.913 53.9678 364.79L56.5036 364.301C56.7984 364.241 57.1031 364.211 57.398 364.211C59.1278 364.211 60.72 365.169 61.5653 366.697C62.3909 368.194 62.3417 369.971 61.4473 371.439L59.3932 374.813L60.15 375.113C62.3024 375.981 63.5408 378.327 63.0985 380.694C62.6857 382.88 60.9461 384.347 58.7641 384.347C58.6364 384.347 58.4988 384.347 58.3612 384.327L54.1939 383.988C54.0366 383.978 53.8794 383.958 53.7123 383.938C53.5354 385.246 53.3683 386.564 53.2012 387.872C52.8965 390.278 50.6654 392.304 48.3459 392.304L48.3263 392.334Z" fill="#77C67C"/>
<path d="M48.3458 359.001C48.9945 359.001 49.6039 359.321 49.9184 360.129C50.8914 362.655 51.5401 365.191 51.8644 367.827C53.5648 367.497 55.2651 367.168 56.9654 366.838C57.103 366.808 57.2505 366.798 57.3881 366.798C58.9803 366.798 60.1892 368.545 59.2653 370.063C58.0466 372.069 56.8278 374.076 55.6091 376.073C56.8082 376.552 58.0073 377.041 59.1965 377.52C61.2212 378.339 61.0836 381.733 58.7542 381.733C58.6854 381.733 58.6166 381.733 58.5478 381.733C57.162 381.623 55.7762 381.514 54.3805 381.394C53.4665 381.324 52.346 381.074 51.3239 381.024C51.2059 381.863 51.2452 382.951 51.1666 383.53C50.9897 384.868 50.8128 386.196 50.6457 387.534C50.5081 388.642 49.3975 389.7 48.3262 389.7C47.8446 389.7 47.363 389.48 46.9895 388.951C45.7708 387.234 44.6601 385.487 43.6576 383.64C41.6133 384.808 39.5198 385.866 37.3674 386.815C37.0234 386.965 36.6892 387.034 36.3747 387.034C34.6449 387.034 33.5834 384.918 34.9201 383.351C36.0602 382.013 37.1905 380.685 38.3306 379.347C36.9546 378.768 35.5983 378.149 34.2616 377.47C32.1583 376.412 33.6227 373.687 35.4312 373.497C36.7777 373.357 38.1144 373.297 39.4609 373.297C39.5493 373.297 39.6378 373.297 39.7262 373.297C39.3036 370.682 39.0088 368.046 38.8318 365.391C38.7434 364.113 39.8737 363.334 40.9843 363.334C41.5445 363.334 42.0949 363.534 42.488 363.973C43.0286 364.572 43.5495 365.191 44.0704 365.8C44.6601 364.003 45.3088 362.236 46.046 360.489C46.4096 359.62 47.4318 358.961 48.3655 358.961M48.3655 353.76C45.4956 353.76 42.7141 355.547 41.4757 358.153C41.3086 358.143 41.1514 358.133 40.9843 358.133C38.9105 358.133 36.9349 358.991 35.5491 360.489C34.2321 361.916 33.5834 363.783 33.721 365.75C33.78 366.668 33.8586 367.577 33.9471 368.485C31.0968 369.194 28.7675 371.64 28.2269 374.625C27.7846 377.051 28.5905 379.367 30.3105 380.955C29.0132 383.081 28.8264 385.657 29.8584 387.953C31.028 390.539 33.5834 392.216 36.3747 392.216C37.4067 392.216 38.4289 391.996 39.4019 391.567C40.198 391.217 40.9941 390.848 41.7902 390.459C42.1244 390.958 42.4782 391.467 42.8419 391.976C44.1589 393.823 46.1541 394.881 48.3262 394.881C51.9332 394.881 55.2454 391.876 55.7172 388.183C55.7762 387.693 55.845 387.194 55.904 386.705L58.135 386.885C58.3414 386.905 58.5478 386.905 58.7444 386.905C62.1352 386.905 64.956 384.539 65.5949 381.144C66.1256 378.319 65.0641 375.514 62.9805 373.797L63.6095 372.758C64.9953 370.472 65.0641 367.717 63.7864 365.381C62.489 363.025 60.0418 361.557 57.3881 361.557C56.9261 361.557 56.4642 361.597 56.0121 361.687L55.8646 361.717C55.5403 360.539 55.1472 359.371 54.6852 358.183C53.6336 355.447 51.2059 353.75 48.3458 353.75L48.3655 353.76Z" fill="white"/>
<path d="M970.968 196.49C969.621 196.49 968.383 195.821 967.557 194.663C966.751 193.535 966.014 192.417 965.336 191.309C963.921 192.058 962.476 192.747 961.021 193.386C960.363 193.675 959.684 193.825 959.006 193.825C957.178 193.825 955.576 192.777 954.819 191.079C954.043 189.342 954.348 187.336 955.615 185.838L956.765 184.49C956.421 184.321 956.087 184.161 955.753 183.991C953.954 183.083 953.021 181.246 953.375 179.309C953.768 177.133 955.674 175.326 957.807 175.116C958.328 175.066 958.869 175.016 959.409 174.986C959.193 173.269 959.026 171.532 958.908 169.785C958.82 168.547 959.232 167.379 960.058 166.48C960.952 165.502 962.25 164.943 963.616 164.943C964.324 164.943 965.021 165.103 965.631 165.402C965.857 164.823 966.083 164.254 966.329 163.685C967.095 161.858 969.022 160.57 970.997 160.57C972.776 160.57 974.29 161.639 974.948 163.346C975.675 165.223 976.216 167.069 976.609 168.946L979.145 168.457C979.44 168.397 979.744 168.367 980.039 168.367C981.769 168.367 983.361 169.326 984.207 170.853C985.032 172.351 984.983 174.128 984.089 175.595L982.034 178.97L982.791 179.279C984.944 180.148 986.182 182.494 985.74 184.86C985.327 187.046 983.587 188.514 981.405 188.514C981.278 188.514 981.14 188.514 981.003 188.494L976.835 188.154C976.678 188.144 976.521 188.124 976.354 188.104C976.177 189.412 976.01 190.73 975.843 192.038C975.538 194.444 973.317 196.47 970.987 196.47L970.968 196.49Z" fill="#77C67C"/>
<path d="M970.987 163.163C971.636 163.163 972.246 163.483 972.56 164.291C973.533 166.817 974.182 169.353 974.506 171.988C976.206 171.659 977.907 171.33 979.607 171C979.745 170.97 979.892 170.96 980.03 170.96C981.622 170.96 982.831 172.707 981.907 174.225L978.251 180.235C979.45 180.714 980.649 181.203 981.838 181.682C983.863 182.501 983.725 185.895 981.396 185.895C981.327 185.895 981.258 185.895 981.189 185.895C979.804 185.785 978.418 185.676 977.022 185.556C976.108 185.486 974.988 185.236 973.966 185.186C973.848 186.025 973.877 187.113 973.808 187.692C973.631 189.03 973.454 190.358 973.287 191.696C973.15 192.804 972.039 193.862 970.968 193.862C970.486 193.862 970.005 193.642 969.631 193.113C968.412 191.396 967.302 189.649 966.299 187.802C964.255 188.97 962.161 190.028 960.009 190.977C959.665 191.126 959.331 191.196 959.016 191.196C957.287 191.196 956.225 189.08 957.562 187.512C958.702 186.175 959.832 184.847 960.972 183.509C959.596 182.93 958.24 182.311 956.903 181.632C954.8 180.574 956.264 177.849 958.073 177.669C959.419 177.529 960.756 177.469 962.093 177.469C962.181 177.469 962.27 177.469 962.358 177.469C961.935 174.854 961.641 172.218 961.464 169.562C961.375 168.285 962.505 167.506 963.616 167.506C964.176 167.506 964.727 167.706 965.12 168.145C965.66 168.744 966.181 169.363 966.702 169.972C967.292 168.175 967.941 166.408 968.678 164.661C969.041 163.792 970.064 163.133 970.997 163.133M970.997 157.932C968.127 157.932 965.346 159.719 964.108 162.325C963.94 162.315 963.783 162.305 963.616 162.305C961.542 162.305 959.567 163.163 958.181 164.661C956.864 166.088 956.215 167.955 956.353 169.922C956.412 170.84 956.49 171.749 956.579 172.657C953.729 173.366 951.399 175.812 950.859 178.797C950.416 181.223 951.222 183.539 952.942 185.126C951.645 187.253 951.458 189.829 952.49 192.125C953.66 194.71 956.215 196.388 959.007 196.388C960.039 196.388 961.061 196.168 962.034 195.739C962.83 195.389 963.626 195.02 964.422 194.631C964.756 195.13 965.11 195.639 965.474 196.148C966.791 197.995 968.786 199.053 970.958 199.053C974.565 199.053 977.877 196.048 978.349 192.354C978.408 191.865 978.477 191.366 978.536 190.877L980.767 191.057C980.973 191.077 981.18 191.077 981.376 191.077C984.767 191.077 987.588 188.71 988.227 185.316C988.757 182.491 987.696 179.686 985.612 177.968L986.241 176.93C987.627 174.644 987.696 171.889 986.418 169.552C985.121 167.196 982.674 165.729 980.02 165.729C979.558 165.729 979.096 165.769 978.644 165.859L978.496 165.889C978.172 164.711 977.779 163.542 977.317 162.354C976.265 159.619 973.838 157.922 970.978 157.922L970.997 157.932Z" fill="white"/>
<path d="M521.569 597.186C520.222 597.186 518.984 596.517 518.158 595.359C517.353 594.231 516.615 593.112 515.937 592.004C514.522 592.753 513.077 593.442 511.622 594.081C510.964 594.37 510.286 594.52 509.608 594.52C507.78 594.52 506.177 593.472 505.421 591.775C504.644 590.038 504.949 588.031 506.217 586.533L507.367 585.186C507.023 585.016 506.689 584.856 506.354 584.687C504.556 583.778 503.622 581.941 503.976 580.004C504.369 577.828 506.276 576.021 508.409 575.811C508.929 575.761 509.47 575.712 510.011 575.682C509.794 573.964 509.627 572.217 509.509 570.48C509.421 569.252 509.834 568.074 510.659 567.176C511.554 566.197 512.851 565.638 514.217 565.638C514.925 565.638 515.623 565.798 516.232 566.098C516.458 565.518 516.684 564.949 516.93 564.38C517.697 562.553 519.623 561.266 521.598 561.266C523.377 561.266 524.891 562.334 525.549 564.041C526.267 565.918 526.817 567.765 527.201 569.642L529.736 569.152C530.031 569.093 530.336 569.063 530.631 569.063C532.361 569.063 533.953 570.021 534.798 571.548C535.624 573.046 535.575 574.823 534.68 576.291L532.626 579.665L533.383 579.974C535.535 580.843 536.774 583.189 536.331 585.555C535.919 587.741 534.179 589.209 531.997 589.209C531.869 589.209 531.732 589.209 531.594 589.189L527.427 588.85C527.269 588.84 527.112 588.82 526.945 588.8C526.768 590.117 526.601 591.425 526.434 592.733C526.129 595.139 523.898 597.166 521.579 597.166L521.569 597.186Z" fill="#77C67C"/>
<path d="M521.589 563.853C522.237 563.853 522.847 564.172 523.161 564.981C524.134 567.507 524.783 570.043 525.107 572.678C526.807 572.349 528.508 572.019 530.208 571.69C530.346 571.66 530.493 571.65 530.631 571.65C532.223 571.65 533.432 573.397 532.508 574.914C531.289 576.921 530.071 578.928 528.852 580.924C530.051 581.404 531.25 581.893 532.439 582.372C534.464 583.191 534.326 586.585 531.997 586.585C531.928 586.585 531.859 586.585 531.791 586.585L527.623 586.245C526.709 586.176 525.589 585.926 524.567 585.876C524.449 586.715 524.488 587.803 524.409 588.382C524.232 589.72 524.055 591.047 523.888 592.385C523.751 593.493 522.64 594.552 521.569 594.552C521.087 594.552 520.606 594.332 520.232 593.803C519.013 592.086 517.903 590.339 516.9 588.492C514.856 589.66 512.763 590.718 510.61 591.666C510.266 591.816 509.932 591.886 509.617 591.886C507.888 591.886 506.826 589.77 508.163 588.202L511.573 584.199C510.197 583.62 508.841 583.001 507.504 582.322C505.401 581.264 506.865 578.538 508.674 578.349C510.02 578.209 511.357 578.149 512.704 578.149C512.792 578.149 512.88 578.149 512.969 578.149C512.546 575.533 512.251 572.898 512.075 570.242C511.986 568.964 513.116 568.186 514.227 568.186C514.787 568.186 515.338 568.385 515.731 568.825C516.271 569.424 516.792 570.042 517.313 570.651C517.903 568.854 518.551 567.087 519.289 565.34C519.652 564.472 520.674 563.813 521.608 563.813M521.608 558.612C518.738 558.612 515.957 560.399 514.718 563.004C514.551 562.994 514.394 562.984 514.227 562.984C512.153 562.984 510.178 563.843 508.792 565.34C507.475 566.768 506.826 568.635 506.964 570.602C507.023 571.52 507.101 572.428 507.19 573.337C504.339 574.046 502.01 576.492 501.47 579.477C501.027 581.903 501.833 584.219 503.553 585.806C502.256 587.933 502.069 590.508 503.101 592.804C504.271 595.39 506.826 597.067 509.617 597.067C510.649 597.067 511.672 596.848 512.645 596.418C513.441 596.069 514.237 595.7 515.033 595.31C515.367 595.809 515.721 596.319 516.085 596.828C517.402 598.675 519.397 599.733 521.569 599.733C525.176 599.733 528.488 596.728 528.96 593.034C529.019 592.545 529.088 592.046 529.147 591.557L531.378 591.736C531.584 591.756 531.791 591.756 531.987 591.756C535.378 591.756 538.199 589.39 538.838 585.996C539.368 583.171 538.307 580.365 536.223 578.648L536.852 577.61C538.238 575.324 538.307 572.568 537.029 570.232C535.732 567.876 533.284 566.409 530.631 566.409C530.169 566.409 529.707 566.448 529.255 566.538L529.107 566.568C528.783 565.39 528.39 564.222 527.928 563.034C526.876 560.299 524.449 558.602 521.589 558.602L521.608 558.612Z" fill="white"/>
<path d="M435.373 204.87C431.51 204.87 427.412 204.032 423.5 202.444C420.866 201.376 419.411 198.601 419.962 195.706C420.463 193.08 422.497 191.243 424.925 191.243C425.603 191.243 426.291 191.383 426.969 191.662C429.073 192.511 432.267 193.529 435.569 193.529C437.506 193.529 439.206 193.18 440.661 192.471C436.179 189.147 433.309 183.326 433.604 177.386C433.908 171.306 438.351 167.063 444.405 167.063C448.219 167.063 451.865 168.89 454.155 171.965C455.57 173.872 456.543 176.158 457.035 178.684C458.716 176.488 459.895 173.802 460.436 170.867C460.917 168.241 462.981 166.484 465.566 166.484C467.325 166.484 469.055 167.303 470.166 168.671C471.237 169.989 471.66 171.656 471.335 173.383C469.576 182.957 462.676 191.383 454.352 194.298C453.32 196.165 452.081 197.782 450.656 199.11C446.646 202.874 441.358 204.87 435.373 204.87ZM444.769 178.325C444.857 179.023 445.221 180.241 445.899 181.539C445.958 181.649 446.017 181.759 446.076 181.869C445.958 180.211 445.368 178.634 444.759 178.325H444.769Z" fill="#F2C32A"/>
<path d="M465.566 169.187C467.277 169.187 469.134 170.634 468.721 172.88C467.168 181.326 460.888 189.642 452.514 192.038C451.551 193.995 450.313 195.752 448.848 197.12C445.045 200.694 440.258 202.162 435.373 202.162C431.678 202.162 427.923 201.323 424.483 199.925C421.397 198.677 422.223 193.945 424.926 193.945C425.25 193.945 425.604 194.015 425.987 194.165C428.926 195.353 432.297 196.221 435.57 196.221C439.305 196.221 442.902 195.093 445.556 192.018C439.924 190.142 435.943 183.832 436.258 177.513C436.513 172.391 440.337 169.766 444.396 169.766C447.197 169.766 450.106 171.024 452.023 173.589C454.273 176.604 455.02 180.578 454.637 184.531C459.129 181.616 462.077 176.664 463.05 171.353C463.326 169.836 464.407 169.177 465.557 169.177M448.268 186.538C448.612 185.14 448.779 183.702 448.76 182.305C448.72 179.759 447.698 175.536 444.543 175.546C444.396 175.546 444.229 175.546 444.072 175.576C440.582 176.015 442.528 180.887 443.541 182.804C444.759 185.11 446.352 186.318 448.268 186.538ZM465.557 163.766C461.645 163.766 458.529 166.411 457.802 170.365C457.694 170.944 457.566 171.503 457.399 172.052C457.055 171.453 456.672 170.874 456.259 170.325C453.468 166.581 449.035 164.355 444.386 164.355C436.965 164.355 431.304 169.776 430.931 177.243C430.685 182.165 432.336 187.027 435.226 190.81C433.024 190.761 430.528 190.182 427.953 189.143C426.96 188.744 425.938 188.534 424.916 188.534C421.191 188.534 418.075 191.27 417.328 195.193C416.532 199.386 418.655 203.399 422.498 204.957C426.724 206.674 431.167 207.573 435.363 207.573C442.027 207.573 447.944 205.336 452.455 201.093C453.851 199.786 455.089 198.248 456.151 196.501C465.036 192.987 472.053 184.182 473.95 173.879C474.412 171.383 473.773 168.857 472.211 166.94C470.589 164.964 468.102 163.776 465.557 163.776V163.766Z" fill="white"/>
<path d="M975.646 279.463C975.047 279.463 974.457 279.443 973.857 279.413C970.358 279.233 968.334 276.159 968.403 273.293C968.471 270.388 970.575 268.272 973.386 268.272C973.484 268.272 973.592 268.272 973.69 268.272C974.182 268.302 974.683 268.312 975.194 268.312C978.506 268.312 983.873 267.733 987.106 264.388C981.769 262.771 977.13 258.179 975.528 252.458C974.575 249.064 975.115 245.749 977.071 243.124C979.165 240.298 982.634 238.611 986.349 238.611C988.767 238.611 991.097 239.33 993.082 240.698C995.077 242.065 996.758 243.972 998.026 246.278C998.979 243.573 999.284 240.548 998.841 237.493C998.615 235.916 999.018 234.428 999.972 233.3C1000.96 232.132 1002.49 231.453 1004.13 231.453C1007.03 231.453 1009.34 233.45 1009.75 236.315C1011.13 245.929 1007.28 256.142 1000.35 261.603C999.962 263.719 999.303 265.656 998.389 267.383C994.311 275.05 986.015 279.443 975.627 279.443L975.646 279.463ZM986.143 249.613C986.399 250.242 987.165 251.38 988.335 252.478C988.531 252.668 988.738 252.837 988.934 252.987C988.237 251.07 986.939 249.603 986.271 249.603C986.231 249.603 986.192 249.603 986.153 249.623L986.143 249.613Z" fill="#75BEDB"/>
<path d="M1004.14 234.076C1005.53 234.076 1006.98 234.925 1007.23 236.712C1008.45 245.218 1005.16 255.141 997.996 260.163C997.711 262.329 997.091 264.396 996.148 266.173C992.099 273.78 983.744 276.875 975.646 276.875C975.095 276.875 974.535 276.865 973.985 276.835C970.328 276.645 969.817 270.895 973.395 270.895C973.454 270.895 973.513 270.895 973.572 270.895C974.112 270.925 974.653 270.935 975.213 270.935C981.602 270.935 988.757 268.968 991.42 262.439C991.371 262.439 991.332 262.439 991.283 262.439C985.405 262.439 979.705 257.797 978.005 251.767C976.265 245.567 981.11 241.234 986.359 241.234C988.167 241.234 990.015 241.744 991.666 242.872C994.752 244.988 996.728 248.502 997.622 252.366C1000.94 248.133 1002.16 242.472 1001.4 237.131C1001.11 235.135 1002.6 234.076 1004.15 234.076M991.116 256.489C991.489 256.489 991.873 256.449 992.246 256.359C992.128 254.922 991.833 253.504 991.361 252.196C990.614 250.08 988.737 246.995 986.26 246.995C985.789 246.995 985.297 247.105 984.786 247.354C981.621 248.922 985.012 252.885 986.585 254.372C988.098 255.8 989.602 256.479 991.116 256.479M1004.15 228.875C1001.76 228.875 999.539 229.873 998.055 231.62C996.61 233.318 995.991 235.544 996.325 237.88C996.433 238.639 996.492 239.387 996.492 240.136C995.873 239.557 995.214 239.028 994.526 238.559C992.108 236.902 989.288 236.023 986.359 236.023C981.847 236.023 977.611 238.1 975.036 241.564C972.589 244.858 971.891 248.981 973.08 253.184C974.456 258.076 977.651 262.189 981.7 264.755C979.459 265.544 976.992 265.724 975.213 265.724C974.761 265.724 974.299 265.714 973.837 265.684C973.69 265.684 973.542 265.674 973.395 265.674C969.198 265.674 965.955 268.918 965.847 273.231C965.729 277.923 969.188 281.777 973.729 282.016C974.368 282.046 975.007 282.066 975.646 282.066C986.831 282.066 996.177 277.045 1000.66 268.639C1001.56 266.941 1002.24 265.065 1002.69 263.058C1009.86 256.908 1013.77 246.116 1012.31 235.963C1011.72 231.86 1008.29 228.875 1004.15 228.875Z" fill="white"/>
<path d="M835.619 181.004C834.046 181.004 832.641 180.415 831.648 179.337C830.685 178.299 830.203 176.871 830.292 175.314C830.469 172.329 830.38 165.949 826.93 162.126C825.171 167.447 820.64 171.979 815.038 173.547C813.976 173.846 812.925 173.996 811.893 173.996C807.981 173.996 804.512 171.81 802.615 168.146C800.511 164.083 800.806 159.011 803.371 155.237C804.659 153.33 806.428 151.713 808.531 150.455C806.792 149.866 804.914 149.557 802.978 149.557C802.153 149.557 801.307 149.617 800.492 149.727C800.207 149.766 799.931 149.786 799.666 149.786C796.786 149.786 794.555 147.58 794.349 144.545C794.133 141.331 796.295 138.575 799.381 138.156C800.56 137.996 801.789 137.906 803.018 137.906C811.627 137.906 819.677 141.73 824.355 147.969C826.419 148.389 828.316 149.078 830.007 150.016C838.017 154.519 842.4 163.963 841.732 175.284C841.516 178.988 838.42 180.994 835.629 180.994L835.619 181.004ZM814.713 160.389C813.75 160.888 812.925 161.547 812.61 162.086C813.17 161.756 813.947 161.177 814.713 160.389Z" fill="#E07D77"/>
<path d="M803.018 140.772C810.547 140.772 818.508 144.206 822.763 150.596C824.896 150.905 826.921 151.554 828.66 152.532C836.622 157.005 839.462 166.409 838.941 175.145C838.823 177.131 837.152 178.18 835.629 178.18C834.253 178.18 832.985 177.321 833.093 175.504C833.496 168.646 831.894 160.3 824.936 157.305C824.955 163.334 820.306 169.145 814.301 170.832C813.466 171.072 812.66 171.171 811.903 171.171C805.2 171.171 801.73 162.696 805.681 156.865C807.795 153.75 811.274 151.784 815.087 150.905C811.696 148.1 807.352 146.732 802.988 146.732C802.035 146.732 801.072 146.802 800.128 146.932C799.971 146.952 799.824 146.962 799.676 146.962C796.364 146.962 796.197 141.481 799.765 140.992C800.836 140.842 801.917 140.772 803.018 140.772ZM811.923 165.241C813.692 165.241 815.923 163.245 816.955 162.136C818.724 160.24 819.353 158.323 818.96 156.406C817.544 156.516 816.149 156.805 814.851 157.265C812.365 158.143 808.512 160.649 810.035 163.903C810.488 164.872 811.166 165.251 811.923 165.251M803.018 135.102C801.662 135.102 800.315 135.191 799.008 135.371C794.447 136 791.253 140.043 791.568 144.775C791.872 149.268 795.352 152.662 799.676 152.662C800.069 152.662 800.482 152.632 800.885 152.582C801.239 152.532 801.603 152.493 801.956 152.473C801.642 152.862 801.347 153.251 801.072 153.661C797.878 158.373 797.524 164.443 800.148 169.504C802.536 174.116 806.93 176.872 811.903 176.872C813.181 176.872 814.488 176.692 815.795 176.323C820.346 175.045 824.287 172.08 826.941 168.286C827.648 171.022 827.589 173.897 827.511 175.185C827.373 177.531 828.12 179.707 829.624 181.324C831.147 182.972 833.28 183.88 835.629 183.88C840.415 183.88 844.249 180.276 844.524 175.504C845.261 163.065 840.337 152.622 831.363 147.581C829.702 146.652 827.884 145.943 825.928 145.454C820.65 139.025 812.099 135.112 803.018 135.112V135.102Z" fill="white"/>
<path d="M379.459 209.701C378.112 209.701 376.874 209.032 376.048 207.874C375.242 206.746 374.505 205.628 373.827 204.52C372.412 205.269 370.967 205.958 369.512 206.596C368.854 206.886 368.176 207.036 367.498 207.036C365.669 207.036 364.067 205.988 363.311 204.29C362.534 202.553 362.839 200.547 364.107 199.049L365.257 197.701C364.913 197.532 364.578 197.372 364.244 197.202C362.446 196.294 361.512 194.457 361.866 192.52C362.259 190.344 364.166 188.537 366.298 188.327C366.819 188.277 367.36 188.227 367.901 188.197C367.684 186.48 367.517 184.733 367.399 182.996C367.311 181.768 367.724 180.59 368.549 179.691C369.444 178.713 370.741 178.154 372.107 178.154C372.815 178.154 373.513 178.314 374.122 178.613C374.348 178.034 374.574 177.465 374.82 176.896C375.586 175.069 377.513 173.781 379.488 173.781C381.267 173.781 382.781 174.849 383.439 176.557C384.157 178.433 384.707 180.28 385.1 182.157L387.626 181.668C387.921 181.608 388.226 181.578 388.521 181.578C390.251 181.578 391.843 182.537 392.688 184.064C393.514 185.562 393.464 187.339 392.57 188.806L390.516 192.181L391.273 192.49C393.425 193.359 394.664 195.705 394.221 198.071C393.808 200.257 392.069 201.725 389.887 201.725C389.759 201.725 389.622 201.725 389.484 201.705L385.317 201.365C385.159 201.355 385.002 201.335 384.835 201.315C384.658 202.633 384.491 203.941 384.324 205.249C384.019 207.655 381.788 209.681 379.469 209.681L379.459 209.701Z" fill="#75BEDB"/>
<path d="M379.488 176.398C380.137 176.398 380.746 176.717 381.061 177.526C382.034 180.051 382.682 182.587 383.007 185.223C384.707 184.893 386.407 184.564 388.108 184.234C388.245 184.204 388.393 184.194 388.53 184.194C390.123 184.194 391.332 185.942 390.408 187.459L386.751 193.469C387.951 193.948 389.15 194.437 390.339 194.917C392.364 195.735 392.226 199.13 389.897 199.13C389.828 199.13 389.759 199.13 389.69 199.13C388.304 199.02 386.919 198.91 385.523 198.79C384.609 198.72 383.488 198.471 382.466 198.421C382.348 199.259 382.378 200.348 382.309 200.927C382.132 202.264 381.955 203.592 381.788 204.93C381.651 206.038 380.54 207.096 379.469 207.096C378.987 207.096 378.505 206.877 378.132 206.348C376.913 204.63 375.803 202.883 374.8 201.036C372.756 202.204 370.662 203.263 368.51 204.211C368.166 204.361 367.832 204.431 367.517 204.431C365.787 204.431 364.726 202.314 366.063 200.747C367.203 199.409 368.333 198.081 369.473 196.744C368.097 196.165 366.741 195.546 365.404 194.867C363.301 193.808 364.765 191.083 366.574 190.903C367.92 190.764 369.257 190.704 370.593 190.704C370.682 190.704 370.77 190.704 370.859 190.704C370.436 188.088 370.141 185.452 369.964 182.797C369.876 181.519 371.006 180.74 372.117 180.74C372.677 180.74 373.227 180.94 373.621 181.379C374.161 181.978 374.682 182.597 375.203 183.206C375.793 181.409 376.441 179.642 377.179 177.895C377.542 177.026 378.564 176.368 379.498 176.368M379.498 171.166C376.628 171.166 373.847 172.953 372.608 175.559C372.441 175.549 372.284 175.539 372.117 175.539C370.043 175.539 368.067 176.398 366.682 177.895C365.365 179.323 364.716 181.19 364.854 183.156C364.913 184.075 364.991 184.983 365.08 185.892C362.229 186.6 359.9 189.046 359.359 192.031C358.917 194.457 359.723 196.773 361.443 198.361C360.146 200.487 359.959 203.063 360.991 205.359C362.161 207.945 364.716 209.622 367.507 209.622C368.539 209.622 369.561 209.402 370.534 208.973C371.331 208.624 372.127 208.254 372.923 207.865C373.257 208.364 373.611 208.873 373.974 209.382C375.291 211.229 377.287 212.288 379.459 212.288C383.066 212.288 386.378 209.283 386.85 205.589C386.909 205.1 386.978 204.6 387.037 204.111L388.629 204.241L389.268 204.291C389.474 204.311 389.68 204.311 389.877 204.311C393.268 204.311 396.089 201.945 396.727 198.551C397.258 195.725 396.197 192.92 394.113 191.203L394.742 190.165C396.128 187.878 396.197 185.123 394.919 182.787C393.622 180.431 391.174 178.963 388.521 178.963C388.059 178.963 387.597 179.003 387.145 179.093L386.997 179.123C386.673 177.945 386.28 176.777 385.818 175.589C384.766 172.853 382.338 171.156 379.478 171.156L379.498 171.166Z" fill="white"/>
<path d="M851.03 646.57C849.035 646.57 847.168 645.612 846.145 644.064C845.202 642.627 845.054 640.81 845.752 639.093C846.873 636.327 848.829 630.257 846.784 625.505C843.629 629.688 838.381 632.424 832.897 632.424C832.562 632.424 832.218 632.414 831.884 632.394C827.127 632.094 823.51 629.239 822.193 624.737C820.749 619.765 822.557 614.344 826.695 611.229C828.533 609.851 830.705 608.893 833.113 608.404C831.029 606.786 828.503 605.628 825.741 605.079C822.911 604.51 821.122 602.074 821.397 599.169C821.702 596.024 824.189 593.648 827.196 593.648C827.589 593.648 827.982 593.688 828.385 593.768C837.821 595.665 846.067 602.773 848.878 611.279C850.696 612.357 852.278 613.625 853.566 615.083C859.709 621.981 860.829 632.364 856.583 642.846C855.65 645.152 853.527 646.58 851.04 646.58L851.03 646.57ZM835.776 619.835C834.715 619.994 833.732 620.334 833.25 620.743C833.958 620.613 834.892 620.274 835.776 619.835Z" fill="#E07D77"/>
<path d="M827.196 596.496C827.403 596.496 827.619 596.516 827.835 596.566C836.131 598.234 844.249 604.693 846.519 613.229C848.436 614.227 850.146 615.505 851.483 617.002C857.586 623.861 857.272 633.684 853.989 641.781C853.429 643.159 852.21 643.758 851.031 643.758C849.212 643.758 847.473 642.35 848.338 640.204C850.913 633.844 852.063 625.428 846.441 620.297C844.622 625.748 838.833 629.611 832.907 629.611C832.622 629.611 832.347 629.611 832.062 629.581C823.55 629.052 822.135 618.22 828.366 613.538C830.813 611.701 833.89 610.882 837.054 610.882C837.752 610.882 838.46 610.922 839.168 611.002C836.347 606.41 831.501 603.365 826.282 602.317C822.803 601.618 823.983 596.516 827.196 596.516M832.651 623.681C834.263 623.681 836.268 622.813 837.349 622.244C839.63 621.036 840.838 619.428 841.074 617.481C839.728 617.122 838.332 616.932 836.986 616.932C836.966 616.932 836.936 616.932 836.917 616.932C834.283 616.942 829.84 618.041 830.243 621.625C830.41 623.172 831.423 623.681 832.661 623.681M827.206 590.836C822.764 590.836 819.068 594.31 818.626 598.922C818.203 603.275 820.975 607.049 825.211 607.897C825.565 607.967 825.919 608.047 826.263 608.147C825.85 608.407 825.437 608.686 825.044 608.986C819.963 612.809 817.751 619.478 819.53 625.588C821.162 631.189 825.84 634.902 831.727 635.272C832.12 635.292 832.514 635.312 832.917 635.312C837.231 635.312 841.438 633.834 844.839 631.358C844.632 634.174 843.659 636.869 843.178 638.067C842.116 640.683 842.352 643.468 843.836 645.704C845.389 648.06 848.082 649.468 851.04 649.468C854.687 649.468 857.802 647.362 859.169 643.977C863.837 632.446 862.52 620.956 855.64 613.229C854.372 611.801 852.878 610.533 851.178 609.425C847.767 600.32 839.109 593.072 828.926 591.026C828.356 590.906 827.776 590.856 827.196 590.856L827.206 590.836Z" fill="white"/>
<path d="M752.293 441.982C749.826 441.982 747.29 440.275 746.248 437.919C745.983 437.31 745.718 436.671 745.462 436.022C745.393 435.842 745.315 435.662 745.246 435.483C745.148 435.483 745.049 435.493 744.951 435.503C744.715 435.513 744.479 435.523 744.243 435.523C742.671 435.523 741.098 435.283 739.142 434.754C737.069 434.185 735.516 432.597 735.005 430.491C734.523 428.524 735.083 426.508 736.44 425.23C737.57 424.172 738.798 423.223 740.125 422.384C739.604 420.617 739.162 418.88 738.798 417.173C738.435 415.486 738.779 413.859 739.771 412.611C740.754 411.373 742.248 410.664 743.89 410.664C745.413 410.664 746.936 411.293 748.175 412.441C748.971 413.18 749.777 413.909 750.583 414.637C751.87 413.659 753.177 412.701 754.494 411.782C755.409 411.143 756.529 410.804 757.728 410.804C760.706 410.804 763.92 413.01 763.93 416.584C763.93 417.463 763.871 421.246 762.613 424.661L763.743 425.35C765.915 426.687 767.046 429.433 766.426 431.869C765.896 433.975 764.146 435.393 761.974 435.483C760.893 435.523 759.664 435.572 758.396 435.592C757.895 436.93 757.276 438.228 756.568 439.486C755.664 441.073 754.101 441.992 752.273 441.992L752.293 441.982Z" fill="#A9DBD5"/>
<path d="M743.9 413.292C744.716 413.292 745.62 413.622 746.445 414.381C747.782 415.609 749.129 416.827 750.495 418.025C752.274 416.607 754.102 415.249 755.979 413.941C756.48 413.592 757.109 413.422 757.748 413.422C759.478 413.422 761.355 414.62 761.355 416.577C761.355 418.923 760.923 423.046 759.281 425.662C760.323 426.311 761.375 426.95 762.417 427.599C764.677 428.986 764.599 432.74 761.896 432.85C760.402 432.91 758.849 432.97 757.286 432.97C757.05 432.97 756.814 432.97 756.579 432.97C756.038 434.797 755.291 436.524 754.357 438.181C753.886 439.01 753.129 439.359 752.313 439.359C750.888 439.359 749.276 438.301 748.637 436.853C748.047 435.515 747.527 434.028 746.868 432.62C746.2 432.77 745.561 432.85 744.853 432.88C744.657 432.88 744.46 432.89 744.263 432.89C742.779 432.89 741.354 432.62 739.841 432.211C737.354 431.532 736.804 428.507 738.239 427.169C739.732 425.762 741.413 424.584 743.261 423.635C742.514 421.309 741.875 418.973 741.364 416.617C740.941 414.67 742.258 413.302 743.919 413.302M743.919 408.031C741.502 408.031 739.261 409.099 737.786 410.966C736.312 412.833 735.772 415.299 736.293 417.755C736.548 418.913 736.833 420.091 737.148 421.279C736.293 421.908 735.477 422.587 734.71 423.306C732.646 425.243 731.811 428.238 732.509 431.133C733.236 434.138 735.526 436.504 738.484 437.312C740.352 437.822 741.973 438.091 743.526 438.161C743.644 438.45 743.762 438.74 743.89 439.02C745.354 442.324 748.814 444.64 752.303 444.64C755.045 444.64 757.493 443.213 758.849 440.817C759.331 439.968 759.773 439.089 760.166 438.201C760.844 438.181 761.493 438.151 762.102 438.131C765.444 437.991 768.137 435.795 768.962 432.54C769.818 429.176 768.481 425.562 765.709 423.505C766.476 420.49 766.554 417.665 766.545 416.567C766.525 411.935 762.584 408.161 757.748 408.161C756.018 408.161 754.397 408.66 753.05 409.599C752.283 410.128 751.517 410.677 750.76 411.236C750.485 410.986 750.21 410.737 749.934 410.487C748.215 408.9 746.072 408.031 743.9 408.031H743.919Z" fill="white"/>
<path d="M91.0807 145.821C89.7833 145.871 88.4958 145.911 87.1984 145.941C87.11 144.034 87.0215 142.118 86.9331 140.211C86.6677 134.58 78.0186 134.55 78.284 140.211C78.3724 142.138 78.4609 144.074 78.5493 146.001C77.0259 145.991 75.5025 145.961 73.9791 145.921C68.4162 145.761 68.4162 154.547 73.9791 154.707C75.6401 154.756 77.2913 154.776 78.9523 154.786C79.0309 156.384 79.0997 157.981 79.1784 159.578C79.4437 165.209 88.0928 165.239 87.8274 159.578C87.7488 157.951 87.68 156.334 87.6014 154.707C88.7612 154.677 89.9209 154.647 91.0807 154.597C96.624 154.377 96.6534 145.592 91.0807 145.811V145.821Z" fill="white"/>
<path d="M1038.79 321.302C1037.48 320.992 1036.17 320.673 1034.86 320.344C1035.29 318.407 1035.72 316.46 1036.14 314.523C1037.4 308.803 1028.73 306.357 1027.46 312.117C1027.03 314.084 1026.6 316.041 1026.16 318.007C1024.64 317.568 1023.12 317.119 1021.6 316.65C1016.06 314.943 1013.69 323.758 1019.24 325.465C1020.89 325.974 1022.55 326.463 1024.2 326.933C1023.84 328.56 1023.48 330.177 1023.13 331.804C1021.87 337.525 1030.54 339.971 1031.81 334.21C1032.17 332.563 1032.53 330.906 1032.9 329.259C1034.07 329.548 1035.24 329.838 1036.42 330.117C1042.04 331.435 1044.45 322.63 1038.78 321.302H1038.79Z" fill="white"/>
<path d="M519.063 367.204C518.385 361.064 512.379 356.452 506.482 359.427C505.126 360.116 504.055 361.124 503.268 362.312C502.816 362.921 502.472 363.62 502.266 364.389C501.263 367.394 501.824 370.908 504.212 373.354C504.448 373.593 504.703 373.823 504.979 374.043C505.834 375.231 507.023 376.209 508.595 376.828C511.279 377.866 514.375 377.427 516.537 375.44C518.758 373.394 519.377 370.119 519.053 367.214L519.063 367.204Z" fill="white"/>
<path d="M583.793 679.868C583.115 673.728 577.11 669.116 571.213 672.091C569.856 672.78 568.785 673.788 567.999 674.976C567.546 675.585 567.203 676.284 566.996 677.053C565.994 680.058 566.554 683.572 568.942 686.018C569.178 686.257 569.434 686.487 569.709 686.707C570.564 687.895 571.753 688.873 573.326 689.492C576.009 690.53 579.105 690.091 581.267 688.104C583.488 686.058 584.108 682.783 583.783 679.878L583.793 679.868Z" fill="white"/>
<path d="M786.28 195.009C783.155 189.708 775.813 188.051 771.656 193.232C770.702 194.43 770.132 195.798 769.916 197.206C769.749 197.954 769.729 198.733 769.857 199.512C770.181 202.666 772.127 205.631 775.292 206.849C775.607 206.969 775.931 207.069 776.275 207.159C777.533 207.888 779.027 208.267 780.708 208.167C783.578 207.988 786.212 206.28 787.362 203.555C788.541 200.76 787.774 197.515 786.29 195.009H786.28Z" fill="white"/>
<path d="M531.162 171.665C528.037 166.364 520.695 164.707 516.537 169.888C515.584 171.086 515.014 172.454 514.798 173.862C514.63 174.611 514.611 175.389 514.739 176.168C515.063 179.323 517.009 182.288 520.174 183.506C520.488 183.625 520.813 183.725 521.157 183.815C522.415 184.544 523.909 184.923 525.589 184.823C528.459 184.644 531.093 182.937 532.243 180.211C533.423 177.416 532.656 174.171 531.172 171.665H531.162Z" fill="white"/>
<path d="M764.638 203.814C763.055 201.139 759.35 200.3 757.256 202.916C756.775 203.515 756.49 204.213 756.372 204.922C756.293 205.302 756.274 205.691 756.342 206.09C756.5 207.678 757.482 209.175 759.085 209.794C759.242 209.854 759.409 209.904 759.576 209.954C760.215 210.323 760.962 210.513 761.817 210.463C763.262 210.373 764.598 209.505 765.178 208.137C765.778 206.719 765.385 205.092 764.638 203.824V203.814Z" fill="white"/>
<path d="M486.177 578.4C484.594 575.725 480.889 574.886 478.795 577.502C478.314 578.101 478.029 578.799 477.911 579.508C477.832 579.888 477.813 580.277 477.881 580.676C478.039 582.264 479.022 583.761 480.624 584.38C480.781 584.44 480.948 584.49 481.115 584.54C481.754 584.909 482.501 585.099 483.356 585.049C484.801 584.959 486.137 584.091 486.717 582.723C487.317 581.305 486.924 579.678 486.177 578.41V578.4Z" fill="white"/>
<path d="M297.922 462.122C299.877 456.271 296.369 449.513 289.793 449.642C288.28 449.672 286.884 450.132 285.675 450.86C285.007 451.22 284.407 451.709 283.906 452.308C281.744 454.594 280.781 458.018 281.921 461.263C282.029 461.583 282.167 461.902 282.324 462.221C282.599 463.669 283.267 465.067 284.437 466.305C286.432 468.411 289.42 469.35 292.201 468.471C295.071 467.573 296.998 464.877 297.922 462.112V462.122Z" fill="white"/>
<path d="M526.867 352.335C526.503 349.021 523.26 346.535 520.075 348.142C519.338 348.512 518.768 349.061 518.345 349.7C518.1 350.029 517.913 350.408 517.805 350.818C517.264 352.435 517.569 354.332 518.856 355.66C518.984 355.789 519.122 355.919 519.269 356.029C519.731 356.668 520.37 357.197 521.225 357.526C522.67 358.086 524.341 357.846 525.51 356.778C526.709 355.67 527.044 353.903 526.867 352.335Z" fill="white"/>
<path d="M811.284 244.876C811.205 243.069 809.82 241.531 807.992 241.531C806.262 241.531 804.62 243.069 804.699 244.876C804.787 247.142 804.886 249.418 804.974 251.684C805.053 253.491 806.439 255.029 808.267 255.029C809.997 255.029 811.638 253.491 811.559 251.684C811.471 249.418 811.373 247.142 811.284 244.876Z" fill="white"/>
<path d="M812.63 266.051C812.473 261.758 805.878 261.728 806.035 266.051C806.163 269.665 806.301 273.279 806.429 276.903C806.586 281.196 813.181 281.226 813.024 276.903C812.896 273.289 812.758 269.675 812.63 266.051Z" fill="white"/>
<path d="M825.417 254.355C823.186 254.455 820.945 254.565 818.714 254.664C816.935 254.744 815.422 256.142 815.422 258.009C815.422 259.756 816.935 261.443 818.714 261.353C820.945 261.253 823.186 261.144 825.417 261.044C827.196 260.964 828.71 259.566 828.71 257.699C828.71 255.952 827.196 254.265 825.417 254.355Z" fill="white"/>
<path d="M801.347 255.477C798.615 255.716 795.883 255.856 793.15 255.896C788.914 255.966 788.895 262.665 793.15 262.595C795.892 262.555 798.625 262.415 801.347 262.175C803.126 262.026 804.64 260.748 804.64 258.831C804.64 257.144 803.126 255.327 801.347 255.487V255.477Z" fill="white"/>
<path d="M500.143 681.284C500.713 679.606 499.986 677.7 498.305 677.041C496.732 676.412 494.688 677.22 494.128 678.908C493.42 681.014 492.713 683.121 491.995 685.217C491.425 686.894 492.152 688.801 493.833 689.46C495.415 690.089 497.45 689.28 498.01 687.593C498.718 685.487 499.425 683.38 500.143 681.284Z" fill="white"/>
<path d="M493.961 701.095C495.327 697.112 489.312 694.716 487.946 698.709C486.796 702.053 485.656 705.408 484.506 708.752C483.139 712.736 489.155 715.132 490.521 711.138C491.671 707.794 492.811 704.439 493.961 701.095Z" fill="white"/>
<path d="M509.725 695.03C507.652 694.321 505.578 693.603 503.504 692.894C501.853 692.325 499.976 693.053 499.327 694.761C498.718 696.358 499.504 698.435 501.165 699.004C503.239 699.712 505.312 700.431 507.386 701.14C509.037 701.709 510.915 700.98 511.563 699.273C512.173 697.676 511.386 695.599 509.725 695.03Z" fill="white"/>
<path d="M487.366 687.38C484.791 686.611 482.245 685.752 479.739 684.804C475.847 683.336 473.488 689.446 477.39 690.914C479.906 691.862 482.452 692.721 485.017 693.489C486.688 693.989 488.526 693.38 489.194 691.623C489.784 690.075 489.037 687.879 487.356 687.38H487.366Z" fill="white"/>
<path d="M61.9 615.56C61.438 613.813 59.7574 612.615 57.9686 613.015C56.2781 613.394 55.0004 615.251 55.4623 617.008C56.0324 619.204 56.6122 621.401 57.1823 623.597C57.6442 625.344 59.3249 626.542 61.1137 626.143C62.8042 625.763 64.0819 623.906 63.62 622.149C63.0499 619.953 62.47 617.757 61.9 615.56Z" fill="white"/>
<path d="M67.7281 635.942C66.6568 631.779 60.2191 633.207 61.2905 637.39C62.1848 640.894 63.0891 644.388 63.9835 647.892C65.0548 652.055 71.4924 650.628 70.4211 646.445C69.5267 642.941 68.6225 639.447 67.7281 635.942Z" fill="white"/>
<path d="M77.7237 621.721C75.5614 622.31 73.409 622.899 71.2467 623.498C69.5267 623.968 68.3473 625.665 68.7404 627.492C69.1139 629.199 70.942 630.507 72.6718 630.038C74.8341 629.448 76.9865 628.859 79.1488 628.26C80.8688 627.791 82.0482 626.094 81.6551 624.267C81.2816 622.56 79.4535 621.252 77.7237 621.721Z" fill="white"/>
<path d="M54.4595 628.107C51.8451 628.936 49.211 629.675 46.5377 630.324C42.4097 631.322 43.825 637.861 47.9628 636.863C50.6263 636.214 53.2702 635.485 55.8846 634.646C57.5849 634.107 58.8037 632.53 58.3909 630.653C58.0272 629.006 56.1696 627.568 54.4595 628.107Z" fill="white"/>
<path d="M51.285 0.0859375H1027.03C1055.08 0.0859375 1077.84 23.2173 1077.84 51.6998V98.921H0.47168V51.6998C0.47168 23.2173 23.2443 0.0859375 51.285 0.0859375Z" fill="#91AF74"/>
<path d="M222.595 66.9688H137.087V69.9638H222.595V66.9688Z" fill="#606060"/>
<path d="M938.111 66.9688H852.603V69.9638H938.111V66.9688Z" fill="#606060"/>
<path opacity="0.72" d="M17.6912 102.912V246.672C17.6912 246.672 61.7425 110.09 87.4735 101.914L17.6912 102.912Z" fill="white"/>
<path opacity="0.72" d="M1050.67 421.031V491.244L899.249 734.219H874.009L1050.67 421.031Z" fill="white"/>
<path opacity="0.72" d="M1050.67 546.977V668.464L994.703 733.106H938.75L1050.67 546.977Z" fill="white"/>
<path d="M588.963 28.4497H597.671V30.0969H590.88V34.8989H596.6V36.5461H590.88V42.1268H597.898V43.7741H588.963V28.4297V28.4497Z" fill="#FFF4C7"/>
<path d="M603.539 37.8919L600.138 32.4609H602.153L603.657 34.9468C604.011 35.5957 604.394 36.2247 604.767 36.8436H604.846C605.2 36.2147 605.524 35.5857 605.858 34.9468L607.234 32.4609H609.19L605.799 38.0816L609.485 43.812H607.431L605.78 41.1564C605.406 40.4676 605.003 39.7787 604.591 39.1298H604.492C604.099 39.7787 603.726 40.4676 603.342 41.1564L601.839 43.812H599.863L603.549 37.8919H603.539Z" fill="#FFF4C7"/>
<path d="M611.677 38.1363C611.677 34.3526 614.124 32.1562 616.866 32.1562C619.609 32.1562 622.056 34.3526 622.056 38.1363C622.056 41.92 619.609 44.0764 616.866 44.0764C614.124 44.0764 611.677 41.9 611.677 38.1363ZM620.11 38.1363C620.11 35.5206 618.793 33.7436 616.857 33.7436C614.92 33.7436 613.623 35.5206 613.623 38.1363C613.623 40.7519 614.92 42.479 616.857 42.479C618.793 42.479 620.11 40.7419 620.11 38.1363Z" fill="#FFF4C7"/>
<path d="M626.165 40.2759V33.9864H624.494V32.5389L626.243 32.429L626.469 29.2344H628.032V32.429H631.059V33.9765H628.032V40.3059C628.032 41.7036 628.464 42.5022 629.762 42.5022C630.155 42.5022 630.666 42.3525 631.039 42.2127L631.413 43.6303C630.774 43.84 630.037 44.0496 629.359 44.0496C626.97 44.0496 626.174 42.5222 626.174 40.266L626.165 40.2759Z" fill="#FFF4C7"/>
<path d="M634.518 28.8373C634.518 28.1085 635.029 27.6094 635.776 27.6094C636.523 27.6094 637.034 28.1085 637.034 28.8373C637.034 29.616 636.523 30.1152 635.776 30.1152C635.029 30.1152 634.518 29.616 634.518 28.8373ZM634.823 32.4513H636.69V43.8024H634.823V32.4513Z" fill="#FFF4C7"/>
<path d="M640.877 38.1363C640.877 34.3526 643.413 32.1562 646.273 32.1562C647.738 32.1562 648.74 32.7852 649.546 33.494L648.583 34.7519C647.925 34.1629 647.246 33.7436 646.362 33.7436C644.327 33.7436 642.843 35.5206 642.843 38.1363C642.843 40.7519 644.239 42.479 646.303 42.479C647.335 42.479 648.239 41.9998 648.937 41.3509L649.762 42.6288C648.75 43.5472 647.482 44.0664 646.146 44.0664C643.177 44.0664 640.897 41.89 640.897 38.1263L640.877 38.1363Z" fill="#FFF4C7"/>
<path d="M659.443 28.4553H663.768C667.139 28.4553 669.409 29.6233 669.409 32.9678C669.409 36.3122 667.168 37.7098 663.856 37.7098H661.369V43.7897H659.453V28.4453L659.443 28.4553ZM663.601 36.1525C666.254 36.1525 667.512 35.1741 667.512 32.9777C667.512 30.7814 666.176 30.0526 663.522 30.0526H661.36V36.1525H663.601Z" fill="#FFF4C7"/>
<path d="M672.122 38.1363C672.122 34.4524 674.569 32.1562 677.164 32.1562C680.005 32.1562 681.607 34.2428 681.607 37.4874C681.607 37.9067 681.567 38.306 681.528 38.5755H673.999C674.127 41.0015 675.582 42.5489 677.705 42.5489C678.796 42.5489 679.68 42.2095 680.506 41.6504L681.184 42.9083C680.201 43.5572 679.002 44.0764 677.479 44.0764C674.51 44.0764 672.132 41.88 672.132 38.1363H672.122ZM679.965 37.1978C679.965 34.9216 678.933 33.6837 677.184 33.6837C675.601 33.6837 674.196 34.9815 673.97 37.1978H679.955H679.965Z" fill="#FFF4C7"/>
<path d="M685.705 40.2759V33.9864H684.034V32.5389L685.784 32.429L686.01 29.2344H687.573V32.429H690.6V33.9765H687.573V40.3059C687.573 41.7036 688.005 42.5022 689.303 42.5022C689.696 42.5022 690.207 42.3525 690.58 42.2127L690.954 43.6303C690.315 43.84 689.578 44.0496 688.9 44.0496C686.511 44.0496 685.715 42.5222 685.715 40.266L685.705 40.2759Z" fill="#FFF4C7"/>
<path d="M588.963 49.6506H597.671V51.2979H590.88V56.4792H596.639V58.1065H590.88V64.985H588.963V49.6406V49.6506Z" fill="#FFF4C7"/>
<path d="M601.082 50.027C601.082 49.2982 601.593 48.7891 602.34 48.7891C603.087 48.7891 603.598 49.2882 603.598 50.027C603.598 50.7957 603.087 51.3049 602.34 51.3049C601.593 51.3049 601.082 50.8057 601.082 50.027ZM601.387 53.641H603.254V64.992H601.387V53.641Z" fill="#FFF4C7"/>
<path d="M607.441 59.3238C607.441 55.6499 609.888 53.3438 612.483 53.3438C615.323 53.3438 616.925 55.4303 616.925 58.6749C616.925 59.0942 616.886 59.4935 616.847 59.763H609.318C609.436 62.189 610.901 63.7364 613.023 63.7364C614.114 63.7364 614.999 63.407 615.825 62.8379L616.503 64.0958C615.51 64.7447 614.321 65.2639 612.797 65.2639C609.839 65.2639 607.451 63.0675 607.451 59.3238H607.441ZM615.284 58.3853C615.284 56.1091 614.252 54.8712 612.503 54.8712C610.92 54.8712 609.515 56.169 609.289 58.3853H615.274H615.284Z" fill="#FFF4C7"/>
<path d="M620.916 62.7354V48.3594H622.793V62.8652C622.793 63.4542 623.038 63.6838 623.324 63.6838C623.432 63.6838 623.51 63.6838 623.717 63.6439L623.982 65.1014C623.717 65.2013 623.402 65.2711 622.891 65.2711C621.495 65.2711 620.916 64.3527 620.916 62.7454V62.7354Z" fill="#FFF4C7"/>
<path d="M627.216 59.3254C627.216 55.6516 629.496 53.3454 632.051 53.3454C633.368 53.3454 634.213 53.8446 635.196 54.6832L635.118 52.7165V48.3438H636.966V64.976H635.442L635.275 63.6382H635.216C634.331 64.5168 633.162 65.2455 631.815 65.2455C629.014 65.2455 627.206 63.0891 627.206 59.3055L627.216 59.3254ZM635.118 62.1108V56.1507C634.155 55.2922 633.309 54.9627 632.385 54.9627C630.577 54.9627 629.152 56.7198 629.152 59.3154C629.152 62.0509 630.262 63.6881 632.238 63.6881C633.27 63.6881 634.174 63.169 635.118 62.1208V62.1108Z" fill="#FFF4C7"/>
<path d="M647.158 57.3495C647.158 52.3978 650.077 49.3828 654.067 49.3828C656.17 49.3828 657.547 50.3412 658.411 51.2896L657.379 52.5475C656.623 51.7289 655.65 51.09 654.107 51.09C651.079 51.09 649.104 53.476 649.104 57.2996C649.104 61.1232 650.893 63.5891 654.146 63.5891C655.217 63.5891 656.269 63.2597 656.859 62.6906V58.6773H653.674V57.07H658.608V63.5092C657.645 64.5375 655.974 65.2863 653.939 65.2863C649.988 65.2863 647.148 62.3412 647.148 57.3595L647.158 57.3495Z" fill="#FFF4C7"/>
<path d="M663.129 60.8286V53.6406H665.006V60.599C665.006 62.7155 665.625 63.614 667.099 63.614C668.249 63.614 669.055 63.0449 670.127 61.6872V53.6406H671.994V64.9917H670.431L670.284 63.2146H670.225C669.173 64.4526 668.063 65.2612 666.52 65.2612C664.171 65.2612 663.119 63.7138 663.119 60.8286H663.129Z" fill="#FFF4C7"/>
<path d="M676.693 50.027C676.693 49.2982 677.204 48.7891 677.951 48.7891C678.698 48.7891 679.209 49.2882 679.209 50.027C679.209 50.7957 678.698 51.3049 677.951 51.3049C677.204 51.3049 676.693 50.8057 676.693 50.027ZM676.997 53.641H678.875V64.992H676.997V53.641Z" fill="#FFF4C7"/>
<path d="M683.081 59.3254C683.081 55.6516 685.361 53.3454 687.917 53.3454C689.234 53.3454 690.079 53.8446 691.062 54.6832L690.983 52.7165V48.3438H692.831V64.976H691.308L691.141 63.6382H691.082C690.197 64.5168 689.027 65.2455 687.681 65.2455C684.88 65.2455 683.071 63.0891 683.071 59.3055L683.081 59.3254ZM690.983 62.1108V56.1507C690.02 55.2922 689.175 54.9627 688.251 54.9627C686.442 54.9627 685.017 56.7198 685.017 59.3154C685.017 62.0509 686.128 63.6881 688.103 63.6881C689.135 63.6881 690.04 63.169 690.983 62.1208V62.1108Z" fill="#FFF4C7"/>
<path d="M697.038 59.3238C697.038 55.6499 699.485 53.3438 702.08 53.3438C704.92 53.3438 706.522 55.4303 706.522 58.6749C706.522 59.0942 706.483 59.4935 706.443 59.763H698.915C699.043 62.189 700.497 63.7364 702.62 63.7364C703.711 63.7364 704.596 63.407 705.421 62.8379L706.099 64.0958C705.117 64.7447 703.918 65.2639 702.394 65.2639C699.426 65.2639 697.047 63.0675 697.047 59.3238H697.038ZM704.881 58.3853C704.881 56.1091 703.849 54.8712 702.099 54.8712C700.517 54.8712 699.111 56.169 698.885 58.3853H704.871H704.881Z" fill="#FFF4C7"/>
<path d="M363.488 52.2384L359.34 53.3365V67.1635H354.455V54.5645L348.755 56.052L347.506 50.7409C349.403 50.3915 351.87 49.8623 354.465 49.3332V39.6793H351.959C351.526 41.8757 351.005 43.9322 350.406 45.5196C349.541 45.1203 347.723 44.4214 346.779 44.1119C348.204 40.5579 348.981 34.8973 349.374 29.5462L353.266 30.1652C353.138 31.7026 352.961 33.1902 352.745 34.7276H354.475V26.2118H359.36V34.7276H363.075V39.6893H359.36V48.245L362.947 47.4064L363.507 52.2384H363.488ZM387.076 52.1485H382.928V61.3232C382.928 63.9089 382.457 65.2766 380.727 66.1052C379.085 66.8939 376.668 67.0237 373.513 67.0237C373.296 65.4863 372.608 63.3398 371.96 61.8423C373.994 61.9322 376.324 61.9322 377.012 61.9322C377.66 61.9322 377.837 61.7525 377.837 61.1834V52.1385H364.097V47.3565H377.837V44.2816H382.938V47.3565H387.086V52.1385L387.076 52.1485ZM372.382 34.8174H364.264V30.0754H372.382V26.1719H377.483V30.0754H386.123V34.8174H377.483V38.5512H384.658V43.3832H365.866V38.5512H372.392V34.8174H372.382ZM369.876 52.2883C371.734 54.2151 374.024 57.0304 375.065 58.8673L371.006 61.5428C370.102 59.6959 367.94 56.7608 366.082 54.6543L369.886 52.2883H369.876Z" fill="white"/>
<path d="M415.333 43.4609H419.225V47.1447H398.919L398.88 43.4609H402.988C402.772 42.5823 402.516 41.574 402.172 40.7354L404.069 40.386H399.745V36.8719H407.607C407.352 36.1231 407.136 35.3744 406.831 34.7654L410.979 34.2363C411.411 34.985 411.843 35.9933 412.148 36.8719H418.714V40.386H414.477L416.424 40.8253L415.342 43.4609H415.333ZM417.446 63.0781C417.446 65.0548 417.102 65.9733 415.765 66.5923C414.507 67.1613 412.649 67.2112 410.232 67.1613C410.055 66.0232 409.494 64.6156 408.974 63.6073C410.31 63.6472 411.784 63.6472 412.168 63.6472C412.689 63.6073 412.816 63.4675 412.816 63.0282V60.3527C410.399 61.4009 408.059 62.3693 405.946 63.2978L404.954 60.7919C404.61 63.2079 403.922 65.6239 402.624 67.5507C401.887 66.8019 400.118 65.534 399.214 65.1347C401.16 62.2795 401.327 58.5457 401.327 55.6106V48.7221H417.446V63.0781ZM404.177 35.9534H399.558V28.975H415.844C415.588 28.1864 415.234 27.3078 414.89 26.6489L420.375 25.8203C420.895 26.7388 421.456 27.9667 421.8 28.975H437.054V35.9534H432.218V33.188H404.177V35.9534ZM405.298 55.7004C405.298 56.9284 405.258 58.2462 405.121 59.6039C407.195 59.1247 409.956 58.2861 412.816 57.4974V51.797H405.298V55.7004ZM406.978 52.5457C408.747 53.1148 411.165 54.0332 412.463 54.6921L410.949 57.4076C409.652 56.7487 407.234 55.6505 405.416 54.9517L406.969 52.5357L406.978 52.5457ZM406.33 40.386C406.723 41.3943 407.106 42.5324 407.283 43.4609H410.959C411.303 42.4925 411.647 41.3544 411.912 40.386H406.339H406.33ZM435.972 60.8419C436.837 61.2312 437.83 61.5407 438.606 61.7204C438.135 65.7537 436.837 66.9417 433.122 66.9417H426.34C421.544 66.9417 420.07 65.7537 420.07 61.4109V46.406H431.481V44.6988H420.07V34.5657H424.778V36.9318H436.611V40.1764H424.778V41.6239H436.228V49.4808H424.778V50.7986H435.147V53.4342H424.778V54.752H435.019V57.3876H424.778V58.7054H435.972V60.8519V60.8419ZM432.69 63.0781C433.81 63.0781 434.243 62.7687 434.459 61.2811H424.778V61.371C424.778 62.8585 425.082 63.0781 426.94 63.0781H432.69Z" fill="white"/>
<path d="M487.838 27.6094V67.1035H482.825V65.566H455.6V67.1035H450.843V27.6094H487.828H487.838ZM482.825 61.3131V31.9122H455.6V61.3131H482.825ZM481.528 41.606V44.4613H457.074V41.606H466.922V40.2882H460.573V33.3099H477.812V40.2882H471.247V41.606H481.528ZM459.06 45.7291H479.326V59.8655H459.06V45.7291ZM462.991 56.9604H475.178V48.5744H462.991V56.9604ZM464.632 37.6925H473.488V35.9355H464.632V37.6925ZM464.76 49.8523H473.527V55.6925H464.76V49.8523ZM467.483 53.4962H470.598V52.0885H467.483V53.4962Z" fill="white"/>
<path d="M540.469 36.5685H533.727C533.117 38.4553 532.429 40.1225 531.653 41.4803C531.004 40.9112 529.618 40.1225 528.586 39.5535V42.0992H525.952V44.5152H529.363V48.2889H516.448V35.031L514.679 37.7964L514.424 37.5768V41.4403H510.531V44.5551H515.239V48.9478H510.531V59.8296L515.76 58.9112L515.937 60.9777H517.539V50.4453H538.759V60.9777H540.44V65.3704H515.161V63.5235C510.364 64.4918 505.352 65.5002 501.42 66.2389L500.3 61.6266C502.03 61.3671 504.104 61.0077 506.305 60.6183V48.9478H500.949V44.5551H506.305V41.4403H502.629V40.0327C502.158 40.4719 501.637 40.9112 501.165 41.3105C501.076 40.2623 500.261 37.3571 499.779 36.1292C502.934 33.6733 506.305 29.8996 508.251 25.9062L512.006 27.4437C511.75 28.0127 511.445 28.5818 511.141 29.1508C513.038 30.4686 514.984 31.9162 516.458 33.0543V27.3039H528.95V31.0776H525.972V33.3638H528.606V37.7565C530.12 34.6417 531.073 30.3788 531.584 26.2557L535.909 27.0444C535.653 28.7515 535.348 30.3788 535.004 32.046H540.489V36.5685H540.469ZM504.31 50.7049C504.919 53.1208 505.48 56.2356 505.696 58.2922L502.413 59.1707C502.236 57.0642 501.676 53.8596 501.165 51.4935L504.32 50.7049H504.31ZM513.942 37.1475C512.477 35.9195 510.571 34.3422 508.713 32.9745C507.671 34.422 506.639 35.8297 505.47 37.1475H513.942ZM510.915 57.5135C511.475 55.5368 512.084 52.4719 512.389 50.3554L515.888 51.194C515.151 53.6999 514.502 56.4652 513.942 58.2622L510.915 57.5135ZM520.124 31.0976V33.3838H522.503V31.0976H520.124ZM525.353 36.5385H520.124V38.9545H525.353V36.5385ZM522.503 42.1092H520.124V44.5252H522.503V42.1092ZM521.598 60.9777H523.761V54.5684H521.598V60.9777ZM526.916 54.5684V60.9777H529.117V54.5684H526.916ZM530.326 42.7182H539.879V47.0609H530.326V42.7182ZM532.233 54.5684V60.9777H534.523V54.5684H532.233Z" fill="white"/>
<path opacity="0.52" d="M564.402 29.7812V67.3985" stroke="white" stroke-width="3.77" stroke-linecap="round" stroke-linejoin="round"/>
<path d="M753.099 33.4277C753.05 32.1698 752.087 31.1016 750.809 31.1016C749.61 31.1016 748.47 32.1598 748.519 33.4277C748.588 35.005 748.647 36.5724 748.715 38.1498C748.765 39.4077 749.728 40.4759 751.005 40.4759C752.205 40.4759 753.345 39.4177 753.296 38.1498C753.227 36.5724 753.168 35.005 753.099 33.4277Z" fill="white"/>
<path d="M754.033 49.481C753.925 46.5059 749.354 46.486 749.462 49.481C749.551 51.9868 749.649 54.4926 749.738 56.9984C749.846 59.9734 754.416 59.9934 754.308 56.9984C754.219 54.4926 754.121 51.9868 754.033 49.481Z" fill="white"/>
<path d="M763.576 40.6969C762.023 40.7668 760.48 40.8366 758.927 40.9065C757.699 40.9664 756.637 41.9348 756.637 43.2326C756.637 44.4506 757.679 45.6087 758.927 45.5588C760.48 45.4889 762.023 45.419 763.576 45.3491C764.805 45.2892 765.866 44.3208 765.866 43.023C765.866 41.805 764.825 40.647 763.576 40.6969Z" fill="white"/>
<path d="M744.853 42.1484C742.966 42.3181 741.069 42.4079 739.172 42.4379C736.233 42.4878 736.224 47.1301 739.172 47.0801C741.069 47.0502 742.966 46.9504 744.853 46.7906C746.081 46.6808 747.143 45.8023 747.143 44.4645C747.143 43.2965 746.091 42.0386 744.853 42.1384V42.1484Z" fill="white"/>
<path d="M306.187 33.4277C306.138 32.1698 305.175 31.1016 303.897 31.1016C302.698 31.1016 301.558 32.1598 301.607 33.4277C301.676 35.005 301.735 36.5724 301.804 38.1498C301.853 39.4077 302.816 40.4759 304.094 40.4759C305.293 40.4759 306.433 39.4177 306.384 38.1498C306.315 36.5724 306.256 35.005 306.187 33.4277Z" fill="white"/>
<path d="M307.121 49.481C307.013 46.5059 302.442 46.486 302.55 49.481C302.639 51.9868 302.737 54.4926 302.826 56.9984C302.934 59.9734 307.504 59.9934 307.396 56.9984C307.307 54.4926 307.209 51.9868 307.121 49.481Z" fill="white"/>
<path d="M316.664 40.6969C315.111 40.7668 313.568 40.8366 312.015 40.9065C310.787 40.9664 309.725 41.9348 309.725 43.2326C309.725 44.4506 310.767 45.6087 312.015 45.5588C313.568 45.4889 315.111 45.419 316.664 45.3491C317.893 45.2892 318.954 44.3208 318.954 43.023C318.954 41.805 317.912 40.647 316.664 40.6969Z" fill="white"/>
<path d="M297.941 42.1484C296.054 42.3181 294.157 42.4079 292.26 42.4379C289.322 42.4878 289.312 47.1301 292.26 47.0801C294.157 47.0502 296.054 46.9504 297.941 46.7906C299.17 46.6808 300.231 45.8023 300.231 44.4645C300.231 43.2965 299.18 42.0386 297.941 42.1384V42.1484Z" fill="white"/>
<path d="M783.45 32.7454C782.762 32.5856 782.074 32.4159 781.386 32.2462C781.612 31.2279 781.838 30.2096 782.064 29.1813C782.722 26.1763 778.172 24.8885 777.503 27.9134C777.277 28.9417 777.051 29.98 776.825 31.0083C776.029 30.7787 775.223 30.5391 774.427 30.2995C771.508 29.401 770.27 34.0332 773.179 34.9317C774.044 35.2013 774.919 35.4509 775.793 35.7004C775.607 36.559 775.42 37.4076 775.233 38.2662C774.575 41.2711 779.125 42.559 779.794 39.534C779.98 38.6655 780.177 37.7969 780.364 36.9284C780.983 37.0781 781.592 37.2379 782.211 37.3776C785.17 38.0765 786.428 33.4442 783.46 32.7454H783.45Z" fill="white"/>
<defs>
<linearGradient id="paint0_linear_1128_3797" x1="211.094" y1="602.31" x2="214.255" y2="592.589" gradientUnits="userSpaceOnUse">
<stop stop-color="#E2BCBC"/>
<stop offset="0.21" stop-color="#E2BFBF" stop-opacity="0.98"/>
<stop offset="0.46" stop-color="#E5C9C9" stop-opacity="0.9"/>
<stop offset="0.73" stop-color="#E9D9D9" stop-opacity="0.79"/>
<stop offset="1" stop-color="#EFEFEF" stop-opacity="0.63"/>
</linearGradient>
<linearGradient id="paint1_linear_1128_3797" x1="214.381" y1="603.381" x2="217.537" y2="593.656" gradientUnits="userSpaceOnUse">
<stop stop-color="#E2BCBC"/>
<stop offset="0.21" stop-color="#E2BFBF" stop-opacity="0.98"/>
<stop offset="0.46" stop-color="#E5C9C9" stop-opacity="0.9"/>
<stop offset="0.73" stop-color="#E9D9D9" stop-opacity="0.79"/>
<stop offset="1" stop-color="#EFEFEF" stop-opacity="0.63"/>
</linearGradient>
<linearGradient id="paint2_linear_1128_3797" x1="144.087" y1="609.759" x2="147.238" y2="600.039" gradientUnits="userSpaceOnUse">
<stop stop-color="#E2BCBC"/>
<stop offset="0.21" stop-color="#E2BFBF" stop-opacity="0.98"/>
<stop offset="0.46" stop-color="#E5C9C9" stop-opacity="0.9"/>
<stop offset="0.73" stop-color="#E9D9D9" stop-opacity="0.79"/>
<stop offset="1" stop-color="#EFEFEF" stop-opacity="0.63"/>
</linearGradient>
<linearGradient id="paint3_linear_1128_3797" x1="147.375" y1="610.812" x2="150.521" y2="601.088" gradientUnits="userSpaceOnUse">
<stop stop-color="#E2BCBC"/>
<stop offset="0.21" stop-color="#E2BFBF" stop-opacity="0.98"/>
<stop offset="0.46" stop-color="#E5C9C9" stop-opacity="0.9"/>
<stop offset="0.73" stop-color="#E9D9D9" stop-opacity="0.79"/>
<stop offset="1" stop-color="#EFEFEF" stop-opacity="0.63"/>
</linearGradient>
</defs>
</svg>
