<svg width="54" height="54" viewBox="0 0 54 54" fill="none" xmlns="http://www.w3.org/2000/svg">
<path fill-rule="evenodd" clip-rule="evenodd" d="M6.75 37.9574V20.8281H47.25V38.0946C47.25 45.1574 42.8043 49.4999 35.6913 49.4999H18.2865C11.2401 49.4999 6.75 45.0674 6.75 37.9574ZM17.9086 32.4224C16.8861 32.4696 16.0414 31.6574 15.997 30.6246C15.997 29.5896 16.7972 28.7346 17.8197 28.6874C18.82 28.6874 19.6424 29.4771 19.6647 30.4874C19.7091 31.5246 18.9089 32.3796 17.9086 32.4224ZM27.0445 32.4224C26.022 32.4696 25.1773 31.6574 25.1328 30.6246C25.1328 29.5896 25.933 28.7346 26.9555 28.6874C27.9558 28.6874 28.7783 29.4771 28.8005 30.4874C28.845 31.5246 28.0447 32.3796 27.0445 32.4224ZM36.1136 40.7024C35.0911 40.6799 34.2687 39.8249 34.2687 38.7899C34.2464 37.7549 35.0689 36.9021 36.0914 36.8796H36.1136C37.1583 36.8796 38.003 37.7346 38.003 38.7899C38.003 39.8474 37.1583 40.7024 36.1136 40.7024ZM25.1328 38.7899C25.1773 39.8249 26.022 40.6371 27.0445 40.5899C28.0447 40.5471 28.845 39.6921 28.8005 38.6571C28.7783 37.6446 27.9558 36.8549 26.9555 36.8549C25.933 36.9021 25.1328 37.7549 25.1328 38.7899ZM15.9748 38.7899C16.0192 39.8249 16.8639 40.6371 17.8864 40.5899C18.8867 40.5471 19.6869 39.6921 19.6424 38.6571C19.6202 37.6446 18.7978 36.8549 17.7975 36.8549C16.775 36.9021 15.9748 37.7549 15.9748 38.7899ZM34.2909 30.6021C34.2909 29.5671 35.0911 28.7346 36.1136 28.7121C37.1139 28.7121 37.9141 29.5199 37.9586 30.5121C37.9808 31.5471 37.1806 32.4021 36.1803 32.4224C35.1578 32.4449 34.3131 31.6574 34.2909 30.6246V30.6021Z" fill="#91AF74"/>
<path d="M6.75 18C6.77891 16.8549 6.89009 14.5823 7.09912 13.8507C8.16649 9.7366 11.7911 7.12259 16.9723 6.75H37.0299C42.1667 7.1421 45.8357 9.77367 46.9031 13.8507C47.1099 14.5628 47.2211 16.853 47.25 18H6.75Z" fill="#91AF74"/>
<path d="M18.6859 14.8275C19.664 14.8275 20.3975 14.0872 20.3975 13.095V6.23475C20.3975 5.2425 19.664 4.5 18.6859 4.5C17.7079 4.5 16.9744 5.2425 16.9744 6.23475V13.095C16.9744 14.0872 17.7079 14.8275 18.6859 14.8275Z" fill="#91AF74"/>
<path d="M35.3136 14.8275C36.2694 14.8275 37.0252 14.0872 37.0252 13.095V6.23475C37.0252 5.2425 36.2694 4.5 35.3136 4.5C34.3356 4.5 33.6021 5.2425 33.6021 6.23475V13.095C33.6021 14.0872 34.3356 14.8275 35.3136 14.8275Z" fill="#91AF74"/>
</svg>
