<svg width="269" height="307" viewBox="0 0 269 307" fill="none" xmlns="http://www.w3.org/2000/svg">
<g clip-path="url(#clip0_563_4928)">
<path d="M209.578 186.378C189.01 174.717 171.879 185.043 163.552 200.155C155.225 215.268 175.722 236.5 194.917 228.142C206.074 223.281 205.612 204.436 192.232 203.338C181.927 202.488 179.103 210.818 188.344 210.919C194.087 210.986 195.965 214.811 192.118 218.581C189.582 221.061 184.436 222.305 180.637 219.402C177.346 216.898 171.179 210.421 176.931 203.162C182.683 195.903 192.995 194.112 203.736 200.602C214.476 207.092 210.677 229.972 196.773 235.781C182.88 241.582 162.948 234.604 157.287 218.334C155.442 213.021 153.746 206.973 152.312 201.251C154.109 195.381 155.785 187.753 156.747 177.617C158.298 161.3 149.292 126.983 147.274 119.219C147.198 118.945 147.152 118.657 147.114 118.381C147.101 117.048 147.091 116.284 147.091 116.284C147.581 112.553 147.569 108.714 147.192 104.703C146.442 94.3688 144.06 84.4768 144.06 84.4768C142.228 76.8617 137.599 63.5329 137.666 55.9374C137.684 54.3691 138.197 52.2428 138.834 49.8588C146.319 32.2055 138.558 26.4958 130.326 27.3938C128.167 27.3761 126.083 27.5261 123.945 27.8785C119.448 28.2452 114.588 29.0777 107.463 32.8723C103.795 34.8231 97.2541 38.6444 90.2985 42.4113C84.625 44.5067 76.65 46.8388 67.802 52.342C67.6517 52.3731 67.4919 52.4025 67.3509 52.4353C62.4459 53.2501 57.6889 58.0637 53.7468 63.996C47.5503 71.3111 45.5055 78.844 44.2404 84.4908C41.4212 97.0829 44.3478 118.247 69.565 124.448C64.6103 130.21 57.8376 140.711 50.0321 159.84C41.6633 180.344 43.0824 196.467 45.4934 199.143C47.9045 201.818 49.5842 201.114 52.9587 200.056C56.3332 198.998 56.0139 200.358 57.367 200.676C57.9049 200.801 58.8087 200.605 59.7088 200.321C59.9929 201.384 60.3106 202.366 60.6526 203.266C63.8666 211.686 69.412 216.77 72.99 219.345C74.1107 220.209 75.2574 220.982 76.4174 221.68C76.5452 224.056 77.6365 244.681 76.7967 250.162C75.9063 255.982 73.418 256.889 71.2452 257.814C69.4883 258.571 66.6046 260.941 66.9689 264.159C67.4416 268.341 71.8727 268.29 72.5214 268.28C73.1701 268.27 76.711 267.579 78.6695 269.162C80.6281 270.744 85.1342 269.078 86.4209 268.738C87.7077 268.398 88.3675 269.682 91.5999 269.64C94.8323 269.597 96.4378 269.256 98.0437 268.587C99.6496 267.919 102.046 266.118 102.046 266.118C102.575 267.321 104.095 268.603 107.572 269.193C110.656 269.713 110.645 268.746 113.868 268.702C116.819 268.668 116.148 270.323 121.487 270.376C123.598 270.395 125.171 269.315 127.128 269.171C128.018 269.108 131.032 271.38 135.869 270.35C145.242 268.354 146.919 264.68 147.404 263.416C147.687 262.695 147.218 255.129 146.622 246.539C154.374 252.893 165.208 258.32 180.311 260.37C217.607 265.433 243.852 205.819 209.559 186.375L209.578 186.378Z" fill="#5F721A" stroke="#F9F5F2" stroke-width="24.22" stroke-linecap="round" stroke-linejoin="round"/>
<path d="M192.12 218.574C189.583 221.054 184.438 222.299 180.638 219.395C177.347 216.891 171.181 210.414 176.933 203.155C182.685 195.896 192.996 194.105 203.737 200.595C214.478 207.086 210.679 229.965 196.775 235.774C182.882 241.575 162.949 234.597 157.289 218.327C151.637 202.059 147.445 179.002 147.445 179.002L127.882 216.732C127.882 216.732 134.457 254.135 180.331 260.367C217.627 265.429 243.873 205.816 209.579 186.372C189.012 174.71 171.881 185.036 163.554 200.149C155.227 215.261 175.724 236.494 194.918 228.135C206.076 223.274 205.614 204.429 192.234 203.331C181.928 202.482 179.105 210.811 188.346 210.913C194.089 210.98 195.967 214.804 192.12 218.574Z" fill="#B7CC8F" stroke="#543816" stroke-width="4.98" stroke-linecap="round" stroke-linejoin="round"/>
<path d="M78.2439 117.507C78.2439 117.507 66.4228 119.695 50.0338 159.831C41.665 180.335 43.0841 196.458 45.4951 199.133C47.9061 201.808 49.5859 201.105 52.9604 200.046C56.3348 198.988 56.0156 200.349 57.3687 200.667C58.7219 200.984 62.4303 199.243 62.4303 199.243C62.4303 199.243 67.113 145.398 78.2439 117.507Z" fill="#B7CC8F" stroke="#543816" stroke-width="4.63" stroke-linecap="round" stroke-linejoin="round"/>
<path d="M102.066 266.109C102.596 267.312 104.115 268.594 107.592 269.184C110.677 269.704 110.665 268.737 113.888 268.694C116.839 268.659 116.168 270.314 121.508 270.367C123.619 270.386 125.192 269.306 127.148 269.162C128.038 269.099 131.052 271.371 135.889 270.341C145.262 268.345 146.939 264.671 147.425 263.407C148.052 261.783 144.973 226.004 144.897 220.842C144.83 215.681 153.895 207.546 156.74 177.603C158.291 161.286 149.284 126.969 147.267 119.205C147.013 118.244 146.948 117.249 147.084 116.27C148.606 104.73 145.285 92.0775 141.265 76.8419C139.389 69.7492 134.828 59.0744 138.65 50.2378C146.421 32.2787 138.6 26.4715 130.3 27.3766C123.527 28.1098 117.942 27.261 107.437 32.8551C99.2778 37.1985 76.8465 50.8336 67.3356 52.4104C56.4516 54.2154 46.2573 75.7545 44.2195 85.4194C41.7421 97.1756 44.6469 120.524 73.7864 125.302C73.7864 125.302 70.9511 128.269 70.2892 129.222C59.9764 154.847 54.6311 177.027 60.294 200.991C63.5329 214.7 76.4028 221.434 76.4028 221.434C76.4028 221.434 77.6887 244.33 76.7983 250.15C75.908 255.969 73.4197 256.877 71.2469 257.801C69.49 258.559 66.6063 260.929 66.9705 264.147C67.4432 268.329 71.8744 268.278 72.5231 268.268C73.1717 268.258 76.7127 267.567 78.6712 269.15C80.6297 270.732 85.1359 269.065 86.4226 268.725C87.7093 268.385 88.3692 269.669 91.6016 269.627C94.8339 269.585 96.4395 269.244 98.0454 268.575C99.6513 267.906 102.048 266.105 102.048 266.105L102.066 266.109Z" fill="#B7CC8F"/>
<path d="M72.4971 125.012C72.4971 125.012 46.7803 165.368 60.1373 201.172C73.485 236.975 113.314 225.952 113.314 225.952C159.42 217.743 135.701 131.038 131.358 120.441C131.358 120.441 134.407 124.088 72.4971 125.012Z" fill="#F9F7ED"/>
<path d="M73.7958 125.309C73.7958 125.309 78.9957 127.179 100.295 125.279" stroke="#543816" stroke-width="4.42" stroke-linecap="round" stroke-linejoin="round"/>
<path d="M51.2184 112.188C51.2184 112.188 58.599 110.483 56.0248 97.7605C54.981 92.6093 49.7848 88.9275 44.6009 89.5191C44.6009 89.5191 42.6884 103.256 51.2107 112.177L51.2184 112.188Z" fill="#FF955A"/>
<path d="M63.3915 73.176C65.9526 73.6509 65.9505 77.9507 65.7888 83.1478C65.5584 90.2514 62.6773 92.2265 61.3906 92.5665C58.7671 93.2568 56.8278 89.7205 57.0583 82.6169C57.2616 76.1545 60.1489 72.5703 63.3915 73.176Z" fill="#543816" stroke="#543816" stroke-width="3.74" stroke-miterlimit="10"/>
<path d="M109.64 76.4341C108.556 79.5389 108.477 85.522 109.168 89.3473C109.519 91.2803 113.445 95.1025 116.951 91.185C120.448 87.2658 119.337 76.6356 116.719 74.0874C114.645 72.0697 110.89 72.877 109.638 76.4435L109.64 76.4341Z" fill="#543816" stroke="#543816" stroke-width="3.74" stroke-miterlimit="10"/>
<path d="M124.825 88.3379C131.077 87.6083 138.431 93.9783 137.603 101.072C136.959 106.54 131.695 110.511 126.43 110.906C122.752 111.177 118.127 109.766 116.028 106.201C112.395 100.03 117.382 89.2025 124.825 88.3379Z" fill="#FF955A"/>
<path d="M45.6555 99.2228C45.6555 99.2228 50.3143 106.251 61.5556 104.5C68.3293 103.439 72.8043 100.157 84.7671 100.646C98.6859 101.212 98.7194 104.66 109.376 104.512C120.041 104.375 128.333 96.5163 128.333 96.5163" stroke="#543816" stroke-width="4.42" stroke-linecap="round" stroke-linejoin="round"/>
<path d="M76.4121 221.435C76.4121 221.435 93.3461 230.888 119.756 224.739" stroke="#543816" stroke-width="4.42" stroke-linecap="round" stroke-linejoin="round"/>
<path d="M107.564 226.742C107.564 226.742 108.095 243.999 107.884 249.747C107.779 252.399 107.276 256.532 104.408 259.792C101.549 263.054 102.076 266.117 102.076 266.117" stroke="#543816" stroke-width="4.42" stroke-linecap="round" stroke-linejoin="round"/>
<path d="M147.091 116.288C146.975 117.27 147.03 118.263 147.274 119.223C149.301 126.988 158.308 161.305 156.747 177.621C153.893 207.562 144.828 215.697 144.904 220.859C144.971 226.02 148.05 261.799 147.432 263.424C146.947 264.688 145.262 268.351 135.897 270.359C131.069 271.39 128.046 269.116 127.156 269.18C125.199 269.324 123.627 270.403 121.515 270.385C116.176 270.331 116.848 268.667 113.896 268.711C110.663 268.753 110.675 269.719 107.6 269.201C104.113 268.61 102.603 267.329 102.074 266.126C102.074 266.126 99.676 267.936 98.0718 268.596C96.4659 269.265 94.851 269.604 91.628 269.648C88.3956 269.69 87.7357 268.406 86.449 268.746C85.1623 269.086 80.6638 270.764 78.6976 269.17C76.739 267.588 73.1888 268.277 72.5494 268.289C71.9101 268.3 67.479 268.351 66.9969 264.167C66.6327 260.95 69.5087 258.569 71.2733 257.822C73.4477 256.888 75.9344 255.99 76.8247 250.171C77.7151 244.351 76.4292 221.454 76.4292 221.454C76.4292 221.454 65.6977 216.431 60.6713 203.273C55.6466 190.105 56.1745 158.477 70.3139 129.252C70.9758 128.299 73.8111 125.333 73.8111 125.333C44.6623 120.553 41.2717 97.7636 44.2497 84.496C45.8038 77.5507 48.5433 67.7405 58.7385 59.0059C74.063 45.8615 88.3379 44.1004 95.0276 40.3634C112.672 30.5145 120.811 27.3149 130.315 27.405C149.536 27.5843 137.729 48.3641 137.662 55.9596C137.595 63.5551 142.223 76.8933 144.056 84.4989C144.056 84.4989 148.634 103.488 147.098 116.308L147.091 116.288Z" stroke="#543816" stroke-width="4.42" stroke-linecap="round" stroke-linejoin="round"/>
<path d="M147.091 116.283C147.091 116.283 147.443 146.601 147.301 159.833C147.158 173.065 143.904 195.049 135.932 202.578C127.959 210.107 127.222 203.343 125.925 203.035C124.628 202.727 120.163 206.985 117.876 205.074C115.588 203.173 117.196 202.822 114.292 202.537C111.379 202.25 106.54 202.961 109.662 194.53C112.774 186.098 122.263 147.898 123.397 136.259" stroke="#543816" stroke-width="4.42" stroke-linecap="round" stroke-linejoin="round"/>
<path d="M153.65 158.124C153.31 156.617 152.99 155.104 152.7 153.587C152.623 153.149 152.604 152.712 152.623 152.281L147.291 159.837L147.014 168.292L154.489 164.318C154.402 163.503 154.317 162.678 154.221 161.86C154.028 160.611 153.824 159.37 153.639 158.131L153.65 158.124Z" fill="#96AF66"/>
<path d="M154.582 181.48C154.707 180.239 154.803 178.993 154.844 177.728C150.886 179.897 144.885 182.204 144.885 182.204L141.973 192.225C143.223 191.926 149.49 191.383 152.87 190.837C153.444 187.718 154.149 184.623 154.584 181.471L154.582 181.48Z" fill="#96AF66"/>
<path d="M147.577 208.277C148.513 205.888 149.476 203.514 150.276 201.082C146.686 202.969 139.969 206.48 137.231 207.815C137.231 207.815 143.208 208.464 147.577 208.277Z" fill="#96AF66"/>
<path d="M161.838 230.797C159.086 228.138 157.458 224.59 156.08 221.047C155.866 224.528 154.888 239.742 154.011 243.096C153.135 246.45 160.863 233.834 162.408 231.284C162.211 231.143 162.017 230.983 161.827 230.805L161.838 230.797Z" fill="#96AF66" stroke="#96AF66" stroke-linecap="round" stroke-linejoin="round"/>
<path d="M173.12 237.503C173.237 237.552 173.363 237.604 173.478 237.663C172.266 237.148 170.978 236.736 169.882 236.001C169.459 235.723 169.071 235.404 168.716 235.07C168.34 237.723 167.143 245.917 166.317 249.858C166.317 249.858 171.822 242.305 174.51 237.885C174.039 237.82 173.579 237.69 173.12 237.503Z" fill="#96AF66" stroke="#96AF66" stroke-linecap="round" stroke-linejoin="round"/>
<path d="M189.606 240.301C187.643 240.539 185.597 240.368 183.719 239.909C184.27 244.895 183.402 252.869 183.402 252.869C185.612 250.707 188.414 243.531 189.606 240.301Z" fill="#96AF66" stroke="#96AF66" stroke-linecap="round" stroke-linejoin="round"/>
<path d="M201.717 235.557C201.253 235.889 200.773 236.199 200.251 236.473C199.635 236.787 199.011 237.091 198.411 237.428C197.886 237.72 197.334 237.892 196.789 237.968C197.461 239.457 199.178 243.86 198.322 248.403C198.322 248.403 199.702 245.911 201.727 235.559L201.717 235.557Z" fill="#96AF66" stroke="#96AF66" stroke-linecap="round" stroke-linejoin="round"/>
<path d="M207.133 229.489C206.861 229.932 206.597 230.387 206.334 230.832C207.195 231.91 209.793 235.487 209.758 238.884C209.758 238.884 210.651 233.865 209.905 224.814C209.237 226.508 208.267 228.052 207.133 229.489Z" fill="#96AF66" stroke="#96AF66" stroke-linecap="round" stroke-linejoin="round"/>
<path d="M126.701 142.814L135.653 134.88L133.258 120.445L123.937 121.284L115.181 121.221L116.469 123.205C116.469 123.205 125.982 128.185 123.313 137.545C121.892 142.547 122.865 144.079 124.079 144.421C124.04 144.693 124.003 144.957 123.964 145.229L124.778 144.506C125.621 144.492 126.383 144.117 126.383 144.117L126.692 142.812L126.701 142.814Z" fill="#B7CC8F"/>
<path d="M147.091 116.283C147.091 116.283 147.443 146.601 147.301 159.833C147.158 173.065 143.904 195.049 135.932 202.578C127.959 210.107 127.222 203.343 125.925 203.035C124.628 202.727 120.163 206.985 117.876 205.074C115.588 203.173 117.196 202.822 114.292 202.537C111.379 202.25 106.54 202.961 109.662 194.53C112.774 186.098 122.263 147.898 123.397 136.259" fill="#B7CC8F"/>
<path d="M147.091 116.283C147.091 116.283 147.443 146.601 147.301 159.833C147.158 173.065 143.904 195.049 135.932 202.578C127.959 210.107 127.222 203.343 125.925 203.035C124.628 202.727 120.163 206.985 117.876 205.074C115.588 203.173 117.196 202.822 114.292 202.537C111.379 202.25 106.54 202.961 109.662 194.53C112.774 186.098 122.263 147.898 123.397 136.259" stroke="#543816" stroke-width="4.42" stroke-linecap="round" stroke-linejoin="round"/>
</g>
<defs>
<clipPath id="clip0_563_4928">
<rect width="225" height="271" fill="white" transform="translate(47.4688 0.390625) rotate(10.0862)"/>
</clipPath>
</defs>
</svg>
