<svg width="37" height="37" viewBox="0 0 37 37" fill="none" xmlns="http://www.w3.org/2000/svg">
<path d="M19.8468 33.6223C17.402 33.6223 14.889 31.9313 13.8565 29.5976C13.5935 28.9944 13.3305 28.3615 13.0772 27.7188C13.0091 27.5408 12.9312 27.3628 12.863 27.1848C12.7656 27.1848 12.6682 27.1947 12.5708 27.2046C12.337 27.2145 12.1032 27.2243 11.8694 27.2243C10.311 27.2243 8.75253 26.987 6.81419 26.4629C4.75898 25.8993 3.22003 24.3269 2.71354 22.2404C2.23626 20.2924 2.79142 18.2949 4.13559 17.0291C5.25573 15.9809 6.47328 15.0415 7.78823 14.2108C7.27199 12.4606 6.8337 10.7399 6.4733 9.04896C6.11291 7.37778 6.45381 5.76592 7.43759 4.52983C8.41163 3.30364 9.89217 2.60156 11.5188 2.60156C13.0286 2.60156 14.5383 3.22455 15.7656 4.36174C16.5546 5.09351 17.3533 5.81536 18.152 6.53723C19.428 5.56814 20.7234 4.61885 22.0286 3.70909C22.9345 3.07621 24.0449 2.73999 25.2333 2.73999C28.1846 2.73999 31.3697 4.92539 31.3794 8.46553C31.3794 9.33574 31.321 13.0835 30.0742 16.4655L31.1944 17.1478C33.347 18.4729 34.4671 21.1922 33.8535 23.6051C33.3275 25.6916 31.5937 27.0958 29.4411 27.1848C28.3697 27.2243 27.1521 27.2738 25.8956 27.2936C25.3988 28.6186 24.7852 29.9042 24.0839 31.1501C23.1878 32.7224 21.6391 33.6322 19.8274 33.6322L19.8468 33.6223Z" fill="#A9DBD5"/>
<path d="M11.5289 5.21132C12.3373 5.21132 13.2334 5.53764 14.0516 6.28918C15.3763 7.50548 16.7108 8.71189 18.0647 9.89853C19.8277 8.49434 21.6393 7.14949 23.4998 5.85407C23.9965 5.50797 24.6199 5.33987 25.253 5.33987C26.9673 5.33987 28.8278 6.52652 28.8278 8.4647C28.8278 10.7885 28.3991 14.8725 26.7725 17.4634C27.805 18.1061 28.8472 18.739 29.8797 19.3818C32.12 20.7563 32.0421 24.4744 29.3635 24.5832C27.8829 24.6425 26.344 24.7019 24.7952 24.7019C24.5615 24.7019 24.3277 24.7019 24.0939 24.7019C23.5582 26.5115 22.818 28.2222 21.8926 29.8638C21.4251 30.6845 20.6751 31.0306 19.8666 31.0306C18.4543 31.0306 16.8569 29.9824 16.2237 28.5486C15.6393 27.2235 15.1231 25.7501 14.4705 24.3558C13.8081 24.5041 13.175 24.5832 12.4737 24.6129C12.2788 24.6129 12.0841 24.6228 11.8893 24.6228C10.4185 24.6228 9.0061 24.3558 7.50609 23.9503C5.04177 23.2779 4.49631 20.2816 5.9184 18.9566C7.39894 17.5623 9.06453 16.3954 10.8957 15.456C10.1554 13.1519 9.52233 10.838 9.01583 8.50423C8.597 6.57594 9.90224 5.22121 11.5484 5.22121M11.5484 0C9.15223 0 6.93138 1.05806 5.47032 2.90724C4.00927 4.75642 3.47359 7.19894 3.98983 9.63155C4.24308 10.7786 4.52554 11.9455 4.83723 13.1222C3.98982 13.7452 3.18133 14.4177 2.42158 15.1296C0.376105 17.048 -0.451817 20.0146 0.23975 22.8824C0.960537 25.8588 3.23006 28.2025 6.16191 29.0034C8.01258 29.5078 9.61975 29.7748 11.1587 29.844C11.2756 30.1308 11.3925 30.4175 11.5191 30.6944C12.9704 33.9675 16.399 36.2617 19.8569 36.2617C22.5744 36.2617 24.9998 34.8477 26.344 32.4744C26.8213 31.6338 27.2596 30.7636 27.6492 29.8835C28.3212 29.8637 28.9641 29.8341 29.568 29.8143C32.8798 29.6759 35.5486 27.5004 36.3668 24.2767C37.2142 20.9442 35.8895 17.3645 33.1427 15.3274C33.9025 12.3411 33.9804 9.54255 33.9707 8.4548C33.9512 3.86646 30.0453 0.128527 25.253 0.128527C23.5387 0.128527 21.9316 0.622963 20.5971 1.5525C19.8374 2.0766 19.0776 2.62049 18.3276 3.17425C18.0549 2.92704 17.7822 2.67982 17.5095 2.4326C15.8049 0.860305 13.6815 0 11.5289 0H11.5484Z" fill="white"/>
</svg>
