<svg width="40" height="40" viewBox="0 0 40 40" fill="none" xmlns="http://www.w3.org/2000/svg">
<path d="M16.5499 37.5021C15.9168 37.5021 15.2933 37.4132 14.6797 37.2352C14.3875 37.1462 14.105 37.0473 13.8225 36.9187C10.7543 35.5442 9.14719 32.0337 10.0725 28.7606C10.6959 26.5851 10.4232 25.5863 10.1992 25.1809C9.94591 24.7161 9.33224 24.2513 8.46534 23.8657C8.07573 23.6877 7.62769 23.5295 7.15042 23.391C6.84846 23.302 6.56599 23.1933 6.29326 23.0746C3.22504 21.7001 1.6179 18.1896 2.54324 14.9164C3.37117 12.0092 6.03026 9.97211 9.02055 9.97211C9.65367 9.97211 10.2771 10.0611 10.8907 10.2391C11.7674 10.4962 12.5271 10.6247 13.17 10.6247C13.6959 10.6247 14.1148 10.5357 14.4168 10.3676C14.8161 10.1501 15.5661 9.44796 16.1895 7.27246C16.6862 5.52216 17.8356 4.06858 19.4038 3.1786C20.3973 2.62483 21.5272 2.32812 22.6571 2.32812C23.2902 2.32812 23.9233 2.41714 24.537 2.59514C24.8292 2.67425 25.1116 2.78303 25.3941 2.91158C28.4623 4.28611 30.0695 7.79658 29.1442 11.0697C28.5208 13.2452 28.7935 14.244 29.0176 14.6494C29.2708 15.1142 29.8844 15.579 30.7416 15.9646C31.1312 16.1426 31.5793 16.3008 32.0663 16.4492C32.3488 16.5283 32.6507 16.6371 32.9332 16.7656C35.9916 18.1401 37.5988 21.6407 36.6735 24.9139C35.8456 27.8211 33.1864 29.8582 30.1961 29.8582C29.563 29.8582 28.9396 29.7692 28.326 29.5912C27.4591 29.3341 26.6896 29.2056 26.0468 29.2056C25.5208 29.2056 25.1019 29.2945 24.8 29.4626C24.4006 29.6802 23.6506 30.3823 23.0272 32.5578C22.1993 35.4651 19.5402 37.5021 16.5499 37.5021Z" fill="#F2C32A"/>
<path d="M22.657 4.66748C23.0758 4.66748 23.4849 4.72681 23.894 4.84547C24.0888 4.9048 24.2739 4.97398 24.459 5.05309C26.485 5.96285 27.5466 8.2768 26.933 10.4325C26.2901 12.7069 26.3096 14.5067 27.0012 15.7823C27.5077 16.7119 28.4525 17.493 29.8064 18.1061C30.2934 18.3237 30.8389 18.5215 31.4233 18.6896C31.6181 18.7489 31.8032 18.8181 31.9883 18.8972C34.0143 19.807 35.0759 22.1209 34.4623 24.2767C33.8973 26.2544 32.1149 27.54 30.1863 27.54C29.7772 27.54 29.3681 27.4806 28.959 27.3619C27.8778 27.0455 26.9038 26.8873 26.0467 26.8873C25.1311 26.8873 24.3421 27.0653 23.6992 27.4311C22.4427 28.1332 21.4784 29.6462 20.8355 31.9206C20.2706 33.8984 18.4881 35.1839 16.5595 35.1839C16.1504 35.1839 15.7413 35.1246 15.3322 35.0059C15.1374 34.9466 14.9523 34.8773 14.7673 34.7982C12.7413 33.8885 11.6795 31.5745 12.2932 29.4188C12.9361 27.1444 12.9166 25.3447 12.2251 24.069C11.7186 23.1395 10.7737 22.3583 9.41983 21.7452C8.93281 21.5276 8.38732 21.3299 7.80289 21.1618C7.60809 21.1024 7.42306 21.0332 7.23799 20.9541C5.212 20.0443 4.15026 17.7304 4.7639 15.5746C5.32884 13.5969 7.11135 12.3114 9.03994 12.3114C9.44904 12.3114 9.85814 12.3707 10.2672 12.4894C11.3484 12.8058 12.3224 12.964 13.1796 12.964C14.0952 12.964 14.8841 12.786 15.527 12.4202C16.7835 11.7181 17.7478 10.2051 18.3907 7.93073C18.7218 6.77376 19.4718 5.81457 20.5141 5.23114C21.1764 4.85537 21.9167 4.66748 22.657 4.66748ZM22.657 0.00989832C21.1375 0.00989832 19.6375 0.405418 18.303 1.15696C16.1894 2.3436 14.6602 4.29171 13.9881 6.64521C13.7056 7.63408 13.4328 8.11862 13.2965 8.3065C13.2673 8.3065 13.2283 8.3065 13.1796 8.3065C12.8874 8.3065 12.3614 8.25707 11.5335 8.00986C10.7153 7.77253 9.8776 7.65382 9.03019 7.65382C5.0269 7.65382 1.46195 10.3732 0.351545 14.2792C-0.895223 18.6599 1.2671 23.357 5.3678 25.2062C5.73793 25.3743 6.12754 25.5127 6.51716 25.6314C6.90677 25.7402 7.24768 25.8687 7.54963 26.0072C7.86133 26.1456 8.05614 26.2643 8.16328 26.3434C8.17302 26.5906 8.1633 27.1444 7.88083 28.1234C6.63407 32.504 8.79645 37.2011 12.8971 39.0503C13.2673 39.2184 13.6569 39.3569 14.0465 39.4755C14.8647 39.7129 15.7024 39.8316 16.5498 39.8316C20.5531 39.8316 24.118 37.1122 25.2284 33.2062C25.5109 32.2173 25.7837 31.7327 25.92 31.535C25.9492 31.535 25.9882 31.535 26.0369 31.535C26.3291 31.535 26.8551 31.5844 27.683 31.8316C28.5012 32.0689 29.3389 32.1876 30.1863 32.1876C34.1896 32.1876 37.7546 29.4683 38.865 25.5622C40.1117 21.1816 37.9493 16.4844 33.8486 14.6352C33.4785 14.4671 33.0889 14.3287 32.6993 14.21C32.3097 14.1012 31.9688 13.9727 31.6668 13.8342C31.3551 13.6958 31.1603 13.5772 31.0532 13.4981C31.0434 13.2508 31.0532 12.6971 31.3357 11.7181C32.5824 7.33743 30.4298 2.64026 26.3194 0.791081C25.9492 0.622974 25.5596 0.48454 25.17 0.365876C24.3518 0.128548 23.5044 0 22.657 0V0.00989832Z" fill="white"/>
</svg>
