<svg width="57" height="44" viewBox="0 0 57 44" fill="none" xmlns="http://www.w3.org/2000/svg">
<path d="M18.0476 40.7094C14.2196 40.7094 10.1578 39.8788 6.28118 38.3065C3.67076 37.2484 2.22921 34.4993 2.77467 31.6316C3.27143 29.0309 5.28767 27.2114 7.69354 27.2114C8.36563 27.2114 9.04744 27.3498 9.71953 27.6267C11.804 28.4672 14.9696 29.4759 18.2424 29.4759C20.1612 29.4759 21.8463 29.1298 23.2879 28.4277C18.8463 25.1348 16.0021 19.3697 16.2943 13.4859C16.5962 7.46372 20.9989 3.26104 26.999 3.26104C30.7782 3.26104 34.3919 5.07066 36.6614 8.11637C38.064 10.0051 39.0283 12.2696 39.5153 14.7714C41.181 12.5959 42.3498 9.93589 42.8855 7.02862C43.3628 4.4279 45.4083 2.6875 47.97 2.6875C49.7135 2.6875 51.4278 3.49837 52.5285 4.85312C53.5902 6.15842 54.009 7.80983 53.6876 9.52057C51.944 19.0038 45.1063 27.3498 36.8562 30.2373C35.8335 32.0865 34.6062 33.6885 33.1938 35.0036C29.2198 38.7317 23.9794 40.7094 18.0476 40.7094ZM27.3594 14.4155C27.447 15.1077 27.8074 16.3141 28.4795 17.5996C28.5379 17.7084 28.5964 17.8172 28.6548 17.9259C28.5379 16.2844 27.9535 14.722 27.3496 14.4155H27.3594Z" fill="#F2C32A"/>
<path d="M47.9703 5.36954C49.6651 5.36954 51.506 6.80341 51.0969 9.02836C49.558 17.3942 43.3339 25.6314 35.0351 28.0047C34.0805 29.9429 32.8532 31.6833 31.4019 33.038C27.6324 36.5782 22.8888 38.0318 18.0479 38.0318C14.3855 38.0318 10.6646 37.2012 7.25552 35.8167C4.19704 34.5807 5.01524 29.8934 7.69384 29.8934C8.01528 29.8934 8.36592 29.9627 8.74579 30.111C11.6582 31.2877 14.9991 32.148 18.2427 32.148C21.944 32.148 25.509 31.0306 28.1389 27.9849C22.5576 26.1259 18.6128 19.8762 18.9245 13.6167C19.1777 8.54381 22.9667 5.94308 26.9895 5.94308C29.7655 5.94308 32.6487 7.18906 34.5481 9.73044C36.7786 12.7168 37.5189 16.6525 37.139 20.5684C41.5903 17.6809 44.5125 12.7762 45.4767 7.51539C45.7495 6.01232 46.8209 5.35966 47.9605 5.35966M30.8272 22.556C31.1681 21.1716 31.3337 19.7477 31.3142 18.3632C31.2753 15.8416 30.2623 11.6587 27.1356 11.6686C26.9895 11.6686 26.8239 11.6686 26.6681 11.6983C23.2103 12.1334 25.1389 16.9591 26.1421 18.8577C27.3499 21.142 28.9279 22.3385 30.8272 22.556ZM47.9605 0C44.0839 0 40.9962 2.6205 40.2754 6.53641C40.1683 7.10995 40.0416 7.66372 39.876 8.2076C39.5351 7.61428 39.1552 7.04072 38.7462 6.49685C35.9799 2.7886 31.587 0.583428 26.9798 0.583428C19.6258 0.583428 14.0154 5.95298 13.6452 13.3497C13.4017 18.2248 15.0381 23.0406 17.9018 26.7884C15.7199 26.739 13.2458 26.1654 10.6939 25.137C9.71009 24.7414 8.69709 24.5338 7.68409 24.5338C3.99249 24.5338 0.904795 27.2433 0.164527 31.1295C-0.624443 35.2828 1.47949 39.258 5.28797 40.8006C9.47633 42.5015 13.879 43.3915 18.0381 43.3915C24.6421 43.3915 30.5058 41.1764 34.9766 36.9737C36.3598 35.6783 37.587 34.1554 38.639 32.4249C47.4443 28.9441 54.3989 20.2223 56.2788 10.0172C56.7366 7.54506 56.1035 5.04321 54.5548 3.14459C52.9476 1.18663 50.4833 0.00988323 47.9605 0.00988323V0Z" fill="white"/>
</svg>
