<svg width="57" height="57" viewBox="0 0 57 57" fill="none" xmlns="http://www.w3.org/2000/svg">
<path d="M36.5834 44.1711C35.7283 44.8947 34.7198 45.3465 33.6301 45.4912C28.8457 47.4671 22.6753 44.0351 18.3853 41.2271C12.0664 37.0919 8.76007 32.5059 8.54098 27.5875C8.40138 24.3765 9.67185 21.3843 12.0289 19.3899C14.1184 17.6219 16.7915 16.8755 19.5584 17.2804C20.3709 17.3961 21.1844 17.5886 21.9789 17.849C22.8785 15.9867 24.0856 14.3824 25.5058 13.1806C29.3575 9.9215 34.1336 10.0771 38.2851 13.6112C43.1815 17.7843 43.1849 24.7247 42.7543 29.584C42.2628 35.1555 40.3596 39.9784 37.2302 43.5331C37.0316 43.7659 36.8064 43.9824 36.5759 44.1774L36.5834 44.1711Z" fill="#E07D77"/>
<path d="M13.8452 21.533C15.2431 20.3502 17.12 19.7335 19.1989 20.0341C20.7685 20.2604 22.2236 20.8038 23.5587 21.5524C24.262 19.0661 25.5896 16.7898 27.3295 15.3175C29.7907 13.235 33.0607 12.7868 36.5066 15.7131C40.3377 18.9741 40.3908 24.7066 39.9886 29.2828C39.5969 33.8112 38.142 38.229 35.1336 41.6554C35.019 41.7913 34.8915 41.9121 34.7651 42.019C34.1851 42.5098 33.5283 42.7288 32.8723 42.7527C29.1075 44.6819 22.9824 40.9266 19.8862 38.8961C16.0144 36.3561 11.5489 32.466 11.3255 27.5124C11.2155 25.1054 12.2083 22.9311 13.8441 21.5469M10.2096 17.2516C7.19819 19.7998 5.56712 23.6023 5.75233 27.6814C6.00969 33.5649 9.75272 38.9083 16.8803 43.577C19.9233 45.5748 27.7542 50.6976 34.3997 48.2221C35.8741 47.959 37.2312 47.316 38.3911 46.3345C38.7257 46.0513 39.0412 45.7455 39.3311 45.4096C42.8491 41.4094 44.9888 36.0366 45.5318 29.8775C45.8384 26.3796 46.6522 17.1026 40.0691 11.494C34.8651 7.06293 28.5866 6.89611 23.6865 11.0424C22.5117 12.0365 21.4594 13.2508 20.5752 14.6336C20.3625 14.5934 20.1424 14.5594 19.9223 14.5255C16.3568 14.0061 12.9077 14.9815 10.216 17.2592L10.2096 17.2516Z" fill="white"/>
</svg>
