<svg width="63" height="65" viewBox="0 0 63 65" fill="none" xmlns="http://www.w3.org/2000/svg">
<path d="M52.6792 17.8501C53.1863 18.104 53.6767 18.3706 54.1712 18.6498C57.0548 20.2834 57.4661 23.7404 56.1952 26.1336C54.9074 28.5606 52.2325 29.4593 49.8548 28.269C49.7717 28.2274 49.6802 28.1816 49.5971 28.14C49.1941 27.9066 48.7743 27.6858 48.3419 27.4694C45.5402 26.0669 40.7558 24.284 36.6051 25.7422C40.435 29.3695 42.4155 35.2165 41.3495 40.7312C40.7194 44.0046 38.8593 46.5779 36.0936 47.9695C33.127 49.4716 29.4782 49.4289 26.3356 47.8557C24.2904 46.8318 22.6242 45.2378 21.5237 43.2407C20.4149 41.2395 19.8003 38.9157 19.7038 36.4291C17.7523 38.3127 16.2143 40.7411 15.2955 43.5111C14.8191 44.9404 13.8487 46.0274 12.5648 46.5775C11.2308 47.1447 9.65478 47.0735 8.26638 46.3784C5.81382 45.1507 4.70512 42.4845 5.5686 39.8873C8.47364 31.1766 16.0469 24.1695 24.2276 22.491C25.4476 20.8639 26.8244 19.5053 28.3285 18.4322C35.0238 13.6772 43.8997 13.4762 52.6873 17.8753L52.6792 17.8501ZM31.1665 38.6418C31.2165 38.0019 31.0497 36.715 30.5251 35.2913C30.4391 35.0477 30.3364 34.8168 30.2335 34.607C30.0125 36.523 30.4888 38.3131 31.0541 38.5961C31.0874 38.6128 31.1206 38.6294 31.1624 38.6292L31.1665 38.6418Z" fill="#91AF74"/>
<path d="M9.36806 44.1599C8.18751 43.5689 7.32451 42.2396 7.86469 40.6206C10.4337 32.9133 17.4188 25.9179 25.6049 24.7065C26.7629 22.9956 28.1613 21.5106 29.7115 20.4078C36.3565 15.691 44.733 16.6121 51.5836 20.0416C52.0491 20.2746 52.5188 20.5203 52.9717 20.7787C55.9841 22.4873 53.9826 27.5654 50.9564 26.0504C50.9065 26.0254 50.8567 26.0005 50.8068 25.9755C50.3622 25.7213 49.9092 25.4839 49.4353 25.2467C44.0314 22.5414 37.1465 21.1743 32.1302 25.5664C32.1717 25.5872 32.205 25.6038 32.2465 25.6247C37.2182 28.1135 40.0754 34.4522 38.9616 40.2702C37.8092 46.2483 31.8767 47.8596 27.4372 45.6371C25.9075 44.8713 24.56 43.6584 23.6407 42.0054C21.926 38.9092 21.7422 35.1017 22.6209 31.4565C18.0193 33.6285 14.5926 37.8981 12.9805 42.7383C12.3766 44.5471 10.6733 44.8133 9.35974 44.1557M29.8696 30.7259C29.5537 30.5677 29.2125 30.4392 28.8586 30.357C28.3499 31.6223 27.9993 32.9457 27.8449 34.2512C27.581 36.3568 27.8633 39.7598 29.9584 40.8086C30.3574 41.0084 30.8196 41.1237 31.3575 41.1291C34.6979 41.1441 33.5071 36.3574 32.8065 34.4339C32.1304 32.586 31.1457 31.3753 29.8654 30.7343M7.15835 48.5531C9.1786 49.5645 11.4801 49.6611 13.4749 48.8124C15.4153 47.9894 16.8813 46.3694 17.5873 44.2528C17.817 43.5656 18.084 42.9076 18.4009 42.2746C18.6796 43.0263 19.0127 43.7525 19.3961 44.4405C20.7399 46.8655 22.7541 48.8027 25.2316 50.0429C29.0476 51.9533 33.5097 51.9915 37.1541 50.1531C40.6186 48.4041 42.9539 45.2138 43.7268 41.1568C44.6333 36.4383 43.6721 31.6083 41.3327 27.7244C43.5621 28.0065 45.7249 28.8993 47.2297 29.6526C47.6121 29.844 47.9986 30.0481 48.3767 30.269C48.5014 30.3314 48.6219 30.4023 48.7466 30.4647C52.2966 32.2419 56.4133 30.8722 58.3301 27.2717C60.4158 23.3547 59.1203 18.6318 55.3808 16.5064C54.8531 16.2105 54.3211 15.9231 53.7807 15.6526C44.3196 10.9163 34.2879 11.2038 26.9391 16.4127C25.456 17.4647 24.0879 18.7643 22.8562 20.2693C14.1927 22.4345 6.31623 29.9021 3.25785 39.1061C2.02008 42.8247 3.65826 46.801 7.15835 48.5531Z" fill="white"/>
</svg>
