<svg width="228" height="263" viewBox="0 0 228 263" fill="none" xmlns="http://www.w3.org/2000/svg">
<path d="M214.44 236.359C213.309 234.202 204.238 234.302 190.664 228.851C177.101 223.39 168.206 204.422 154.702 181.241C143.183 161.464 132.372 158.688 129.443 158.299C129.934 156.332 130.406 154.266 130.858 152.069C134.357 135.197 129.099 98.2889 127.919 89.9329C127.772 88.9046 127.821 87.8564 128.067 86.848C135.92 54.7915 120.813 17.0945 101.923 17.0246C94.8758 16.9946 89.5586 19.8698 78.5605 19.1011C69.017 18.4322 65.6065 12.5121 55.6502 13.0412C44.259 13.6502 29.821 34.1759 26.607 44.0395C22.8919 55.4205 22.3906 76.8946 47.4631 86.249C41.7036 91.69 33.5263 101.863 23.2752 120.931C12.2869 141.367 11.8741 158.389 14.0364 161.463C16.1986 164.538 18.0071 164.009 21.5945 163.3C25.1819 162.592 24.7003 163.969 26.0566 164.468C26.5972 164.668 27.5506 164.568 28.5039 164.369C28.6808 165.507 28.8872 166.585 29.1329 167.553C32.7695 181.899 43.2074 188.409 43.2074 188.409C43.2074 188.409 41.8609 212.478 40.2686 218.458C38.6764 224.438 36.0227 225.087 33.6737 225.806C31.7768 226.385 28.5432 228.532 28.5432 231.936C28.5432 236.359 33.1037 236.828 33.7622 236.898C34.4207 236.968 38.1457 236.658 39.9836 238.545C41.8117 240.432 46.6277 239.214 47.9938 239.014C49.36 238.814 49.8907 240.232 53.2128 240.562C56.5348 240.901 58.2352 240.731 59.965 240.222C61.6948 239.713 64.3681 238.106 64.3681 238.106C64.7809 239.423 66.1766 240.941 69.6952 241.969C72.801 242.878 72.8993 241.859 76.2213 242.199C79.2583 242.508 78.3737 244.156 83.8482 244.844C86.0105 245.114 87.76 244.175 89.7846 244.245C90.7085 244.275 93.5391 247.011 98.6303 246.502C108.488 245.513 110.641 241.879 111.289 240.621C111.633 239.953 111.997 233.234 112.351 225.157C132.283 255.447 181.642 251.064 197.554 247.62C213.673 244.126 215.56 238.525 214.43 236.368L214.44 236.359Z" stroke="white" stroke-width="24.52" stroke-linecap="round" stroke-linejoin="round"/>
<path d="M128.656 158.221C128.656 158.221 141.188 158.041 154.702 181.233C168.216 204.414 177.101 223.392 190.664 228.843C204.228 234.304 213.309 234.194 214.44 236.351C215.57 238.507 213.683 244.118 197.564 247.602C181.445 251.096 130.986 255.549 111.584 223.931L111.358 191.855L128.656 158.211V158.221Z" fill="url(#paint0_linear_573_3125)" stroke="#543816" stroke-width="4.42" stroke-linecap="round" stroke-linejoin="round"/>
<path d="M57.1928 80.0234C57.1928 80.0234 44.7892 80.9219 23.2844 120.925C12.2962 141.361 11.8834 158.383 14.0456 161.458C16.2079 164.532 18.0164 164.003 21.6038 163.294C25.1912 162.586 24.7096 163.963 26.0659 164.462C27.4222 164.962 31.4323 163.574 31.4323 163.574C31.4323 163.574 42.509 107.857 57.1928 80.0234Z" fill="#F9CC3D" stroke="#543816" stroke-width="4.63" stroke-linecap="round" stroke-linejoin="round"/>
<path d="M64.3777 238.104C64.7905 239.422 66.1862 240.939 69.7048 241.968C72.8106 242.876 72.9089 241.858 76.2309 242.197C79.2679 242.507 78.3834 244.154 83.8578 244.843C86.0201 245.112 87.7696 244.174 89.7942 244.244C90.7181 244.274 93.5487 247.009 98.6399 246.5C108.498 245.512 110.65 241.878 111.299 240.62C112.125 239.003 113.137 201.246 113.658 195.845C114.189 190.444 124.45 183.006 130.858 152.058C134.357 135.186 129.098 98.2775 127.919 89.9215C127.772 88.8932 127.821 87.8449 128.066 86.8366C135.919 54.7801 120.813 17.083 101.923 17.0131C94.8756 16.9832 89.5584 19.8584 78.5603 19.0897C69.0168 18.4208 64.9969 13.6288 55.0407 14.1579C43.6494 14.7669 29.8207 34.1645 26.6068 44.0281C22.6951 56.018 22.3314 79.2293 51.7186 87.6453C51.7186 87.6453 48.4654 90.4106 47.6693 91.3291C34.0961 116.896 26.0171 139.439 29.0443 165.146C30.7741 179.851 43.217 188.397 43.217 188.397C43.217 188.397 41.8705 212.467 40.2783 218.447C38.686 224.427 36.0323 225.076 33.6833 225.795C31.7864 226.374 28.5528 228.52 28.5528 231.924C28.5528 236.347 33.1133 236.816 33.7718 236.886C34.4303 236.956 38.1553 236.647 39.9932 238.533C41.8213 240.42 46.6373 239.202 48.0034 239.003C49.3696 238.803 49.9003 240.221 53.2224 240.55C56.5444 240.889 58.2447 240.72 59.9746 240.211C61.7044 239.701 64.3777 238.094 64.3777 238.094V238.104Z" fill="#F9CC3D"/>
<path d="M24.8575 52.2287C24.8575 52.2287 35.8162 58.0889 41.2317 57.6097C46.6472 57.1305 56.918 48.2753 76.2016 57.0407C95.4851 65.8061 108.292 53.3868 113.835 59.267C119.378 65.1472 108.134 87.5398 111.358 99.1205C114.592 110.701 128.931 194.302 80.6146 197.446C80.6146 197.446 38.411 204.285 28.8577 165.3C19.3043 126.315 50.4214 87.1704 50.4214 87.1704C50.4214 87.1704 22.194 80.5714 24.8575 52.2188V52.2287Z" fill="#F9F7ED"/>
<path d="M51.7183 87.6562C51.7183 87.6562 56.8389 90.222 78.9432 90.7411" stroke="#543816" stroke-width="4.42" stroke-linecap="round" stroke-linejoin="round"/>
<path d="M31.8847 72.5139C31.8847 72.5139 39.6689 71.5954 38.5091 58.0081C38.0374 52.5073 33.1231 48.0447 27.7371 48.0547C27.7371 48.0547 24.1693 62.1911 31.8946 72.5139H31.8847Z" fill="#FC9470"/>
<path d="M47.0891 31.9401C49.6642 32.7388 49.1727 37.2313 48.3963 42.6422C47.3348 50.0399 44.1504 51.757 42.7842 51.9667C40.0028 52.386 38.4302 48.4625 39.4818 41.0649C40.445 34.3361 43.826 30.9318 47.0891 31.9401Z" fill="#543816" stroke="#543816" stroke-width="3.74" stroke-miterlimit="10"/>
<path d="M94.2365 40.7895C92.7622 43.9043 91.9858 50.1539 92.2511 54.2271C92.3887 56.2836 95.9762 60.7362 100.035 57.0623C104.085 53.3785 104.183 42.1373 101.785 39.1622C99.8879 36.8161 95.9368 37.2055 94.2365 40.7895Z" fill="#543816" stroke="#543816" stroke-width="3.74" stroke-miterlimit="10"/>
<path d="M128.076 86.8281C128.076 86.8281 124.912 118.545 123.221 132.362C121.54 146.169 115.633 168.761 106.562 175.69C97.49 182.618 97.5195 175.46 96.2221 174.991C94.9247 174.522 89.8434 178.435 87.7106 176.179C85.5778 173.923 87.2782 173.753 84.3198 173.104C81.3614 172.465 76.3096 172.635 80.4867 164.189C84.6736 155.743 98.866 116.938 101.382 104.918" fill="#F9CC3D"/>
<path d="M128.076 86.8281C128.076 86.8281 124.912 118.545 123.221 132.362C121.54 146.169 115.633 168.761 106.562 175.69C97.49 182.618 97.5195 175.46 96.2221 174.991C94.9247 174.522 89.8434 178.435 87.7106 176.179C85.5778 173.923 87.2782 173.753 84.3198 173.104C81.3614 172.465 76.3096 172.635 80.4867 164.189C84.6736 155.743 98.866 116.938 101.382 104.918" stroke="#543816" stroke-width="4.42" stroke-linecap="round" stroke-linejoin="round"/>
<path d="M113.382 77.4172C113.382 77.4172 106.66 96.8149 100.694 108.296L113.894 98.8615L114.513 75.3906L113.382 77.4172Z" fill="#F9CC3D"/>
<path d="M128.076 86.8281C128.076 86.8281 124.912 118.545 123.221 132.362C121.54 146.169 115.633 168.761 106.562 175.69C97.49 182.618 97.5195 175.46 96.2221 174.991C94.9247 174.522 89.8434 178.435 87.7106 176.179C85.5778 173.923 87.2782 173.753 84.3198 173.104C81.3614 172.465 76.3096 172.635 80.4867 164.189C84.6736 155.743 98.866 116.938 101.382 104.918" stroke="#543816" stroke-width="4.42" stroke-linecap="round" stroke-linejoin="round"/>
<path d="M108.458 55.0079C114.965 54.978 121.786 62.4954 120.105 69.8232C118.808 75.4638 112.93 78.9979 107.475 78.7782C103.662 78.6285 99.0721 76.6118 97.3324 72.6385C94.3151 65.7599 100.704 55.0379 108.458 55.0079Z" fill="#FC9470"/>
<path d="M25.8398 57.0781C25.8398 57.0781 29.8106 64.975 41.5654 64.4658C48.642 64.1563 53.625 61.2512 65.8615 63.168C80.0932 65.3943 79.7295 68.9982 90.6981 70.1064C101.667 71.2146 111.102 63.9766 111.102 63.9766" stroke="#543816" stroke-width="4.42" stroke-linecap="round" stroke-linejoin="round"/>
<path d="M45.354 199.805C45.354 199.805 61.6496 211.675 89.5036 208.35" stroke="#543816" stroke-width="4.42" stroke-linecap="round" stroke-linejoin="round"/>
<path d="M76.7367 209.008C76.7367 209.008 75.2821 227.098 74.3877 233.078C73.9749 235.843 72.9724 240.096 69.6504 243.171C66.3284 246.246 66.5151 249.5 66.5151 249.5" stroke="#543816" stroke-width="4.42" stroke-linecap="round" stroke-linejoin="round"/>
<g opacity="0.71">
<path d="M59.306 22.4273C58.9521 20.9198 57.1535 20.201 55.3058 19.8616C55.0797 19.6619 54.7848 19.5222 54.4114 19.4722C53.5858 19.3724 52.7897 19.4024 52.0034 19.5521C51.9149 19.5521 51.8363 19.5521 51.7577 19.5521C51.3056 19.5521 50.9222 19.6919 50.6372 19.9315C50.6077 19.9415 50.5783 19.9515 50.5488 19.9614C49.5364 20.251 48.7108 20.9298 48.5143 22.2276C48.072 25.1128 52.1803 25.3624 54.1165 25.4622C55.8856 25.5421 59.9645 25.2326 59.306 22.4373V22.4273Z" fill="#FFAD1D"/>
<path d="M72.928 24.5833C71.7585 23.9743 70.5692 23.3953 69.3603 22.8562C68.3283 22.397 67.2079 21.778 66.0481 21.8878C64.0136 22.0675 62.1757 24.0043 61.812 25.961C61.6253 26.9494 62.6179 27.8978 63.5615 27.8279C63.7286 27.9078 63.9055 27.9677 64.1217 27.9976C67.1391 28.4369 70.1171 28.8961 73.0263 27.7081C74.481 27.1091 74.1173 25.1923 72.928 24.5833Z" fill="#FFAD1D"/>
<path d="M81.0072 21.3372C80.0636 21.3372 79.1201 21.2973 78.1766 21.2075C77.4788 21.1575 76.7809 21.1076 76.0831 21.0378C76.0143 21.0378 75.9553 21.0178 75.8865 21.0078C75.8079 21.0777 75.7194 21.1575 75.6408 21.2374C75.1101 21.8065 75.3066 22.7449 75.6998 23.314C76.8202 24.9313 78.1668 25.5702 79.8376 25.3905C80.2897 25.4504 80.7615 25.3506 81.1153 25.1209C81.135 25.1209 81.1448 25.1209 81.1644 25.1109C82.7272 24.6118 85.1745 23.5436 85.371 21.5968C85.3809 21.487 85.3809 21.3872 85.3809 21.2973C83.9164 21.3672 82.4618 21.3872 81.0072 21.3472V21.3372Z" fill="#FFAD1D"/>
<path d="M58.9621 15.2266C58.6378 15.8655 58.7852 16.6143 59.4929 17.2033C60.8197 18.2915 62.4611 18.7707 64.1516 18.6009C64.9182 18.5211 65.4195 17.9021 65.5571 17.2133C63.4538 16.3148 61.1932 15.6658 58.9523 15.2366L58.9621 15.2266Z" fill="#FFAD1D"/>
<path d="M101.038 25.5993C100.881 24.1817 99.3277 23.2533 98.1975 22.7042C96.7822 22.0253 95.0622 22.6043 93.6174 22.9837C91.8777 23.433 90.1381 23.992 88.4967 24.7308C87.4058 25.22 86.2755 26.0286 86.5507 27.4263C86.8259 28.804 88.4279 29.3131 89.627 29.393C91.3863 29.5028 93.2341 29.2433 94.9934 29.1235C96.0941 29.0436 97.0967 28.8439 98.0402 28.3847C98.2859 28.3947 98.5513 28.3547 98.8265 28.225C100.026 27.6759 101.215 27.2666 101.038 25.6093V25.5993Z" fill="#FFAD1D"/>
<path d="M105.726 19.9474C105.569 19.8775 105.402 19.8077 105.244 19.7378C105.244 19.7078 105.244 19.6879 105.244 19.6579C103.23 19.2886 101.136 19.0589 99.1213 19.3285C99.0525 19.3285 98.9935 19.3385 98.9247 19.3385C98.7675 19.3884 98.5905 19.4183 98.4038 19.4183C98.4038 19.4183 98.394 19.4183 98.3842 19.4183C98.3842 19.8975 98.5611 20.3767 99.0034 20.7162C99.1704 20.9258 99.4063 21.0955 99.7208 21.2053C100.664 21.5348 101.598 21.8942 102.522 22.2736L104.517 23.1122C106.512 23.9508 107.682 20.816 105.716 19.9474H105.726Z" fill="#FFAD1D"/>
<path d="M116.518 28.4505C115.761 27.4722 114.935 26.5537 114.208 25.5554C114.159 25.4855 114.11 25.4056 114.07 25.3357C112.95 24.3174 111.741 23.3989 110.62 22.3906C109.058 22.75 107.859 24.8066 108.252 26.3341C108.252 26.364 108.271 26.4039 108.281 26.4339C108.232 26.5636 108.193 26.7034 108.183 26.8432C108.085 27.8315 108.792 28.5204 109.677 28.7001C110.611 28.8898 111.554 29.0795 112.488 29.2692C113.392 29.7184 114.454 29.9081 115.436 29.7683C116.164 29.6685 116.567 29.2392 116.714 28.7201C116.645 28.6302 116.577 28.5404 116.508 28.4505H116.518Z" fill="#FFAD1D"/>
<path d="M107.918 29.1107C107.141 28.8212 106.355 28.5916 105.559 28.3819C105.441 28.332 105.313 28.2921 105.176 28.2622C104.91 28.2122 104.645 28.1523 104.38 28.1024C103.495 27.9227 102.64 28.7713 102.552 29.6199C102.463 30.4685 102.994 31.1074 103.721 31.3769C103.78 31.4069 103.839 31.4268 103.908 31.4468C104.842 31.7164 105.775 31.9959 106.709 32.2654C107.574 32.515 108.527 32.1956 108.871 31.2971C109.196 30.4485 108.763 29.4202 107.918 29.1007V29.1107Z" fill="#FFAD1D"/>
<path d="M82.1376 27.5824C80.8894 26.5342 78.8352 27.842 77.528 28.4011C75.8474 29.1199 76.5943 31.4559 78.0686 31.6257C78.4028 31.9152 78.8451 32.0649 79.366 31.9152C79.6313 31.8353 79.9065 31.7555 80.1817 31.6756C81.4496 31.7355 82.4718 31.2264 83.317 30.2779C84.1524 29.3395 83.317 27.6324 82.1278 27.5924L82.1376 27.5824Z" fill="#FFAD1D"/>
<path d="M45.5264 23.9345C44.8384 23.635 44.0816 23.2756 43.4624 22.9362C43.4428 22.9262 43.4231 22.9162 43.4034 22.9062C42.4009 23.7748 41.4279 24.6733 40.563 25.6816C40.7497 26.3405 41.2707 26.8497 41.9881 26.9295C42.912 27.0194 43.8359 27.1192 44.7598 27.2091C46.6763 27.4087 47.2366 24.6933 45.5264 23.9345Z" fill="#FFAD1D"/>
</g>
<path d="M64.3777 238.108C64.7905 239.426 66.1862 240.943 69.7048 241.971C72.8106 242.88 72.9089 241.862 76.2309 242.201C79.2679 242.51 78.3834 244.158 83.8578 244.847C86.0201 245.116 87.7696 244.178 89.7942 244.248C90.7181 244.277 93.5487 247.013 98.6399 246.504C108.498 245.515 110.65 241.881 111.299 240.624C112.125 239.006 113.137 201.249 113.658 195.848C114.189 190.447 124.45 183.01 130.858 152.061C134.357 135.19 129.098 98.2812 127.919 89.9251C127.772 88.8968 127.821 87.8485 128.066 86.8402C135.919 54.7837 120.813 17.0867 101.923 17.0168C94.8756 16.9868 89.5584 19.862 78.5603 19.0933C69.0168 18.4244 65.6063 12.5043 55.65 13.0334C44.2588 13.6424 29.8207 34.1682 26.6068 44.0317C22.6951 56.0217 22.3314 79.2329 51.7186 87.6489C51.7186 87.6489 48.4654 90.4143 47.6693 91.3327C29.7421 120.215 25.506 153.199 29.1425 167.556C32.7791 181.902 43.217 188.411 43.217 188.411C43.217 188.411 41.8705 212.481 40.2783 218.461C38.686 224.441 36.0323 225.089 33.6833 225.808C31.7864 226.387 28.5528 228.534 28.5528 231.938C28.5528 236.361 33.1133 236.83 33.7718 236.9C34.4303 236.97 38.1553 236.66 39.9932 238.547C41.8213 240.434 46.6373 239.216 48.0034 239.016C49.3696 238.817 49.9003 240.234 53.2224 240.564C56.5444 240.903 58.2447 240.733 59.9746 240.224C61.7044 239.715 64.3777 238.108 64.3777 238.108Z" stroke="#543816" stroke-width="4.42" stroke-linecap="round" stroke-linejoin="round"/>
<g opacity="0.54">
<path d="M132.008 190.372C128.99 194.196 125.374 197.41 121.285 200.016C119.103 201.404 121.668 204.538 123.83 203.161C128.204 200.365 132.027 196.851 135.261 192.758C136.883 190.712 133.629 188.325 132.018 190.362L132.008 190.372Z" fill="#FFE8CF"/>
<path d="M139.045 181.605C137.964 181.545 136.962 182.294 136.853 183.432L136.686 185.149C136.578 186.207 137.404 187.315 138.485 187.375C139.566 187.435 140.569 186.686 140.677 185.548L140.844 183.831C140.952 182.773 140.126 181.665 139.045 181.605Z" fill="#FFE8CF"/>
<path d="M142.259 168.2C141.827 167.76 141.345 167.361 140.903 166.922C139.95 167.122 139.055 167.94 139.154 169.198C139.331 171.614 139.252 174.02 138.977 176.436C138.682 179.042 142.672 179.441 142.967 176.835C143.262 174.25 143.301 171.664 143.144 169.068C142.849 168.779 142.554 168.489 142.259 168.2Z" fill="#FFE8CF"/>
<path d="M138.013 201.039C134.465 206.311 130.003 210.753 124.764 214.297C122.612 215.745 125.177 218.89 127.31 217.442C132.804 213.728 137.532 208.966 141.257 203.435C142.711 201.269 139.468 198.873 138.013 201.039Z" fill="#FFE8CF"/>
<path d="M121.816 207.081C119.683 209.048 117.423 210.815 115.015 212.422C115.034 212.642 115.015 212.861 114.965 213.071C114.956 213.58 114.916 214.079 114.877 214.589C114.897 215.048 114.906 215.517 114.897 215.976C115.604 216.405 116.489 216.286 117.206 215.816C119.732 214.149 122.121 212.292 124.352 210.236C126.258 208.479 123.723 205.324 121.806 207.091L121.816 207.081Z" fill="#FFE8CF"/>
<path d="M150.358 181.041C150.535 178.435 146.544 178.016 146.367 180.641C146.073 184.944 145.159 189.077 143.586 193.09C142.633 195.526 146.377 196.994 147.331 194.558C149.021 190.235 150.033 185.693 150.358 181.051V181.041Z" fill="#FFE8CF"/>
<path d="M149.807 198.704C147.547 203.955 144.392 208.797 140.46 212.92C138.681 214.787 141.207 217.952 143.006 216.065C147.439 211.412 150.987 206.101 153.552 200.161C154.594 197.755 150.839 196.298 149.807 198.694V198.704Z" fill="#FFE8CF"/>
<path d="M136.647 219.504C135.693 218.865 134.553 219.075 133.846 219.953C133.413 220.492 132.981 221.021 132.548 221.56C131.88 222.389 132.126 223.827 132.99 224.406C133.944 225.045 135.084 224.835 135.792 223.956C136.224 223.417 136.656 222.888 137.089 222.349C137.757 221.52 137.512 220.083 136.647 219.504Z" fill="#FFE8CF"/>
<path d="M124.716 223.507C123.988 222.688 122.76 222.498 121.895 223.227C121.384 223.656 120.863 224.086 120.352 224.515C119.536 225.194 119.349 226.562 120.076 227.38C120.804 228.199 122.032 228.389 122.897 227.66C123.408 227.23 123.929 226.801 124.44 226.372C125.256 225.693 125.443 224.325 124.716 223.507Z" fill="#FFE8CF"/>
<path d="M128.814 175.201C127.281 179.434 125.335 183.468 122.956 187.281C121.58 189.488 124.814 191.894 126.199 189.677C128.765 185.574 130.897 181.231 132.549 176.669C133.443 174.213 129.698 172.746 128.804 175.201H128.814Z" fill="#FFE8CF"/>
<path d="M156.737 189.227C156.334 188.418 155.951 187.649 155.39 186.941C155.38 186.921 155.371 186.911 155.361 186.891C154.388 187.2 153.916 188.248 154.054 189.197C154.054 189.217 154.044 189.227 154.034 189.247C153.887 189.806 153.729 190.375 153.582 190.934C153.434 191.473 153.395 191.982 153.631 192.511C153.828 192.961 154.27 193.4 154.732 193.559C155.675 193.879 157.032 193.49 157.327 192.391C157.464 191.882 157.602 191.363 157.739 190.854C157.376 190.325 157.022 189.786 156.737 189.207V189.227Z" fill="#FFE8CF"/>
<path d="M160.55 200.629C159.557 200.29 158.319 200.719 157.955 201.797L157.11 204.303C156.776 205.312 157.208 206.579 158.26 206.939C159.253 207.278 160.491 206.849 160.855 205.771L161.7 203.265C162.034 202.257 161.602 200.989 160.55 200.629Z" fill="#FFE8CF"/>
<path d="M150.839 215.953C148.638 219.078 146.073 221.814 143.095 224.19C141.06 225.807 143.606 228.962 145.64 227.334C148.864 224.759 151.704 221.734 154.093 218.339C155.596 216.203 152.343 213.807 150.849 215.943L150.839 215.953Z" fill="#FFE8CF"/>
<path d="M137.955 227.723C135.389 227.463 134.986 231.517 137.562 231.776C140.137 232.036 140.53 227.982 137.955 227.723Z" fill="#FFE8CF"/>
<path d="M156.53 209.371C153.965 209.112 153.562 213.165 156.137 213.425C158.702 213.684 159.105 209.631 156.53 209.371Z" fill="#FFE8CF"/>
<path d="M163.027 216.152C161.277 220.196 158.673 223.71 155.361 226.555C153.385 228.242 155.931 231.397 157.906 229.7C161.759 226.395 164.747 222.302 166.772 217.61C167.813 215.204 164.069 213.756 163.027 216.142V216.152Z" fill="#FFE8CF"/>
<path d="M166.545 208.653C163.98 208.393 163.577 212.446 166.152 212.706C168.717 212.965 169.12 208.912 166.545 208.653Z" fill="#FFE8CF"/>
<path d="M149.63 234.033C147.252 236.799 144.411 239.145 141.266 240.952C140.401 241.441 140.126 242.3 140.234 243.098C140.785 243.218 141.315 243.408 141.826 243.627C141.856 243.627 141.885 243.637 141.915 243.647C142.534 243.787 143.134 243.977 143.733 244.186C147.183 242.09 150.22 239.524 152.884 236.439C154.584 234.463 151.321 232.087 149.64 234.043L149.63 234.033Z" fill="#FFE8CF"/>
<path d="M140.893 235.558C140.225 234.739 138.878 234.539 138.072 235.278C136.824 236.416 135.478 237.315 133.944 238.004C133.05 238.413 132.745 239.192 132.834 239.95C133.374 240.26 133.915 240.559 134.465 240.839C135.016 241.049 135.576 241.248 136.126 241.468C137.758 240.669 139.281 239.651 140.618 238.423C141.424 237.684 141.601 236.436 140.893 235.558Z" fill="#FFE8CF"/>
<path d="M128.391 232.535C125.826 232.276 125.423 236.329 127.998 236.589C130.563 236.848 130.966 232.795 128.391 232.535Z" fill="#FFE8CF"/>
<path d="M160.432 233.449C157.867 233.19 157.464 237.243 160.039 237.503C162.604 237.762 163.007 233.709 160.432 233.449Z" fill="#FFE8CF"/>
<path d="M169.602 225.405C168.796 224.806 167.351 224.906 166.801 225.855C166.113 227.043 165.435 228.221 164.747 229.409C164.196 230.357 164.255 231.565 165.189 232.254C165.995 232.853 167.44 232.753 167.99 231.805C168.678 230.617 169.356 229.439 170.044 228.251C170.595 227.302 170.536 226.094 169.602 225.405Z" fill="#FFE8CF"/>
<path d="M172.895 215.754C172.895 215.754 172.855 215.694 172.836 215.664C171.833 215.644 170.831 216.433 170.782 217.491C170.723 218.57 170.575 219.618 170.251 220.646C169.927 221.694 170.349 222.862 171.401 223.282C172.364 223.661 173.671 223.172 173.996 222.114C174.389 220.836 174.654 219.528 174.752 218.19C174.497 217.881 174.251 217.551 174.015 217.222C173.632 216.743 173.258 216.253 172.895 215.754Z" fill="#FFE8CF"/>
<path d="M177.052 230.294C175.794 234.926 173.356 239.029 169.799 242.214C167.862 243.941 170.398 247.106 172.334 245.359C176.384 241.735 179.352 237.053 180.797 231.751C181.475 229.246 177.74 227.758 177.052 230.284V230.294Z" fill="#FFE8CF"/>
<path d="M160.796 247.342C160.864 247.342 160.943 247.342 161.012 247.342C161.877 247.432 162.732 247.502 163.597 247.562C164.707 246.404 165.72 245.166 166.575 243.788C167.155 242.86 167.046 241.622 166.132 240.943C165.297 240.334 163.911 240.464 163.331 241.392C162.584 242.6 161.739 243.748 160.746 244.746C160.078 245.415 159.813 246.394 160.225 247.242C160.422 247.272 160.609 247.302 160.805 247.332L160.796 247.342Z" fill="#FFE8CF"/>
<path d="M187.077 229.472C186.979 229.422 186.871 229.372 186.773 229.312C186.301 230.92 185.642 232.467 184.856 233.945C184.335 234.923 185.092 236.211 186.006 236.58C187.117 237.03 188.09 236.381 188.601 235.412C189.338 234.025 189.918 232.607 190.38 231.139C189.181 230.77 188.011 230.241 187.087 229.482L187.077 229.472Z" fill="#FFE8CF"/>
<path d="M184.65 238.793C182.084 238.534 181.681 242.587 184.256 242.846C186.822 243.106 187.225 239.053 184.65 238.793Z" fill="#FFE8CF"/>
<path d="M192.532 234.449C191.884 236.675 191.019 238.802 189.928 240.838C189.407 241.817 190.164 243.104 191.078 243.474C192.188 243.923 193.161 243.274 193.673 242.306C194.764 240.259 195.619 238.143 196.277 235.916C197.004 233.421 193.27 231.933 192.532 234.449Z" fill="#FFE8CF"/>
<path d="M203.678 235.27C202.96 235.121 202.223 234.981 201.555 234.671C201.25 234.592 200.955 234.512 200.65 234.422C199.609 235.48 199.874 237.766 201.79 237.956C203.432 238.126 204.179 236.528 203.845 235.28C203.786 235.28 203.737 235.27 203.678 235.26V235.27Z" fill="#FFE8CF"/>
</g>
<defs>
<linearGradient id="paint0_linear_573_3125" x1="116.8" y1="170.403" x2="150.756" y2="213.105" gradientUnits="userSpaceOnUse">
<stop stop-color="#F9CC3D"/>
<stop offset="1" stop-color="#ED7829"/>
</linearGradient>
</defs>
</svg>
