<svg width="54" height="54" viewBox="0 0 54 54" fill="none" xmlns="http://www.w3.org/2000/svg">
<path d="M20.1993 46.7597V39.8593C20.1993 38.1107 21.5953 36.6901 23.3245 36.6791H29.6738C31.4108 36.6791 32.8188 38.1029 32.8188 39.8593V46.7397C32.8188 48.2564 34.0289 49.4889 35.5287 49.4999H39.8604C41.8835 49.5052 43.8256 48.6963 45.258 47.2516C46.6904 45.8069 47.4954 43.8452 47.4954 41.7994V22.1982C47.4954 20.5456 46.771 18.9781 45.5174 17.9179L30.8013 6.0171C28.2289 3.93553 24.5548 4.00277 22.0586 6.17711L7.65892 17.9179C6.34612 18.9468 5.56148 20.519 5.52271 22.1982V41.7794C5.52271 46.0433 8.94101 49.4999 13.1577 49.4999H17.3906C18.1127 49.5053 18.807 49.2189 19.3195 48.7045C19.832 48.19 20.1202 47.49 20.1202 46.7597H20.1993Z" fill="#91AF74"/>
</svg>
