<svg width="54" height="54" viewBox="0 0 54 54" fill="none" xmlns="http://www.w3.org/2000/svg">
<path d="M36.765 4.5H17.2575C9.63 4.5 4.5 9.855 4.5 17.82V36.2025C4.5 44.145 9.63 49.5 17.2575 49.5H36.765C44.3925 49.5 49.5 44.145 49.5 36.2025V17.82C49.5 9.855 44.3925 4.5 36.765 4.5Z" fill="#91AF74"/>
<path fill-rule="evenodd" clip-rule="evenodd" d="M25.0312 18.4297C25.0312 19.5142 25.9109 20.3984 26.9887 20.3984C28.0979 20.3984 28.9799 19.5142 28.9799 18.4297C28.9799 17.3452 28.0979 16.4609 27.0112 16.4609C25.9199 16.4609 25.0312 17.3452 25.0312 18.4297ZM28.9568 25.5685C28.9568 24.484 28.0726 23.5997 26.9881 23.5997C25.9036 23.5997 25.0193 24.484 25.0193 25.5685V35.5135C25.0193 36.598 25.9036 37.4822 26.9881 37.4822C28.0726 37.4822 28.9568 36.598 28.9568 35.5135V25.5685Z" fill="#FEFDFD"/>
</svg>
