<svg width="54" height="54" viewBox="0 0 54 54" fill="none" xmlns="http://www.w3.org/2000/svg">
<path d="M27.5459 4.5C14.2313 4.5 4.58337 15.165 4.58337 27C4.58337 30.78 5.70629 34.6725 7.67712 38.2275C8.04379 38.8125 8.08962 39.555 7.83754 40.2525L6.30212 45.2925C5.95837 46.5075 7.01254 47.4075 8.18129 47.0475L12.8105 45.6975C14.0709 45.2925 15.0563 45.81 16.2273 46.5075C19.5732 48.4425 23.7417 49.4325 27.5 49.4325C38.8667 49.4325 50.4167 40.815 50.4167 26.9325C50.4167 14.9625 40.5625 4.5 27.5459 4.5Z" fill="white"/>
<path fill-rule="evenodd" clip-rule="evenodd" d="M27.4554 29.9009C25.8283 29.8784 24.522 28.5959 24.522 26.9984C24.522 25.4234 25.8512 24.1184 27.4554 24.1409C29.0825 24.1409 30.3887 25.4234 30.3887 27.0209C30.3887 28.5959 29.0825 29.9009 27.4554 29.9009ZM16.8899 29.901C15.2857 29.901 13.9565 28.596 13.9565 27.021C13.9565 25.4235 15.2628 24.141 16.8899 24.141C18.517 24.141 19.8232 25.4235 19.8232 27.021C19.8232 28.596 18.517 29.8785 16.8899 29.901ZM35.0862 27.0209C35.0862 28.5959 36.3924 29.9009 38.0195 29.9009C39.6466 29.9009 40.9528 28.5959 40.9528 27.0209C40.9528 25.4234 39.6466 24.1409 38.0195 24.1409C36.3924 24.1409 35.0862 25.4234 35.0862 27.0209Z" fill="#EFC141"/>
</svg>
