<svg width="54" height="54" viewBox="0 0 54 54" fill="none" xmlns="http://www.w3.org/2000/svg">
<path d="M27.5458 4.5C14.2312 4.5 4.58331 15.165 4.58331 27C4.58331 30.78 5.70623 34.6725 7.67706 38.2275C8.04373 38.8125 8.08956 39.555 7.83748 40.2525L6.30206 45.2925C5.95831 46.5075 7.01248 47.4075 8.18123 47.0475L12.8104 45.6975C14.0708 45.2925 15.0562 45.81 16.2273 46.5075C19.5731 48.4425 23.7416 49.4325 27.5 49.4325C38.8666 49.4325 50.4166 40.815 50.4166 26.9325C50.4166 14.9625 40.5625 4.5 27.5458 4.5Z" fill="#91AF74"/>
<path fill-rule="evenodd" clip-rule="evenodd" d="M27.4553 29.9009C25.8282 29.8784 24.522 28.5959 24.522 26.9984C24.522 25.4234 25.8511 24.1184 27.4553 24.1409C29.0824 24.1409 30.3886 25.4234 30.3886 27.0209C30.3886 28.5959 29.0824 29.9009 27.4553 29.9009ZM16.8898 29.901C15.2856 29.901 13.9565 28.596 13.9565 27.021C13.9565 25.4235 15.2627 24.141 16.8898 24.141C18.5169 24.141 19.8231 25.4235 19.8231 27.021C19.8231 28.596 18.5169 29.8785 16.8898 29.901ZM35.0861 27.0209C35.0861 28.5959 36.3924 29.9009 38.0194 29.9009C39.6465 29.9009 40.9528 28.5959 40.9528 27.0209C40.9528 25.4234 39.6465 24.1409 38.0194 24.1409C36.3924 24.1409 35.0861 25.4234 35.0861 27.0209Z" fill="#FEFDFD"/>
</svg>
