<svg width="15" height="13" viewBox="0 0 15 13" fill="none" xmlns="http://www.w3.org/2000/svg">
<path d="M15 6.5C15 10.0833 12.163 13 8.67391 13C7.38587 13 6.14674 12.6 5.08696 11.8667C4.79348 11.65 4.71196 11.25 4.92391 10.9333C5.13587 10.6333 5.52717 10.55 5.83696 10.7667C6.66848 11.35 7.66304 11.6667 8.67391 11.6667C11.4457 11.6667 13.6957 9.35 13.6957 6.5C13.6957 3.65 11.4457 1.33333 8.67391 1.33333C5.96739 1.33333 3.75 3.55 3.65217 6.31667L5.16848 4.75C5.42935 4.48333 5.83696 4.48333 6.09783 4.75C6.3587 5.01667 6.3587 5.43333 6.09783 5.7L3.60326 8.25C3.47283 8.38333 3.30978 8.45 3.14674 8.45C2.96739 8.45 2.80435 8.38333 2.69022 8.25L0.195652 5.68333C-0.0652174 5.41667 -0.0652174 5 0.195652 4.73333C0.456522 4.46667 0.86413 4.46667 1.125 4.73333L2.36413 6.01667C2.59239 2.66667 5.33152 0 8.67391 0C12.163 0 15 2.91667 15 6.5ZM8.6413 2.71667C8.28261 2.71667 7.98913 3.01667 7.98913 3.38333V6.5C7.98913 6.68333 8.07065 6.85 8.20109 6.96667L9.60326 8.4C9.7337 8.53333 9.89674 8.6 10.0761 8.6C10.2391 8.6 10.4185 8.53333 10.5326 8.4C10.7935 8.13333 10.7772 7.71667 10.5163 7.45L9.29348 6.21667V3.38333C9.29348 3.01667 9 2.71667 8.6413 2.71667Z" fill="#A3907A"/>
</svg>
