<svg width="28" height="28" viewBox="0 0 28 28" fill="none" xmlns="http://www.w3.org/2000/svg">
<path fill-rule="evenodd" clip-rule="evenodd" d="M19.646 2.88391L19.6472 3.74598C22.8609 3.99425 24.9839 6.15287 24.9873 9.46322L25 19.1529C25.0046 22.7621 22.7043 24.9828 19.0171 24.9885L10.0105 25C6.34639 25.0046 4.01729 22.731 4.01268 19.1115L4.00001 9.53563C3.9954 6.20345 6.04345 4.05058 9.2572 3.75977L9.25605 2.8977C9.2549 2.39196 9.63502 2.0115 10.1419 2.0115C10.6487 2.01035 11.0288 2.38966 11.03 2.8954L11.0311 3.7L17.8733 3.69081L17.8721 2.88621C17.871 2.38046 18.2511 2.00115 18.7579 2C19.2532 1.99885 19.6449 2.37816 19.646 2.88391ZM5.77567 9.88301L23.2152 9.86002V9.45772C23.1657 6.98646 21.9078 5.68991 19.6501 5.4968L19.6513 6.38186C19.6513 6.87611 19.2608 7.26807 18.7655 7.26807C18.2586 7.26922 17.8774 6.87841 17.8774 6.38416L17.8762 5.45312L11.034 5.46232L11.0352 6.39221C11.0352 6.88761 10.6562 7.27841 10.1494 7.27841C9.64254 7.27956 9.26127 6.88991 9.26127 6.3945L9.26012 5.50945C7.01395 5.73129 5.77106 7.03243 5.77452 9.52554L5.77567 9.88301ZM18.2812 15.1061V15.1188C18.2927 15.6475 18.7304 16.0487 19.2615 16.0372C19.7798 16.0245 20.1933 15.5866 20.1818 15.0579C20.1576 14.5521 19.7418 14.1395 19.2246 14.1406C18.6947 14.1521 18.2801 14.5774 18.2812 15.1061ZM19.2316 20.2677C18.7017 20.2562 18.2744 19.8205 18.2732 19.2918C18.2617 18.7631 18.6868 18.3251 19.2166 18.3125H19.2281C19.7695 18.3125 20.2084 18.7481 20.2084 19.2884C20.2095 19.8286 19.7718 20.2665 19.2316 20.2677ZM13.5347 15.1225C13.5577 15.6512 13.9966 16.0638 14.5264 16.0409C15.0448 16.0167 15.4583 15.5799 15.4353 15.0512C15.4226 14.534 14.9964 14.1317 14.4781 14.1328C13.9482 14.1558 13.5335 14.5937 13.5347 15.1225ZM14.5316 20.2205C14.0017 20.2435 13.564 19.8309 13.5398 19.3022C13.5398 18.7734 13.9533 18.3366 14.4832 18.3125C15.0015 18.3114 15.4289 18.7137 15.4404 19.2297C15.4646 19.7596 15.0499 20.1964 14.5316 20.2205ZM8.78916 15.1693C8.8122 15.6981 9.25107 16.1119 9.78093 16.0877C10.2993 16.0647 10.7128 15.6268 10.6886 15.0981C10.6771 14.5808 10.2509 14.1785 9.7314 14.1797C9.20154 14.2027 8.78801 14.6406 8.78916 15.1693ZM9.78445 20.2362C9.25458 20.2603 8.81687 19.8465 8.79268 19.3178C8.79153 18.789 9.2062 18.3511 9.73607 18.3281C10.2544 18.327 10.6818 18.7293 10.6933 19.2465C10.7175 19.7753 10.3039 20.2132 9.78445 20.2362Z" fill="#678E40"/>
</svg>
