<svg width="28" height="28" viewBox="0 0 28 28" fill="none" xmlns="http://www.w3.org/2000/svg">
<path d="M14 4C11.879 4.00242 9.84555 4.86074 8.34578 6.38663C6.846 7.91253 6.00238 9.9814 6 12.1393C6 15.451 8.363 18.2011 10.866 21.1119C11.658 22.0337 12.478 22.9871 13.208 23.9516C13.3014 24.0749 13.4214 24.1747 13.5587 24.2434C13.696 24.3121 13.847 24.3478 14 24.3478C14.153 24.3478 14.304 24.3121 14.4413 24.2434C14.5786 24.1747 14.6986 24.0749 14.792 23.9516C15.522 22.9871 16.342 22.0337 17.134 21.1119C19.637 18.2011 22 15.451 22 12.1393C21.9976 9.9814 21.154 7.91253 19.6542 6.38663C18.1544 4.86074 16.121 4.00242 14 4ZM14 15.1916C13.4067 15.1916 12.8266 15.0126 12.3333 14.6772C11.8399 14.3418 11.4554 13.8651 11.2284 13.3074C11.0013 12.7497 10.9419 12.136 11.0576 11.5439C11.1734 10.9518 11.4591 10.4079 11.8787 9.98107C12.2982 9.55421 12.8328 9.26351 13.4147 9.14574C13.9967 9.02797 14.5999 9.08841 15.1481 9.31943C15.6962 9.55045 16.1648 9.94166 16.4944 10.4436C16.8241 10.9455 17 11.5357 17 12.1393C17 12.9489 16.6839 13.7252 16.1213 14.2976C15.5587 14.87 14.7956 15.1916 14 15.1916Z" fill="#678E40"/>
</svg>
