<svg width="28" height="28" viewBox="0 0 28 28" fill="none" xmlns="http://www.w3.org/2000/svg">
<g clip-path="url(#clip0_352_5541)">
<path d="M18.667 12.8359C20.6037 12.8359 22.1553 11.2726 22.1553 9.33594C22.1553 7.39927 20.6037 5.83594 18.667 5.83594C16.7303 5.83594 15.167 7.39927 15.167 9.33594C15.167 11.2726 16.7303 12.8359 18.667 12.8359ZM9.33366 12.8359C11.2703 12.8359 12.822 11.2726 12.822 9.33594C12.822 7.39927 11.2703 5.83594 9.33366 5.83594C7.39699 5.83594 5.83366 7.39927 5.83366 9.33594C5.83366 11.2726 7.39699 12.8359 9.33366 12.8359ZM9.33366 15.1693C6.61533 15.1693 1.16699 16.5343 1.16699 19.2526V21.0026C1.16699 21.6443 1.69199 22.1693 2.33366 22.1693H16.3337C16.9753 22.1693 17.5003 21.6443 17.5003 21.0026V19.2526C17.5003 16.5343 12.052 15.1693 9.33366 15.1693ZM18.667 15.1693C18.3287 15.1693 17.9437 15.1926 17.5353 15.2276C17.5587 15.2393 17.5703 15.2626 17.582 15.2743C18.912 16.2426 19.8337 17.5376 19.8337 19.2526V21.0026C19.8337 21.4109 19.752 21.8076 19.6237 22.1693H25.667C26.3087 22.1693 26.8337 21.6443 26.8337 21.0026V19.2526C26.8337 16.5343 21.3853 15.1693 18.667 15.1693Z" fill="#678E40"/>
</g>
<defs>
<clipPath id="clip0_352_5541">
<rect width="28" height="28" fill="white"/>
</clipPath>
</defs>
</svg>
