<svg width="19" height="19" viewBox="0 0 19 19" fill="none" xmlns="http://www.w3.org/2000/svg">
<path d="M14.6667 17.1811C14.1204 17.5776 10.6153 15.0641 9.94399 15.0586C9.27267 15.0531 5.72807 17.5088 5.18817 17.1034C4.64827 16.698 5.91755 12.5337 5.71527 11.8833C5.513 11.2328 2.11926 8.56598 2.33185 7.91891C2.54448 7.27184 6.83407 7.21174 7.38035 6.81521C7.92662 6.41874 9.37381 2.31484 10.0452 2.32032C10.7164 2.32584 12.0982 6.45293 12.6381 6.85836C13.1781 7.26374 17.4662 7.39423 17.6685 8.04469C17.8708 8.69514 14.4352 11.306 14.2226 11.953C14.01 12.6001 15.213 16.7846 14.6667 17.1811Z" fill="#FEFDFD"/>
</svg>
