<svg width="33" height="32" viewBox="0 0 33 32" fill="none" xmlns="http://www.w3.org/2000/svg">
<path d="M26.0009 31.1195C24.8888 31.9267 17.7533 26.8099 16.3867 26.7987C15.0201 26.7875 7.80434 31.7866 6.70526 30.9613C5.60617 30.136 8.19006 21.6588 7.77829 20.3346C7.36651 19.0105 0.457832 13.5816 0.890597 12.2643C1.32346 10.9471 10.0558 10.8247 11.1679 10.0175C12.28 9.21041 15.226 0.856049 16.5927 0.867199C17.9592 0.878445 20.7722 9.28003 21.8713 10.1054C22.9704 10.9306 31.6998 11.1962 32.1117 12.5204C32.5234 13.8445 25.5296 19.1594 25.0967 20.4767C24.6639 21.7939 27.1129 30.3123 26.0009 31.1195Z" fill="#FEFDFD"/>
</svg>
