<svg width="546" height="459" viewBox="0 0 546 459" fill="none" xmlns="http://www.w3.org/2000/svg">
<g style="mix-blend-mode:soft-light">
<path d="M525.844 308.244H432.56C426.913 308.244 423.138 303.663 424.128 298.018L432.087 252.875C433.087 247.229 438.476 242.648 444.123 242.648H537.406C543.053 242.648 546.828 247.229 545.839 252.875L537.88 298.018C536.879 303.663 531.491 308.244 525.844 308.244Z" fill="#F9CC3D"/>
</g>
<path d="M438.433 267.826L433.711 294.623C433.388 296.484 434.625 297.989 436.486 297.989H525.543C527.403 297.989 529.178 296.484 529.501 294.623L536.503 254.932C536.503 254.932 528.199 251.341 517.809 261.234C507.409 271.138 501.03 282.472 493.05 282.031C485.069 281.59 482.359 267.353 472.539 267.535C461.794 267.729 455.147 279.633 450.662 275.439C448.328 273.256 443.165 265.041 438.433 267.826Z" fill="#F9CC3D"/>
<g filter="url(#filter0_d_563_4714)">
<path d="M435.013 1.13005C433.926 1.02252 432.818 0.96875 431.678 0.96875H284.573C265.955 0.96875 248.208 16.0558 244.928 34.67L183.513 382.877C182.351 389.049 183.244 394.963 183.244 394.963C183.244 394.963 188.149 430.751 222.717 430.439H369.822C388.441 430.439 406.187 415.352 409.468 396.738L470.883 48.5312C471.108 47.2407 471.259 45.9718 471.334 44.7137C478.422 3.30225 435.002 1.1408 435.002 1.1408L435.013 1.13005Z" fill="url(#paint0_linear_563_4714)"/>
</g>
<path d="M435.013 1.13005C433.926 1.02252 432.818 0.96875 431.678 0.96875H284.573C265.955 0.96875 248.208 16.0558 244.928 34.67L183.513 382.877C182.351 389.049 183.244 394.963 183.244 394.963C183.244 394.963 188.149 430.751 222.717 430.439H369.822C388.441 430.439 406.187 415.352 409.468 396.738L470.883 48.5312C471.108 47.2407 471.259 45.9718 471.334 44.7137C478.422 3.30225 435.002 1.1408 435.002 1.1408L435.013 1.13005Z" fill="url(#paint1_linear_563_4714)"/>
<g style="mix-blend-mode:multiply" opacity="0.75">
<path d="M435.013 1.13005C433.926 1.02252 432.818 0.96875 431.678 0.96875H284.573C265.955 0.96875 248.208 16.0558 244.928 34.67L183.513 382.877C182.351 389.049 183.244 394.963 183.244 394.963C183.244 394.963 188.149 430.751 222.717 430.439H369.822C388.441 430.439 406.187 415.352 409.468 396.738L470.883 48.5312C471.108 47.2407 471.259 45.9718 471.334 44.7137C478.422 3.30225 435.002 1.1408 435.002 1.1408L435.013 1.13005Z" fill="#A1C49D"/>
</g>
<path d="M358.873 413.623H213.468C195.065 413.623 182.782 398.708 186.03 380.319L246.724 36.1237C249.972 17.7246 267.515 2.82031 285.918 2.82031H431.323C449.726 2.82031 462.009 17.7353 458.761 36.1237L398.056 380.309C394.808 398.708 377.265 413.612 358.862 413.612L358.873 413.623Z" fill="#FDFBF9"/>
<path d="M452.125 36.7791L391.721 379.286C388.989 394.782 374.2 407.353 358.701 407.353H215.844C200.346 407.353 189.988 394.793 192.72 379.286L253.124 36.7791C255.931 20.8748 271.096 7.99219 286.993 7.99219H298.426C301.599 7.99219 304.084 9.97082 304.643 12.9495L306.794 24.3159C307.3 27.015 309.559 28.8108 312.43 28.8108H395.615C398.497 28.8108 401.38 27.015 402.842 24.3051L408.995 12.9495C410.608 9.97082 413.792 7.99219 416.964 7.99219H428.398C444.305 7.99219 454.921 20.8855 452.114 36.7791H452.125Z" fill="url(#paint2_linear_563_4714)"/>
<path d="M375.974 20.6278H329.23C327.456 20.6278 326.273 19.1868 326.585 17.4233C326.896 15.649 328.585 14.2188 330.36 14.2188H377.104C378.879 14.2188 380.062 15.6597 379.75 17.4233C379.438 19.1976 377.749 20.6278 375.974 20.6278Z" fill="url(#paint3_linear_563_4714)"/>
<path d="M391.194 17.4076C390.882 19.182 389.193 20.6122 387.419 20.6122C385.644 20.6122 384.461 19.1712 384.773 17.4076C385.085 15.6333 386.773 14.2031 388.548 14.2031C390.323 14.2031 391.506 15.6441 391.194 17.4076Z" fill="url(#paint4_linear_563_4714)"/>
<path d="M458.363 83.9546L458.449 83.4922H456.653C454.545 83.4922 452.533 85.202 452.157 87.3097L443.681 135.356C443.359 137.184 443.412 140.647 447.016 141.109C447.715 141.109 448.296 141.12 449.027 141.109L448.629 139.173L448.715 138.711C450.027 138.066 451.071 136.818 451.329 135.356L459.804 87.3097C460.062 85.8579 459.46 84.5998 458.374 83.9546H458.363Z" fill="url(#paint5_linear_563_4714)"/>
<path d="M448.737 141.066C445.478 140.593 445.101 137.464 445.478 135.356L453.953 87.3097C454.33 85.202 456.341 83.4922 458.449 83.4922C460.557 83.4922 462.084 87.0946 461.708 89.2023L453.233 137.249C452.856 139.356 450.942 141.464 448.737 141.066Z" fill="#FDFBF9"/>
<path style="mix-blend-mode:soft-light" d="M386.526 280.867H230.02C225.256 280.867 222.083 277.007 222.922 272.254L250.714 114.684C251.553 109.931 256.092 106.07 260.846 106.07H417.352C422.116 106.07 425.289 109.931 424.45 114.684L396.658 272.254C395.819 277.018 391.28 280.867 386.526 280.867Z" fill="url(#paint6_linear_563_4714)"/>
<g filter="url(#filter1_d_563_4714)">
<path d="M349.247 252.984H192.741C187.977 252.984 184.804 249.124 185.643 244.371L213.435 86.801C214.274 82.048 218.813 78.1875 223.567 78.1875H380.072C384.837 78.1875 388.01 82.048 387.171 86.801L359.379 244.371C358.54 249.135 354.001 252.984 349.247 252.984Z" fill="white"/>
</g>
<path d="M340.503 240.838H205.756C201.658 240.838 198.926 237.515 199.647 233.418L223.567 97.7636C224.288 93.6666 228.192 90.3438 232.29 90.3438H367.037C371.135 90.3438 373.867 93.6666 373.146 97.7636L349.225 233.418C348.505 237.515 344.6 240.838 340.503 240.838Z" fill="#F0E9E6"/>
<g filter="url(#filter2_d_563_4714)">
<path d="M323.637 319.584L320.54 337.123C320.185 339.134 318.432 340.607 316.388 340.607H243.519C240.894 340.607 238.915 338.241 239.367 335.66L242.239 319.39C242.594 317.379 244.347 315.906 246.39 315.906H320.551C322.497 315.906 323.971 317.67 323.637 319.584Z" fill="white"/>
</g>
<path d="M257.899 331.227V324.919H261.706V325.597H258.663V327.728H261.509V328.405H258.663V330.549H261.755V331.227H257.899ZM263.551 326.399L264.707 328.373L265.864 326.399H266.719L265.16 328.813L266.719 331.227H265.864L264.707 329.353L263.551 331.227H262.696L264.23 328.813L262.696 326.399H263.551ZM269.539 331.327C269.104 331.327 268.721 331.223 268.392 331.016C268.065 330.809 267.81 330.518 267.626 330.145C267.443 329.773 267.352 329.337 267.352 328.838C267.352 328.335 267.443 327.896 267.626 327.521C267.81 327.146 268.065 326.855 268.392 326.648C268.721 326.44 269.104 326.336 269.539 326.336C269.975 326.336 270.357 326.44 270.683 326.648C271.012 326.855 271.268 327.146 271.45 327.521C271.635 327.896 271.727 328.335 271.727 328.838C271.727 329.337 271.635 329.773 271.45 330.145C271.268 330.518 271.012 330.809 270.683 331.016C270.357 331.223 269.975 331.327 269.539 331.327ZM269.539 330.661C269.87 330.661 270.143 330.576 270.357 330.406C270.57 330.237 270.728 330.013 270.831 329.737C270.934 329.46 270.985 329.161 270.985 328.838C270.985 328.515 270.934 328.215 270.831 327.936C270.728 327.657 270.57 327.432 270.357 327.26C270.143 327.089 269.87 327.003 269.539 327.003C269.208 327.003 268.936 327.089 268.722 327.26C268.509 327.432 268.35 327.657 268.248 327.936C268.145 328.215 268.094 328.515 268.094 328.838C268.094 329.161 268.145 329.46 268.248 329.737C268.35 330.013 268.509 330.237 268.722 330.406C268.936 330.576 269.208 330.661 269.539 330.661ZM274.958 326.399V327.028H272.457V326.399H274.958ZM273.186 325.243H273.928V329.844C273.928 330.053 273.958 330.21 274.019 330.315C274.082 330.418 274.161 330.487 274.258 330.523C274.356 330.556 274.46 330.573 274.569 330.573C274.65 330.573 274.717 330.569 274.77 330.56C274.822 330.55 274.864 330.541 274.895 330.535L275.046 331.201C274.996 331.22 274.926 331.239 274.836 331.258C274.746 331.279 274.632 331.289 274.493 331.289C274.284 331.289 274.078 331.244 273.877 331.154C273.678 331.064 273.513 330.927 273.381 330.743C273.251 330.558 273.186 330.326 273.186 330.045V325.243ZM276.074 331.227V326.399H276.816V331.227H276.074ZM276.451 325.595C276.307 325.595 276.182 325.546 276.077 325.447C275.975 325.349 275.923 325.23 275.923 325.092C275.923 324.954 275.975 324.835 276.077 324.737C276.182 324.638 276.307 324.589 276.451 324.589C276.596 324.589 276.719 324.638 276.822 324.737C276.927 324.835 276.979 324.954 276.979 325.092C276.979 325.23 276.927 325.349 276.822 325.447C276.719 325.546 276.596 325.595 276.451 325.595ZM280.135 331.327C279.683 331.327 279.293 331.22 278.966 331.007C278.639 330.793 278.388 330.498 278.212 330.123C278.036 329.748 277.948 329.32 277.948 328.838C277.948 328.348 278.038 327.915 278.218 327.54C278.4 327.163 278.654 326.869 278.979 326.657C279.306 326.443 279.687 326.336 280.123 326.336C280.462 326.336 280.768 326.399 281.04 326.525C281.313 326.651 281.536 326.827 281.71 327.053C281.884 327.279 281.992 327.543 282.033 327.845H281.292C281.235 327.625 281.11 327.43 280.915 327.26C280.722 327.089 280.462 327.003 280.135 327.003C279.846 327.003 279.593 327.078 279.375 327.229C279.159 327.378 278.99 327.588 278.869 327.861C278.749 328.131 278.69 328.448 278.69 328.813C278.69 329.186 278.748 329.511 278.866 329.787C278.985 330.064 279.153 330.278 279.368 330.431C279.586 330.584 279.842 330.661 280.135 330.661C280.328 330.661 280.503 330.627 280.66 330.56C280.817 330.493 280.95 330.397 281.059 330.271C281.168 330.145 281.246 329.995 281.292 329.819H282.033C281.992 330.104 281.888 330.36 281.722 330.589C281.559 330.815 281.342 330.995 281.072 331.129C280.804 331.261 280.491 331.327 280.135 331.327ZM285.607 333.037V326.399H286.323V327.166H286.411C286.466 327.082 286.541 326.975 286.638 326.846C286.736 326.714 286.876 326.596 287.059 326.494C287.243 326.389 287.492 326.336 287.807 326.336C288.213 326.336 288.571 326.438 288.882 326.641C289.192 326.845 289.434 327.133 289.608 327.506C289.781 327.878 289.868 328.318 289.868 328.825C289.868 329.337 289.781 329.78 289.608 330.155C289.434 330.528 289.193 330.817 288.885 331.022C288.577 331.226 288.222 331.327 287.819 331.327C287.509 331.327 287.261 331.276 287.074 331.173C286.888 331.068 286.744 330.95 286.644 330.818C286.543 330.684 286.466 330.573 286.411 330.485H286.348V333.037H285.607ZM286.336 328.813C286.336 329.177 286.389 329.499 286.496 329.778C286.603 330.054 286.759 330.271 286.964 330.428C287.17 330.583 287.421 330.661 287.719 330.661C288.029 330.661 288.288 330.579 288.495 330.416C288.705 330.25 288.862 330.028 288.966 329.749C289.073 329.469 289.127 329.157 289.127 328.813C289.127 328.474 289.074 328.168 288.97 327.895C288.867 327.621 288.711 327.404 288.501 327.245C288.294 327.083 288.033 327.003 287.719 327.003C287.417 327.003 287.164 327.079 286.958 327.232C286.753 327.383 286.598 327.595 286.493 327.867C286.388 328.137 286.336 328.453 286.336 328.813ZM293.024 331.327C292.559 331.327 292.157 331.224 291.82 331.019C291.485 330.812 291.226 330.523 291.044 330.152C290.864 329.779 290.773 329.345 290.773 328.851C290.773 328.356 290.864 327.92 291.044 327.543C291.226 327.164 291.48 326.869 291.804 326.657C292.131 326.443 292.512 326.336 292.948 326.336C293.2 326.336 293.448 326.378 293.693 326.462C293.938 326.546 294.161 326.682 294.363 326.871C294.564 327.057 294.724 327.304 294.843 327.612C294.963 327.92 295.022 328.3 295.022 328.75V329.064H291.301V328.423H294.268C294.268 328.151 294.214 327.908 294.105 327.694C293.998 327.48 293.845 327.312 293.646 327.188C293.449 327.065 293.216 327.003 292.948 327.003C292.653 327.003 292.397 327.076 292.181 327.223C291.968 327.367 291.803 327.556 291.688 327.788C291.573 328.021 291.515 328.27 291.515 328.536V328.964C291.515 329.328 291.578 329.637 291.704 329.891C291.832 330.142 292.009 330.334 292.235 330.466C292.461 330.596 292.724 330.661 293.024 330.661C293.219 330.661 293.395 330.634 293.552 330.579C293.711 330.523 293.848 330.439 293.963 330.328C294.079 330.215 294.168 330.074 294.231 329.907L294.947 330.108C294.872 330.351 294.745 330.564 294.567 330.749C294.389 330.931 294.169 331.074 293.907 331.176C293.645 331.277 293.351 331.327 293.024 331.327ZM298.25 326.399V327.028H295.748V326.399H298.25ZM296.478 325.243H297.219V329.844C297.219 330.053 297.25 330.21 297.31 330.315C297.373 330.418 297.453 330.487 297.549 330.523C297.648 330.556 297.751 330.573 297.86 330.573C297.942 330.573 298.009 330.569 298.062 330.56C298.114 330.55 298.156 330.541 298.187 330.535L298.338 331.201C298.288 331.22 298.218 331.239 298.128 331.258C298.037 331.279 297.923 331.289 297.785 331.289C297.575 331.289 297.37 331.244 297.169 331.154C296.97 331.064 296.804 330.927 296.672 330.743C296.543 330.558 296.478 330.326 296.478 330.045V325.243Z" fill="#678E40"/>
<path d="M376.19 302.28C375.899 303.914 374.48 305.108 372.812 305.108H236.517C234.387 305.108 232.774 303.183 233.14 301.086C233.43 299.451 234.85 298.258 236.517 298.258H372.812C374.942 298.258 376.555 300.183 376.19 302.28Z" fill="white"/>
<path d="M315.302 302.024C315.141 302.938 314.345 303.605 313.409 303.605H236.926C235.732 303.605 234.828 302.529 235.033 301.346C235.194 300.432 235.99 299.766 236.926 299.766H313.409C314.603 299.766 315.506 300.852 315.302 302.024Z" fill="url(#paint7_linear_563_4714)"/>
<path d="M510.592 354.765C509.646 352.808 507.043 349.27 501.988 347.001C498.073 345.237 493.932 345.345 493.932 345.345H355.173C345.611 345.345 336.491 353.098 334.813 362.658C334.071 366.873 334.899 370.723 336.867 373.723L339.545 377.552V377.519C342.105 381.036 346.289 383.262 351.387 383.262H489.716C500.934 383.262 509.205 375.584 511.56 366.949C513.324 360.475 511.216 356.055 510.582 354.754L510.592 354.765Z" fill="white"/>
<path d="M487.543 379.604H349.698C340.352 379.604 334.114 372.033 335.759 362.689C337.405 353.344 346.321 345.773 355.668 345.773H493.512C502.859 345.773 509.097 353.344 507.452 362.689C505.806 372.033 496.89 379.604 487.543 379.604Z" fill="#93C9C8"/>
<path d="M503.418 362.689C502.085 370.249 494.878 376.378 487.306 376.378C479.734 376.378 474.69 370.249 476.024 362.689C477.357 355.129 484.564 349 492.136 349C499.708 349 504.752 355.129 503.418 362.689Z" fill="#F9F5F2"/>
<path d="M354.28 360.112C354.237 359.743 354.059 359.457 353.749 359.253C353.438 359.049 353.057 358.947 352.606 358.947C352.276 358.947 351.987 359 351.739 359.107C351.494 359.214 351.303 359.361 351.164 359.548C351.028 359.734 350.96 359.947 350.96 360.185C350.96 360.384 351.008 360.555 351.102 360.698C351.2 360.839 351.323 360.956 351.474 361.051C351.624 361.143 351.782 361.22 351.947 361.28C352.112 361.339 352.264 361.386 352.402 361.422L353.159 361.626C353.353 361.677 353.569 361.747 353.807 361.837C354.047 361.927 354.277 362.05 354.495 362.205C354.716 362.358 354.898 362.554 355.041 362.795C355.184 363.035 355.256 363.33 355.256 363.679C355.256 364.082 355.15 364.446 354.939 364.771C354.731 365.096 354.425 365.355 354.022 365.547C353.621 365.738 353.135 365.834 352.562 365.834C352.028 365.834 351.566 365.748 351.175 365.576C350.787 365.403 350.481 365.163 350.258 364.855C350.037 364.547 349.912 364.189 349.883 363.781H350.815C350.839 364.063 350.934 364.296 351.099 364.48C351.266 364.662 351.477 364.798 351.732 364.888C351.989 364.975 352.266 365.019 352.562 365.019C352.907 365.019 353.216 364.963 353.49 364.851C353.765 364.737 353.982 364.58 354.142 364.378C354.302 364.174 354.382 363.936 354.382 363.665C354.382 363.417 354.313 363.216 354.175 363.06C354.036 362.905 353.854 362.779 353.629 362.682C353.403 362.585 353.159 362.5 352.897 362.427L351.98 362.165C351.397 361.997 350.936 361.758 350.596 361.448C350.257 361.137 350.087 360.731 350.087 360.228C350.087 359.811 350.2 359.447 350.425 359.136C350.653 358.823 350.959 358.58 351.343 358.408C351.729 358.233 352.159 358.146 352.635 358.146C353.115 358.146 353.543 358.232 353.916 358.405C354.29 358.574 354.586 358.807 354.805 359.103C355.025 359.4 355.142 359.736 355.154 360.112H354.28ZM359.032 365.822C358.482 365.822 358.008 365.701 357.609 365.458C357.213 365.213 356.907 364.871 356.692 364.433C356.479 363.992 356.372 363.479 356.372 362.895C356.372 362.311 356.479 361.795 356.692 361.35C356.907 360.902 357.207 360.552 357.591 360.302C357.977 360.05 358.428 359.923 358.943 359.923C359.24 359.923 359.533 359.973 359.823 360.072C360.113 360.171 360.377 360.332 360.614 360.555C360.852 360.775 361.041 361.067 361.183 361.431C361.324 361.795 361.394 362.244 361.394 362.776V363.148H356.996V362.39H360.503C360.503 362.068 360.438 361.781 360.31 361.528C360.183 361.275 360.003 361.076 359.767 360.93C359.535 360.784 359.26 360.711 358.943 360.711C358.594 360.711 358.291 360.798 358.036 360.971C357.784 361.142 357.589 361.365 357.453 361.639C357.317 361.914 357.249 362.209 357.249 362.524V363.029C357.249 363.46 357.323 363.825 357.472 364.124C357.623 364.422 357.832 364.648 358.1 364.804C358.367 364.958 358.678 365.035 359.032 365.035C359.262 365.035 359.47 365.002 359.656 364.938C359.844 364.871 360.006 364.772 360.143 364.641C360.279 364.507 360.384 364.341 360.458 364.143L361.305 364.381C361.216 364.668 361.066 364.921 360.856 365.139C360.645 365.354 360.385 365.522 360.076 365.644C359.766 365.763 359.418 365.822 359.032 365.822ZM364.407 365.837C364.045 365.837 363.717 365.769 363.422 365.633C363.128 365.494 362.894 365.295 362.72 365.035C362.547 364.772 362.46 364.455 362.46 364.084C362.46 363.757 362.525 363.492 362.654 363.289C362.782 363.083 362.954 362.922 363.17 362.806C363.385 362.689 363.623 362.603 363.883 362.546C364.145 362.486 364.409 362.439 364.674 362.405C365.021 362.36 365.302 362.327 365.517 362.304C365.735 362.28 365.894 362.239 365.993 362.182C366.094 362.125 366.145 362.026 366.145 361.885V361.855C366.145 361.488 366.045 361.204 365.844 361.001C365.646 360.798 365.345 360.696 364.942 360.696C364.523 360.696 364.195 360.788 363.957 360.971C363.72 361.154 363.552 361.35 363.456 361.558L362.624 361.261C362.772 360.914 362.97 360.644 363.218 360.451C363.468 360.255 363.741 360.119 364.035 360.042C364.332 359.963 364.625 359.923 364.912 359.923C365.095 359.923 365.306 359.946 365.543 359.99C365.784 360.032 366.015 360.12 366.238 360.254C366.463 360.388 366.65 360.59 366.799 360.859C366.947 361.129 367.022 361.491 367.022 361.944V365.703H366.145V364.931H366.101C366.041 365.054 365.942 365.187 365.803 365.328C365.665 365.469 365.48 365.589 365.25 365.688C365.02 365.787 364.739 365.837 364.407 365.837ZM364.54 365.049C364.887 365.049 365.179 364.981 365.417 364.845C365.657 364.709 365.838 364.533 365.959 364.318C366.083 364.102 366.145 363.876 366.145 363.638V362.836C366.108 362.88 366.026 362.921 365.9 362.958C365.776 362.993 365.633 363.024 365.469 363.051C365.308 363.076 365.151 363.098 364.997 363.118C364.846 363.135 364.724 363.15 364.63 363.162C364.402 363.192 364.189 363.24 363.991 363.307C363.795 363.372 363.637 363.469 363.515 363.601C363.396 363.729 363.337 363.905 363.337 364.128C363.337 364.433 363.45 364.663 363.675 364.819C363.903 364.973 364.191 365.049 364.54 365.049ZM368.622 365.703V359.998H369.469V360.859H369.528C369.632 360.577 369.82 360.348 370.093 360.172C370.365 359.996 370.672 359.909 371.014 359.909C371.078 359.909 371.159 359.91 371.255 359.912C371.352 359.915 371.425 359.918 371.474 359.923V360.815C371.445 360.807 371.377 360.796 371.27 360.781C371.166 360.764 371.056 360.755 370.94 360.755C370.662 360.755 370.415 360.814 370.197 360.93C369.981 361.044 369.81 361.202 369.684 361.405C369.56 361.606 369.498 361.835 369.498 362.093V365.703H368.622ZM374.658 365.822C374.123 365.822 373.662 365.696 373.276 365.443C372.89 365.191 372.593 364.843 372.385 364.399C372.177 363.956 372.073 363.45 372.073 362.88C372.073 362.301 372.179 361.789 372.392 361.346C372.607 360.9 372.907 360.552 373.291 360.302C373.677 360.05 374.128 359.923 374.643 359.923C375.044 359.923 375.406 359.998 375.728 360.146C376.05 360.295 376.313 360.503 376.519 360.77C376.724 361.038 376.852 361.35 376.901 361.706H376.025C375.958 361.446 375.809 361.216 375.579 361.015C375.351 360.812 375.044 360.711 374.658 360.711C374.316 360.711 374.016 360.8 373.759 360.978C373.504 361.154 373.304 361.403 373.161 361.725C373.02 362.044 372.949 362.42 372.949 362.85C372.949 363.291 373.018 363.675 373.157 364.002C373.298 364.329 373.496 364.583 373.751 364.763C374.009 364.944 374.311 365.035 374.658 365.035C374.886 365.035 375.092 364.995 375.278 364.916C375.464 364.836 375.621 364.722 375.75 364.574C375.879 364.425 375.97 364.247 376.025 364.039H376.901C376.852 364.376 376.729 364.679 376.534 364.949C376.34 365.217 376.084 365.429 375.765 365.588C375.448 365.744 375.079 365.822 374.658 365.822ZM379.059 362.271V365.703H378.183V358.096H379.059V360.889H379.134C379.267 360.594 379.468 360.36 379.736 360.187C380.005 360.011 380.365 359.923 380.813 359.923C381.202 359.923 381.542 360.001 381.834 360.157C382.126 360.311 382.353 360.547 382.514 360.867C382.677 361.184 382.759 361.587 382.759 362.078V365.703H381.882V362.137C381.882 361.684 381.765 361.334 381.53 361.086C381.297 360.836 380.974 360.711 380.56 360.711C380.273 360.711 380.015 360.772 379.788 360.893C379.562 361.014 379.384 361.191 379.253 361.424C379.124 361.657 379.059 361.939 379.059 362.271ZM385.002 365.763C384.818 365.763 384.661 365.697 384.53 365.566C384.399 365.434 384.333 365.277 384.333 365.094C384.333 364.911 384.399 364.753 384.53 364.622C384.661 364.491 384.818 364.425 385.002 364.425C385.185 364.425 385.342 364.491 385.473 364.622C385.605 364.753 385.67 364.911 385.67 365.094C385.67 365.215 385.639 365.327 385.577 365.428C385.518 365.53 385.438 365.612 385.336 365.673C385.237 365.733 385.126 365.763 385.002 365.763ZM387.882 365.763C387.699 365.763 387.542 365.697 387.411 365.566C387.279 365.434 387.214 365.277 387.214 365.094C387.214 364.911 387.279 364.753 387.411 364.622C387.542 364.491 387.699 364.425 387.882 364.425C388.066 364.425 388.223 364.491 388.354 364.622C388.485 364.753 388.551 364.911 388.551 365.094C388.551 365.215 388.52 365.327 388.458 365.428C388.399 365.53 388.318 365.612 388.217 365.673C388.118 365.733 388.006 365.763 387.882 365.763ZM390.763 365.763C390.58 365.763 390.422 365.697 390.291 365.566C390.16 365.434 390.094 365.277 390.094 365.094C390.094 364.911 390.16 364.753 390.291 364.622C390.422 364.491 390.58 364.425 390.763 364.425C390.946 364.425 391.103 364.491 391.235 364.622C391.366 364.753 391.432 364.911 391.432 365.094C391.432 365.215 391.401 365.327 391.339 365.428C391.279 365.53 391.199 365.612 391.097 365.673C390.998 365.733 390.887 365.763 390.763 365.763Z" fill="white"/>
<path d="M494.739 356.114C492.372 353.243 487.694 353.243 484.306 356.114C480.917 358.985 480.1 363.663 482.466 366.545C484.596 369.137 488.608 369.384 491.856 367.309L494.373 370.363C494.749 370.825 495.502 370.825 496.051 370.363C496.599 369.9 496.728 369.147 496.341 368.685L493.824 365.631C496.406 362.749 496.868 358.706 494.739 356.114ZM491.523 364.868C489.232 366.814 486.048 366.814 484.445 364.868C482.843 362.921 483.402 359.738 485.693 357.792C487.984 355.845 491.168 355.835 492.77 357.792C494.373 359.738 493.814 362.921 491.523 364.868Z" fill="#4D9895"/>
<path style="mix-blend-mode:soft-light" d="M441.788 247.16H416.609C404.81 247.16 396.937 237.6 399.013 225.804L403.455 200.63C405.531 188.833 416.792 179.273 428.591 179.273H453.77C465.569 179.273 473.442 188.833 471.366 200.63L466.924 225.804C464.849 237.6 453.587 247.16 441.788 247.16Z" fill="url(#paint8_linear_563_4714)"/>
<path d="M436.841 239.136H414.232C403.638 239.136 396.561 230.544 398.432 219.952L402.423 197.348C404.294 186.756 414.394 178.164 424.988 178.164H447.596C458.191 178.164 465.268 186.756 463.397 197.348L459.406 219.952C457.535 230.544 447.435 239.136 436.841 239.136Z" fill="white"/>
<g style="mix-blend-mode:screen" opacity="0.8">
<path d="M436.841 239.136H414.232C403.638 239.136 396.561 230.544 398.432 219.952L402.423 197.348C404.294 186.756 414.394 178.164 424.988 178.164H447.596C458.191 178.164 465.268 186.756 463.397 197.348L459.406 219.952C457.535 230.544 447.435 239.136 436.841 239.136Z" fill="#EDA264"/>
</g>
<path d="M447.941 208.156L434.636 191.768C434.281 191.338 433.593 191.338 433.087 191.768L414.007 208.156C413.652 208.457 413.781 208.973 414.2 208.973H417.029C417.631 208.973 418.04 209.468 417.932 210.07L415.598 223.286C415.523 223.738 415.813 224.093 416.265 224.093H423.138C423.59 224.093 424.009 223.727 424.095 223.286L425.547 215.071C425.612 214.716 425.945 214.436 426.289 214.436H433.442C433.797 214.436 434.023 214.716 433.969 215.071L432.517 223.286C432.442 223.738 432.732 224.093 433.184 224.093H440.067C440.519 224.093 440.939 223.727 441.025 223.286L443.359 210.07C443.466 209.468 444.036 208.973 444.649 208.973H447.478C447.908 208.973 448.209 208.457 447.962 208.156H447.941Z" fill="#F9CC3D"/>
<path style="mix-blend-mode:soft-light" d="M137.081 366.222H111.902C100.103 366.222 92.2298 356.662 94.3057 344.866L98.7477 319.692C100.824 307.896 112.085 298.336 123.884 298.336H149.063C160.862 298.336 168.735 307.896 166.659 319.692L162.217 344.866C160.141 356.662 148.88 366.222 137.081 366.222Z" fill="url(#paint9_linear_563_4714)"/>
<path d="M132.122 358.206H109.514C98.9196 358.206 91.8424 349.614 93.7139 339.022L97.7042 316.418C99.5757 305.826 109.675 297.234 120.27 297.234H142.878C153.472 297.234 160.55 305.826 158.678 316.418L154.688 339.022C152.816 349.614 142.717 358.206 132.122 358.206Z" fill="#93C9C8"/>
<g style="mix-blend-mode:screen" opacity="0.8">
<path d="M132.122 358.206H109.514C98.9196 358.206 91.8424 349.614 93.7139 339.022L97.7042 316.418C99.5757 305.826 109.675 297.234 120.27 297.234H142.878C153.472 297.234 160.55 305.826 158.678 316.418L154.688 339.022C152.816 349.614 142.717 358.206 132.122 358.206Z" fill="#EDA264"/>
</g>
<path d="M122.174 315.226L139.705 326.495C140.501 327.012 140.275 328.291 139.297 328.807L117.785 340.077C116.807 340.593 115.806 339.948 115.989 338.926L119.969 316.387C120.152 315.366 121.378 314.72 122.174 315.237V315.226Z" fill="white"/>
<path style="mix-blend-mode:soft-light" d="M251.263 101.683H226.084C214.285 101.683 206.412 92.1235 208.488 80.3269L212.93 55.1532C215.005 43.3567 226.267 33.7969 238.066 33.7969H263.245C275.044 33.7969 282.917 43.3567 280.841 55.1532L276.399 80.3269C274.323 92.1235 263.062 101.683 251.263 101.683Z" fill="url(#paint10_linear_563_4714)"/>
<path d="M246.304 93.6594H223.696C213.102 93.6594 206.025 85.0674 207.896 74.4753L211.886 51.8716C213.758 41.2795 223.857 32.6875 234.452 32.6875H257.06C267.654 32.6875 274.732 41.2795 272.86 51.8716L268.87 74.4753C266.998 85.0674 256.899 93.6594 246.304 93.6594Z" fill="#93C9C8"/>
<g style="mix-blend-mode:screen" opacity="0.8">
<path d="M246.304 93.6594H223.696C213.102 93.6594 206.025 85.0674 207.896 74.4753L211.886 51.8716C213.758 41.2795 223.857 32.6875 234.452 32.6875H257.06C267.654 32.6875 274.732 41.2795 272.86 51.8716L268.87 74.4753C266.998 85.0674 256.899 93.6594 246.304 93.6594Z" fill="#EDA264"/>
</g>
<path d="M247.133 73.5655C247.606 73.5655 248.025 73.1568 248.079 72.6944C248.66 66.8983 244.616 62.3281 238.7 62.3281C232.785 62.3281 227.138 66.8983 225.664 72.6944C225.546 73.1568 225.836 73.5655 226.299 73.5655H247.133Z" fill="white"/>
<path d="M245.003 56.0611C244.498 58.9323 241.766 61.255 238.894 61.255C236.022 61.255 234.108 58.9323 234.613 56.0611C235.119 53.1899 237.851 50.8672 240.722 50.8672C243.594 50.8672 245.509 53.1899 245.003 56.0611Z" fill="white"/>
<mask id="mask0_563_4714" style="mask-type:luminance" maskUnits="userSpaceOnUse" x="199" y="90" width="175" height="151">
<path d="M340.503 240.838H205.756C201.658 240.838 198.926 237.515 199.647 233.418L223.567 97.7636C224.288 93.6666 228.192 90.3438 232.29 90.3438H367.037C371.135 90.3438 373.867 93.6666 373.146 97.7636L349.225 233.418C348.505 237.515 344.6 240.838 340.503 240.838Z" fill="white"/>
</mask>
<g mask="url(#mask0_563_4714)">
<path d="M394.238 272.957C393.367 271.333 385.999 272.022 375.114 268.634C364.23 265.247 357.443 250.956 346.999 233.653C338.093 218.9 329.381 217.437 327.015 217.33C327.456 215.749 327.886 214.104 328.306 212.351C331.522 198.887 328.091 170.262 327.316 163.788C327.219 162.993 327.284 162.165 327.51 161.358C334.609 135.679 323.197 107.107 307.859 108.301C302.137 108.742 297.76 111.355 288.843 111.484C281.11 111.591 278.475 107.172 270.387 108.247C261.126 109.484 248.951 126.549 246.111 134.496C242.841 143.669 241.949 160.552 262.094 166.229C257.297 170.875 250.435 179.413 241.68 195.049C232.301 211.813 231.58 225.19 233.269 227.47C234.957 229.739 236.442 229.201 239.367 228.406C242.293 227.61 241.873 228.728 242.96 229.019C243.39 229.137 244.164 228.997 244.949 228.782C245.068 229.664 245.208 230.492 245.39 231.245C248.015 242.256 256.34 246.676 256.34 246.676C256.34 246.676 254.705 265.656 253.274 270.452C251.844 275.248 249.671 275.936 247.757 276.656C246.208 277.237 243.53 279.13 243.454 281.807C243.358 285.281 247.047 285.345 247.585 285.356C248.122 285.367 251.155 284.872 252.597 286.238C254.038 287.603 257.975 286.324 259.093 286.076C260.201 285.829 260.599 286.904 263.299 286.947C265.987 286.99 267.364 286.743 268.784 286.227C270.193 285.711 272.409 284.28 272.409 284.28C272.71 285.291 273.818 286.388 276.646 286.958C279.142 287.463 279.249 286.668 281.938 286.711C284.39 286.754 283.637 288.109 288.069 288.281C289.822 288.345 291.253 287.496 292.898 287.42C293.651 287.388 295.888 289.345 300.029 288.603C308.053 287.173 309.881 284.184 310.441 283.151C310.731 282.603 311.183 277.301 311.656 270.946C327.155 293.389 367.306 286.678 380.299 282.915C393.463 279.108 395.12 274.581 394.249 272.968L394.238 272.957Z" stroke="white" stroke-width="18" stroke-linecap="round" stroke-linejoin="round"/>
<path d="M326.381 217.338C326.381 217.338 336.555 216.37 346.999 233.662C357.443 250.964 364.23 265.255 375.114 268.643C385.999 272.03 393.367 271.342 394.238 272.965C395.109 274.589 393.442 279.106 380.288 282.912C367.134 286.719 326.079 293.569 311.043 270.04L311.581 244.888L326.381 217.338Z" fill="url(#paint11_linear_563_4714)" stroke="#543816" stroke-width="3.24" stroke-linecap="round" stroke-linejoin="round"/>
<path d="M270.139 160.714C270.139 160.714 260.05 162.241 241.69 195.06C232.312 211.825 231.591 225.202 233.28 227.482C234.968 229.751 236.452 229.213 239.378 228.417C242.304 227.622 241.884 228.74 242.97 229.03C244.067 229.331 247.348 227.977 247.348 227.977C247.348 227.977 257.587 183.522 270.139 160.703V160.714Z" fill="#F9CC3D" stroke="#543816" stroke-width="3.4" stroke-linecap="round" stroke-linejoin="round"/>
<path d="M272.409 284.294C272.71 285.305 273.818 286.402 276.646 286.972C279.142 287.477 279.249 286.682 281.938 286.725C284.391 286.768 283.638 288.122 288.069 288.295C289.822 288.359 291.253 287.51 292.898 287.434C293.651 287.402 295.888 289.359 300.029 288.617C308.053 287.187 309.881 284.197 310.441 283.165C311.151 281.842 312.818 252.152 313.366 247.872C313.915 243.603 322.412 237.087 328.317 212.375C331.533 198.912 328.101 170.286 327.327 163.813C327.23 163.017 327.295 162.189 327.521 161.383C334.619 135.703 323.208 107.132 307.87 108.325C302.148 108.766 297.771 111.379 288.854 111.508C281.121 111.616 277.969 108.121 269.87 109.196C260.61 110.433 248.951 126.574 246.122 134.521C242.68 144.188 241.852 162.426 265.525 167.082C265.525 167.082 262.815 169.469 262.148 170.243C250.553 191.213 243.487 209.429 245.369 229.409C246.445 240.84 256.351 246.711 256.351 246.711C256.351 246.711 254.716 265.691 253.285 270.487C251.855 275.283 249.682 275.971 247.768 276.692C246.219 277.272 243.541 279.165 243.465 281.842C243.368 285.316 247.058 285.38 247.595 285.391C248.133 285.402 251.166 284.907 252.608 286.273C254.049 287.639 257.985 286.359 259.104 286.112C260.212 285.864 260.61 286.94 263.309 286.983C266.009 287.026 267.375 286.778 268.795 286.262C270.215 285.746 272.419 284.316 272.419 284.316L272.409 284.294Z" fill="#F9CC3D"/>
<path d="M244.519 141.046C244.519 141.046 253.274 144.918 257.684 144.186C262.094 143.455 270.623 135.82 286.079 141.423C301.535 147.025 312.204 136.433 316.571 140.67C320.938 144.918 311.301 163.231 313.667 172.102C316.033 180.974 325.789 245.624 286.498 251.301C286.498 251.301 252.091 259.463 245.218 229.515C238.345 199.556 264.482 166.779 264.482 166.779C264.482 166.779 241.723 163.478 244.519 141.046Z" fill="#F9F7ED"/>
<path d="M265.525 167.07C265.525 167.07 269.623 168.737 287.552 167.683" stroke="#543816" stroke-width="3.24" stroke-linecap="round" stroke-linejoin="round"/>
<path d="M249.768 156.506C249.768 156.506 256.103 155.27 255.468 144.688C255.21 140.398 251.327 137.226 246.95 137.591C246.95 137.591 243.745 148.915 249.768 156.506Z" fill="#FC9470"/>
<path d="M263.03 123.657C265.106 124.109 264.6 127.668 263.847 131.969C262.825 137.841 260.19 139.411 259.082 139.658C256.824 140.163 255.63 137.195 256.652 131.324C257.587 125.98 260.405 123.087 263.03 123.657Z" fill="#543816" stroke="#543816" stroke-width="2.74" stroke-miterlimit="10"/>
<path d="M301.083 127.472C299.814 130.02 299.05 134.967 299.169 138.15C299.233 139.752 302.051 143.011 305.418 139.86C308.795 136.698 309.118 127.87 307.235 125.697C305.751 123.977 302.535 124.558 301.073 127.472H301.083Z" fill="#543816" stroke="#543816" stroke-width="2.74" stroke-miterlimit="10"/>
<path d="M327.51 161.367C327.51 161.367 324.229 186.466 322.541 197.413C320.863 208.36 315.56 226.479 308.042 232.523C300.524 238.566 300.707 232.942 299.663 232.662C298.62 232.383 294.404 235.792 292.726 234.157C291.048 232.523 292.425 232.275 290.037 231.974C287.649 231.673 283.541 232.135 287.133 225.232C290.715 218.328 303.116 186.939 305.429 177.336" fill="#F9CC3D"/>
<path d="M327.51 161.367C327.51 161.367 324.229 186.466 322.541 197.413C320.863 208.36 315.56 226.479 308.042 232.523C300.524 238.566 300.707 232.942 299.663 232.662C298.62 232.383 294.404 235.792 292.726 234.157C291.048 232.523 292.425 232.275 290.037 231.974C287.649 231.673 283.541 232.135 287.133 225.232C290.715 218.328 303.116 186.939 305.429 177.336" stroke="#543816" stroke-width="3.24" stroke-linecap="round" stroke-linejoin="round"/>
<path d="M315.808 154.948C315.808 154.948 309.914 170.616 304.815 180.014L315.743 171.734L316.776 153.281L315.808 154.948Z" fill="#F9CC3D"/>
<path d="M327.51 161.367C327.51 161.367 324.229 186.466 322.541 197.413C320.863 208.36 315.56 226.479 308.042 232.523C300.524 238.566 300.707 232.942 299.663 232.662C298.62 232.383 294.404 235.792 292.726 234.157C291.048 232.523 292.425 232.275 290.037 231.974C287.649 231.673 283.541 232.135 287.133 225.232C290.715 218.328 303.116 186.939 305.429 177.336" stroke="#543816" stroke-width="3.24" stroke-linecap="round" stroke-linejoin="round"/>
<path d="M312.312 137.69C317.593 137.239 322.96 142.68 321.433 148.541C320.261 153.057 315.41 156.208 310.989 156.401C307.902 156.541 304.224 155.261 302.89 152.261C300.599 147.067 306.02 138.228 312.312 137.69Z" fill="#FC9470"/>
<path d="M245.208 144.794C245.208 144.794 248.251 150.73 257.802 149.547C263.557 148.837 267.665 146.224 277.55 146.913C289.048 147.719 288.671 150.569 297.555 150.709C306.429 150.848 314.259 144.547 314.259 144.547" stroke="#543816" stroke-width="3.24" stroke-linecap="round" stroke-linejoin="round"/>
<g opacity="0.71">
<path d="M273.151 115.402C272.903 114.241 271.451 113.8 269.956 113.649C269.773 113.51 269.537 113.413 269.236 113.402C268.569 113.381 267.913 113.456 267.278 113.617C267.214 113.617 267.138 113.617 267.074 113.628C266.708 113.649 266.396 113.789 266.16 114.004C266.138 114.004 266.117 114.026 266.095 114.036C265.267 114.338 264.579 114.918 264.396 115.951C263.976 118.252 267.3 118.177 268.87 118.112C270.301 118.058 273.624 117.542 273.151 115.391V115.402Z" fill="#FFAD1D"/>
<path d="M284.164 116.193C283.229 115.795 282.271 115.418 281.303 115.074C280.475 114.784 279.583 114.375 278.636 114.536C276.98 114.816 275.442 116.451 275.108 118.01C274.936 118.806 275.721 119.472 276.485 119.365C276.614 119.419 276.765 119.451 276.937 119.462C279.378 119.601 281.787 119.773 284.175 118.644C285.369 118.074 285.111 116.601 284.175 116.193H284.164Z" fill="#FFAD1D"/>
<path d="M290.79 113.091C290.026 113.156 289.252 113.188 288.499 113.177C287.929 113.177 287.37 113.188 286.8 113.177C286.746 113.177 286.692 113.177 286.638 113.177C286.574 113.242 286.499 113.306 286.434 113.371C285.993 113.855 286.133 114.575 286.434 114.995C287.305 116.188 288.392 116.608 289.747 116.349C290.113 116.371 290.5 116.263 290.79 116.048C290.801 116.048 290.812 116.048 290.822 116.038C292.102 115.543 294.114 114.543 294.318 112.994C294.329 112.908 294.329 112.833 294.329 112.758C293.146 112.908 291.962 113.016 290.779 113.091H290.79Z" fill="#FFAD1D"/>
<path d="M273.032 109.766C272.753 110.282 272.86 110.873 273.42 111.282C274.474 112.045 275.797 112.314 277.173 112.067C277.797 111.949 278.217 111.432 278.346 110.884C276.657 110.325 274.839 109.959 273.032 109.766Z" fill="#FFAD1D"/>
<path d="M306.945 115.121C306.848 114.024 305.611 113.39 304.708 113.035C303.568 112.594 302.169 113.164 300.986 113.562C299.567 114.035 298.147 114.583 296.792 115.271C295.888 115.734 294.963 116.433 295.157 117.519C295.35 118.583 296.641 118.874 297.609 118.852C299.029 118.82 300.545 118.497 301.965 118.282C302.858 118.143 303.686 117.928 304.45 117.497C304.654 117.497 304.869 117.444 305.095 117.325C306.085 116.82 307.053 116.411 306.945 115.132V115.121Z" fill="#FFAD1D"/>
<path d="M310.882 110.365C310.753 110.322 310.623 110.279 310.494 110.236C310.494 110.215 310.494 110.193 310.494 110.172C308.87 110.01 307.171 109.978 305.536 110.322C305.482 110.333 305.428 110.344 305.375 110.344C305.246 110.397 305.106 110.43 304.955 110.44C304.955 110.44 304.955 110.44 304.944 110.44C304.934 110.817 305.063 111.182 305.418 111.419C305.547 111.57 305.74 111.688 305.988 111.752C306.751 111.957 307.494 112.172 308.236 112.408L309.828 112.935C311.43 113.462 312.452 110.924 310.871 110.365H310.882Z" fill="#FFAD1D"/>
<path d="M319.443 116.327C318.852 115.606 318.206 114.95 317.636 114.208C317.593 114.155 317.561 114.101 317.529 114.047C316.647 113.316 315.679 112.681 314.797 111.961C313.517 112.348 312.495 114.047 312.785 115.219C312.785 115.241 312.796 115.273 312.807 115.294C312.764 115.402 312.732 115.51 312.71 115.628C312.613 116.413 313.162 116.897 313.882 116.983C314.635 117.069 315.399 117.155 316.152 117.241C316.883 117.531 317.733 117.606 318.54 117.434C319.131 117.305 319.475 116.94 319.604 116.531C319.551 116.467 319.497 116.391 319.443 116.327Z" fill="#FFAD1D"/>
<path d="M312.452 117.415C311.828 117.243 311.194 117.114 310.548 117.006C310.451 116.974 310.344 116.952 310.236 116.942C310.021 116.92 309.806 116.888 309.591 116.866C308.881 116.78 308.16 117.512 308.074 118.178C307.988 118.845 308.408 119.318 308.989 119.479C309.032 119.501 309.085 119.512 309.139 119.522C309.892 119.673 310.645 119.823 311.398 119.974C312.097 120.114 312.871 119.802 313.173 119.071C313.452 118.383 313.13 117.598 312.441 117.415H312.452Z" fill="#FFAD1D"/>
<path d="M291.564 117.936C290.575 117.194 288.876 118.355 287.811 118.882C286.434 119.56 286.983 121.345 288.176 121.377C288.435 121.582 288.8 121.668 289.22 121.517C289.435 121.442 289.661 121.356 289.887 121.28C290.908 121.237 291.747 120.775 292.457 119.968C293.156 119.173 292.522 117.893 291.554 117.936H291.564Z" fill="#FFAD1D"/>
<path d="M261.933 117.495C261.373 117.301 260.771 117.075 260.276 116.85C260.255 116.85 260.244 116.839 260.222 116.828C259.384 117.57 258.588 118.344 257.856 119.194C257.985 119.699 258.405 120.065 258.986 120.076C259.738 120.086 260.481 120.097 261.233 120.119C262.782 120.151 263.299 117.979 261.933 117.506V117.495Z" fill="#FFAD1D"/>
</g>
<path d="M272.409 284.293C272.71 285.304 273.818 286.401 276.646 286.971C279.142 287.476 279.249 286.68 281.938 286.723C284.391 286.766 283.638 288.121 288.069 288.293C289.822 288.358 291.253 287.508 292.898 287.433C293.651 287.401 295.888 289.358 300.029 288.616C308.053 287.186 309.881 284.196 310.441 283.164C311.151 281.841 312.818 252.151 313.366 247.871C313.915 243.602 322.412 237.086 328.317 212.374C331.533 198.911 328.101 170.285 327.327 163.812C327.23 163.016 327.295 162.188 327.521 161.381C334.619 135.702 323.208 107.13 307.87 108.324C302.148 108.765 297.771 111.378 288.854 111.507C281.121 111.615 278.486 107.195 270.397 108.27C261.137 109.507 248.961 126.573 246.122 134.519C242.68 144.187 241.852 162.425 265.525 167.081C265.525 167.081 262.815 169.468 262.148 170.242C246.95 194.093 242.766 220.256 245.391 231.279C248.015 242.29 256.34 246.71 256.34 246.71C256.34 246.71 254.705 265.69 253.274 270.486C251.844 275.282 249.671 275.97 247.757 276.69C246.208 277.271 243.53 279.164 243.455 281.841C243.358 285.315 247.047 285.379 247.585 285.39C248.122 285.401 251.156 284.906 252.597 286.272C254.038 287.637 257.975 286.358 259.093 286.11C260.201 285.863 260.599 286.938 263.299 286.982C265.998 287.025 267.364 286.777 268.784 286.261C270.204 285.745 272.409 284.315 272.409 284.315V284.293Z" stroke="#543816" stroke-width="3.24" stroke-linecap="round" stroke-linejoin="round"/>
<g opacity="0.54">
<path d="M328.381 242.35C325.843 245.555 322.831 248.318 319.454 250.63C317.647 251.867 319.658 254.158 321.444 252.932C325.057 250.448 328.241 247.437 330.952 244.006C332.307 242.286 329.725 240.64 328.37 242.339L328.381 242.35Z" fill="#FFE8CF"/>
<path d="M334.286 235.017C333.404 235.038 332.576 235.694 332.468 236.597L332.296 237.952C332.189 238.791 332.823 239.608 333.705 239.576C334.587 239.555 335.415 238.899 335.523 237.995L335.695 236.64C335.802 235.802 335.168 234.984 334.286 235.017Z" fill="#FFE8CF"/>
<path d="M337.201 224.273C336.856 223.951 336.48 223.671 336.136 223.359C335.351 223.585 334.619 224.284 334.662 225.263C334.748 227.145 334.63 229.037 334.35 230.951C334.049 233.016 337.276 233.07 337.577 231.005C337.878 228.951 337.964 226.93 337.9 224.897C337.663 224.693 337.437 224.488 337.201 224.273Z" fill="#FFE8CF"/>
<path d="M343.482 233.814C343.686 231.76 340.46 231.695 340.255 233.76C339.922 237.158 339.083 240.459 337.717 243.707C336.889 245.686 339.889 246.578 340.718 244.61C342.18 241.105 343.116 237.47 343.482 233.814Z" fill="#FFE8CF"/>
<path d="M326.122 230.662C324.778 234.092 323.111 237.383 321.099 240.533C319.927 242.361 322.508 244.028 323.681 242.2C325.853 238.813 327.682 235.253 329.134 231.565C329.919 229.576 326.907 228.672 326.133 230.662H326.122Z" fill="#FFE8CF"/>
<path d="M348.472 239.812C348.16 239.21 347.87 238.63 347.429 238.103C347.429 238.092 347.408 238.081 347.408 238.07C346.612 238.371 346.203 239.232 346.3 239.974C346.3 239.984 346.289 240.006 346.289 240.017C346.149 240.468 346.02 240.92 345.88 241.372C345.751 241.813 345.697 242.21 345.88 242.608C346.031 242.942 346.375 243.264 346.752 243.361C347.504 243.555 348.623 243.157 348.881 242.275C348.999 241.866 349.128 241.447 349.247 241.038C348.956 240.651 348.688 240.243 348.472 239.812Z" fill="#FFE8CF"/>
</g>
</g>
<path d="M116.699 105.914H59.6938C36.2301 105.914 17.209 124.931 17.209 148.39C17.209 171.849 36.2301 190.866 59.6938 190.866H116.699C140.163 190.866 159.184 171.849 159.184 148.39C159.184 124.931 140.163 105.914 116.699 105.914Z" fill="#F9CC3D"/>
<path d="M96.8008 176.242C96.8008 176.242 104.33 198.824 132.294 206.352C132.294 206.352 119.388 185.92 123.69 176.242H96.8008Z" fill="#F9CC3D"/>
<path d="M60.2317 152.689C62.6078 152.689 64.534 150.763 64.534 148.387C64.534 146.012 62.6078 144.086 60.2317 144.086C57.8556 144.086 55.9294 146.012 55.9294 148.387C55.9294 150.763 57.8556 152.689 60.2317 152.689Z" fill="white"/>
<path d="M78.5164 152.689C80.8924 152.689 82.8186 150.763 82.8186 148.387C82.8186 146.012 80.8924 144.086 78.5164 144.086C76.1403 144.086 74.2141 146.012 74.2141 148.387C74.2141 150.763 76.1403 152.689 78.5164 152.689Z" fill="white"/>
<path d="M96.8008 152.689C99.1769 152.689 101.103 150.763 101.103 148.387C101.103 146.012 99.1769 144.086 96.8008 144.086C94.4247 144.086 92.4985 146.012 92.4985 148.387C92.4985 150.763 94.4247 152.689 96.8008 152.689Z" fill="white"/>
<path d="M115.085 152.689C117.462 152.689 119.388 150.763 119.388 148.387C119.388 146.012 117.462 144.086 115.085 144.086C112.709 144.086 110.783 146.012 110.783 148.387C110.783 150.763 112.709 152.689 115.085 152.689Z" fill="white"/>
<path d="M26.3836 66.6172H53.2082C67.7794 66.6172 79.5918 54.8073 79.5918 40.239C79.5918 25.6708 67.7794 13.8609 53.2082 13.8609L26.3836 13.8609C11.8123 13.8609 -3.8147e-05 25.6708 -3.8147e-05 40.239C-3.8147e-05 54.8073 11.8123 66.6172 26.3836 66.6172Z" fill="#F9CC3D"/>
<path d="M35.5259 57.9531C35.5259 57.9531 30.8472 71.9756 13.4875 76.6533C13.4875 76.6533 21.5005 63.9643 18.8331 57.9531H35.5259Z" fill="#F9CC3D"/>
<path d="M39.8819 54.7235H39.7206C39.5808 54.6483 39.4302 54.573 39.3011 54.487C37.5049 53.218 35.6872 51.9922 33.934 50.6695C32.0195 49.2393 30.2018 47.68 28.6638 45.8304C26.1577 42.8195 25.2865 39.3999 26.2653 35.5824C26.7815 33.5715 28.0184 32.0661 29.8361 31.0552C31.4172 30.1735 33.1166 29.8831 34.9128 30.0444C36.3648 30.1842 37.6878 30.6681 38.7848 31.6682C39.1613 32.0123 39.4947 32.4102 39.8604 32.7865C39.9142 32.722 39.9787 32.6467 40.0325 32.5607C40.8607 31.4961 41.904 30.7326 43.1947 30.3563C45.5394 29.6681 47.7981 29.9154 49.9277 31.0983C51.7239 32.0983 52.8855 33.6361 53.4233 35.6254C53.6061 36.3029 53.6707 37.0126 53.789 37.7009V39.1203C53.7675 39.2063 53.746 39.2924 53.7352 39.3784C53.6061 41.2172 52.9931 42.9055 52.0143 44.454C51.0678 45.938 49.8309 47.1639 48.5402 48.336C46.3891 50.2824 44.0551 51.9922 41.6458 53.6159C41.0758 54.003 40.4735 54.3364 39.8927 54.702L39.8819 54.7235Z" fill="white"/>
<defs>
<filter id="filter0_d_563_4714" x="182.917" y="0.96875" width="317.23" height="457.499" filterUnits="userSpaceOnUse" color-interpolation-filters="sRGB">
<feFlood flood-opacity="0" result="BackgroundImageFix"/>
<feColorMatrix in="SourceAlpha" type="matrix" values="0 0 0 0 0 0 0 0 0 0 0 0 0 0 0 0 0 0 127 0" result="hardAlpha"/>
<feOffset dx="15.57" dy="15.57"/>
<feGaussianBlur stdDeviation="6.23"/>
<feColorMatrix type="matrix" values="0 0 0 0 0.807843 0 0 0 0 0.756863 0 0 0 0 0.639216 0 0 0 0.5 0"/>
<feBlend mode="normal" in2="BackgroundImageFix" result="effect1_dropShadow_563_4714"/>
<feBlend mode="normal" in="SourceGraphic" in2="effect1_dropShadow_563_4714" result="shape"/>
</filter>
<filter id="filter1_d_563_4714" x="185.508" y="78.1875" width="240.728" height="209.057" filterUnits="userSpaceOnUse" color-interpolation-filters="sRGB">
<feFlood flood-opacity="0" result="BackgroundImageFix"/>
<feColorMatrix in="SourceAlpha" type="matrix" values="0 0 0 0 0 0 0 0 0 0 0 0 0 0 0 0 0 0 127 0" result="hardAlpha"/>
<feOffset dx="26.47" dy="21.8"/>
<feGaussianBlur stdDeviation="6.23"/>
<feColorMatrix type="matrix" values="0 0 0 0 0.364706 0 0 0 0 0.466667 0 0 0 0 0.356863 0 0 0 0.5 0"/>
<feBlend mode="normal" in2="BackgroundImageFix" result="effect1_dropShadow_563_4714"/>
<feBlend mode="normal" in="SourceGraphic" in2="effect1_dropShadow_563_4714" result="shape"/>
</filter>
<filter id="filter2_d_563_4714" x="234.622" y="311.226" width="109.302" height="49.6231" filterUnits="userSpaceOnUse" color-interpolation-filters="sRGB">
<feFlood flood-opacity="0" result="BackgroundImageFix"/>
<feColorMatrix in="SourceAlpha" type="matrix" values="0 0 0 0 0 0 0 0 0 0 0 0 0 0 0 0 0 0 127 0" result="hardAlpha"/>
<feOffset dx="7.78" dy="7.78"/>
<feGaussianBlur stdDeviation="6.23"/>
<feColorMatrix type="matrix" values="0 0 0 0 0.588235 0 0 0 0 0.717647 0 0 0 0 0.572549 0 0 0 0.5 0"/>
<feBlend mode="normal" in2="BackgroundImageFix" result="effect1_dropShadow_563_4714"/>
<feBlend mode="normal" in="SourceGraphic" in2="effect1_dropShadow_563_4714" result="shape"/>
</filter>
<linearGradient id="paint0_linear_563_4714" x1="182.932" y1="215.693" x2="472.13" y2="215.693" gradientUnits="userSpaceOnUse">
<stop stop-color="#ACC694"/>
<stop offset="1" stop-color="#8CA96F"/>
</linearGradient>
<linearGradient id="paint1_linear_563_4714" x1="182.932" y1="215.693" x2="472.13" y2="215.693" gradientUnits="userSpaceOnUse">
<stop stop-color="#B4CB9D"/>
<stop offset="1" stop-color="#78A367"/>
</linearGradient>
<linearGradient id="paint2_linear_563_4714" x1="224.879" y1="38.9621" x2="419.894" y2="376.794" gradientUnits="userSpaceOnUse">
<stop stop-color="#CBE2B3"/>
<stop offset="1" stop-color="#A7BF8E"/>
</linearGradient>
<linearGradient id="paint3_linear_563_4714" x1="391.269" y1="20.1761" x2="321.777" y2="15.1415" gradientUnits="userSpaceOnUse">
<stop stop-color="#BACFA5"/>
<stop offset="1" stop-color="#ABC592"/>
</linearGradient>
<linearGradient id="paint4_linear_563_4714" x1="391.452" y1="17.6657" x2="321.96" y2="12.6418" gradientUnits="userSpaceOnUse">
<stop stop-color="#BACFA5"/>
<stop offset="1" stop-color="#ABC592"/>
</linearGradient>
<linearGradient id="paint5_linear_563_4714" x1="443.563" y1="112.301" x2="459.858" y2="112.301" gradientUnits="userSpaceOnUse">
<stop stop-color="#BACFA5"/>
<stop offset="1" stop-color="#ABC592"/>
</linearGradient>
<linearGradient id="paint6_linear_563_4714" x1="401.605" y1="298.438" x2="245.077" y2="87.4789" gradientUnits="userSpaceOnUse">
<stop stop-color="white"/>
<stop offset="1" stop-color="white" stop-opacity="0.5"/>
</linearGradient>
<linearGradient id="paint7_linear_563_4714" x1="234.99" y1="301.69" x2="315.324" y2="301.69" gradientUnits="userSpaceOnUse">
<stop stop-color="#B4CB9D"/>
<stop offset="1" stop-color="#678E40"/>
</linearGradient>
<linearGradient id="paint8_linear_563_4714" x1="474.959" y1="213.211" x2="547.968" y2="213.211" gradientUnits="userSpaceOnUse">
<stop stop-color="white"/>
<stop offset="1" stop-color="white" stop-opacity="0.5"/>
</linearGradient>
<linearGradient id="paint9_linear_563_4714" x1="212.252" y1="332.285" x2="285.262" y2="332.285" gradientUnits="userSpaceOnUse">
<stop stop-color="white"/>
<stop offset="1" stop-color="white" stop-opacity="0.5"/>
</linearGradient>
<linearGradient id="paint10_linear_563_4714" x1="233.107" y1="67.7347" x2="306.117" y2="67.7347" gradientUnits="userSpaceOnUse">
<stop stop-color="white"/>
<stop offset="1" stop-color="white" stop-opacity="0.5"/>
</linearGradient>
<linearGradient id="paint11_linear_563_4714" x1="273.572" y1="226.08" x2="303.071" y2="257.927" gradientUnits="userSpaceOnUse">
<stop stop-color="#F9CC3D"/>
<stop offset="1" stop-color="#ED7829"/>
</linearGradient>
</defs>
</svg>
