<svg width="35" height="38" viewBox="0 0 35 38" fill="none" xmlns="http://www.w3.org/2000/svg">
<path d="M18.8094 35.6464C17.5568 35.6464 16.4048 35.0284 15.6367 33.9585C14.887 32.9163 14.2012 31.8833 13.5703 30.8595C12.2537 31.5512 10.9096 32.1876 9.55642 32.7779C8.94382 33.0454 8.31292 33.1837 7.68204 33.1837C5.98138 33.1837 4.49102 32.2153 3.78699 30.6473C3.06467 29.0425 3.34811 27.1886 4.5276 25.8051L5.59736 24.56C5.27735 24.4032 4.96648 24.2556 4.6556 24.0988C2.98238 23.2595 2.11376 21.5624 2.44292 19.7731C2.80865 17.7624 4.58246 16.093 6.56656 15.8993C7.05115 15.8532 7.55403 15.8071 8.05691 15.7794C7.85576 14.193 7.70032 12.5789 7.5906 10.9741C7.50832 9.83959 7.89233 8.75121 8.66037 7.92111C9.49241 7.01723 10.6993 6.50075 11.9703 6.50075C12.6286 6.50075 13.2777 6.64831 13.8446 6.92501C14.0549 6.39006 14.2652 5.86433 14.4938 5.3386C15.207 3.64152 16.9991 2.46094 18.8369 2.46094C20.4918 2.46094 21.8999 3.44783 22.5125 5.02501C23.1799 6.75899 23.692 8.46529 24.0577 10.1993L26.4167 9.74734C26.691 9.692 26.9744 9.66433 27.2487 9.66433C28.8579 9.66433 30.3392 10.5498 31.1255 11.9609C31.8935 13.3444 31.8478 14.9862 31.0158 16.342L29.1048 19.4595L29.8088 19.7362C31.8112 20.5386 32.9633 22.7061 32.5518 24.892C32.1678 26.9119 30.5494 28.2677 28.5196 28.2677C28.4008 28.2677 28.2728 28.2677 28.1448 28.2493L24.268 27.9357C24.1217 27.9265 23.9754 27.908 23.82 27.8896C23.6554 29.0978 23.5 30.3153 23.3445 31.5236C23.0611 33.7464 20.9856 35.6187 18.8277 35.6187L18.8094 35.6464Z" fill="#77C67C"/>
<path d="M18.8275 4.85146C19.4309 4.85146 19.9978 5.14661 20.2904 5.8937C21.1956 8.2272 21.7991 10.5699 22.1008 13.0049C23.6826 12.7005 25.2644 12.3961 26.8462 12.0918C26.9742 12.0641 27.1113 12.0549 27.2393 12.0549C28.7205 12.0549 29.8452 13.6689 28.9857 15.0709C27.8519 16.9247 26.7182 18.7787 25.5844 20.6233C26.6999 21.066 27.8154 21.518 28.9217 21.9607C30.8052 22.717 30.6772 25.8529 28.5103 25.8529C28.4462 25.8529 28.3822 25.8529 28.3182 25.8529C27.029 25.7514 25.7398 25.65 24.4415 25.5393C23.5912 25.4748 22.5488 25.2442 21.5979 25.1981C21.4882 25.9728 21.5248 26.9781 21.4516 27.5131C21.287 28.749 21.1225 29.9757 20.967 31.2116C20.839 32.2354 19.8058 33.2131 18.8092 33.2131C18.3612 33.2131 17.9132 33.0102 17.5657 32.5214C16.4319 30.935 15.3987 29.3209 14.4661 27.6146C12.5643 28.6937 10.6168 29.6713 8.61441 30.5476C8.2944 30.6859 7.98352 30.7505 7.69094 30.7505C6.08172 30.7505 5.09424 28.7951 6.33773 27.3471C7.39835 26.1112 8.44983 24.8845 9.51046 23.6486C8.23039 23.1136 6.96862 22.5417 5.72513 21.9146C3.76846 20.9369 5.13081 18.4189 6.81318 18.2437C8.06581 18.1146 9.3093 18.0592 10.5619 18.0592C10.6442 18.0592 10.7265 18.0592 10.8088 18.0592C10.4156 15.6427 10.1413 13.2078 9.97677 10.7544C9.89448 9.57379 10.946 8.85437 11.9791 8.85437C12.5003 8.85437 13.0123 9.03882 13.3781 9.44465C13.881 9.99805 14.3656 10.5699 14.8501 11.1325C15.3987 9.47233 16.0022 7.8398 16.688 6.22573C17.0263 5.4233 17.9772 4.81456 18.8458 4.81456M18.8458 0.00923231C16.1759 0.00923231 13.5884 1.6602 12.4363 4.06748C12.2809 4.05825 12.1346 4.04904 11.9791 4.04904C10.0499 4.04904 8.21211 4.84223 6.9229 6.22573C5.6977 7.54466 5.09424 9.2694 5.22224 11.0864C5.2771 11.9349 5.35025 12.7743 5.43254 13.6136C2.78098 14.2685 0.614017 16.5282 0.111135 19.2859C-0.300314 21.5272 0.449438 23.667 2.04952 25.1335C0.8426 27.0981 0.668877 29.4777 1.62892 31.599C2.71698 33.9879 5.09424 35.5374 7.69094 35.5374C8.65099 35.5374 9.60189 35.3345 10.5071 34.9379C11.2477 34.615 11.9883 34.2738 12.7289 33.9141C13.0398 34.3752 13.3689 34.8456 13.7072 35.316C14.9324 37.0223 16.7885 38 18.8092 38C22.1648 38 25.2461 35.2238 25.685 31.8111C25.7398 31.3592 25.8038 30.8981 25.8587 30.4461L27.9342 30.6121C28.1262 30.6306 28.3182 30.6306 28.5011 30.6306C31.6555 30.6306 34.2797 28.4447 34.874 25.3087C35.3677 22.6985 34.3803 20.1068 32.4419 18.5204L33.0271 17.5612C34.3163 15.449 34.3803 12.9034 33.1916 10.7451C31.9847 8.56844 29.708 7.21263 27.2393 7.21263C26.8096 7.21263 26.3799 7.24952 25.9593 7.33253L25.8221 7.3602C25.5204 6.27185 25.1547 5.19272 24.7249 4.09515C23.7466 1.56796 21.4882 0 18.8275 0L18.8458 0.00923231Z" fill="white"/>
</svg>
