<svg width="183" height="266" viewBox="0 0 183 266" fill="none" xmlns="http://www.w3.org/2000/svg">
<path d="M169.696 203.898C164.025 198.497 159.022 191.289 154.737 183.662C163.435 164.783 150.766 132.507 124.386 115.595C117.202 105.742 109.988 98.334 108.956 94.0112C106.39 83.2692 121.271 78.3973 115.796 51.003C110.322 23.6088 81.7306 10.4907 62.3389 12.1379C42.9374 13.7852 25.2559 27.9715 18.946 47.7385C15.4766 58.6004 17.9435 68.2542 21.8946 75.592C20.4498 77.6086 20.381 80.3141 22.789 84.9364C25.5312 90.1876 30.7894 93.4522 37.06 95.2891C37.1877 96.9164 36.6668 98.5537 35.7135 100.271C32.4701 98.5437 25.9046 96.8266 18.3564 104.813C9.34361 114.347 14.4643 125.429 16.3317 128.733C8.51802 150.307 8.87185 187.425 38.2001 207.392C38.2296 210.736 38.2788 214.71 38.3377 218.144C28.1652 221.728 15.1424 226.929 12.3512 230.873C12.3512 230.873 28.0964 229.126 27.5067 247.325C27.5067 247.325 49.041 240.087 61.13 247.325C61.13 247.325 61.9556 244.39 62.3192 239.628C64.5601 239.269 77.5829 237.881 78.723 254.473C78.723 254.473 99.412 245.029 112.169 250.969C112.169 250.969 114.587 237.112 107.914 221.618C107.914 221.618 107.717 221.029 107.098 220.35C138.932 219.162 179.593 213.322 169.706 203.918L169.696 203.898ZM62.3488 239.109C62.7222 233.668 62.4863 226.011 59.8523 217.665C59.8523 217.665 59.8032 217.435 59.6459 217.096C63.1449 218.074 66.8797 218.903 70.8602 219.532C75.2339 220.221 79.5486 220.48 83.765 220.221C84.512 220.27 85.2885 220.31 86.0846 220.35C86.2418 221.698 86.3991 223.046 86.5465 224.304C77.2094 228.726 65.4251 234.896 62.3586 239.109H62.3488Z" fill="#FAFFFF" stroke="#FAFFFF" stroke-width="23.05" stroke-linecap="round" stroke-linejoin="round"/>
<path d="M37.8561 101.726C37.8561 101.726 29.0891 93.46 18.3564 104.811C7.62364 116.162 16.9312 129.71 16.9312 129.71C16.9312 129.71 23.7522 114.146 37.8659 101.726H37.8561Z" fill="#FAFFFF" stroke="#543816" stroke-width="4.56" stroke-linecap="round" stroke-linejoin="round"/>
<path d="M59.8523 217.67C59.8523 217.67 59.0365 213.836 52.8642 213.846C52.9527 209.803 52.9036 206.558 52.9036 206.558L38.1313 200.039C38.1313 200.039 38.2001 210.432 38.3279 218.129C28.1554 221.713 15.1326 226.914 12.3413 230.858C12.3413 230.858 28.0866 229.111 27.4968 247.31C27.4968 247.31 49.0311 240.072 61.1202 247.31C61.1202 247.31 64.9238 233.773 59.8523 217.67Z" fill="#F2C32A" stroke="#543816" stroke-width="4.89" stroke-linecap="round" stroke-linejoin="round"/>
<path d="M38.2295 212.234L39.1042 227.689" stroke="#543816" stroke-width="4.89" stroke-linecap="round" stroke-linejoin="round"/>
<path d="M52.0493 211.648L51.5176 227.752" stroke="#543816" stroke-width="4.89" stroke-linecap="round" stroke-linejoin="round"/>
<path d="M107.914 221.616C107.914 221.616 106.715 217.882 100.582 218.541C100.257 214.508 99.8837 211.293 99.8837 211.293L84.5316 206.352C84.5316 206.352 85.6521 216.684 86.5563 224.322C76.7966 228.944 64.3635 235.473 61.9949 239.686C61.9949 239.686 77.4846 236.312 78.7328 254.471C78.7328 254.471 99.4218 245.027 112.179 250.967C112.179 250.967 114.597 237.11 107.923 221.616H107.914Z" fill="#F2C32A" stroke="#543816" stroke-width="4.89" stroke-linecap="round" stroke-linejoin="round"/>
<path d="M85.8481 218.445L88.2758 233.72" stroke="#543816" stroke-width="4.89" stroke-linecap="round" stroke-linejoin="round"/>
<path d="M99.5398 216.438L100.641 232.511" stroke="#543816" stroke-width="4.89" stroke-linecap="round" stroke-linejoin="round"/>
<path d="M169.695 203.898C153.911 188.883 143.267 159.851 139.04 146.683C134.559 121.066 110.891 102.118 108.945 94.0112C106.38 83.2692 121.261 78.3973 115.786 51.003C110.312 23.6088 81.7205 10.4907 62.3288 12.1379C42.9274 13.7852 25.2459 27.9715 18.936 47.7385C12.4 68.1944 26.9364 84.3773 32.7745 88.8598C44.9914 98.2542 28.2829 105.842 19.6338 121.346C6.15894 145.515 3.71163 208.919 70.8501 219.532C75.2238 220.221 79.5385 220.48 83.755 220.221C112.228 222.137 182.345 215.948 169.686 203.908L169.695 203.898Z" fill="#FAFFFF" stroke="#543816" stroke-width="4.56" stroke-linecap="round" stroke-linejoin="round"/>
<path d="M38.1807 62.6172C38.1807 62.6172 44.3727 67.9982 66.2607 65.4125C66.2607 65.4125 65.7595 72.1712 73.0719 77.2028C80.3843 82.2344 82.0158 93.5456 67.1649 96.261C52.3141 98.9765 29.0206 97.3991 22.6124 83.7419C16.2042 70.0847 29.8363 73.3593 38.1807 62.6172Z" fill="#F2C32A" stroke="#543816" stroke-width="4.21" stroke-linecap="round" stroke-linejoin="round"/>
<path d="M104.208 106.725C104.208 106.725 79.0274 96.5617 80.9538 136.545C82.8703 176.518 124.956 210.851 148.102 192.232C171.248 173.613 149.537 118.485 104.208 106.725Z" fill="#FAFFFF" stroke="#543816" stroke-width="4.56" stroke-linecap="round" stroke-linejoin="round"/>
<path d="M95.1267 54.8984C102.016 55.178 108.896 63.4542 106.783 71.1214C105.162 77.0315 98.7731 80.4957 93.0136 80.0165C88.9839 79.6771 84.2171 77.331 82.556 73.0482C79.6763 65.6305 86.9199 54.579 95.1267 54.9084V54.8984Z" fill="#FFCAB0"/>
<path d="M74.9686 46.1051C73.8875 49.779 74.1037 56.7473 75.0964 61.16C75.5976 63.3862 80.2859 67.6292 84.0895 62.8871C87.8931 58.145 86.0748 45.8256 82.9494 43.0003C80.4726 40.764 76.2168 41.8921 74.9686 46.1051Z" fill="#543816" stroke="#543816" stroke-width="4.14" stroke-miterlimit="10"/>
<path d="M35.5071 121.065C31.8509 126.846 30.9172 134.114 33.1286 140.633C33.846 142.739 37.2074 141.951 36.4801 139.814C34.5537 134.134 35.2221 128.004 38.4261 122.932C39.6252 121.035 36.7062 119.169 35.5071 121.065Z" fill="#E2DDD5"/>
<path d="M43.0453 143.379C41.404 140.763 40.8044 137.758 41.5022 134.713C42.0133 132.527 38.7208 131.479 38.2097 133.675C37.2957 137.599 37.8657 141.632 40.0083 145.046C41.1975 146.933 44.2346 145.286 43.0453 143.379Z" fill="#E2DDD5"/>
<path d="M52.9626 142.568C51.1247 140.851 49.6798 138.885 48.6085 136.598C47.6453 134.562 44.6182 136.229 45.5716 138.266C46.7608 140.791 48.412 143.068 50.4465 144.965C52.0781 146.482 54.604 144.096 52.9626 142.568Z" fill="#E2DDD5"/>
<path d="M128.317 166.827C119.57 167.336 117.654 155.636 118.243 148.298C120.523 150.425 123.256 152.102 126.204 153.29C128.268 154.118 129.281 150.774 127.227 149.945C121.31 147.559 116.523 142.817 115.324 136.308C114.921 134.092 111.56 134.91 111.973 137.127C112.503 140.032 113.653 142.628 115.246 144.894C115.246 144.934 115.226 144.974 115.216 145.014C114.538 148.837 114.469 152.761 115.157 156.564C110.715 156.454 106.921 153.439 104.886 149.506C102.468 144.814 102.439 139.313 102.901 134.172C103.098 131.925 99.6576 131.816 99.4512 134.052C98.9106 140.112 99.1464 146.741 102.36 152.082C105.152 156.724 110.017 160.198 115.511 160.078C115.698 160.078 115.865 160.048 116.012 159.999C116.209 160.608 116.415 161.207 116.661 161.796C118.587 166.568 122.823 170.651 128.19 170.331C130.391 170.201 130.519 166.697 128.308 166.827H128.317Z" fill="#E2DDD5"/>
<path d="M20.4198 51.4006C20.4198 51.4006 20.3215 51.6202 20.1643 52.0196C20.1643 52.0395 20.1643 52.0595 20.1545 52.0695C19.7319 53.9064 19.5058 55.7833 19.4468 57.6701C19.4173 60.6851 20.0267 63.74 20.5182 66.7151C21.0194 68.4821 21.6779 70.1992 22.4052 71.8864C24.4299 71.0079 27.2605 68.4821 27.9092 61.3041C28.3318 56.6618 24.9016 52.2093 20.4198 51.3906V51.4006Z" fill="#FFCAB0"/>
<path d="M31.7132 39.5487C34.6323 40.1078 34.6127 45.1194 34.4063 51.1693C34.1212 59.4455 30.8385 61.7317 29.3741 62.121C26.3862 62.9197 24.1944 58.7966 24.4696 50.5204C24.7252 43.0029 28.0275 38.8299 31.7132 39.5387V39.5487Z" fill="#543816" stroke="#543816" stroke-width="4.13" stroke-miterlimit="10"/>
<path d="M45.1289 73.8248C45.8671 73.8248 46.4656 73.217 46.4656 72.4671C46.4656 71.7172 45.8671 71.1094 45.1289 71.1094C44.3907 71.1094 43.7922 71.7172 43.7922 72.4671C43.7922 73.217 44.3907 73.8248 45.1289 73.8248Z" fill="#DD8936" stroke="#DD8936" stroke-width="1.81" stroke-miterlimit="10"/>
<path d="M53.5422 74.4733C54.2805 74.4733 54.8789 73.8654 54.8789 73.1155C54.8789 72.3657 54.2805 71.7578 53.5422 71.7578C52.804 71.7578 52.2056 72.3657 52.2056 73.1155C52.2056 73.8654 52.804 74.4733 53.5422 74.4733Z" fill="#DD8936" stroke="#DD8936" stroke-width="1.81" stroke-miterlimit="10"/>
</svg>
