<svg width="1440" height="128" viewBox="0 0 1440 128" fill="none" xmlns="http://www.w3.org/2000/svg">
<rect width="1440" height="128" fill="#ABC592"/>
<path d="M395.007 99.3731C394.588 99.3731 394.176 99.3592 393.757 99.3382C391.31 99.2126 389.894 97.0626 389.943 95.0593C389.991 93.028 391.461 91.5482 393.427 91.5482C393.495 91.5482 393.571 91.5482 393.64 91.5482C393.983 91.5691 394.334 91.5761 394.691 91.5761C397.007 91.5761 400.759 91.1712 403.02 88.8328C399.289 87.702 396.045 84.491 394.925 80.4913C394.258 78.118 394.636 75.8005 396.004 73.9647C397.468 71.9893 399.893 70.8096 402.491 70.8096C404.182 70.8096 405.81 71.3122 407.198 72.2685C408.593 73.2248 409.769 74.558 410.655 76.1705C411.322 74.2788 411.535 72.1638 411.225 70.0278C411.067 68.9249 411.349 67.8848 412.016 67.096C412.71 66.2793 413.775 65.8047 414.923 65.8047C416.95 65.8047 418.565 67.2008 418.853 69.2041C419.816 75.9262 417.129 83.0671 412.277 86.8853C412.009 88.3651 411.548 89.7193 410.909 90.9269C408.057 96.2878 402.257 99.3592 394.994 99.3592L395.007 99.3731ZM402.347 78.5019C402.525 78.9417 403.061 79.7374 403.879 80.5053C404.017 80.6379 404.161 80.7566 404.298 80.8613C403.81 79.521 402.903 78.4949 402.436 78.4949C402.409 78.4949 402.381 78.4949 402.354 78.5089L402.347 78.5019Z" fill="#75BEDB"/>
<path d="M414.93 67.6368C415.906 67.6368 416.916 68.2301 417.095 69.4796C417.947 75.4268 415.645 82.3653 410.635 85.8764C410.436 87.3911 410.003 88.836 409.343 90.0785C406.512 95.3976 400.67 97.5615 395.008 97.5615C394.623 97.5615 394.231 97.5545 393.846 97.5335C391.29 97.4009 390.933 93.3802 393.434 93.3802C393.475 93.3802 393.517 93.3802 393.558 93.3802C393.936 93.4012 394.314 93.4082 394.705 93.4082C399.172 93.4082 404.175 92.033 406.037 87.4679C406.003 87.4679 405.976 87.4679 405.941 87.4679C401.832 87.4679 397.846 84.222 396.657 80.0059C395.441 75.6711 398.829 72.6417 402.498 72.6417C403.763 72.6417 405.055 72.9977 406.209 73.7864C408.367 75.2663 409.748 77.7233 410.374 80.4247C412.696 77.4651 413.549 73.5072 413.013 69.7727C412.813 68.3767 413.851 67.6368 414.937 67.6368M405.824 83.3076C406.086 83.3076 406.354 83.2797 406.615 83.2169C406.532 82.2117 406.326 81.2205 405.996 80.3061C405.474 78.8262 404.161 76.6693 402.43 76.6693C402.1 76.6693 401.756 76.7461 401.399 76.9206C399.186 78.0165 401.557 80.7877 402.656 81.8278C403.715 82.826 404.766 83.3006 405.824 83.3006M414.937 64C413.267 64 411.714 64.698 410.676 65.9196C409.666 67.1062 409.233 68.6629 409.467 70.2963C409.542 70.8268 409.583 71.3503 409.583 71.8738C409.151 71.469 408.69 71.099 408.209 70.7709C406.519 69.6122 404.546 68.9979 402.498 68.9979C399.344 68.9979 396.382 70.4498 394.582 72.872C392.871 75.1755 392.383 78.0584 393.214 80.9971C394.176 84.4175 396.41 87.2934 399.241 89.0873C397.674 89.6388 395.949 89.7644 394.705 89.7644C394.389 89.7644 394.066 89.7574 393.743 89.7365C393.64 89.7365 393.537 89.7295 393.434 89.7295C390.5 89.7295 388.232 91.9981 388.156 95.0136C388.074 98.2944 390.493 100.989 393.668 101.156C394.114 101.177 394.561 101.191 395.008 101.191C402.828 101.191 409.364 97.6801 412.497 91.8027C413.129 90.616 413.604 89.3037 413.92 87.9007C418.929 83.6008 421.665 76.055 420.641 68.956C420.228 66.0871 417.83 64 414.937 64Z" fill="white"/>
<path d="M1012.81 54.2669C1011.82 54.2669 1010.92 53.7769 1010.31 52.9285C1009.72 52.1021 1009.18 51.283 1008.69 50.4712C1007.65 51.0197 1006.59 51.5243 1005.52 51.9924C1005.04 52.2045 1004.55 52.3142 1004.05 52.3142C1002.71 52.3142 1001.54 51.5463 1000.98 50.303C1000.41 49.0304 1000.64 47.5604 1001.56 46.4634L1002.41 45.4761C1002.16 45.3518 1001.91 45.2348 1001.67 45.1105C1000.35 44.4449 999.664 43.0993 999.923 41.6805C1000.21 40.0861 1001.61 38.7624 1003.17 38.6088C1003.55 38.5722 1003.95 38.5357 1004.34 38.5137C1004.19 37.2558 1004.06 35.9759 1003.98 34.7034C1003.91 33.8039 1004.21 32.9409 1004.82 32.2827C1005.47 31.5659 1006.42 31.1564 1007.43 31.1564C1007.94 31.1564 1008.46 31.2734 1008.9 31.4928C1009.07 31.0686 1009.23 30.6518 1009.41 30.2349C1009.97 28.8966 1011.39 27.9531 1012.83 27.9531C1014.14 27.9531 1015.24 28.7356 1015.73 29.9862C1016.25 31.3612 1016.66 32.7142 1016.94 34.0891L1018.79 33.7308C1019.01 33.6869 1019.23 33.6649 1019.45 33.6649C1020.72 33.6649 1021.88 34.367 1022.5 35.486C1023.11 36.583 1023.07 37.8848 1022.42 38.9598L1020.91 41.4318L1021.47 41.6585C1023.04 42.2948 1023.95 44.0134 1023.63 45.7467C1023.32 47.3484 1022.05 48.4234 1020.45 48.4234C1020.36 48.4234 1020.26 48.4234 1020.16 48.4088L1017.1 48.1602C1016.99 48.1528 1016.87 48.1382 1016.75 48.1236C1016.62 49.089 1016.5 50.047 1016.38 51.0051C1016.15 52.7676 1014.52 54.2523 1012.82 54.2523L1012.81 54.2669Z" fill="#77C67C"/>
<path d="M1012.83 29.8469C1013.3 29.8469 1013.75 30.0809 1013.98 30.6733C1014.69 32.5236 1015.17 34.3812 1015.4 36.312C1016.65 36.0706 1017.89 35.8293 1019.14 35.5879C1019.24 35.566 1019.35 35.5587 1019.45 35.5587C1020.62 35.5587 1021.5 36.8385 1020.83 37.9502C1019.93 39.4202 1019.04 40.8902 1018.15 42.3529C1019.03 42.7039 1019.9 43.0623 1020.77 43.4133C1022.26 44.013 1022.16 46.4996 1020.45 46.4996C1020.4 46.4996 1020.35 46.4996 1020.3 46.4996L1017.25 46.2509C1016.58 46.1997 1015.76 46.0169 1015.01 45.9803C1014.92 46.5946 1014.95 47.3918 1014.89 47.816C1014.76 48.796 1014.63 49.7687 1014.51 50.7487C1014.41 51.5605 1013.6 52.3357 1012.81 52.3357C1012.46 52.3357 1012.11 52.1748 1011.83 51.7872C1010.94 50.5293 1010.13 49.2494 1009.39 47.8964C1007.89 48.7521 1006.36 49.5274 1004.78 50.2221C1004.53 50.3318 1004.29 50.383 1004.06 50.383C1002.79 50.383 1002.01 48.8326 1002.99 47.6844L1005.49 44.7517C1004.48 44.3275 1003.49 43.874 1002.51 43.3767C1000.97 42.6015 1002.04 40.605 1003.37 40.466C1004.35 40.3636 1005.33 40.3197 1006.32 40.3197C1006.38 40.3197 1006.45 40.3197 1006.51 40.3197C1006.2 38.4036 1005.99 36.4729 1005.86 34.5275C1005.79 33.5914 1006.62 33.0209 1007.43 33.0209C1007.84 33.0209 1008.25 33.1672 1008.53 33.489C1008.93 33.9278 1009.31 34.3812 1009.69 34.8273C1010.13 33.5109 1010.6 32.2164 1011.14 30.9366C1011.41 30.3003 1012.16 29.8176 1012.84 29.8176M1012.84 26.0073C1010.74 26.0073 1008.7 27.3164 1007.79 29.2253C1007.67 29.2179 1007.56 29.2106 1007.43 29.2106C1005.91 29.2106 1004.47 29.8396 1003.45 30.9366C1002.49 31.9824 1002.01 33.35 1002.11 34.7908C1002.16 35.4636 1002.21 36.1291 1002.28 36.7946C1000.19 37.3139 998.484 39.1057 998.088 41.2924C997.764 43.0696 998.354 44.7663 999.614 45.9291C998.664 47.4869 998.527 49.3737 999.283 51.0558C1000.14 52.95 1002.01 54.1787 1004.06 54.1787C1004.81 54.1787 1005.56 54.0178 1006.27 53.7033C1006.86 53.4473 1007.44 53.1767 1008.02 52.8915C1008.27 53.2572 1008.53 53.6302 1008.79 54.0032C1009.76 55.3562 1011.22 56.1314 1012.81 56.1314C1015.45 56.1314 1017.88 53.9301 1018.23 51.2241C1018.27 50.8657 1018.32 50.5 1018.36 50.1417L1020 50.2733C1020.15 50.2879 1020.3 50.2879 1020.44 50.2879C1022.93 50.2879 1024.99 48.5546 1025.46 46.0681C1025.85 43.9984 1025.07 41.9433 1023.55 40.6854L1024.01 39.9248C1025.02 38.25 1025.07 36.2315 1024.14 34.5202C1023.19 32.7942 1021.39 31.7191 1019.45 31.7191C1019.11 31.7191 1018.77 31.7484 1018.44 31.8142L1018.33 31.8362C1018.1 30.9732 1017.81 30.1175 1017.47 29.2472C1016.7 27.2433 1014.92 26 1012.83 26L1012.84 26.0073Z" fill="white"/>
<path d="M1063.85 74.6387C1063.23 74.6387 1062.65 74.4703 1062.14 74.1445C1059.44 73.2756 1058.07 69.6479 1057.27 66.9489C1056.09 62.9736 1056.33 59.8782 1057.98 57.7385C1059.06 56.3428 1060.65 55.5391 1062.35 55.5391C1063.85 55.5391 1065.23 56.1744 1066.25 57.3257C1066.55 57.6624 1066.82 58.0317 1067.06 58.4227C1068.1 57.9611 1069.17 57.7168 1070.19 57.7168C1072.96 57.7168 1074.91 59.4763 1075.4 62.4306C1075.97 65.917 1073.51 68.8279 1071.61 70.7123C1069.43 72.8737 1066.92 74.2205 1064.35 74.6007C1064.18 74.6278 1064.01 74.6387 1063.84 74.6387H1063.85Z" fill="#E07D77"/>
<path d="M1062.35 57.0846C1063.35 57.0846 1064.36 57.4919 1065.12 58.3554C1065.7 59.0071 1066.12 59.7511 1066.41 60.5385C1067.59 59.7456 1068.95 59.2623 1070.2 59.2623C1071.97 59.2623 1073.5 60.2344 1073.91 62.6836C1074.35 65.4098 1072.34 67.8319 1070.55 69.6077C1068.78 71.3672 1066.61 72.7032 1064.13 73.0725C1064.04 73.0887 1063.94 73.0942 1063.85 73.0942C1063.43 73.0942 1063.08 72.953 1062.8 72.7303C1060.53 72.2035 1059.3 68.4564 1058.72 66.5068C1058 64.0684 1057.51 60.8535 1059.17 58.6975C1059.98 57.6494 1061.16 57.09 1062.34 57.09M1062.34 54C1060.18 54 1058.14 55.0155 1056.78 56.7914C1054.8 59.3492 1054.47 62.9171 1055.8 67.4029C1056.37 69.3199 1057.83 74.2455 1061.5 75.5651C1062.21 75.9779 1063 76.1897 1063.84 76.1897C1064.08 76.1897 1064.32 76.1734 1064.56 76.1353C1067.45 75.7063 1070.25 74.2129 1072.66 71.8234C1074.03 70.4657 1077.66 66.8652 1076.89 62.1786C1076.28 58.4749 1073.71 56.1777 1070.19 56.1777C1069.34 56.1777 1068.47 56.3135 1067.61 56.5796C1067.54 56.4872 1067.46 56.3949 1067.38 56.3026C1066.07 54.82 1064.28 54.0054 1062.34 54.0054V54Z" fill="white"/>
<path d="M359.301 55.6246C358.869 55.6246 358.443 55.5638 358.024 55.4422C357.824 55.3814 357.631 55.3139 357.438 55.226C355.343 54.287 354.246 51.8886 354.878 49.6524C355.303 48.1661 355.117 47.4837 354.964 47.2067C354.791 46.8892 354.372 46.5717 353.78 46.3082C353.514 46.1866 353.208 46.0785 352.882 45.9839C352.676 45.9231 352.483 45.8488 352.297 45.7677C350.202 44.8286 349.105 42.4303 349.736 40.1941C350.302 38.2078 352.118 36.8161 354.159 36.8161C354.592 36.8161 355.018 36.8769 355.437 36.9985C356.035 37.1741 356.554 37.262 356.993 37.262C357.352 37.262 357.638 37.2012 357.844 37.0863C358.117 36.9377 358.629 36.458 359.055 34.9717C359.394 33.7759 360.179 32.7828 361.25 32.1748C361.928 31.7965 362.7 31.5938 363.471 31.5938C363.903 31.5938 364.336 31.6546 364.755 31.7762C364.954 31.8302 365.147 31.9045 365.34 31.9924C367.435 32.9314 368.533 35.3298 367.901 37.566C367.475 39.0523 367.661 39.7347 367.814 40.0117C367.987 40.3292 368.406 40.6467 368.992 40.9102C369.258 41.0318 369.564 41.1399 369.896 41.2412C370.089 41.2953 370.295 41.3696 370.488 41.4574C372.577 42.3965 373.674 44.7881 373.042 47.0243C372.477 49.0106 370.661 50.4023 368.619 50.4023C368.187 50.4023 367.761 50.3415 367.342 50.2199C366.75 50.0442 366.225 49.9564 365.786 49.9564C365.427 49.9564 365.141 50.0172 364.934 50.132C364.662 50.2807 364.15 50.7603 363.724 52.2466C363.158 54.2329 361.343 55.6246 359.301 55.6246Z" fill="#F2C32A"/>
<path d="M363.471 33.1888C363.757 33.1888 364.037 33.2294 364.316 33.3104C364.449 33.351 364.575 33.3982 364.702 33.4523C366.085 34.0738 366.81 35.6547 366.391 37.1275C365.952 38.6814 365.965 39.911 366.438 40.7825C366.783 41.4175 367.429 41.9512 368.353 42.3701C368.686 42.5187 369.058 42.6539 369.457 42.7687C369.59 42.8093 369.717 42.8565 369.843 42.9106C371.226 43.5321 371.951 45.113 371.532 46.5858C371.147 47.937 369.929 48.8153 368.613 48.8153C368.333 48.8153 368.054 48.7747 367.774 48.6937C367.036 48.4775 366.371 48.3694 365.786 48.3694C365.161 48.3694 364.622 48.491 364.183 48.7409C363.325 49.2206 362.666 50.2543 362.227 51.8082C361.842 53.1594 360.624 54.0376 359.308 54.0376C359.028 54.0376 358.749 53.9971 358.47 53.916C358.337 53.8755 358.21 53.8282 358.084 53.7741C356.7 53.1526 355.975 51.5717 356.394 50.0989C356.833 48.545 356.82 47.3155 356.348 46.444C356.002 45.8089 355.357 45.2752 354.432 44.8563C354.1 44.7077 353.727 44.5726 353.328 44.4577C353.195 44.4172 353.069 44.3699 352.942 44.3158C351.559 43.6943 350.834 42.1134 351.253 40.6406C351.639 39.2894 352.856 38.4111 354.173 38.4111C354.452 38.4111 354.732 38.4517 355.011 38.5327C355.749 38.7489 356.414 38.857 357 38.857C357.625 38.857 358.164 38.7354 358.603 38.4854C359.461 38.0058 360.119 36.9721 360.558 35.4183C360.784 34.6278 361.296 33.9725 362.008 33.5739C362.46 33.3172 362.966 33.1888 363.471 33.1888ZM363.471 30.0068C362.434 30.0068 361.409 30.277 360.498 30.7904C359.055 31.6011 358.011 32.9321 357.552 34.54C357.359 35.2156 357.173 35.5466 357.079 35.675C357.059 35.675 357.033 35.675 357 35.675C356.8 35.675 356.441 35.6412 355.876 35.4723C355.317 35.3102 354.745 35.2291 354.166 35.2291C351.433 35.2291 348.998 37.087 348.24 39.7556C347.389 42.7484 348.865 45.9575 351.665 47.2209C351.918 47.3357 352.184 47.4303 352.45 47.5114C352.716 47.5857 352.949 47.6735 353.155 47.7681C353.368 47.8627 353.501 47.9438 353.574 47.9978C353.581 48.1667 353.574 48.545 353.381 49.2139C352.53 52.2067 354.007 55.4158 356.807 56.6792C357.059 56.794 357.326 56.8886 357.592 56.9697C358.15 57.1318 358.722 57.2129 359.301 57.2129C362.035 57.2129 364.469 55.355 365.227 52.6864C365.42 52.0108 365.606 51.6798 365.699 51.5447C365.719 51.5447 365.746 51.5447 365.779 51.5447C365.979 51.5447 366.338 51.5784 366.903 51.7473C367.462 51.9095 368.034 51.9906 368.613 51.9906C371.346 51.9906 373.78 50.1327 374.539 47.4641C375.39 44.4712 373.913 41.2621 371.113 39.9988C370.861 39.8839 370.595 39.7893 370.329 39.7083C370.062 39.634 369.83 39.5461 369.623 39.4515C369.411 39.357 369.278 39.2759 369.204 39.2219C369.198 39.053 369.204 38.6746 369.397 38.0058C370.249 35.0129 368.779 31.8038 365.972 30.5405C365.719 30.4256 365.453 30.331 365.187 30.25C364.628 30.0878 364.05 30 363.471 30V30.0068Z" fill="white"/>
<path d="M1028.05 104.804C1027.67 104.804 1027.29 104.749 1026.92 104.641C1026.74 104.587 1026.57 104.527 1026.4 104.449C1024.53 103.613 1023.56 101.479 1024.12 99.4897C1024.5 98.1672 1024.33 97.5601 1024.2 97.3137C1024.04 97.0311 1023.67 96.7486 1023.14 96.5142C1022.91 96.406 1022.63 96.3098 1022.34 96.2256C1022.16 96.1715 1021.99 96.1054 1021.82 96.0333C1019.96 95.1977 1018.98 93.0638 1019.55 91.0741C1020.05 89.3068 1021.66 88.0685 1023.48 88.0685C1023.87 88.0685 1024.24 88.1226 1024.62 88.2308C1025.15 88.3871 1025.61 88.4652 1026 88.4652C1026.32 88.4652 1026.58 88.4111 1026.76 88.3089C1027 88.1767 1027.46 87.7499 1027.84 86.4274C1028.14 85.3635 1028.84 84.4799 1029.79 83.9389C1030.39 83.6022 1031.08 83.4219 1031.77 83.4219C1032.15 83.4219 1032.53 83.476 1032.91 83.5842C1033.09 83.6323 1033.26 83.6984 1033.43 83.7765C1035.29 84.6121 1036.27 86.7461 1035.71 88.7357C1035.33 90.0582 1035.49 90.6653 1035.63 90.9118C1035.78 91.1943 1036.16 91.4768 1036.68 91.7113C1036.91 91.8195 1037.19 91.9156 1037.48 92.0058C1037.65 92.0539 1037.84 92.12 1038.01 92.1982C1039.87 93.0337 1040.84 95.1617 1040.28 97.1513C1039.78 98.9186 1038.16 100.157 1036.35 100.157C1035.96 100.157 1035.58 100.103 1035.21 99.9946C1034.68 99.8383 1034.22 99.7602 1033.82 99.7602C1033.51 99.7602 1033.25 99.8143 1033.07 99.9165C1032.82 100.049 1032.37 100.475 1031.99 101.798C1031.49 103.565 1029.87 104.804 1028.05 104.804Z" fill="#F2C32A"/>
<path d="M1031.77 84.8373C1032.02 84.8373 1032.27 84.8733 1032.52 84.9455C1032.64 84.9815 1032.75 85.0236 1032.86 85.0717C1034.09 85.6247 1034.74 87.0313 1034.36 88.3418C1033.97 89.7243 1033.98 90.8184 1034.41 91.5938C1034.71 92.1588 1035.29 92.6337 1036.11 93.0064C1036.41 93.1387 1036.74 93.2589 1037.09 93.3611C1037.21 93.3971 1037.32 93.4392 1037.43 93.4873C1038.67 94.0403 1039.31 95.4469 1038.94 96.7574C1038.59 97.9596 1037.51 98.7411 1036.34 98.7411C1036.09 98.7411 1035.84 98.705 1035.59 98.6328C1034.94 98.4405 1034.35 98.3443 1033.83 98.3443C1033.27 98.3443 1032.79 98.4525 1032.4 98.6749C1031.64 99.1017 1031.05 100.021 1030.66 101.404C1030.32 102.606 1029.23 103.388 1028.06 103.388C1027.81 103.388 1027.56 103.352 1027.32 103.279C1027.2 103.243 1027.08 103.201 1026.97 103.153C1025.74 102.6 1025.1 101.194 1025.47 99.8832C1025.86 98.5006 1025.85 97.4066 1025.43 96.6311C1025.12 96.0661 1024.55 95.5912 1023.72 95.2185C1023.43 95.0863 1023.1 94.9661 1022.74 94.8639C1022.62 94.8278 1022.51 94.7857 1022.4 94.7376C1021.17 94.1846 1020.52 92.778 1020.89 91.4676C1021.24 90.2653 1022.32 89.4839 1023.49 89.4839C1023.74 89.4839 1023.99 89.5199 1024.24 89.5921C1024.89 89.7844 1025.49 89.8806 1026.01 89.8806C1026.56 89.8806 1027.04 89.7724 1027.43 89.55C1028.2 89.1232 1028.78 88.2035 1029.17 86.821C1029.37 86.1176 1029.83 85.5346 1030.46 85.1799C1030.87 84.9515 1031.32 84.8373 1031.77 84.8373ZM1031.77 82.006C1030.84 82.006 1029.93 82.2464 1029.12 82.7033C1027.84 83.4246 1026.91 84.6089 1026.5 86.0395C1026.33 86.6406 1026.16 86.9352 1026.08 87.0494C1026.06 87.0494 1026.04 87.0494 1026.01 87.0494C1025.83 87.0494 1025.51 87.0193 1025.01 86.8691C1024.51 86.7248 1024 86.6526 1023.49 86.6526C1021.05 86.6526 1018.89 88.3057 1018.21 90.6801C1017.46 93.343 1018.77 96.1983 1021.26 97.3224C1021.49 97.4246 1021.72 97.5087 1021.96 97.5809C1022.2 97.647 1022.4 97.7251 1022.59 97.8093C1022.78 97.8935 1022.89 97.9656 1022.96 98.0137C1022.97 98.164 1022.96 98.5006 1022.79 99.0957C1022.03 101.759 1023.34 104.614 1025.84 105.738C1026.06 105.84 1026.3 105.924 1026.53 105.996C1027.03 106.141 1027.54 106.213 1028.06 106.213C1030.49 106.213 1032.65 104.56 1033.33 102.185C1033.5 101.584 1033.67 101.29 1033.75 101.17C1033.77 101.17 1033.79 101.17 1033.82 101.17C1034 101.17 1034.32 101.2 1034.82 101.35C1035.32 101.494 1035.83 101.566 1036.34 101.566C1038.77 101.566 1040.94 99.9132 1041.61 97.5388C1042.37 94.8759 1041.06 92.0206 1038.57 90.8965C1038.34 90.7943 1038.1 90.7101 1037.87 90.638C1037.63 90.5719 1037.42 90.4937 1037.24 90.4096C1037.05 90.3254 1036.93 90.2533 1036.87 90.2052C1036.86 90.0549 1036.87 89.7183 1037.04 89.1232C1037.8 86.4603 1036.49 83.605 1033.99 82.4809C1033.77 82.3787 1033.53 82.2945 1033.29 82.2224C1032.8 82.0781 1032.28 82 1031.77 82V82.006Z" fill="white"/>
</svg>
