<svg version="1.2" xmlns="http://www.w3.org/2000/svg" viewBox="0 0 60 62" width="60" height="62">
	<title>LOGO-svg</title>
	<defs>
		<clipPath clipPathUnits="userSpaceOnUse" id="cp1">
			<path d="m0-2h125v133h-125z"/>
		</clipPath>
	</defs>
	<style>
		.s0 { fill: #89c9c7 } 
		.s1 { fill: #543816 } 
		.s2 { fill: #8ca96f } 
		.s3 { fill: #efc141 } 
		.s4 { fill: #e07d77 } 
		.s5 { fill: #f99a3d } 
	</style>
	<g id="Clip-Path" clip-path="url(#cp1)">
		<g id="Layer">
			<path id="Layer" class="s0" d="m93.9 8.2c-0.6 0-1-0.2-1.3-0.6l-4.5-7.1c-0.1-0.1-0.1-0.3-0.1-0.4-0.1-0.3 0.2-0.8 1.4-0.9l8.4-0.8q0.1 0 0.2 0 0.8 0 1.3 0.5l4.5 7.1c0.1 0.1 0.2 0.4 0.2 0.4 0 0.3-0.1 0.6-0.4 0.7q-0.3 0.2-0.9 0.3l-8.6 0.8q-0.1 0-0.2 0z"/>
			<path id="Layer" fill-rule="evenodd" class="s0" d="m99.6-1.3l4.5 7c0.1 0.2 0.2 0.4 0.2 0.7 0.1 0.4 0 1.2-1.5 1.3l-8.6 0.8q-0.2 0.1-0.3 0.1c-0.7 0-1.3-0.3-1.6-0.8l-4.4-7c-0.3-0.3-0.3-0.5-0.3-0.7 0-0.4 0.1-1.1 1.7-1.3l8.5-0.8q0.1 0 0.2 0c0.9 0 1.3 0.4 1.6 0.7zm-1.8 0l-8.4 0.9q-1.1 0.1-1.1 0.5c0 0.1 0.1 0.1 0.1 0.2l4.6 7.2c0.1 0.2 0.5 0.3 0.9 0.3q0.1 0 0.2 0l8.6-0.8c0.7-0.1 0.9-0.3 0.9-0.5 0-0.1 0-0.2-0.1-0.3l-4.5-7.1q-0.3-0.4-1-0.4-0.1 0-0.2 0z"/>
			<path id="Layer" class="s1" d="m24.5 36.7c0-0.6-0.3-1-0.8-1l-2.3 0.4-0.3-9.6 1.9-0.1c0.8 0 1.1-0.4 1.1-1.2l-0.3-7.9c0-0.7-0.3-1.1-1.1-1.1l-2 0.1-0.2-7.1c0-0.7-0.4-1.1-1.2-1.1l-6.9 0.3c-0.8 0-1.1 0.4-1.1 1.1l0.3 7.1-2.5 0.1 0.1-6.6c0.1-0.6-0.3-0.9-1-0.9l-6.5 0.3c-0.8 0-1.1 0.4-1.1 1.1l-0.6 23.8c0 0.7 0.4 0.9 1.1 0.9l6.4-0.2c0.8 0 1.2-0.4 1.2-1.1l0.2-7.1 3-0.1 0.4 11-7.8 1.5c-0.7 0.1-1.1 0.5-1.1 1.2l0.3 8.4c0 0.6 0.3 0.9 0.9 0.9l8.1-1.5 0.2 7.2c0 0.7 0.4 1 1.2 1l6.9-0.2c0.8-0.1 1.1-0.4 1.1-1.1l-0.3-8.7 2-0.4c0.7-0.2 1-0.6 1-1.3l-0.3-8.1zm34.9-0.2c-0.1-0.7-0.6-1.2-1.4-1.2l-1.9 0.1-0.1-3.7 1.9-0.1c0.8 0 1.3-0.5 1.2-1.3l-0.2-7.5c0-0.9-0.5-1.2-1.3-1.2l-9.6 0.3-0.1-3.9 8.1-0.2c0.8-0.1 1.2-0.4 1.2-1.3l-0.3-7.3c0-0.8-0.4-1.2-1.2-1.1l-8.1 0.2-0.1-3.5c-0.1-0.9-0.5-1.3-1.3-1.3l-8.5 0.3c-0.8 0-1.1 0.5-1.1 1.3l0.1 3.6-7.6 0.3c-0.8 0-1.1 0.4-1.1 1.2l0.3 7.4c0 0.8 0.4 1.1 1.1 1.1l7.6-0.3 0.2 3.9-9.2 0.3c-0.7 0-1.1 0.4-1.1 1.2l0.3 7.7c0 0.7 0.4 1.1 1.2 1.1l16.5-0.6 0.2 3.8-16.4 0.5c-0.8 0.1-1.1 0.6-1.1 1.3l0.2 7.7c0.1 0.8 0.4 1.2 1.3 1.2l16.3-0.6 0.2 6.2-5.1 0.2c-0.7 0-1.2 0.4-1.1 1.2l0.1 4.9c0.1 0.8 0.5 1.1 1.3 1.1l12.4-0.4c1.1-0.1 3.7-0.7 3.6-1.9l-0.4-11.7h2c0.8-0.1 1.2-0.4 1.2-1.3l-0.2-7.7z"/>
			<path id="Layer" fill-rule="evenodd" class="s1" d="m77 14.4h-0.2-7.9c-0.8 0-1.2-0.4-1.2-1.2v-7.1c0-1.2 0.6-1.9 1.8-1.8l21.4 0.1 10.9 0.1 21.3 0.1c1.2 0 1.8 0.7 1.8 1.9v7.1c0 0.8-0.5 1.2-1.2 1.1h-7.9c-0.8 0-1.2-0.4-1.2-1.2v-0.9l-36.5-0.2v0.9c-0.1 0.6-0.3 1-0.8 1.1m1.7 1.4h7.3c0.6 0 1 0.4 1 1v0.5h6.6c0.7 0 1 0.4 1 1.1v3.6c0 0.7-0.4 1.1-1.1 1.1h-1.5v2.5h1.5c0.7 0 1.1 0.4 1.1 1.1v3.7c0 0.7-0.4 1.1-1.1 1.1l-22.6-0.2c-0.7 0-1-0.4-1-1v-3.7c0-0.7 0.4-1.1 1-1.1h1.6v-2.6h-1.5c-0.7 0-1.1-0.4-1.1-1l0.1-3.8c0-0.6 0.3-1 1-0.9h6.7v-0.4c0-0.5 0.1-0.9 0.6-1zm16.8 19.9l-0.1 23.2c0 1.1-0.7 1.7-2 1.7l-10-0.1c-0.8 0-1.2-0.3-1.2-1.1v-2.4c0-0.8 0.4-1.3 1.3-1.3l2.6 0.1 0.1-2.5-8.7-0.1-1 6.1c-0.2 0.8-0.6 1.2-1.5 1.2l-6.8-0.1c-0.7 0-1-0.3-1-0.8l1.4-8 0.1-16.2q0-1.7 1.7-1.7l23.3 0.1c1.2 0 1.8 0.6 1.8 1.9zm-17.6 5.6l8.3 0.1v-2.3l-8.3-0.1zm0 7.3l8.3 0.1v-2.3h-8.3zm1.6-23.1l5.5 0.1v-2.6h-5.5zm43.9 27.1q1.1 0 1.1 1.2v3.2c0 0.7-0.5 1.1-1.2 1.1l-22-0.2c-1.1 0-1.6-0.4-1.6-1.6l0.1-24.9c0-1.2 0.6-1.8 1.6-1.8l12.4 0.1v-1.6l-12.4-0.1q-1.6 0-1.5-1.6v-9.4c0-0.7 0.4-1.2 1.1-1.2l7.6 0.1c0.7 0 1.1 0.5 1.1 1.2v0.2l13.9 0.1c0.7 0 1.1 0.4 1.1 1.1v2.6q0 1.1-1.2 1.1l-13.8-0.1-0.1 1.6 12 0.1c1.1 0 1.7 0.5 1.7 1.6l-0.1 7.1c0 1.2-0.5 1.7-1.7 1.7l-11.9-0.1v1.7l12.5 0.1c0.7 0 1.1 0.4 1.1 1.1v1.8c0 0.7-0.4 1.1-1.2 1.1l-12.5-0.1v1.6l12.6 0.1c0.7 0 1.1 0.4 1.1 1.2l-0.1 1.6c0 0.8-0.4 1.1-1.1 1.1l-12.5-0.1v1.7l12.6 0.1c0.6 0 1 0.4 1 1.1v1.7c0 0.7-0.4 1-1.1 1h-12.5v1.6l13.9 0.1z"/>
			<path id="Layer" class="s1" d="m56.6 120.7c0-0.8-0.5-1.1-1.1-1.1l-15.9 0.1v-9.8l10.8-0.1c0.8 0 1.2-0.5 1.2-1.3v-6.9c0-0.7-0.5-1.1-1.2-1.1l-10.9 0.1-0.1-9.9 18.1-0.2c0.9 0 1.3-0.3 1.3-1.2l-0.1-7.7c0-0.8-0.4-1.3-1.3-1.3l-18.1 0.2v-6.5c0-0.8-0.5-1.3-1.2-1.3l-9.2 0.1c-0.7 0-1.1 0.5-1.1 1.2l0.1 6.6h-9.5l1.4-4.7c0.1-0.2 0.1-0.3 0.1-0.5 0-0.5-0.4-0.7-1-0.7h-9.3c-0.6 0-1 0.4-1.2 1l-6 20.8c-0.1 0.2-0.1 0.3-0.1 0.5 0 0.4 0.4 0.7 1 0.7l9.3-0.1c0.6 0 1-0.3 1.2-1l1.7-5.7 12.4-0.1 0.1 9.9-11.9 0.1c-0.9 0-1.2 0.4-1.2 1.2l0.1 6.9c0 0.7 0.3 1.2 1.2 1.2l11.9-0.1 0.1 9.8-14.9 0.1c-0.9 0.1-1.2 0.4-1.2 1.2l0.1 7.8c0 0.8 0.3 1.3 1.2 1.3l42.1-0.4c0.7 0 1.2-0.4 1.2-1.2l-0.1-7.9z"/>
			<path id="Layer" fill-rule="evenodd" class="s1" d="m83.3 79.5c0.7 0.2 0.9 0.6 0.9 1.1v8.4c0 0.7-0.3 0.9-0.9 0.9h-0.3l-14-3.7c-0.5-0.1-0.8-0.5-0.8-1.1v-8.4c0-0.6 0.3-0.9 0.8-0.9q0.2 0 0.4 0l13.9 3.7zm0 14.5c0.6 0.3 0.9 0.6 0.9 1.1v8.3c-0.1 0.7-0.3 1.1-0.8 1.1-0.2 0-0.3 0-0.5-0.1l-13.9-3.8c-0.6-0.2-0.9-0.6-0.9-1.1l0.1-8.4c0-0.6 0.3-0.9 0.8-0.9 0.1 0 0.3 0 0.4 0l13.9 3.8zm-11.3 19.5l9.2 0.5c0.8 0 1.2 0.4 1.2 0.9 0 0.1 0 0.2-0.1 0.4l-5 13.8c-0.2 0.5-0.7 0.8-1.2 0.7l-9.4-0.5c-0.8 0-1.1-0.3-1-0.8 0-0.2 0-0.4 0.1-0.4l4.9-13.7c0.3-0.7 0.7-0.9 1.3-0.9zm48.6-22.4c0.8 0 1.2 0.5 1.2 1.2v7.8q-0.1 1.3-1.3 1.3l-8.6-0.1v4.6h10.4c1.2 0 1.8 0.6 1.8 1.8l-0.1 21.4c0 1.3-0.6 1.9-1.8 1.9l-32-0.1c-1.2 0-1.8-0.6-1.8-1.8l0.1-21.5c0-1.2 0.6-1.8 1.8-1.8h10.7l0.1-4.5h-9.2c-0.9 0-1.2-0.5-1.2-1.2v-7.9c0-0.7 0.4-1.2 1.2-1.2h9.2v-4.3l-11.9 0.5c-0.8 0.1-1-0.4-1-1.2l0.1-7.6c0-0.8 0.2-1.2 1.1-1.2l33.7-1.6c0.8 0 1 0.5 1 1.2v8c0 0.8-0.4 1.2-1.1 1.3l-11.1 0.5v4.5h8.7zm-20.8 29.5h12.9v-4.5l-12.8-0.1z"/>
			<path id="Layer" class="s2" d="m-0.1 10.1l-0.6 25.4c0 0.4 0.3 0.6 0.7 0.6l8.3-0.3c0.3 0 0.6-0.2 0.6-0.5l0.4-25.7c0-0.3-0.3-0.6-0.7-0.6l-8.2 0.6c-0.3 0-0.5 0.2-0.5 0.5z"/>
			<path id="Layer" class="s3" d="m37.2 49.6c-0.2-0.8-0.6-1.1-1.4-1.1l-7.1 0.3c-0.6 0-0.9 0.2-0.9 0.8l-0.1 8.1c0.2 0.8 0.6 1.1 1.5 1.1l6.9-0.2c0.9 0 1-0.4 1-1.2l0.1-7.8z"/>
			<path id="Layer" class="s4" d="m3.3 98.1c-0.6 0-1-0.3-1.3-0.7-0.3-0.4-0.4-0.9-0.3-1.4l6.4-20.7c0.2-0.7 0.8-1.1 1.5-1.1l9.2 0.2c0.6 0 1 0.2 1.3 0.6 0.3 0.4 0.4 1 0.2 1.4l-6.1 20.5c-0.2 0.7-0.8 1.2-1.5 1.2h-9.4z"/>
			<path id="Layer" fill-rule="evenodd" class="s4" d="m9.7 73.7l9.1 0.1c0.7 0.1 1.3 0.4 1.7 0.9 0.4 0.6 0.5 1.2 0.3 1.9l-6.1 20.5c-0.3 0.9-1.1 1.5-2 1.5h-9.4c-0.7 0-1.4-0.3-1.8-0.9-0.4-0.5-0.5-1.2-0.3-1.9l6.4-20.6c0.3-0.9 1.1-1.5 2-1.5q0.1 0 0.1 0zm-1.1 1.8l-6.4 20.6c-0.2 0.7 0.3 1.5 1.1 1.5h9.4c0.4 0 0.9-0.3 1-0.8l6.1-20.5c0.2-0.7-0.3-1.4-1-1.4l-9.2-0.2q0 0 0 0c-0.4 0-0.9 0.3-1 0.8z"/>
			<path id="Layer" class="s5" d="m112.4 115.6h-12.2c-0.2 0-0.4 0.2-0.4 0.5v4.6c0 0.3 0.2 0.5 0.4 0.5h12.2c0.3 0 0.5-0.3 0.5-0.5v-4.7c0-0.2-0.2-0.4-0.5-0.4z"/>
		</g>
	</g>
</svg>