<svg width="56" height="44" viewBox="0 0 56 44" fill="none" xmlns="http://www.w3.org/2000/svg">
<g clip-path="url(#clip0_2296_12281)">
<path d="M28.8889 38.289C28.8889 38.289 6.58668 38.3418 4.22224 28.6002C1.86668 18.8586 11.4045 4.23297 18.24 4.90177C25.0756 5.57057 27.1022 8.65937 33.3511 6.32737C39.1467 4.16257 42.56 3.34417 47.5467 11.2026C52.5334 19.061 58.5333 36.9074 28.8889 38.2978V38.289Z" fill="white" stroke="white" stroke-width="8" stroke-linecap="round" stroke-linejoin="round"/>
<path d="M29.3066 38.289C29.3066 38.289 7.00441 38.3418 4.63996 28.6002C2.28441 18.8586 11.8222 4.23297 18.6577 4.90177C25.4933 5.57057 27.52 8.65937 33.7689 6.32737C39.5644 4.16257 42.9777 3.34417 47.9644 11.2026C52.9422 19.061 58.9511 36.9074 29.3066 38.2978V38.289Z" fill="#F9CC3D"/>
<path d="M40.5689 12.6431C39.3689 12.7047 39.1111 14.6407 38.8622 16.9991C38.5245 20.2199 39.7156 21.2847 40.2845 21.5135C41.44 21.9887 42.5334 20.5103 42.8711 17.2895C43.1734 14.3591 42.08 12.5639 40.5689 12.6431Z" fill="#543816" stroke="#543816" stroke-width="1.84" stroke-miterlimit="10"/>
<path d="M18.64 14.8655C19.1822 16.2647 19.2977 18.9839 19.04 20.7351C18.9066 21.6151 17.1555 23.4103 15.4933 21.6767C13.8311 19.9431 14.1955 15.0855 15.36 13.8887C16.2844 12.9471 18.0177 13.2551 18.64 14.8655Z" fill="#543816" stroke="#543816" stroke-width="1.84" stroke-miterlimit="10"/>
<g opacity="0.71">
<path d="M37.4578 8.11062C37.6712 7.47702 38.489 7.23062 39.3245 7.15142C39.4312 7.07222 39.5645 7.01942 39.7334 7.01942C40.1067 7.00182 40.4534 7.04582 40.8001 7.14262C40.8356 7.14262 40.8712 7.14262 40.9067 7.14262C41.1112 7.15142 41.2712 7.23062 41.3867 7.34502C41.3956 7.34502 41.4134 7.35382 41.4223 7.36262C41.8578 7.52102 42.2045 7.84662 42.2401 8.41862C42.329 9.67702 40.5067 9.64182 39.6445 9.60662C38.8623 9.58022 37.0667 9.29862 37.4578 8.11062Z" fill="#FFAD1D"/>
<path d="M31.3423 8.55192C31.8845 8.33192 32.4267 8.12952 32.9867 7.93592C33.4579 7.77752 33.9734 7.54872 34.489 7.63672C35.3867 7.78632 36.1245 8.69272 36.2134 9.54632C36.2579 9.97752 35.7867 10.3471 35.369 10.2855C35.2979 10.3119 35.209 10.3383 35.1201 10.3383C33.769 10.4175 32.4356 10.5055 31.1912 9.88952C30.569 9.58152 30.8001 8.76312 31.3423 8.54312V8.55192Z" fill="#FFAD1D"/>
<path d="M27.8845 6.85668C28.3022 6.89188 28.72 6.90948 29.1467 6.90068C29.4578 6.90068 29.7689 6.90068 30.08 6.90068C30.1067 6.90068 30.1422 6.90068 30.1689 6.90068C30.2045 6.93588 30.24 6.97108 30.2667 7.00628C30.48 7.27028 30.3556 7.66628 30.1689 7.89508C29.6178 8.55508 28.9956 8.78387 28.2667 8.64307C28.0622 8.65187 27.8578 8.59028 27.7067 8.47588C27.7067 8.47588 27.6978 8.47588 27.6889 8.47588C27.0133 8.20308 25.9645 7.65748 25.9556 6.80388C25.9556 6.75988 25.9556 6.71588 25.9556 6.67188C26.5956 6.75988 27.2445 6.81268 27.8933 6.85668H27.8845Z" fill="#FFAD1D"/>
<path d="M37.8666 5.01562C37.9911 5.29723 37.8933 5.62283 37.5644 5.85163C36.9422 6.27403 36.1955 6.42363 35.4489 6.28283C35.1111 6.22123 34.9155 5.93083 34.8711 5.63163C35.8311 5.32363 36.8533 5.12123 37.8666 5.01562Z" fill="#FFAD1D"/>
<path d="M18.8711 7.98373C18.9867 7.37653 19.7067 7.03333 20.2311 6.83973C20.88 6.59333 21.6178 6.91013 22.2489 7.12133C23.0044 7.37653 23.7511 7.68453 24.4533 8.06293C24.9244 8.31813 25.3867 8.70533 25.2178 9.29493C25.0489 9.87573 24.32 10.0429 23.7867 10.0341C23.0044 10.0165 22.1955 9.84053 21.4222 9.72613C20.9422 9.65573 20.4978 9.53253 20.0978 9.29493C19.9911 9.29493 19.8755 9.25973 19.7511 9.19813C19.2355 8.91653 18.7289 8.69653 18.8711 7.99253V7.98373Z" fill="#FFAD1D"/>
<path d="M16.9956 5.36494C17.0667 5.33854 17.1467 5.32094 17.2178 5.29454C17.2178 5.28574 17.2178 5.26814 17.2178 5.25934C18.1245 5.17134 19.0578 5.15374 19.9378 5.33854C19.9645 5.33854 19.9911 5.34734 20.0267 5.34734C20.0978 5.37374 20.1689 5.39134 20.2489 5.40014C20.2311 5.61134 20.1333 5.80494 19.9289 5.93694C19.8489 6.01614 19.7333 6.08654 19.5911 6.12174C19.1645 6.22734 18.7378 6.35054 18.3111 6.48254L17.3956 6.77294C16.48 7.06334 16.08 5.66414 16.9778 5.36494H16.9956Z" fill="#FFAD1D"/>
<path d="M11.9111 8.6436C12.2845 8.2476 12.6756 7.8868 13.04 7.482C13.0667 7.4556 13.0845 7.4204 13.1111 7.394C13.6445 6.9892 14.2134 6.646 14.7467 6.25C15.4311 6.4612 15.8845 7.394 15.6534 8.0364C15.6534 8.054 15.6445 8.0628 15.6356 8.0804C15.6534 8.142 15.6622 8.2036 15.6622 8.2652C15.6622 8.6964 15.3334 8.9692 14.9334 9.0132C14.5156 9.066 14.0889 9.11 13.6711 9.1628C13.2534 9.3212 12.7822 9.3652 12.3467 9.2684C12.0267 9.198 11.8667 8.9956 11.8134 8.7668C11.8489 8.7316 11.8756 8.6964 11.9111 8.6524V8.6436Z" fill="#FFAD1D"/>
<path d="M15.6978 9.24105C16.0534 9.14425 16.409 9.07385 16.7734 9.01225C16.8267 8.99465 16.8889 8.98585 16.9423 8.97705C17.0578 8.95945 17.1823 8.95065 17.2978 8.93305C17.6978 8.88905 18.0445 9.28505 18.0534 9.65465C18.0623 10.0242 17.8045 10.2794 17.4667 10.3762C17.4401 10.385 17.4134 10.3938 17.3778 10.4026C16.9512 10.4906 16.5334 10.5698 16.1067 10.6578C15.7156 10.737 15.3067 10.561 15.1823 10.1562C15.0667 9.77785 15.2978 9.34665 15.6889 9.24105H15.6978Z" fill="#FFAD1D"/>
<path d="M27.1645 9.52195C27.7512 9.11715 28.6134 9.75075 29.1734 10.0412C29.8934 10.4108 29.4756 11.3964 28.8178 11.414C28.6578 11.5284 28.4623 11.5724 28.2312 11.4932C28.1156 11.4492 28.0001 11.4052 27.8756 11.3612C27.3156 11.3436 26.8801 11.0884 26.5423 10.6396C26.2045 10.1996 26.6312 9.49555 27.1645 9.52195Z" fill="#FFAD1D"/>
<path d="M43.5022 9.26804C43.8222 9.16244 44.1689 9.03924 44.4533 8.90724C44.4622 8.90724 44.4711 8.90724 44.48 8.89844C44.8889 9.30324 45.2889 9.73444 45.6356 10.2008C45.5289 10.4736 45.28 10.6848 44.96 10.6848C44.5511 10.6848 44.1333 10.7024 43.7245 10.7112C42.8711 10.7288 42.72 9.53204 43.5022 9.26804Z" fill="#FFAD1D"/>
</g>
<path opacity="0.71" d="M10.0978 13.6749C10.1334 13.5605 10.1867 13.4725 10.2667 13.3845V13.3757C10.2845 13.3229 10.3022 13.2613 10.3289 13.2085C10.3289 13.1909 10.3467 13.1821 10.3556 13.1645C10.4089 13.0853 10.4622 12.9973 10.5245 12.9269C10.5334 12.9093 10.5511 12.9005 10.56 12.8917C10.6311 12.8301 10.7111 12.7597 10.7911 12.7069C10.9422 12.6101 11.1111 12.5573 11.2978 12.5485C11.44 12.5397 11.5645 12.5661 11.6889 12.6189C11.8134 12.6541 11.9289 12.7157 12.0178 12.8125C12.1511 12.9357 12.24 13.0765 12.2934 13.2437C12.3111 13.2789 12.32 13.3141 12.3289 13.3581C12.3556 13.4813 12.3822 13.6045 12.3911 13.7277C12.3911 13.7453 12.3911 13.7717 12.3911 13.7893C12.3911 13.8949 12.3734 14.0005 12.3645 14.0973C12.3645 14.1413 12.3467 14.1765 12.3378 14.2205C12.3022 14.3349 12.2578 14.4581 12.2045 14.5637C12.1689 14.6341 12.1156 14.6957 12.0711 14.7661C12.0267 14.8277 11.9822 14.8981 11.92 14.9597C11.8311 15.0477 11.7334 15.1269 11.6356 15.1973C11.4845 15.2941 11.3156 15.3469 11.1289 15.3557C10.9867 15.3645 10.8622 15.3381 10.7378 15.2853C10.6134 15.2501 10.4978 15.1885 10.4089 15.0917C10.2756 14.9685 10.1867 14.8277 10.1334 14.6605C10.1067 14.6077 10.0889 14.5549 10.08 14.4933C10.0534 14.3613 10.0178 14.2117 10.0178 14.0709C10.0089 13.9301 10.0356 13.8069 10.0889 13.6837L10.0978 13.6749Z" fill="#FFAD1D"/>
<path opacity="0.71" d="M8.72005 11.2318C8.76449 11.0646 8.84449 10.9062 8.96005 10.783C9.13783 10.607 9.30672 10.4398 9.48449 10.2638C9.57338 10.167 9.68005 10.0878 9.80449 10.0438C9.92005 9.97338 10.0534 9.94698 10.1956 9.94698C10.3378 9.93818 10.4623 9.96458 10.5867 10.0174C10.7112 10.0526 10.8267 10.1142 10.9156 10.211C10.9689 10.2726 11.0223 10.343 11.0845 10.4046C11.1823 10.5542 11.2356 10.7214 11.2445 10.9062C11.2445 10.9942 11.2267 11.0822 11.2178 11.1702C11.1734 11.3374 11.0934 11.4958 10.9778 11.619C10.8 11.795 10.6312 11.9622 10.4534 12.1382C10.3645 12.235 10.2578 12.3142 10.1334 12.3582C10.0178 12.4286 9.88449 12.455 9.75116 12.455C9.60894 12.4638 9.48449 12.4374 9.36005 12.3846C9.2356 12.3494 9.12005 12.2878 9.03116 12.191C8.97783 12.1294 8.92449 12.059 8.86227 11.9974C8.76449 11.8478 8.71116 11.6806 8.70227 11.4958C8.70227 11.4078 8.72005 11.3198 8.72894 11.2318H8.72005Z" fill="#FFAD1D"/>
<path opacity="0.71" d="M6.30227 17.1421C6.65782 16.5613 7.09338 16.0157 7.61782 15.5669C7.75116 15.4525 7.88449 15.3469 8.05338 15.2941C8.2756 15.2237 8.50671 15.2413 8.71116 15.3205C9.08449 15.4613 9.34227 15.8133 9.36894 16.2093C9.3956 16.6669 9.34227 17.1245 9.24449 17.5645C9.24449 17.5645 9.24449 17.5733 9.24449 17.5821C9.3156 17.8461 9.29782 18.1101 9.17338 18.3565C9.01338 18.6645 8.74671 18.9549 8.44449 19.1221C8.24005 19.2365 8.0356 19.2893 7.80449 19.2629C7.59116 19.2453 7.36894 19.1661 7.21782 19.0077C7.09338 18.8845 7.01338 18.7349 6.96005 18.5765C6.87116 18.5589 6.79116 18.5325 6.72005 18.4885C6.49782 18.3565 6.30227 18.1629 6.23116 17.9077C6.16005 17.6525 6.16005 17.3621 6.30227 17.1333V17.1421Z" fill="#FFAD1D"/>
<path opacity="0.71" d="M4.16895 25.5869C4.16895 25.4901 4.19561 25.4109 4.2045 25.3229C4.2045 25.3229 4.2045 25.3229 4.19561 25.3229C4.2045 25.2877 4.21339 25.2437 4.22228 25.2085C4.22228 25.1733 4.22228 25.1381 4.24006 25.1029C4.24006 25.0501 4.24006 24.9973 4.24006 24.9445C4.23117 24.8653 4.23117 24.7949 4.24006 24.7157C4.24006 24.5837 4.27561 24.4605 4.34672 24.3373C4.40895 24.2141 4.5245 24.0997 4.64006 24.0029C4.65783 23.9677 4.67561 23.9413 4.69339 23.9061C4.83561 23.6949 4.93339 23.5717 5.14672 23.4221C5.3245 23.2989 5.5645 23.2109 5.78672 23.2109C6.00895 23.2109 6.22228 23.2549 6.41783 23.3605C6.61339 23.4749 6.7645 23.6245 6.89783 23.8005C6.93339 23.8533 6.96895 23.9061 6.99561 23.9589C7.05783 24.0909 7.12895 24.2229 7.18228 24.3637C7.3245 24.7685 7.3245 25.1821 7.27117 25.6045C7.20895 26.0533 6.98672 26.4581 6.71117 26.8013C6.56006 26.9949 6.24006 27.1093 6.00895 27.1181C5.77783 27.1269 5.45783 27.0301 5.28006 26.8541C5.18228 26.7573 5.10228 26.6429 5.04006 26.5109C4.8445 26.4845 4.64895 26.4141 4.50672 26.2733C4.32895 26.0885 4.16895 25.8421 4.18672 25.5781L4.16895 25.5869Z" fill="#FFAD1D"/>
<path opacity="0.71" d="M33.6712 13.8312C33.7689 13.7256 33.8934 13.6288 34.0089 13.5408C34.0712 13.4968 34.1334 13.4528 34.1956 13.4176C34.2934 13.3648 34.4001 13.312 34.5067 13.2768C34.6134 13.2328 34.7378 13.2152 34.8534 13.2064C34.9512 13.1976 35.0667 13.2064 35.1645 13.2328C35.1823 13.2328 35.1912 13.2328 35.2 13.2328C35.0934 13.2064 35.3956 13.2944 35.4667 13.3384C35.4667 13.3384 35.4667 13.3384 35.4756 13.3384C35.5289 13.3208 35.5734 13.312 35.6267 13.3032C35.7601 13.268 35.8934 13.268 36.0267 13.3032C36.16 13.3296 36.2756 13.3824 36.3734 13.4704C36.4889 13.5408 36.5778 13.6288 36.6401 13.7432C36.7734 13.972 36.8445 14.2536 36.7734 14.5088C36.7023 14.7464 36.56 15.0016 36.3289 15.1248L35.4045 15.6176L35.1645 15.7232C35.0312 15.7672 34.8978 15.7848 34.7645 15.7584C34.6756 15.7584 34.5867 15.7408 34.5067 15.6968C34.3823 15.6616 34.2667 15.6 34.1778 15.5032C34.1689 15.4944 34.1601 15.4768 34.1423 15.4592C34.1067 15.4504 34.0712 15.4416 34.0356 15.424C33.9112 15.3888 33.7956 15.3272 33.7067 15.2304C33.52 15.0456 33.3867 14.7992 33.3867 14.5352C33.3867 14.2712 33.4667 14.016 33.6534 13.8136L33.6712 13.8312Z" fill="#FFAD1D"/>
<path opacity="0.71" d="M27.6267 13.2351C28.9245 13.1911 29.0045 15.1887 27.6978 15.2415C26.3911 15.2943 26.32 13.2879 27.6267 13.2351Z" fill="#FFAD1D"/>
<path opacity="0.71" d="M21.0489 12.5559C21.0756 12.4239 21.1289 12.3095 21.2178 12.2127C21.2622 12.1335 21.3156 12.0719 21.3956 12.0279C21.4934 11.9399 21.6 11.8695 21.7334 11.8343C21.9822 11.7727 22.2934 11.7551 22.5156 11.9047C22.5867 11.9487 22.6489 12.0103 22.72 12.0543C22.72 12.0543 22.7556 12.0807 22.7734 12.0895C22.8089 12.1159 22.8445 12.1423 22.88 12.1687C22.9334 12.1951 22.9867 12.2303 23.04 12.2567C23.1111 12.2743 23.1822 12.2919 23.2534 12.3095C23.3156 12.3095 23.3689 12.3095 23.4311 12.3095C23.5734 12.3007 23.6978 12.3271 23.8222 12.3799C23.9467 12.4151 24.0622 12.4767 24.1511 12.5735C24.2489 12.6615 24.3289 12.7671 24.3734 12.8903C24.4445 13.0047 24.4711 13.1367 24.4711 13.2687C24.4711 13.5239 24.3911 13.7967 24.2045 13.9903L24.0089 14.1575C23.9289 14.2103 23.8489 14.2455 23.7689 14.2719C23.7245 14.3159 23.6711 14.3599 23.6178 14.3951C23.4667 14.4919 23.2978 14.5447 23.1111 14.5535C22.7822 14.5975 22.4089 14.4303 22.1778 14.2103C22.16 14.1927 22.1422 14.1663 22.1245 14.1487C22.0978 14.1311 22.0711 14.1135 22.0445 14.0959C22 14.0607 21.9734 14.0079 21.9378 13.9727C21.9111 13.9639 21.8934 13.9551 21.8667 13.9375C21.68 13.8231 21.5022 13.6911 21.3511 13.5415C21.1734 13.3567 21.0311 13.1103 21.0311 12.8463C21.0311 12.7583 21.0489 12.6703 21.0578 12.5823L21.0489 12.5559Z" fill="#FFAD1D"/>
<path d="M42.72 35.6817C48.1511 34.0097 51.36 27.5593 51.36 27.5593L47.6889 23.8281L42.6844 25.6233L37.5644 24.5585L21.8044 26.2129C21.8044 26.2129 17.2267 25.8345 12.3733 24.2065C7.52 22.5785 4.48889 28.0961 4.48889 28.0961C6.59556 33.3761 12.9244 35.1449 12.9244 35.1449C12.9244 35.1449 28.1244 40.1873 42.72 35.6905V35.6817Z" fill="#F9F7ED"/>
<path d="M48.88 31.3351C48.88 31.3351 45.1378 30.5959 46.24 24.2159C46.6845 21.6287 49.2445 19.7191 51.8578 19.9391C51.8578 19.9391 53.0311 26.7679 48.88 31.3439V31.3351Z" fill="#FC9470"/>
<path d="M9.18217 21.9204C6.30217 21.674 3.01328 24.6748 3.49328 27.8956C3.86661 30.3772 6.33772 32.1108 8.76439 32.2164C10.4533 32.2868 12.5599 31.5828 13.4755 29.9372C15.0577 27.0772 12.6133 22.2196 9.18217 21.9292V21.9204Z" fill="#FC9470"/>
<path d="M29.3066 38.289C29.3066 38.289 7.00441 38.3418 4.63996 28.6002C2.28441 18.8586 11.8222 4.23297 18.6577 4.90177C25.4933 5.57057 27.52 8.65937 33.7689 6.32737C39.5644 4.16257 42.9777 3.34417 47.9644 11.2026C52.9422 19.061 58.9511 36.9074 29.3066 38.2978V38.289Z" stroke="#543816" stroke-width="2.17" stroke-linecap="round" stroke-linejoin="round"/>
<path d="M22.2489 26.4266L22.4711 27.8874C22.4711 27.8874 27.0311 28.8026 30.6578 28.6266C34.2845 28.4506 38.0978 26.7874 38.0978 26.7874L39.2622 25.485C39.2622 25.485 30.3467 23.6282 22.2578 26.4354L22.2489 26.4266Z" fill="#EFBEB1"/>
<path d="M40.08 25.9375C28.6311 31.7367 19.4756 26.5623 19.4756 26.5623" stroke="#543816" stroke-width="2.17" stroke-linecap="round" stroke-linejoin="round"/>
<path d="M48.6489 23.2853C48.6489 23.2853 46.6045 26.5501 41.4223 25.8989C38.3023 25.5117 36.1956 24.0773 30.7111 24.4645C24.3289 24.9133 24.3645 26.4797 19.4667 26.5589C14.5689 26.6381 10.6489 23.1797 10.6489 23.1797" stroke="#543816" stroke-width="2.17" stroke-linecap="round" stroke-linejoin="round"/>
</g>
<defs>
<clipPath id="clip0_2296_12281">
<rect width="56" height="44" fill="white"/>
</clipPath>
</defs>
</svg>
