<svg width="56" height="44" viewBox="0 0 56 44" fill="none" xmlns="http://www.w3.org/2000/svg">
<g clip-path="url(#clip0_2253_12375)">
<path d="M28.8887 38.2888C28.8887 38.2888 6.58644 38.3416 4.222 28.6C1.86644 18.8584 11.4042 4.23285 18.2398 4.90165C25.0753 5.57045 27.102 8.65925 33.3509 6.32725C39.1464 4.16245 42.5598 3.34405 47.5464 11.2024C52.5331 19.0608 58.5331 36.9072 28.8887 38.2976V38.2888Z" fill="white" stroke="white" stroke-width="8" stroke-linecap="round" stroke-linejoin="round"/>
<path d="M29.3066 38.2888C29.3066 38.2888 7.00441 38.3416 4.63996 28.6C2.28441 18.8584 11.8222 4.23285 18.6577 4.90165C25.4933 5.57045 27.52 8.65925 33.7689 6.32725C39.5644 4.16245 42.9777 3.34405 47.9644 11.2024C52.9422 19.0608 58.9511 36.9072 29.3066 38.2976V38.2888Z" fill="#E1E1E1"/>
<path d="M40.5687 12.6456C39.3687 12.7072 39.1109 14.6432 38.862 17.0016C38.5242 20.2224 39.7153 21.2872 40.2842 21.516C41.4398 21.9912 42.5331 20.5128 42.8709 17.292C43.1731 14.3616 42.0798 12.5664 40.5687 12.6456Z" fill="#797979" stroke="#797979" stroke-width="1.84" stroke-miterlimit="10"/>
<path d="M18.6403 14.8632C19.1826 16.2624 19.2981 18.9816 19.0403 20.7328C18.907 21.6128 17.1559 23.408 15.4937 21.6744C13.8314 19.9408 14.1959 15.0832 15.3603 13.8864C16.2848 12.9448 18.0181 13.2528 18.6403 14.8632Z" fill="#797979" stroke="#797979" stroke-width="1.84" stroke-miterlimit="10"/>
<g opacity="0.71">
<path d="M37.4583 8.11355C37.6717 7.47995 38.4894 7.23355 39.325 7.15435C39.4317 7.07515 39.565 7.02235 39.7339 7.02235C40.1072 7.00475 40.4539 7.04875 40.8006 7.14555C40.8361 7.14555 40.8717 7.14555 40.9072 7.14555C41.1117 7.15435 41.2717 7.23355 41.3872 7.34795C41.3961 7.34795 41.4139 7.35675 41.4228 7.36555C41.8583 7.52395 42.205 7.84955 42.2406 8.42155C42.3294 9.67995 40.5072 9.64475 39.645 9.60955C38.8628 9.58315 37.0672 9.30155 37.4583 8.11355Z" fill="#BABABA"/>
<path d="M31.3421 8.55363C31.8843 8.33363 32.4265 8.13123 32.9865 7.93763C33.4576 7.77923 33.9732 7.55043 34.4887 7.63843C35.3865 7.78803 36.1243 8.69443 36.2132 9.54803C36.2576 9.97923 35.7865 10.3488 35.3687 10.2872C35.2976 10.3136 35.2087 10.34 35.1198 10.34C33.7687 10.4192 32.4354 10.5072 31.1909 9.89123C30.5687 9.58323 30.7998 8.76483 31.3421 8.54483V8.55363Z" fill="#BABABA"/>
<path d="M27.8849 6.85521C28.3027 6.89041 28.7205 6.90801 29.1472 6.89921C29.4583 6.89921 29.7694 6.89921 30.0805 6.89921C30.1072 6.89921 30.1427 6.89921 30.1694 6.89921C30.2049 6.93441 30.2405 6.96961 30.2672 7.00481C30.4805 7.26881 30.3561 7.66481 30.1694 7.89361C29.6183 8.55361 28.9961 8.78241 28.2672 8.64161C28.0627 8.65041 27.8583 8.58881 27.7072 8.47441C27.7072 8.47441 27.6983 8.47441 27.6894 8.47441C27.0138 8.20161 25.9649 7.65601 25.9561 6.80241C25.9561 6.75841 25.9561 6.71441 25.9561 6.67041C26.5961 6.75841 27.2449 6.81121 27.8938 6.85521H27.8849Z" fill="#BABABA"/>
<path d="M37.8666 5.01599C37.9911 5.29759 37.8933 5.62319 37.5644 5.85199C36.9422 6.27439 36.1955 6.42399 35.4489 6.28319C35.1111 6.22159 34.9155 5.93119 34.8711 5.63199C35.8311 5.32399 36.8533 5.12159 37.8666 5.01599Z" fill="#BABABA"/>
<path d="M18.871 7.98154C18.9865 7.37434 19.7065 7.03114 20.231 6.83754C20.8799 6.59114 21.6176 6.90794 22.2488 7.11914C23.0043 7.37434 23.751 7.68234 24.4532 8.06074C24.9243 8.31594 25.3865 8.70314 25.2176 9.29274C25.0488 9.87354 24.3199 10.0407 23.7865 10.0319C23.0043 10.0143 22.1954 9.83834 21.4221 9.72394C20.9421 9.65354 20.4976 9.53034 20.0976 9.29274C19.991 9.29274 19.8754 9.25754 19.751 9.19594C19.2354 8.91434 18.7288 8.69434 18.871 7.99034V7.98154Z" fill="#BABABA"/>
<path d="M16.9961 5.36799C17.0672 5.34159 17.1472 5.32399 17.2183 5.29759C17.2183 5.28879 17.2183 5.27119 17.2183 5.26239C18.1249 5.17439 19.0583 5.15679 19.9383 5.34159C19.9649 5.34159 19.9916 5.35039 20.0272 5.35039C20.0983 5.37679 20.1694 5.39439 20.2494 5.40319C20.2316 5.61439 20.1338 5.80799 19.9294 5.93999C19.8494 6.01919 19.7338 6.08959 19.5916 6.12479C19.1649 6.23039 18.7383 6.35359 18.3116 6.48559L17.3961 6.77599C16.4805 7.06639 16.0805 5.66719 16.9783 5.36799H16.9961Z" fill="#BABABA"/>
<path d="M11.9113 8.64165C12.2846 8.24565 12.6757 7.88485 13.0401 7.48005C13.0668 7.45365 13.0846 7.41845 13.1113 7.39205C13.6446 6.98725 14.2135 6.64405 14.7468 6.24805C15.4313 6.45925 15.8846 7.39205 15.6535 8.03445C15.6535 8.05205 15.6446 8.06085 15.6357 8.07845C15.6535 8.14005 15.6624 8.20165 15.6624 8.26325C15.6624 8.69445 15.3335 8.96725 14.9335 9.01125C14.5157 9.06405 14.089 9.10805 13.6713 9.16085C13.2535 9.31925 12.7824 9.36325 12.3468 9.26645C12.0268 9.19605 11.8668 8.99365 11.8135 8.76485C11.849 8.72965 11.8757 8.69445 11.9113 8.65045V8.64165Z" fill="#BABABA"/>
<path d="M15.6977 9.23995C16.0533 9.14315 16.4088 9.07275 16.7733 9.01115C16.8266 8.99355 16.8888 8.98475 16.9422 8.97595C17.0577 8.95835 17.1822 8.94955 17.2977 8.93195C17.6977 8.88795 18.0444 9.28395 18.0533 9.65355C18.0622 10.0232 17.8044 10.2783 17.4666 10.3751C17.4399 10.3839 17.4133 10.3927 17.3777 10.4015C16.951 10.4895 16.5333 10.5687 16.1066 10.6567C15.7155 10.7359 15.3066 10.5599 15.1822 10.1551C15.0666 9.77675 15.2977 9.34555 15.6888 9.23995H15.6977Z" fill="#BABABA"/>
<path d="M27.1644 9.52159C27.7511 9.11679 28.6133 9.75039 29.1733 10.0408C29.8933 10.4104 29.4755 11.396 28.8177 11.4136C28.6577 11.528 28.4622 11.572 28.2311 11.4928C28.1155 11.4488 27.9999 11.4048 27.8755 11.3608C27.3155 11.3432 26.8799 11.088 26.5422 10.6392C26.2044 10.1992 26.6311 9.49519 27.1644 9.52159Z" fill="#BABABA"/>
<path d="M43.5024 9.26645C43.8224 9.16085 44.169 9.03765 44.4535 8.90565C44.4624 8.90565 44.4712 8.90565 44.4801 8.89685C44.889 9.30165 45.289 9.73285 45.6357 10.1993C45.529 10.4721 45.2801 10.6833 44.9601 10.6833C44.5512 10.6833 44.1335 10.7009 43.7246 10.7097C42.8712 10.7273 42.7201 9.53045 43.5024 9.26645Z" fill="#BABABA"/>
</g>
<path opacity="0.71" d="M10.0973 13.6752C10.1329 13.5608 10.1862 13.4728 10.2662 13.3848V13.376C10.284 13.3232 10.3018 13.2616 10.3284 13.2088C10.3284 13.1912 10.3462 13.1824 10.3551 13.1648C10.4084 13.0856 10.4618 12.9976 10.524 12.9272C10.5329 12.9096 10.5506 12.9008 10.5595 12.892C10.6306 12.8304 10.7106 12.76 10.7906 12.7072C10.9418 12.6104 11.1106 12.5576 11.2973 12.5488C11.4395 12.54 11.564 12.5664 11.6884 12.6192C11.8129 12.6544 11.9284 12.716 12.0173 12.8128C12.1506 12.936 12.2395 13.0768 12.2929 13.244C12.3106 13.2792 12.3195 13.3144 12.3284 13.3584C12.3551 13.4816 12.3818 13.6048 12.3906 13.728C12.3906 13.7456 12.3906 13.772 12.3906 13.7896C12.3906 13.8952 12.3729 14.0008 12.364 14.0976C12.364 14.1416 12.3462 14.1768 12.3373 14.2208C12.3018 14.3352 12.2573 14.4584 12.204 14.564C12.1684 14.6344 12.1151 14.696 12.0706 14.7664C12.0262 14.828 11.9818 14.8984 11.9195 14.96C11.8306 15.048 11.7329 15.1272 11.6351 15.1976C11.484 15.2944 11.3151 15.3472 11.1284 15.356C10.9862 15.3648 10.8618 15.3384 10.7373 15.2856C10.6129 15.2504 10.4973 15.1888 10.4084 15.092C10.2751 14.9688 10.1862 14.828 10.1329 14.6608C10.1062 14.608 10.0884 14.5552 10.0795 14.4936C10.0529 14.3616 10.0173 14.212 10.0173 14.0712C10.0084 13.9304 10.0351 13.8072 10.0884 13.684L10.0973 13.6752Z" fill="#BABABA"/>
<path opacity="0.71" d="M8.71993 11.2289C8.76437 11.0617 8.84437 10.9033 8.95993 10.7801C9.1377 10.6041 9.30659 10.4369 9.48437 10.2609C9.57326 10.1641 9.67993 10.0849 9.80437 10.0409C9.91993 9.97045 10.0533 9.94405 10.1955 9.94405C10.3377 9.93525 10.4621 9.96165 10.5866 10.0145C10.711 10.0497 10.8266 10.1113 10.9155 10.2081C10.9688 10.2697 11.0221 10.34 11.0844 10.4016C11.1821 10.5512 11.2355 10.7185 11.2444 10.9033C11.2444 10.9913 11.2266 11.0792 11.2177 11.1672C11.1733 11.3344 11.0933 11.4929 10.9777 11.6161C10.7999 11.7921 10.631 11.9593 10.4533 12.1353C10.3644 12.2321 10.2577 12.3113 10.1333 12.3553C10.0177 12.4257 9.88437 12.452 9.75104 12.452C9.60882 12.4608 9.48437 12.4344 9.35993 12.3816C9.23548 12.3464 9.11993 12.2849 9.03104 12.1881C8.9777 12.1265 8.92437 12.0561 8.86215 11.9945C8.76437 11.8449 8.71104 11.6777 8.70215 11.4929C8.70215 11.4049 8.71993 11.3169 8.72881 11.2289H8.71993Z" fill="#BABABA"/>
<path opacity="0.71" d="M6.30239 17.1423C6.65795 16.5615 7.0935 16.0159 7.61795 15.5671C7.75128 15.4527 7.88461 15.3471 8.0535 15.2943C8.27572 15.2239 8.50684 15.2415 8.71128 15.3207C9.08461 15.4615 9.34239 15.8135 9.36906 16.2095C9.39572 16.6671 9.34239 17.1247 9.24461 17.5647C9.24461 17.5647 9.24461 17.5735 9.24461 17.5823C9.31572 17.8463 9.29795 18.1103 9.1735 18.3567C9.0135 18.6647 8.74684 18.9551 8.44461 19.1223C8.24017 19.2367 8.03572 19.2895 7.80461 19.2631C7.59128 19.2455 7.36906 19.1663 7.21795 19.0079C7.0935 18.8847 7.0135 18.7351 6.96017 18.5767C6.87128 18.5591 6.79128 18.5327 6.72017 18.4887C6.49795 18.3567 6.30239 18.1631 6.23128 17.9079C6.16017 17.6527 6.16017 17.3623 6.30239 17.1335V17.1423Z" fill="#BABABA"/>
<path opacity="0.71" d="M4.16895 25.5904C4.16895 25.4936 4.19561 25.4144 4.2045 25.3264C4.2045 25.3264 4.2045 25.3264 4.19561 25.3264C4.2045 25.2912 4.21339 25.2472 4.22228 25.212C4.22228 25.1768 4.22228 25.1416 4.24006 25.1064C4.24006 25.0536 4.24006 25.0008 4.24006 24.948C4.23117 24.8688 4.23117 24.7984 4.24006 24.7192C4.24006 24.5872 4.27561 24.464 4.34672 24.3408C4.40895 24.2176 4.5245 24.1032 4.64006 24.0064C4.65783 23.9712 4.67561 23.9448 4.69339 23.9096C4.83561 23.6984 4.93339 23.5752 5.14672 23.4256C5.3245 23.3024 5.5645 23.2144 5.78672 23.2144C6.00895 23.2144 6.22228 23.2584 6.41783 23.364C6.61339 23.4784 6.7645 23.628 6.89783 23.804C6.93339 23.8568 6.96895 23.9096 6.99561 23.9624C7.05783 24.0944 7.12895 24.2264 7.18228 24.3672C7.3245 24.772 7.3245 25.1856 7.27117 25.608C7.20895 26.0568 6.98672 26.4616 6.71117 26.8048C6.56006 26.9984 6.24006 27.1128 6.00895 27.1216C5.77783 27.1304 5.45783 27.0336 5.28006 26.8576C5.18228 26.7608 5.10228 26.6464 5.04006 26.5144C4.8445 26.488 4.64895 26.4176 4.50672 26.2768C4.32895 26.092 4.16895 25.8456 4.18672 25.5816L4.16895 25.5904Z" fill="#BABABA"/>
<path opacity="0.71" d="M33.6712 13.8335C33.7689 13.7279 33.8934 13.6311 34.0089 13.5431C34.0712 13.4991 34.1334 13.4551 34.1956 13.4199C34.2934 13.3671 34.4001 13.3143 34.5067 13.2791C34.6134 13.2351 34.7378 13.2175 34.8534 13.2087C34.9512 13.1999 35.0667 13.2087 35.1645 13.2351C35.1823 13.2351 35.1912 13.2351 35.2 13.2351C35.0934 13.2087 35.3956 13.2967 35.4667 13.3407C35.4667 13.3407 35.4667 13.3407 35.4756 13.3407C35.5289 13.3231 35.5734 13.3143 35.6267 13.3055C35.7601 13.2703 35.8934 13.2703 36.0267 13.3055C36.16 13.3319 36.2756 13.3847 36.3734 13.4727C36.4889 13.5431 36.5778 13.6311 36.6401 13.7455C36.7734 13.9743 36.8445 14.2559 36.7734 14.5111C36.7023 14.7487 36.56 15.0039 36.3289 15.1271L35.4045 15.6199L35.1645 15.7255C35.0312 15.7695 34.8978 15.7871 34.7645 15.7607C34.6756 15.7607 34.5867 15.7431 34.5067 15.6991C34.3823 15.6639 34.2667 15.6023 34.1778 15.5055C34.1689 15.4967 34.1601 15.4791 34.1423 15.4615C34.1067 15.4527 34.0712 15.4439 34.0356 15.4263C33.9112 15.3911 33.7956 15.3295 33.7067 15.2327C33.52 15.0479 33.3867 14.8015 33.3867 14.5375C33.3867 14.2735 33.4667 14.0183 33.6534 13.8159L33.6712 13.8335Z" fill="#BABABA"/>
<path opacity="0.71" d="M27.6268 13.2352C28.9246 13.1912 29.0046 15.1888 27.6979 15.2416C26.3913 15.2944 26.3201 13.288 27.6268 13.2352Z" fill="#BABABA"/>
<path opacity="0.71" d="M21.049 12.5576C21.0757 12.4256 21.129 12.3112 21.2179 12.2144C21.2624 12.1352 21.3157 12.0736 21.3957 12.0296C21.4935 11.9416 21.6001 11.8712 21.7335 11.836C21.9824 11.7744 22.2935 11.7568 22.5157 11.9064C22.5868 11.9504 22.649 12.012 22.7201 12.056C22.7201 12.056 22.7557 12.0824 22.7735 12.0912C22.809 12.1176 22.8446 12.144 22.8801 12.1704C22.9335 12.1968 22.9868 12.232 23.0401 12.2584C23.1113 12.276 23.1824 12.2936 23.2535 12.3112C23.3157 12.3112 23.369 12.3112 23.4313 12.3112C23.5735 12.3024 23.6979 12.3288 23.8224 12.3816C23.9468 12.4168 24.0624 12.4784 24.1513 12.5752C24.249 12.6632 24.329 12.7688 24.3735 12.892C24.4446 13.0064 24.4713 13.1384 24.4713 13.2704C24.4713 13.5256 24.3912 13.7984 24.2046 13.992L24.009 14.1592C23.929 14.212 23.849 14.2472 23.769 14.2736C23.7246 14.3176 23.6712 14.3616 23.6179 14.3968C23.4668 14.4936 23.2979 14.5464 23.1113 14.5552C22.7824 14.5992 22.409 14.432 22.1779 14.212C22.1601 14.1944 22.1424 14.168 22.1246 14.1504C22.0979 14.1328 22.0712 14.1152 22.0446 14.0976C22.0001 14.0624 21.9735 14.0096 21.9379 13.9744C21.9113 13.9656 21.8935 13.9568 21.8668 13.9392C21.6801 13.8248 21.5024 13.6928 21.3513 13.5432C21.1735 13.3584 21.0312 13.112 21.0312 12.848C21.0312 12.76 21.049 12.672 21.0579 12.584L21.049 12.5576Z" fill="#BABABA"/>
<path d="M42.7204 35.684C48.1515 34.012 51.3604 27.5616 51.3604 27.5616L47.6893 23.8304L42.6848 25.6256L37.5648 24.5608L21.8048 26.2152C21.8048 26.2152 17.227 25.8368 12.3737 24.2088C7.52037 22.5808 4.48926 28.0984 4.48926 28.0984C6.59592 33.3784 12.9248 35.1472 12.9248 35.1472C12.9248 35.1472 28.1248 40.1896 42.7204 35.6928V35.684Z" fill="#F4F4F4"/>
<path d="M48.8803 31.3368C48.8803 31.3368 45.138 30.5976 46.2403 24.2176C46.6847 21.6304 49.2447 19.7208 51.858 19.9408C51.858 19.9408 53.0314 26.7696 48.8803 31.3456V31.3368Z" fill="#D0D0D0"/>
<path d="M9.18217 21.9208C6.30217 21.6744 3.01328 24.6752 3.49328 27.896C3.86661 30.3776 6.33772 32.1112 8.76439 32.2168C10.4533 32.2872 12.5599 31.5832 13.4755 29.9376C15.0577 27.0776 12.6133 22.22 9.18217 21.9296V21.9208Z" fill="#D0D0D0"/>
<path d="M29.3066 38.2888C29.3066 38.2888 7.00441 38.3416 4.63996 28.6C2.28441 18.8584 11.8222 4.23285 18.6577 4.90165C25.4933 5.57045 27.52 8.65925 33.7689 6.32725C39.5644 4.16245 42.9777 3.34405 47.9644 11.2024C52.9422 19.0608 58.9511 36.9072 29.3066 38.2976V38.2888Z" stroke="#797979" stroke-width="2.17" stroke-linecap="round" stroke-linejoin="round"/>
<path d="M22.249 26.4264L22.4712 27.8872C22.4712 27.8872 27.0312 28.8024 30.6579 28.6264C34.2846 28.4504 38.0979 26.7872 38.0979 26.7872L39.2624 25.4848C39.2624 25.4848 30.3468 23.628 22.2579 26.4352L22.249 26.4264Z" fill="#BFBFBF"/>
<path d="M40.08 25.9336C28.6311 31.7328 19.4756 26.5584 19.4756 26.5584" stroke="#797979" stroke-width="2.17" stroke-linecap="round" stroke-linejoin="round"/>
<path d="M48.6484 23.2848C48.6484 23.2848 46.604 26.5496 41.4218 25.8984C38.3018 25.5112 36.1951 24.0768 30.7107 24.464C24.3284 24.9128 24.364 26.4792 19.4662 26.5584C14.5684 26.6376 10.6484 23.1792 10.6484 23.1792" stroke="#797979" stroke-width="2.17" stroke-linecap="round" stroke-linejoin="round"/>
</g>
<defs>
<clipPath id="clip0_2253_12375">
<rect width="56" height="44" fill="white"/>
</clipPath>
</defs>
</svg>
