<svg width="261" height="270" viewBox="0 0 261 270" fill="none" xmlns="http://www.w3.org/2000/svg">
<path d="M218.229 115.279C199.781 125.821 193.471 135.854 188.409 149.641C186.965 153.565 185.412 157.149 183.819 160.403C178.777 137.142 168.379 113.512 160.545 96.3502C155.572 85.4484 149.272 76.084 142.205 68.4867C147.149 65.8212 154.55 61.728 157.892 59.3819C163.15 55.6881 163.681 50.5467 165.548 41.8013C167.416 33.0459 161.175 21.4253 158.275 18.4602C157.951 18.1308 157.548 17.9311 157.086 17.8413C153.98 14.3171 150.216 12.3304 146.275 13.219C134.785 15.7847 136.957 27.5151 131.168 38.2372C128.77 42.6798 124.465 47.5517 120.249 51.7347C109.221 46.2638 97.702 44.5067 87.0774 47.0924C78.7232 49.129 70.6147 52.743 63.489 57.6348C58.162 55.9676 51.3213 51.9743 48.1271 42.4102C42.4855 25.5384 33.8954 28.9228 30.8682 35.362C30.5242 36.0908 30.1999 36.9394 29.905 37.8878C29.2662 37.9776 28.8829 38.1174 28.8829 38.1174C28.8829 38.1174 28.6863 39.595 28.7747 43.179C27.497 53.4019 30.3768 68.0674 47.213 73.708C41.5518 82.0042 38.2396 91.738 38.5541 102.44C38.6819 106.723 39.1831 110.427 39.9301 113.631C32.4801 112.204 19.8603 110.267 13 111.904L40.1168 114.36C40.736 116.806 41.5027 118.963 42.3676 120.839C35.5761 121.918 21.8948 124.533 15.0738 129.016L42.6034 121.319C47.7143 131.931 55.813 133.648 55.813 133.648C55.813 133.648 33.0108 194.606 59.5085 226.822C66.8012 235.688 77.9369 240.679 90.5272 242.816C89.1512 243.195 86.9791 243.634 83.4016 244.194C73.5337 245.751 69.8972 245.591 66.3196 250.563C62.7519 255.525 65.897 257.232 65.897 257.232L108.199 250.543C108.199 250.543 112.789 249.814 115.344 243.734C123.03 243.145 130.716 241.847 137.95 240.02C142.235 245.162 146.894 244.433 146.894 244.433L189.196 237.744C189.196 237.744 191.682 235.149 186.797 231.525C181.913 227.901 178.492 229.169 168.625 230.726C164.782 231.335 162.531 231.575 161.125 231.624C168.133 228.1 173.617 224.107 176.723 220.024C178.591 217.558 180.163 214.942 181.47 212.187C199.358 203.202 211.447 182.466 219.418 168.36C227.822 153.485 245.012 132.859 247.724 125.252C251.892 113.571 232.765 106.992 218.209 115.299L218.229 115.279Z" stroke="white" stroke-width="24.4" stroke-linecap="round" stroke-linejoin="round"/>
<path d="M157.302 227.367C157.302 227.367 156.329 230.452 157.853 230.951C159.376 231.45 158.777 232.269 168.644 230.712C178.512 229.154 181.933 227.876 186.817 231.51C191.702 235.134 189.215 237.73 189.215 237.73L146.914 244.419C146.914 244.419 139.159 245.647 134.471 233.916L157.302 227.377V227.367Z" fill="url(#paint0_linear_573_3185)"/>
<path d="M157.302 227.367C157.302 227.367 156.329 230.452 157.853 230.951C159.376 231.45 158.777 232.269 168.644 230.712C178.512 229.154 181.933 227.876 186.817 231.51C191.702 235.134 189.215 237.73 189.215 237.73L146.914 244.419C146.914 244.419 139.159 245.647 134.471 233.916L157.302 227.377V227.367Z" stroke="#543816" stroke-width="4.19" stroke-linecap="round" stroke-linejoin="round"/>
<path d="M166.57 185.047C166.57 185.047 179.603 173.577 188.409 149.647C193.481 135.86 199.791 125.826 218.229 115.284C232.775 106.968 251.911 113.557 247.744 125.237C245.031 132.835 227.841 153.47 219.438 168.335C211.035 183.211 198.061 205.453 178.541 213.52C159.022 221.596 148.014 214.159 148.014 214.159L166.58 185.047H166.57Z" fill="url(#paint1_linear_573_3185)" stroke="#543816" stroke-width="4.32" stroke-linecap="round" stroke-linejoin="round"/>
<path d="M70.7524 58.8194C70.7524 58.8194 53.7687 59.2786 48.1173 42.4068C42.4757 25.535 33.8856 28.9193 30.8584 35.3586C26.5732 44.4733 24.7156 72.3168 56.7172 75.6912L70.7524 58.8094V58.8194Z" fill="url(#paint2_linear_573_3185)"/>
<path d="M37.4732 41.4071C37.4437 41.3073 45.9552 50.0128 46.6432 58.1492C47.4786 67.9528 51.7344 73.0842 54.3782 74.7115" stroke="#543816" stroke-width="4.8" stroke-linecap="round" stroke-linejoin="round"/>
<path d="M28.8729 38.106C28.8729 38.106 36.4409 35.2108 42.1709 47.3705C47.9009 59.5302 48.2842 66.6184 49.5816 69.9428C50.879 73.2673 51.6947 75.1242 51.6947 75.1242C51.6947 75.1242 31.1532 67.7365 29.7084 55.1875C28.2636 42.6384 28.8729 38.096 28.8729 38.096V38.106Z" fill="url(#paint3_linear_573_3185)"/>
<path d="M70.7524 58.8194C70.7524 58.8194 53.7687 59.2786 48.1173 42.4068C42.4757 25.535 33.8856 28.9193 30.8584 35.3586C26.5732 44.4733 24.7156 72.3168 56.7172 75.6912L70.7524 58.8094V58.8194Z" stroke="#543816" stroke-width="4.85" stroke-linecap="round" stroke-linejoin="round"/>
<path d="M37.4732 41.4071C37.4437 41.3073 45.9552 50.0128 46.6432 58.1492C47.4786 67.9528 51.7344 73.0842 54.3782 74.7115" stroke="#543816" stroke-width="4.8" stroke-linecap="round" stroke-linejoin="round"/>
<path d="M55.9509 133.449C55.9509 133.449 39.4685 130.804 38.6527 103.06C37.8369 75.3162 61.3467 53.9917 87.1662 47.7122C112.986 41.4327 144.093 60.7205 160.634 96.98C175.927 130.514 200.872 188.567 176.655 220.494C161.116 240.99 84.0997 257.712 57.9362 225.905C31.4386 193.689 55.9509 133.439 55.9509 133.439V133.449Z" fill="#D1D1D1"/>
<path d="M47.4392 126.673C47.4392 126.673 53.6606 123.997 49.572 111.289C47.911 106.137 42.8198 103.012 38.3577 104.27C38.3577 104.27 38.6722 118.596 47.4392 126.683V126.673Z" fill="#D8ABAB"/>
<path d="M93.2204 237.504C93.2204 237.504 95.0682 240.15 93.7708 241.088C92.4735 242.026 93.2892 242.635 83.4116 244.193C73.5438 245.75 69.9072 245.59 66.3296 250.562C62.7619 255.524 65.907 257.231 65.907 257.231L108.209 250.542C108.209 250.542 115.964 249.314 116.917 236.695L93.2106 237.504H93.2204Z" fill="url(#paint4_linear_573_3185)"/>
<path d="M93.2204 237.504C93.2204 237.504 95.0682 240.15 93.7708 241.088C92.4735 242.026 93.2892 242.635 83.4116 244.193C73.5438 245.75 69.9072 245.59 66.3296 250.562C62.7619 255.524 65.907 257.231 65.907 257.231L108.209 250.542C108.209 250.542 115.964 249.314 116.917 236.695L93.2106 237.504H93.2204Z" stroke="#543816" stroke-width="4.19" stroke-linecap="round" stroke-linejoin="round"/>
<path d="M50.309 89.551C52.8644 89.6608 53.4542 93.9037 54.0045 99.0551C54.7613 106.093 52.2354 108.449 51.0364 108.969C48.5891 110.017 46.2204 106.802 45.4636 99.754C44.7756 93.3547 47.0853 89.4012 50.309 89.551Z" fill="#543816" stroke="#543816" stroke-width="4.19" stroke-linecap="round" stroke-linejoin="round"/>
<path d="M111.216 88.8693C119.059 86.7728 129.595 93.6813 129.821 103.046C129.998 110.264 123.983 116.383 117.339 117.861C112.69 118.889 106.538 117.911 103.216 113.668C97.4561 106.33 101.869 91.3552 111.216 88.8593V88.8693Z" fill="#D8ABAB"/>
<path d="M93.8692 88.5172C93.2205 91.592 93.9282 97.2226 95.0978 100.717C95.6875 102.484 100.002 105.519 102.882 101.346C105.762 97.1727 103.305 87.3391 100.425 85.3125C98.1544 83.7152 94.6063 84.9931 93.8692 88.5172Z" fill="#543816" stroke="#543816" stroke-width="5.03" stroke-linecap="round" stroke-linejoin="round"/>
<path d="M80.6692 135.896C89.4165 132.981 102.105 129.547 110.204 127.431C115.413 126.073 120.956 127.81 124.416 131.983C143.611 155.134 146.717 178.755 149.292 195.687C153.557 223.66 126.077 253.39 95.4906 244.895C64.8944 236.399 53.7096 221.513 48.1467 201.736C42.5837 181.969 52.9331 143.034 52.9331 143.034L55.4198 134.179C55.4198 134.179 71.3419 139.001 80.6594 135.896H80.6692Z" fill="#EFEFEF"/>
<path d="M55.8229 133.627C55.8229 133.627 39.3798 130.163 38.5641 102.419C37.7483 74.6755 61.2581 53.3511 87.0776 47.0716C112.897 40.7921 144.004 60.0799 160.546 96.3393C175.839 129.873 200.96 188.056 176.743 219.983C161.204 240.479 85.6819 258.599 59.5185 226.792C33.0208 194.575 55.8229 133.617 55.8229 133.617V133.627Z" stroke="#543816" stroke-width="4.32" stroke-linecap="round" stroke-linejoin="round"/>
<path d="M108.465 62.186C108.465 62.186 125.379 48.9481 131.159 38.226C136.948 27.5039 134.776 15.7735 146.265 13.2077C157.755 10.642 167.78 32.4357 164.261 45.8233C160.742 59.201 152.604 64.2626 134.982 70.4422" fill="url(#paint5_linear_573_3185)"/>
<path d="M108.465 62.186C108.465 62.186 125.379 48.9481 131.159 38.226C136.948 27.5039 134.776 15.7735 146.265 13.2077C157.755 10.642 167.78 32.4357 164.261 45.8233C160.742 59.201 152.604 64.2626 134.982 70.4422" stroke="#543816" stroke-width="5.13" stroke-linecap="round" stroke-linejoin="round"/>
<path d="M139.582 61.5194C139.582 61.5194 144.525 55.2498 144.565 49.6192C144.604 43.9886 143.316 30.5211 144.909 26.7274C146.491 22.9337 155.376 15.4962 158.285 18.4512C161.185 21.4063 167.426 33.0369 165.558 41.7923C163.691 50.5477 163.16 55.6891 157.902 59.3729C152.644 63.0668 137.37 71.0634 137.37 71.0634C137.37 71.0634 137.734 63.7856 139.591 61.5194H139.582Z" fill="url(#paint6_linear_573_3185)"/>
<path d="M108.465 62.186C108.465 62.186 125.379 48.9481 131.159 38.226C136.948 27.5039 134.776 15.7735 146.265 13.2077C157.755 10.642 167.78 32.4357 164.261 45.8233C160.742 59.201 152.604 64.2626 134.982 70.4422" stroke="#543816" stroke-width="4.04" stroke-linecap="round" stroke-linejoin="round"/>
<path d="M148.751 21.9531C148.751 21.9531 142.422 25.1877 143.041 35.181C143.67 45.1844 146.167 55.1976 136.053 64.0928" stroke="#543816" stroke-width="4.3" stroke-linecap="round" stroke-linejoin="round"/>
<path d="M56.1863 133.902C56.1863 133.902 69.1402 138.624 92.0112 133.453" stroke="#543816" stroke-width="4.32" stroke-linecap="round" stroke-linejoin="round"/>
<path d="M125.684 152.594C125.684 152.594 120.475 160.8 122.411 168.148C124.347 175.495 128.023 171.362 128.023 171.362C128.023 171.362 130.107 172.67 131.444 170.823C131.444 170.823 134.363 172.281 135.041 169.705C135.719 167.129 135.404 159.802 137.547 156.188" fill="url(#paint7_linear_573_3185)"/>
<path d="M128.023 171.378C128.023 171.378 126.854 168.143 127.198 165.078L128.023 171.378Z" fill="url(#paint8_linear_573_3185)"/>
<path d="M131.444 170.832C131.444 170.832 130.922 168.317 131.218 164.992L131.444 170.832Z" fill="url(#paint9_linear_573_3185)"/>
<path d="M125.163 152.688C125.163 152.688 119.954 160.894 121.89 168.242C123.826 175.589 127.502 171.456 127.502 171.456C127.502 171.456 129.586 172.764 130.923 170.917C130.923 170.917 133.842 172.375 134.52 169.799C135.208 167.233 134.883 159.896 137.026 156.282" stroke="#543816" stroke-width="3.52" stroke-linecap="round" stroke-linejoin="round"/>
<path d="M127.502 171.456C127.502 171.456 126.333 168.221 126.677 165.156" stroke="#543816" stroke-width="3.52" stroke-linecap="round" stroke-linejoin="round"/>
<path d="M130.913 170.918C130.913 170.918 130.391 168.403 130.687 165.078" stroke="#543816" stroke-width="3.52" stroke-linecap="round" stroke-linejoin="round"/>
<path d="M58.673 160.039C58.673 160.039 53.4639 168.245 55.4001 175.593C57.3364 182.941 61.0122 178.808 61.0122 178.808C61.0122 178.808 63.0959 180.116 64.4325 178.269C64.4325 178.269 67.3516 179.726 68.0298 177.15C68.7178 174.585 68.3934 167.247 70.536 163.633" fill="url(#paint10_linear_573_3185)"/>
<path d="M61.0125 178.823C61.0125 178.823 59.8429 175.588 60.1869 172.523L61.0125 178.823Z" fill="url(#paint11_linear_573_3185)"/>
<path d="M64.4335 178.278C64.4335 178.278 63.9116 175.762 64.207 172.438L64.4335 178.278Z" fill="url(#paint12_linear_573_3185)"/>
<path d="M58.1525 160.133C58.1525 160.133 52.9434 168.339 54.8796 175.687C56.8159 183.035 60.4917 178.901 60.4917 178.901C60.4917 178.901 62.5754 180.209 63.912 178.362C63.912 178.362 66.8311 179.82 67.5093 177.244C68.1973 174.679 67.8729 167.341 70.0155 163.727" stroke="#543816" stroke-width="3.52" stroke-linecap="round" stroke-linejoin="round"/>
<path d="M60.4817 178.893C60.4817 178.893 59.3121 175.659 59.6561 172.594" stroke="#543816" stroke-width="3.52" stroke-linecap="round" stroke-linejoin="round"/>
<path d="M63.9025 178.364C63.9025 178.364 63.3806 175.848 63.676 172.523" stroke="#543816" stroke-width="3.52" stroke-linecap="round" stroke-linejoin="round"/>
<path d="M112.259 106.844C112.259 106.844 139.621 93.5261 153.519 92.1484" stroke="#543816" stroke-width="3.24" stroke-linecap="round" stroke-linejoin="round"/>
<path d="M113.497 112.088C113.497 112.088 142.756 106.637 156.85 109.043" stroke="#543816" stroke-width="3.24" stroke-linecap="round" stroke-linejoin="round"/>
<path d="M45.9063 114.864C45.9063 114.864 23.1631 109.473 13.0103 111.889" stroke="#543816" stroke-width="3.24" stroke-linecap="round" stroke-linejoin="round"/>
<path d="M46.4072 120.234C46.4072 120.234 24.3815 122.89 15.0837 128.99" stroke="#543816" stroke-width="3.24" stroke-linecap="round" stroke-linejoin="round"/>
<path d="M98.1346 109.361C95.9133 108.242 94.439 111.856 96.6504 112.964C96.9355 113.104 96.8077 113.753 96.7192 113.973C96.4244 114.722 95.471 115.111 94.7929 115.39C92.896 116.149 90.7927 116.519 88.7876 116.818C84.6007 117.427 80.3941 117.297 76.2465 116.499C74.2513 116.119 72.2561 115.67 70.2118 115.8C68.0986 115.93 66.3393 116.808 64.6882 118.106C63.0075 119.424 61.3366 120.572 59.1547 120.801C58.3881 120.881 54.9088 120.552 56.0292 118.954C57.474 116.908 54.4174 114.532 52.9726 116.578C51.5179 118.635 51.8521 121.48 53.7589 123.157C55.6558 124.825 58.3979 125.004 60.7568 124.485C62.1917 124.176 63.5284 123.617 64.7864 122.848C66.0641 122.059 67.1256 120.861 68.4721 120.192C71.1848 118.845 74.6641 120.242 77.4554 120.662C83.3525 121.54 89.4462 121.101 95.1565 119.374C97.3974 118.695 99.7071 117.417 100.425 115.001C101.103 112.735 100.238 110.419 98.1346 109.361Z" fill="#543816" stroke="#543816" stroke-width="0.42" stroke-miterlimit="10"/>
<defs>
<linearGradient id="paint0_linear_573_3185" x1="135.153" y1="238.573" x2="188.986" y2="230.331" gradientUnits="userSpaceOnUse">
<stop stop-color="#E2BCBC"/>
<stop offset="0.21" stop-color="#E2BFBF" stop-opacity="0.98"/>
<stop offset="0.46" stop-color="#E5C9C9" stop-opacity="0.9"/>
<stop offset="0.73" stop-color="#E9D9D9" stop-opacity="0.79"/>
<stop offset="1" stop-color="#EFEFEF" stop-opacity="0.63"/>
</linearGradient>
<linearGradient id="paint1_linear_573_3185" x1="159.827" y1="158.172" x2="243.01" y2="171.993" gradientUnits="userSpaceOnUse">
<stop stop-color="#D1D1D1"/>
<stop offset="1" stop-color="#5F5F5F"/>
</linearGradient>
<linearGradient id="paint2_linear_573_3185" x1="53.7735" y1="64.6287" x2="44.6945" y2="48.8036" gradientUnits="userSpaceOnUse">
<stop stop-color="#D1D1D1"/>
<stop offset="1" stop-color="#5F5F5F"/>
</linearGradient>
<linearGradient id="paint3_linear_573_3185" x1="51.1852" y1="75.4563" x2="34.5393" y2="51.0119" gradientUnits="userSpaceOnUse">
<stop stop-color="#E2BCBC"/>
<stop offset="0.15" stop-color="#DDB8B8"/>
<stop offset="0.33" stop-color="#CEAEAE"/>
<stop offset="0.53" stop-color="#B69D9D"/>
<stop offset="0.74" stop-color="#948585"/>
<stop offset="0.95" stop-color="#6A6767"/>
<stop offset="1" stop-color="#5F5F5F"/>
</linearGradient>
<linearGradient id="paint4_linear_573_3185" x1="63.8007" y1="249.858" x2="117.643" y2="241.615" gradientUnits="userSpaceOnUse">
<stop stop-color="#E2BCBC"/>
<stop offset="0.21" stop-color="#E2BFBF" stop-opacity="0.98"/>
<stop offset="0.46" stop-color="#E5C9C9" stop-opacity="0.9"/>
<stop offset="0.73" stop-color="#E9D9D9" stop-opacity="0.79"/>
<stop offset="1" stop-color="#EFEFEF" stop-opacity="0.63"/>
</linearGradient>
<linearGradient id="paint5_linear_573_3185" x1="128.141" y1="70.4427" x2="150.378" y2="29.8915" gradientUnits="userSpaceOnUse">
<stop stop-color="#D1D1D1"/>
<stop offset="1" stop-color="#5F5F5F"/>
</linearGradient>
<linearGradient id="paint6_linear_573_3185" x1="138.231" y1="69.3055" x2="157.992" y2="33.2664" gradientUnits="userSpaceOnUse">
<stop stop-color="#E2BCBC"/>
<stop offset="0.15" stop-color="#DDB8B8"/>
<stop offset="0.33" stop-color="#CEAEAE"/>
<stop offset="0.53" stop-color="#B69D9D"/>
<stop offset="0.74" stop-color="#948585"/>
<stop offset="0.95" stop-color="#6A6767"/>
<stop offset="1" stop-color="#5F5F5F"/>
</linearGradient>
<linearGradient id="paint7_linear_573_3185" x1="128.322" y1="166.273" x2="131.473" y2="156.553" gradientUnits="userSpaceOnUse">
<stop stop-color="#E2BCBC"/>
<stop offset="0.21" stop-color="#E2BFBF" stop-opacity="0.98"/>
<stop offset="0.46" stop-color="#E5C9C9" stop-opacity="0.9"/>
<stop offset="0.73" stop-color="#E9D9D9" stop-opacity="0.79"/>
<stop offset="1" stop-color="#EFEFEF" stop-opacity="0.63"/>
</linearGradient>
<linearGradient id="paint8_linear_573_3185" x1="128.198" y1="166.248" x2="131.358" y2="156.526" gradientUnits="userSpaceOnUse">
<stop stop-color="#E2BCBC"/>
<stop offset="0.21" stop-color="#E2BFBF" stop-opacity="0.98"/>
<stop offset="0.46" stop-color="#E5C9C9" stop-opacity="0.9"/>
<stop offset="0.73" stop-color="#E9D9D9" stop-opacity="0.79"/>
<stop offset="1" stop-color="#EFEFEF" stop-opacity="0.63"/>
</linearGradient>
<linearGradient id="paint9_linear_573_3185" x1="131.485" y1="167.319" x2="134.641" y2="157.594" gradientUnits="userSpaceOnUse">
<stop stop-color="#E2BCBC"/>
<stop offset="0.21" stop-color="#E2BFBF" stop-opacity="0.98"/>
<stop offset="0.46" stop-color="#E5C9C9" stop-opacity="0.9"/>
<stop offset="0.73" stop-color="#E9D9D9" stop-opacity="0.79"/>
<stop offset="1" stop-color="#EFEFEF" stop-opacity="0.63"/>
</linearGradient>
<linearGradient id="paint10_linear_573_3185" x1="61.3052" y1="173.716" x2="64.4661" y2="163.994" gradientUnits="userSpaceOnUse">
<stop stop-color="#E2BCBC"/>
<stop offset="0.21" stop-color="#E2BFBF" stop-opacity="0.98"/>
<stop offset="0.46" stop-color="#E5C9C9" stop-opacity="0.9"/>
<stop offset="0.73" stop-color="#E9D9D9" stop-opacity="0.79"/>
<stop offset="1" stop-color="#EFEFEF" stop-opacity="0.63"/>
</linearGradient>
<linearGradient id="paint11_linear_573_3185" x1="61.1911" y1="173.688" x2="64.342" y2="163.968" gradientUnits="userSpaceOnUse">
<stop stop-color="#E2BCBC"/>
<stop offset="0.21" stop-color="#E2BFBF" stop-opacity="0.98"/>
<stop offset="0.46" stop-color="#E5C9C9" stop-opacity="0.9"/>
<stop offset="0.73" stop-color="#E9D9D9" stop-opacity="0.79"/>
<stop offset="1" stop-color="#EFEFEF" stop-opacity="0.63"/>
</linearGradient>
<linearGradient id="paint12_linear_573_3185" x1="64.4785" y1="174.749" x2="67.6247" y2="165.026" gradientUnits="userSpaceOnUse">
<stop stop-color="#E2BCBC"/>
<stop offset="0.21" stop-color="#E2BFBF" stop-opacity="0.98"/>
<stop offset="0.46" stop-color="#E5C9C9" stop-opacity="0.9"/>
<stop offset="0.73" stop-color="#E9D9D9" stop-opacity="0.79"/>
<stop offset="1" stop-color="#EFEFEF" stop-opacity="0.63"/>
</linearGradient>
</defs>
</svg>
