<svg width="155" height="165" viewBox="0 0 155 165" fill="none" xmlns="http://www.w3.org/2000/svg">
<g clip-path="url(#clip0_800_6062)">
<path d="M8.21002 140.42C9.11002 139.12 15.04 139.89 24.32 137.43C33.6 134.97 40.86 123.45 51.47 109.58C60.51 97.7499 67.79 96.7999 69.73 96.7799C69.56 95.4799 69.41 94.1099 69.28 92.6599C68.28 81.5299 74.54 58.1899 75.95 52.8999C76.12 52.2499 76.17 51.5699 76.09 50.8999C73.4 29.6599 86.16 6.57988 98.51 7.99988C103.12 8.52988 106.37 10.7899 113.62 11.1499C119.91 11.4599 122.59 7.90988 129.06 9.02988C136.46 10.2999 144.33 24.6399 145.68 31.2299C147.24 38.8399 145.92 52.6999 128.82 56.7699C132.17 60.7199 136.74 67.8999 141.98 80.9699C147.6 94.9699 146.57 105.96 144.92 107.77C143.27 109.58 142.13 109.1 139.84 108.36C137.55 107.62 137.76 108.55 136.83 108.76C136.46 108.84 135.85 108.71 135.24 108.51C135.04 109.23 134.82 109.9 134.59 110.51C131.12 119.46 123.8 122.84 123.8 122.84C123.8 122.84 122.84 138.44 123.42 142.41C124 146.38 125.69 147.01 127.17 147.65C128.37 148.17 130.32 149.8 130.06 151.99C129.72 154.84 126.71 154.78 126.27 154.78C125.83 154.78 123.42 154.29 122.08 155.36C120.74 156.43 117.68 155.28 116.81 155.04C115.93 154.8 115.48 155.67 113.28 155.63C111.08 155.59 109.99 155.35 108.9 154.89C107.81 154.43 106.18 153.19 106.18 153.19C105.81 154.01 104.78 154.88 102.4 155.26C100.3 155.6 100.31 154.94 98.12 154.9C96.11 154.86 96.56 156 92.93 156.01C91.49 156.01 90.43 155.28 89.1 155.17C88.49 155.12 86.43 156.66 83.15 155.94C76.78 154.54 75.65 152.03 75.32 151.17C75.15 150.72 75.42 146.36 75.81 141.13C60.47 159.08 28.54 152.42 18.4 148.97C8.13002 145.47 7.32002 141.72 8.23002 140.42H8.21002Z" stroke="white" stroke-width="15.86" stroke-linecap="round" stroke-linejoin="round"/>
<path d="M70.25 96.7935C70.25 96.7935 62.07 95.7035 51.47 109.584C40.87 123.454 33.61 134.974 24.32 137.434C15.04 139.894 9.10997 139.124 8.20997 140.424C7.30997 141.724 8.10996 145.484 18.38 148.974C28.65 152.464 61.29 159.254 76.39 140.414L78.99 119.794L70.25 96.8035V96.7935Z" fill="url(#paint0_linear_800_6062)" stroke="#543816" stroke-width="2.86" stroke-linecap="round" stroke-linejoin="round"/>
<path d="M122.93 52.01C122.93 52.01 130.97 53.55 141.97 80.96C147.59 94.96 146.56 105.95 144.91 107.76C143.26 109.57 142.12 109.09 139.83 108.35C137.54 107.61 137.75 108.54 136.83 108.75C135.91 108.96 133.39 107.76 133.39 107.76C133.39 107.76 130.41 71.04 122.93 52V52.01Z" fill="#F9CC3D" stroke="#543816" stroke-width="3" stroke-linecap="round" stroke-linejoin="round"/>
<path d="M106.16 153.18C105.79 154 104.76 154.87 102.38 155.25C100.28 155.59 100.29 154.93 98.1 154.89C96.09 154.85 96.54 155.99 92.91 156C91.47 156 90.41 155.27 89.08 155.16C88.47 155.11 86.41 156.65 83.13 155.93C76.76 154.53 75.63 152.02 75.3 151.16C74.88 150.05 77.11 125.68 77.18 122.17C77.25 118.65 71.11 113.07 69.28 92.6599C68.28 81.5299 74.54 58.1899 75.95 52.8999C76.12 52.2499 76.17 51.5699 76.09 50.8999C73.4 29.6599 86.16 6.57988 98.51 7.99988C103.12 8.52988 106.37 10.7899 113.62 11.1499C119.91 11.4599 122.9 8.68988 129.37 9.79988C136.77 11.0699 144.32 24.6299 145.67 31.2299C147.31 39.2499 145.78 54.2099 125.92 57.3499C125.92 57.3499 127.84 59.3799 128.29 60.0299C135.21 77.5399 138.77 92.6699 134.83 108.98C132.57 118.31 123.79 122.84 123.79 122.84C123.79 122.84 122.83 138.44 123.41 142.41C123.99 146.38 125.68 147.01 127.16 147.65C128.36 148.17 130.31 149.8 130.05 151.99C129.71 154.84 126.7 154.78 126.26 154.78C125.82 154.78 123.41 154.29 122.07 155.36C120.73 156.43 117.67 155.28 116.8 155.04C115.93 154.8 115.47 155.67 113.27 155.63C111.07 155.59 109.98 155.35 108.89 154.89C107.8 154.43 106.17 153.19 106.17 153.19L106.16 153.18Z" fill="#F9CC3D"/>
<path d="M146.2 36.63C146.2 36.63 138.59 39.55 135.09 38.82C131.59 38.09 125.55 31.6 112.28 35.74C99 39.88 91.58 30.9 87.51 34.25C83.43 37.6 89.08 52.89 86.08 60.09C83.08 67.29 67.32 119.97 98.67 125.75C98.67 125.75 125.74 133.43 134.96 109.08C144.18 84.74 126.83 57.13 126.83 57.13C126.83 57.13 145.78 55.08 146.21 36.62L146.2 36.63Z" fill="#F9F7ED"/>
<path d="M125.93 57.3409C125.93 57.3409 122.39 58.5909 107.9 57.2109" stroke="#543816" stroke-width="2.86" stroke-linecap="round" stroke-linejoin="round"/>
<path d="M140.05 49.1537C140.05 49.1537 135.03 47.9637 136.83 39.3037C137.56 35.8037 141.11 33.3137 144.63 33.7337C144.63 33.7337 145.88 43.1037 140.05 49.1537Z" fill="#FC9470"/>
<path d="M133.21 21.8626C131.46 22.1726 131.45 25.1026 131.54 28.6526C131.67 33.4926 133.62 34.8526 134.5 35.0826C136.28 35.5626 137.62 33.1626 137.49 28.3226C137.37 23.9226 135.42 21.4626 133.22 21.8626H133.21Z" fill="#543816" stroke="#543816" stroke-width="2.42" stroke-miterlimit="10"/>
<path d="M101.72 23.8938C102.45 26.0138 102.48 30.0938 101.99 32.6938C101.74 34.0038 99.06 36.5938 96.69 33.9138C94.32 31.2338 95.12 23.9838 96.91 22.2638C98.33 20.9038 100.88 21.4638 101.72 23.8938Z" fill="#543816" stroke="#543816" stroke-width="2.42" stroke-miterlimit="10"/>
<path d="M76.08 50.8984C76.08 50.8984 75.73 71.5584 75.77 80.5784C75.82 89.5984 77.95 104.588 83.35 109.758C88.75 114.928 89.28 110.308 90.16 110.108C91.04 109.908 94.07 112.818 95.63 111.528C97.19 110.238 96.1 109.998 98.08 109.818C100.06 109.638 103.35 110.138 101.26 104.378C99.17 98.6184 92.85 72.5484 92.13 64.6184" fill="#F9CC3D"/>
<path d="M76.08 50.8984C76.08 50.8984 75.73 71.5584 75.77 80.5784C75.82 89.5984 77.95 104.588 83.35 109.758C88.75 114.928 89.28 110.308 90.16 110.108C91.04 109.908 94.07 112.818 95.63 111.528C97.19 110.238 96.1 109.998 98.08 109.818C100.06 109.638 103.35 110.138 101.26 104.378C99.17 98.6184 92.85 72.5484 92.13 64.6184" stroke="#543816" stroke-width="2.86" stroke-linecap="round" stroke-linejoin="round"/>
<path d="M86.4 45.9781C86.4 45.9781 89.31 58.9881 92.33 66.8281L84.42 59.7281L85.81 44.5781L86.4 45.9681V45.9781Z" fill="#F9CC3D"/>
<path d="M76.08 50.8984C76.08 50.8984 75.73 71.5584 75.77 80.5784C75.82 89.5984 77.95 104.588 83.35 109.758C88.75 114.928 89.28 110.308 90.16 110.108C91.04 109.908 94.07 112.818 95.63 111.528C97.19 110.238 96.1 109.998 98.08 109.818C100.06 109.638 103.35 110.138 101.26 104.378C99.17 98.6184 92.85 72.5484 92.13 64.6184" stroke="#543816" stroke-width="2.86" stroke-linecap="round" stroke-linejoin="round"/>
<path d="M91.34 31.9411C87.09 31.4211 82.06 35.7311 82.6 40.5711C83.02 44.3011 86.59 47.0311 90.17 47.3111C92.67 47.5111 95.83 46.5711 97.27 44.1511C99.77 39.9611 96.41 32.5611 91.35 31.9411H91.34Z" fill="#FC9470"/>
<path d="M145.18 39.68C145.18 39.68 141.98 44.45 134.34 43.21C129.74 42.46 126.7 40.2 118.56 40.49C109.09 40.82 109.05 43.17 101.8 43.03C94.55 42.89 88.93 37.5 88.93 37.5" stroke="#543816" stroke-width="2.86" stroke-linecap="round" stroke-linejoin="round"/>
<path d="M123.79 122.844C123.79 122.844 112.23 129.224 94.28 124.914" stroke="#543816" stroke-width="2.86" stroke-linecap="round" stroke-linejoin="round"/>
<path d="M102.57 126.328C102.57 126.328 102.14 138.088 102.27 141.998C102.33 143.808 102.66 146.628 104.6 148.858C106.54 151.098 106.17 153.178 106.17 153.178" stroke="#543816" stroke-width="2.86" stroke-linecap="round" stroke-linejoin="round"/>
<g opacity="0.71">
<path d="M125.95 14.7934C126.29 13.8534 127.53 13.5334 128.76 13.4534C128.92 13.3434 129.13 13.2734 129.38 13.2734C129.93 13.2734 130.45 13.3534 130.95 13.5134C131.01 13.5134 131.06 13.5234 131.11 13.5334C131.41 13.5634 131.64 13.6834 131.81 13.8634C131.83 13.8634 131.85 13.8834 131.86 13.8934C132.5 14.1634 132.99 14.6634 133.02 15.5134C133.09 17.4034 130.39 17.2534 129.11 17.1534C127.95 17.0734 125.31 16.5534 125.95 14.8034V14.7934Z" fill="#FFAD1D"/>
<path d="M116.88 15.131C117.69 14.831 118.51 14.551 119.34 14.301C120.05 14.081 120.83 13.781 121.58 13.931C122.9 14.211 123.95 15.591 124.04 16.881C124.08 17.531 123.37 18.061 122.75 17.951C122.64 17.991 122.51 18.021 122.37 18.021C120.37 18.071 118.38 18.131 116.57 17.141C115.66 16.641 116.05 15.441 116.87 15.141L116.88 15.131Z" fill="#FFAD1D"/>
<path d="M111.85 12.4012C112.47 12.4812 113.09 12.5213 113.71 12.5413C114.17 12.5613 114.63 12.5813 115.09 12.5913C115.13 12.5913 115.18 12.5913 115.22 12.5913C115.27 12.6413 115.32 12.7013 115.36 12.7613C115.66 13.1713 115.46 13.7613 115.16 14.0913C114.3 15.0413 113.37 15.3512 112.3 15.1112C112 15.1112 111.7 15.0213 111.48 14.8313C111.48 14.8313 111.46 14.8312 111.45 14.8212C110.47 14.3812 108.95 13.5012 108.97 12.2312C108.97 12.1612 108.97 12.1013 108.99 12.0312C109.94 12.1912 110.89 12.3112 111.85 12.4012Z" fill="#FFAD1D"/>
<path d="M126.72 10.1797C126.88 10.6097 126.73 11.0897 126.22 11.4097C125.27 12.0097 124.16 12.1897 123.07 11.9497C122.57 11.8397 122.29 11.3997 122.25 10.9497C123.69 10.5397 125.22 10.2897 126.72 10.1897V10.1797Z" fill="#FFAD1D"/>
<path d="M98.43 13.5981C98.64 12.6981 99.72 12.2181 100.51 11.9581C101.49 11.6281 102.57 12.1381 103.48 12.4881C104.58 12.9081 105.67 13.4081 106.69 14.0081C107.37 14.4081 108.04 15.0181 107.75 15.8981C107.46 16.7681 106.38 16.9681 105.59 16.9181C104.43 16.8581 103.24 16.5481 102.1 16.3281C101.39 16.1881 100.74 15.9881 100.17 15.6181C100.01 15.6181 99.84 15.5581 99.67 15.4581C98.93 15.0081 98.18 14.6581 98.43 13.6081V13.5981Z" fill="#FFAD1D"/>
<path d="M95.8 9.59006C95.91 9.56006 96.02 9.53006 96.13 9.49006C96.13 9.47006 96.13 9.46006 96.13 9.44006C97.48 9.36006 98.86 9.37006 100.15 9.70006C100.19 9.71006 100.23 9.72006 100.28 9.72006C100.38 9.77006 100.49 9.80006 100.61 9.81006C100.61 9.81006 100.61 9.81006 100.62 9.81006C100.59 10.1201 100.43 10.4101 100.12 10.5901C99.99 10.7101 99.83 10.8001 99.61 10.8501C98.97 10.9901 98.33 11.1501 97.69 11.3201L96.32 11.7101C94.95 12.1001 94.43 9.99006 95.78 9.58006L95.8 9.59006Z" fill="#FFAD1D"/>
<path d="M88.1 14.2213C88.67 13.6513 89.28 13.1213 89.83 12.5413C89.87 12.5013 89.9 12.4513 89.94 12.4113C90.75 11.8413 91.61 11.3413 92.42 10.7812C93.42 11.1312 94.04 12.5513 93.66 13.5013C93.66 13.5213 93.64 13.5413 93.63 13.5613C93.65 13.6513 93.67 13.7413 93.66 13.8313C93.65 14.4713 93.13 14.8612 92.54 14.9113C91.91 14.9613 91.29 15.0113 90.66 15.0613C90.03 15.2813 89.33 15.3212 88.69 15.1512C88.22 15.0312 87.99 14.7213 87.93 14.3813C87.98 14.3313 88.03 14.2713 88.08 14.2213H88.1Z" fill="#FFAD1D"/>
<path d="M93.67 15.3182C94.2 15.1982 94.73 15.1082 95.27 15.0382C95.35 15.0182 95.44 14.9982 95.53 14.9882C95.71 14.9782 95.88 14.9582 96.06 14.9482C96.65 14.8982 97.15 15.5182 97.14 16.0682C97.13 16.6182 96.73 16.9982 96.24 17.1082C96.2 17.1182 96.16 17.1382 96.11 17.1382C95.48 17.2382 94.85 17.3482 94.22 17.4482C93.63 17.5482 93.04 17.2682 92.88 16.6582C92.74 16.0882 93.09 15.4582 93.67 15.3182Z" fill="#FFAD1D"/>
<path d="M110.63 16.3401C111.53 15.7601 112.77 16.7601 113.58 17.2201C114.62 17.8201 113.96 19.2601 112.98 19.2501C112.74 19.4101 112.44 19.4701 112.11 19.3301C111.94 19.2601 111.77 19.1901 111.59 19.1101C110.76 19.0501 110.13 18.6401 109.65 17.9701C109.17 17.3001 109.85 16.2701 110.63 16.3301V16.3401Z" fill="#FFAD1D"/>
<path d="M134.84 16.8337C135.31 16.6937 135.84 16.5238 136.27 16.3538C136.28 16.3538 136.3 16.3537 136.31 16.3438C136.9 16.9737 137.46 17.6338 137.95 18.3538C137.78 18.7638 137.4 19.0538 136.92 19.0438C136.31 19.0338 135.7 19.0238 135.08 19.0138C133.82 18.9938 133.65 17.2038 134.83 16.8538L134.84 16.8337Z" fill="#FFAD1D"/>
</g>
<path d="M106.16 153.18C105.79 154 104.76 154.87 102.38 155.25C100.28 155.59 100.29 154.93 98.1 154.89C96.09 154.85 96.54 155.99 92.91 156C91.47 156 90.41 155.27 89.08 155.16C88.47 155.11 86.41 156.65 83.13 155.93C76.76 154.53 75.63 152.02 75.3 151.16C74.88 150.05 77.11 125.68 77.18 122.17C77.25 118.65 71.11 113.07 69.28 92.6599C68.28 81.5299 74.54 58.1899 75.95 52.8999C76.12 52.2499 76.17 51.5699 76.09 50.8999C73.4 29.6599 86.16 6.57988 98.51 7.99988C103.12 8.52988 106.37 10.7899 113.62 11.1499C119.91 11.4599 122.59 7.90988 129.06 9.02988C136.46 10.2999 144.33 24.6399 145.68 31.2299C147.32 39.2499 145.79 54.2099 125.93 57.3499C125.93 57.3499 127.85 59.3799 128.3 60.0299C137.81 80.0099 138.06 101.56 134.59 110.52C131.12 119.47 123.8 122.85 123.8 122.85C123.8 122.85 122.84 138.45 123.42 142.42C124 146.39 125.69 147.02 127.17 147.66C128.37 148.18 130.32 149.81 130.06 152C129.72 154.85 126.71 154.79 126.27 154.79C125.83 154.79 123.42 154.3 122.08 155.37C120.74 156.44 117.68 155.29 116.81 155.05C115.94 154.81 115.48 155.68 113.28 155.64C111.08 155.6 109.99 155.36 108.9 154.9C107.81 154.44 106.18 153.2 106.18 153.2L106.16 153.18Z" stroke="#543816" stroke-width="2.86" stroke-linecap="round" stroke-linejoin="round"/>
<g opacity="0.54">
<path d="M65.6 117.217C67.28 119.917 69.4 122.267 71.87 124.257C73.19 125.317 71.28 127.137 69.97 126.087C67.32 123.947 65.09 121.387 63.29 118.507C62.39 117.057 64.7 115.777 65.59 117.217H65.6Z" fill="#FFE8CF"/>
<path d="M61.67 111.05C62.38 111.1 62.98 111.65 62.96 112.39L62.94 113.51C62.93 114.2 62.31 114.85 61.6 114.8C60.89 114.75 60.29 114.2 60.31 113.46L60.33 112.34C60.34 111.65 60.96 111 61.67 111.05Z" fill="#FFE8CF"/>
<path d="M60.59 102.158C60.91 101.908 61.25 101.688 61.57 101.438C62.18 101.647 62.7 102.237 62.54 103.037C62.24 104.577 62.11 106.137 62.1 107.707C62.1 109.407 59.46 109.358 59.46 107.658C59.46 105.968 59.63 104.307 59.94 102.647C60.16 102.487 60.37 102.328 60.58 102.158H60.59Z" fill="#FFE8CF"/>
<path d="M60.86 123.615C62.78 127.285 65.35 130.485 68.51 133.175C69.8 134.275 67.89 136.095 66.61 135.005C63.3 132.195 60.57 128.755 58.56 124.905C57.77 123.395 60.08 122.115 60.86 123.615Z" fill="#FFE8CF"/>
<path d="M70.99 128.771C72.23 130.201 73.58 131.521 75.03 132.741C75 132.881 74.99 133.021 75.01 133.161C74.98 133.491 74.96 133.811 74.95 134.141C74.9 134.441 74.86 134.731 74.83 135.031C74.34 135.251 73.76 135.101 73.33 134.741C71.8 133.471 70.39 132.091 69.09 130.601C67.98 129.321 69.87 127.491 70.99 128.771Z" fill="#FFE8CF"/>
<path d="M54.32 109.801C54.4 108.111 57.04 108.151 56.96 109.851C56.82 112.641 57.11 115.371 57.82 118.071C58.26 119.711 55.7 120.361 55.26 118.721C54.49 115.811 54.17 112.801 54.31 109.791L54.32 109.801Z" fill="#FFE8CF"/>
<path d="M53.33 121.196C54.41 124.756 56.1 128.116 58.35 131.076C59.37 132.416 57.48 134.256 56.45 132.906C53.91 129.566 51.99 125.876 50.77 121.856C50.28 120.226 52.84 119.586 53.33 121.206V121.196Z" fill="#FFE8CF"/>
<path d="M60.34 135.595C61.01 135.255 61.74 135.485 62.14 136.105C62.38 136.485 62.62 136.855 62.86 137.235C63.23 137.815 62.96 138.725 62.35 139.035C61.68 139.375 60.95 139.145 60.55 138.525C60.31 138.145 60.07 137.775 59.83 137.395C59.46 136.815 59.73 135.905 60.34 135.595Z" fill="#FFE8CF"/>
<path d="M67.83 139.117C68.37 138.647 69.18 138.617 69.7 139.157C70 139.477 70.31 139.787 70.61 140.107C71.09 140.607 71.11 141.497 70.57 141.977C70.03 142.447 69.22 142.477 68.7 141.937C68.4 141.617 68.09 141.307 67.79 140.987C67.31 140.487 67.29 139.597 67.83 139.117Z" fill="#FFE8CF"/>
<path d="M68.85 107.706C69.53 110.556 70.49 113.296 71.75 115.936C72.48 117.466 70.18 118.756 69.45 117.226C68.09 114.386 67.02 111.426 66.29 108.356C65.89 106.706 68.45 106.046 68.85 107.706Z" fill="#FFE8CF"/>
<path d="M49.52 114.564C49.85 114.074 50.16 113.614 50.57 113.194C50.57 113.194 50.59 113.174 50.59 113.164C51.2 113.434 51.43 114.154 51.27 114.754C51.27 114.764 51.27 114.774 51.27 114.794C51.33 115.164 51.38 115.544 51.44 115.914C51.49 116.274 51.48 116.604 51.29 116.924C51.12 117.194 50.81 117.454 50.49 117.514C49.85 117.644 48.99 117.294 48.89 116.564C48.84 116.224 48.79 115.884 48.74 115.544C49.02 115.234 49.29 114.914 49.52 114.564Z" fill="#FFE8CF"/>
<path d="M46.16 121.607C46.84 121.467 47.61 121.837 47.76 122.557L48.12 124.237C48.26 124.907 47.88 125.697 47.17 125.837C46.49 125.977 45.72 125.607 45.57 124.887L45.21 123.207C45.07 122.537 45.45 121.747 46.16 121.607Z" fill="#FFE8CF"/>
<path d="M51.34 132.216C52.54 134.396 54.01 136.356 55.77 138.116C56.98 139.316 55.07 141.146 53.87 139.946C51.96 138.036 50.33 135.876 49.03 133.506C48.21 132.016 50.52 130.726 51.33 132.216H51.34Z" fill="#FFE8CF"/>
<path d="M58.86 140.797C60.56 140.827 60.51 143.467 58.81 143.437C57.11 143.407 57.16 140.767 58.86 140.797Z" fill="#FFE8CF"/>
<path d="M48.12 127.547C49.82 127.577 49.77 130.217 48.07 130.187C46.37 130.157 46.42 127.517 48.12 127.547Z" fill="#FFE8CF"/>
<path d="M43.35 131.409C44.18 134.149 45.62 136.609 47.57 138.699C48.73 139.939 46.83 141.769 45.67 140.529C43.4 138.099 41.76 135.239 40.8 132.059C40.3 130.429 42.86 129.789 43.36 131.409H43.35Z" fill="#FFE8CF"/>
<path d="M41.63 126.305C43.33 126.335 43.28 128.975 41.58 128.945C39.88 128.915 39.93 126.275 41.63 126.305Z" fill="#FFE8CF"/>
<path d="M50.74 143.945C52.09 145.915 53.76 147.635 55.68 149.045C56.2 149.425 56.32 150.005 56.19 150.505C55.82 150.535 55.46 150.615 55.11 150.725C55.09 150.725 55.07 150.725 55.05 150.725C54.64 150.765 54.23 150.845 53.82 150.925C51.72 149.315 49.93 147.425 48.43 145.225C47.47 143.825 49.78 142.545 50.73 143.935L50.74 143.945Z" fill="#FFE8CF"/>
<path d="M56.34 145.605C56.84 145.125 57.73 145.105 58.21 145.645C58.94 146.475 59.75 147.155 60.7 147.725C61.25 148.055 61.39 148.585 61.28 149.065C60.9 149.225 60.53 149.375 60.15 149.515C59.77 149.605 59.4 149.695 59.02 149.785C58.02 149.145 57.1 148.375 56.31 147.475C55.84 146.945 55.82 146.115 56.35 145.605H56.34Z" fill="#FFE8CF"/>
<path d="M64.75 144.641C66.45 144.671 66.4 147.311 64.7 147.281C63 147.251 63.05 144.611 64.75 144.641Z" fill="#FFE8CF"/>
<path d="M43.73 142.735C45.43 142.765 45.38 145.405 43.68 145.375C41.98 145.345 42.03 142.705 43.73 142.735Z" fill="#FFE8CF"/>
<path d="M38.35 136.844C38.93 136.524 39.86 136.694 40.15 137.354C40.51 138.164 40.86 138.984 41.22 139.794C41.51 140.444 41.38 141.214 40.71 141.594C40.13 141.914 39.2 141.744 38.91 141.084C38.55 140.274 38.2 139.454 37.84 138.644C37.55 137.994 37.68 137.224 38.35 136.844Z" fill="#FFE8CF"/>
<path d="M36.93 130.38C36.93 130.38 36.96 130.34 36.97 130.32C37.62 130.38 38.22 130.97 38.17 131.66C38.12 132.36 38.15 133.04 38.28 133.73C38.41 134.43 38.05 135.15 37.33 135.33C36.67 135.5 35.86 135.08 35.73 134.38C35.57 133.53 35.5 132.66 35.54 131.8C35.73 131.62 35.91 131.43 36.09 131.23C36.38 130.95 36.66 130.67 36.93 130.37V130.38Z" fill="#FFE8CF"/>
<path d="M33.1099 139.416C33.5799 142.496 34.8599 145.326 36.9399 147.646C38.0699 148.906 36.1699 150.746 35.0399 149.476C32.6699 146.826 31.0899 143.586 30.5499 140.066C30.2999 138.396 32.8499 137.736 33.1099 139.416Z" fill="#FFE8CF"/>
<path d="M42.43 151.658C42.43 151.658 42.34 151.648 42.29 151.648C41.72 151.638 41.15 151.618 40.59 151.588C39.95 150.758 39.39 149.878 38.93 148.928C38.62 148.288 38.79 147.498 39.44 147.128C40.03 146.798 40.93 146.988 41.24 147.638C41.64 148.468 42.1 149.278 42.67 149.998C43.05 150.478 43.16 151.138 42.82 151.638C42.69 151.638 42.56 151.648 42.44 151.648L42.43 151.658Z" fill="#FFE8CF"/>
<path d="M26.62 138.111C26.69 138.081 26.76 138.061 26.83 138.031C27.02 139.101 27.33 140.151 27.73 141.161C27.99 141.831 27.4 142.601 26.78 142.761C26.02 142.961 25.44 142.471 25.18 141.811C24.81 140.861 24.54 139.901 24.34 138.921C25.15 138.771 25.95 138.521 26.62 138.111Z" fill="#FFE8CF"/>
<path d="M27.49 144.289C29.19 144.319 29.14 146.959 27.44 146.929C25.74 146.899 25.79 144.259 27.49 144.289Z" fill="#FFE8CF"/>
<path d="M22.67 140.884C22.92 142.364 23.33 143.804 23.88 145.194C24.14 145.864 23.55 146.634 22.93 146.794C22.17 146.994 21.59 146.504 21.33 145.844C20.78 144.444 20.37 143.014 20.12 141.534C19.83 139.864 22.39 139.204 22.68 140.884H22.67Z" fill="#FFE8CF"/>
<path d="M15.32 140.56C15.8 140.52 16.29 140.49 16.75 140.34C16.95 140.31 17.16 140.29 17.36 140.25C17.96 141.01 17.61 142.46 16.35 142.44C15.26 142.42 14.9 141.33 15.21 140.56C15.25 140.56 15.28 140.56 15.32 140.56Z" fill="#FFE8CF"/>
</g>
</g>
<defs>
<linearGradient id="paint0_linear_800_6062" x1="77.0524" y1="105.556" x2="51.9736" y2="130.779" gradientUnits="userSpaceOnUse">
<stop stop-color="#F9CC3D"/>
<stop offset="1" stop-color="#ED7829"/>
</linearGradient>
<clipPath id="clip0_800_6062">
<rect width="154.15" height="164.06" fill="white"/>
</clipPath>
</defs>
</svg>
