<svg width="1440" height="133" viewBox="0 0 1440 133" fill="none" xmlns="http://www.w3.org/2000/svg">
<g clip-path="url(#clip0_86_2225)">
<rect width="1440" height="133" fill="#93C9C8"/>
<path d="M683.544 86.984V85.496H679.296V82.352H683.544V80.456H687V82.352H691.632V85.496H687V86.984H690.696V90.2H680.088V86.984H683.544ZM678.672 92.12L679.032 95.336C678.336 95.528 677.616 95.696 676.896 95.888V103.28H673.608V96.704L670.68 97.424L669.84 93.872C670.896 93.704 672.192 93.464 673.608 93.176V88.328H672.576C672.36 89.432 672.12 90.44 671.832 91.256C671.28 90.944 670.056 90.512 669.408 90.32C670.152 88.4 670.56 85.28 670.728 82.4L673.296 82.784C673.248 83.528 673.176 84.272 673.08 85.016H673.608V80.48H676.896V85.016H678.768V88.328H676.896V92.504L678.672 92.12ZM692.16 91.976V95.168H690.12V99.512C690.12 101.168 689.832 102.08 688.728 102.608C687.672 103.136 686.256 103.208 684.456 103.208C684.336 102.2 683.856 100.736 683.424 99.776C684.456 99.824 685.8 99.824 686.184 99.824C686.544 99.824 686.664 99.752 686.664 99.44V95.168H683.064C684 96.176 685.056 97.448 685.56 98.36L682.824 100.16C682.344 99.152 681.168 97.592 680.208 96.464L682.272 95.168H679.296V91.976H686.664V90.608H690.12V91.976H692.16ZM699.504 84.728V85.976H696.384V81.944H705.192C705.072 81.536 704.928 81.128 704.808 80.768L708.576 80.264C708.84 80.744 709.056 81.416 709.2 81.944H717.504V85.976H714.24V84.728H699.504ZM700.008 96.848V96.92C700.008 97.52 699.984 98.168 699.936 98.84C700.68 98.672 701.568 98.432 702.504 98.168C701.928 97.808 700.848 97.232 700.008 96.848ZM703.56 96.464L702.504 98.168C702.84 98.072 703.2 97.976 703.56 97.88V96.464ZM703.56 95.144H700.008V96.608L700.944 95.216C701.784 95.552 702.936 96.032 703.56 96.392V95.144ZM706.68 93.152V100.712C706.68 101.96 706.44 102.56 705.624 102.944C704.808 103.304 703.728 103.328 702.36 103.304C702.24 102.584 701.88 101.624 701.544 100.976C702.168 101.024 702.984 101.024 703.2 101.024C703.464 101 703.56 100.928 703.56 100.688V99.752C702.408 100.304 701.352 100.808 700.296 101.288L699.792 99.92C699.6 101.24 699.192 102.512 698.472 103.472C697.992 103.016 696.792 102.2 696.192 101.912C697.272 100.424 697.344 98.456 697.344 96.872V93.152H706.68ZM711.96 100.64H714.696C715.248 100.64 715.488 100.52 715.632 99.992H710.832C710.88 100.544 711.12 100.64 711.96 100.64ZM703.128 88.712H700.512C700.704 89.144 700.848 89.624 700.944 90.056H702.744C702.888 89.624 703.032 89.12 703.128 88.712ZM706.152 88.952L705.672 90.056H707.4V92.48H696.048V90.056H698.064C697.992 89.672 697.872 89.264 697.752 88.928L699.024 88.712H696.48V86.432H700.728C700.656 86.096 700.536 85.76 700.44 85.472L703.296 85.136C703.464 85.496 703.632 86 703.752 86.432H707.184V88.712H704.928L706.152 88.952ZM716.784 98.336V99.632C717.336 99.848 717.96 100.04 718.464 100.136C718.152 102.488 717.288 103.184 715.032 103.184H711.504C708.528 103.184 707.64 102.416 707.64 99.704V91.616H713.856V91.016H707.64V85.256H710.808V86.432H717.264V88.544H710.808V89.048H717.072V93.584H710.808V94.064H716.448V95.72H710.808V96.2H716.352V97.856H710.808V98.336H716.784ZM733.608 94.736V94.184H732.624V94.736H733.608ZM735.624 92.024H741.168C740.376 91.688 739.416 91.304 738.408 90.92C737.544 91.352 736.608 91.736 735.624 92.024ZM739.104 87.464H734.616C735.6 87.776 736.728 88.136 737.88 88.544C738.336 88.208 738.744 87.848 739.104 87.464ZM726.888 100.976H738.48V98.528H736.392C734.184 98.528 733.632 98.096 733.608 96.464H732.576C732.36 97.688 731.352 98.456 729.24 98.888H737.52V100.496H728.208V99.056L727.92 99.104C727.728 98.672 727.296 98.072 726.888 97.592V100.976ZM729.864 96.464H726.888V97.184C728.64 97.112 729.528 96.872 729.864 96.464ZM727.32 89.648H730.224C730.464 89.648 730.752 89.648 731.04 89.624C730.632 89.24 729.984 88.76 729.336 88.328C728.904 88.808 728.256 89.264 727.32 89.648ZM725.184 83.096V88.544C725.184 89.336 725.328 89.648 726.144 89.648H726.696C726.384 89.192 725.88 88.688 725.472 88.352C726.648 88.088 727.296 87.704 727.68 87.272H725.568V85.712H726.768C726.36 85.424 725.712 85.04 725.304 84.848C725.904 84.32 726.384 83.72 726.672 83.096H725.184ZM738.48 97.016V96.464H736.248C736.248 96.968 736.368 97.016 736.824 97.016H738.48ZM728.112 85.184H727.536C727.392 85.376 727.224 85.544 727.056 85.712H728.112V85.184ZM744.168 94.184H736.248V94.736H741.744V103.256H738.48V102.704H726.888V103.256H723.768V94.736H730.032V94.184H721.464V92.024H734.04C733.728 91.472 733.272 90.776 732.888 90.368C732.936 90.752 732.984 91.112 733.032 91.424C732.504 91.592 731.4 91.616 730.44 91.616H725.904C723.288 91.616 722.616 90.68 722.616 88.472V83.096H721.776V81.2H732.912V83.096H727.656L728.64 83.336C728.592 83.456 728.544 83.6 728.472 83.72H732.144V85.184H730.2V85.712H732.504V87.272H730.92C731.52 87.656 732.096 88.088 732.48 88.424L731.328 89.624C731.904 89.6 732.48 89.552 732.816 89.456C732.84 89.744 732.864 90.056 732.888 90.368C733.752 90.224 734.592 90.032 735.36 89.768C734.688 89.528 734.04 89.312 733.44 89.096L734.52 87.464H733.584V85.664C733.152 85.16 732.624 84.608 732.288 84.368C734.16 83.744 734.4 83.072 734.4 82.256V81.056H741.168V82.496C741.168 82.952 741.216 83.144 741.504 83.144H742.224C742.56 83.144 743.16 83.096 743.448 83C743.496 83.648 743.544 84.56 743.64 85.208C743.304 85.328 742.776 85.352 742.296 85.352H741.12C739.296 85.352 738.696 84.728 738.552 83.312H736.896C736.752 84.128 736.368 84.92 735.528 85.568H740.592L741.072 85.496L742.704 86.12C742.176 87.464 741.432 88.568 740.472 89.456C741.456 89.816 742.368 90.152 743.04 90.44L742.08 92.024H744.168V94.184ZM751.272 84.488V94.856C751.488 94.856 751.704 94.88 751.872 94.856C752.088 94.856 752.304 94.808 752.472 94.688C752.712 94.496 752.832 94.04 752.832 93.368C752.832 92.312 752.616 90.8 751.44 89.24C751.8 87.896 752.232 86.024 752.544 84.488H751.272ZM766.536 86.168H759.264V87.704H766.536V86.168ZM756.072 88.232V83.216C755.544 85.136 754.896 87.248 754.344 88.88C755.64 90.728 755.88 92.408 755.88 93.776C755.88 95.48 755.544 96.536 754.728 97.16C754.32 97.472 753.84 97.64 753.288 97.736C752.88 97.808 752.328 97.808 751.752 97.808C751.752 97.136 751.584 96.152 751.272 95.36V103.184H748.248V81.392H753.504L753.984 81.272L756.264 82.544L756.072 83.192H761.4C761.16 82.472 760.848 81.728 760.56 81.104L763.896 80.192C764.4 81.104 764.88 82.28 765.168 83.192H769.872V88.232H768V90.68H757.944V88.232H756.072ZM766.704 100.016H767.088C767.376 100.016 767.472 99.632 767.52 97.28C768.144 97.808 769.512 98.312 770.352 98.528C770.088 101.96 769.296 102.92 767.448 102.92H766.056C763.656 102.92 763.152 101.96 763.152 99.2V95.048H762.072C761.712 98.912 760.608 101.672 755.952 103.304C755.616 102.44 754.728 101.144 754.008 100.472C757.656 99.392 758.472 97.664 758.736 95.048H756.12V91.952H769.968V95.048H766.44V99.176C766.44 99.92 766.464 100.016 766.704 100.016Z" fill="#FEFDFD"/>
<path d="M528.24 63V33.84H544.36V35.88H530.64V46.52H542.2V48.56H530.64V60.92H544.8V63H528.24ZM549.636 63L556.836 51.84L550.236 41.68H552.796L556.076 46.92C556.796 48.12 557.556 49.28 558.356 50.44H558.516C559.236 49.28 559.916 48.12 560.636 46.92L563.796 41.68H566.236L559.636 52.08L566.836 63H564.236L560.596 57.36C559.876 56.04 559.036 54.72 558.156 53.48H557.956C557.156 54.72 556.396 56.04 555.556 57.36L552.116 63H549.636ZM581.928 63.52C576.768 63.52 572.288 59.44 572.288 52.36C572.288 45.24 576.768 41.12 581.928 41.12C587.088 41.12 591.568 45.24 591.568 52.36C591.568 59.44 587.088 63.52 581.928 63.52ZM581.928 61.52C586.088 61.52 589.168 57.8 589.168 52.36C589.168 46.92 586.088 43.16 581.928 43.16C577.768 43.16 574.728 46.92 574.728 52.36C574.728 57.8 577.768 61.52 581.928 61.52ZM606.412 63.52C602.212 63.52 600.932 60.88 600.932 56.92V43.64H597.612V41.88L601.012 41.68L601.292 35.52H603.252V41.68H609.372V43.64H603.252V57.08C603.252 59.76 603.972 61.52 606.812 61.52C607.612 61.52 608.652 61.24 609.412 60.88L609.972 62.72C608.732 63.16 607.372 63.52 606.412 63.52ZM617.675 63V41.68H619.995V63H617.675ZM618.875 36.68C617.795 36.68 616.995 35.92 616.995 34.72C616.995 33.6 617.795 32.88 618.875 32.88C619.915 32.88 620.715 33.6 620.715 34.72C620.715 35.92 619.915 36.68 618.875 36.68ZM639.148 63.52C633.588 63.52 629.388 59.44 629.388 52.36C629.388 45.24 633.988 41.12 639.268 41.12C642.108 41.12 644.028 42.4 645.508 43.72L644.188 45.32C642.868 44.08 641.308 43.16 639.308 43.16C635.068 43.16 631.828 46.92 631.828 52.36C631.828 57.8 634.788 61.52 639.268 61.52C641.468 61.52 643.388 60.44 644.828 59.16L645.988 60.76C644.108 62.36 641.828 63.52 639.148 63.52ZM666.617 63V33.84H674.177C680.777 33.84 684.817 36 684.817 42.04C684.817 47.88 680.817 50.68 674.337 50.68H669.017V63H666.617ZM669.017 48.68H673.857C679.617 48.68 682.377 46.72 682.377 42.04C682.377 37.32 679.497 35.84 673.697 35.84H669.017V48.68ZM701.096 63.52C695.616 63.52 691.176 59.36 691.176 52.36C691.176 45.44 695.736 41.12 700.536 41.12C705.696 41.12 708.776 44.8 708.776 51.04C708.776 51.64 708.736 52.2 708.656 52.72H693.536C693.656 57.92 696.736 61.56 701.336 61.56C703.616 61.56 705.416 60.84 707.016 59.72L707.896 61.44C706.176 62.52 704.176 63.52 701.096 63.52ZM693.536 50.88H706.656C706.656 45.72 704.296 43.12 700.576 43.12C697.096 43.12 693.976 46 693.536 50.88ZM723.23 63.52C719.03 63.52 717.75 60.88 717.75 56.92V43.64H714.43V41.88L717.83 41.68L718.11 35.52H720.07V41.68H726.19V43.64H720.07V57.08C720.07 59.76 720.79 61.52 723.63 61.52C724.43 61.52 725.47 61.24 726.23 60.88L726.79 62.72C725.55 63.16 724.19 63.52 723.23 63.52ZM746.799 63V33.84H749.199V46.48H764.359V33.84H766.759V63H764.359V48.56H749.199V63H746.799ZM786.038 63.52C780.878 63.52 776.398 59.44 776.398 52.36C776.398 45.24 780.878 41.12 786.038 41.12C791.198 41.12 795.678 45.24 795.678 52.36C795.678 59.44 791.198 63.52 786.038 63.52ZM786.038 61.52C790.198 61.52 793.278 57.8 793.278 52.36C793.278 46.92 790.198 43.16 786.038 43.16C781.878 43.16 778.838 46.92 778.838 52.36C778.838 57.8 781.878 61.52 786.038 61.52ZM810.348 63.52C807.228 63.52 804.468 62.2 802.508 60.6L803.748 58.92C805.588 60.44 807.548 61.6 810.468 61.6C813.708 61.6 815.348 59.76 815.348 57.56C815.348 55.04 812.668 53.88 810.188 53C807.028 51.88 803.668 50.56 803.668 46.88C803.668 43.76 806.148 41.12 810.668 41.12C813.028 41.12 815.308 42.12 816.868 43.4L815.628 45C814.188 43.92 812.708 43.08 810.628 43.08C807.428 43.08 805.988 44.84 805.988 46.76C805.988 49.12 808.308 50 810.788 50.92C814.068 52.16 817.668 53.32 817.668 57.44C817.668 60.72 815.068 63.52 810.348 63.52ZM826.394 72.52V41.68H828.314L828.594 44.28H828.674C830.754 42.68 833.194 41.12 835.794 41.12C841.474 41.12 844.354 45.44 844.354 52C844.354 59.28 839.954 63.52 834.954 63.52C832.954 63.52 830.834 62.6 828.674 60.92L828.714 64.84V72.52H826.394ZM834.754 61.48C838.914 61.48 841.874 57.72 841.874 52C841.874 46.88 840.114 43.16 835.354 43.16C833.314 43.16 831.194 44.36 828.714 46.56V58.88C830.994 60.8 833.194 61.48 834.754 61.48ZM853.813 63V41.68H856.133V63H853.813ZM855.013 36.68C853.933 36.68 853.133 35.92 853.133 34.72C853.133 33.6 853.933 32.88 855.013 32.88C856.053 32.88 856.853 33.6 856.853 34.72C856.853 35.92 856.053 36.68 855.013 36.68ZM873.286 63.52C869.086 63.52 867.806 60.88 867.806 56.92V43.64H864.486V41.88L867.886 41.68L868.166 35.52H870.126V41.68H876.246V43.64H870.126V57.08C870.126 59.76 870.846 61.52 873.686 61.52C874.486 61.52 875.526 61.24 876.286 60.88L876.846 62.72C875.606 63.16 874.246 63.52 873.286 63.52ZM888.292 63.52C884.852 63.52 882.092 61.6 882.092 57.64C882.092 52.92 886.292 50.68 895.692 49.6C895.772 46.44 894.852 43.16 890.812 43.16C888.012 43.16 885.572 44.48 884.092 45.6L883.052 43.92C884.692 42.8 887.652 41.12 891.132 41.12C896.212 41.12 898.012 44.76 898.012 49.48V63H896.052L895.812 60.28H895.732C893.572 62.04 891.012 63.52 888.292 63.52ZM888.772 61.56C891.132 61.56 893.172 60.44 895.692 58.24V51.32C887.292 52.28 884.412 54.24 884.412 57.52C884.412 60.44 886.412 61.56 888.772 61.56ZM911.487 63.52C909.567 63.52 908.647 62.32 908.647 59.84V31.2H910.967V60.08C910.967 61.08 911.367 61.52 911.927 61.52C912.087 61.52 912.247 61.52 912.687 61.44L913.047 63.28C912.647 63.4 912.247 63.52 911.487 63.52Z" fill="#FEFDFD"/>
<path d="M477.872 66.1184C477.532 66.1184 477.198 66.0707 476.869 65.9752C476.712 65.9275 476.561 65.8744 476.41 65.8055C474.765 65.0683 473.903 63.1855 474.399 61.43C474.734 60.2632 474.587 59.7275 474.467 59.5101C474.332 59.2608 474.003 59.0115 473.538 58.8047C473.329 58.7092 473.089 58.6244 472.833 58.5501C472.671 58.5024 472.52 58.4441 472.374 58.3804C470.729 57.6432 469.867 55.7604 470.363 54.0049C470.807 52.4457 472.233 51.3531 473.835 51.3531C474.175 51.3531 474.509 51.4008 474.838 51.4963C475.308 51.6342 475.715 51.7031 476.06 51.7031C476.342 51.7031 476.566 51.6554 476.728 51.5653C476.942 51.4486 477.344 51.072 477.678 49.9052C477.945 48.9665 478.561 48.1868 479.401 47.7095C479.934 47.4125 480.54 47.2534 481.145 47.2534C481.485 47.2534 481.824 47.3011 482.153 47.3966C482.31 47.439 482.461 47.4974 482.613 47.5663C484.257 48.3035 485.119 50.1863 484.623 51.9418C484.289 53.1086 484.435 53.6443 484.555 53.8617C484.691 54.111 485.02 54.3603 485.479 54.5671C485.688 54.6626 485.928 54.7474 486.189 54.827C486.341 54.8694 486.503 54.9278 486.654 54.9967C488.293 55.7339 489.155 57.6114 488.659 59.3669C488.215 60.9261 486.79 62.0187 485.187 62.0187C484.847 62.0187 484.513 61.971 484.184 61.8755C483.72 61.7376 483.307 61.6687 482.962 61.6687C482.68 61.6687 482.456 61.7164 482.294 61.8066C482.08 61.9232 481.678 62.2998 481.344 63.4666C480.9 65.0259 479.475 66.1184 477.872 66.1184Z" fill="#F2C32A"/>
<path d="M481.145 48.5033C481.37 48.5033 481.589 48.5351 481.808 48.5988C481.913 48.6306 482.012 48.6677 482.111 48.7102C483.197 49.1981 483.766 50.4391 483.438 51.5953C483.093 52.8152 483.103 53.7804 483.474 54.4646C483.746 54.9631 484.252 55.3821 484.978 55.7109C485.239 55.8276 485.531 55.9337 485.845 56.0239C485.949 56.0557 486.048 56.0928 486.147 56.1352C487.233 56.6232 487.803 57.8642 487.474 59.0204C487.171 60.0811 486.215 60.7706 485.181 60.7706C484.962 60.7706 484.743 60.7388 484.524 60.6751C483.944 60.5054 483.422 60.4205 482.962 60.4205C482.472 60.4205 482.049 60.516 481.704 60.7123C481.03 61.0888 480.514 61.9003 480.169 63.1201C479.866 64.1808 478.911 64.8703 477.877 64.8703C477.657 64.8703 477.438 64.8385 477.219 64.7748C477.114 64.743 477.015 64.7059 476.916 64.6634C475.83 64.1755 475.261 62.9345 475.59 61.7783C475.934 60.5584 475.924 59.5932 475.553 58.909C475.282 58.4105 474.775 57.9915 474.05 57.6627C473.788 57.546 473.496 57.4399 473.183 57.3498C473.078 57.3179 472.979 57.2808 472.88 57.2384C471.794 56.7504 471.225 55.5094 471.554 54.3532C471.857 53.2925 472.812 52.603 473.846 52.603C474.065 52.603 474.284 52.6348 474.504 52.6985C475.083 52.8682 475.605 52.9531 476.065 52.9531C476.556 52.9531 476.979 52.8576 477.323 52.6613C477.997 52.2848 478.514 51.4733 478.858 50.2535C479.036 49.633 479.438 49.1185 479.997 48.8056C480.352 48.6041 480.749 48.5033 481.145 48.5033ZM481.145 46.0053C480.331 46.0053 479.527 46.2175 478.811 46.6205C477.678 47.257 476.859 48.3018 476.498 49.564C476.347 50.0944 476.201 50.3543 476.128 50.4551C476.112 50.4551 476.091 50.4551 476.065 50.4551C475.908 50.4551 475.626 50.4285 475.183 50.2959C474.744 50.1686 474.295 50.105 473.841 50.105C471.695 50.105 469.784 51.5635 469.188 53.6584C468.52 56.0079 469.679 58.5272 471.877 59.5189C472.076 59.6091 472.285 59.6833 472.494 59.747C472.702 59.8053 472.885 59.8743 473.047 59.9485C473.214 60.0228 473.319 60.0864 473.376 60.1289C473.381 60.2614 473.376 60.5584 473.225 61.0835C472.556 63.433 473.715 65.9522 475.914 66.944C476.112 67.0342 476.321 67.1084 476.53 67.1721C476.968 67.2993 477.417 67.363 477.872 67.363C480.018 67.363 481.929 65.9045 482.524 63.8096C482.675 63.2792 482.821 63.0193 482.895 62.9133C482.91 62.9133 482.931 62.9133 482.957 62.9133C483.114 62.9133 483.396 62.9398 483.84 63.0724C484.278 63.1996 484.727 63.2633 485.181 63.2633C487.327 63.2633 489.238 61.8048 489.834 59.7099C490.502 57.3604 489.343 54.8411 487.145 53.8494C486.946 53.7592 486.737 53.685 486.529 53.6213C486.32 53.563 486.137 53.494 485.975 53.4198C485.808 53.3455 485.704 53.2819 485.646 53.2395C485.641 53.1069 485.646 52.8099 485.798 52.2848C486.466 49.9353 485.312 47.4161 483.109 46.4243C482.91 46.3341 482.701 46.2599 482.492 46.1962C482.054 46.069 481.6 46 481.145 46V46.0053Z" fill="white"/>
<path d="M511.286 96.7092C510.534 96.7092 509.843 96.3358 509.382 95.6894C508.932 95.0598 508.521 94.4357 508.142 93.8171C507.352 94.235 506.546 94.6195 505.734 94.9762C505.366 95.1378 504.988 95.2214 504.609 95.2214C503.589 95.2214 502.695 94.6363 502.272 93.6889C501.839 92.7193 502.009 91.5993 502.716 90.7634L503.358 90.0112C503.166 89.9164 502.98 89.8273 502.793 89.7325C501.789 89.2254 501.268 88.2001 501.466 87.1191C501.685 85.9043 502.749 84.8957 503.94 84.7787C504.231 84.7508 504.532 84.7229 504.834 84.7062C504.713 83.7478 504.62 82.7726 504.554 81.803C504.505 81.1176 504.735 80.46 505.196 79.9585C505.695 79.4124 506.42 79.1004 507.182 79.1004C507.577 79.1004 507.967 79.1895 508.307 79.3567C508.433 79.0335 508.559 78.7159 508.696 78.3983C509.124 77.3729 510.199 76.6597 511.302 76.6597C512.295 76.6597 513.14 77.2559 513.507 78.2088C513.908 79.2564 514.215 80.2873 514.435 81.3349L515.85 81.0619C516.014 81.0284 516.185 81.0117 516.349 81.0117C517.315 81.0117 518.203 81.5467 518.675 82.3992C519.136 83.2351 519.109 84.227 518.609 85.0461L517.463 86.9296L517.885 87.0968C519.087 87.5816 519.778 88.8911 519.531 90.2118C519.301 91.4321 518.33 92.2513 517.112 92.2513C517.04 92.2513 516.964 92.2513 516.887 92.2401L514.561 92.0507C514.473 92.0451 514.385 92.0339 514.292 92.0228C514.193 92.7528 514.1 93.4883 514.007 94.2183C513.837 95.5613 512.591 96.6925 511.297 96.6925L511.286 96.7092Z" fill="#77C67C"/>
<path d="M511.296 78.1039C511.659 78.1039 511.999 78.2823 512.174 78.7336C512.717 80.1434 513.079 81.5588 513.26 83.03C514.21 82.8461 515.159 82.6622 516.108 82.4783C516.185 82.4616 516.267 82.456 516.344 82.456C517.232 82.456 517.907 83.4312 517.391 84.2782C516.711 85.3982 516.031 86.5183 515.351 87.6328C516.02 87.9002 516.689 88.1733 517.353 88.4408C518.483 88.8977 518.406 90.7923 517.106 90.7923C517.068 90.7923 517.029 90.7923 516.991 90.7923C516.217 90.731 515.444 90.6697 514.665 90.6029C514.155 90.5638 513.529 90.4245 512.959 90.3967C512.893 90.8648 512.915 91.4721 512.871 91.7953C512.772 92.542 512.673 93.2832 512.58 94.0299C512.503 94.6484 511.883 95.2391 511.286 95.2391C511.017 95.2391 510.748 95.1165 510.539 94.8212C509.859 93.8627 509.239 92.8875 508.68 91.8566C507.539 92.5086 506.37 93.0993 505.169 93.6287C504.977 93.7122 504.79 93.7513 504.615 93.7513C503.649 93.7513 503.057 92.5699 503.803 91.695C504.439 90.9483 505.07 90.2072 505.706 89.4605C504.938 89.1373 504.181 88.7918 503.435 88.4129C502.261 87.8222 503.078 86.3009 504.088 86.1951C504.839 86.1171 505.586 86.0836 506.337 86.0836C506.387 86.0836 506.436 86.0836 506.485 86.0836C506.249 84.6236 506.085 83.1525 505.986 81.6703C505.937 80.957 506.568 80.5224 507.187 80.5224C507.5 80.5224 507.807 80.6338 508.027 80.879C508.329 81.2133 508.619 81.5588 508.91 81.8988C509.239 80.8957 509.601 79.9094 510.013 78.9342C510.216 78.4494 510.786 78.0816 511.307 78.0816M511.307 75.1784C509.706 75.1784 508.153 76.1759 507.462 77.6303C507.369 77.6247 507.281 77.6191 507.187 77.6191C506.03 77.6191 504.927 78.0984 504.154 78.9342C503.419 79.7311 503.057 80.7731 503.133 81.8709C503.166 82.3835 503.21 82.8906 503.26 83.3977C501.669 83.7934 500.368 85.1586 500.067 86.8248C499.82 88.1789 500.27 89.4717 501.23 90.3577C500.506 91.5446 500.401 92.9823 500.977 94.2639C501.63 95.7072 503.057 96.6433 504.615 96.6433C505.191 96.6433 505.761 96.5207 506.304 96.2811C506.749 96.0861 507.193 95.8799 507.637 95.6626C507.824 95.9412 508.021 96.2254 508.224 96.5096C508.959 97.5405 510.073 98.1312 511.286 98.1312C513.299 98.1312 515.148 96.4539 515.411 94.3921C515.444 94.119 515.482 93.8404 515.515 93.5674L516.761 93.6677C516.876 93.6788 516.991 93.6788 517.101 93.6788C518.993 93.6788 520.568 92.3582 520.924 90.4635C521.221 88.8865 520.628 87.3207 519.465 86.3622L519.816 85.7827C520.59 84.5066 520.628 82.9686 519.915 81.6647C519.191 80.3496 517.825 79.5305 516.344 79.5305C516.086 79.5305 515.828 79.5528 515.576 79.6029L515.493 79.6196C515.312 78.9621 515.093 78.3101 514.835 77.647C514.248 76.1202 512.893 75.1729 511.296 75.1729L511.307 75.1784Z" fill="white"/>
<path d="M1019.43 127.698C1019.43 127.698 1027.8 126.624 1038.6 141.108C1049.41 155.587 1056.8 167.606 1066.29 170.219C1075.78 172.839 1081.84 172.074 1082.76 173.43C1083.68 174.787 1082.85 178.684 1072.33 182.242C1061.81 185.808 1028.4 192.63 1013.01 172.957L1010.42 151.516L1019.43 127.692L1019.43 127.698Z" fill="url(#paint0_linear_86_2225)" stroke="#543816" stroke-width="2.97593" stroke-linecap="round" stroke-linejoin="round"/>
<path d="M965.662 80.8284C965.662 80.8284 957.433 82.3743 946.094 110.773C940.3 125.281 941.32 136.699 943.001 138.591C944.682 140.484 945.851 139.992 948.197 139.245C950.543 138.497 950.326 139.455 951.271 139.686C952.216 139.917 954.793 138.683 954.793 138.683C954.793 138.683 957.959 100.567 965.662 80.8284Z" fill="#F9CC3D" stroke="#543816" stroke-width="3.11732" stroke-linecap="round" stroke-linejoin="round"/>
<path d="M982.51 186.03C982.886 186.88 983.935 187.789 986.368 188.209C988.514 188.58 988.503 187.892 990.751 187.866C992.806 187.841 992.34 189.011 996.055 189.054C997.522 189.07 998.62 188.309 999.98 188.202C1000.6 188.151 1002.7 189.766 1006.07 189.037C1012.59 187.625 1013.75 185.03 1014.09 184.139C1014.52 182.994 1012.32 157.659 1012.26 154.007C1012.2 150.353 1018.5 144.596 1020.43 123.405C1021.48 111.851 1015.16 87.5615 1013.73 82.0614C1013.55 81.3848 1013.51 80.6798 1013.59 79.9865C1016.4 57.9437 1003.43 33.8764 990.786 35.2685C986.069 35.7852 982.731 38.1136 975.315 38.4371C968.88 38.7166 965.826 35.8171 959.206 36.9294C951.632 38.2044 943.858 52.2341 942.46 59.0773C940.756 67.3961 942.281 82.9513 962.581 86.3429C962.581 86.3429 960.615 88.4406 960.153 89.1156C953.02 107.253 949.333 122.949 953.316 139.915C955.593 149.621 964.568 154.39 964.568 154.39C964.568 154.39 965.5 170.594 964.891 174.716C964.281 178.838 962.555 179.474 961.039 180.134C959.814 180.665 957.814 182.348 958.073 184.625C958.41 187.584 961.497 187.55 961.943 187.547C962.389 187.543 964.857 187.053 966.23 188.175C967.597 189.298 970.726 188.116 971.624 187.879C972.523 187.641 972.986 188.549 975.234 188.516C977.482 188.49 978.606 188.247 979.725 187.775C980.843 187.302 982.509 186.024 982.509 186.024L982.51 186.03Z" fill="#F9CC3D"/>
<path d="M941.914 64.7051C941.914 64.7051 949.691 67.7906 953.278 67.0576C956.864 66.3245 963.06 59.6184 976.628 64.0133C990.196 68.4082 997.817 59.1247 1001.97 62.6361C1006.13 66.1475 1000.31 81.9838 1003.35 89.4853C1006.4 96.9861 1022.36 151.82 990.275 157.604C990.275 157.604 962.563 165.393 953.203 140.041C943.842 114.689 961.677 86.1326 961.677 86.1326C961.677 86.1326 942.291 83.8682 941.913 64.6984L941.914 64.7051Z" fill="#F9F7ED"/>
<path d="M962.582 86.354C962.582 86.354 966.203 87.6803 981.03 86.3439" stroke="#543816" stroke-width="2.97593" stroke-linecap="round" stroke-linejoin="round"/>
<path d="M948.161 77.7386C948.161 77.7386 953.298 76.5313 951.487 67.5302C950.753 63.8863 947.125 61.2753 943.523 61.6922C943.523 61.6922 942.213 71.4207 948.167 77.7379L948.161 77.7386Z" fill="#FC9470"/>
<path d="M955.242 49.4292C957.025 49.7674 957.039 52.8101 956.931 56.489C956.785 61.5186 954.785 62.9099 953.887 63.1542C952.059 63.6466 950.708 61.1417 950.848 56.1128C950.98 51.5382 952.982 49.0033 955.242 49.4292Z" fill="#543816" stroke="#543816" stroke-width="2.51809" stroke-miterlimit="10"/>
<path d="M987.455 51.7633C986.706 53.9592 986.663 58.1991 987.15 60.9037C987.399 62.269 990.138 64.9744 992.574 62.2075C995.002 59.4347 994.211 51.9072 992.381 50.0997C990.933 48.6747 988.319 49.2362 987.455 51.7633Z" fill="#543816" stroke="#543816" stroke-width="2.51809" stroke-miterlimit="10"/>
<path d="M1013.6 79.9871C1013.6 79.9871 1013.9 101.446 1013.82 110.818C1013.75 120.182 1011.52 135.745 1005.98 141.071C1000.43 146.397 999.909 141.606 999.005 141.391C998.102 141.176 995 144.181 993.402 142.834C991.803 141.487 992.928 141.244 990.899 141.036C988.872 140.833 985.505 141.332 987.656 135.364C989.814 129.395 996.352 102.354 997.12 94.1218" fill="#F9CC3D"/>
<path d="M1013.6 79.9871C1013.6 79.9871 1013.9 101.446 1013.82 110.818C1013.75 120.182 1011.52 135.745 1005.98 141.071C1000.43 146.397 999.909 141.606 999.005 141.391C998.102 141.176 995 144.181 993.402 142.834C991.803 141.487 992.928 141.244 990.899 141.036C988.872 140.833 985.505 141.332 987.656 135.364C989.814 129.395 996.352 102.354 997.12 94.1218" stroke="#543816" stroke-width="2.97593" stroke-linecap="round" stroke-linejoin="round"/>
<path d="M1003.05 74.8106C1003.05 74.8106 1000.03 88.299 996.916 96.4337L1005.03 89.1171L1003.65 73.3688L1003.05 74.8106Z" fill="#F9CC3D"/>
<path d="M1013.6 79.9871C1013.6 79.9871 1013.9 101.446 1013.82 110.818C1013.75 120.182 1011.52 135.745 1005.98 141.071C1000.43 146.397 999.909 141.606 999.005 141.391C998.102 141.176 995 144.181 993.402 142.834C991.803 141.487 992.928 141.244 990.899 141.036C988.872 140.833 985.505 141.332 987.656 135.364C989.814 129.395 996.352 102.354 997.12 94.1218" stroke="#543816" stroke-width="2.97593" stroke-linecap="round" stroke-linejoin="round"/>
<path d="M998.052 60.1887C1002.4 59.6731 1007.54 64.1825 1006.97 69.2125C1006.53 73.0847 1002.87 75.8965 999.205 76.1651C996.643 76.3554 993.419 75.3559 991.952 72.8304C989.41 68.4587 992.867 60.7994 998.052 60.1887Z" fill="#FC9470"/>
<path d="M942.94 67.8682C942.94 67.8682 946.198 72.8484 954.023 71.6125C958.733 70.8664 961.845 68.5434 970.177 68.8936C979.867 69.2989 979.898 71.7376 987.32 71.6434C994.742 71.5492 1000.5 65.9886 1000.5 65.9886" stroke="#543816" stroke-width="2.97593" stroke-linecap="round" stroke-linejoin="round"/>
<g opacity="0.71">
<path d="M962.69 42.1444C962.338 41.1629 961.08 40.819 959.818 40.7327C959.652 40.6163 959.444 40.5453 959.19 40.5403C958.63 40.5364 958.1 40.6171 957.585 40.7772C957.526 40.7839 957.474 40.7899 957.421 40.7959C957.119 40.8303 956.873 40.953 956.7 41.135C956.681 41.144 956.663 41.1529 956.644 41.1618C955.988 41.4326 955.488 41.9496 955.455 42.8328C955.379 44.7966 958.146 44.6506 959.449 44.5699C960.639 44.4886 963.344 43.9709 962.69 42.151L962.69 42.1444Z" fill="#FFAD1D"/>
<path d="M971.966 42.5453C971.137 42.227 970.298 41.9303 969.448 41.6617C968.723 41.4331 967.926 41.1044 967.158 41.2662C965.811 41.5414 964.729 42.977 964.635 44.3137C964.585 44.9891 965.322 45.5479 965.947 45.4293C966.065 45.47 966.188 45.4966 966.335 45.5002C968.387 45.5642 970.414 45.6446 972.27 44.6282C973.197 44.1167 972.808 42.8622 971.966 42.5453Z" fill="#FFAD1D"/>
<path d="M977.123 39.7543C976.492 39.8261 975.858 39.8713 975.22 39.8831C974.749 39.9028 974.278 39.9226 973.806 39.929C973.76 39.9342 973.719 39.9254 973.672 39.9239C973.625 39.9767 973.572 40.0368 973.526 40.0962C973.214 40.5173 973.417 41.1302 973.723 41.4809C974.596 42.4775 975.545 42.8023 976.649 42.5548C976.956 42.5605 977.264 42.4578 977.484 42.2772C977.497 42.2757 977.503 42.2749 977.516 42.2668C978.523 41.8138 980.079 40.9128 980.062 39.5955C980.06 39.5213 980.053 39.4545 980.046 39.3944C979.072 39.5527 978.1 39.6769 977.124 39.761L977.123 39.7543Z" fill="#FFAD1D"/>
<path d="M961.911 37.3542C961.742 37.8064 961.898 38.296 962.416 38.6361C963.387 39.263 964.521 39.4586 965.639 39.2163C966.146 39.1045 966.434 38.6522 966.474 38.1809C964.998 37.7401 963.437 37.4781 961.905 37.3617L961.911 37.3542Z" fill="#FFAD1D"/>
<path d="M990.847 41.0804C990.634 40.144 989.524 39.6412 988.726 39.36C987.728 39.0136 986.621 39.532 985.684 39.8958C984.554 40.3289 983.433 40.8354 982.391 41.4546C981.699 41.8649 981.004 42.492 981.295 43.406C981.584 44.3067 982.694 44.5253 983.503 44.4874C984.688 44.4268 985.904 44.1124 987.072 43.8983C987.802 43.761 988.458 43.5511 989.054 43.172C989.219 43.16 989.394 43.113 989.568 43.0053C990.328 42.5466 991.092 42.1822 990.848 41.0871L990.847 41.0804Z" fill="#FFAD1D"/>
<path d="M993.554 36.9437C993.443 36.9089 993.326 36.8749 993.216 36.8402C993.214 36.8201 993.212 36.8068 993.21 36.7867C991.834 36.6931 990.416 36.6989 989.088 37.0327C989.042 37.038 989.004 37.0491 988.958 37.0544C988.856 37.0998 988.74 37.1333 988.615 37.1475C988.615 37.1475 988.609 37.1482 988.602 37.149C988.639 37.4695 988.794 37.7767 989.115 37.97C989.243 38.0976 989.414 38.1931 989.633 38.2426C990.289 38.3911 990.941 38.5605 991.588 38.7439L992.986 39.1529C994.385 39.5619 994.929 37.3758 993.547 36.9445L993.554 36.9437Z" fill="#FFAD1D"/>
<path d="M1001.42 41.8129C1000.84 41.216 1000.22 40.6645 999.655 40.052C999.616 40.009 999.577 39.9593 999.546 39.9156C998.719 39.3197 997.84 38.7974 997.014 38.2082C995.996 38.5676 995.35 40.0347 995.729 41.0266C995.732 41.0466 995.748 41.0718 995.757 41.0911C995.734 41.1817 995.718 41.2782 995.722 41.3724C995.732 42.0411 996.258 42.448 996.863 42.5009C997.502 42.5566 998.148 42.6117 998.787 42.6674C999.426 42.8991 1000.15 42.9451 1000.8 42.7768C1001.28 42.6546 1001.51 42.3367 1001.57 41.9782C1001.52 41.9233 1001.47 41.8685 1001.41 41.8136L1001.42 41.8129Z" fill="#FFAD1D"/>
<path d="M995.717 42.9121C995.176 42.7776 994.633 42.6839 994.084 42.6043C994.001 42.5799 993.913 42.5629 993.818 42.5533C993.637 42.5402 993.455 42.5203 993.274 42.5071C992.668 42.4543 992.161 43.0871 992.166 43.6615C992.172 44.2359 992.576 44.6229 993.083 44.7478C993.124 44.7634 993.165 44.7722 993.213 44.7803C993.858 44.8895 994.504 45.0054 995.149 45.1146C995.747 45.2157 996.36 44.9294 996.522 44.3021C996.674 43.7097 996.306 43.0548 995.717 42.9055L995.717 42.9121Z" fill="#FFAD1D"/>
<path d="M978.356 43.8546C977.441 43.2484 976.167 44.2798 975.335 44.7533C974.265 45.3622 974.943 46.8681 975.942 46.8693C976.188 47.0375 976.495 47.104 976.832 46.9642C977.003 46.8905 977.181 46.8161 977.359 46.7417C978.212 46.6852 978.857 46.2668 979.35 45.5679C979.838 44.8765 979.149 43.7981 978.35 43.862L978.356 43.8546Z" fill="#FFAD1D"/>
<path d="M953.586 44.199C953.103 44.051 952.569 43.8683 952.129 43.6883C952.115 43.6832 952.101 43.678 952.087 43.6728C951.483 44.3302 950.9 45.0054 950.398 45.7458C950.574 46.1723 950.961 46.4733 951.447 46.472C952.072 46.4618 952.697 46.4582 953.322 46.4479C954.62 46.4355 954.788 44.5763 953.586 44.199Z" fill="#FFAD1D"/>
</g>
<path d="M982.51 186.036C982.886 186.886 983.936 187.795 986.368 188.215C988.515 188.586 988.503 187.897 990.751 187.871C992.806 187.847 992.34 189.016 996.055 189.06C997.522 189.076 998.621 188.315 999.98 188.207C1000.6 188.157 1002.7 189.771 1006.07 189.043C1012.59 187.631 1013.75 185.036 1014.09 184.145C1014.52 183 1012.32 157.665 1012.26 154.012C1012.2 150.359 1018.5 144.602 1020.43 123.41C1021.48 111.857 1015.16 87.5671 1013.73 82.0671C1013.55 81.3904 1013.51 80.6854 1013.59 79.9922C1016.41 57.9494 1003.43 33.882 990.786 35.2741C986.069 35.7909 982.731 38.1193 975.315 38.4427C968.88 38.7222 966.148 35.0216 959.528 36.134C951.954 37.409 943.859 52.2397 942.46 59.0829C940.756 67.4017 942.281 82.9569 962.581 86.3485C962.581 86.3485 960.615 88.4462 960.153 89.1213C950.36 109.808 950.039 132.196 953.565 141.523C957.09 150.843 964.569 154.402 964.569 154.402C964.569 154.402 965.501 170.607 964.892 174.728C964.282 178.85 962.556 179.486 961.04 180.146C959.815 180.678 957.815 182.36 958.074 184.637C958.411 187.596 961.498 187.562 961.944 187.559C962.389 187.556 964.858 187.065 966.231 188.187C967.598 189.31 970.727 188.128 971.625 187.891C972.524 187.653 972.987 188.561 975.234 188.528C977.483 188.503 978.607 188.259 979.726 187.787C980.844 187.315 982.51 186.036 982.51 186.036Z" stroke="#543816" stroke-width="2.97593" stroke-linecap="round" stroke-linejoin="round"/>
<g opacity="0.54">
<path d="M1029.29 133.333C1028.96 133.072 1028.61 132.841 1028.28 132.581C1027.66 132.787 1027.12 133.403 1027.28 134.237C1027.59 135.84 1027.72 137.455 1027.72 139.092C1027.72 140.858 1030.42 140.821 1030.42 139.056C1030.42 137.303 1030.25 135.571 1029.94 133.846C1029.72 133.675 1029.5 133.504 1029.29 133.333Z" fill="#FFE8CF"/>
</g>
<path d="M1044.64 52.1592C1044.04 52.1592 1043.47 51.9948 1042.98 51.6765C1040.33 50.828 1039 47.2852 1038.21 44.6493C1037.06 40.767 1037.3 37.7439 1038.91 35.6543C1039.96 34.2913 1041.52 33.5063 1043.17 33.5063C1044.64 33.5063 1045.99 34.1269 1046.99 35.2512C1047.28 35.5801 1047.54 35.9407 1047.78 36.3226C1048.79 35.8718 1049.84 35.6331 1050.84 35.6331C1053.54 35.6331 1055.44 37.3515 1055.92 40.2366C1056.48 43.6416 1054.08 46.4843 1052.22 48.3247C1050.09 50.4355 1047.64 51.7508 1045.13 52.1221C1044.97 52.1486 1044.8 52.1592 1044.64 52.1592H1044.64Z" fill="#E07D77"/>
<path d="M1043.17 35.0125C1044.16 35.0125 1045.14 35.4102 1045.88 36.2535C1046.45 36.8899 1046.86 37.6165 1047.14 38.3856C1048.29 37.6112 1049.62 37.1392 1050.84 37.1392C1052.57 37.1392 1054.07 38.0886 1054.46 40.4805C1054.9 43.1429 1052.94 45.5083 1051.19 47.2426C1049.46 48.961 1047.34 50.2657 1044.92 50.6263C1044.82 50.6422 1044.73 50.6475 1044.64 50.6475C1044.23 50.6475 1043.89 50.5096 1043.61 50.2922C1041.4 49.7777 1040.2 46.1182 1039.63 44.2142C1038.93 41.8329 1038.45 38.6932 1040.07 36.5876C1040.86 35.564 1042.02 35.0178 1043.17 35.0178M1043.17 32C1041.05 32 1039.07 32.9918 1037.73 34.7261C1035.8 37.2241 1035.48 40.7085 1036.78 45.0893C1037.34 46.9615 1038.77 51.7719 1042.34 53.0607C1043.04 53.4637 1043.82 53.6706 1044.63 53.6706C1044.87 53.6706 1045.1 53.6547 1045.34 53.6176C1048.16 53.1986 1050.9 51.7401 1053.25 49.4065C1054.59 48.0806 1058.13 44.5643 1057.38 39.9873C1056.79 36.3702 1054.28 34.1267 1050.83 34.1267C1050.01 34.1267 1049.16 34.2593 1048.32 34.5192C1048.24 34.4291 1048.17 34.3389 1048.09 34.2487C1046.81 32.8008 1045.06 32.0053 1043.17 32.0053V32Z" fill="white"/>
<path d="M1055.67 102.837C1053.62 102.837 1051.45 102.391 1049.37 101.548C1047.97 100.98 1047.2 99.5061 1047.49 97.968C1047.75 96.5732 1048.83 95.5973 1050.12 95.5973C1050.48 95.5973 1050.85 95.6716 1051.21 95.8201C1052.33 96.2709 1054.02 96.8118 1055.78 96.8118C1056.81 96.8118 1057.71 96.6262 1058.48 96.2497C1056.1 94.4836 1054.58 91.3915 1054.73 88.2359C1054.9 85.006 1057.26 82.7519 1060.47 82.7519C1062.5 82.7519 1064.44 83.7225 1065.65 85.356C1066.4 86.369 1066.92 87.5835 1067.18 88.9254C1068.08 87.7586 1068.7 86.3319 1068.99 84.7726C1069.24 83.3778 1070.34 82.4443 1071.71 82.4443C1072.65 82.4443 1073.57 82.8792 1074.16 83.6058C1074.73 84.3059 1074.95 85.1916 1074.78 86.1091C1073.84 91.1953 1070.18 95.6716 1065.76 97.2202C1065.21 98.212 1064.55 99.0712 1063.79 99.7766C1061.66 101.776 1058.85 102.837 1055.67 102.837ZM1060.67 88.7344C1060.71 89.1057 1060.91 89.7527 1061.27 90.4422C1061.3 90.5005 1061.33 90.5589 1061.36 90.6172C1061.3 89.7368 1060.98 88.8988 1060.66 88.7344H1060.67Z" fill="#F2C32A"/>
<path d="M1071.71 83.8799C1072.62 83.8799 1073.61 84.6489 1073.39 85.8422C1072.57 90.3291 1069.23 94.747 1064.78 96.0199C1064.27 97.0594 1063.61 97.9928 1062.83 98.7194C1060.81 100.618 1058.27 101.398 1055.67 101.398C1053.71 101.398 1051.72 100.952 1049.89 100.21C1048.25 99.5468 1048.69 97.0328 1050.12 97.0328C1050.3 97.0328 1050.48 97.07 1050.69 97.1495C1052.25 97.7807 1054.04 98.2421 1055.78 98.2421C1057.76 98.2421 1059.67 97.6428 1061.08 96.0092C1058.09 95.0122 1055.98 91.6603 1056.14 88.3031C1056.28 85.5823 1058.31 84.1875 1060.47 84.1875C1061.96 84.1875 1063.5 84.8557 1064.52 86.2188C1065.72 87.8205 1066.11 89.9313 1065.91 92.0315C1068.29 90.4829 1069.86 87.8523 1070.38 85.0308C1070.52 84.2246 1071.1 83.8746 1071.71 83.8746M1062.53 93.0976C1062.71 92.3551 1062.8 91.5913 1062.79 90.8488C1062.77 89.4964 1062.22 87.253 1060.55 87.2583C1060.47 87.2583 1060.38 87.2583 1060.3 87.2742C1058.44 87.5075 1059.48 90.0957 1060.01 91.114C1060.66 92.3391 1061.51 92.9809 1062.53 93.0976ZM1071.71 81C1069.63 81 1067.98 82.4055 1067.59 84.5057C1067.53 84.8133 1067.46 85.1103 1067.38 85.402C1067.19 85.0838 1066.99 84.7762 1066.77 84.4845C1065.29 82.4956 1062.93 81.3129 1060.46 81.3129C1056.52 81.3129 1053.51 84.1928 1053.31 88.1599C1053.18 90.7746 1054.06 93.3574 1055.6 95.3675C1054.43 95.341 1053.1 95.0334 1051.73 94.4818C1051.21 94.2697 1050.66 94.1583 1050.12 94.1583C1048.14 94.1583 1046.49 95.6115 1046.09 97.6958C1045.67 99.9233 1046.79 102.055 1048.83 102.883C1051.08 103.795 1053.44 104.272 1055.67 104.272C1059.21 104.272 1062.35 103.084 1064.75 100.83C1065.49 100.135 1066.15 99.3187 1066.71 98.3906C1071.43 96.5237 1075.16 91.8459 1076.17 86.3726C1076.41 85.0467 1076.07 83.7048 1075.24 82.6865C1074.38 81.6364 1073.06 81.0053 1071.71 81.0053V81Z" fill="white"/>
<path d="M415.86 66.0129C415.329 64.0309 415.196 61.8124 415.472 59.5869C415.658 58.0884 416.882 56.9603 418.444 56.8447C419.86 56.7409 421.082 57.5323 421.416 58.7781C421.509 59.126 421.532 59.4983 421.482 59.8847C421.336 61.0807 421.252 62.8598 421.707 64.5544C421.973 65.548 422.386 66.3725 422.95 67.0215C424.039 64.2645 426.631 61.9916 429.72 61.3261C432.882 60.6465 435.67 62.3428 436.502 65.4495C437.027 67.4064 436.59 69.5287 435.328 71.1266C434.544 72.1151 433.504 72.9287 432.276 73.5282C433.634 74.0886 435.174 74.3246 436.755 74.1984C438.168 74.0845 439.354 74.9021 439.709 76.2285C439.951 77.1313 439.769 78.1315 439.219 78.8894C438.691 79.6204 437.893 80.0665 436.962 80.1375C431.808 80.5511 426.535 78.1692 423.895 74.2982C422.795 74.0253 421.795 73.6122 420.917 73.0635C418.435 71.5232 416.683 69.0844 415.86 66.0129ZM430.774 67.1845C430.427 67.326 429.852 67.6801 429.279 68.2065C429.231 68.2519 429.183 68.2972 429.135 68.3426C429.969 68.0542 430.697 67.5347 430.772 67.1795L430.774 67.1845Z" fill="#E07D77"/>
<path d="M438.322 76.6004C438.558 77.478 438.07 78.6302 436.861 78.7273C432.313 79.0917 427.182 77.0124 424.801 73.0448C423.665 72.8196 422.593 72.4257 421.69 71.8623C419.333 70.4019 417.922 68.1475 417.25 65.6409C416.742 63.7446 416.656 61.7026 416.9 59.7453C417.116 57.99 419.658 57.763 420.03 59.15C420.074 59.3164 420.087 59.5076 420.063 59.7249C419.857 61.3962 419.875 63.2455 420.325 64.925C420.839 66.8415 421.912 68.5323 423.855 69.4713C424.044 66.3233 426.734 63.4132 430.02 62.7057C432.683 62.1326 434.556 63.7335 435.114 65.8164C435.5 67.2538 435.254 68.9196 434.201 70.2559C432.963 71.8254 431.027 72.755 428.946 73.1019C431.059 75.006 434.006 75.8381 436.865 75.6072C437.681 75.5397 438.168 76.0039 438.326 76.594M427.04 70.1097C427.805 70.094 428.566 69.9821 429.28 69.7798C430.581 69.4096 432.607 68.3044 432.169 66.6869C432.148 66.6112 432.125 66.5255 432.088 66.4489C431.383 64.7189 429.151 66.3874 428.306 67.1704C427.291 68.1129 426.89 69.096 427.04 70.1097ZM441.103 75.85C440.565 73.8427 438.779 72.6077 436.65 72.7781C436.338 72.8022 436.034 72.8135 435.729 72.8033C435.989 72.5444 436.234 72.2681 436.459 71.9808C437.996 70.0337 438.529 67.453 437.89 65.0674C436.869 61.2596 433.309 59.0999 429.426 59.9351C426.867 60.4857 424.599 62.0015 423.054 64.0045C422.777 62.8679 422.731 61.5073 422.91 60.0431C422.978 59.4788 422.945 58.9255 422.805 58.401C422.293 56.4895 420.461 55.2668 418.345 55.423C416.084 55.591 414.316 57.2322 414.045 59.4183C413.745 61.8231 413.895 64.2263 414.472 66.3798C415.388 69.7993 417.349 72.528 420.147 74.2595C421.01 74.7959 421.969 75.22 423.012 75.5244C426.036 79.6005 431.52 81.9909 437.067 81.5476C438.412 81.4415 439.62 80.7664 440.389 79.7009C441.18 78.597 441.448 77.1576 441.098 75.8514L441.103 75.85Z" fill="white"/>
</g>
<defs>
<linearGradient id="paint0_linear_86_2225" x1="1012.42" y1="136.751" x2="1038.39" y2="162.731" gradientUnits="userSpaceOnUse">
<stop stop-color="#F9CC3D"/>
<stop offset="1" stop-color="#ED7829"/>
</linearGradient>
<clipPath id="clip0_86_2225">
<rect width="1440" height="133" fill="white"/>
</clipPath>
</defs>
</svg>
