<svg width="540" height="547" viewBox="0 0 540 547" fill="none" xmlns="http://www.w3.org/2000/svg">
<g clip-path="url(#clip0_158_2777)">
<path d="M453 308C498.84 308 536 270.84 536 225C536 179.16 498.84 142 453 142C407.16 142 370 179.16 370 225C370 270.84 407.16 308 453 308Z" fill="#F7D575"/>
<path d="M73 517C100.614 517 123 494.614 123 467C123 439.386 100.614 417 73 417C45.3858 417 23 439.386 23 467C23 494.614 45.3858 517 73 517Z" fill="#F7D575"/>
<path d="M25 130.4V69.5099C25 47.9099 42.51 30.3999 64.11 30.3999H122" stroke="#93C8C8" stroke-width="8" stroke-miterlimit="10"/>
<path d="M512.05 414.82V477.01C512.05 499.07 494.17 516.95 472.11 516.95H412.99" stroke="#93C8C8" stroke-width="8" stroke-miterlimit="10"/>
<path d="M268.57 0.609375H286.83V2.15938H270.3V15.6894H284.16V17.2394H270.3V33.0694H287.35V34.6194H268.57V0.609375Z" fill="#543816"/>
<path d="M301.589 21.7297L293.859 9.92969H295.729L299.899 16.4897C300.739 17.8497 301.679 19.1597 302.619 20.5597H302.809C303.699 19.1597 304.499 17.8397 305.429 16.4897L309.499 9.92969H311.279L303.549 21.8297L312.029 34.6097H310.109L305.519 27.5397C304.629 25.9897 303.599 24.4497 302.569 22.9997H302.339C301.309 24.4497 300.369 25.9997 299.389 27.5397L294.939 34.6097H293.109L301.589 21.7297Z" fill="#543816"/>
<path d="M318.721 22.3403C318.721 14.0503 323.781 9.32031 329.681 9.32031C335.581 9.32031 340.641 14.0503 340.641 22.3403C340.641 30.6303 335.581 35.2203 329.681 35.2203C323.781 35.2203 318.721 30.4903 318.721 22.3403ZM338.911 22.3403C338.911 15.5503 334.931 10.8703 329.681 10.8703C324.431 10.8703 320.501 15.5503 320.501 22.3403C320.501 29.1303 324.431 33.6703 329.681 33.6703C334.931 33.6703 338.911 29.0803 338.911 22.3403Z" fill="#543816"/>
<path d="M352.11 28.0487V11.4688H348.18V10.1587L352.11 9.92875L352.3 2.71875H353.75V9.92875H361.06V11.4787H353.75V28.2888C353.75 31.4688 354.45 33.6788 358.06 33.6788C359 33.6788 360.31 33.3088 361.2 32.8788L361.76 34.2888C360.31 34.8088 358.76 35.2287 357.92 35.2287C353.33 35.2287 352.11 32.3688 352.11 28.0588V28.0487Z" fill="#543816"/>
<path d="M370.141 1.78C370.141 0.75 370.841 0 371.831 0C372.821 0 373.521 0.75 373.521 1.78C373.521 3 372.771 3.7 371.831 3.7C370.851 3.7 370.141 3 370.141 1.78ZM370.931 9.93H372.621V34.61H370.931V9.93Z" fill="#543816"/>
<path d="M384 22.3403C384 14.0503 389.15 9.32031 395.1 9.32031C398.47 9.32031 400.67 10.8703 402.31 12.4103L401.23 13.6303C399.59 12.0803 397.62 10.8703 395.1 10.8703C389.9 10.8703 385.78 15.5503 385.78 22.3403C385.78 29.1303 389.48 33.6703 395.1 33.6703C397.82 33.6703 400.2 32.3603 401.94 30.7203L402.92 31.9403C400.86 33.7703 398.24 35.2203 395.05 35.2203C388.77 35.2203 384 30.4903 384 22.3403Z" fill="#543816"/>
<path d="M427.211 0.609375H435.411C443.141 0.609375 447.581 3.08938 447.581 9.87938C447.581 16.6694 443.231 19.6194 435.591 19.6194H428.941V34.6094H427.211V0.609375ZM434.991 18.0794C442.251 18.0794 445.711 15.7394 445.711 9.87938C445.711 4.01938 442.151 2.14938 434.801 2.14938H428.951V18.0694H434.991V18.0794Z" fill="#543816"/>
<path d="M455.211 22.3403C455.211 14.2903 460.361 9.32031 465.841 9.32031C471.321 9.32031 475.161 13.3903 475.161 20.7003C475.161 21.2203 475.161 21.7303 475.071 22.3903H456.991C456.991 28.9003 460.781 33.6803 466.591 33.6803C469.401 33.6803 471.511 32.7903 473.381 31.4303L474.131 32.8803C472.261 34.0003 470.151 35.2203 466.501 35.2203C460.271 35.2203 455.211 30.4003 455.211 22.3403ZM473.531 20.8403C473.531 14.1403 470.491 10.8703 465.851 10.8703C461.211 10.8703 457.511 14.6203 457.001 20.8403H473.531Z" fill="#543816"/>
<path d="M485.84 28.0487V11.4688H481.91V10.1587L485.84 9.92875L486.03 2.71875H487.48V9.92875H494.79V11.4787H487.48V28.2888C487.48 31.4688 488.18 33.6788 491.79 33.6788C492.73 33.6788 494.04 33.3088 494.93 32.8788L495.49 34.2888C494.04 34.8088 492.49 35.2287 491.65 35.2287C487.06 35.2287 485.84 32.3688 485.84 28.0588V28.0487Z" fill="#543816"/>
<path d="M9.30085 284.628C8.86853 284.628 8.44283 284.567 8.0238 284.445C7.82427 284.384 7.63138 284.317 7.4385 284.229C5.34338 283.29 4.24596 280.892 4.87782 278.655C5.30349 277.169 5.11726 276.487 4.96429 276.21C4.79136 275.892 4.37232 275.575 3.78036 275.311C3.51432 275.19 3.20838 275.081 2.88247 274.987C2.67629 274.926 2.4834 274.852 2.29717 274.771C0.202055 273.832 -0.895369 271.433 -0.263509 269.197C0.301839 267.211 2.11758 265.819 4.15948 265.819C4.59181 265.819 5.01751 265.88 5.43653 266.001C6.03514 266.177 6.55391 266.265 6.99288 266.265C7.35204 266.265 7.63806 266.204 7.84425 266.089C8.11695 265.941 8.62905 265.461 9.05472 263.975C9.39393 262.779 10.1788 261.786 11.2496 261.178C11.9281 260.799 12.6996 260.597 13.4711 260.597C13.9034 260.597 14.3357 260.657 14.7548 260.779C14.9543 260.833 15.1472 260.907 15.3401 260.995C17.4352 261.934 18.5326 264.333 17.9008 266.569C17.4751 268.055 17.6613 268.738 17.8143 269.015C17.9873 269.332 18.4062 269.65 18.9915 269.913C19.2576 270.035 19.5636 270.143 19.8961 270.244C20.089 270.298 20.2952 270.373 20.4881 270.46C22.5765 271.399 23.674 273.791 23.0421 276.027C22.4768 278.013 20.661 279.405 18.6191 279.405C18.1868 279.405 17.7611 279.344 17.3421 279.223C16.7501 279.047 16.2247 278.959 15.7857 278.959C15.4266 278.959 15.1405 279.02 14.9344 279.135C14.6617 279.284 14.1495 279.763 13.7238 281.25C13.1585 283.236 11.3428 284.628 9.30085 284.628Z" fill="#F2C32A"/>
<path d="M13.4712 262.189C13.7572 262.189 14.0365 262.229 14.3159 262.31C14.4489 262.351 14.5753 262.398 14.7017 262.452C16.0851 263.074 16.8101 264.655 16.391 266.127C15.9521 267.681 15.9654 268.911 16.4376 269.782C16.7835 270.418 17.4286 270.951 18.3531 271.37C18.6857 271.519 19.0581 271.654 19.4572 271.769C19.5902 271.809 19.7166 271.857 19.843 271.911C21.2264 272.532 21.9514 274.113 21.5324 275.586C21.1466 276.937 19.9295 277.815 18.6125 277.815C18.3332 277.815 18.0538 277.775 17.7745 277.694C17.0362 277.477 16.3711 277.369 15.7858 277.369C15.1606 277.369 14.6218 277.491 14.1828 277.741C13.3248 278.221 12.6664 279.254 12.2274 280.808C11.8416 282.159 10.6245 283.038 9.30754 283.038C9.02819 283.038 8.74888 282.997 8.46953 282.916C8.3365 282.875 8.21012 282.828 8.08375 282.774C6.70031 282.153 5.97531 280.572 6.39433 279.099C6.83331 277.545 6.82004 276.315 6.34781 275.444C6.00195 274.809 5.35678 274.275 4.43227 273.856C4.09971 273.708 3.72723 273.573 3.32816 273.458C3.19513 273.417 3.06879 273.37 2.94242 273.316C1.55898 272.694 0.833979 271.113 1.253 269.641C1.63877 268.289 2.85594 267.411 4.17287 267.411C4.45222 267.411 4.73157 267.452 5.01092 267.533C5.7492 267.749 6.41431 267.857 6.99961 267.857C7.62482 267.857 8.16354 267.735 8.60252 267.485C9.46052 267.006 10.119 265.972 10.558 264.418C10.7841 263.628 11.2962 262.973 12.0079 262.574C12.4602 262.317 12.9657 262.189 13.4712 262.189ZM13.4712 259.007C12.4336 259.007 11.4093 259.277 10.4981 259.79C9.05482 260.601 8.01059 261.932 7.55166 263.54C7.35878 264.216 7.17253 264.547 7.07942 264.675C7.05946 264.675 7.03286 264.675 6.99961 264.675C6.80007 264.675 6.44091 264.641 5.87556 264.472C5.31686 264.31 4.74486 264.229 4.16621 264.229C1.43259 264.229 -1.00172 266.087 -1.75995 268.756C-2.6113 271.748 -1.13477 274.958 1.66537 276.221C1.91811 276.336 2.18415 276.43 2.4502 276.511C2.71625 276.586 2.94904 276.674 3.15522 276.768C3.36806 276.863 3.50108 276.944 3.57425 276.998C3.5809 277.167 3.57426 277.545 3.38138 278.214C2.53003 281.207 4.0066 284.416 6.80674 285.679C7.05948 285.794 7.32552 285.889 7.59157 285.97C8.15027 286.132 8.72227 286.213 9.30092 286.213C12.0345 286.213 14.4688 284.355 15.2271 281.686C15.42 281.011 15.6062 280.68 15.6993 280.545C15.7193 280.545 15.7459 280.545 15.7791 280.545C15.9787 280.545 16.3378 280.578 16.9032 280.747C17.4619 280.909 18.0339 280.991 18.6125 280.991C21.3462 280.991 23.7805 279.133 24.5387 276.464C25.39 273.471 23.9135 270.262 21.1133 268.999C20.8606 268.884 20.5945 268.789 20.3285 268.708C20.0625 268.634 19.8297 268.546 19.6235 268.452C19.4106 268.357 19.2776 268.276 19.2045 268.222C19.1978 268.053 19.2045 267.675 19.3974 267.006C20.2487 264.013 18.7788 260.804 15.972 259.54C15.7193 259.426 15.4532 259.331 15.1872 259.25C14.6285 259.088 14.0498 259 13.4712 259V259.007Z" fill="white"/>
<path d="M41.8114 336.265C40.825 336.265 39.9178 335.775 39.313 334.927C38.7226 334.101 38.1826 333.282 37.6858 332.47C36.649 333.018 35.5906 333.523 34.525 333.991C34.0426 334.203 33.5458 334.313 33.049 334.313C31.7098 334.313 30.5362 333.545 29.9818 332.302C29.413 331.029 29.6362 329.559 30.565 328.462L31.4074 327.475C31.1554 327.35 30.9106 327.233 30.6658 327.109C29.3482 326.443 28.6642 325.098 28.9234 323.679C29.2114 322.085 30.6082 320.761 32.1706 320.607C32.5522 320.571 32.9482 320.534 33.3442 320.512C33.1858 319.254 33.0634 317.974 32.977 316.702C32.9122 315.802 33.2146 314.939 33.8194 314.281C34.4746 313.564 35.425 313.155 36.4258 313.155C36.9442 313.155 37.4554 313.272 37.9018 313.491C38.0674 313.067 38.233 312.65 38.413 312.233C38.9746 310.895 40.3858 309.952 41.833 309.952C43.1362 309.952 44.245 310.734 44.7274 311.985C45.253 313.36 45.6562 314.713 45.937 316.088L47.7946 315.729C48.0106 315.685 48.2338 315.663 48.4498 315.663C49.717 315.663 50.8834 316.366 51.5026 317.484C52.1074 318.582 52.0714 319.883 51.4162 320.958L49.9114 323.43L50.4658 323.657C52.0426 324.293 52.9498 326.012 52.6258 327.745C52.3234 329.347 51.049 330.422 49.4506 330.422C49.357 330.422 49.2562 330.422 49.1554 330.407L46.1026 330.159C45.9874 330.151 45.8722 330.137 45.7498 330.122C45.6202 331.088 45.4978 332.046 45.3754 333.004C45.1522 334.766 43.5178 336.251 41.8186 336.251L41.8114 336.265Z" fill="#77C67C"/>
<path d="M41.8259 311.847C42.3011 311.847 42.7475 312.081 42.9779 312.673C43.6907 314.524 44.1659 316.381 44.4035 318.312C45.6492 318.071 46.8948 317.829 48.1404 317.588C48.2412 317.566 48.3492 317.559 48.45 317.559C49.6164 317.559 50.5019 318.839 49.8251 319.95C48.9323 321.42 48.0396 322.89 47.1468 324.353C48.0252 324.704 48.9035 325.062 49.7747 325.413C51.2579 326.013 51.1571 328.5 49.4507 328.5C49.4003 328.5 49.3499 328.5 49.2995 328.5L46.2468 328.251C45.5771 328.2 44.7563 328.017 44.0075 327.98C43.9211 328.595 43.9499 329.392 43.8923 329.816C43.7627 330.796 43.6331 331.769 43.5107 332.749C43.4099 333.56 42.5963 334.336 41.8115 334.336C41.4587 334.336 41.1059 334.175 40.8323 333.787C39.9395 332.529 39.1259 331.249 38.3915 329.896C36.8939 330.752 35.3603 331.527 33.7835 332.222C33.5315 332.332 33.2867 332.383 33.0563 332.383C31.7891 332.383 31.0115 330.833 31.9907 329.684L34.4891 326.752C33.4811 326.327 32.4875 325.874 31.5083 325.377C29.9675 324.602 31.0403 322.605 32.3651 322.466C33.3515 322.364 34.3307 322.32 35.3171 322.32C35.3819 322.32 35.4467 322.32 35.5115 322.32C35.2019 320.404 34.9859 318.473 34.8563 316.527C34.7915 315.591 35.6195 315.021 36.4331 315.021C36.8435 315.021 37.2467 315.167 37.5347 315.489C37.9307 315.928 38.3123 316.381 38.6939 316.827C39.1259 315.511 39.6011 314.216 40.1411 312.937C40.4075 312.3 41.1563 311.818 41.8403 311.818M41.8403 308.007C39.7379 308.007 37.7003 309.316 36.7931 311.225C36.6707 311.218 36.5555 311.211 36.4331 311.211C34.9139 311.211 33.4667 311.84 32.4515 312.937C31.4867 313.982 31.0115 315.35 31.1123 316.791C31.1555 317.464 31.2131 318.129 31.2779 318.795C29.1899 319.314 27.4835 321.106 27.0875 323.292C26.7635 325.07 27.3539 326.766 28.6139 327.929C27.6635 329.487 27.5267 331.374 28.2827 333.056C29.1395 334.95 31.0115 336.179 33.0563 336.179C33.8123 336.179 34.5611 336.018 35.2739 335.703C35.8571 335.447 36.4403 335.177 37.0235 334.892C37.2683 335.257 37.5275 335.63 37.7939 336.003C38.7587 337.356 40.2203 338.131 41.8115 338.131C44.4539 338.131 46.8803 335.93 47.2259 333.224C47.2691 332.866 47.3195 332.5 47.3627 332.142L48.9972 332.273C49.1484 332.288 49.2996 332.288 49.4436 332.288C51.9276 332.288 53.9939 330.555 54.4619 328.068C54.8507 325.998 54.0732 323.943 52.5468 322.685L53.0075 321.925C54.0227 320.25 54.0732 318.232 53.1372 316.52C52.1868 314.794 50.394 313.719 48.45 313.719C48.1116 313.719 47.7731 313.748 47.4419 313.814L47.334 313.836C47.0964 312.973 46.8083 312.117 46.4699 311.247C45.6995 309.243 43.9211 308 41.8259 308L41.8403 308.007Z" fill="white"/>
<path d="M530.83 151.783C530.522 152.013 530.186 152.197 529.823 152.333C529.648 152.396 529.475 152.451 529.291 152.491C527.297 152.939 525.237 151.815 524.496 149.885C524.007 148.599 523.511 148.212 523.254 148.096C522.962 147.962 522.494 147.959 521.932 148.087C521.677 148.142 521.402 148.228 521.119 148.334C520.94 148.401 520.763 148.451 520.587 148.492C518.594 148.94 516.534 147.816 515.792 145.886C515.136 144.169 515.688 142.21 517.143 141.122C517.451 140.891 517.787 140.708 518.15 140.571C518.671 140.377 519.087 140.163 519.4 139.929C519.656 139.738 519.827 139.542 519.913 139.35C520.028 139.099 520.137 138.484 519.648 137.199C519.253 136.166 519.283 135.04 519.722 134.036C520.003 133.405 520.445 132.849 520.995 132.438C521.303 132.208 521.643 132.021 522.007 131.884C522.178 131.816 522.355 131.766 522.539 131.726C524.532 131.279 526.592 132.403 527.334 134.333C527.822 135.619 528.319 136.006 528.575 136.121C528.868 136.255 529.336 136.258 529.893 136.134C530.147 136.079 530.423 135.993 530.714 135.888C530.88 135.824 531.067 135.767 531.251 135.727C533.239 135.283 535.296 136.402 536.037 138.332C536.693 140.048 536.141 142.008 534.686 143.096C534.378 143.326 534.042 143.51 533.679 143.646C533.164 143.837 532.743 144.054 532.43 144.288C532.174 144.48 532.003 144.675 531.917 144.867C531.802 145.118 531.692 145.733 532.181 147.019C532.837 148.735 532.285 150.695 530.83 151.783Z" fill="#F2C32A"/>
<path d="M521.845 133.574C522.049 133.422 522.269 133.302 522.511 133.211C522.628 133.169 522.743 133.135 522.862 133.106C524.179 132.812 525.538 133.552 526.024 134.825C526.539 136.166 527.204 137.035 528.005 137.404C528.59 137.672 529.334 137.709 530.216 137.514C530.532 137.443 530.87 137.341 531.215 137.21C531.332 137.168 531.447 137.134 531.566 137.106C532.883 136.811 534.242 137.551 534.728 138.824C535.173 139.992 534.774 141.267 533.836 141.968C533.637 142.117 533.416 142.237 533.174 142.328C532.533 142.568 532.001 142.845 531.584 143.157C531.139 143.49 530.819 143.864 530.64 144.276C530.284 145.075 530.366 146.163 530.881 147.504C531.326 148.672 530.927 149.946 529.989 150.648C529.79 150.797 529.569 150.917 529.327 151.008C529.211 151.05 529.095 151.084 528.977 151.113C527.66 151.407 526.301 150.667 525.814 149.394C525.299 148.053 524.634 147.184 523.833 146.815C523.248 146.547 522.504 146.51 521.622 146.705C521.306 146.776 520.969 146.878 520.623 147.009C520.507 147.051 520.392 147.085 520.273 147.114C518.956 147.408 517.597 146.668 517.11 145.395C516.665 144.227 517.064 142.952 518.003 142.251C518.202 142.102 518.422 141.982 518.665 141.891C519.306 141.651 519.837 141.374 520.254 141.062C520.7 140.729 521.019 140.355 521.199 139.943C521.554 139.144 521.473 138.057 520.957 136.715C520.697 136.032 520.713 135.292 521.007 134.629C521.193 134.205 521.485 133.844 521.845 133.574ZM520.149 131.307C519.41 131.86 518.824 132.599 518.448 133.45C517.852 134.797 517.817 136.302 518.347 137.692C518.57 138.276 518.613 138.611 518.616 138.752C518.601 138.763 518.582 138.777 518.559 138.795C518.416 138.901 518.143 139.068 517.65 139.249C517.165 139.432 516.715 139.679 516.302 139.987C514.355 141.444 513.61 144.065 514.492 146.37C515.48 148.956 518.243 150.456 520.911 149.864C521.152 149.811 521.392 149.737 521.625 149.653C521.854 149.564 522.067 149.502 522.264 149.46C522.466 149.414 522.604 149.401 522.685 149.4C522.78 149.517 522.977 149.79 523.196 150.369C524.184 152.956 526.946 154.455 529.615 153.863C529.856 153.81 530.096 153.736 530.329 153.652C530.813 153.47 531.264 153.223 531.676 152.914C533.624 151.457 534.368 148.836 533.487 146.531C533.264 145.947 533.22 145.612 533.215 145.466C533.229 145.455 533.248 145.441 533.271 145.423C533.414 145.317 533.688 145.149 534.18 144.968C534.665 144.786 535.116 144.539 535.528 144.231C537.476 142.774 538.22 140.153 537.338 137.847C536.35 135.261 533.587 133.762 530.919 134.354C530.678 134.407 530.438 134.481 530.205 134.565C529.976 134.654 529.763 134.715 529.566 134.758C529.364 134.804 529.226 134.817 529.145 134.818C529.05 134.701 528.853 134.428 528.634 133.848C527.646 131.262 524.888 129.759 522.215 130.355C521.974 130.408 521.734 130.482 521.501 130.566C521.017 130.748 520.558 130.994 520.145 131.302L520.149 131.307Z" fill="white"/>
<path d="M15.0755 408.452C14.5715 408.804 13.9974 409 13.3944 409.024C10.6791 409.861 7.47939 407.671 5.27608 405.918C2.03063 403.336 0.454844 400.661 0.583506 397.961C0.669377 396.198 1.51503 394.627 2.90429 393.656C4.13579 392.795 5.6348 392.523 7.12691 392.885C7.56519 392.99 8.00021 393.136 8.42138 393.319C9.0072 392.346 9.74813 391.531 10.5852 390.946C12.8554 389.359 15.4584 389.687 17.5493 391.83C20.0152 394.36 19.6665 398.155 19.1857 400.79C18.6356 403.811 17.3516 406.351 15.4613 408.136C15.341 408.253 15.207 408.36 15.0711 408.455L15.0755 408.452Z" fill="#E07D77"/>
<path d="M3.7887 394.922C4.61262 394.346 5.66982 394.104 6.79109 394.374C7.63767 394.578 8.40566 394.949 9.09772 395.426C9.60775 394.102 10.4485 392.925 11.474 392.208C12.9246 391.195 14.7348 391.116 16.4707 392.891C18.4003 394.868 18.1398 398.005 17.6888 400.487C17.246 402.942 16.2275 405.284 14.4098 407.004C14.3403 407.073 14.2645 407.133 14.19 407.185C13.8482 407.423 13.4781 407.51 13.1182 407.49C10.9627 408.353 7.80407 405.989 6.21408 404.722C4.22581 403.136 1.98119 400.783 2.10929 398.063C2.17073 396.741 2.82326 395.603 3.78742 394.929M2.01754 392.396C0.242608 393.637 -0.841096 395.633 -0.945888 397.872C-1.10238 401.102 0.673896 404.214 4.33444 407.128C5.89701 408.375 9.91907 411.573 13.677 410.557C14.4962 410.489 15.2706 410.206 15.9542 409.728C16.1515 409.59 16.3393 409.439 16.5148 409.27C18.64 407.262 20.0811 404.433 20.689 401.093C21.0333 399.196 21.9468 394.166 18.6313 390.765C16.0103 388.078 12.5865 387.668 9.69844 389.686C9.006 390.17 8.3694 390.78 7.81623 391.491C7.70199 391.459 7.58337 391.429 7.46475 391.399C5.54186 390.934 3.60713 391.292 2.02065 392.401L2.01754 392.396Z" fill="white"/>
<path d="M501.853 377.37C501.434 377.37 501.021 377.356 500.602 377.335C498.156 377.21 496.74 375.06 496.788 373.056C496.836 371.025 498.307 369.545 500.272 369.545C500.341 369.545 500.417 369.545 500.485 369.545C500.829 369.566 501.18 369.573 501.537 369.573C503.853 369.573 507.605 369.168 509.866 366.83C506.134 365.699 502.891 362.488 501.771 358.488C501.104 356.115 501.482 353.798 502.849 351.962C504.313 349.986 506.739 348.807 509.337 348.807C511.027 348.807 512.656 349.309 514.044 350.266C515.439 351.222 516.614 352.555 517.501 354.168C518.167 352.276 518.38 350.161 518.071 348.025C517.913 346.922 518.195 345.882 518.861 345.093C519.555 344.276 520.621 343.802 521.768 343.802C523.796 343.802 525.411 345.198 525.699 347.201C526.661 353.923 523.974 361.064 519.123 364.882C518.855 366.362 518.394 367.716 517.755 368.924C514.903 374.285 509.103 377.356 501.839 377.356L501.853 377.37ZM509.192 356.499C509.371 356.939 509.907 357.735 510.725 358.502C510.862 358.635 511.007 358.754 511.144 358.858C510.656 357.518 509.749 356.492 509.282 356.492C509.254 356.492 509.227 356.492 509.199 356.506L509.192 356.499Z" fill="#75BEDB"/>
<path d="M521.776 345.637C522.751 345.637 523.762 346.23 523.94 347.48C524.792 353.427 522.49 360.365 517.481 363.876C517.281 365.391 516.848 366.836 516.189 368.079C513.357 373.398 507.516 375.561 501.853 375.561C501.469 375.561 501.077 375.554 500.692 375.534C498.136 375.401 497.778 371.38 500.28 371.38C500.321 371.38 500.362 371.38 500.403 371.38C500.781 371.401 501.159 371.408 501.551 371.408C506.018 371.408 511.021 370.033 512.883 365.468C512.849 365.468 512.821 365.468 512.787 365.468C508.677 365.468 504.692 362.222 503.503 358.006C502.286 353.671 505.674 350.642 509.344 350.642C510.609 350.642 511.9 350.998 513.055 351.786C515.213 353.266 516.594 355.723 517.219 358.425C519.542 355.465 520.394 351.507 519.858 347.773C519.659 346.377 520.697 345.637 521.783 345.637M512.67 361.308C512.931 361.308 513.199 361.28 513.46 361.217C513.378 360.212 513.172 359.22 512.842 358.306C512.32 356.826 511.007 354.669 509.275 354.669C508.945 354.669 508.602 354.746 508.245 354.921C506.032 356.017 508.403 358.788 509.502 359.828C510.56 360.826 511.612 361.301 512.67 361.301M521.783 342C520.113 342 518.559 342.698 517.522 343.92C516.512 345.106 516.079 346.663 516.312 348.296C516.388 348.827 516.429 349.35 516.429 349.874C515.996 349.469 515.536 349.099 515.055 348.771C513.364 347.612 511.392 346.998 509.344 346.998C506.19 346.998 503.228 348.45 501.427 350.872C499.716 353.176 499.228 356.058 500.06 358.997C501.022 362.417 503.255 365.293 506.087 367.087C504.52 367.639 502.795 367.764 501.551 367.764C501.235 367.764 500.912 367.757 500.589 367.736C500.486 367.736 500.383 367.73 500.28 367.73C497.345 367.73 495.078 369.998 495.002 373.014C494.92 376.294 497.339 378.989 500.513 379.156C500.96 379.177 501.407 379.191 501.853 379.191C509.674 379.191 516.209 375.68 519.343 369.803C519.975 368.616 520.449 367.304 520.765 365.901C525.775 361.601 528.51 354.055 527.486 346.956C527.074 344.087 524.676 342 521.783 342Z" fill="white"/>
</g>
<defs>
<clipPath id="clip0_158_2777">
<rect width="540" height="546.4" fill="white"/>
</clipPath>
</defs>
</svg>
