<svg width="39" height="38" viewBox="0 0 39 38" fill="none" xmlns="http://www.w3.org/2000/svg">
<path d="M30.8349 0H9.06079C4.55123 0 0.895508 3.60966 0.895508 8.06241V29.5622C0.895508 34.0149 4.55123 37.6246 9.06079 37.6246H30.8349C35.3444 37.6246 39.0002 34.0149 39.0002 29.5622V8.06241C39.0002 3.60966 35.3444 0 30.8349 0Z" fill="url(#paint0_radial_1804_10915)"/>
<path d="M30.8349 0H9.06079C4.55123 0 0.895508 3.60966 0.895508 8.06241V29.5622C0.895508 34.0149 4.55123 37.6246 9.06079 37.6246H30.8349C35.3444 37.6246 39.0002 34.0149 39.0002 29.5622V8.06241C39.0002 3.60966 35.3444 0 30.8349 0Z" fill="url(#paint1_radial_1804_10915)"/>
<path d="M30.8349 0H9.06079C4.55123 0 0.895508 3.60966 0.895508 8.06241V29.5622C0.895508 34.0149 4.55123 37.6246 9.06079 37.6246H30.8349C35.3444 37.6246 39.0002 34.0149 39.0002 29.5622V8.06241C39.0002 3.60966 35.3444 0 30.8349 0Z" fill="url(#paint2_radial_1804_10915)"/>
<path d="M29.4745 11.4238C29.4745 12.537 28.5605 13.4394 27.4332 13.4394C26.3058 13.4394 25.3918 12.537 25.3918 11.4238C25.3918 10.3106 26.3058 9.4082 27.4332 9.4082C28.5605 9.4082 29.4745 10.3106 29.4745 11.4238Z" fill="white"/>
<path fill-rule="evenodd" clip-rule="evenodd" d="M19.9482 25.534C23.7061 25.534 26.7526 22.5259 26.7526 18.8154C26.7526 15.1048 23.7061 12.0967 19.9482 12.0967C16.1903 12.0967 13.1438 15.1048 13.1438 18.8154C13.1438 22.5259 16.1903 25.534 19.9482 25.534ZM19.9482 22.8466C22.203 22.8466 24.0308 21.0418 24.0308 18.8154C24.0308 16.5889 22.203 14.7841 19.9482 14.7841C17.6934 14.7841 15.8656 16.5889 15.8656 18.8154C15.8656 21.0418 17.6934 22.8466 19.9482 22.8466Z" fill="white"/>
<path fill-rule="evenodd" clip-rule="evenodd" d="M6.3396 18.2788C6.3396 13.7634 6.3396 11.5057 7.22956 9.78106C8.01239 8.26401 9.26152 7.03063 10.7979 6.25766C12.5445 5.37891 14.8311 5.37891 19.4041 5.37891H20.4928C25.0657 5.37891 27.3523 5.37891 29.0988 6.25766C30.6353 7.03063 31.8844 8.26401 32.6672 9.78106C33.5572 11.5057 33.5572 13.7634 33.5572 18.2788V19.3537C33.5572 23.8691 33.5572 26.1268 32.6672 27.8514C31.8844 29.3685 30.6353 30.6019 29.0988 31.3748C27.3523 32.2536 25.0657 32.2536 20.4928 32.2536H19.4041C14.8311 32.2536 12.5445 32.2536 10.7979 31.3748C9.26152 30.6019 8.01239 29.3685 7.22956 27.8514C6.3396 26.1268 6.3396 23.8691 6.3396 19.3537V18.2788ZM19.4041 8.06638H20.4928C22.8242 8.06638 24.409 8.06847 25.634 8.16729C26.8274 8.26356 27.4376 8.43804 27.8633 8.6522C28.8875 9.16753 29.7202 9.98978 30.2421 11.0011C30.459 11.4214 30.6358 12.0239 30.7333 13.2023C30.8333 14.4119 30.8355 15.9767 30.8355 18.2788V19.3537C30.8355 21.6558 30.8333 23.2206 30.7333 24.4302C30.6358 25.6086 30.459 26.2111 30.2421 26.6314C29.7202 27.6427 28.8875 28.4649 27.8633 28.9803C27.4376 29.1945 26.8274 29.369 25.634 29.4652C24.409 29.564 22.8242 29.5661 20.4928 29.5661H19.4041C17.0726 29.5661 15.4878 29.564 14.2628 29.4652C13.0694 29.369 12.4592 29.1945 12.0335 28.9803C11.0093 28.4649 10.1766 27.6427 9.65466 26.6314C9.43777 26.2111 9.26106 25.6086 9.16356 24.4302C9.06348 23.2206 9.06136 21.6558 9.06136 19.3537V18.2788C9.06136 15.9767 9.06348 14.4119 9.16356 13.2023C9.26106 12.0239 9.43777 11.4214 9.65466 11.0011C10.1766 9.98978 11.0093 9.16753 12.0335 8.6522C12.4592 8.43804 13.0694 8.26356 14.2628 8.16729C15.4878 8.06847 17.0726 8.06638 19.4041 8.06638Z" fill="white"/>
<defs>
<radialGradient id="paint0_radial_1804_10915" cx="0" cy="0" r="1" gradientUnits="userSpaceOnUse" gradientTransform="translate(14.5043 28.2184) rotate(-55.0354) scale(34.4334 34.586)">
<stop stop-color="#B13589"/>
<stop offset="0.79309" stop-color="#C62F94"/>
<stop offset="1" stop-color="#8A3AC8"/>
</radialGradient>
<radialGradient id="paint1_radial_1804_10915" cx="0" cy="0" r="1" gradientUnits="userSpaceOnUse" gradientTransform="translate(13.1434 38.9683) rotate(-64.858) scale(30.4295 30.6784)">
<stop stop-color="#E0E8B7"/>
<stop offset="0.444662" stop-color="#FB8A2E"/>
<stop offset="0.71474" stop-color="#E2425C"/>
<stop offset="1" stop-color="#E2425C" stop-opacity="0"/>
</radialGradient>
<radialGradient id="paint2_radial_1804_10915" cx="0" cy="0" r="1" gradientUnits="userSpaceOnUse" gradientTransform="translate(-1.14581 1.34374) rotate(-8.02901) scale(52.9126 11.1805)">
<stop offset="0.156701" stop-color="#406ADC"/>
<stop offset="0.467799" stop-color="#6A45BE"/>
<stop offset="1" stop-color="#6A45BE" stop-opacity="0"/>
</radialGradient>
</defs>
</svg>
