<svg width="125" height="133" viewBox="0 0 125 133" fill="none" xmlns="http://www.w3.org/2000/svg">
<g clip-path="url(#clip0_563_4310)">
<path d="M93.8811 10.1953C93.2981 10.1953 92.862 10.0016 92.6481 9.64792L88.148 2.5442C87.997 2.3884 87.9802 2.21154 87.9718 2.11891C87.9383 1.75677 88.1522 1.30621 89.3642 1.18831L97.8024 0.37982C97.8863 0.371398 97.9702 0.367188 98.0498 0.367188C98.5783 0.367188 98.9935 0.552465 99.2745 0.914599L103.779 7.99305C103.938 8.13201 103.959 8.35098 103.972 8.44361C103.997 8.72574 103.858 8.97418 103.59 9.12999C103.389 9.24789 103.108 9.32368 102.726 9.35737L94.1411 10.1785C94.053 10.1869 93.965 10.1911 93.8769 10.1911L93.8811 10.1953Z" fill="#89C9C7"/>
<path d="M98.0498 0.733299C98.4566 0.733299 98.767 0.859625 98.9851 1.13754L103.51 8.24968C103.586 8.27916 103.598 8.39706 103.607 8.47286C103.632 8.74235 103.355 8.92342 102.692 8.98658L94.1075 9.8077C94.0278 9.81612 93.9524 9.82033 93.8811 9.82033C93.4659 9.82033 93.1136 9.70243 92.9626 9.45399L88.4331 2.30395C88.3535 2.23236 88.3451 2.15657 88.3367 2.08077C88.3115 1.81128 88.6638 1.62179 89.3977 1.55021L97.8359 0.74172C97.9114 0.733299 97.9827 0.729088 98.0498 0.729088M98.0498 -0.0078125C97.9575 -0.0078125 97.8653 -0.00360164 97.7688 0.00482008L89.3306 0.813305C87.737 0.964896 87.5692 1.71443 87.6111 2.14394C87.6195 2.25342 87.6447 2.51449 87.8586 2.75872L92.3461 9.8456C92.6145 10.2962 93.1639 10.553 93.8811 10.553C93.9775 10.553 94.0782 10.5488 94.1788 10.5404L102.764 9.71927C104.282 9.57189 104.37 8.75078 104.337 8.40127C104.307 8.08967 104.198 7.88334 104.064 7.74859L99.6016 0.73751L99.5848 0.708034L99.5638 0.682768C99.3206 0.366954 98.8592 -0.0078125 98.0498 -0.0078125Z" fill="#89C9C7"/>
<path d="M24.4967 38.6536C24.4758 38.0514 24.199 37.664 23.6663 37.6808L21.4184 38.0935L21.0913 28.4885L23.0163 28.4212C23.8131 28.3917 24.1361 28.0464 24.1067 27.2463L23.8341 19.3089C23.8089 18.5762 23.465 18.1846 22.7311 18.2098L20.739 18.2772L20.4957 11.2072C20.4706 10.4745 20.1267 10.0829 19.3256 10.1124L12.3511 10.3524C11.6214 10.3776 11.3027 10.7903 11.3278 11.523L11.5711 18.593L9.11342 18.6772L9.22246 12.1294C9.2686 11.5272 8.85759 11.2072 8.19495 11.2282L1.67759 11.4514C0.947844 11.4767 0.629105 11.8893 0.587166 12.622L1.62069e-05 36.426C-0.0419231 37.0955 0.431991 37.3482 1.09463 37.3229L7.54489 37.0997C8.34174 37.0703 8.66467 36.725 8.70242 35.9923L8.92469 28.9054L11.915 28.8044L12.2924 39.8115L4.45816 41.2853C3.79552 41.3738 3.40968 41.7864 3.43484 42.456L3.72003 50.8608C3.741 51.5261 4.0178 51.7872 4.55043 51.7662L12.6531 50.2839L12.9005 57.4761C12.9257 58.2088 13.2696 58.533 14.0664 58.5035L20.978 58.2635C21.7749 58.234 22.0978 57.8888 22.0727 57.1561L21.7749 48.4985L23.7586 48.0985C24.4842 47.9385 24.8029 47.53 24.7777 46.7931L24.5009 38.6536H24.4967ZM59.3525 38.4978C59.3273 37.7777 58.8115 37.2934 58.023 37.3187L56.0896 37.3861L55.9638 33.6511L57.8972 33.5837C58.6856 33.5584 59.1721 33.1079 59.1428 32.3162L58.887 24.7704C58.8576 23.9071 58.3459 23.566 57.5575 23.5955L48.0415 23.924L47.9072 20.0458L55.9931 19.7679C56.7816 19.7426 57.201 19.4394 57.1674 18.5046L56.9158 11.1777C56.8906 10.3861 56.4461 10.0408 55.6618 10.0702L47.5759 10.3482L47.4543 6.75209C47.4249 5.88886 46.9804 5.47198 46.1919 5.50146L37.7454 5.79201C36.8856 5.82149 36.5459 6.26363 36.5711 7.05527L36.6969 10.7229L29.1101 10.984C28.3216 11.0093 27.9777 11.384 28.0029 12.1715L28.2545 19.5742C28.2839 20.4374 28.6529 20.7111 29.4372 20.6858L37.024 20.4247L37.1582 24.3029L27.9987 24.6188C27.2815 24.644 26.8663 25.0188 26.8915 25.8062L27.1557 33.4953C27.1809 34.2153 27.6254 34.6322 28.4097 34.6027L44.9421 34.0342L45.068 37.7693L28.6823 38.3335C27.8938 38.3588 27.5541 38.8767 27.5793 39.5968L27.8435 47.2858C27.8729 48.149 28.2419 48.4943 29.1017 48.4649L45.4161 47.9048L45.6258 54.0863L40.5385 54.2632C39.7501 54.2885 39.3349 54.6632 39.3642 55.5265L39.532 60.4026C39.5571 61.1943 40.0017 61.5396 40.786 61.5101L53.1664 61.0848C54.3114 61.0469 56.8739 60.3816 56.8319 59.1604L56.4335 47.53L58.3669 47.4627C59.1554 47.4374 59.6419 47.0584 59.6125 46.1952L59.3483 38.5062L59.3525 38.4978Z" fill="#543816"/>
<path d="M77.2563 16.444C77.7596 16.305 78.049 15.8755 78.0532 15.2986V14.3638L114.649 14.6038V15.5386C114.637 16.3303 114.993 16.6924 115.782 16.6966L123.658 16.7471C124.446 16.7514 124.878 16.3976 124.883 15.606L124.929 8.48965C124.937 7.2685 124.295 6.61582 123.079 6.6074L101.812 6.46844L90.8572 6.39685L69.5185 6.25789C68.3023 6.24947 67.7235 6.89373 67.7151 8.11488L67.669 15.2312C67.6648 16.0229 68.0926 16.385 68.8768 16.3892L76.8243 16.4398H77.0382M78.5858 17.7578C78.1496 17.8799 77.9567 18.2546 77.9525 18.7557V19.1937L71.3261 19.1515C70.6383 19.1473 70.2608 19.5221 70.2567 20.1495L70.2315 23.8509C70.2273 24.5414 70.6005 24.9204 71.2884 24.9246L72.8485 24.9331L72.8317 27.5059L71.2087 27.4933C70.5838 27.4933 70.2063 27.8638 70.2021 28.5544L70.177 32.2557C70.1728 32.9463 70.546 33.3253 71.2338 33.3295L93.7888 33.4769C94.4766 33.4811 94.854 33.1063 94.8582 32.4158L94.8834 28.7144C94.8876 28.0238 94.5143 27.6448 93.8265 27.6406L92.2664 27.6322L92.2832 25.0594L93.8433 25.0678C94.5311 25.072 94.9086 24.6972 94.9127 24.0067L94.9379 20.3685C94.9421 19.6779 94.5688 19.2989 93.881 19.2947L87.2588 19.2526V18.8147C87.2672 18.1873 86.894 17.8083 86.2691 17.8041L79.022 17.7578H78.7703M94.0027 35.835L70.7431 35.6834C69.5856 35.675 68.9985 36.2518 68.9943 37.4183L68.8894 53.6427L67.5348 61.6349C67.5348 62.1444 67.82 62.4392 68.5455 62.4434L75.3565 62.4897C76.2246 62.4939 76.665 62.136 76.8118 61.3359L77.7931 55.2302L86.4871 55.2891L86.4704 57.7609L83.7905 57.7441C82.9223 57.7399 82.5574 58.1736 82.5491 58.9736L82.5323 61.3738C82.5281 62.1739 82.8888 62.5402 83.7569 62.5444L93.7552 62.6118C94.9882 62.6202 95.7138 62.0434 95.7222 60.8769L95.8732 37.6667C95.8815 36.4287 95.2315 35.8434 94.0027 35.835ZM78.2419 41.0438L86.5752 41.0985L86.5584 43.3514L78.2251 43.2966L78.2419 41.0438ZM78.1958 48.3202L86.5291 48.3749L86.5123 50.6319L78.179 50.5772L78.1958 48.3202ZM79.7853 24.9794L85.3464 25.0173L85.3296 27.5901L79.7685 27.5522L79.7853 24.9794ZM123.641 54.6954L109.751 54.6028L109.763 52.9353L122.257 53.0195C122.987 53.0237 123.39 52.6953 123.394 51.9584L123.406 50.2909C123.41 49.5582 123.016 49.1539 122.349 49.1497L109.789 49.0655L109.801 47.398L122.295 47.4822C123.025 47.4864 123.427 47.158 123.431 46.3537L123.44 44.7536C123.444 44.0209 123.05 43.6166 122.383 43.6124L109.822 43.5282L109.831 41.9281L122.324 42.0123C123.054 42.0165 123.457 41.6207 123.461 40.8838L123.473 39.0815C123.478 38.3489 123.083 37.9446 122.417 37.9404L109.856 37.8562L109.868 36.1887L121.834 36.2687C122.962 36.2771 123.499 35.7465 123.507 34.6096L123.553 27.468C123.561 26.3984 123.033 25.8637 121.901 25.8552L109.935 25.7752L109.944 24.1751L123.767 24.2677C124.564 24.2719 124.966 23.8761 124.971 23.1392L124.987 20.6043C124.992 19.8716 124.597 19.4674 123.863 19.4631L109.973 19.3705V19.1684C109.977 18.4357 109.583 17.9641 108.92 17.9599L101.275 17.9093C100.545 17.9051 100.21 18.3683 100.205 19.0379L100.143 28.5123C100.134 29.5818 100.663 30.1166 101.728 30.125L114.092 30.205L114.083 31.8052L101.719 31.7252C100.654 31.7167 100.122 32.3147 100.113 33.4516L99.9497 58.4094C99.9413 59.5421 100.47 60.0137 101.602 60.0221L123.603 60.1653C124.333 60.1695 124.736 59.7737 124.74 59.0368L124.761 55.8997C124.765 55.0996 124.371 54.6954 123.641 54.6912V54.6954Z" fill="#543816"/>
<path d="M56.6222 122.727C56.6139 121.936 56.1106 121.582 55.4647 121.586L39.6494 121.721L39.5655 111.872L50.4362 111.779C51.2247 111.771 51.6482 111.337 51.6441 110.545L51.5853 103.644C51.577 102.852 51.145 102.498 50.3565 102.503L39.4859 102.595L39.402 92.6745L57.5156 92.5229C58.3753 92.5145 58.8031 92.1523 58.7947 91.2891L58.7318 83.5959C58.7234 82.8042 58.2914 82.3074 57.4317 82.3116L39.3181 82.4632L39.2636 75.9953C39.2552 75.2036 38.8232 74.7068 38.1061 74.711L28.9423 74.7868C28.2252 74.791 27.8016 75.3005 27.8058 76.0163L27.8603 82.56L18.4072 82.64L19.7996 77.8817C19.8709 77.667 19.8709 77.5912 19.8667 77.448C19.8625 76.9427 19.5018 76.6606 18.9272 76.6648L9.6167 76.7448C8.97084 76.749 8.61855 77.1154 8.40885 77.688L2.35282 98.5192C2.28152 98.6623 2.28152 98.8097 2.28572 98.9529C2.28572 99.3824 2.65059 99.6687 3.29226 99.6645L12.6028 99.5845C13.2486 99.5803 13.6009 99.2898 13.8106 98.6413L15.4798 92.8766L27.94 92.7713L28.0239 102.692L16.0837 102.793C15.224 102.802 14.943 103.164 14.9472 103.955L15.0059 110.929C15.0101 111.649 15.3037 112.078 16.1592 112.07L28.0993 111.969L28.1832 121.818L13.3074 121.944C12.4476 121.953 12.0911 122.315 12.0995 123.106L12.1666 130.943C12.175 131.734 12.5357 132.16 13.3954 132.156L55.4689 131.802C56.1861 131.798 56.681 131.36 56.6768 130.568L56.6097 122.732L56.6222 122.727Z" fill="#543816"/>
<path d="M83.3166 81.5165L69.4388 77.7941C69.2963 77.7941 69.1537 77.7941 69.0111 77.7941C68.512 77.7941 68.2226 78.0805 68.2184 78.7248L68.1849 87.0665C68.1849 87.7149 68.4659 88.0729 69.0404 88.2202L82.9894 91.9426H83.3459C83.9205 91.9426 84.2057 91.7321 84.2099 91.012L84.2434 82.6029C84.2434 82.0976 83.9624 81.7397 83.3166 81.5208V81.5165ZM83.2578 96.0398L69.3801 92.2458C69.3088 92.1742 69.0949 92.1742 68.9524 92.1742C68.4533 92.1742 68.1639 92.4564 68.1597 93.1048L68.1261 101.518C68.1261 102.023 68.4071 102.453 68.9817 102.6L82.9307 106.394C83.0733 106.466 83.2159 106.466 83.3585 106.47C83.8576 106.47 84.1469 106.112 84.1511 105.396L84.1847 97.1262C84.1847 96.6251 83.9037 96.263 83.2578 96.044V96.0398ZM70.7306 116.366L65.7775 130.059C65.6937 130.127 65.6811 130.341 65.6727 130.485C65.6433 130.986 65.9495 131.293 66.675 131.331L76.082 131.857C76.644 131.887 77.1431 131.63 77.336 131.062L82.2932 117.296C82.3813 117.157 82.3897 117.014 82.3981 116.871C82.4274 116.37 82.0374 116.058 81.2364 116.016L71.9887 115.498C71.4268 115.469 71.0074 115.73 70.7306 116.366ZM120.567 93.0964L111.911 93.0627L111.928 88.6076L122.958 88.0771C123.746 88.0097 124.107 87.5802 124.107 86.7885L124.136 78.809C124.136 78.0889 123.855 77.5836 123.067 77.6552L89.4061 79.1753C88.5464 79.2427 88.257 79.6006 88.257 80.3922L88.2276 88.0139C88.2276 88.8055 88.4373 89.3108 89.2258 89.2393L101.116 88.7129L101.099 93.0248L91.8722 92.9869C91.0837 92.9869 90.723 93.488 90.723 94.2039L90.6937 102.112C90.6937 102.832 91.046 103.266 91.9057 103.266L101.061 103.304L101.044 107.834L90.3036 107.792C89.0874 107.788 88.5128 108.361 88.5044 109.582L88.4206 131.074C88.4164 132.295 88.9867 132.872 90.203 132.876L122.211 133.003C123.427 133.007 124.002 132.434 124.01 131.142L124.094 109.721C124.098 108.5 123.528 107.923 122.312 107.914L111.856 107.872L111.873 103.341L120.458 103.375C121.318 103.375 121.75 102.95 121.75 102.158L121.779 94.3218C121.779 93.6017 121.355 93.0964 120.567 93.0922V93.0964ZM99.8574 118.033L112.674 118.084L112.657 122.61L99.8406 122.56L99.8574 118.033Z" fill="#543816"/>
<path d="M-0.139498 12.1158L-0.666088 37.5393C-0.671595 37.866 -0.379201 38.1315 -0.0180159 38.1225L8.27368 37.828C8.60591 37.8149 8.87257 37.5688 8.87354 37.2643L9.29099 11.5906C9.29638 11.2551 8.98954 10.9898 8.6237 11.012L0.441207 11.5612C0.118721 11.5829 -0.133545 11.8244 -0.139442 12.1202L-0.139498 12.1158Z" fill="#8CA96F"/>
<path d="M37.1582 51.6322C36.9862 50.849 36.6172 50.4994 35.8329 50.5247L28.7494 50.7689C28.1035 50.79 27.8267 51.0174 27.8477 51.5901L27.6925 59.7212C27.8603 60.5045 28.3048 60.8497 29.1646 60.8203L36.1055 60.5802C36.9653 60.5508 37.0953 60.1844 37.0701 59.397L37.1666 51.628L37.1582 51.6322Z" fill="#EFC141"/>
<path d="M3.25032 100.076C2.73447 100.076 2.26475 99.8357 1.96278 99.423C1.66082 99.0104 1.56855 98.4882 1.72373 97.9913L8.0943 77.3202C8.304 76.6423 8.91631 76.1875 9.62509 76.1875L18.8433 76.3644C19.3508 76.3728 19.8079 76.6128 20.1099 77.0255C20.4119 77.4381 20.4957 77.9519 20.349 78.4361L14.2091 98.943C14.0035 99.6294 13.387 100.088 12.6741 100.088L3.25871 100.076H3.25032Z" fill="#E07D77"/>
<path d="M9.62086 76.7126C9.62086 76.7126 9.63344 76.7126 9.64183 76.7126L18.8265 76.8894C19.5437 76.9021 20.047 77.5969 19.8415 78.2874L13.7015 98.7943C13.5631 99.2533 13.1438 99.5649 12.6656 99.5649L3.25448 99.5523C2.52893 99.5523 2.00888 98.8449 2.22277 98.1458L8.59334 77.4747C8.73174 77.02 9.15114 76.7126 9.62505 76.7126M9.62505 75.6641C8.68981 75.6641 7.87199 76.2662 7.59519 77.1673L1.22461 97.8384C1.02331 98.4911 1.14074 99.1817 1.54335 99.7333C1.94597 100.285 2.57087 100.601 3.25028 100.601L12.6615 100.613C13.6093 100.613 14.4271 100.003 14.6997 99.0933L20.8396 78.5864C21.0325 77.9421 20.9151 77.26 20.5209 76.7168C20.1266 76.1736 19.5143 75.8536 18.8433 75.8409L9.6586 75.6641C9.6586 75.6641 9.62505 75.6641 9.61666 75.6641H9.62505Z" fill="#E07D77"/>
<path d="M112.43 117.574L100.234 117.608C99.975 117.609 99.7653 117.821 99.766 118.081L99.7789 122.717C99.7796 122.978 99.9905 123.188 100.25 123.187L112.446 123.153C112.705 123.153 112.915 122.941 112.914 122.68L112.901 118.044C112.901 117.784 112.69 117.573 112.43 117.574Z" fill="#F99A3D"/>
</g>
<defs>
<clipPath id="clip0_563_4310">
<rect width="125" height="133" fill="white"/>
</clipPath>
</defs>
</svg>
