<svg width="62" height="41" viewBox="0 0 62 41" fill="none" xmlns="http://www.w3.org/2000/svg">
<g clip-path="url(#clip0_2296_12388)">
<path d="M54.45 7.6789C49.45 3.6789 45.3 6.4889 45.3 6.4889L45.52 6.9689C42.47 4.3589 38.99 2.9289 36.26 3.3789C34.68 3.6389 33.58 4.4889 30.69 4.6789C27.22 4.9089 25.68 3.8889 23.72 3.7489C21.07 3.5489 18.04 4.9689 15.42 7.3889L15.84 6.4889C15.84 6.4889 11.69 3.6789 6.68999 7.6789C1.68999 11.6789 2.04998 19.4089 8.86999 21.5389L9.04999 21.1489L9.07999 21.1589L9.11999 21.0089C9.18999 26.2089 12.17 29.9889 12.61 30.5289C18.11 37.2689 27.57 37.4089 30.56 37.4589C33.77 37.5089 41.85 37.6289 47.56 31.9989C48.06 31.5089 52.14 27.3489 52.41 21.4689C59.07 19.2589 59.39 11.6289 54.43 7.6689L54.45 7.6789Z" fill="white" stroke="white" stroke-width="6.6" stroke-linecap="round" stroke-linejoin="round"/>
<path d="M15.84 6.49027C15.84 6.49027 11.69 3.68027 6.68999 7.68027C1.68999 11.6803 2.04998 19.4103 8.86999 21.5403L15.83 6.48027L15.84 6.49027Z" fill="#EAC09D"/>
<mask id="mask0_2296_12388" style="mask-type:luminance" maskUnits="userSpaceOnUse" x="3" y="5" width="13" height="17">
<path d="M15.84 6.49027C15.84 6.49027 11.69 3.68027 6.68999 7.68027C1.68999 11.6803 2.04998 19.4103 8.86999 21.5403L15.83 6.48027L15.84 6.49027Z" fill="white"/>
</mask>
<g mask="url(#mask0_2296_12388)">
<path d="M11.69 11.6797C11.69 11.6797 7.68997 11.6797 6.68997 15.6797C5.68997 19.6797 9.07997 21.1697 9.07997 21.1697L11.69 11.6797Z" fill="#A06C45" stroke="#543816" stroke-width="1.87" stroke-linecap="round" stroke-linejoin="round"/>
</g>
<path d="M15.84 6.49027C15.84 6.49027 11.69 3.68027 6.68999 7.68027C1.68999 11.6803 2.04998 19.4103 8.86999 21.5403L15.83 6.48027L15.84 6.49027Z" stroke="#543816" stroke-width="1.87" stroke-linecap="round" stroke-linejoin="round"/>
<path d="M45.3 6.49027C45.3 6.49027 49.45 3.68027 54.45 7.68027C59.45 11.6803 59.09 19.4103 52.27 21.5403L45.31 6.48027L45.3 6.49027Z" fill="#EAC09D"/>
<mask id="mask1_2296_12388" style="mask-type:luminance" maskUnits="userSpaceOnUse" x="45" y="5" width="13" height="17">
<path d="M45.3 6.49027C45.3 6.49027 49.45 3.68027 54.45 7.68027C59.45 11.6803 59.09 19.4103 52.27 21.5403L45.31 6.48027L45.3 6.49027Z" fill="white"/>
</mask>
<g mask="url(#mask1_2296_12388)">
<path d="M49.45 11.6797C49.45 11.6797 53.45 11.6797 54.45 15.6797C55.45 19.6797 52.06 21.1697 52.06 21.1697L49.45 11.6797Z" fill="#A06C45" stroke="#543816" stroke-width="1.87" stroke-linecap="round" stroke-linejoin="round"/>
</g>
<path d="M45.3 6.49027C45.3 6.49027 49.45 3.68027 54.45 7.68027C59.45 11.6803 59.09 19.4103 52.27 21.5403L45.31 6.48027L45.3 6.49027Z" stroke="#543816" stroke-width="1.87" stroke-linecap="round" stroke-linejoin="round"/>
<path d="M52.39 19.6214C53.05 26.4714 48.12 31.4714 47.57 32.0114C41.85 37.6414 33.78 37.5214 30.57 37.4714C27.58 37.4214 18.12 37.2814 12.62 30.5414C12.13 29.9414 8.40997 25.2414 9.23997 19.0414C10.38 10.4914 17.97 3.31138 23.73 3.74138C25.69 3.89138 27.23 4.90138 30.7 4.67138C33.59 4.48138 34.69 3.63138 36.27 3.37138C42.11 2.41138 51.47 9.97138 52.39 19.6114V19.6214Z" fill="#EAC09D"/>
<mask id="mask2_2296_12388" style="mask-type:luminance" maskUnits="userSpaceOnUse" x="9" y="3" width="44" height="35">
<path d="M52.39 19.6214C53.05 26.4714 48.12 31.4714 47.57 32.0114C41.85 37.6414 33.78 37.5214 30.57 37.4714C27.58 37.4214 18.12 37.2814 12.62 30.5414C12.13 29.9414 8.40997 25.2414 9.23997 19.0414C10.38 10.4914 17.97 3.31138 23.73 3.74138C25.69 3.89138 27.23 4.90138 30.7 4.67138C33.59 4.48138 34.69 3.63138 36.27 3.37138C42.11 2.41138 51.47 9.97138 52.39 19.6114V19.6214Z" fill="white"/>
</mask>
<g mask="url(#mask2_2296_12388)">
<path d="M49.5399 24.7333C50.0999 30.5933 45.8799 34.8833 45.4099 35.3433C40.5099 40.1633 33.5999 40.0533 30.8499 40.0133C28.2899 39.9733 20.1899 39.8533 15.4799 34.0833C12.0899 29.9233 12.5199 25.0133 12.5899 24.2333C13.1899 16.7833 19.8099 10.3633 24.6999 10.6833C26.4399 10.7933 27.5799 11.7433 30.6999 11.6833C33.2399 11.6433 34.3199 10.9833 35.6699 10.8033C40.8299 10.1233 48.7599 16.5033 49.5399 24.7233V24.7333Z" fill="#FFE7CA"/>
<path d="M13.72 22.1665C16.41 22.2765 19.1 25.4565 18.28 28.4165C17.64 30.6965 15.15 32.0265 12.9 31.8365C11.32 31.7065 9.45995 30.8065 8.80995 29.1565C7.67995 26.2965 10.52 22.0465 13.73 22.1665H13.72Z" fill="#EFA98E"/>
<path d="M47.51 22.3154C50.2 22.4254 52.89 25.6054 52.06 28.5554C51.42 30.8254 48.93 32.1654 46.68 31.9754C45.11 31.8454 43.24 30.9454 42.59 29.2954C41.46 26.4454 44.3 22.1854 47.5 22.3154H47.51Z" fill="#EFA98E"/>
</g>
<path d="M52.39 19.6214C53.05 26.4714 48.12 31.4714 47.57 32.0114C41.85 37.6414 33.78 37.5214 30.57 37.4714C27.58 37.4214 18.12 37.2814 12.62 30.5414C12.13 29.9414 8.40997 25.2414 9.23997 19.0414C10.38 10.4914 17.97 3.31138 23.73 3.74138C25.69 3.89138 27.23 4.90138 30.7 4.67138C33.59 4.48138 34.69 3.63138 36.27 3.37138C42.11 2.41138 51.47 9.97138 52.39 19.6114V19.6214Z" stroke="#543816" stroke-width="1.87" stroke-linecap="round" stroke-linejoin="round"/>
<path d="M38.88 18.6496C38.45 20.0796 38.54 22.7896 38.93 24.5096C39.13 25.3796 40.98 27.0296 42.49 25.1796C44 23.3296 43.28 18.5296 42.04 17.4296C41.06 16.5596 39.37 16.9996 38.88 18.6396V18.6496Z" fill="#543816" stroke="#543816" stroke-width="1.61" stroke-miterlimit="10"/>
<path d="M21.27 18.6496C21.7 20.0796 21.61 22.7896 21.22 24.5096C21.02 25.3796 19.17 27.0296 17.66 25.1796C16.15 23.3296 16.87 18.5296 18.11 17.4296C19.09 16.5596 20.78 16.9996 21.27 18.6396V18.6496Z" fill="#543816" stroke="#543816" stroke-width="1.61" stroke-miterlimit="10"/>
<path d="M22.87 28.7185C23.49 30.1285 25.32 30.5185 26.71 30.4185C27.55 30.3585 28.32 30.0885 29.13 29.8585C30.05 29.5985 30.85 29.6985 31.76 29.9585C33.17 30.3585 34.44 30.6385 35.88 30.1785C36.84 29.8685 38.21 29.3485 38.47 28.2485C38.69 27.3085 37.24 26.9085 37.02 27.8485C36.89 28.4185 35.52 28.7385 35.04 28.8585C33.8 29.1785 32.64 28.5785 31.45 28.3185C30.08 28.0285 28.98 28.3685 27.67 28.7285C26.61 29.0185 24.71 29.1785 24.17 27.9485C23.78 27.0685 22.49 27.8285 22.87 28.7085V28.7185Z" fill="#543816"/>
</g>
<defs>
<clipPath id="clip0_2296_12388">
<rect width="61.14" height="40.78" fill="white"/>
</clipPath>
</defs>
</svg>
