<svg width="619" height="689" viewBox="0 0 619 689" fill="none" xmlns="http://www.w3.org/2000/svg">
<g clip-path="url(#clip0_837_3659)">
<mask id="mask0_837_3659" style="mask-type:luminance" maskUnits="userSpaceOnUse" x="1" y="0" width="618" height="689">
<path d="M591.78 0.5H27.93C13.057 0.5 1 12.557 1 27.43V661.57C1 676.443 13.057 688.5 27.93 688.5H591.78C606.653 688.5 618.71 676.443 618.71 661.57V27.43C618.71 12.557 606.653 0.5 591.78 0.5Z" fill="white"/>
</mask>
<g mask="url(#mask0_837_3659)">
<path d="M677 -41.5H-37V715.5H677V-41.5Z" fill="#F7F3F2"/>
<path d="M30.0201 577.038C30.0201 577.038 15.8501 301.458 218.92 307.768C421.99 314.078 429.83 124.388 591.14 126.518C752.44 128.648 841.13 224.018 879.14 300.998C917.15 377.988 948.49 587.498 948.49 587.498L30.0301 577.038H30.0201Z" fill="#EBE7E4"/>
<path d="M191.17 297.453H251.37C254.629 297.453 257.27 294.812 257.27 291.553V198.663C257.27 195.405 254.629 192.763 251.37 192.763H191.17C187.912 192.763 185.27 195.405 185.27 198.663V291.553C185.27 294.812 187.912 297.453 191.17 297.453Z" fill="#ABC592" stroke="#84705A" stroke-width="3" stroke-miterlimit="10"/>
<path d="M-115.94 215.648H131.64C134.3 215.648 136.46 213.488 136.46 210.828C136.46 208.168 134.3 206.008 131.64 206.008H-115.94V215.648Z" fill="#A3907A"/>
<path d="M-118.82 264.827H153.07C155.73 264.827 157.89 262.668 157.89 260.008C157.89 257.348 155.73 255.188 153.07 255.188H-118.82V264.827Z" fill="#A3907A"/>
<path d="M-120.53 314.007H173.95C176.61 314.007 178.77 311.847 178.77 309.187C178.77 306.527 176.61 304.367 173.95 304.367H-120.53V314.007Z" fill="#A3907A"/>
<path d="M212.45 408.312H227.34L227.34 154.042H212.45L212.45 408.312Z" fill="#D3C7BC" stroke="#84705A" stroke-width="3" stroke-miterlimit="10"/>
<path d="M-130.06 166.047L230.62 166.047C235.105 166.047 238.74 162.411 238.74 157.927V104.997C238.74 100.512 235.105 96.8769 230.62 96.8769L-130.06 96.8769C-134.544 96.8769 -138.18 100.512 -138.18 104.997V157.927C-138.18 162.411 -134.544 166.047 -130.06 166.047Z" fill="#D3C7BC" stroke="#84705A" stroke-width="3" stroke-miterlimit="10"/>
<path d="M90.9001 255.367L87.4601 222.098L89.7601 217.967C90.9601 215.827 89.4101 213.188 86.9501 213.188H60.8701C58.2401 213.188 56.7201 216.178 58.2801 218.298L61.0601 222.098L57.6201 255.367H90.8901H90.9001Z" fill="white" stroke="#84705A" stroke-width="2" stroke-linecap="round" stroke-linejoin="round"/>
<path d="M67.45 247.398H81.07C81.8376 247.398 82.46 246.776 82.46 246.008V232.388C82.46 231.621 81.8376 230.998 81.07 230.998H67.45C66.6823 230.998 66.06 231.621 66.06 232.388V246.008C66.06 246.776 66.6823 247.398 67.45 247.398Z" fill="#BFAD9B" stroke="#F9F5F2" stroke-width="3" stroke-linecap="round" stroke-linejoin="round"/>
<path d="M22.6499 206.008H-20.6501V184.418C-20.6501 182.338 -18.9601 180.658 -16.8901 180.658H18.8899C20.9699 180.658 22.6499 182.348 22.6499 184.418L22.6499 206.008Z" fill="white" stroke="#84705A" stroke-width="2" stroke-linecap="round" stroke-linejoin="round"/>
<path d="M114.59 277.181V274.421H114.63C115.31 274.421 115.86 273.871 115.86 273.191C115.86 272.511 115.31 271.961 114.63 271.961H109.28C108.6 271.961 108.05 272.511 108.05 273.191C108.05 273.871 108.6 274.421 109.28 274.421H109.32V276.781C107.25 277.661 105.8 279.711 105.8 282.101C105.8 279.861 104.52 277.921 102.66 276.961V274.421H102.86C103.54 274.421 104.09 273.871 104.09 273.191C104.09 272.511 103.54 271.961 102.86 271.961H97.5098C96.8298 271.961 96.2798 272.511 96.2798 273.191C96.2798 273.831 96.7698 274.341 97.3998 274.401V276.961C95.5398 277.921 94.2598 279.861 94.2598 282.091V304.371H117.36V282.091C117.36 280.011 116.25 278.191 114.6 277.171L114.59 277.181Z" fill="#EFC141" stroke="#84705A" stroke-width="2" stroke-linecap="round" stroke-linejoin="round"/>
<path d="M79.5301 276.961V274.921H79.5701C80.2501 274.921 80.8001 274.371 80.8001 273.691C80.8001 273.011 80.2501 272.461 79.5701 272.461H74.2201C73.5401 272.461 72.9901 273.011 72.9901 273.691C72.9901 274.371 73.5401 274.921 74.2201 274.921H74.2601V276.961C72.4001 277.921 71.1201 279.861 71.1201 282.101V304.381H82.6701V282.101C82.6701 279.861 81.3901 277.921 79.5301 276.971V276.961Z" fill="#EFC141" stroke="#84705A" stroke-width="2" stroke-linecap="round" stroke-linejoin="round"/>
<path d="M-188.73 700.5L1496.11 700.5V570.3L-188.73 570.3V700.5Z" fill="#BAA493"/>
<path d="M86.37 388.023H168.91C172.411 388.023 175.25 385.185 175.25 381.683V347.163C175.25 343.662 172.411 340.823 168.91 340.823H86.37C82.8685 340.823 80.03 343.662 80.03 347.163V381.683C80.03 385.185 82.8685 388.023 86.37 388.023Z" fill="white" stroke="#84705A" stroke-width="3" stroke-linecap="round" stroke-linejoin="round"/>
<path d="M116.76 422.188H141.68V376.057H116.76V422.188Z" fill="white" stroke="#84705A" stroke-width="3" stroke-linecap="round" stroke-linejoin="round"/>
<path d="M141.68 347.783L162.72 347.633C163.01 347.633 163.25 347.392 163.25 347.092C163.25 346.802 163.01 346.562 162.72 346.562L141.68 346.712C141.39 346.712 141.15 346.953 141.15 347.253C141.15 347.543 141.39 347.783 141.68 347.783Z" fill="white"/>
<g style="mix-blend-mode:multiply" opacity="0.72">
<path d="M-176.15 587.698C-176.15 598.318 146.73 620.047 614.32 620.047C1081.91 620.047 1460.97 611.438 1460.97 600.808C1460.97 590.188 1081.91 581.568 614.32 581.568C146.73 581.568 -176.15 577.078 -176.15 587.698Z" fill="#DDDDDD"/>
</g>
<path d="M515.35 417.94C507.14 417.94 500.47 411.26 500.47 403.06C500.47 394.86 507.15 388.18 515.35 388.18C523.55 388.18 530.23 394.86 530.23 403.06C530.23 411.26 523.55 417.94 515.35 417.94Z" fill="#91AF74"/>
<path d="M515.35 389.502C522.84 389.502 528.91 395.572 528.91 403.062C528.91 410.552 522.84 416.622 515.35 416.622C507.86 416.622 501.79 410.552 501.79 403.062C501.79 395.572 507.86 389.502 515.35 389.502ZM515.35 386.852C506.41 386.852 499.14 394.122 499.14 403.062C499.14 412.002 506.41 419.272 515.35 419.272C524.29 419.272 531.56 412.002 531.56 403.062C531.56 394.122 524.29 386.852 515.35 386.852Z" fill="#84705A"/>
<path d="M504.74 443.729C502.8 443.729 501.16 442.329 500.95 440.469L497.18 408.429C497.06 407.429 497.38 406.409 498.06 405.639C498.78 404.819 499.82 404.349 500.93 404.329L529.69 403.969C530.84 403.969 531.88 404.429 532.61 405.219C533.31 405.979 533.64 406.959 533.54 407.969L530.57 440.089C530.4 441.979 528.78 443.419 526.81 443.449L504.74 443.719V443.729Z" fill="white"/>
<path d="M529.73 405.479C531.09 405.479 532.16 406.569 532.04 407.849L529.07 439.969C528.97 441.089 527.98 441.949 526.78 441.959L504.76 442.229C504.76 442.229 504.74 442.229 504.73 442.229C503.55 442.229 502.56 441.399 502.43 440.289L498.66 408.249C498.51 406.969 499.57 405.839 500.94 405.829L529.7 405.469C529.7 405.469 529.72 405.469 529.73 405.469M529.73 402.469H529.66L500.9 402.829C499.37 402.849 497.92 403.509 496.92 404.639C495.96 405.729 495.51 407.169 495.68 408.599L499.45 440.639C499.76 443.259 502.03 445.229 504.73 445.229H504.8L526.82 444.959C529.56 444.929 531.81 442.899 532.06 440.239L535.03 408.119C535.16 406.699 534.68 405.279 533.71 404.219C532.7 403.109 531.25 402.479 529.73 402.479V402.469Z" fill="#84705A"/>
<path d="M183.62 -29.6328H177.7C176.872 -29.6328 176.2 -28.9612 176.2 -28.1328V38.7972C176.2 39.6256 176.872 40.2972 177.7 40.2972H183.62C184.449 40.2972 185.12 39.6256 185.12 38.7972V-28.1328C185.12 -28.9612 184.449 -29.6328 183.62 -29.6328Z" fill="#EFEAE6"/>
<path d="M183.62 -28.1328V38.7872H177.7V-28.1328H183.62ZM183.62 -31.1328H177.7C176.04 -31.1328 174.7 -29.7928 174.7 -28.1328V38.7872C174.7 40.4472 176.04 41.7872 177.7 41.7872H183.62C185.28 41.7872 186.62 40.4472 186.62 38.7872V-28.1328C186.62 -29.7928 185.28 -31.1328 183.62 -31.1328Z" fill="#84705A"/>
<path d="M130.98 59.8791C130.15 59.8791 129.48 59.2091 129.48 58.3791C129.48 46.7491 138.94 37.2891 150.57 37.2891H210.74C222.37 37.2891 231.83 46.7491 231.83 58.3791C231.83 59.2091 231.16 59.8791 230.33 59.8791H130.98Z" fill="#EFEAE6"/>
<path d="M210.74 38.7891C221.56 38.7891 230.33 47.5591 230.33 58.3791H130.98C130.98 47.5591 139.75 38.7891 150.57 38.7891H210.74ZM210.74 35.7891H150.57C138.11 35.7891 127.98 45.9191 127.98 58.3791C127.98 60.0391 129.32 61.3791 130.98 61.3791H230.33C231.99 61.3791 233.33 60.0391 233.33 58.3791C233.33 45.9191 223.2 35.7891 210.74 35.7891Z" fill="#84705A"/>
<path d="M180.66 62.0631C167.37 62.0631 154.87 61.8331 145.47 61.4231C140.88 61.2231 137.27 60.9831 134.74 60.7231C131.39 60.3731 129.49 60.0931 129.49 58.3831C129.49 56.6731 131.39 56.3931 134.74 56.0431C137.27 55.7831 140.88 55.5431 145.47 55.3431C154.87 54.9331 167.37 54.7031 180.66 54.7031C193.95 54.7031 206.45 54.9331 215.85 55.3431C220.44 55.5431 224.05 55.7831 226.58 56.0431C229.93 56.3931 231.83 56.6731 231.83 58.3831C231.83 60.0931 229.93 60.3731 226.58 60.7231C224.05 60.9831 220.44 61.2231 215.85 61.4231C206.45 61.8331 193.95 62.0631 180.66 62.0631Z" fill="#EFC141"/>
<path d="M180.66 56.2031C208.09 56.2031 230.33 57.1731 230.33 58.3831C230.33 59.5931 208.09 60.5631 180.66 60.5631C153.23 60.5631 130.99 59.5931 130.99 58.3831C130.99 57.1731 153.23 56.2031 180.66 56.2031ZM180.66 53.2031C167.35 53.2031 154.83 53.4331 145.4 53.8431C140.78 54.0431 137.14 54.2831 134.58 54.5431C131.34 54.8831 127.99 55.2231 127.99 58.3731C127.99 61.5231 131.34 61.8731 134.58 62.2031C137.14 62.4731 140.78 62.7031 145.4 62.9031C154.82 63.3131 167.34 63.5431 180.66 63.5431C193.98 63.5431 206.49 63.3131 215.92 62.9031C220.54 62.7031 224.18 62.4631 226.74 62.2031C229.98 61.8631 233.33 61.5231 233.33 58.3731C233.33 55.2231 229.98 54.8731 226.74 54.5431C224.18 54.2731 220.54 54.0431 215.92 53.8431C206.5 53.4331 193.98 53.2031 180.66 53.2031Z" fill="#84705A"/>
<path d="M273.84 611.558C273.07 611.558 272.34 611.348 271.7 610.948C270.83 610.398 270.24 609.528 270.08 608.558C269.92 607.598 270.17 606.648 270.78 605.868L395.3 448.448C396.02 447.548 397.16 447.008 398.37 447.008C399.13 447.008 399.87 447.218 400.51 447.618C401.38 448.168 401.97 449.038 402.13 450.008C402.29 450.968 402.04 451.918 401.43 452.698L276.91 610.118C276.19 611.018 275.05 611.558 273.85 611.558H273.84Z" fill="#DBD2CA"/>
<path d="M398.37 448.5C398.83 448.5 399.3 448.62 399.7 448.88C400.74 449.54 400.99 450.83 400.25 451.77L275.73 609.19C275.28 609.76 274.57 610.06 273.84 610.06C273.38 610.06 272.91 609.94 272.51 609.68C271.47 609.02 271.22 607.73 271.96 606.79L396.48 449.37C396.93 448.8 397.64 448.5 398.37 448.5ZM398.37 445.5C396.71 445.5 395.13 446.25 394.13 447.51L269.61 604.93C268.74 606.03 268.37 607.44 268.61 608.8C268.85 610.19 269.68 611.43 270.91 612.21C271.78 612.76 272.8 613.06 273.85 613.06C275.51 613.06 277.09 612.31 278.09 611.05L402.61 453.63C403.48 452.53 403.85 451.12 403.61 449.76C403.37 448.37 402.54 447.13 401.31 446.35C400.44 445.8 399.42 445.5 398.37 445.5Z" fill="#84705A"/>
<path d="M636.37 611.558C635.17 611.558 634.02 611.018 633.31 610.118L508.79 452.698C508.18 451.918 507.93 450.968 508.09 450.008C508.25 449.038 508.85 448.168 509.71 447.618C510.34 447.218 511.08 447.008 511.85 447.008C513.05 447.008 514.2 447.548 514.91 448.448L639.43 605.868C640.04 606.648 640.29 607.598 640.13 608.558C639.97 609.528 639.37 610.398 638.51 610.948C637.88 611.348 637.14 611.558 636.37 611.558Z" fill="#DBD2CA"/>
<path d="M511.84 448.5C512.56 448.5 513.28 448.8 513.73 449.37L638.25 606.79C638.99 607.72 638.74 609.01 637.7 609.68C637.29 609.94 636.83 610.06 636.37 610.06C635.65 610.06 634.93 609.76 634.48 609.19L509.96 451.77C509.22 450.84 509.47 449.55 510.51 448.88C510.92 448.62 511.38 448.5 511.84 448.5ZM511.84 445.5C510.79 445.5 509.77 445.79 508.9 446.35C507.67 447.13 506.84 448.37 506.6 449.76C506.37 451.12 506.73 452.53 507.6 453.63L632.12 611.05C633.12 612.31 634.7 613.06 636.36 613.06C637.41 613.06 638.43 612.77 639.3 612.21C640.52 611.43 641.36 610.19 641.6 608.8C641.83 607.44 641.47 606.03 640.6 604.93L516.08 447.51C515.08 446.25 513.5 445.5 511.84 445.5Z" fill="#84705A"/>
<path d="M289.43 459.667C283.2 459.667 278.12 454.597 278.12 448.357C278.12 442.117 283.19 437.047 289.43 437.047H624.59C630.82 437.047 635.9 442.117 635.9 448.357C635.9 454.597 630.83 459.667 624.59 459.667H289.43Z" fill="#AF9884"/>
<path d="M624.59 438.562C630.01 438.562 634.4 442.952 634.4 448.372C634.4 453.792 630.01 458.182 624.59 458.182H289.43C284.01 458.182 279.62 453.792 279.62 448.372C279.62 442.952 284.01 438.562 289.43 438.562H624.59ZM624.59 435.562H289.43C282.37 435.562 276.62 441.302 276.62 448.372C276.62 455.442 282.36 461.182 289.43 461.182H624.59C631.65 461.182 637.4 455.442 637.4 448.372C637.4 441.302 631.66 435.562 624.59 435.562Z" fill="#84705A"/>
<path d="M255.4 586.391H-126.07C-127.62 586.391 -128.88 585.131 -128.88 583.581V407.111C-128.88 405.561 -127.62 404.301 -126.07 404.301L238.92 404.301C249.55 404.301 258.18 412.931 258.18 423.561V583.601C258.18 585.131 256.93 586.381 255.4 586.381V586.391Z" fill="#D3C7BC" stroke="#84705A" stroke-width="3" stroke-miterlimit="10"/>
<path d="M176.24 453.812H32.2398C31.3064 453.812 30.5498 454.569 30.5498 455.503V549.503C30.5498 550.436 31.3064 551.193 32.2398 551.193H176.24C177.173 551.193 177.93 550.436 177.93 549.503V455.503C177.93 454.569 177.173 453.812 176.24 453.812Z" fill="#EFC141"/>
<path d="M176.24 455.497V549.497H32.2399V455.497H176.24ZM176.24 452.117H32.2399C30.3699 452.117 28.8599 453.627 28.8599 455.497V549.497C28.8599 551.367 30.3699 552.877 32.2399 552.877H176.24C178.11 552.877 179.62 551.367 179.62 549.497V455.497C179.62 453.627 178.11 452.117 176.24 452.117Z" fill="#84705A"/>
<path d="M503.86 656.584C503.02 656.584 502.2 656.424 501.43 656.104C497.85 654.604 496.3 650.034 497.92 645.714L541.36 529.314C541.8 528.134 542.94 527.344 544.2 527.344C544.6 527.344 545 527.424 545.37 527.584L561.06 534.154C561.82 534.474 562.41 535.074 562.71 535.844C563.01 536.614 562.99 537.454 562.65 538.204L511.35 651.234C509.87 654.494 506.93 656.604 503.86 656.604V656.584Z" fill="#BFAD9B"/>
<path d="M544.2 528.82C544.4 528.82 544.6 528.86 544.79 528.94L560.48 535.51C561.28 535.84 561.64 536.77 561.28 537.56L509.98 650.59C508.72 653.36 506.25 655.08 503.86 655.08C503.23 655.08 502.61 654.96 502.01 654.71C499.18 653.52 497.99 649.79 499.32 646.23L542.76 529.83C542.99 529.21 543.58 528.83 544.2 528.83M544.2 525.83C542.32 525.83 540.61 527.02 539.95 528.78L496.51 645.18C494.61 650.26 496.51 655.66 500.85 657.48C501.8 657.88 502.81 658.08 503.86 658.08C507.52 658.08 510.99 655.63 512.71 651.83L564.01 538.8C564.51 537.69 564.55 536.4 564.1 535.27C563.66 534.14 562.76 533.22 561.63 532.74L545.94 526.17C545.38 525.94 544.79 525.82 544.19 525.82L544.2 525.83Z" fill="#84705A"/>
<path d="M606.9 655.97C603.89 655.97 600.98 653.93 599.47 650.77L545.99 538.63C545.64 537.89 545.6 537.02 545.89 536.25C546.18 535.48 546.78 534.86 547.53 534.53L563.16 527.82C563.54 527.66 563.94 527.57 564.36 527.57C565.61 527.57 566.72 528.32 567.18 529.49L612.77 644.94C614.49 649.29 613 653.91 609.39 655.46C608.61 655.8 607.77 655.97 606.91 655.97H606.9Z" fill="#BFAD9B"/>
<path d="M564.36 529.07C564.97 529.07 565.55 529.44 565.79 530.04L611.38 645.49C612.79 649.06 611.65 652.86 608.8 654.08C608.19 654.34 607.56 654.46 606.91 654.46C604.56 654.46 602.12 652.81 600.83 650.11L547.35 537.97C546.98 537.18 547.33 536.24 548.13 535.9L563.76 529.19C563.96 529.11 564.16 529.07 564.36 529.07ZM564.36 526.07C563.74 526.07 563.14 526.19 562.57 526.44L546.94 533.15C545.81 533.63 544.92 534.57 544.49 535.72C544.06 536.87 544.11 538.16 544.64 539.27L598.12 651.41C599.88 655.09 603.32 657.47 606.9 657.47C607.97 657.47 609 657.26 609.97 656.84C614.34 654.97 616.17 649.5 614.16 644.39L568.57 528.94C567.88 527.2 566.23 526.07 564.35 526.07H564.36Z" fill="#84705A"/>
<path d="M574.28 404.797C578.24 403.507 652.36 393.147 635.89 487.287C625.5 546.667 576.72 565.867 534.88 551.747C493.88 537.917 499.75 498.547 500 496.957C500 496.927 500.01 496.897 500.02 496.867C504.06 476.347 539.98 493.737 542.01 454.497C542.77 439.697 541.07 415.597 574.29 404.797H574.28Z" fill="#E0D5CD" stroke="#84705A" stroke-width="3" stroke-linecap="round" stroke-linejoin="round"/>
<path d="M563.2 525.782C551.12 525.782 528.27 523.892 528.27 516.762C528.27 509.632 551.12 507.742 563.2 507.742C575.28 507.742 598.13 509.632 598.13 516.762C598.13 523.892 575.28 525.782 563.2 525.782Z" fill="#EFC141"/>
<path d="M563.2 509.227C581.66 509.227 596.63 512.597 596.63 516.747C596.63 520.897 581.66 524.267 563.2 524.267C544.74 524.267 529.77 520.897 529.77 516.747C529.77 512.597 544.74 509.227 563.2 509.227ZM563.2 506.227C554.06 506.227 545.43 507.037 538.91 508.507C533.7 509.677 526.78 511.807 526.78 516.757C526.78 521.707 533.7 523.827 538.91 525.007C545.43 526.477 554.06 527.287 563.2 527.287C572.34 527.287 580.97 526.477 587.49 525.007C592.7 523.837 599.62 521.707 599.62 516.757C599.62 511.807 592.7 509.687 587.49 508.507C580.97 507.037 572.34 506.227 563.2 506.227Z" fill="#84705A"/>
<path d="M77.7267 476.781H78.9881L81.954 484.025H82.0563L85.0222 476.781H86.2836V485.508H85.2949V478.877H85.2097L82.4824 485.508H81.5279L78.8006 478.877H78.7154V485.508H77.7267V476.781ZM88.4025 485.508V476.781H93.6696V477.718H89.4593V480.667H93.3968V481.604H89.4593V484.57H93.7377V485.508H88.4025ZM102.495 476.781V485.508H101.472L96.7164 478.656H96.6312V485.508H95.5744V476.781H96.5971L101.37 483.65H101.455V476.781H102.495ZM110.337 476.781H111.394V482.559C111.394 483.156 111.253 483.688 110.972 484.157C110.693 484.623 110.3 484.991 109.791 485.261C109.283 485.528 108.686 485.661 108.002 485.661C107.317 485.661 106.72 485.528 106.212 485.261C105.703 484.991 105.308 484.623 105.027 484.157C104.749 483.688 104.61 483.156 104.61 482.559V476.781H105.666V482.474C105.666 482.9 105.76 483.279 105.948 483.612C106.135 483.941 106.402 484.201 106.749 484.391C107.098 484.579 107.516 484.673 108.002 484.673C108.487 484.673 108.905 484.579 109.254 484.391C109.604 484.201 109.871 483.941 110.056 483.612C110.243 483.279 110.337 482.9 110.337 482.474V476.781Z" fill="#84705A"/>
<path d="M98.1899 505.742H62.1899V510.242H98.1899V505.742Z" fill="#84705A"/>
<path d="M146.19 505.742H104.19V510.242H146.19V505.742Z" fill="#84705A"/>
<path d="M154.2 495.742H54.2798V500.242H154.2V495.742Z" fill="#84705A"/>
<path d="M123.2 516.492H75.2798V520.992H123.2V516.492Z" fill="#84705A"/>
<path d="M135.19 516.492H127.28V520.992H135.19V516.492Z" fill="#84705A"/>
<path d="M138.7 527.227H69.7798V531.727H138.7V527.227Z" fill="#84705A"/>
</g>
</g>
<defs>
<clipPath id="clip0_837_3659">
<rect width="619" height="689" rx="50" fill="white"/>
</clipPath>
</defs>
</svg>
