<svg width="234" height="248" viewBox="0 0 234 248" fill="none" xmlns="http://www.w3.org/2000/svg">
<path d="M24.0046 90.8984C8.93747 99.6838 19.9847 116.356 19.9847 116.356L26.3142 92.6954L24.0046 90.9084V90.8984Z" stroke="white" stroke-width="23.24" stroke-linecap="round" stroke-linejoin="round"/>
<path d="M220.879 191.931C219.375 190.224 214.117 189.744 208.24 189.285C211.591 187.907 213.016 186.051 213.822 184.853C215.719 182.027 202.372 174.26 186.548 160.483C176.012 151.299 162.527 133.219 149.141 117.116C138.477 99.4651 125.513 72.1507 118.545 58.4935C109.837 41.422 96.981 10.9228 63.3577 12.4203C26.5106 14.0676 11.7286 38.3072 12.0038 62.2372C12.279 86.1673 27.6802 92.3869 27.6802 92.3869C27.6802 92.3869 13.311 124.583 22.1566 161.721C30.4519 196.533 51.5832 209.581 78.6017 213.175L74.0806 212.736L76.6163 219.345C74.8669 219.185 73.7169 219.075 73.7169 219.075C73.7169 219.075 58.0994 216.44 52.163 217.488C46.2266 218.536 46.7574 223.009 51.2687 223.428C55.7799 223.848 70.5423 224.646 69.3629 225.435C68.1835 226.224 56.1632 227.042 53.2048 229.019C50.2465 230.996 49.244 235.977 56.1927 235.458C63.1415 234.939 77.039 228.38 80.7738 227.601C83.0344 227.132 87.4572 227.102 90.9856 226.823C89.2755 229.109 89.5998 232.413 95.32 231.984C102.269 231.465 116.166 224.906 119.901 224.127C123.636 223.348 133.258 223.798 134.988 222.29C136.727 220.783 135.794 218.307 131.243 217.568C128.432 217.109 122.063 216.47 117.611 216.041L118.191 207.405C124.786 203.851 129.651 199.828 134.821 197.861C146.114 193.568 168.365 203.811 193.153 203.062C217.931 202.313 223.435 194.836 220.85 191.911L220.879 191.931ZM108.52 221.981C107.674 222.54 101.355 223.119 96.7058 224.117C96.6468 222.859 95.2315 221.561 92.1454 221.062C90.2485 220.753 86.7397 220.363 83.2899 220.004L85.2556 213.854C87.3098 214.004 89.2755 214.074 91.1527 214.064C85.4129 215.172 85.9632 219.545 90.4254 219.964C94.9367 220.383 109.699 221.182 108.52 221.971V221.981ZM111.94 215.471C109.453 215.082 102.456 214.044 96.8533 213.824C101.944 213.375 106.298 212.357 110.102 211.029L111.95 215.461L111.94 215.471Z" stroke="white" stroke-width="23.24" stroke-linecap="round" stroke-linejoin="round"/>
<path d="M19.9942 116.356C19.9942 116.356 8.94699 99.6838 24.0141 90.8984L26.3238 92.6854L19.9942 116.346V116.356Z" fill="#FAFFFF" stroke="#543816" stroke-width="4.19" stroke-linecap="round" stroke-linejoin="round"/>
<path d="M92.1552 221.051C90.2583 220.741 86.7495 220.352 83.2997 219.992L85.2752 213.813L74.1002 212.734L76.636 219.343C74.8865 219.184 73.7366 219.074 73.7366 219.074C73.7366 219.074 58.1191 216.438 52.1827 217.486C46.2462 218.535 46.777 223.007 51.2883 223.427C55.7996 223.846 70.562 224.644 69.3825 225.433C68.2031 226.222 56.1829 227.04 53.2245 229.017C50.2661 230.994 49.2636 235.976 56.2123 235.456C63.1611 234.937 77.0586 228.378 80.7934 227.6C84.5283 226.821 94.1504 227.27 95.8802 225.763C97.61 224.255 96.6862 221.779 92.1356 221.041L92.1552 221.051Z" fill="#D69E21" stroke="#543816" stroke-width="3.54" stroke-linecap="round" stroke-linejoin="round"/>
<path d="M131.283 217.577C128.472 217.117 122.103 216.478 117.651 216.049L118.535 202.781L107.626 205.067L111.94 215.46C108.5 214.921 96.3818 213.134 91.3201 214.022C85.3837 215.071 85.9144 219.543 90.4257 219.963C94.937 220.382 109.699 221.181 108.52 221.969C107.341 222.758 95.3203 223.577 92.362 225.553C89.4036 227.53 88.4011 232.512 95.3498 231.993C102.299 231.473 116.196 224.914 119.931 224.136C123.666 223.357 133.288 223.806 135.018 222.299C136.757 220.791 135.824 218.315 131.273 217.577H131.283Z" fill="#D69E21" stroke="#543816" stroke-width="3.54" stroke-linecap="round" stroke-linejoin="round"/>
<path d="M27.69 92.3866C27.69 92.3866 12.2888 86.1669 12.0136 62.2369C11.7384 38.3068 24.7022 14.1671 61.4706 11.1921C100.952 7.9974 112.392 45.4749 121.1 62.5464C129.808 79.6179 145.347 114 156.591 128.177C167.835 142.353 187.02 186.01 195.846 187.847C204.672 189.684 218.304 188.995 220.879 191.92C223.454 194.846 217.96 202.313 193.182 203.072C168.405 203.821 146.143 193.578 134.85 197.871C123.557 202.163 113.748 216.31 84.1155 213.764C54.4825 211.218 31.0219 198.859 22.1664 161.721C13.3208 124.583 27.69 92.3866 27.69 92.3866Z" fill="#89CCCC"/>
<path d="M67.643 90.441C67.643 90.441 98.0327 112.884 125.808 72.6707C125.808 72.6707 102.121 13.5893 69.3925 13.4695C38.7177 13.3597 20.7905 25.4295 15.2571 44.2182C9.7138 63.0068 13.1538 81.3462 24.0143 90.8903C34.865 100.434 66.2572 90.7805 67.6528 90.441H67.643Z" fill="#FAFFFF"/>
<path d="M21.2129 123.95C21.2129 123.95 31.1102 124.04 34.9335 113.208C34.9335 113.208 38.7666 125.068 58.6006 124.579C85.3046 123.92 89.2654 100.759 86.0024 94.6789C82.7295 88.599 67.8491 89.4376 67.8491 89.4376C67.8491 89.4376 44.4376 99.0915 27.11 92.7821C27.11 92.7821 22.353 109.235 21.2227 123.94L21.2129 123.95Z" fill="#FAFFFF"/>
<path d="M61.7854 92.1172C40.4772 97.9574 27.7002 92.3867 27.7002 92.3867" stroke="#543816" stroke-width="4.19" stroke-linecap="round" stroke-linejoin="round"/>
<path d="M74.5329 53.3724C81.5307 51.765 90.632 58.2043 90.5435 66.4905C90.4747 72.8698 84.9805 78.1011 79.0638 79.1893C74.926 79.948 69.5105 78.8898 66.7094 75.0462C61.8443 68.3773 66.1983 55.2892 74.5329 53.3724Z" fill="#FFB9AE"/>
<path d="M59.613 50.8717C58.8759 54.0664 59.4263 60.0065 60.4877 63.7203C61.0283 65.5971 65.2545 68.9715 68.2621 64.7186C71.2696 60.4657 69.0779 50.0431 66.2669 47.7968C64.0358 46.0198 60.4582 47.2078 59.613 50.8717Z" fill="#543816" stroke="#543816" stroke-width="3.54" stroke-miterlimit="10"/>
<path d="M60.9496 99.1274C59.3869 98.5384 57.3524 98.1191 55.7307 98.7281C53.6765 99.4968 53.6078 101.553 54.6103 103.241C56.2713 106.046 59.2592 107.633 62.4043 107.753C63.7606 108.122 65.1464 108.013 66.4339 107.004C70.1983 104.059 63.2298 99.986 60.9595 99.1274H60.9496Z" fill="#536E7F"/>
<path d="M58.581 108.815C57.0183 108.226 54.9838 107.807 53.3621 108.416C51.3079 109.184 51.2391 111.241 52.2416 112.928C53.9026 115.733 56.8905 117.321 60.0356 117.441C61.3919 117.81 62.7778 117.7 64.0653 116.692C67.8296 113.747 60.8612 109.673 58.5908 108.815H58.581Z" fill="#536E7F"/>
<path d="M27.464 98.5679C28.1421 98.3084 28.6925 98.3882 29.3707 98.4681C31.0514 98.6678 31.4838 100.205 31.0317 101.663C30.2848 104.089 28.3191 105.836 25.9701 106.515C25.5671 106.744 25.1347 106.904 24.6924 106.974C25.2133 105.097 26.0094 102.412 26.7465 100.605L27.464 98.5779V98.5679Z" fill="#536E7F"/>
<path d="M30.4715 107.867C29.1348 107.707 27.6802 108.406 26.6089 109.145C25.8619 109.654 24.4466 110.922 23.5326 112.269C23.3556 113.358 23.2082 114.456 23.1001 115.554C23.2967 115.764 23.5523 115.953 23.8963 116.113C25.0462 116.632 26.1175 116.462 27.0709 115.923C29.4199 115.244 31.3855 113.497 32.1325 111.071C32.5846 109.614 32.1521 108.066 30.4715 107.877V107.867Z" fill="#536E7F"/>
<path d="M113.061 156.578C113.061 156.578 140.059 189.304 158.724 193.507C177.398 197.709 194.981 191.59 194.981 191.59C194.981 191.59 121.552 165.194 113.061 156.578Z" fill="#FAFFFF" stroke="#543816" stroke-width="4.19" stroke-linecap="round" stroke-linejoin="round"/>
<path d="M93.2362 91.2149C84.7149 97.6142 83.5551 115.874 93.531 134.253C109.64 163.904 158.232 185.238 180.71 189.381C206.628 194.163 211.915 187.684 213.812 184.859C215.709 182.033 202.362 174.266 186.538 160.489C169.358 145.514 144.335 106.849 124.697 91.754C114.397 83.8372 102.898 83.947 93.2264 91.2149H93.2362Z" fill="#FAFFFF" stroke="#543816" stroke-width="4.19" stroke-linecap="round" stroke-linejoin="round"/>
<path d="M131.204 110.247C128.609 109.907 128.01 113.98 130.595 114.32C134.516 114.839 136.806 119.421 134.84 122.935C132.58 126.959 127.469 127.468 124.078 124.673C122.683 123.524 120.638 124.792 120.815 126.539C121.199 130.483 121.1 135.055 118.073 137.99C115.645 140.346 111.213 140.366 110.112 136.653C109.355 134.117 105.601 135.684 106.358 138.21C108.028 143.841 114.938 145.128 119.38 142.173C123.518 139.418 124.884 134.626 125.002 129.874C130.015 131.681 135.853 129.754 138.556 124.613C141.642 118.732 137.671 111.105 131.204 110.257V110.247Z" fill="#89CCCC"/>
<path d="M149.859 128.042C147.952 126.225 145.455 129.48 147.352 131.287C149.436 133.283 149.8 136.947 148.07 139.283C146.35 141.599 142.723 142.268 140.295 140.751C138.114 139.393 135.745 142.238 137.789 143.995C140.492 146.322 138.625 150.235 136.197 151.852C133.936 153.36 129.238 154.767 127.155 152.272C125.474 150.255 122.221 152.731 123.921 154.757C127.666 159.24 134.841 158.012 139.057 154.847C141.947 152.671 143.519 148.977 142.998 145.603C146.114 145.743 149.249 144.505 151.264 141.829C154.439 137.616 153.564 131.566 149.868 128.042H149.859Z" fill="#89CCCC"/>
<path d="M165.741 149.215C164.876 146.709 161.122 148.276 161.987 150.772C162.537 152.36 162.812 155.175 161.505 156.513C160.286 157.77 156.827 156.712 155.352 156.293C153.455 155.744 152.62 158.25 153.436 159.577C155.726 163.341 151.293 167.764 147.617 165.358C145.435 163.93 142.909 167.155 145.111 168.602C148.472 170.799 152.993 170.639 155.854 167.614C157.564 165.807 158.232 163.401 157.996 161.055C160.502 161.354 163.156 161.075 164.689 159.078C166.803 156.333 166.812 152.369 165.731 149.225L165.741 149.215Z" fill="#89CCCC"/>
<path d="M173.997 168.921C173.909 170.09 173.909 171.657 173.083 172.565C172.228 173.504 170.714 173.404 169.574 173.264C166.979 172.945 166.37 177.018 168.965 177.337C171.255 177.627 173.761 177.427 175.579 175.82C177.388 174.213 177.83 171.837 178.007 169.52C178.213 166.885 174.203 166.256 173.997 168.901V168.921Z" fill="#89CCCC"/>
<path d="M16.5541 79.7947C16.5541 79.7947 22.6183 79.0959 21.7435 68.5036C21.3897 64.2107 17.5664 60.7266 13.3598 60.7266C13.3598 60.7266 10.5489 71.7382 16.5541 79.8047V79.7947Z" fill="#FFB9AE"/>
<path d="M27.6895 92.3876C27.6895 92.3876 12.2882 86.168 12.013 62.2379C11.7378 38.3079 26.5199 14.0683 63.367 12.421C96.9903 10.9136 109.836 41.4127 118.554 58.4942C127.262 75.5657 145.356 114.011 156.6 128.188C167.844 142.364 187.029 186.021 195.855 187.858C204.681 189.695 218.313 189.006 220.888 191.931C223.463 194.857 217.969 202.324 193.192 203.083C168.414 203.832 146.152 193.589 134.859 197.882C123.567 202.174 113.758 216.321 84.1248 213.775C54.4918 211.229 31.0312 198.87 22.1757 161.732C13.3301 124.594 27.6994 92.3976 27.6994 92.3976L27.6895 92.3876Z" stroke="#543816" stroke-width="4.19" stroke-linecap="round" stroke-linejoin="round"/>
<path d="M24.0736 49.6842C26.6192 49.8838 27.0615 54.1467 27.4448 59.3181C27.9559 66.3763 25.3611 68.6425 24.1326 69.1117C21.646 70.0701 19.3952 66.7756 18.8743 59.7074C18.4025 53.2882 20.8498 49.4246 24.0638 49.6842H24.0736Z" fill="#543816" stroke="#543816" stroke-width="3.54" stroke-miterlimit="10"/>
<path d="M51.0621 60.8818C48.9391 57.8968 46.1872 55.7105 41.1157 57.767C39.5824 58.386 38.5995 59.3544 37.9705 60.3926C36.624 58.1664 33.8917 56.8985 31.6115 56.9384C28.0732 57.0083 26.3926 60.8219 26.0682 64.1064C25.7439 67.391 29.2232 68.6389 29.2232 68.6389C29.2232 68.6389 35.8476 69.6871 38.0492 66.2628L47.1012 70.9151C52.1138 69.767 53.1851 63.8668 51.0621 60.8818Z" fill="#89CCCC" stroke="#543816" stroke-width="4.19" stroke-linecap="round" stroke-linejoin="round"/>
<path d="M28.8202 68.5013C28.8202 68.5013 35.651 65.2168 42.4032 69.1602C49.1652 73.1036 32.0734 82.3082 30.0881 87.0803C30.0881 87.0803 26.196 76.3182 28.8202 68.5013Z" fill="#FAD67D" stroke="#543816" stroke-width="4.19" stroke-linecap="round" stroke-linejoin="round"/>
</svg>
