<svg width="55" height="51" viewBox="0 0 55 51" fill="none" xmlns="http://www.w3.org/2000/svg">
<g clip-path="url(#clip0_2296_12318)">
<path d="M50.96 39.1869C49.57 38.6069 47.39 38.4069 45.53 38.3469C45.78 37.4769 45.93 36.6169 46.02 35.8169L50.71 34.5369C49.48 34.4669 47.7 34.8969 46.06 35.4169C46.24 33.2569 45.96 31.5469 45.88 31.1169C45.33 28.0569 43.79 25.2069 41.62 22.8569C44.04 19.9169 50.68 10.9469 46.64 5.29692C43.43 0.80692 38.84 4.31692 37.86 9.19692C37.33 11.8269 36.64 16.1469 36.24 18.7369C33.75 17.4269 30.96 16.6169 28.07 16.5169C24.97 16.4069 21.95 17.1269 19.25 18.4169C18.84 15.7969 18.19 11.7169 17.68 9.19692C16.7 4.31692 12.11 0.80692 8.89996 5.29692C5.03996 10.6969 10.95 19.1469 13.58 22.4369C11.31 24.7469 9.66996 27.5669 9.00996 30.6269C8.91996 31.0469 8.50996 33.0969 8.72996 35.6269C6.93996 35.0369 4.83996 34.4769 3.45996 34.5469L8.76996 35.9969C8.84996 36.7569 8.99996 37.5469 9.21996 38.3469C7.25996 38.3769 4.73996 38.5569 3.20996 39.2069L9.31996 38.6469C9.76996 40.1169 10.49 41.6069 11.65 42.9469C15.36 47.2269 21.06 47.2269 27.36 47.2269C33.59 47.2269 39.32 47.2269 43.07 42.9469C44.23 41.6169 44.96 40.1469 45.42 38.6969L50.96 39.2069V39.1869Z" fill="white" stroke="white" stroke-width="6.44" stroke-linecap="round" stroke-linejoin="round"/>
<path d="M45.88 31.1114C46.04 32.0114 47.09 38.3414 43.07 42.9314C39.32 47.2214 33.59 47.2214 27.36 47.2114C21.06 47.2114 15.36 47.2114 11.65 42.9314C7.50003 38.1314 8.85003 31.4214 9.02003 30.6114C10.75 22.6414 19.11 16.1914 28.07 16.5114C36.66 16.8114 44.46 23.2714 45.87 31.1114H45.88Z" fill="#F9ECCD"/>
<mask id="mask0_2296_12318" style="mask-type:luminance" maskUnits="userSpaceOnUse" x="8" y="16" width="39" height="32">
<path d="M45.88 31.1114C46.04 32.0114 47.09 38.3414 43.07 42.9314C39.32 47.2214 33.59 47.2214 27.36 47.2114C21.06 47.2114 15.36 47.2114 11.65 42.9314C7.50003 38.1314 8.85003 31.4214 9.02003 30.6114C10.75 22.6414 19.11 16.1914 28.07 16.5114C36.66 16.8114 44.46 23.2714 45.87 31.1114H45.88Z" fill="white"/>
</mask>
<g mask="url(#mask0_2296_12318)">
<path d="M14.47 33.8125C16.79 33.9025 19.1 36.6425 18.39 39.1925C17.84 41.1525 15.69 42.3025 13.76 42.1425C12.4 42.0325 10.8 41.2525 10.24 39.8325C9.27002 37.3725 11.71 33.7125 14.47 33.8225V33.8125Z" fill="#F4BE92"/>
<path d="M40.94 33.9421C43.26 34.0321 45.57 36.7721 44.86 39.3121C44.31 41.2721 42.17 42.4121 40.23 42.2521C38.88 42.1421 37.27 41.3621 36.71 39.9421C35.74 37.4821 38.18 33.8221 40.94 33.9321V33.9421Z" fill="#F4BE92"/>
</g>
<path d="M45.88 31.1114C46.04 32.0114 47.09 38.3414 43.07 42.9314C39.32 47.2214 33.59 47.2214 27.36 47.2114C21.06 47.2114 15.36 47.2114 11.65 42.9314C7.50003 38.1314 8.85003 31.4214 9.02003 30.6114C10.75 22.6414 19.11 16.1914 28.07 16.5114C36.66 16.8114 44.46 23.2714 45.87 31.1114H45.88Z" stroke="#543816" stroke-width="1.6" stroke-linecap="round" stroke-linejoin="round"/>
<path d="M35.88 32.3208C35.54 33.4608 35.61 35.6308 35.92 37.0008C36.08 37.6908 37.56 39.0108 38.76 37.5408C39.96 36.0708 39.39 32.2308 38.4 31.3508C37.62 30.6508 36.27 31.0108 35.88 32.3208Z" fill="#543816" stroke="#543816" stroke-width="1.67" stroke-miterlimit="10"/>
<path d="M18.48 32.3208C18.82 33.4608 18.75 35.6308 18.44 37.0008C18.28 37.6908 16.8 39.0108 15.6 37.5408C14.4 36.0608 14.97 32.2308 15.96 31.3508C16.74 30.6508 18.09 31.0108 18.48 32.3208Z" fill="#543816" stroke="#543816" stroke-width="1.67" stroke-miterlimit="10"/>
<path d="M19.58 40.8669C20.2 42.2769 22.03 42.6669 23.42 42.5669C24.26 42.5069 25.03 42.2369 25.84 42.0069C26.76 41.7469 27.56 41.8469 28.47 42.1069C29.88 42.5069 31.15 42.787 32.59 42.327C33.55 42.017 34.92 41.497 35.18 40.397C35.4 39.457 33.95 39.0569 33.73 39.9969C33.6 40.5669 32.23 40.8869 31.75 41.0069C30.51 41.3269 29.35 40.7269 28.16 40.4669C26.79 40.1769 25.69 40.5169 24.38 40.8769C23.32 41.1669 21.42 41.3269 20.88 40.0969C20.49 39.2169 19.2 39.9769 19.58 40.8569V40.8669Z" fill="#543816"/>
<path d="M12.23 36.9198C12.23 36.9198 6.33998 34.3798 3.47998 34.5298" stroke="#543816" stroke-width="1.34" stroke-linecap="round" stroke-linejoin="round"/>
<path d="M12.11 38.3804C12.11 38.3804 6.02997 38.0204 3.21997 39.1904" stroke="#543816" stroke-width="1.34" stroke-linecap="round" stroke-linejoin="round"/>
<path d="M41.95 36.9198C41.95 36.9198 47.84 34.3798 50.7 34.5298" stroke="#543816" stroke-width="1.34" stroke-linecap="round" stroke-linejoin="round"/>
<path d="M42.08 38.3804C42.08 38.3804 48.16 38.0204 50.97 39.1904" stroke="#543816" stroke-width="1.34" stroke-linecap="round" stroke-linejoin="round"/>
<path d="M14.76 23.8091C14.76 23.8091 4.02999 12.1091 8.90999 5.28911C12.12 0.799108 16.71 4.30911 17.69 9.18911C18.48 13.1291 19.64 20.8891 19.64 20.8891" fill="#F9ECCD"/>
<mask id="mask1_2296_12318" style="mask-type:luminance" maskUnits="userSpaceOnUse" x="7" y="3" width="13" height="21">
<path d="M14.76 23.8091C14.76 23.8091 4.02999 12.1091 8.90999 5.28911C12.12 0.799108 16.71 4.30911 17.69 9.18911C18.48 13.1291 19.64 20.8891 19.64 20.8891" fill="white"/>
</mask>
<g mask="url(#mask1_2296_12318)">
<path d="M16.9299 22.4692L14.4499 23.4292C14.4499 23.4292 9.48995 16.8792 8.93995 14.1392C8.38995 11.3992 6.44995 7.48923 10.3499 9.43923C14.2499 11.3892 16.9299 22.4692 16.9299 22.4692Z" fill="#F4BE92"/>
</g>
<path d="M14.76 23.8091C14.76 23.8091 4.02999 12.1091 8.90999 5.28911C12.12 0.799108 16.71 4.30911 17.69 9.18911C18.48 13.1291 19.64 20.8891 19.64 20.8891" stroke="#543816" stroke-width="1.6" stroke-linecap="round" stroke-linejoin="round"/>
<path d="M16.7101 22.8389C16.7101 22.8389 13.7801 14.0589 12.8101 12.1089C11.8401 10.1589 9.88005 8.20894 7.93005 9.17894" stroke="#543816" stroke-width="1.6" stroke-linecap="round" stroke-linejoin="round"/>
<path d="M40.79 23.8113C40.79 23.8113 51.52 12.1113 46.64 5.2813C43.43 0.791295 38.84 4.30129 37.86 9.18129C37.07 13.1213 35.91 20.8813 35.91 20.8813" fill="#F9ECCD"/>
<mask id="mask2_2296_12318" style="mask-type:luminance" maskUnits="userSpaceOnUse" x="35" y="3" width="13" height="21">
<path d="M40.79 23.8113C40.79 23.8113 51.52 12.1113 46.64 5.2813C43.43 0.791295 38.84 4.30129 37.86 9.18129C37.07 13.1213 35.91 20.8813 35.91 20.8813" fill="white"/>
</mask>
<g mask="url(#mask2_2296_12318)">
<path d="M38.63 22.4692L41.11 23.4292C41.11 23.4292 46.07 16.8792 46.62 14.1392C47.17 11.3992 49.11 7.48923 45.21 9.43923C41.31 11.3892 38.63 22.4692 38.63 22.4692Z" fill="#F4BE92"/>
</g>
<path d="M40.79 23.8113C40.79 23.8113 51.52 12.1113 46.64 5.2813C43.43 0.791295 38.84 4.30129 37.86 9.18129C37.07 13.1213 35.91 20.8813 35.91 20.8813" stroke="#543816" stroke-width="1.6" stroke-linecap="round" stroke-linejoin="round"/>
<path d="M38.84 22.8389C38.84 22.8389 41.77 14.0589 42.74 12.1089C43.71 10.1589 45.67 8.20894 47.62 9.17894" stroke="#543816" stroke-width="1.6" stroke-linecap="round" stroke-linejoin="round"/>
</g>
<defs>
<clipPath id="clip0_2296_12318">
<rect width="54.18" height="50.44" fill="white"/>
</clipPath>
</defs>
</svg>
