<svg width="118" height="167" viewBox="0 0 118 167" fill="none" xmlns="http://www.w3.org/2000/svg">
<g clip-path="url(#clip0_837_5566)">
<path d="M108.81 125.033C105.08 121.783 101.73 117.382 98.82 112.702C103.92 100.673 95.12 80.7425 77.94 70.7625C73.14 64.7525 68.38 60.2825 67.62 57.6025C65.74 50.9325 75.1 47.5325 70.98 30.5025C66.87 13.4725 48.37 5.9125 36.07 7.4025C23.76 8.8825 12.84 18.1925 9.28 30.7125C7.32 37.5925 9.12 43.5825 11.8 48.0925C10.93 49.3925 10.94 51.0825 12.59 53.9225C14.45 57.1425 17.88 59.0725 21.91 60.0725C22.03 61.0925 21.74 62.1325 21.17 63.2225C19.07 62.2225 14.85 61.2925 10.23 66.4725C4.71 72.6625 8.23 79.4825 9.49 81.5025C5.02 95.2025 6.1 118.443 25.21 130.273C25.31 132.373 25.43 134.853 25.54 137.003C19.15 139.482 10.98 143.043 9.3 145.583C9.3 145.583 19.28 144.122 19.32 155.533C19.32 155.533 32.86 150.493 40.72 154.743C40.72 154.743 41.18 152.883 41.3 149.893C42.71 149.613 50.97 148.443 52.08 158.812C52.08 158.812 65.03 152.413 73.28 155.833C73.28 155.833 74.5 147.092 69.9 137.542C69.9 137.542 69.76 137.173 69.35 136.773C89.58 135.283 115.32 130.673 108.81 125.013V125.033ZM41.31 149.603C41.42 146.183 41.09 141.393 39.23 136.223C39.23 136.223 39.19 136.083 39.08 135.872C41.33 136.402 43.72 136.833 46.27 137.133C49.07 137.463 51.82 137.522 54.5 137.262C54.97 137.272 55.47 137.283 55.98 137.292C56.11 138.132 56.24 138.973 56.36 139.762C50.52 142.753 43.17 146.893 41.31 149.603Z" fill="#FAFFFF" stroke="#FAFFFF" stroke-width="14.43" stroke-linecap="round" stroke-linejoin="round"/>
<path d="M22.56 64.0939C22.56 64.0939 16.79 59.1239 10.22 66.4839C3.65 73.8439 9.88 82.1139 9.88 82.1139C9.88 82.1139 13.86 72.2038 22.56 64.0939Z" fill="#FAFFFF" stroke="#543816" stroke-width="2.85" stroke-linecap="round" stroke-linejoin="round"/>
<path d="M39.23 136.217C39.23 136.217 38.62 133.838 34.7 133.988C34.66 131.458 34.56 129.427 34.56 129.427L25.01 125.688C25.01 125.688 25.29 132.198 25.55 137.018C19.16 139.498 10.99 143.058 9.31 145.598C9.31 145.598 19.29 144.138 19.33 155.548C19.33 155.548 32.87 150.507 40.73 154.757C40.73 154.757 42.84 146.188 39.24 136.217H39.23Z" fill="#F2C32A" stroke="#543816" stroke-width="3.06" stroke-linecap="round" stroke-linejoin="round"/>
<path d="M25.34 133.32L26.25 142.98" stroke="#543816" stroke-width="3.06" stroke-linecap="round" stroke-linejoin="round"/>
<path d="M34.12 132.633L34.16 142.733" stroke="#543816" stroke-width="3.06" stroke-linecap="round" stroke-linejoin="round"/>
<path d="M69.9 137.559C69.9 137.559 69.05 135.249 65.16 135.809C64.86 133.289 64.55 131.279 64.55 131.279L54.66 128.539C54.66 128.539 55.61 134.989 56.36 139.749C50.26 142.879 42.49 147.259 41.08 149.949C41.08 149.949 50.86 147.469 52.07 158.819C52.07 158.819 65.02 152.419 73.27 155.839C73.27 155.839 74.49 147.099 69.89 137.549L69.9 137.559Z" fill="#F2C32A" stroke="#543816" stroke-width="3.06" stroke-linecap="round" stroke-linejoin="round"/>
<path d="M55.79 136.102L57.68 145.622" stroke="#543816" stroke-width="3.06" stroke-linecap="round" stroke-linejoin="round"/>
<path d="M64.45 134.523L65.52 144.563" stroke="#543816" stroke-width="3.06" stroke-linecap="round" stroke-linejoin="round"/>
<path d="M108.81 125.03C98.42 115.99 90.98 98.0603 87.99 89.9003C84.55 73.9603 69.05 62.6403 67.63 57.6103C65.75 50.9403 75.11 47.5403 70.99 30.5103C66.88 13.4803 48.38 5.92032 36.08 7.41032C23.77 8.89032 12.85 18.2003 9.28998 30.7203C5.59998 43.6903 15.23 53.4903 19.04 56.1603C27.03 61.7603 16.57 66.9003 11.43 76.8203C3.40998 92.2803 3.31998 132.05 46.28 137.14C49.08 137.47 51.83 137.53 54.51 137.27C72.68 137.8 117.15 132.29 108.82 125.04L108.81 125.03Z" fill="#FAFFFF" stroke="#543816" stroke-width="2.85" stroke-linecap="round" stroke-linejoin="round"/>
<path d="M21.87 39.5938C21.87 39.5938 25.93 42.8237 39.8 40.6937C39.8 40.6937 39.64 44.9437 44.41 47.9137C49.18 50.8837 50.48 57.9438 41.09 59.9938C31.7 62.0438 16.84 61.6037 12.45 53.1937C8.05999 44.7837 16.81 46.5138 21.87 39.5938Z" fill="#F2C32A" stroke="#543816" stroke-width="2.64" stroke-linecap="round" stroke-linejoin="round"/>
<path d="M64.9 65.6794C64.9 65.6794 48.64 59.8994 50.79 84.8994C52.93 109.899 80.5 130.429 94.8 118.219C109.1 106.009 94.02 71.9894 64.9 65.6794Z" fill="#FAFFFF" stroke="#543816" stroke-width="2.85" stroke-linecap="round" stroke-linejoin="round"/>
<path d="M57.93 33.4063C62.32 33.4163 66.89 38.4463 65.72 43.2963C64.82 47.0363 60.84 49.3563 57.16 49.1863C54.59 49.0663 51.5 47.7063 50.34 45.0663C48.33 40.4863 52.69 33.3863 57.92 33.4063H57.93Z" fill="#FFCAB0"/>
<path d="M44.9 28.3772C44.3 30.7072 44.6 35.0672 45.33 37.8072C45.7 39.1972 48.78 41.7372 51.09 38.6772C53.4 35.6172 51.96 27.9372 49.9 26.2472C48.27 24.9072 45.59 25.7072 44.9 28.3772Z" fill="#543816" stroke="#543816" stroke-width="2.59" stroke-miterlimit="10"/>
<path d="M21.51 76.2735C19.31 79.9835 18.89 84.5535 20.44 88.5835C20.94 89.8935 23.07 89.3135 22.56 87.9935C21.2 84.4835 21.49 80.6235 23.41 77.3735C24.13 76.1535 22.23 75.0535 21.51 76.2735Z" fill="#E2DDD5"/>
<path d="M26.82 90.0719C25.72 88.4719 25.26 86.6019 25.64 84.6819C25.91 83.3019 23.79 82.7219 23.52 84.1019C23.03 86.5819 23.48 89.0919 24.93 91.1819C25.73 92.3419 27.63 91.2319 26.82 90.0719Z" fill="#E2DDD5"/>
<path d="M33.12 89.3211C31.91 88.2911 30.95 87.0911 30.21 85.6811C29.55 84.4311 27.66 85.5411 28.32 86.7911C29.14 88.3511 30.24 89.7311 31.58 90.8711C32.65 91.7811 34.2 90.2311 33.13 89.3111L33.12 89.3211Z" fill="#E2DDD5"/>
<path d="M81.62 102.758C76.07 103.278 74.58 95.9975 74.79 91.3875C76.29 92.6675 78.07 93.6575 79.97 94.3275C81.3 94.7975 81.87 92.6775 80.55 92.2075C76.73 90.8475 73.58 87.9975 72.66 83.9475C72.35 82.5675 70.23 83.1575 70.54 84.5375C70.95 86.3375 71.74 87.9475 72.8 89.3275C72.8 89.3475 72.79 89.3775 72.79 89.3975C72.45 91.8075 72.49 94.2675 73.02 96.6375C70.19 96.6675 67.71 94.8675 66.32 92.4575C64.67 89.5775 64.53 86.1275 64.7 82.8975C64.78 81.4875 62.58 81.4975 62.5 82.8975C62.3 86.7075 62.6 90.8475 64.77 94.1175C66.65 96.9675 69.83 99.0275 73.32 98.8175C73.44 98.8175 73.54 98.7875 73.64 98.7575C73.78 99.1275 73.93 99.4975 74.09 99.8675C75.42 102.808 78.21 105.267 81.62 104.947C83.02 104.817 83.02 102.618 81.62 102.748V102.758Z" fill="#E2DDD5"/>
<path d="M10.31 32.9766C10.31 32.9766 10.25 33.1166 10.16 33.3766C10.16 33.3866 10.16 33.3966 10.16 33.4066C9.93003 34.5666 9.84003 35.7466 9.84003 36.9266C9.89003 38.8166 10.35 40.7166 10.73 42.5666C11.09 43.6566 11.55 44.7266 12.05 45.7666C13.32 45.1666 15.06 43.5266 15.31 39.0066C15.47 36.0866 13.19 33.3766 10.32 32.9766H10.31Z" fill="#FFCAB0"/>
<path d="M17.22 25.2899C19.09 25.5799 19.19 28.7099 19.2 32.5099C19.21 37.6999 17.17 39.2099 16.25 39.4899C14.37 40.0599 12.88 37.5299 12.86 32.3399C12.86 27.6199 14.85 24.9299 17.22 25.2899Z" fill="#543816" stroke="#543816" stroke-width="2.58" stroke-miterlimit="10"/>
<path d="M26.52 46.45C26.9894 46.45 27.37 46.0694 27.37 45.6C27.37 45.1306 26.9894 44.75 26.52 44.75C26.0505 44.75 25.67 45.1306 25.67 45.6C25.67 46.0694 26.0505 46.45 26.52 46.45Z" fill="#DD8936" stroke="#DD8936" stroke-width="1.13" stroke-miterlimit="10"/>
<path d="M31.89 46.6609C32.3594 46.6609 32.74 46.2804 32.74 45.8109C32.74 45.3415 32.3594 44.9609 31.89 44.9609C31.4205 44.9609 31.04 45.3415 31.04 45.8109C31.04 46.2804 31.4205 46.6609 31.89 46.6609Z" fill="#DD8936" stroke="#DD8936" stroke-width="1.13" stroke-miterlimit="10"/>
</g>
<defs>
<clipPath id="clip0_837_5566">
<rect width="117.05" height="166.04" fill="white"/>
</clipPath>
</defs>
</svg>
