<svg width="115" height="97" viewBox="0 0 115 97" fill="none" xmlns="http://www.w3.org/2000/svg">
<g clip-path="url(#clip0_2148_7573)">
<path d="M24.29 98.6622H110.27C110.27 98.6622 121.94 81.3922 92.86 48.4922H45.2C45.2 48.4922 17.31 70.9722 24.29 98.6622Z" fill="#9B7D4E" stroke="#543816" stroke-width="3.94" stroke-linecap="round" stroke-linejoin="round"/>
<path d="M35.46 64.8816C38.62 68.1016 45.99 75.5917 47.19 79.1217C48.4 82.6516 42.16 85.5916 37.45 84.8416C32.74 84.0916 15.12 79.2416 6.24 69.0116C-2.64 58.7816 4.93 35.2616 8.84 38.0016C12.74 40.7316 29.77 59.0716 35.47 64.8716L35.46 64.8816Z" fill="#DBBB82" stroke="#543816" stroke-width="3.49" stroke-linecap="round" stroke-linejoin="round"/>
<path d="M21.23 74.7734C23.29 73.2534 25.6 72.2134 28.09 71.8434C28.66 72.8734 29.42 73.8034 30.36 74.5634C29.99 75.1834 29.69 75.8634 29.47 76.5934C28.86 78.6134 31.91 79.5034 32.52 77.4834C33.04 75.7634 34.28 74.3734 35.96 73.7834C37.9 73.1134 37.17 69.9434 35.22 70.6234C34.21 70.9734 33.3 71.4734 32.49 72.1134C32.45 72.0834 32.41 72.0434 32.37 72.0134C30.35 70.5334 29.69 67.8434 30.5 65.4534C31.18 63.4634 28.13 62.5734 27.45 64.5634C26.98 65.9534 26.86 67.3734 27.05 68.7434C25.74 68.9934 24.47 69.3734 23.25 69.8834C23.18 69.6934 23.08 69.5134 22.93 69.3434C22.23 68.5334 21.44 67.8434 20.58 67.2734C20.61 67.0634 20.61 66.8434 20.55 66.6034C19.92 63.9934 21.01 61.5034 22.02 59.1334C22.84 57.2034 19.79 56.3234 18.97 58.2434C18.79 58.6634 18.62 59.0734 18.46 59.4934C17.8 58.8134 16.96 58.3034 16.05 57.8834C15.57 57.6634 15.08 57.4534 14.59 57.2634C14.66 57.0134 14.65 56.7134 14.55 56.3934C13.89 54.3534 13.79 52.3034 14.34 50.2034C14.88 48.1734 11.83 47.2634 11.29 49.3134C10.7 51.5634 10.63 53.8634 11.15 56.0934C10.54 55.9234 9.93 55.7534 9.31 55.6134C7.33 55.1434 6.39 58.2834 8.39 58.7534C9.97 59.1334 11.53 59.5834 13.06 60.1634C14.31 60.6334 16.32 61.1334 16.63 62.6634C16.73 63.1534 16.99 63.4834 17.31 63.6634C17.22 64.3534 17.18 65.0434 17.22 65.7434C16.11 65.4434 14.94 65.3034 13.75 65.3534C11.71 65.4334 11.62 68.7034 13.67 68.6234C16.33 68.5134 18.65 69.4734 20.43 71.4334C20.19 71.5934 19.95 71.7534 19.72 71.9234C18.06 73.1434 19.55 76.0134 21.22 74.7734H21.23Z" fill="#C9A265"/>
<path d="M94.43 61.9688L68.72 62.8088L43.01 61.9688C43.01 61.9688 34.61 82.7988 34.61 98.0788H102.84C102.84 82.7988 94.44 61.9688 94.44 61.9688H94.43Z" fill="#EADECA" stroke="#543816" stroke-width="3.49" stroke-linecap="round" stroke-linejoin="round"/>
<path d="M108.56 34.7711C109.79 48.0111 100.5 57.6811 99.46 58.7211C88.67 69.6111 73.44 69.3711 67.38 69.2811C61.74 69.1911 43.89 68.9211 33.52 55.9011C32.59 54.7311 25.59 45.6611 27.15 33.6811C29.31 17.2511 46.62 2.52108 66.54 2.05108C87.76 1.54108 106.93 17.3411 108.56 34.7711Z" fill="#DBBB82" stroke="#543816" stroke-width="3.49" stroke-linecap="round" stroke-linejoin="round"/>
<path d="M41.85 32.1294C46.51 32.3094 51.16 37.8294 49.74 42.9394C48.64 46.8794 44.32 49.1794 40.42 48.8594C37.7 48.6394 34.47 47.0694 33.34 44.2194C31.39 39.2794 36.29 31.9194 41.85 32.1294Z" fill="#E28D76"/>
<path d="M95.42 31.1216C100.08 31.3016 104.73 36.8216 103.31 41.9316C102.21 45.8716 97.89 48.1716 93.99 47.8516C91.27 47.6316 88.04 46.0616 86.91 43.2116C84.96 38.2716 89.86 30.9116 95.42 31.1216Z" fill="#E28D76"/>
<path d="M81.76 26.9685C81.03 29.4185 81.18 34.0585 81.84 36.9985C82.18 38.4885 85.35 41.3085 87.93 38.1485C90.5 34.9885 89.27 26.7885 87.16 24.8985C85.49 23.4085 82.6 24.1585 81.76 26.9685Z" fill="#543816" stroke="#543816" stroke-width="2.75" stroke-miterlimit="10"/>
<path d="M51.65 26.9685C52.38 29.4185 52.23 34.0585 51.57 36.9985C51.23 38.4885 48.06 41.3085 45.48 38.1485C42.91 34.9885 44.14 26.7885 46.25 24.8985C47.92 23.4085 50.81 24.1585 51.65 26.9685Z" fill="#543816" stroke="#543816" stroke-width="2.75" stroke-miterlimit="10"/>
<path d="M93.37 44.483C92.16 46.413 89.78 46.903 87.66 47.043C85.25 47.203 82.86 47.203 80.46 47.513C76.07 48.093 71.85 49.323 67.8 51.103C63.76 49.313 59.54 48.093 55.14 47.513C52.74 47.193 50.35 47.203 47.94 47.043C45.82 46.903 43.44 46.403 42.23 44.483C41.08 42.653 38.17 44.343 39.33 46.183C42.18 50.703 47.59 50.263 52.26 50.593C57.31 50.943 62.3 52.253 66.89 54.373C67.14 54.523 67.43 54.613 67.74 54.623C67.76 54.623 67.78 54.623 67.8 54.623C67.82 54.623 67.84 54.623 67.86 54.623C68.17 54.623 68.46 54.523 68.71 54.373C73.3 52.253 78.29 50.943 83.34 50.593C88.01 50.273 93.42 50.713 96.27 46.183C97.43 44.343 94.52 42.663 93.37 44.483Z" fill="#543816" stroke="#543816" stroke-width="1.01" stroke-miterlimit="10"/>
<path d="M69.93 78.2409C69.84 76.5809 66.8 76.5709 66.9 78.2409C67.21 83.7609 67.3 89.2809 67.17 94.8009C67.13 96.4709 70.16 96.4709 70.2 94.8009C70.33 89.2809 70.24 83.7509 69.93 78.2409Z" fill="#CEBEA7"/>
<path d="M78.27 92.6019C80.21 92.5219 80.24 89.4919 78.29 89.5719C71.82 89.8419 65.35 89.9019 58.88 89.7319C56.93 89.6819 56.91 92.7119 58.86 92.7619C65.33 92.9219 71.8 92.8719 78.27 92.6019Z" fill="#CEBEA7"/>
<path d="M48.25 76.8539C47.55 77.4139 47.11 78.5739 46.23 80.8939C45.38 83.1539 44.95 84.2839 45.22 84.9339C45.72 86.1439 47.37 86.1939 53.31 86.9539C58.97 87.6739 60.42 88.0039 61.4 86.9539C61.98 86.3239 62.13 85.1839 62.41 82.9139C62.69 80.7139 62.82 79.6039 62.41 78.8739C61.91 77.9739 60.97 77.6239 55.33 76.8539C49.97 76.1239 49.07 76.2039 48.25 76.8539Z" fill="#CEBEA7"/>
<path d="M88.86 76.8539C89.56 77.4139 90 78.5739 90.88 80.8939C91.73 83.1539 92.16 84.2839 91.89 84.9339C91.39 86.1439 89.74 86.1939 83.8 86.9539C78.14 87.6739 76.69 88.0039 75.71 86.9539C75.13 86.3239 74.98 85.1839 74.7 82.9139C74.42 80.7139 74.29 79.6039 74.7 78.8739C75.2 77.9739 76.14 77.6239 81.78 76.8539C87.14 76.1239 88.04 76.2039 88.86 76.8539Z" fill="#CEBEA7"/>
</g>
<defs>
<clipPath id="clip0_2148_7573">
<rect width="114.29" height="96.35" fill="white"/>
</clipPath>
</defs>
</svg>
