<svg width="183" height="253" viewBox="0 0 183 253" fill="none" xmlns="http://www.w3.org/2000/svg">
<path d="M138.47 205.572C186.02 176.022 172.398 123.409 153.36 97.2131C153.36 97.2131 143.954 77.4661 113.544 72.0452C113.947 64.7274 114.242 55.8522 113.79 49.5427C113.043 39.1201 104.099 1.40306 52.2539 14.8706C0.408574 28.3381 13.1856 80.7407 30.4936 90.9536C38.2876 95.5559 45.315 96.7839 50.1506 96.9336C48.755 100.677 46.6615 106.607 44.5386 113.766C35.2998 117.899 24.8816 123.789 18.0409 131.127C5.2442 144.854 15.8983 171.998 21.5104 168.085C23.997 166.358 30.1988 160.527 37.0394 153.889C36.607 163.602 37.5701 172.857 40.9413 180.245C46.1701 191.705 55.3008 202.987 67.154 210.384C66.6429 214.557 64.6772 231.479 65.4733 239.556C65.4733 239.556 65.0015 241.153 69.1295 240.754C72.5793 240.424 88.6882 237.988 95.578 236.441C97.1899 236.081 98.2415 234.554 97.9958 232.947C97.4945 229.682 96.6001 223.992 95.7352 218.92C102.114 218.97 108.827 217.862 115.795 215.316C115.068 220.338 116.149 226.427 116.788 230.381C117.309 233.625 119.422 233.985 121.663 233.615C133.722 231.639 149.045 230.041 148.672 227.386C147.325 217.832 143.61 212.121 139.59 206.84C138.646 205.592 137.438 204.704 136.052 204.135C136.514 203.795 136.966 203.456 137.428 203.106C137.428 203.106 130.99 147.938 113.446 105.569C114.783 108.464 116.129 111.529 117.289 114.554C130.862 149.715 138.47 205.592 138.47 205.592V205.572ZM113.417 74.2714L113.132 84.9236L111.608 86.0618C111.942 85.7822 112.277 85.4927 112.611 85.2132C112.611 85.2132 113.033 80.551 113.417 74.2814V74.2714Z" stroke="white" stroke-width="23.82" stroke-linecap="round" stroke-linejoin="round"/>
<path d="M59.8902 131.49C64.4408 127.107 75.0653 116.914 76.8148 112.472C78.5741 108.029 69.6499 105.473 62.8977 107.12C56.1455 108.768 30.8469 117.393 18.0502 131.13C5.25349 144.857 15.9076 172.002 21.5196 168.089C27.1317 164.175 51.6834 139.387 59.8902 131.49Z" fill="#DBBB82" stroke="#543816" stroke-width="4.22" stroke-linecap="round" stroke-linejoin="round"/>
<path d="M39.6434 131.315C37.7858 129.149 36.7538 126.683 36.4098 123.917C36.0855 121.312 31.7118 122.14 32.0263 124.736C32.1639 125.844 32.4194 126.912 32.7634 127.951C30.0802 131.105 26.0014 132.892 21.7064 132.733C18.8561 132.623 18.3942 136.706 21.2444 136.816C22.6598 136.866 24.0554 136.766 25.4216 136.516C25.4216 136.536 25.4216 136.556 25.4216 136.576C26.2078 140.53 24.94 144.653 21.785 147.628C19.7702 149.525 22.5811 152.6 24.6255 150.673C25.6378 149.724 26.5125 148.696 27.2497 147.598C29.2547 148.606 30.8862 149.924 32.2327 151.641C32.9207 152.52 34.4933 152.49 35.3582 151.801C36.341 151.012 36.3411 149.794 35.6432 148.916C34.0903 146.929 32.046 145.282 29.6969 144.124C29.52 144.034 29.3333 143.974 29.1465 143.924C30.0999 141.328 30.3457 138.543 29.7953 135.758C29.7559 135.568 29.697 135.398 29.6184 135.239C31.4759 134.43 33.1861 133.332 34.68 131.984C35.1419 132.703 35.653 133.392 36.2231 134.051C37.9627 136.077 41.3733 133.352 39.6336 131.325L39.6434 131.315Z" fill="#C9A265"/>
<path d="M67.2912 209.429C67.2912 209.429 64.5786 230.294 65.4926 239.549C65.4926 239.549 65.0208 241.146 69.1488 240.747C72.5986 240.418 88.7076 237.982 95.5973 236.434C97.2092 236.075 98.2608 234.547 98.0151 232.94C97.3664 228.737 96.0691 220.531 95.0273 214.79C95.0273 214.79 71.4093 207.662 67.2912 209.419V209.429Z" fill="#DBBB82" stroke="#543816" stroke-width="4.22" stroke-linecap="round" stroke-linejoin="round"/>
<path d="M93.3954 228.413C89.8768 228.603 83.7439 229.751 81.8372 225.888C81.7487 225.708 81.6406 225.558 81.5226 225.428C82.8888 224.989 84.2255 224.45 85.513 223.901C87.7441 222.952 86.1224 219.618 83.8913 220.566C80.3235 222.084 76.461 223.661 72.736 221.864C70.5737 220.816 69.296 224.33 71.4386 225.358C72.8342 226.027 74.2594 226.337 75.6943 226.387C74.1611 228.403 71.586 229.472 69.2763 230.48C67.0551 231.448 68.6768 234.783 70.898 233.814C71.2224 233.675 71.5467 233.535 71.8612 233.385C71.9202 233.545 71.9988 233.695 72.0971 233.854C74.8196 237.798 82.476 236.869 85.6211 233.854C86.1519 233.345 86.2895 232.736 86.1813 232.177C88.4616 232.407 90.8695 232.227 93.0416 232.117C95.4201 231.987 95.7936 228.294 93.3857 228.413H93.3954ZM75.1439 231.658C76.5887 230.749 77.8763 229.671 78.8788 228.304C79.8616 229.851 81.2081 230.819 82.7512 231.418C80.8052 232.806 76.7459 233.465 75.1439 231.668V231.658Z" fill="#C9A265"/>
<path d="M112.738 72.1715C112.738 72.1715 134.332 71.0235 153.369 97.2197C172.407 123.406 186.03 176.018 138.479 205.579L107.706 109.25L93.8579 77.5326L112.748 72.1815L112.738 72.1715Z" fill="#DBBB82" stroke="#543816" stroke-width="3.39" stroke-linecap="round" stroke-linejoin="round"/>
<path d="M51.8313 92.6147C51.8313 92.6147 27.6335 151.057 40.961 180.228C54.2786 209.41 92.8161 237.443 137.438 203.08C137.438 203.08 128.494 126.338 102.91 84.3685C102.91 84.3685 67.8616 83.5898 51.8313 92.6047V92.6147Z" fill="#EADECA" stroke="#543816" stroke-width="4.22" stroke-linecap="round" stroke-linejoin="round"/>
<path d="M113.8 49.5427C113.053 39.1201 104.109 1.40305 52.2636 14.8706C0.418218 28.3381 13.1953 80.7407 30.5033 90.9536C45.0593 99.5393 56.9124 96.3845 56.9124 96.3845C56.9124 96.3845 53.3644 104.211 73.5325 101.566C93.7006 98.9203 103.696 92.9103 112.62 85.2032C112.62 85.2032 114.704 62.2116 113.8 49.5427Z" fill="#DBBB82" stroke="#543816" stroke-width="4.22" stroke-linecap="round" stroke-linejoin="round"/>
<path d="M74.4265 93.8594C64.942 96.3852 56.9121 96.3851 56.9121 96.3851" stroke="#543816" stroke-width="4.22" stroke-linecap="round" stroke-linejoin="round"/>
<path d="M22.7681 80.0764C24.2227 82.0332 25.6675 83.9999 27.3187 85.8069C27.8003 86.336 28.3016 86.8451 28.8225 87.3343C30.4246 85.5473 32.1151 81.7636 29.3139 74.4857C27.6627 70.2029 22.8467 67.6871 18.3354 68.4358C18.8465 70.762 19.6034 73.0083 20.4584 75.2246C21.1956 76.8618 21.9622 78.4791 22.7681 80.0764Z" fill="#E28D76"/>
<path d="M88.6976 56.4833C94.4866 54.7761 102.428 59.5082 102.752 66.2769C102.998 71.4882 98.6441 76.0506 93.7298 77.2786C90.2997 78.1372 85.7097 77.5781 83.1642 74.5931C78.7708 69.4317 81.798 58.5099 88.6976 56.4833Z" fill="#E28D76"/>
<path d="M121.673 233.613C119.422 233.982 117.319 233.623 116.798 230.378C115.795 224.188 113.682 212.688 119.245 208.385C126.96 202.415 135.59 201.556 139.61 206.837C143.629 212.119 147.335 217.829 148.691 227.383C149.065 230.049 133.742 231.636 121.682 233.613H121.673Z" fill="#DBBB82" stroke="#543816" stroke-width="4.22" stroke-linecap="round" stroke-linejoin="round"/>
<path d="M26.6306 48.8284C29.127 48.8484 29.7954 52.8617 30.4539 57.7336C31.3483 64.3924 28.9305 66.7086 27.7707 67.2377C25.402 68.3159 23.0137 65.3309 22.1193 58.672C21.3035 52.6121 23.4756 48.7885 26.6306 48.8284Z" fill="#543816" stroke="#543816" stroke-width="3.41" stroke-miterlimit="10"/>
<path d="M72.667 45.8459C72.1265 48.9208 72.9913 54.5214 74.2396 57.9757C74.8686 59.7228 79.1833 62.6379 81.8763 58.4149C84.5693 54.182 81.8665 44.4482 78.9867 42.5015C76.7164 40.9641 73.2862 42.3218 72.667 45.8559V45.8459Z" fill="#543816" stroke="#543816" stroke-width="3.41" stroke-miterlimit="10"/>
<path d="M79.4783 68.1526C77.719 72.9047 71.645 73.1443 67.3991 73.7832C62.1408 74.5719 57.4919 76.5087 52.617 78.5153C50.209 79.5037 47.7027 80.2025 45.108 79.6434C43.103 79.2141 41.2356 78.2557 39.3485 77.507C37.4909 76.7682 35.5842 76.2091 33.5792 76.0594C31.3874 75.8996 28.5273 76.3489 26.8761 74.6018C25.2446 72.8747 22.3649 75.3006 24.0161 77.0377C25.6574 78.7748 27.8099 79.4537 30.1687 79.6334C32.9993 79.8431 35.3974 79.9429 38.061 81.0011C40.292 81.8897 42.4543 82.9179 44.8427 83.3572C47.6045 83.8664 50.3171 83.3173 52.9315 82.3589C55.9194 81.2707 58.7205 79.7532 61.7673 78.8248C64.7454 77.9163 67.7725 77.487 70.8488 77.0278C75.8319 76.289 81.1393 74.482 83.0264 69.3805C83.8618 67.1243 80.3334 65.8864 79.498 68.1326L79.4783 68.1526Z" fill="#543816" stroke="#543816" stroke-width="0.8" stroke-miterlimit="10"/>
<mask id="mask0_573_3124" style="mask-type:luminance" maskUnits="userSpaceOnUse" x="105" y="72" width="66" height="134">
<path d="M113.701 72.203C113.701 72.203 134.341 71.0449 153.369 97.2412C172.406 123.427 186.029 176.04 138.478 205.6C138.478 205.6 132.532 148.615 115.44 109.211C113.317 104.319 105.514 90.3327 105.514 90.3327L113.396 83.2046L113.701 72.2129V72.203Z" fill="white"/>
</mask>
<g mask="url(#mask0_573_3124)">
<path d="M140.66 191.373C138.891 191.743 137.417 190.545 137.024 189.157C136.631 187.769 137.309 186.492 138.705 185.982C142.774 184.495 146.499 182.388 149.801 179.743C147.707 177.177 146.194 174.252 145.29 171.047C145.024 170.987 144.759 170.888 144.513 170.768C144.405 170.858 144.287 170.938 144.169 171.027C142.135 172.475 140.051 173.623 137.79 174.551C137.604 174.631 137.417 174.691 137.22 174.731C135.461 175.101 134.085 173.913 133.682 172.605C133.26 171.217 133.908 169.899 135.294 169.33C136.611 168.791 137.761 168.242 138.803 167.633C138.852 167.603 138.931 167.563 139.039 167.503C140.179 166.874 140.788 166.475 141.113 166.235C141.004 165.966 140.896 165.706 140.798 165.467C140.68 165.177 140.572 164.908 140.474 164.658C138.498 160.036 137.899 155.014 138.724 150.022C137.564 150.522 136.346 150.901 135.097 151.17C134.105 151.38 133.063 151.52 132.001 151.58C130.517 151.67 129.397 150.761 129.22 149.334C129.043 147.916 129.918 146.219 131.677 145.849C131.834 145.819 132.001 145.789 132.169 145.78C132.778 145.75 133.387 145.66 133.977 145.54C135.147 145.29 136.277 144.881 137.348 144.302C135.363 139.26 134.174 133.879 133.82 128.279C133.151 128.458 132.473 128.618 131.785 128.758C129.78 129.177 127.746 129.457 125.564 129.597C124.08 129.696 122.959 128.798 122.773 127.37C122.586 125.943 123.461 124.235 125.249 123.856C125.397 123.826 125.554 123.806 125.711 123.796C127.244 123.696 128.837 123.477 130.429 123.137C130.557 123.107 130.684 123.087 130.812 123.057C129.996 121.33 129.348 119.503 128.758 117.846L128.699 117.686C127.913 115.5 127.264 113.234 126.753 110.928C124.276 111.327 121.75 111.617 119.057 111.806C117.573 111.916 116.453 111.027 116.266 109.61C116.079 108.172 116.954 106.455 118.753 106.076C118.9 106.046 119.047 106.026 119.195 106.016C120.777 105.906 122.389 105.726 124.099 105.477C121.858 101.234 119.981 96.332 120.876 91.0209C117.583 90.5616 114.418 89.6732 111.45 88.3753C110.221 87.8362 109.534 86.6282 109.691 85.2904C109.848 84.0026 110.723 82.9843 111.873 82.7347C112.423 82.6149 113.013 82.6848 113.583 82.9344C116.423 84.1723 119.372 84.9809 122.379 85.3403C122.281 83.3437 122.487 81.3171 123.018 79.3204C123.293 78.2622 124.04 77.5334 125.072 77.3138C126.104 77.0941 127.215 77.4536 127.962 78.2123C128.679 78.9511 128.945 79.9494 128.679 80.9677C128.218 82.7347 128.139 84.5817 128.453 86.4585C130.272 86.808 131.952 87.2072 133.564 87.6665C133.918 87.7663 134.282 87.8661 134.655 87.966C136.641 88.5051 138.852 89.1141 140.729 90.0924C141.093 89.773 141.545 89.5433 142.056 89.4136C142.095 89.4136 142.125 89.3936 142.164 89.3836C142.852 89.2439 143.609 89.3836 144.287 89.7729C144.926 90.1423 145.437 90.8712 145.584 91.6299C145.732 92.3886 145.575 93.1873 145.142 93.8162L144.405 94.9144C144.405 94.9144 144.336 95.0043 144.307 95.0542C144.543 96.0924 144.661 97.1507 144.779 98.0991C144.818 98.4685 144.867 98.8079 144.906 99.1273C144.906 99.1473 144.906 99.1673 144.906 99.1873C147.776 100.555 150.273 101.973 152.523 103.51C152.769 103.68 153.044 103.859 153.32 104.039C155.462 105.447 158.126 107.194 158.362 110.079C158.617 113.264 157.713 116.878 157.054 119.513C157.035 119.573 157.025 119.633 157.005 119.703C159.433 121.69 161.546 123.656 163.443 125.683C165.507 127.889 167.453 130.375 166.519 134.179C166.254 135.257 165.939 136.335 165.635 137.374C165.487 137.873 165.34 138.372 165.202 138.871C165.055 139.4 164.927 139.949 164.78 140.528C164.514 141.626 164.249 142.765 163.826 143.833C163.974 143.973 164.121 144.102 164.268 144.242C165.929 145.799 167.807 147.557 168.78 149.603C169.949 152.079 168.819 154.735 167.905 156.881C167.699 157.37 167.502 157.819 167.345 158.259C167.158 158.758 166.981 159.307 166.794 159.876C166.382 161.144 165.929 162.542 165.241 163.799C166.382 164.668 167.296 165.726 167.954 166.964C168.387 167.773 168.416 168.661 168.033 169.44C167.63 170.269 166.785 170.908 165.821 171.107C164.524 171.377 163.286 170.818 162.676 169.66C162.263 168.881 161.644 168.262 160.986 167.952C160.848 167.893 160.73 167.823 160.602 167.743C159.246 168.282 157.782 168.621 156.465 168.921C156.013 169.031 155.56 169.131 155.138 169.24C153.84 169.57 152.523 169.879 151.226 170.169C152.445 173.952 154.804 177.157 158.076 179.493C159.049 180.192 159.472 181.29 159.207 182.448C158.941 183.626 158.008 184.565 156.887 184.804C156.14 184.964 155.354 184.784 154.686 184.305C154.46 184.145 154.234 183.976 154.008 183.796C150.125 187.011 145.791 189.507 141.122 191.214C140.965 191.274 140.818 191.314 140.66 191.343V191.373ZM147.314 164.928C147.806 164.828 148.336 164.768 148.808 164.708C149.182 164.668 149.526 164.628 149.762 164.578C150.931 164.319 152.081 164.049 153.202 163.769C153.437 163.71 153.703 163.65 153.968 163.6C154.234 163.55 154.519 163.49 154.804 163.43C155.098 163.37 155.403 163.31 155.718 163.25C157.103 162.961 158.637 162.571 159.472 161.863C160.308 161.164 160.828 159.407 161.251 157.989C161.418 157.42 161.575 156.881 161.752 156.412L162.155 155.334C162.421 154.615 162.686 153.906 162.951 153.187C163.345 152.119 163.364 152.029 162.863 151.42C161.939 150.302 160.848 149.224 159.796 148.185C159.521 147.916 159.256 147.646 158.981 147.387H158.961C158.322 147.527 157.683 147.616 157.064 147.716C156.533 147.796 156.032 147.866 155.6 147.966C154.469 148.205 153.349 148.445 152.229 148.675C151.02 148.934 149.821 149.184 148.612 149.443C147.589 149.663 146.558 149.873 145.535 150.082C145.221 150.142 144.926 150.202 144.631 150.252C143.884 153.966 144.159 157.72 145.427 161.144C145.752 162.032 146.174 162.971 146.803 164.179C146.882 164.329 146.97 164.478 147.059 164.628C147.118 164.728 147.187 164.838 147.255 164.957C147.275 164.957 147.295 164.958 147.304 164.948L147.314 164.928ZM156.868 141.766C156.966 141.746 157.153 141.716 157.379 141.686C157.674 141.646 158.067 141.586 158.362 141.527C158.362 141.487 158.371 141.457 158.381 141.427C158.411 141.277 158.44 141.127 158.47 140.997L159.197 138.422C159.639 136.864 160.072 135.307 160.514 133.75C160.878 132.442 160.966 131.992 160.455 131.274C159.905 130.515 159.197 129.786 158.499 129.087L158.116 128.698C156.671 127.221 155.118 125.803 153.487 124.455C152.877 124.785 152.179 125.044 151.383 125.254C149.604 125.723 147.678 126.162 145.132 126.701C144.12 126.911 143.108 127.121 142.095 127.33L141.162 127.52C140.818 127.59 140.454 127.68 140.09 127.77C139.953 127.799 139.815 127.839 139.687 127.869C139.953 132.432 140.857 136.824 142.371 140.938C142.636 141.656 142.911 142.365 143.206 143.044C143.678 143.443 144.012 143.963 144.159 144.522C144.218 144.522 144.287 144.502 144.366 144.482C144.602 144.432 144.847 144.362 145.073 144.302C145.319 144.232 145.565 144.172 145.771 144.132L156.868 141.796V141.766ZM137.27 122.518C137.358 122.518 137.496 122.488 137.702 122.448C138.154 122.359 138.675 122.199 139.137 122.059C139.51 121.949 139.835 121.849 140.08 121.8C140.67 121.68 141.24 121.56 141.81 121.44C143.57 121.071 145.349 120.681 147.078 120.292C147.216 120.262 147.363 120.232 147.511 120.202C147.717 120.162 147.933 120.112 148.14 120.072C148.346 120.032 148.553 119.993 148.759 119.943C149.241 119.843 149.791 119.713 150.322 119.533C150.99 119.304 151.079 119.114 151.383 117.896V117.846C151.924 115.73 152.523 113.324 152.415 111.277C152.356 110.159 150.007 108.771 148.749 108.023C148.415 107.823 148.11 107.643 147.845 107.473C146.155 106.395 144.415 105.427 142.656 104.578C142.144 104.928 141.545 105.237 140.837 105.517C138.793 106.315 136.719 107.114 134.704 107.883C133.918 108.182 133.132 108.482 132.355 108.781C133.23 113.034 134.596 117.057 136.414 120.741C136.483 120.891 136.572 121.071 136.66 121.27C136.798 121.57 137.083 122.209 137.279 122.498L137.27 122.518ZM126.625 92.0292C125.957 95.7031 127.52 99.327 129.151 102.422C129.181 102.472 129.269 102.622 129.397 102.831C129.515 103.021 129.662 103.26 129.81 103.52C130.026 103.44 130.242 103.38 130.439 103.32C130.606 103.27 130.763 103.231 130.891 103.181L137.004 100.825C137.191 100.755 137.417 100.675 137.663 100.605C138.046 100.485 138.832 100.226 139.049 100.026C139.098 99.7164 138.881 98.9077 138.773 98.5084C138.705 98.2388 138.636 97.9892 138.587 97.7696C138.547 97.55 138.508 97.3004 138.469 97.0309C138.4 96.5117 138.292 95.733 138.085 95.4834C137.869 95.2139 136.817 94.8844 136.316 94.7247C136.071 94.6448 135.835 94.575 135.648 94.5051C132.739 93.4469 129.702 92.6282 126.625 92.0492V92.0292Z" fill="#A07A4B" stroke="#A07A4B" stroke-width="3.42" stroke-miterlimit="10"/>
<path d="M125.269 78.3805C126.458 78.1309 127.982 79.1592 127.579 80.7067C127.038 82.7832 126.989 84.8896 127.392 86.9762C127.422 87.1159 127.431 87.2457 127.431 87.3755C129.378 87.7349 131.314 88.1642 133.22 88.7033C135.687 89.4022 138.754 90.101 140.956 91.4986C141.014 91.4188 141.064 91.3289 141.123 91.2491C141.398 90.8397 141.82 90.5801 142.302 90.4603C142.322 90.4603 142.341 90.4504 142.361 90.4504C142.823 90.3506 143.295 90.4903 143.688 90.7099C144.081 90.9395 144.386 91.4188 144.474 91.848C144.563 92.2773 144.464 92.8264 144.199 93.2158C143.953 93.5851 143.707 93.9446 143.462 94.314C143.354 94.4737 143.216 94.6134 143.059 94.7232C143.481 96.2806 143.609 98.0277 143.786 99.2756C143.816 99.4853 143.835 99.6949 143.845 99.8946C146.636 101.202 149.329 102.66 151.875 104.397C153.909 105.785 157.025 107.462 157.251 110.168C157.487 113.093 156.681 116.427 155.973 119.262C155.905 119.552 155.816 119.821 155.728 120.081C158.165 122.038 160.485 124.134 162.618 126.41C164.731 128.677 166.215 130.743 165.438 133.918C165.055 135.485 164.573 137.033 164.131 138.58C163.65 140.287 163.345 142.214 162.627 143.851C162.588 143.931 162.549 144.011 162.5 144.091C164.367 145.888 166.706 147.825 167.768 150.071C168.967 152.597 167.188 155.502 166.293 157.888C165.566 159.825 165.016 162.29 163.758 164.107C165.104 164.936 166.195 166.024 166.962 167.462C167.62 168.71 166.687 169.808 165.596 170.038C164.878 170.187 164.092 169.958 163.65 169.139C163.168 168.241 162.401 167.402 161.468 166.963C161.202 166.843 160.966 166.683 160.77 166.483C158.912 167.332 156.711 167.711 154.863 168.181C153.261 168.59 151.659 168.959 150.037 169.309C149.968 169.329 149.89 169.339 149.811 169.359C150.961 173.811 153.605 177.675 157.389 180.37C158.853 181.419 157.988 183.445 156.652 183.735C156.239 183.825 155.787 183.735 155.335 183.425C154.873 183.096 154.421 182.736 153.978 182.377C150.067 185.761 145.604 188.407 140.729 190.204C140.621 190.244 140.523 190.274 140.425 190.294C138.361 190.723 136.936 187.768 139.068 186.989C143.59 185.332 147.698 182.956 151.344 179.851C148.858 177.066 147.088 173.731 146.155 170.038C146.115 170.038 146.066 170.038 146.027 170.038C145.418 170.018 144.887 169.778 144.415 169.409C144.13 169.658 143.816 169.908 143.491 170.127C141.565 171.495 139.53 172.633 137.339 173.522C137.211 173.572 137.093 173.612 136.965 173.642C134.96 174.061 133.594 171.156 135.678 170.307C136.936 169.798 138.154 169.219 139.334 168.54C139.678 168.34 142.007 167.132 142.39 166.414C142.027 165.595 141.732 164.796 141.476 164.187C139.265 159.026 138.882 153.435 140.238 147.984C138.557 148.973 136.759 149.662 134.852 150.061C133.899 150.261 132.926 150.39 131.923 150.45C129.663 150.58 129.81 147.305 131.864 146.866C131.962 146.846 132.071 146.826 132.189 146.826C132.857 146.786 133.515 146.697 134.164 146.567C135.776 146.227 137.309 145.598 138.695 144.71C136.326 139.009 135.068 132.979 134.823 126.81C133.732 127.139 132.641 127.419 131.53 127.648C129.535 128.068 127.52 128.327 125.466 128.467C123.195 128.617 123.363 125.322 125.426 124.883C125.525 124.863 125.623 124.853 125.731 124.843C127.373 124.733 128.994 124.504 130.606 124.164C131.206 124.034 131.795 123.905 132.385 123.745C131.284 121.688 130.459 119.362 129.712 117.276C128.817 114.78 128.11 112.244 127.589 109.648C124.729 110.148 121.859 110.477 118.959 110.687C116.689 110.846 116.856 107.542 118.93 107.103C119.028 107.083 119.126 107.073 119.225 107.063C121.426 106.903 123.608 106.633 125.79 106.274C122.969 101.252 120.728 95.8913 122.173 90.0511C118.615 89.6717 115.156 88.7832 111.883 87.3555C110.104 86.5768 110.615 84.081 112.07 83.7815C112.374 83.7216 112.718 83.7515 113.092 83.9113C116.433 85.3688 119.913 86.2574 123.579 86.5369C123.294 84.2008 123.461 81.8747 124.07 79.5586C124.257 78.8497 124.729 78.4704 125.259 78.3605M129.348 104.906C129.427 104.876 129.505 104.846 129.594 104.816C130.016 104.487 130.803 104.347 131.294 104.158C133.329 103.369 135.373 102.59 137.407 101.801C138.194 101.492 139.806 101.162 140.091 100.384C140.366 99.635 139.825 98.2573 139.678 97.5186C139.521 96.7199 139.491 95.4121 138.97 94.7632C138.43 94.0943 136.867 93.7449 136.041 93.4454C132.69 92.2374 129.24 91.3289 125.721 90.7399C125.721 90.8797 125.702 91.0294 125.662 91.1892C124.65 95.3023 126.262 99.3456 128.159 102.92C128.228 103.049 128.886 104.118 129.338 104.916M137.899 123.505C138.754 123.326 139.806 122.956 140.277 122.856C140.277 122.856 140.277 122.856 140.287 122.856C140.857 122.736 141.427 122.617 141.997 122.497C143.766 122.128 145.526 121.738 147.295 121.339C147.433 121.309 147.57 121.279 147.708 121.249C148.12 121.159 148.533 121.079 148.956 120.999C149.536 120.88 150.106 120.74 150.646 120.56C151.934 120.121 152.131 119.352 152.435 118.134C152.966 115.988 153.615 113.422 153.497 111.206C153.389 109.209 150.027 107.572 148.435 106.553C146.558 105.355 144.602 104.277 142.587 103.329C142.558 103.319 142.538 103.299 142.508 103.289C141.968 103.768 141.27 104.167 140.415 104.497C137.368 105.695 134.302 106.853 131.245 108.031C131.186 108.051 131.127 108.081 131.058 108.101C131.923 112.653 133.329 117.056 135.393 121.219C135.717 121.868 136.257 123.326 136.778 123.535C137.004 123.625 137.427 123.585 137.909 123.485M144.907 125.582C143.609 125.851 142.312 126.121 141.014 126.38C140.985 126.38 140.956 126.39 140.926 126.4C140.199 126.55 139.422 126.76 138.646 126.93C138.607 126.93 138.557 126.949 138.518 126.959C138.715 131.831 139.629 136.693 141.309 141.266C141.604 142.074 141.929 142.883 142.273 143.682C142.833 144.061 143.196 144.71 143.118 145.359C143.275 145.519 143.501 145.588 143.894 145.588C144.101 145.588 144.327 145.548 144.572 145.498C145.054 145.399 145.575 145.229 145.978 145.149C148.406 144.64 150.833 144.131 153.261 143.622L157.074 142.823C157.281 142.783 158.037 142.693 158.578 142.583C158.853 142.523 159.079 142.464 159.148 142.394C159.433 142.124 159.433 141.635 159.531 141.266C160.21 138.85 160.898 136.434 161.566 134.008C161.93 132.7 162.185 131.791 161.35 130.623C160.652 129.645 159.748 128.776 158.902 127.918C157.222 126.201 155.443 124.593 153.575 123.086C152.907 123.555 152.091 123.915 151.099 124.174C149.054 124.713 146.98 125.172 144.907 125.602M146.666 166.264C146.892 166.144 147.187 166.054 147.511 165.994C148.327 165.825 149.339 165.775 149.958 165.645C149.968 165.645 149.978 165.645 149.998 165.645C151.148 165.395 152.298 165.126 153.448 164.836C153.674 164.776 153.919 164.726 154.175 164.677C154.715 164.567 155.315 164.447 155.924 164.327C157.497 163.998 159.148 163.558 160.17 162.7C161.645 161.472 162.146 158.497 162.785 156.78C163.188 155.701 163.591 154.633 163.984 153.555C164.426 152.357 164.583 151.778 163.718 150.74C162.392 149.132 160.799 147.685 159.335 146.187C159.138 146.237 158.932 146.287 158.735 146.327C157.566 146.577 156.357 146.687 155.384 146.896C153.064 147.385 150.735 147.885 148.415 148.374C147.383 148.593 146.361 148.803 145.329 149.013C144.789 149.122 144.248 149.232 143.717 149.272C142.754 153.335 142.941 157.608 144.386 161.522C144.789 162.6 145.28 163.648 145.811 164.677C146.057 165.156 146.45 165.665 146.607 166.174C146.636 166.214 146.656 166.244 146.686 166.274M124.827 76.2641C123.392 76.5636 122.301 77.6218 121.918 79.0794C121.485 80.7466 121.249 82.4238 121.22 84.091C118.763 83.6817 116.345 82.9729 114.016 81.9546C113.239 81.6151 112.414 81.5253 111.627 81.685C109.996 82.0244 108.767 83.4321 108.561 85.1892C108.345 87.0061 109.288 88.6534 110.959 89.3822C113.691 90.5802 116.601 91.4388 119.608 91.9379C119.117 96.5502 120.522 100.813 122.38 104.607C121.259 104.747 120.168 104.846 119.097 104.926C118.891 104.936 118.694 104.966 118.497 105.006C116.591 105.405 114.802 107.292 115.126 109.758C115.392 111.755 117.023 113.043 119.087 112.893C121.446 112.723 123.677 112.484 125.859 112.164C126.341 114.171 126.93 116.147 127.618 118.064L127.677 118.234C128.139 119.512 128.631 120.9 129.21 122.267C128.002 122.487 126.793 122.637 125.623 122.717C125.417 122.726 125.2 122.756 124.994 122.806C122.576 123.316 121.387 125.602 121.633 127.528C121.888 129.525 123.51 130.823 125.584 130.683C127.825 130.534 129.908 130.254 131.962 129.825C132.228 129.765 132.493 129.705 132.768 129.645C133.191 134.557 134.252 139.289 135.913 143.771C135.206 144.081 134.469 144.311 133.722 144.47C133.181 144.58 132.631 144.66 132.08 144.69C131.854 144.7 131.638 144.73 131.422 144.78C129.024 145.279 127.844 147.555 128.08 149.472C128.326 151.469 129.948 152.776 132.021 152.667C133.132 152.607 134.233 152.457 135.284 152.237C135.992 152.087 136.68 151.908 137.358 151.688C136.906 156.281 137.604 160.853 139.422 165.106C139.521 165.335 139.619 165.585 139.727 165.855C139.422 166.044 139.019 166.274 138.489 166.573C138.371 166.643 138.282 166.693 138.223 166.723C137.221 167.302 136.12 167.841 134.852 168.35C132.935 169.129 132.002 171.026 132.591 172.953C133.23 175.029 135.294 176.257 137.407 175.818C137.663 175.768 137.918 175.688 138.174 175.578C140.385 174.68 142.44 173.562 144.435 172.174C145.29 174.87 146.568 177.345 148.238 179.592C145.251 181.858 141.919 183.665 138.312 184.993C136.366 185.711 135.383 187.558 135.933 189.495C136.464 191.352 138.449 192.969 140.857 192.47C141.064 192.43 141.28 192.37 141.476 192.29C145.988 190.633 150.194 188.267 153.998 185.242C154.922 185.901 156.013 186.141 157.074 185.921C158.617 185.602 159.895 184.314 160.259 182.726C160.613 181.169 160.023 179.612 158.706 178.673C155.954 176.706 153.89 174.081 152.661 171.006C153.566 170.796 154.48 170.577 155.374 170.347C155.787 170.247 156.219 170.137 156.681 170.038C157.88 169.758 159.207 169.449 160.485 168.999C160.917 169.209 161.369 169.678 161.664 170.227C162.509 171.815 164.22 172.593 166.018 172.224C167.335 171.944 168.456 171.096 169.016 169.948C169.547 168.859 169.507 167.602 168.918 166.493C168.318 165.375 167.551 164.397 166.598 163.548C167.109 162.44 167.483 161.302 167.827 160.244C168.013 159.685 168.18 159.146 168.357 158.667C168.515 158.257 168.701 157.808 168.898 157.339C169.841 155.122 171.129 152.097 169.753 149.192C168.711 146.996 166.795 145.179 165.075 143.572C165.379 142.653 165.605 141.725 165.822 140.816C165.959 140.247 166.087 139.708 166.225 139.199C166.362 138.7 166.51 138.211 166.657 137.712C166.962 136.653 167.286 135.565 167.551 134.467C168.613 130.144 166.382 127.309 164.22 124.993C162.421 123.076 160.445 121.219 158.195 119.352C158.853 116.687 159.669 113.202 159.413 110.038C159.138 106.643 156.111 104.647 153.89 103.199C153.615 103.019 153.359 102.85 153.113 102.68C150.951 101.202 148.573 99.8447 145.88 98.5269C145.86 98.3672 145.84 98.1974 145.821 98.0177C145.722 97.2191 145.614 96.2806 145.427 95.3222L145.634 95.0127L146.007 94.4637C146.597 93.5951 146.823 92.467 146.617 91.4587C146.401 90.4004 145.703 89.4221 144.798 88.893C143.875 88.3638 142.843 88.1742 141.879 88.3739C141.83 88.3838 141.771 88.3938 141.722 88.4138C141.309 88.5236 140.926 88.6734 140.572 88.873C138.754 88.0145 136.729 87.4653 134.901 86.9662C134.528 86.8663 134.164 86.7665 133.82 86.6667C132.405 86.2674 130.95 85.9179 129.387 85.5985C129.23 84.1209 129.328 82.6734 129.692 81.2757C130.056 79.888 129.692 78.5203 128.709 77.512C127.697 76.4737 126.193 76.0145 124.797 76.304L124.827 76.2641ZM130.134 101.891C128.758 99.2956 127.451 96.3206 127.599 93.3356C130.213 93.8846 132.778 94.6134 135.265 95.5119C135.491 95.5918 135.727 95.6717 135.982 95.7516C136.297 95.8514 136.906 96.0411 137.221 96.1908C137.289 96.4504 137.348 96.9096 137.388 97.1692C137.427 97.4387 137.457 97.7083 137.516 97.9778C137.565 98.2374 137.643 98.5069 137.712 98.7865C137.751 98.9462 137.81 99.1658 137.869 99.3755C137.683 99.4453 137.486 99.5053 137.348 99.5452C137.093 99.6251 136.857 99.705 136.631 99.7948L130.518 102.151C130.518 102.151 130.419 102.191 130.341 102.211C130.252 102.061 130.183 101.941 130.144 101.881L130.134 101.891ZM133.623 109.469C134.115 109.279 134.606 109.089 135.098 108.9C137.103 108.131 139.186 107.332 141.221 106.534C141.761 106.324 142.253 106.094 142.695 105.835C144.228 106.593 145.742 107.452 147.216 108.4C147.501 108.58 147.816 108.77 148.15 108.969C148.877 109.399 151.079 110.707 151.295 111.395C151.384 113.272 150.814 115.578 150.302 117.615V117.665C150.224 117.944 150.126 118.314 150.057 118.484C150.027 118.494 149.998 118.504 149.949 118.524C149.487 118.683 148.966 118.803 148.523 118.893C148.317 118.933 148.121 118.973 147.914 119.013C147.698 119.053 147.482 119.103 147.275 119.143C147.128 119.172 146.971 119.202 146.823 119.242C145.084 119.642 143.324 120.021 141.565 120.39C140.995 120.51 140.435 120.63 139.865 120.74H139.845C139.55 120.8 139.206 120.9 138.813 121.019C138.508 121.109 138.174 121.209 137.86 121.289C137.781 121.119 137.702 120.959 137.653 120.84C137.555 120.63 137.466 120.43 137.398 120.281C135.746 116.926 134.479 113.302 133.614 109.469H133.623ZM145.349 127.738C147.904 127.199 149.85 126.75 151.649 126.281C152.248 126.121 152.799 125.941 153.3 125.722C154.706 126.91 156.042 128.157 157.3 129.435C157.428 129.565 157.556 129.695 157.693 129.835C158.391 130.543 159.05 131.202 159.541 131.901C159.757 132.211 159.787 132.241 159.443 133.459C158.991 135.086 158.539 136.693 158.087 138.301L157.448 140.587C157.369 140.597 157.3 140.607 157.232 140.617C156.986 140.657 156.799 140.677 156.642 140.706L152.828 141.505L149.192 142.274L145.545 143.043C145.3 143.093 145.054 143.162 144.808 143.222C144.622 142.913 144.395 142.633 144.13 142.374C143.875 141.775 143.639 141.156 143.403 140.527C142.027 136.793 141.172 132.81 140.847 128.677C141.024 128.637 141.201 128.597 141.368 128.557L141.447 128.537L142.312 128.357C143.324 128.147 144.337 127.948 145.349 127.728V127.738ZM148.838 150.49C150.047 150.241 151.256 149.981 152.465 149.721C153.575 149.482 154.696 149.252 155.806 149.013C156.209 148.933 156.691 148.853 157.202 148.783C157.635 148.723 158.096 148.653 158.578 148.563C158.716 148.693 158.843 148.833 158.981 148.963C160.062 150.031 161.094 151.039 161.979 152.117C162.028 152.177 162.067 152.227 162.087 152.267C162.038 152.447 161.93 152.726 161.89 152.846C161.625 153.565 161.359 154.284 161.084 155.003L160.691 156.071C160.504 156.58 160.337 157.139 160.16 157.718C159.826 158.856 159.315 160.573 158.735 161.053C157.998 161.662 156.17 162.051 155.482 162.191C155.177 162.251 154.873 162.31 154.578 162.37C154.283 162.43 153.998 162.49 153.723 162.54C153.408 162.61 153.153 162.66 152.917 162.72C151.796 162.999 150.656 163.259 149.526 163.508C149.329 163.548 148.985 163.588 148.661 163.628C148.396 163.658 148.101 163.688 147.806 163.738C147.796 163.718 147.776 163.688 147.767 163.668C147.364 162.879 146.843 161.831 146.45 160.743C145.329 157.728 145.034 154.434 145.565 151.159C145.614 151.149 145.673 151.139 145.722 151.129C146.754 150.919 147.786 150.7 148.828 150.49H148.838Z" fill="#A07A4B"/>
<path d="M125.269 78.3805C126.458 78.1309 127.982 79.1592 127.579 80.7067C127.038 82.7832 126.989 84.8896 127.392 86.9762C127.422 87.1159 127.431 87.2457 127.431 87.3755C129.378 87.7349 131.314 88.1642 133.22 88.7033C135.687 89.4022 138.754 90.101 140.956 91.4986C141.014 91.4188 141.064 91.3289 141.123 91.2491C141.398 90.8397 141.82 90.5801 142.302 90.4603C142.322 90.4603 142.341 90.4504 142.361 90.4504C142.823 90.3506 143.295 90.4903 143.688 90.7099C144.081 90.9395 144.386 91.4188 144.474 91.848C144.563 92.2773 144.464 92.8264 144.199 93.2158C143.953 93.5851 143.707 93.9446 143.462 94.314C143.354 94.4737 143.216 94.6134 143.059 94.7232C143.481 96.2806 143.609 98.0277 143.786 99.2756C143.816 99.4853 143.835 99.6949 143.845 99.8946C146.636 101.202 149.329 102.66 151.875 104.397C153.909 105.785 157.025 107.462 157.251 110.168C157.487 113.093 156.681 116.427 155.974 119.262C155.905 119.552 155.816 119.821 155.728 120.081C158.165 122.038 160.485 124.134 162.618 126.41C164.731 128.677 166.215 130.743 165.438 133.918C165.055 135.485 164.573 137.033 164.131 138.58C163.65 140.287 163.345 142.214 162.627 143.851C162.588 143.931 162.549 144.011 162.5 144.091C164.367 145.888 166.706 147.825 167.768 150.071C168.967 152.597 167.188 155.502 166.293 157.888C165.566 159.825 165.016 162.29 163.758 164.107C165.104 164.936 166.195 166.024 166.962 167.462C167.62 168.71 166.687 169.808 165.596 170.038C164.878 170.187 164.092 169.958 163.65 169.139C163.168 168.241 162.401 167.402 161.468 166.963C161.202 166.843 160.966 166.683 160.77 166.483C158.912 167.332 156.711 167.711 154.863 168.181C153.261 168.59 151.659 168.959 150.037 169.309C149.968 169.329 149.89 169.339 149.811 169.359C150.961 173.811 153.605 177.675 157.389 180.37C158.853 181.419 157.988 183.445 156.652 183.735C156.239 183.825 155.787 183.735 155.335 183.425C154.873 183.096 154.421 182.736 153.978 182.377C150.067 185.761 145.604 188.407 140.729 190.204C140.621 190.244 140.523 190.274 140.425 190.294C138.361 190.723 136.936 187.768 139.068 186.989C143.59 185.332 147.698 182.956 151.344 179.851C148.858 177.066 147.088 173.731 146.155 170.038C146.115 170.038 146.066 170.038 146.027 170.038C145.418 170.018 144.887 169.778 144.415 169.409C144.13 169.658 143.816 169.908 143.491 170.127C141.565 171.495 139.53 172.633 137.339 173.522C137.211 173.572 137.093 173.612 136.965 173.642C134.96 174.061 133.594 171.156 135.678 170.307C136.936 169.798 138.154 169.219 139.334 168.54C139.678 168.34 142.007 167.132 142.391 166.414C142.027 165.595 141.732 164.796 141.476 164.187C139.265 159.026 138.882 153.435 140.238 147.984C138.557 148.973 136.759 149.662 134.852 150.061C133.899 150.261 132.926 150.39 131.923 150.45C129.663 150.58 129.81 147.305 131.864 146.866C131.962 146.846 132.071 146.826 132.189 146.826C132.857 146.786 133.515 146.696 134.164 146.567C135.776 146.227 137.309 145.598 138.695 144.71C136.326 139.009 135.068 132.979 134.823 126.81C133.732 127.139 132.641 127.419 131.53 127.648C129.535 128.068 127.52 128.327 125.466 128.467C123.195 128.617 123.363 125.322 125.426 124.883C125.525 124.863 125.623 124.853 125.731 124.843C127.373 124.733 128.994 124.504 130.606 124.164C131.206 124.034 131.795 123.905 132.385 123.745C131.284 121.688 130.459 119.362 129.712 117.276C128.817 114.78 128.11 112.244 127.589 109.648C124.729 110.148 121.859 110.477 118.959 110.687C116.689 110.846 116.856 107.542 118.93 107.103C119.028 107.083 119.126 107.073 119.225 107.063C121.426 106.903 123.608 106.633 125.79 106.274C122.969 101.252 120.728 95.8913 122.173 90.0511C118.615 89.6717 115.156 88.7832 111.883 87.3555C110.104 86.5768 110.615 84.081 112.07 83.7815C112.374 83.7216 112.718 83.7515 113.092 83.9113C116.433 85.3688 119.913 86.2574 123.579 86.5369C123.294 84.2008 123.461 81.8747 124.07 79.5586C124.257 78.8497 124.729 78.4704 125.259 78.3605M129.348 104.906C129.427 104.876 129.505 104.846 129.594 104.816C130.016 104.487 130.803 104.347 131.294 104.158C133.329 103.369 135.373 102.59 137.407 101.801C138.194 101.492 139.806 101.162 140.091 100.384C140.366 99.635 139.825 98.2573 139.678 97.5186C139.521 96.7199 139.491 95.4121 138.97 94.7632C138.43 94.0943 136.867 93.7449 136.041 93.4454C132.69 92.2374 129.24 91.3289 125.721 90.7399C125.721 90.8797 125.702 91.0294 125.662 91.1892C124.65 95.3023 126.262 99.3456 128.159 102.92C128.228 103.049 128.886 104.118 129.338 104.916M137.899 123.505C138.754 123.326 139.806 122.956 140.277 122.856C140.277 122.856 140.277 122.856 140.287 122.856C140.857 122.736 141.427 122.617 141.997 122.497C143.766 122.128 145.526 121.738 147.295 121.339C147.433 121.309 147.57 121.279 147.708 121.249C148.12 121.159 148.533 121.079 148.956 120.999C149.536 120.88 150.106 120.74 150.646 120.56C151.934 120.121 152.131 119.352 152.435 118.134C152.966 115.988 153.615 113.422 153.497 111.206C153.389 109.209 150.027 107.572 148.435 106.553C146.558 105.355 144.602 104.277 142.587 103.329C142.558 103.319 142.538 103.299 142.508 103.289C141.968 103.768 141.27 104.167 140.415 104.497C137.368 105.695 134.302 106.853 131.245 108.031C131.186 108.051 131.127 108.081 131.058 108.101C131.923 112.653 133.329 117.056 135.393 121.219C135.717 121.868 136.257 123.325 136.778 123.535C137.004 123.625 137.427 123.585 137.909 123.485M144.907 125.582C143.609 125.851 142.312 126.121 141.014 126.38C140.985 126.38 140.956 126.39 140.926 126.4C140.199 126.55 139.422 126.76 138.646 126.93C138.607 126.93 138.557 126.949 138.518 126.959C138.715 131.831 139.629 136.693 141.309 141.266C141.604 142.074 141.929 142.883 142.273 143.682C142.833 144.061 143.196 144.71 143.118 145.359C143.275 145.519 143.501 145.588 143.894 145.588C144.101 145.588 144.327 145.548 144.572 145.498C145.054 145.399 145.575 145.229 145.978 145.149C148.406 144.64 150.833 144.131 153.261 143.622L157.074 142.823C157.281 142.783 158.037 142.693 158.578 142.583C158.853 142.523 159.079 142.464 159.148 142.394C159.433 142.124 159.433 141.635 159.531 141.266C160.21 138.85 160.898 136.434 161.566 134.008C161.93 132.7 162.185 131.791 161.35 130.623C160.652 129.645 159.748 128.776 158.902 127.918C157.222 126.201 155.443 124.593 153.575 123.086C152.907 123.555 152.091 123.915 151.099 124.174C149.054 124.713 146.98 125.172 144.907 125.602M146.666 166.264C146.892 166.144 147.187 166.054 147.511 165.994C148.327 165.825 149.339 165.775 149.958 165.645C149.968 165.645 149.978 165.645 149.998 165.645C151.148 165.395 152.298 165.126 153.448 164.836C153.674 164.776 153.919 164.726 154.175 164.677C154.715 164.567 155.315 164.447 155.924 164.327C157.497 163.998 159.148 163.558 160.17 162.7C161.645 161.472 162.146 158.497 162.785 156.78C163.188 155.701 163.591 154.633 163.984 153.555C164.426 152.357 164.583 151.778 163.718 150.74C162.392 149.132 160.799 147.685 159.335 146.187C159.138 146.237 158.932 146.287 158.735 146.327C157.566 146.577 156.357 146.687 155.384 146.896C153.064 147.385 150.735 147.885 148.415 148.374C147.383 148.593 146.361 148.803 145.329 149.013C144.789 149.122 144.248 149.232 143.717 149.272C142.754 153.335 142.941 157.608 144.386 161.522C144.789 162.6 145.28 163.648 145.811 164.677C146.057 165.156 146.45 165.665 146.607 166.174C146.636 166.214 146.656 166.244 146.686 166.274M124.827 76.2641C123.392 76.5636 122.301 77.6218 121.918 79.0794C121.485 80.7466 121.249 82.4238 121.22 84.091C118.763 83.6817 116.345 82.9729 114.016 81.9546C113.239 81.6151 112.414 81.5253 111.627 81.685C109.996 82.0244 108.767 83.4321 108.561 85.1892C108.345 87.0061 109.288 88.6534 110.959 89.3822C113.691 90.5802 116.601 91.4388 119.608 91.9379C119.117 96.5502 120.522 100.813 122.38 104.607C121.259 104.747 120.168 104.846 119.097 104.926C118.891 104.936 118.694 104.966 118.497 105.006C116.591 105.405 114.802 107.292 115.126 109.758C115.392 111.755 117.023 113.043 119.087 112.893C121.446 112.723 123.677 112.484 125.859 112.164C126.341 114.171 126.93 116.147 127.618 118.064L127.677 118.234C128.139 119.512 128.631 120.9 129.21 122.267C128.002 122.487 126.793 122.637 125.623 122.717C125.417 122.726 125.2 122.756 124.994 122.806C122.576 123.316 121.387 125.602 121.633 127.528C121.888 129.525 123.51 130.823 125.584 130.683C127.825 130.534 129.908 130.254 131.962 129.825C132.228 129.765 132.493 129.705 132.768 129.645C133.191 134.557 134.252 139.289 135.913 143.771C135.206 144.081 134.469 144.311 133.722 144.47C133.181 144.58 132.631 144.66 132.08 144.69C131.854 144.7 131.638 144.73 131.422 144.78C129.024 145.279 127.844 147.555 128.08 149.472C128.326 151.469 129.948 152.776 132.021 152.667C133.132 152.607 134.233 152.457 135.284 152.237C135.992 152.087 136.68 151.908 137.358 151.688C136.906 156.281 137.604 160.853 139.422 165.106C139.521 165.335 139.619 165.585 139.727 165.855C139.422 166.044 139.019 166.274 138.489 166.573C138.371 166.643 138.282 166.693 138.223 166.723C137.221 167.302 136.12 167.841 134.852 168.35C132.935 169.129 132.002 171.026 132.591 172.953C133.23 175.029 135.294 176.257 137.407 175.818C137.663 175.768 137.918 175.688 138.174 175.578C140.385 174.68 142.44 173.562 144.435 172.174C145.29 174.87 146.568 177.345 148.238 179.592C145.251 181.858 141.919 183.665 138.312 184.993C136.366 185.711 135.383 187.558 135.933 189.495C136.464 191.352 138.449 192.969 140.857 192.47C141.064 192.43 141.28 192.37 141.476 192.29C145.988 190.633 150.194 188.267 153.998 185.242C154.922 185.901 156.013 186.141 157.074 185.921C158.617 185.602 159.895 184.314 160.259 182.726C160.613 181.169 160.023 179.612 158.706 178.673C155.954 176.706 153.89 174.081 152.661 171.006C153.566 170.796 154.48 170.577 155.374 170.347C155.787 170.247 156.219 170.137 156.681 170.038C157.88 169.758 159.207 169.449 160.485 168.999C160.917 169.209 161.369 169.678 161.664 170.227C162.509 171.815 164.22 172.593 166.018 172.224C167.335 171.944 168.456 171.096 169.016 169.948C169.547 168.859 169.507 167.602 168.918 166.493C168.318 165.375 167.551 164.397 166.598 163.548C167.109 162.44 167.483 161.302 167.827 160.244C168.013 159.685 168.18 159.146 168.357 158.667C168.515 158.257 168.701 157.808 168.898 157.339C169.841 155.122 171.129 152.097 169.753 149.192C168.711 146.996 166.795 145.179 165.075 143.572C165.379 142.653 165.605 141.725 165.822 140.816C165.959 140.247 166.087 139.708 166.225 139.199C166.362 138.7 166.51 138.211 166.657 137.712C166.962 136.653 167.286 135.565 167.551 134.467C168.613 130.144 166.382 127.309 164.22 124.993C162.421 123.076 160.445 121.219 158.195 119.352C158.853 116.687 159.669 113.202 159.413 110.038C159.138 106.643 156.111 104.647 153.89 103.199C153.615 103.019 153.359 102.85 153.113 102.68C150.951 101.202 148.573 99.8447 145.88 98.5269C145.86 98.3672 145.84 98.1974 145.821 98.0177C145.722 97.2191 145.614 96.2806 145.427 95.3222L145.634 95.0127L146.007 94.4637C146.597 93.5951 146.823 92.467 146.617 91.4587C146.401 90.4004 145.703 89.4221 144.798 88.893C143.875 88.3638 142.843 88.1742 141.879 88.3739C141.83 88.3838 141.771 88.3938 141.722 88.4138C141.309 88.5236 140.926 88.6734 140.572 88.873C138.754 88.0145 136.729 87.4653 134.901 86.9662C134.528 86.8663 134.164 86.7665 133.82 86.6667C132.405 86.2674 130.95 85.9179 129.387 85.5985C129.23 84.1209 129.328 82.6734 129.692 81.2757C130.056 79.888 129.692 78.5203 128.709 77.512C127.697 76.4737 126.193 76.0145 124.797 76.304L124.827 76.2641ZM130.134 101.891C128.758 99.2956 127.451 96.3206 127.599 93.3356C130.213 93.8846 132.778 94.6134 135.265 95.5119C135.491 95.5918 135.727 95.6717 135.982 95.7516C136.297 95.8514 136.906 96.0411 137.221 96.1908C137.289 96.4504 137.348 96.9096 137.388 97.1692C137.427 97.4387 137.457 97.7083 137.516 97.9778C137.565 98.2374 137.643 98.5069 137.712 98.7865C137.751 98.9462 137.81 99.1658 137.869 99.3755C137.683 99.4453 137.486 99.5053 137.348 99.5452C137.093 99.6251 136.857 99.705 136.631 99.7948L130.518 102.151C130.518 102.151 130.419 102.191 130.341 102.211C130.252 102.061 130.183 101.941 130.144 101.881L130.134 101.891ZM133.623 109.469C134.115 109.279 134.606 109.089 135.098 108.9C137.103 108.131 139.186 107.332 141.221 106.534C141.761 106.324 142.253 106.094 142.695 105.835C144.228 106.593 145.742 107.452 147.216 108.4C147.501 108.58 147.816 108.77 148.15 108.969C148.877 109.399 151.079 110.707 151.295 111.395C151.384 113.272 150.814 115.578 150.302 117.615V117.665C150.224 117.944 150.126 118.314 150.057 118.484C150.027 118.494 149.998 118.504 149.949 118.524C149.487 118.683 148.966 118.803 148.523 118.893C148.317 118.933 148.121 118.973 147.914 119.013C147.698 119.053 147.482 119.103 147.275 119.143C147.128 119.172 146.971 119.202 146.823 119.242C145.084 119.642 143.324 120.021 141.565 120.39C140.995 120.51 140.435 120.63 139.865 120.74H139.845C139.55 120.8 139.206 120.9 138.813 121.019C138.508 121.109 138.174 121.209 137.86 121.289C137.781 121.119 137.702 120.959 137.653 120.84C137.555 120.63 137.466 120.43 137.398 120.281C135.746 116.926 134.479 113.302 133.614 109.469H133.623ZM145.349 127.738C147.904 127.199 149.85 126.75 151.649 126.281C152.248 126.121 152.799 125.941 153.3 125.722C154.706 126.91 156.042 128.157 157.3 129.435C157.428 129.565 157.556 129.695 157.693 129.835C158.391 130.543 159.05 131.202 159.541 131.901C159.757 132.211 159.787 132.241 159.443 133.459C158.991 135.086 158.539 136.693 158.087 138.301L157.448 140.587C157.369 140.597 157.3 140.607 157.232 140.617C156.986 140.657 156.799 140.677 156.642 140.707L152.828 141.505L149.192 142.274L145.545 143.043C145.3 143.093 145.054 143.162 144.808 143.222C144.622 142.913 144.395 142.633 144.13 142.374C143.875 141.775 143.639 141.156 143.403 140.527C142.027 136.793 141.172 132.81 140.847 128.677C141.024 128.637 141.201 128.597 141.368 128.557L141.447 128.537L142.312 128.357C143.324 128.147 144.337 127.948 145.349 127.728V127.738ZM148.838 150.49C150.047 150.241 151.256 149.981 152.465 149.721C153.575 149.482 154.696 149.252 155.806 149.013C156.209 148.933 156.691 148.853 157.202 148.783C157.635 148.723 158.096 148.653 158.578 148.563C158.716 148.693 158.843 148.833 158.981 148.963C160.062 150.031 161.094 151.039 161.979 152.117C162.028 152.177 162.067 152.227 162.087 152.267C162.038 152.447 161.93 152.726 161.89 152.846C161.625 153.565 161.359 154.284 161.084 155.003L160.691 156.071C160.504 156.58 160.337 157.139 160.16 157.718C159.826 158.856 159.315 160.573 158.735 161.053C157.998 161.662 156.17 162.051 155.482 162.191C155.177 162.251 154.873 162.31 154.578 162.37C154.283 162.43 153.998 162.49 153.723 162.54C153.408 162.61 153.153 162.66 152.917 162.72C151.796 162.999 150.656 163.259 149.526 163.508C149.329 163.548 148.985 163.588 148.661 163.628C148.396 163.658 148.101 163.688 147.806 163.738C147.796 163.718 147.776 163.688 147.767 163.668C147.364 162.879 146.843 161.831 146.45 160.743C145.329 157.728 145.034 154.434 145.565 151.159C145.614 151.149 145.673 151.139 145.722 151.129C146.754 150.919 147.786 150.7 148.828 150.49H148.838Z" stroke="#A07A4B" stroke-width="3.42" stroke-miterlimit="10"/>
<path d="M140.66 191.373C138.891 191.743 137.417 190.545 137.024 189.157C136.631 187.769 137.309 186.492 138.705 185.982C142.774 184.495 146.499 182.388 149.801 179.743C147.707 177.177 146.194 174.252 145.29 171.047C145.024 170.987 144.759 170.888 144.513 170.768C144.405 170.858 144.287 170.938 144.169 171.027C142.135 172.475 140.051 173.623 137.79 174.551C137.604 174.631 137.417 174.691 137.22 174.731C135.461 175.101 134.085 173.913 133.682 172.605C133.26 171.217 133.908 169.899 135.294 169.33C136.611 168.791 137.761 168.242 138.803 167.633C138.852 167.603 138.931 167.563 139.039 167.503C140.179 166.874 140.788 166.475 141.113 166.235C141.004 165.966 140.896 165.706 140.798 165.467C140.68 165.177 140.572 164.908 140.474 164.658C138.498 160.036 137.899 155.014 138.724 150.022C137.564 150.522 136.346 150.901 135.097 151.17C134.105 151.38 133.063 151.52 132.001 151.58C130.517 151.67 129.397 150.761 129.22 149.334C129.043 147.916 129.918 146.219 131.677 145.849C131.834 145.819 132.001 145.789 132.169 145.78C132.778 145.75 133.387 145.66 133.977 145.54C135.147 145.29 136.277 144.881 137.348 144.302C135.363 139.26 134.174 133.879 133.82 128.279C133.151 128.458 132.473 128.618 131.785 128.758C129.78 129.177 127.746 129.457 125.564 129.597C124.08 129.696 122.959 128.798 122.773 127.37C122.586 125.943 123.461 124.235 125.249 123.856C125.397 123.826 125.554 123.806 125.711 123.796C127.244 123.696 128.837 123.477 130.429 123.137C130.557 123.107 130.684 123.087 130.812 123.057C129.996 121.33 129.348 119.503 128.758 117.846L128.699 117.686C127.913 115.5 127.264 113.234 126.753 110.928C124.276 111.327 121.75 111.617 119.057 111.806C117.573 111.916 116.453 111.027 116.266 109.61C116.079 108.172 116.954 106.455 118.753 106.076C118.9 106.046 119.047 106.026 119.195 106.016C120.777 105.906 122.389 105.726 124.099 105.477C121.858 101.234 119.981 96.332 120.876 91.0209C117.583 90.5616 114.418 89.6732 111.45 88.3753C110.221 87.8362 109.534 86.6282 109.691 85.2904C109.848 84.0026 110.723 82.9843 111.873 82.7347C112.423 82.6149 113.013 82.6848 113.583 82.9344C116.423 84.1723 119.372 84.9809 122.379 85.3403C122.281 83.3437 122.487 81.3171 123.018 79.3204C123.293 78.2622 124.04 77.5334 125.072 77.3138C126.104 77.0941 127.215 77.4536 127.962 78.2123C128.679 78.9511 128.945 79.9494 128.679 80.9677C128.218 82.7347 128.139 84.5817 128.453 86.4585C130.272 86.808 131.952 87.2072 133.564 87.6665C133.918 87.7663 134.282 87.8661 134.655 87.966C136.641 88.5051 138.852 89.1141 140.729 90.0924C141.093 89.773 141.545 89.5433 142.056 89.4136C142.095 89.4136 142.125 89.3936 142.164 89.3836C142.852 89.2439 143.609 89.3836 144.287 89.7729C144.926 90.1423 145.437 90.8712 145.584 91.6299C145.732 92.3886 145.575 93.1873 145.142 93.8162L144.405 94.9144C144.405 94.9144 144.336 95.0043 144.307 95.0542C144.543 96.0924 144.661 97.1507 144.779 98.0991C144.818 98.4685 144.867 98.8079 144.906 99.1273C144.906 99.1473 144.906 99.1673 144.906 99.1873C147.776 100.555 150.273 101.973 152.523 103.51C152.769 103.68 153.044 103.859 153.32 104.039C155.462 105.447 158.126 107.194 158.362 110.079C158.617 113.264 157.713 116.878 157.054 119.513C157.035 119.573 157.025 119.633 157.005 119.703C159.433 121.69 161.546 123.656 163.443 125.683C165.507 127.889 167.453 130.375 166.519 134.179C166.254 135.257 165.939 136.335 165.635 137.374C165.487 137.873 165.34 138.372 165.202 138.871C165.055 139.4 164.927 139.949 164.78 140.528C164.514 141.626 164.249 142.765 163.826 143.833C163.974 143.973 164.121 144.102 164.268 144.242C165.929 145.799 167.807 147.557 168.78 149.603C169.949 152.079 168.819 154.735 167.905 156.881C167.699 157.37 167.502 157.819 167.345 158.259C167.158 158.758 166.981 159.307 166.794 159.876C166.382 161.144 165.929 162.542 165.241 163.799C166.382 164.668 167.296 165.726 167.954 166.964C168.387 167.773 168.416 168.661 168.033 169.44C167.63 170.269 166.785 170.908 165.821 171.107C164.524 171.377 163.286 170.818 162.676 169.66C162.263 168.881 161.644 168.262 160.986 167.952C160.848 167.893 160.73 167.823 160.602 167.743C159.246 168.282 157.782 168.621 156.465 168.921C156.013 169.031 155.56 169.131 155.138 169.24C153.84 169.57 152.523 169.879 151.226 170.169C152.445 173.952 154.804 177.157 158.076 179.493C159.049 180.192 159.472 181.29 159.207 182.448C158.941 183.626 158.008 184.565 156.887 184.804C156.14 184.964 155.354 184.784 154.686 184.305C154.46 184.145 154.234 183.976 154.008 183.796C150.125 187.011 145.791 189.507 141.122 191.214C140.965 191.274 140.818 191.314 140.66 191.343V191.373ZM147.314 164.928C147.806 164.828 148.336 164.768 148.808 164.708C149.182 164.668 149.526 164.628 149.762 164.578C150.931 164.319 152.081 164.049 153.202 163.769C153.437 163.71 153.703 163.65 153.968 163.6C154.234 163.55 154.519 163.49 154.804 163.43C155.098 163.37 155.403 163.31 155.718 163.25C157.103 162.961 158.637 162.571 159.472 161.863C160.308 161.164 160.828 159.407 161.251 157.989C161.418 157.42 161.575 156.881 161.752 156.412L162.155 155.334C162.421 154.615 162.686 153.906 162.951 153.187C163.345 152.119 163.364 152.029 162.863 151.42C161.939 150.302 160.848 149.224 159.796 148.185C159.521 147.916 159.256 147.646 158.981 147.387H158.961C158.322 147.527 157.683 147.616 157.064 147.716C156.533 147.796 156.032 147.866 155.6 147.966C154.469 148.205 153.349 148.445 152.229 148.675C151.02 148.934 149.821 149.184 148.612 149.443C147.589 149.663 146.558 149.873 145.535 150.082C145.221 150.142 144.926 150.202 144.631 150.252C143.884 153.966 144.159 157.72 145.427 161.144C145.752 162.032 146.174 162.971 146.803 164.179C146.882 164.329 146.97 164.478 147.059 164.628C147.118 164.728 147.187 164.838 147.255 164.957C147.275 164.957 147.295 164.958 147.304 164.948L147.314 164.928ZM156.868 141.766C156.966 141.746 157.153 141.716 157.379 141.686C157.674 141.646 158.067 141.586 158.362 141.527C158.362 141.487 158.371 141.457 158.381 141.427C158.411 141.277 158.44 141.127 158.47 140.997L159.197 138.422C159.639 136.864 160.072 135.307 160.514 133.75C160.878 132.442 160.966 131.992 160.455 131.274C159.905 130.515 159.197 129.786 158.499 129.087L158.116 128.698C156.671 127.221 155.118 125.803 153.487 124.455C152.877 124.785 152.179 125.044 151.383 125.254C149.604 125.723 147.678 126.162 145.132 126.701C144.12 126.911 143.108 127.121 142.095 127.33L141.162 127.52C140.818 127.59 140.454 127.68 140.09 127.77C139.953 127.799 139.815 127.839 139.687 127.869C139.953 132.432 140.857 136.824 142.371 140.938C142.636 141.656 142.911 142.365 143.206 143.044C143.678 143.443 144.012 143.963 144.159 144.522C144.218 144.522 144.287 144.502 144.366 144.482C144.602 144.432 144.847 144.362 145.073 144.302C145.319 144.232 145.565 144.172 145.771 144.132L156.868 141.796V141.766ZM137.27 122.518C137.358 122.518 137.496 122.488 137.702 122.448C138.154 122.359 138.675 122.199 139.137 122.059C139.51 121.949 139.835 121.849 140.08 121.8C140.67 121.68 141.24 121.56 141.81 121.44C143.57 121.071 145.349 120.681 147.078 120.292C147.216 120.262 147.363 120.232 147.511 120.202C147.717 120.162 147.933 120.112 148.14 120.072C148.346 120.032 148.553 119.993 148.759 119.943C149.241 119.843 149.791 119.713 150.322 119.533C150.99 119.304 151.079 119.114 151.383 117.896V117.846C151.924 115.73 152.523 113.324 152.415 111.277C152.356 110.159 150.007 108.771 148.749 108.023C148.415 107.823 148.11 107.643 147.845 107.473C146.155 106.395 144.415 105.427 142.656 104.578C142.144 104.928 141.545 105.237 140.837 105.517C138.793 106.315 136.719 107.114 134.704 107.883C133.918 108.182 133.132 108.482 132.355 108.781C133.23 113.034 134.596 117.057 136.414 120.741C136.483 120.891 136.572 121.071 136.66 121.27C136.798 121.57 137.083 122.209 137.279 122.498L137.27 122.518ZM126.625 92.0292C125.957 95.7031 127.52 99.327 129.151 102.422C129.181 102.472 129.269 102.622 129.397 102.831C129.515 103.021 129.662 103.26 129.81 103.52C130.026 103.44 130.242 103.38 130.439 103.32C130.606 103.27 130.763 103.231 130.891 103.181L137.004 100.825C137.191 100.755 137.417 100.675 137.663 100.605C138.046 100.485 138.832 100.226 139.049 100.026C139.098 99.7164 138.881 98.9077 138.773 98.5084C138.705 98.2388 138.636 97.9892 138.587 97.7696C138.547 97.55 138.508 97.3004 138.469 97.0309C138.4 96.5117 138.292 95.733 138.085 95.4834C137.869 95.2139 136.817 94.8844 136.316 94.7247C136.071 94.6448 135.835 94.575 135.648 94.5051C132.739 93.4469 129.702 92.6282 126.625 92.0492V92.0292Z" fill="#543816"/>
<path d="M125.269 78.3805C126.458 78.1309 127.982 79.1592 127.579 80.7067C127.038 82.7832 126.989 84.8896 127.392 86.9762C127.422 87.1159 127.431 87.2457 127.431 87.3755C129.378 87.7349 131.314 88.1642 133.22 88.7033C135.687 89.4022 138.754 90.101 140.956 91.4986C141.014 91.4188 141.064 91.3289 141.123 91.2491C141.398 90.8397 141.82 90.5801 142.302 90.4603C142.322 90.4603 142.341 90.4504 142.361 90.4504C142.823 90.3506 143.295 90.4903 143.688 90.7099C144.081 90.9395 144.386 91.4188 144.474 91.848C144.563 92.2773 144.464 92.8264 144.199 93.2158C143.953 93.5851 143.707 93.9446 143.462 94.314C143.354 94.4737 143.216 94.6134 143.059 94.7232C143.481 96.2806 143.609 98.0277 143.786 99.2756C143.816 99.4853 143.835 99.6949 143.845 99.8946C146.636 101.202 149.329 102.66 151.875 104.397C153.909 105.785 157.025 107.462 157.251 110.168C157.487 113.093 156.681 116.427 155.973 119.262C155.905 119.552 155.816 119.821 155.728 120.081C158.165 122.038 160.485 124.134 162.618 126.41C164.731 128.677 166.215 130.743 165.438 133.918C165.055 135.485 164.573 137.033 164.131 138.58C163.65 140.287 163.345 142.214 162.627 143.851C162.588 143.931 162.549 144.011 162.5 144.091C164.367 145.888 166.706 147.825 167.768 150.071C168.967 152.597 167.188 155.502 166.293 157.888C165.566 159.825 165.016 162.29 163.758 164.107C165.104 164.936 166.195 166.024 166.962 167.462C167.62 168.71 166.687 169.808 165.596 170.038C164.878 170.187 164.092 169.958 163.65 169.139C163.168 168.241 162.401 167.402 161.468 166.963C161.202 166.843 160.966 166.683 160.77 166.483C158.912 167.332 156.711 167.711 154.863 168.181C153.261 168.59 151.659 168.959 150.037 169.309C149.968 169.329 149.89 169.339 149.811 169.359C150.961 173.811 153.605 177.675 157.389 180.37C158.853 181.419 157.988 183.445 156.652 183.735C156.239 183.825 155.787 183.735 155.335 183.425C154.873 183.096 154.421 182.736 153.978 182.377C150.067 185.761 145.604 188.407 140.729 190.204C140.621 190.244 140.523 190.274 140.425 190.294C138.361 190.723 136.936 187.768 139.068 186.989C143.59 185.332 147.698 182.956 151.344 179.851C148.858 177.066 147.088 173.731 146.155 170.038C146.115 170.038 146.066 170.038 146.027 170.038C145.418 170.018 144.887 169.778 144.415 169.409C144.13 169.658 143.816 169.908 143.491 170.127C141.565 171.495 139.53 172.633 137.339 173.522C137.211 173.572 137.093 173.612 136.965 173.642C134.96 174.061 133.594 171.156 135.678 170.307C136.936 169.798 138.154 169.219 139.334 168.54C139.678 168.34 142.007 167.132 142.39 166.414C142.027 165.595 141.732 164.796 141.476 164.187C139.265 159.026 138.882 153.435 140.238 147.984C138.557 148.973 136.759 149.662 134.852 150.061C133.899 150.261 132.926 150.39 131.923 150.45C129.663 150.58 129.81 147.305 131.864 146.866C131.962 146.846 132.071 146.826 132.189 146.826C132.857 146.786 133.515 146.697 134.164 146.567C135.776 146.227 137.309 145.598 138.695 144.71C136.326 139.009 135.068 132.979 134.823 126.81C133.732 127.139 132.641 127.419 131.53 127.648C129.535 128.068 127.52 128.327 125.466 128.467C123.195 128.617 123.363 125.322 125.426 124.883C125.525 124.863 125.623 124.853 125.731 124.843C127.373 124.733 128.994 124.504 130.606 124.164C131.206 124.034 131.795 123.905 132.385 123.745C131.284 121.688 130.459 119.362 129.712 117.276C128.817 114.78 128.11 112.244 127.589 109.648C124.729 110.148 121.859 110.477 118.959 110.687C116.689 110.846 116.856 107.542 118.93 107.103C119.028 107.083 119.126 107.073 119.225 107.063C121.426 106.903 123.608 106.633 125.79 106.274C122.969 101.252 120.728 95.8913 122.173 90.0511C118.615 89.6717 115.156 88.7832 111.883 87.3555C110.104 86.5768 110.615 84.081 112.07 83.7815C112.374 83.7216 112.718 83.7515 113.092 83.9113C116.433 85.3688 119.913 86.2574 123.579 86.5369C123.294 84.2008 123.461 81.8747 124.07 79.5586C124.257 78.8497 124.729 78.4704 125.259 78.3605M129.348 104.906C129.427 104.876 129.505 104.846 129.594 104.816C130.016 104.487 130.803 104.347 131.294 104.158C133.329 103.369 135.373 102.59 137.407 101.801C138.194 101.492 139.806 101.162 140.091 100.384C140.366 99.635 139.825 98.2573 139.678 97.5186C139.521 96.7199 139.491 95.4121 138.97 94.7632C138.43 94.0943 136.867 93.7449 136.041 93.4454C132.69 92.2374 129.24 91.3289 125.721 90.7399C125.721 90.8797 125.702 91.0294 125.662 91.1892C124.65 95.3023 126.262 99.3456 128.159 102.92C128.228 103.049 128.886 104.118 129.338 104.916M137.899 123.505C138.754 123.326 139.806 122.956 140.277 122.856C140.277 122.856 140.277 122.856 140.287 122.856C140.857 122.736 141.427 122.617 141.997 122.497C143.766 122.128 145.526 121.738 147.295 121.339C147.433 121.309 147.57 121.279 147.708 121.249C148.12 121.159 148.533 121.079 148.956 120.999C149.536 120.88 150.106 120.74 150.646 120.56C151.934 120.121 152.131 119.352 152.435 118.134C152.966 115.988 153.615 113.422 153.497 111.206C153.389 109.209 150.027 107.572 148.435 106.553C146.558 105.355 144.602 104.277 142.587 103.329C142.558 103.319 142.538 103.299 142.508 103.289C141.968 103.768 141.27 104.167 140.415 104.497C137.368 105.695 134.302 106.853 131.245 108.031C131.186 108.051 131.127 108.081 131.058 108.101C131.923 112.653 133.329 117.056 135.393 121.219C135.717 121.868 136.257 123.326 136.778 123.535C137.004 123.625 137.427 123.585 137.909 123.485M144.907 125.582C143.609 125.851 142.312 126.121 141.014 126.38C140.985 126.38 140.956 126.39 140.926 126.4C140.199 126.55 139.422 126.76 138.646 126.93C138.607 126.93 138.557 126.949 138.518 126.959C138.715 131.831 139.629 136.693 141.309 141.266C141.604 142.074 141.929 142.883 142.273 143.682C142.833 144.061 143.196 144.71 143.118 145.359C143.275 145.519 143.501 145.588 143.894 145.588C144.101 145.588 144.327 145.548 144.572 145.498C145.054 145.399 145.575 145.229 145.978 145.149C148.406 144.64 150.833 144.131 153.261 143.622L157.074 142.823C157.281 142.783 158.037 142.693 158.578 142.583C158.853 142.523 159.079 142.464 159.148 142.394C159.433 142.124 159.433 141.635 159.531 141.266C160.21 138.85 160.898 136.434 161.566 134.008C161.93 132.7 162.185 131.791 161.35 130.623C160.652 129.645 159.748 128.776 158.902 127.918C157.222 126.201 155.443 124.593 153.575 123.086C152.907 123.555 152.091 123.915 151.099 124.174C149.054 124.713 146.98 125.172 144.907 125.602M146.666 166.264C146.892 166.144 147.187 166.054 147.511 165.994C148.327 165.825 149.339 165.775 149.958 165.645C149.968 165.645 149.978 165.645 149.998 165.645C151.148 165.395 152.298 165.126 153.448 164.836C153.674 164.776 153.919 164.726 154.175 164.677C154.715 164.567 155.315 164.447 155.924 164.327C157.497 163.998 159.148 163.558 160.17 162.7C161.645 161.472 162.146 158.497 162.785 156.78C163.188 155.701 163.591 154.633 163.984 153.555C164.426 152.357 164.583 151.778 163.718 150.74C162.392 149.132 160.799 147.685 159.335 146.187C159.138 146.237 158.932 146.287 158.735 146.327C157.566 146.577 156.357 146.687 155.384 146.896C153.064 147.385 150.735 147.885 148.415 148.374C147.383 148.593 146.361 148.803 145.329 149.013C144.789 149.122 144.248 149.232 143.717 149.272C142.754 153.335 142.941 157.608 144.386 161.522C144.789 162.6 145.28 163.648 145.811 164.677C146.057 165.156 146.45 165.665 146.607 166.174C146.636 166.214 146.656 166.244 146.686 166.274M124.827 76.2641C123.392 76.5636 122.301 77.6218 121.918 79.0794C121.485 80.7466 121.249 82.4238 121.22 84.091C118.763 83.6817 116.345 82.9729 114.016 81.9546C113.239 81.6151 112.414 81.5253 111.627 81.685C109.996 82.0244 108.767 83.4321 108.561 85.1892C108.345 87.0061 109.288 88.6534 110.959 89.3822C113.691 90.5802 116.601 91.4388 119.608 91.9379C119.117 96.5502 120.522 100.813 122.38 104.607C121.259 104.747 120.168 104.846 119.097 104.926C118.891 104.936 118.694 104.966 118.497 105.006C116.591 105.405 114.802 107.292 115.126 109.758C115.392 111.755 117.023 113.043 119.087 112.893C121.446 112.723 123.677 112.484 125.859 112.164C126.341 114.171 126.93 116.147 127.618 118.064L127.677 118.234C128.139 119.512 128.631 120.9 129.21 122.267C128.002 122.487 126.793 122.637 125.623 122.717C125.417 122.726 125.2 122.756 124.994 122.806C122.576 123.316 121.387 125.602 121.633 127.528C121.888 129.525 123.51 130.823 125.584 130.683C127.825 130.534 129.908 130.254 131.962 129.825C132.228 129.765 132.493 129.705 132.768 129.645C133.191 134.557 134.252 139.289 135.913 143.771C135.206 144.081 134.469 144.311 133.722 144.47C133.181 144.58 132.631 144.66 132.08 144.69C131.854 144.7 131.638 144.73 131.422 144.78C129.024 145.279 127.844 147.555 128.08 149.472C128.326 151.469 129.948 152.776 132.021 152.667C133.132 152.607 134.233 152.457 135.284 152.237C135.992 152.087 136.68 151.908 137.358 151.688C136.906 156.281 137.604 160.853 139.422 165.106C139.521 165.335 139.619 165.585 139.727 165.855C139.422 166.044 139.019 166.274 138.489 166.573C138.371 166.643 138.282 166.693 138.223 166.723C137.221 167.302 136.12 167.841 134.852 168.35C132.935 169.129 132.002 171.026 132.591 172.953C133.23 175.029 135.294 176.257 137.407 175.818C137.663 175.768 137.918 175.688 138.174 175.578C140.385 174.68 142.44 173.562 144.435 172.174C145.29 174.87 146.568 177.345 148.238 179.592C145.251 181.858 141.919 183.665 138.312 184.993C136.366 185.711 135.383 187.558 135.933 189.495C136.464 191.352 138.449 192.969 140.857 192.47C141.064 192.43 141.28 192.37 141.476 192.29C145.988 190.633 150.194 188.267 153.998 185.242C154.922 185.901 156.013 186.141 157.074 185.921C158.617 185.602 159.895 184.314 160.259 182.726C160.613 181.169 160.023 179.612 158.706 178.673C155.954 176.706 153.89 174.081 152.661 171.006C153.566 170.796 154.48 170.577 155.374 170.347C155.787 170.247 156.219 170.137 156.681 170.038C157.88 169.758 159.207 169.449 160.485 168.999C160.917 169.209 161.369 169.678 161.664 170.227C162.509 171.815 164.22 172.593 166.018 172.224C167.335 171.944 168.456 171.096 169.016 169.948C169.547 168.859 169.507 167.602 168.918 166.493C168.318 165.375 167.551 164.397 166.598 163.548C167.109 162.44 167.483 161.302 167.827 160.244C168.013 159.685 168.18 159.146 168.357 158.667C168.515 158.257 168.701 157.808 168.898 157.339C169.841 155.122 171.129 152.097 169.753 149.192C168.711 146.996 166.795 145.179 165.075 143.572C165.379 142.653 165.605 141.725 165.822 140.816C165.959 140.247 166.087 139.708 166.225 139.199C166.362 138.7 166.51 138.211 166.657 137.712C166.962 136.653 167.286 135.565 167.551 134.467C168.613 130.144 166.382 127.309 164.22 124.993C162.421 123.076 160.445 121.219 158.195 119.352C158.853 116.687 159.669 113.202 159.413 110.038C159.138 106.643 156.111 104.647 153.89 103.199C153.615 103.019 153.359 102.85 153.113 102.68C150.951 101.202 148.573 99.8447 145.88 98.5269C145.86 98.3672 145.84 98.1974 145.821 98.0177C145.722 97.2191 145.614 96.2806 145.427 95.3222L145.634 95.0127L146.007 94.4637C146.597 93.5951 146.823 92.467 146.617 91.4587C146.401 90.4004 145.703 89.4221 144.798 88.893C143.875 88.3638 142.843 88.1742 141.879 88.3739C141.83 88.3838 141.771 88.3938 141.722 88.4138C141.309 88.5236 140.926 88.6734 140.572 88.873C138.754 88.0145 136.729 87.4653 134.901 86.9662C134.528 86.8663 134.164 86.7665 133.82 86.6667C132.405 86.2674 130.95 85.9179 129.387 85.5985C129.23 84.1209 129.328 82.6734 129.692 81.2757C130.056 79.888 129.692 78.5203 128.709 77.512C127.697 76.4737 126.193 76.0145 124.797 76.304L124.827 76.2641ZM130.134 101.891C128.758 99.2956 127.451 96.3206 127.599 93.3356C130.213 93.8846 132.778 94.6134 135.265 95.5119C135.491 95.5918 135.727 95.6717 135.982 95.7516C136.297 95.8514 136.906 96.0411 137.221 96.1908C137.289 96.4504 137.348 96.9096 137.388 97.1692C137.427 97.4387 137.457 97.7083 137.516 97.9778C137.565 98.2374 137.643 98.5069 137.712 98.7865C137.751 98.9462 137.81 99.1658 137.869 99.3755C137.683 99.4453 137.486 99.5053 137.348 99.5452C137.093 99.6251 136.857 99.705 136.631 99.7948L130.518 102.151C130.518 102.151 130.419 102.191 130.341 102.211C130.252 102.061 130.183 101.941 130.144 101.881L130.134 101.891ZM133.623 109.469C134.115 109.279 134.606 109.089 135.098 108.9C137.103 108.131 139.186 107.332 141.221 106.534C141.761 106.324 142.253 106.094 142.695 105.835C144.228 106.593 145.742 107.452 147.216 108.4C147.501 108.58 147.816 108.77 148.15 108.969C148.877 109.399 151.079 110.707 151.295 111.395C151.384 113.272 150.814 115.578 150.302 117.615V117.665C150.224 117.944 150.126 118.314 150.057 118.484C150.027 118.494 149.998 118.504 149.949 118.524C149.487 118.683 148.966 118.803 148.523 118.893C148.317 118.933 148.121 118.973 147.914 119.013C147.698 119.053 147.482 119.103 147.275 119.143C147.128 119.172 146.971 119.202 146.823 119.242C145.084 119.642 143.324 120.021 141.565 120.39C140.995 120.51 140.435 120.63 139.865 120.74H139.845C139.55 120.8 139.206 120.9 138.813 121.019C138.508 121.109 138.174 121.209 137.86 121.289C137.781 121.119 137.702 120.959 137.653 120.84C137.555 120.63 137.466 120.43 137.398 120.281C135.746 116.926 134.479 113.302 133.614 109.469H133.623ZM145.349 127.738C147.904 127.199 149.85 126.75 151.649 126.281C152.248 126.121 152.799 125.941 153.3 125.722C154.706 126.91 156.042 128.157 157.3 129.435C157.428 129.565 157.556 129.695 157.693 129.835C158.391 130.543 159.05 131.202 159.541 131.901C159.757 132.211 159.787 132.241 159.443 133.459C158.991 135.086 158.539 136.693 158.087 138.301L157.448 140.587C157.369 140.597 157.3 140.607 157.232 140.617C156.986 140.657 156.799 140.677 156.642 140.706L152.828 141.505L149.192 142.274L145.545 143.043C145.3 143.093 145.054 143.162 144.808 143.222C144.622 142.913 144.395 142.633 144.13 142.374C143.875 141.775 143.639 141.156 143.403 140.527C142.027 136.793 141.172 132.81 140.847 128.677C141.024 128.637 141.201 128.597 141.368 128.557L141.447 128.537L142.312 128.357C143.324 128.147 144.337 127.948 145.349 127.728V127.738ZM148.838 150.49C150.047 150.241 151.256 149.981 152.465 149.721C153.575 149.482 154.696 149.252 155.806 149.013C156.209 148.933 156.691 148.853 157.202 148.783C157.635 148.723 158.096 148.653 158.578 148.563C158.716 148.693 158.843 148.833 158.981 148.963C160.062 150.031 161.094 151.039 161.979 152.117C162.028 152.177 162.067 152.227 162.087 152.267C162.038 152.447 161.93 152.726 161.89 152.846C161.625 153.565 161.359 154.284 161.084 155.003L160.691 156.071C160.504 156.58 160.337 157.139 160.16 157.718C159.826 158.856 159.315 160.573 158.735 161.053C157.998 161.662 156.17 162.051 155.482 162.191C155.177 162.251 154.873 162.31 154.578 162.37C154.283 162.43 153.998 162.49 153.723 162.54C153.408 162.61 153.153 162.66 152.917 162.72C151.796 162.999 150.656 163.259 149.526 163.508C149.329 163.548 148.985 163.588 148.661 163.628C148.396 163.658 148.101 163.688 147.806 163.738C147.796 163.718 147.776 163.688 147.767 163.668C147.364 162.879 146.843 161.831 146.45 160.743C145.329 157.728 145.034 154.434 145.565 151.159C145.614 151.149 145.673 151.139 145.722 151.129C146.754 150.919 147.786 150.7 148.828 150.49H148.838Z" fill="#725225"/>
</g>
<path d="M105.73 90.4449C105.73 90.4449 112.787 102.844 117.299 114.525C130.872 149.686 138.479 205.563 138.479 205.563C186.029 176.012 172.407 123.4 153.369 97.2036C153.369 97.2036 143.953 77.4266 113.485 72.0156L113.141 84.8942L105.73 90.4249V90.4449Z" stroke="#543816" stroke-width="4.22" stroke-linecap="round" stroke-linejoin="round"/>
<path d="M141.84 218.452C139.481 219.041 136.916 219.73 134.734 218.582C135.619 217.673 136.336 216.595 136.779 215.327C136.887 215.008 136.916 214.698 136.877 214.429C137.526 214.309 138.164 214.189 138.803 214.059C141.103 213.6 140.445 209.946 138.145 210.415C136.572 210.735 135 211.044 133.407 211.234C132.484 211.344 129.722 211.833 128.749 211.164C128.886 210.665 128.965 210.136 128.994 209.587C129.103 207.211 125.476 206.881 125.368 209.267C125.23 212.282 121.987 214.169 119.589 215.267C117.76 216.106 118.665 218.691 120.316 218.781C120.394 219.031 120.542 219.28 120.788 219.51C121.908 220.588 123.078 221.686 124.572 222.196C124.611 222.206 124.65 222.216 124.69 222.226C124.139 222.775 123.235 223.284 122.802 223.553C121.81 224.192 120.768 224.741 119.736 225.3C117.672 226.408 119.245 229.763 121.328 228.635C123.992 227.197 128.051 225.44 128.7 222.096C129.122 221.966 129.545 221.816 129.958 221.646C130.518 221.417 131.068 221.167 131.599 220.878C131.638 220.918 131.687 220.958 131.737 220.998C132.375 221.537 133.054 221.936 133.751 222.226C132.719 224.442 130.793 226.029 128.405 226.548C126.115 227.047 126.773 230.701 129.063 230.192C132.926 229.344 136.041 226.638 137.437 222.874C139.128 222.864 140.857 222.515 142.509 222.096C144.769 221.527 144.13 217.873 141.85 218.452H141.84ZM129.387 217.843C128.414 218.312 127.324 218.851 126.223 218.741C125.201 218.632 124.424 217.923 123.697 217.234C124.935 216.445 126.115 215.487 127.039 214.369C128.415 215.097 130.105 215.097 131.678 215.048C132.1 215.038 132.523 215.008 132.936 214.968C132.14 216.315 130.793 217.164 129.378 217.843H129.387Z" fill="#C9A265"/>
<g opacity="0.44">
<path d="M108.158 143.662C103.028 145.489 97.8972 147.306 92.7569 149.103C87.8131 150.84 82.8497 152.797 77.6996 153.825C77.159 153.935 76.6184 154.035 76.068 154.125C75.0262 146.657 74.122 139.169 73.3456 131.672C73.208 130.314 73.0703 128.957 72.9426 127.599C73.2964 127.529 73.6601 127.439 74.0238 127.349C78.6137 126.131 82.9087 123.805 87.1546 121.759C91.7052 119.562 96.2263 117.306 100.747 115.05C102.91 113.972 101.298 110.637 99.1257 111.715C95.0469 113.752 90.9681 115.788 86.8598 117.775C82.7318 119.782 78.535 122.118 74.1417 123.476C73.6208 123.635 73.1097 123.765 72.5986 123.875C72.1956 119.422 71.832 114.97 71.5175 110.507C71.3504 108.131 67.6549 108.84 67.822 111.196C68.1266 115.559 68.4805 119.922 68.8736 124.274C62.6424 124.334 56.6273 121.469 51.0643 118.754C48.902 117.695 47.6342 121.209 49.767 122.248C55.8017 125.193 62.4064 128.188 69.2176 128.018C70.0628 136.843 71.1047 145.649 72.3136 154.424C71.7239 154.414 71.144 154.374 70.5641 154.284C68.0873 153.925 65.7481 152.677 63.4876 151.699C58.6323 149.592 53.7868 147.486 48.9316 145.379C46.7201 144.421 45.4424 147.925 47.6342 148.873C52.7057 151.07 57.7772 153.276 62.8487 155.472C65.2371 156.511 67.6057 157.609 70.2103 157.978C71.0654 158.098 71.9401 158.138 72.8246 158.128C74.1318 167.193 75.6159 176.228 77.3064 185.223C77.4539 185.991 77.6013 186.76 77.7487 187.529C71.9204 186.451 66.5049 182.617 60.6471 181.659C58.2588 181.269 57.9345 184.973 60.3031 185.362C66.7506 186.421 72.1563 190.474 78.4957 191.352C79.4687 196.254 80.4909 201.146 81.5819 206.028C82.093 208.354 85.7983 207.665 85.2774 205.339C84.2552 200.727 83.2822 196.094 82.3583 191.462C82.6138 191.442 82.8694 191.412 83.1347 191.372C87.9016 190.713 92.6291 188.737 97.1993 187.289C102.271 185.692 107.352 184.094 112.424 182.497C114.704 181.778 114.075 178.124 111.765 178.853C106.93 180.381 102.084 181.898 97.2485 183.426C92.6193 184.883 87.9212 186.77 83.1446 187.619C82.6335 187.708 82.1323 187.768 81.6408 187.798C79.7145 177.835 78.0239 167.832 76.5693 157.798C76.933 157.738 77.2868 157.679 77.6406 157.619C83.007 156.64 88.1768 154.604 93.3073 152.817C98.8014 150.9 104.276 148.953 109.76 147.006C112.04 146.198 110.409 142.873 108.138 143.672L108.158 143.662Z" fill="#CEBEA7"/>
<path d="M103.293 122.307C102.978 121.388 101.602 121.019 100.787 121.458C94.8404 124.713 88.7074 127.578 82.3975 130.054C81.9847 130.213 81.7095 130.453 81.5326 130.743C80.5989 131.092 79.8127 132.12 80.2255 133.318C81.3361 136.533 81.857 139.907 81.798 143.312C81.7783 144.4 82.7317 145.648 83.9996 145.288C91.5774 143.122 98.6539 139.847 105.229 135.525C106.242 134.856 106.124 133.817 105.504 133.119C105.662 131.901 105.327 130.513 105.151 129.405C104.748 126.979 104.089 124.633 103.293 122.317V122.307Z" fill="#CEBEA7"/>
<path d="M62.7799 129.463C59.6446 128.635 56.4995 127.806 53.3642 126.977C53.1873 126.927 53.0104 126.907 52.8531 126.907C52.5582 126.698 52.2634 126.488 51.9587 126.279C50.5827 125.38 49.0888 126.478 49.0299 127.916C48.2141 128.285 47.9094 129.333 48.1944 130.212C47.4966 132.558 46.553 134.984 46.1599 137.39C45.8454 139.307 47.0641 140.365 48.8038 140.794C53.6492 141.992 58.3571 143.25 62.9765 145.127C64.5196 145.756 65.984 143.969 65.3156 142.561C65.178 142.282 65.0601 141.992 64.9422 141.713C64.6867 139.526 64.4508 137.34 64.1854 135.154C64.0969 134.415 63.9691 133.786 63.7234 133.227C63.7922 132.608 63.8807 131.979 64.0085 131.35C64.1559 130.611 63.5171 129.643 62.7898 129.453L62.7799 129.463Z" fill="#CEBEA7"/>
<path d="M67.0552 169.851C66.78 167.894 67.0847 165.727 66.5933 163.841C66.1314 162.103 64.7554 161.544 63.2123 160.895C61.0795 159.987 58.9467 159.088 56.8041 158.18C54.7991 157.331 52.7941 156.323 50.7399 155.604C49.2362 155.085 47.7324 155.415 46.9953 156.932C46.1303 158.699 46.3957 160.606 47.1132 162.403C47.5456 164.38 47.9781 166.366 48.4106 168.343C48.8725 170.45 49.0592 172.436 51.2706 173.365C56.0964 175.391 61.2564 176.869 66.21 178.606C67.8906 179.195 69.0602 177.498 68.5492 176.04C67.8513 174.034 67.3599 171.957 67.065 169.861L67.0552 169.851Z" fill="#CEBEA7"/>
</g>
<path d="M90.3981 142.986C92.2262 137.525 96.4721 124.786 99.7548 121.372C103.038 117.958 109.888 123.389 111.726 129.209C113.564 135.019 118.114 157.951 111.647 173.994C105.18 190.038 74.4366 194.949 75.2917 188.909C76.1467 182.87 87.1055 152.84 90.3981 142.996V142.986Z" fill="#DBBB82" stroke="#543816" stroke-width="4.22" stroke-linecap="round" stroke-linejoin="round"/>
<path d="M109.475 153.356C106.37 151.768 103.686 149.552 101.711 146.707C102.615 145.369 103.274 143.841 103.618 142.214C104.6 142.284 105.613 142.224 106.625 142.044C109.446 141.535 108.669 137.223 105.839 137.722C103.431 138.151 100.974 137.492 99.2439 135.775C97.2389 133.798 93.8382 136.663 95.8629 138.66C96.9047 139.688 98.0743 140.507 99.352 141.096C99.3324 141.166 99.3225 141.226 99.3029 141.306C98.7427 144.72 95.8826 147.216 92.4917 147.695C89.6513 148.094 90.4376 152.417 93.278 152.018C95.2535 151.738 97.062 150.99 98.5953 149.901C99.6961 151.359 100.934 152.697 102.31 153.875C102.124 154.074 101.966 154.314 101.849 154.603C101.298 155.961 100.944 157.369 100.767 158.787C100.502 158.876 100.227 159.026 99.9712 159.246C97.1898 161.652 93.5041 161.851 89.9953 162.091C87.1451 162.281 87.951 166.593 90.7816 166.414C91.391 166.374 92.0003 166.324 92.6097 166.264C92.1871 167.492 92.0888 168.85 92.1379 170.237C92.1674 170.966 92.2166 171.705 92.2755 172.434C91.9217 172.514 91.5777 172.693 91.2435 173.023C89.1697 175.109 86.7519 176.507 83.8525 177.136C81.0514 177.745 81.8278 182.058 84.6388 181.459C87.7348 180.79 90.5752 179.432 92.9635 177.415C93.1306 178.274 93.3075 179.133 93.5041 179.991C94.1528 182.727 98.5363 181.928 97.8876 179.173C97.3765 176.986 96.9736 174.78 96.7377 172.544C96.5509 170.717 95.9219 167.921 97.5927 166.583C98.1333 166.154 98.3692 165.635 98.3987 165.116C99.2833 164.806 100.148 164.417 100.974 163.928C101.288 165.495 101.839 167.013 102.625 168.45C103.971 170.916 108.001 168.999 106.635 166.514C104.876 163.299 104.62 159.845 105.898 156.42C106.242 156.62 106.576 156.81 106.93 156.99C109.436 158.267 112.001 154.653 109.475 153.356Z" fill="#C9A265"/>
</svg>
