<svg width="21" height="15" viewBox="0 0 21 15" fill="none" xmlns="http://www.w3.org/2000/svg">
<path d="M20.4908 3.20176C19.9142 3.06685 19.5955 2.79455 19.3694 2.2091C18.4092 -0.287391 14.7459 -0.77753 12.9354 1.30309C12.8164 1.44047 12.7026 1.58281 12.5704 1.70906C10.4663 3.7117 8.35821 5.71063 6.25279 7.71203C6.1774 7.78382 6.10863 7.8618 5.99754 7.97938C7.33063 8.08087 8.59626 8.08706 9.8566 7.90759C10.7374 7.78258 11.6076 7.61425 12.2583 6.84191C12.1644 7.35557 11.9448 7.73184 11.5666 7.9472C11.0138 8.26158 10.4306 8.56854 9.81693 8.74553C8.29208 9.18493 6.70773 9.16883 5.12998 9.1218C4.88664 9.11437 4.71207 9.16388 4.53353 9.33469C3.09862 10.7123 1.65313 12.0787 0.2116 13.4489C0.13754 13.5194 0.0727376 13.5974 0 13.6754C1.03287 13.8586 1.92821 13.7125 2.61062 12.9303C2.65823 12.8758 2.70981 12.8139 2.77461 12.7855C2.94653 12.71 3.12507 12.5949 3.30229 12.5936C5.54657 12.58 7.79086 12.5874 10.0351 12.5763C10.2785 12.5763 10.424 12.6444 10.5641 12.8276C11.0707 13.4897 11.593 14.1395 12.1115 14.7943C12.2662 14.9899 12.458 15.0839 12.6894 14.9144C12.9023 14.7596 12.8693 14.5703 12.7225 14.3846C12.5056 14.1098 12.2887 13.8338 12.0718 13.5578C11.8245 13.2434 11.5759 12.929 11.3166 12.601C11.8152 12.4451 12.1392 12.5206 12.4183 12.9216C12.8719 13.5727 13.3956 14.1816 13.8902 14.8067C14.0384 14.9936 14.2261 15.0715 14.4417 14.9255C14.6573 14.7807 14.6401 14.5876 14.4999 14.397C14.4139 14.2806 14.3227 14.168 14.2328 14.0541C13.8625 13.585 13.4908 13.1147 13.1179 12.6419C13.6363 12.5726 14.1137 12.5392 14.5766 12.4414C17.7638 11.7594 19.6484 8.8594 18.5031 6.08813C18.4648 5.99531 18.5243 5.81955 18.6036 5.73786C19.0282 5.30342 19.3363 4.81575 19.5214 4.25011C19.5651 4.1152 19.7039 3.97657 19.8388 3.90602C20.188 3.72408 20.5596 3.57926 21.0026 3.3837C20.7712 3.30078 20.6363 3.23641 20.4922 3.203L20.4908 3.20176ZM17.535 3.66591C17.2005 3.66591 16.9293 3.28592 16.9293 2.81683C16.9293 2.34773 17.2005 1.96775 17.535 1.96775C17.8696 1.96775 18.1408 2.34773 18.1408 2.81683C18.1408 3.28592 17.8696 3.66591 17.535 3.66591Z" fill="#543816"/>
</svg>
