<svg width="20" height="20" viewBox="0 0 20 20" fill="none" xmlns="http://www.w3.org/2000/svg">
<path fill-rule="evenodd" clip-rule="evenodd" d="M0 10.015C0 4.74712 4.21 0 10.02 0C15.7 0 20 4.65699 20 9.98498C20 16.1642 14.96 20 10 20C8.36 20 6.54 19.5593 5.08 18.698C4.57 18.3876 4.14 18.1572 3.59 18.3375L1.57 18.9384C1.06 19.0986 0.6 18.698 0.75 18.1572L1.42 15.9139C1.53 15.6034 1.51 15.2729 1.35 15.0125C0.49 13.4301 0 11.6975 0 10.015ZM13.3105 10.0133C13.3105 10.7144 13.8805 11.2953 14.5905 11.2953C15.3005 11.2953 15.8705 10.7144 15.8705 10.0133C15.8705 9.30227 15.3005 8.73141 14.5905 8.73141C13.8805 8.73141 13.3105 9.30227 13.3105 10.0133ZM8.7002 10.0034C8.7002 10.7145 9.2702 11.2854 9.9802 11.2954C10.6902 11.2954 11.2602 10.7145 11.2602 10.0135C11.2602 9.30239 10.6902 8.73154 9.9802 8.73154C9.2802 8.72152 8.7002 9.30239 8.7002 10.0034ZM5.36984 11.313C4.66984 11.313 4.08984 10.7322 4.08984 10.0311C4.08984 9.32006 4.65984 8.7492 5.36984 8.7492C6.07984 8.7492 6.64984 9.32006 6.64984 10.0311C6.64984 10.7322 6.07984 11.303 5.36984 11.313Z" fill="#A3907A"/>
</svg>
