<svg width="18" height="20" viewBox="0 0 18 20" fill="none" xmlns="http://www.w3.org/2000/svg">
<path fill-rule="evenodd" clip-rule="evenodd" d="M4.81 0H13.191C16.28 0 18 1.78 18 4.83V15.16C18 18.26 16.28 20 13.191 20H4.81C1.77 20 0 18.26 0 15.16V4.83C0 1.78 1.77 0 4.81 0ZM5.0798 4.65708V4.64708H8.0688C8.4998 4.64708 8.8498 4.99708 8.8498 5.42608C8.8498 5.86708 8.4998 6.21708 8.0688 6.21708H5.0798C4.6488 6.21708 4.2998 5.86708 4.2998 5.43708C4.2998 5.00708 4.6488 4.65708 5.0798 4.65708ZM5.0798 10.7417H12.9198C13.3498 10.7417 13.6998 10.3917 13.6998 9.96168C13.6998 9.53168 13.3498 9.18068 12.9198 9.18068H5.0798C4.6488 9.18068 4.2998 9.53168 4.2998 9.96168C4.2998 10.3917 4.6488 10.7417 5.0798 10.7417ZM5.07996 15.3046H12.92C13.319 15.2646 13.62 14.9236 13.62 14.5246C13.62 14.1146 13.319 13.7746 12.92 13.7346H5.07996C4.77996 13.7046 4.48996 13.8446 4.32996 14.1046C4.16996 14.3546 4.16996 14.6846 4.32996 14.9446C4.48996 15.1946 4.77996 15.3446 5.07996 15.3046Z" fill="#A3907A"/>
</svg>
