<svg width="15" height="15" viewBox="0 0 15 15" fill="none" xmlns="http://www.w3.org/2000/svg">
<path d="M14.9475 10.9678C14.9087 10.6417 14.8111 10.3323 14.8111 10.3323C14.8034 10.3092 14.7989 10.2938 14.7967 10.2886C14.605 9.68522 14.2769 9.17295 13.8501 8.72617C13.7359 8.60676 13.6949 8.48223 13.685 8.31789C13.6251 7.28951 13.3868 6.32147 12.9623 5.41505C12.8858 5.25072 12.8836 5.25072 13.031 5.18139C14.0541 4.69993 14.6615 3.44559 14.5628 2.30936C14.4199 0.665998 12.9312 -0.427864 11.5989 0.161435C10.762 0.531191 10.3031 1.2707 10.1346 2.27084C10.1169 2.37612 10.1058 2.43774 9.99164 2.38382C9.09935 1.96014 8.16937 1.79452 7.20835 1.83561C6.479 1.86642 5.77514 2.03332 5.09456 2.33503C4.87619 2.43261 4.8773 2.43389 4.83075 2.163C4.59354 0.787965 3.53387 -0.122301 2.39662 0.0189249C1.12191 0.176842 0.197474 1.57498 0.446872 3.0386C0.619789 4.06056 1.14186 4.77311 1.96543 5.18909C2.03859 5.22632 2.10953 5.23788 2.04413 5.37012C1.58413 6.30349 1.34692 7.3139 1.28707 8.38209C1.27931 8.51818 1.24162 8.60933 1.15627 8.69792C0.515595 9.36297 0.0921714 10.1654 0.0134723 11.1784C-0.0752028 12.3172 0.271739 13.2159 1.11748 13.8321C1.70606 14.261 2.36336 14.4779 3.0384 14.632C4.18342 14.8939 5.34506 14.953 6.48897 14.9889C6.52888 14.9889 6.55104 14.9851 6.5721 14.9889C6.70955 15.021 6.82261 14.9735 6.84478 14.9709C7.01437 14.944 7.23939 14.6782 7.33804 14.3803C7.38016 14.2532 7.3724 14.0453 7.35577 13.6267C7.35466 13.5959 7.35023 13.5317 7.31365 13.4752C7.29702 13.4508 7.27375 13.429 7.23939 13.411C7.03876 13.3006 6.89244 13.1209 6.81596 12.8769C6.73283 12.6125 6.81707 12.4956 7.05871 12.5354C7.31808 12.5791 7.57746 12.5958 7.83794 12.5508C7.89669 12.5406 7.95655 12.529 8.0164 12.529C8.16382 12.529 8.22146 12.6086 8.19153 12.7729C8.13611 13.0747 7.9765 13.2865 7.73929 13.4149C7.7005 13.4354 7.67278 13.4598 7.65505 13.4893C7.62623 13.5368 7.6229 13.5895 7.6218 13.6164C7.60295 14.1762 7.67057 14.3803 7.67057 14.3803C7.72488 14.5421 7.82464 14.8464 8.06961 14.9555C8.12614 14.9812 8.17269 14.9966 8.2259 14.994C8.47751 14.9825 8.73024 14.9748 8.98185 14.9684C9.58263 14.9504 10.6811 14.8361 11.6743 14.691C15.5405 14.1249 14.9918 11.3196 14.9508 10.9691L14.9475 10.9678ZM4.34193 12.0681C3.852 12.0681 3.45518 11.4069 3.45518 10.5916C3.45518 9.77637 3.852 9.11518 4.34193 9.11518C4.83186 9.11518 5.22868 9.77637 5.22868 10.5916C5.22868 11.4069 4.83186 12.0681 4.34193 12.0681ZM10.66 12.0681C10.1701 12.0681 9.77328 11.4069 9.77328 10.5916C9.77328 9.77637 10.1701 9.11518 10.66 9.11518C11.15 9.11518 11.5468 9.77637 11.5468 10.5916C11.5468 11.4069 11.15 12.0681 10.66 12.0681Z" fill="#543816"/>
</svg>
