<svg width="38" height="38" viewBox="0 0 38 38" fill="none" xmlns="http://www.w3.org/2000/svg">
<ellipse cx="18.8434" cy="18.8355" rx="18.8434" ry="18.8355" fill="#E07D77"/>
<path d="M24.7098 10.2902C24.1109 10.0892 23.4809 10.0002 22.8499 10.0002C21.4599 9.99016 20.1109 10.4502 18.9999 11.2991C18.9099 11.2301 18.7999 11.1691 18.6999 11.1102C18.5999 11.0492 18.4199 10.9002 18.2699 10.8202L17.8899 10.6502C17.6899 10.5402 17.4809 10.4602 17.2599 10.3892C17.2399 10.3702 17.2099 10.3492 17.1699 10.3302H17.1109C16.5199 10.1292 15.9099 10.0192 15.2799 10.0002H15.17C14.89 10.0002 14.611 10.0192 14.33 10.0602H14.21C13.91 10.0992 13.611 10.1692 13.321 10.2692C9.59001 11.4901 8.26002 15.5401 9.39001 19.0801C10.03 20.8891 11.061 22.5301 12.401 23.879C14.35 25.759 16.4809 27.419 18.7699 28.839L19.0299 29L19.2799 28.849C21.5609 27.419 23.6799 25.759 25.6108 23.889C26.9598 22.5401 27.9898 20.8891 28.6198 19.0801C29.7308 15.5401 28.4008 11.4901 24.7098 10.2902V10.2902Z" fill="#FEFDFD"/>
</svg>
