<svg width="28" height="27" viewBox="0 0 28 27" fill="none" xmlns="http://www.w3.org/2000/svg">
<mask id="path-1-inside-1_1946_3873" fill="white">
<path d="M21.6624 0.39897C20.8364 0.122595 19.9677 0.000219549 19.0976 0.000219549C17.181 -0.0135305 15.3209 0.61897 13.7889 1.78634C13.6648 1.69147 13.5131 1.60759 13.3752 1.52647C13.2374 1.44259 12.9892 1.23772 12.7823 1.12772L12.2583 0.89397C11.9826 0.74272 11.6944 0.63272 11.3896 0.535095C11.3621 0.50897 11.3207 0.480095 11.2655 0.45397H11.1842C10.3693 0.177595 9.52814 0.0263445 8.65944 0.000219549H8.50777C8.12168 0.000219549 7.73697 0.0263445 7.3495 0.0827195H7.18403C6.77037 0.136345 6.35808 0.232595 5.9582 0.370095C0.813568 2.04897 -1.02035 7.61772 0.537789 12.4852C1.42028 14.9726 2.84191 17.229 4.68962 19.0838C7.37708 21.6688 10.3155 23.9513 13.4718 25.9038L13.8303 26.1252L14.175 25.9176C17.3202 23.9513 20.2421 21.6688 22.9047 19.0976C24.7649 17.2427 26.1851 14.9726 27.0538 12.4852C28.5858 7.61772 26.7518 2.04897 21.6624 0.39897V0.39897Z"/>
</mask>
<path d="M19.0976 0.000219549L19.0833 2.00017L19.0905 2.00022H19.0976V0.000219549ZM13.7889 1.78634L12.5742 3.37521L13.7869 4.30235L15.0011 3.37712L13.7889 1.78634ZM13.3752 1.52647L12.3359 3.23518L12.3484 3.24281L12.3611 3.25026L13.3752 1.52647ZM12.7823 1.12772L13.7214 -0.638088L13.6603 -0.670582L13.5971 -0.698775L12.7823 1.12772ZM12.2583 0.89397L11.2966 2.64755L11.3686 2.68702L11.4435 2.72046L12.2583 0.89397ZM11.3896 0.535095L10.0142 1.98703L10.3452 2.30063L10.7795 2.43974L11.3896 0.535095ZM11.2655 0.45397L12.1217 -1.35352L11.7153 -1.54603H11.2655V0.45397ZM11.1842 0.45397L10.5418 2.34801L10.8543 2.45397H11.1842V0.45397ZM8.65944 0.000219549L8.71956 -1.99888L8.68951 -1.99978H8.65944V0.000219549ZM7.3495 0.0827195V2.08272H7.49423L7.63746 2.06188L7.3495 0.0827195ZM7.18403 0.0827195V-1.91728H7.05494L6.92692 -1.90068L7.18403 0.0827195ZM5.9582 0.370095L6.57867 2.27142L6.59364 2.26653L6.60854 2.26141L5.9582 0.370095ZM0.537789 12.4852L-1.367 13.095L-1.35751 13.1246L-1.3471 13.154L0.537789 12.4852ZM4.68962 19.0838L3.27268 20.4953L3.28775 20.5105L3.30315 20.5253L4.68962 19.0838ZM13.4718 25.9038L12.4196 27.6047L12.421 27.6056L13.4718 25.9038ZM13.8303 26.1252L12.7795 27.8269L13.8173 28.4678L14.8622 27.8385L13.8303 26.1252ZM14.175 25.9176L15.2069 27.6308L15.2211 27.6223L15.2352 27.6135L14.175 25.9176ZM22.9047 19.0976L24.2941 20.5363L24.3056 20.5251L24.317 20.5138L22.9047 19.0976ZM27.0538 12.4852L28.942 13.1446L28.9522 13.1153L28.9616 13.0856L27.0538 12.4852ZM22.297 -1.49767C21.2397 -1.85147 20.1532 -1.99978 19.0976 -1.99978V2.00022C19.7822 2.00022 20.4332 2.09666 21.0277 2.29561L22.297 -1.49767ZM19.112 -1.99973C16.7429 -2.01672 14.4533 -1.2344 12.5767 0.19557L15.0011 3.37712C16.1884 2.47234 17.619 1.98966 19.0833 2.00017L19.112 -1.99973ZM15.0036 0.197474C14.755 0.00738554 14.4509 -0.161155 14.3894 -0.197323L12.3611 3.25026C12.3987 3.2724 12.446 3.29986 12.4723 3.31516C12.5045 3.33399 12.5282 3.34798 12.5482 3.36015C12.5918 3.38667 12.5929 3.38951 12.5742 3.37521L15.0036 0.197474ZM14.4146 -0.182243C14.4469 -0.162614 14.4559 -0.154737 14.4146 -0.184203C14.36 -0.223108 14.3564 -0.226484 14.2707 -0.287992C14.1663 -0.362949 13.9556 -0.513529 13.7214 -0.638088L11.8432 2.89353C11.8195 2.88089 11.8165 2.87756 11.8409 2.89371C11.8635 2.90861 11.8939 2.92974 11.9386 2.96178C11.9607 2.97767 11.9825 2.99347 12.0088 3.01252C12.0334 3.03032 12.0629 3.05164 12.0924 3.0727C12.1429 3.10868 12.2347 3.17362 12.3359 3.23518L14.4146 -0.182243ZM13.5971 -0.698775L13.0732 -0.932525L11.4435 2.72046L11.9675 2.95421L13.5971 -0.698775ZM13.2201 -0.85961C12.7887 -1.09621 12.3676 -1.25175 11.9998 -1.36955L10.7795 2.43974C11.0212 2.51719 11.1764 2.58165 11.2966 2.64755L13.2201 -0.85961ZM12.7651 -0.916845C12.5586 -1.11242 12.3329 -1.25349 12.1217 -1.35352L10.4094 2.26146C10.3085 2.21368 10.1655 2.13036 10.0142 1.98703L12.7651 -0.916845ZM11.2655 -1.54603H11.1842V2.45397H11.2655V-1.54603ZM11.8265 -1.44007C10.8221 -1.78071 9.78466 -1.96685 8.71956 -1.99888L8.59932 1.99932C9.27162 2.01953 9.91642 2.1359 10.5418 2.34801L11.8265 -1.44007ZM8.65944 -1.99978H8.50777V2.00022H8.65944V-1.99978ZM8.50777 -1.99978C8.03062 -1.99978 7.54948 -1.96743 7.06154 -1.89644L7.63746 2.06188C7.92446 2.02012 8.21274 2.00022 8.50777 2.00022V-1.99978ZM7.3495 -1.91728H7.18403V2.08272H7.3495V-1.91728ZM6.92692 -1.90068C6.37944 -1.82971 5.8354 -1.70261 5.30786 -1.52122L6.60854 2.26141C6.88076 2.1678 7.1613 2.1024 7.44115 2.06612L6.92692 -1.90068ZM5.33773 -1.53123C-1.1384 0.582164 -3.16093 7.49089 -1.367 13.095L2.44258 11.8755C1.12022 7.74455 2.76553 3.51578 6.57867 2.27142L5.33773 -1.53123ZM-1.3471 13.154C-0.365952 15.9194 1.21508 18.4297 3.27268 20.4953L6.10657 17.6724C4.46875 16.0282 3.20651 14.0258 2.42268 11.8165L-1.3471 13.154ZM3.30315 20.5253C6.09188 23.2077 9.14224 25.5773 12.4196 27.6047L14.5239 24.203C11.4887 22.3254 8.66227 20.13 6.07609 17.6424L3.30315 20.5253ZM12.421 27.6056L12.7795 27.8269L14.8811 24.4235L14.5226 24.2021L12.421 27.6056ZM14.8622 27.8385L15.2069 27.6308L13.1431 24.2043L12.7984 24.412L14.8622 27.8385ZM15.2352 27.6135C18.4985 25.5734 21.5307 23.2048 24.2941 20.5363L21.5154 17.6589C18.9535 20.1329 16.142 22.3293 13.1148 24.2217L15.2352 27.6135ZM24.317 20.5138C26.3934 18.4432 27.975 15.9134 28.942 13.1446L25.1657 11.8258C24.3952 14.0318 23.1363 16.0423 21.4925 17.6814L24.317 20.5138ZM28.9616 13.0856C30.72 7.49865 28.7121 0.582005 22.2792 -1.50355L21.0456 2.30149C24.7916 3.51593 26.4516 7.73679 25.1461 11.8848L28.9616 13.0856Z" fill="#E07D77" mask="url(#path-1-inside-1_1946_3873)"/>
</svg>
