<svg width="25" height="24" viewBox="0 0 25 24" fill="none" xmlns="http://www.w3.org/2000/svg">
<path fill-rule="evenodd" clip-rule="evenodd" d="M6.97975 24H17.6555C21.8318 24 24.6365 21.1463 24.6365 16.8999V7.10007C24.6365 2.85374 21.8318 0 17.6568 0H6.97975C2.80474 0 0 2.85374 0 7.10007V16.8999C0 21.1463 2.80474 24 6.97975 24ZM8.00569 10.7986C6.30744 10.7986 4.92754 9.4525 4.92754 7.79857C4.92754 6.14465 6.30744 4.79857 8.00569 4.79857C9.70271 4.79857 11.0838 6.14465 11.0838 7.79857C11.0838 9.4525 9.70271 10.7986 8.00569 10.7986ZM21.9519 15.5149C22.3644 16.5452 22.1501 17.7836 21.7092 18.804C21.1864 20.0177 20.1856 20.9365 18.9246 21.3378C18.3647 21.5161 17.7775 21.5941 17.1916 21.5941H6.81014C5.77707 21.5941 4.86291 21.3526 4.1135 20.9031C3.64404 20.6207 3.56104 19.9694 3.90912 19.5471C4.4913 18.8412 5.06606 18.1328 5.64577 17.4183C6.75068 16.0511 7.49514 15.6548 8.32259 16.0028C8.65827 16.1464 8.9952 16.3619 9.34203 16.5898C10.2661 17.2016 11.5506 18.0424 13.2427 17.1297C14.4006 16.498 15.0722 15.4143 15.657 14.4706L15.6668 14.4548C15.7082 14.3887 15.7492 14.3227 15.79 14.2568L15.7903 14.2564C15.9868 13.9396 16.1807 13.627 16.4001 13.339C16.6751 12.9786 17.6946 11.8517 19.015 12.6542C19.8561 13.1594 20.5634 13.843 21.3202 14.5749C21.6088 14.8548 21.8145 15.1731 21.9519 15.5149Z" fill="#543816"/>
</svg>
