<svg width="13" height="18" viewBox="0 0 13 18" fill="none" xmlns="http://www.w3.org/2000/svg">
<path d="M11.6751 9.42686C11.6209 9.36025 11.6124 9.30492 11.6315 9.22295C11.7739 8.61633 11.9428 8.01381 12.0406 7.40001C12.3211 5.61909 12.387 3.8187 12.4582 2.02241C12.5007 0.946485 11.6103 0.0621734 10.4702 0.00274112C9.40024 -0.0536171 8.42697 0.766139 8.33772 1.8103C8.18684 3.58098 8.0689 5.3537 8.07527 7.13257C8.07527 7.16638 8.0689 7.19917 8.06465 7.24733C6.98831 7.01575 5.92154 7.02293 4.85371 7.26988C4.84946 7.22479 4.84415 7.19405 4.84415 7.16433C4.82927 5.39571 4.69008 3.63324 4.53283 1.87178C4.48927 1.37891 4.28101 0.953658 3.90913 0.60936C3.29287 0.0386054 2.37698 -0.107926 1.60771 0.234322C0.820383 0.585793 0.358186 1.34202 0.4145 2.20584C0.484626 3.28586 0.544127 4.36589 0.636567 5.44387C0.748131 6.73909 0.904322 8.0302 1.30595 9.28033C1.33677 9.37563 1.31339 9.44121 1.2592 9.51191C1.15083 9.65639 1.03501 9.79575 0.939385 9.94741C0.0999937 11.2734 -0.157136 12.7131 0.0893685 14.2358C0.29656 15.5176 0.975511 16.5044 2.16235 17.1418C3.26312 17.733 4.47014 17.9185 5.70798 17.9779C5.74198 17.98 5.79298 17.9574 5.80892 17.9308C5.99167 17.6306 6.22542 17.3457 6.14255 16.9604C6.13936 16.9481 6.14042 16.9338 6.14255 16.9205C6.15317 16.8436 6.12236 16.8047 6.0448 16.7708C5.79617 16.6653 5.62404 16.4819 5.54329 16.2308C5.47316 16.0167 5.55072 15.9337 5.78235 15.9367C6.13192 15.9419 6.48149 15.9419 6.83106 15.9367C7.068 15.9337 7.14344 16.0228 7.06588 16.2431C6.97981 16.488 6.80875 16.6602 6.56968 16.7739C6.53037 16.7924 6.47618 16.8334 6.47512 16.8651C6.46874 17.1377 6.46449 17.3969 6.62174 17.6593C6.77581 17.9154 6.92775 18.0589 7.24013 17.9769C7.26669 17.9697 7.29538 17.9749 7.32301 17.9728C8.25803 17.9175 9.17711 17.7853 10.0601 17.4666C10.8474 17.1818 11.5423 16.7657 12.0746 16.1243C12.6292 15.4551 12.8981 14.6784 12.9714 13.8351C13.1127 12.2099 12.7387 10.7221 11.6762 9.42481L11.6751 9.42686ZM3.15262 15.575C2.71273 15.575 2.35572 15.0473 2.35572 14.3966C2.35572 13.7459 2.71273 13.2182 3.15262 13.2182C3.5925 13.2182 3.94951 13.7459 3.94951 14.3966C3.94951 15.0473 3.5925 15.575 3.15262 15.575ZM10.059 15.575C9.61911 15.575 9.26211 15.0473 9.26211 14.3966C9.26211 13.7459 9.61911 13.2182 10.059 13.2182C10.4989 13.2182 10.8559 13.7459 10.8559 14.3966C10.8559 15.0473 10.4989 15.575 10.059 15.575Z" fill="#543816"/>
</svg>
