<svg width="44" height="44" viewBox="0 0 44 44" fill="none" xmlns="http://www.w3.org/2000/svg">
<circle cx="22" cy="22" r="22" fill="#A3907A"/>
<g clip-path="url(#clip0_1120_1584)">
<path d="M29.9786 34.6179C32.3713 34.3282 33.6913 32.6168 33.6365 30.1578C33.6082 28.91 33.5742 27.6196 33.2588 26.4278C32.8698 24.9559 32.341 23.4725 31.5894 22.1647C30.3657 20.0361 28.2789 19.7116 26.3414 21.1275C23.3312 23.3257 19.2389 23.2696 16.325 20.8957C15.3279 20.0825 14.3704 20.0342 13.2638 20.4978C12.1175 20.9768 11.3772 21.8538 10.8428 22.9509C9.76822 25.1491 9.28855 27.4786 9.29799 29.9376C9.30932 32.7365 10.4915 34.4132 13.2071 34.643L29.9786 34.6198V34.6179Z" fill="white"/>
<path d="M21.4879 21.1218C17.8129 21.1315 14.8121 18.0853 14.8008 14.3322C14.7895 10.579 17.7657 7.51355 21.4407 7.4923C25.1005 7.47105 28.1126 10.5269 28.1353 14.2839C28.1579 18.0158 25.1496 21.1122 21.4879 21.1218Z" fill="white"/>
</g>
<defs>
<clipPath id="clip0_1120_1584">
<rect width="24.3404" height="27.1489" fill="white" transform="translate(9.29785 7.49219)"/>
</clipPath>
</defs>
</svg>
