<svg width="54" height="54" viewBox="0 0 54 54" fill="none" xmlns="http://www.w3.org/2000/svg">
<path d="M26.8854 32.7109C19.1229 32.7109 12.5732 33.9794 12.5732 38.8748C12.5732 43.7722 19.1652 44.9961 26.8854 44.9961C34.6478 44.9961 41.1975 43.7277 41.1975 38.8322C41.1975 33.9348 34.6055 32.7109 26.8854 32.7109Z" fill="white"/>
<path d="M26.8853 28.0508C32.1416 28.0508 36.3562 23.8119 36.3562 18.5254C36.3562 13.2369 32.1416 9 26.8853 9C21.6291 9 17.4144 13.2369 17.4144 18.5254C17.4144 23.8119 21.6291 28.0508 26.8853 28.0508Z" fill="white"/>
<path d="M47.4479 20.7395C48.8078 15.3902 44.8208 10.5859 39.7439 10.5859C39.1918 10.5859 38.664 10.6467 38.1483 10.7501C38.0798 10.7663 38.0032 10.8007 37.9629 10.8615C37.9166 10.9385 37.9508 11.0418 38.0012 11.1087C39.5263 13.2606 40.4027 15.8805 40.4027 18.693C40.4027 21.3879 39.5988 23.9004 38.1885 25.9854C38.0435 26.2002 38.1724 26.49 38.4283 26.5346C38.7829 26.5974 39.1455 26.6298 39.5162 26.6399C43.2131 26.7372 46.5312 24.3442 47.4479 20.7395Z" fill="white"/>
<path d="M51.3209 33.3351C50.644 31.8843 49.0101 30.8894 46.526 30.4011C45.3535 30.1134 42.1804 29.7081 39.229 29.7628C39.1846 29.7689 39.1605 29.7993 39.1564 29.8196C39.1504 29.8479 39.1625 29.8966 39.2209 29.9269C40.5848 30.6057 45.8572 33.558 45.1944 39.7847C45.1661 40.0542 45.3817 40.2872 45.6497 40.2466C46.9471 40.0602 50.2854 39.3389 51.3209 37.0918C51.8931 35.9044 51.8931 34.5245 51.3209 33.3351Z" fill="white"/>
<path d="M15.8508 10.7579C15.3371 10.6525 14.8072 10.5938 14.2552 10.5938C9.17827 10.5938 5.19126 15.398 6.55317 20.7473C7.46783 24.352 10.786 26.745 14.4829 26.6477C14.8536 26.6376 15.2182 26.6032 15.5708 26.5424C15.8266 26.4978 15.9556 26.208 15.8105 25.9933C14.4003 23.9062 13.5964 21.3957 13.5964 18.7008C13.5964 15.8863 14.4748 13.2664 15.9999 11.1165C16.0482 11.0497 16.0845 10.9463 16.0362 10.8693C15.9959 10.8065 15.9213 10.7741 15.8508 10.7579Z" fill="white"/>
<path d="M7.4735 30.4072C4.98943 30.8956 3.35756 31.8905 2.68063 33.3412C2.10646 34.5307 2.10646 35.9105 2.68063 37.0999C3.71617 39.345 7.05445 40.0684 8.35189 40.2528C8.61984 40.2933 8.83339 40.0623 8.80519 39.7908C8.14237 33.5662 13.4147 30.6139 14.7807 29.9351C14.8371 29.9027 14.8492 29.8561 14.8431 29.8257C14.8391 29.8054 14.8169 29.775 14.7726 29.771C11.8191 29.7143 8.64804 30.1195 7.4735 30.4072Z" fill="white"/>
</svg>
