<svg width="44" height="44" viewBox="0 0 44 44" fill="none" xmlns="http://www.w3.org/2000/svg">
<g clip-path="url(#clip0_1923_5953)">
<path d="M34.8808 0H9.11917C4.08279 0 0 4.08279 0 9.11917V34.8808C0 39.9172 4.08279 44 9.11917 44H34.8808C39.9172 44 44 39.9172 44 34.8808V9.11917C44 4.08279 39.9172 0 34.8808 0Z" fill="#1778F2"/>
<path d="M23.7542 34.4161V22.6398H27.7071L28.2999 18.0504H23.7542V15.1202C23.7542 13.7915 24.1233 12.886 26.0287 12.886H28.459V8.78234C27.2827 8.65789 26.1004 8.5976 24.9176 8.60176C21.4135 8.60176 19.0147 10.7404 19.0147 14.6683V18.0504H15.0518V22.6398H19.0147V34.4161H23.7542Z" fill="#FDFDFD"/>
</g>
<defs>
<clipPath id="clip0_1923_5953">
<rect width="44" height="44" fill="white"/>
</clipPath>
</defs>
</svg>
